<?xml version="1.0" encoding="utf-8" standalone="no"?>
<!DOCTYPE svg PUBLIC "-//W3C//DTD SVG 1.1//EN"
  "http://www.w3.org/Graphics/SVG/1.1/DTD/svg11.dtd">
<svg height="432pt" version="1.1" viewBox="0 0 648 432" width="648pt" xmlns="http://www.w3.org/2000/svg" xmlns:xlink="http://www.w3.org/1999/xlink">
 <metadata>
  <rdf:RDF xmlns:cc="http://creativecommons.org/ns#" xmlns:dc="http://purl.org/dc/elements/1.1/" xmlns:rdf="http://www.w3.org/1999/02/22-rdf-syntax-ns#">
   <cc:Work>
    <dc:type rdf:resource="http://purl.org/dc/dcmitype/StillImage"/>
    <dc:date>2021-09-25T15:34:48.365054</dc:date>
    <dc:format>image/svg+xml</dc:format>
    <dc:creator>
     <cc:Agent>
      <dc:title>Matplotlib v3.4.3, https://matplotlib.org/</dc:title>
     </cc:Agent>
    </dc:creator>
   </cc:Work>
  </rdf:RDF>
 </metadata>
 <defs>
  <style type="text/css">*{stroke-linecap:butt;stroke-linejoin:round;}</style>
 </defs>
 <g id="figure_1">
  <g id="patch_1">
   <path d="M 0 432 
L 648 432 
L 648 0 
L 0 0 
z
" style="fill:#ffffff;"/>
  </g>
  <g id="axes_1">
   <g id="patch_2">
    <path d="M 55.997054 390.04 
L 637.2 390.04 
L 637.2 10.8 
L 55.997054 10.8 
z
" style="fill:#ffffff;"/>
   </g>
   <g id="matplotlib.axis_1">
    <g id="xtick_1">
     <g id="line2d_1">
      <defs>
       <path d="M 0 0 
L 0 3.5 
" id="mac1e413f5d" style="stroke:#000000;stroke-width:0.8;"/>
      </defs>
      <g>
       <use style="stroke:#000000;stroke-width:0.8;" x="81.881666" xlink:href="#mac1e413f5d" y="390.04"/>
      </g>
     </g>
     <g id="text_1">
      <!-- 0 -->
      <g transform="translate(78.700416 404.638438)scale(0.1 -0.1)">
       <defs>
        <path d="M 2034 4250 
Q 1547 4250 1301 3770 
Q 1056 3291 1056 2328 
Q 1056 1369 1301 889 
Q 1547 409 2034 409 
Q 2525 409 2770 889 
Q 3016 1369 3016 2328 
Q 3016 3291 2770 3770 
Q 2525 4250 2034 4250 
z
M 2034 4750 
Q 2819 4750 3233 4129 
Q 3647 3509 3647 2328 
Q 3647 1150 3233 529 
Q 2819 -91 2034 -91 
Q 1250 -91 836 529 
Q 422 1150 422 2328 
Q 422 3509 836 4129 
Q 1250 4750 2034 4750 
z
" id="DejaVuSans-30" transform="scale(0.015625)"/>
       </defs>
       <use xlink:href="#DejaVuSans-30"/>
      </g>
     </g>
    </g>
    <g id="xtick_2">
     <g id="line2d_2">
      <g>
       <use style="stroke:#000000;stroke-width:0.8;" x="188.622336" xlink:href="#mac1e413f5d" y="390.04"/>
      </g>
     </g>
     <g id="text_2">
      <!-- 2000 -->
      <g transform="translate(175.897336 404.638438)scale(0.1 -0.1)">
       <defs>
        <path d="M 1228 531 
L 3431 531 
L 3431 0 
L 469 0 
L 469 531 
Q 828 903 1448 1529 
Q 2069 2156 2228 2338 
Q 2531 2678 2651 2914 
Q 2772 3150 2772 3378 
Q 2772 3750 2511 3984 
Q 2250 4219 1831 4219 
Q 1534 4219 1204 4116 
Q 875 4013 500 3803 
L 500 4441 
Q 881 4594 1212 4672 
Q 1544 4750 1819 4750 
Q 2544 4750 2975 4387 
Q 3406 4025 3406 3419 
Q 3406 3131 3298 2873 
Q 3191 2616 2906 2266 
Q 2828 2175 2409 1742 
Q 1991 1309 1228 531 
z
" id="DejaVuSans-32" transform="scale(0.015625)"/>
       </defs>
       <use xlink:href="#DejaVuSans-32"/>
       <use x="63.623047" xlink:href="#DejaVuSans-30"/>
       <use x="127.246094" xlink:href="#DejaVuSans-30"/>
       <use x="190.869141" xlink:href="#DejaVuSans-30"/>
      </g>
     </g>
    </g>
    <g id="xtick_3">
     <g id="line2d_3">
      <g>
       <use style="stroke:#000000;stroke-width:0.8;" x="295.363006" xlink:href="#mac1e413f5d" y="390.04"/>
      </g>
     </g>
     <g id="text_3">
      <!-- 4000 -->
      <g transform="translate(282.638006 404.638438)scale(0.1 -0.1)">
       <defs>
        <path d="M 2419 4116 
L 825 1625 
L 2419 1625 
L 2419 4116 
z
M 2253 4666 
L 3047 4666 
L 3047 1625 
L 3713 1625 
L 3713 1100 
L 3047 1100 
L 3047 0 
L 2419 0 
L 2419 1100 
L 313 1100 
L 313 1709 
L 2253 4666 
z
" id="DejaVuSans-34" transform="scale(0.015625)"/>
       </defs>
       <use xlink:href="#DejaVuSans-34"/>
       <use x="63.623047" xlink:href="#DejaVuSans-30"/>
       <use x="127.246094" xlink:href="#DejaVuSans-30"/>
       <use x="190.869141" xlink:href="#DejaVuSans-30"/>
      </g>
     </g>
    </g>
    <g id="xtick_4">
     <g id="line2d_4">
      <g>
       <use style="stroke:#000000;stroke-width:0.8;" x="402.103675" xlink:href="#mac1e413f5d" y="390.04"/>
      </g>
     </g>
     <g id="text_4">
      <!-- 6000 -->
      <g transform="translate(389.378675 404.638438)scale(0.1 -0.1)">
       <defs>
        <path d="M 2113 2584 
Q 1688 2584 1439 2293 
Q 1191 2003 1191 1497 
Q 1191 994 1439 701 
Q 1688 409 2113 409 
Q 2538 409 2786 701 
Q 3034 994 3034 1497 
Q 3034 2003 2786 2293 
Q 2538 2584 2113 2584 
z
M 3366 4563 
L 3366 3988 
Q 3128 4100 2886 4159 
Q 2644 4219 2406 4219 
Q 1781 4219 1451 3797 
Q 1122 3375 1075 2522 
Q 1259 2794 1537 2939 
Q 1816 3084 2150 3084 
Q 2853 3084 3261 2657 
Q 3669 2231 3669 1497 
Q 3669 778 3244 343 
Q 2819 -91 2113 -91 
Q 1303 -91 875 529 
Q 447 1150 447 2328 
Q 447 3434 972 4092 
Q 1497 4750 2381 4750 
Q 2619 4750 2861 4703 
Q 3103 4656 3366 4563 
z
" id="DejaVuSans-36" transform="scale(0.015625)"/>
       </defs>
       <use xlink:href="#DejaVuSans-36"/>
       <use x="63.623047" xlink:href="#DejaVuSans-30"/>
       <use x="127.246094" xlink:href="#DejaVuSans-30"/>
       <use x="190.869141" xlink:href="#DejaVuSans-30"/>
      </g>
     </g>
    </g>
    <g id="xtick_5">
     <g id="line2d_5">
      <g>
       <use style="stroke:#000000;stroke-width:0.8;" x="508.844345" xlink:href="#mac1e413f5d" y="390.04"/>
      </g>
     </g>
     <g id="text_5">
      <!-- 8000 -->
      <g transform="translate(496.119345 404.638438)scale(0.1 -0.1)">
       <defs>
        <path d="M 2034 2216 
Q 1584 2216 1326 1975 
Q 1069 1734 1069 1313 
Q 1069 891 1326 650 
Q 1584 409 2034 409 
Q 2484 409 2743 651 
Q 3003 894 3003 1313 
Q 3003 1734 2745 1975 
Q 2488 2216 2034 2216 
z
M 1403 2484 
Q 997 2584 770 2862 
Q 544 3141 544 3541 
Q 544 4100 942 4425 
Q 1341 4750 2034 4750 
Q 2731 4750 3128 4425 
Q 3525 4100 3525 3541 
Q 3525 3141 3298 2862 
Q 3072 2584 2669 2484 
Q 3125 2378 3379 2068 
Q 3634 1759 3634 1313 
Q 3634 634 3220 271 
Q 2806 -91 2034 -91 
Q 1263 -91 848 271 
Q 434 634 434 1313 
Q 434 1759 690 2068 
Q 947 2378 1403 2484 
z
M 1172 3481 
Q 1172 3119 1398 2916 
Q 1625 2713 2034 2713 
Q 2441 2713 2670 2916 
Q 2900 3119 2900 3481 
Q 2900 3844 2670 4047 
Q 2441 4250 2034 4250 
Q 1625 4250 1398 4047 
Q 1172 3844 1172 3481 
z
" id="DejaVuSans-38" transform="scale(0.015625)"/>
       </defs>
       <use xlink:href="#DejaVuSans-38"/>
       <use x="63.623047" xlink:href="#DejaVuSans-30"/>
       <use x="127.246094" xlink:href="#DejaVuSans-30"/>
       <use x="190.869141" xlink:href="#DejaVuSans-30"/>
      </g>
     </g>
    </g>
    <g id="xtick_6">
     <g id="line2d_6">
      <g>
       <use style="stroke:#000000;stroke-width:0.8;" x="615.585014" xlink:href="#mac1e413f5d" y="390.04"/>
      </g>
     </g>
     <g id="text_6">
      <!-- 10000 -->
      <g transform="translate(599.678764 404.638438)scale(0.1 -0.1)">
       <defs>
        <path d="M 794 531 
L 1825 531 
L 1825 4091 
L 703 3866 
L 703 4441 
L 1819 4666 
L 2450 4666 
L 2450 531 
L 3481 531 
L 3481 0 
L 794 0 
L 794 531 
z
" id="DejaVuSans-31" transform="scale(0.015625)"/>
       </defs>
       <use xlink:href="#DejaVuSans-31"/>
       <use x="63.623047" xlink:href="#DejaVuSans-30"/>
       <use x="127.246094" xlink:href="#DejaVuSans-30"/>
       <use x="190.869141" xlink:href="#DejaVuSans-30"/>
       <use x="254.492188" xlink:href="#DejaVuSans-30"/>
      </g>
     </g>
    </g>
    <g id="text_7">
     <!-- Number of matrices -->
     <g transform="translate(296.745402 418.316562)scale(0.1 -0.1)">
      <defs>
       <path d="M 628 4666 
L 1478 4666 
L 3547 763 
L 3547 4666 
L 4159 4666 
L 4159 0 
L 3309 0 
L 1241 3903 
L 1241 0 
L 628 0 
L 628 4666 
z
" id="DejaVuSans-4e" transform="scale(0.015625)"/>
       <path d="M 544 1381 
L 544 3500 
L 1119 3500 
L 1119 1403 
Q 1119 906 1312 657 
Q 1506 409 1894 409 
Q 2359 409 2629 706 
Q 2900 1003 2900 1516 
L 2900 3500 
L 3475 3500 
L 3475 0 
L 2900 0 
L 2900 538 
Q 2691 219 2414 64 
Q 2138 -91 1772 -91 
Q 1169 -91 856 284 
Q 544 659 544 1381 
z
M 1991 3584 
L 1991 3584 
z
" id="DejaVuSans-75" transform="scale(0.015625)"/>
       <path d="M 3328 2828 
Q 3544 3216 3844 3400 
Q 4144 3584 4550 3584 
Q 5097 3584 5394 3201 
Q 5691 2819 5691 2113 
L 5691 0 
L 5113 0 
L 5113 2094 
Q 5113 2597 4934 2840 
Q 4756 3084 4391 3084 
Q 3944 3084 3684 2787 
Q 3425 2491 3425 1978 
L 3425 0 
L 2847 0 
L 2847 2094 
Q 2847 2600 2669 2842 
Q 2491 3084 2119 3084 
Q 1678 3084 1418 2786 
Q 1159 2488 1159 1978 
L 1159 0 
L 581 0 
L 581 3500 
L 1159 3500 
L 1159 2956 
Q 1356 3278 1631 3431 
Q 1906 3584 2284 3584 
Q 2666 3584 2933 3390 
Q 3200 3197 3328 2828 
z
" id="DejaVuSans-6d" transform="scale(0.015625)"/>
       <path d="M 3116 1747 
Q 3116 2381 2855 2742 
Q 2594 3103 2138 3103 
Q 1681 3103 1420 2742 
Q 1159 2381 1159 1747 
Q 1159 1113 1420 752 
Q 1681 391 2138 391 
Q 2594 391 2855 752 
Q 3116 1113 3116 1747 
z
M 1159 2969 
Q 1341 3281 1617 3432 
Q 1894 3584 2278 3584 
Q 2916 3584 3314 3078 
Q 3713 2572 3713 1747 
Q 3713 922 3314 415 
Q 2916 -91 2278 -91 
Q 1894 -91 1617 61 
Q 1341 213 1159 525 
L 1159 0 
L 581 0 
L 581 4863 
L 1159 4863 
L 1159 2969 
z
" id="DejaVuSans-62" transform="scale(0.015625)"/>
       <path d="M 3597 1894 
L 3597 1613 
L 953 1613 
Q 991 1019 1311 708 
Q 1631 397 2203 397 
Q 2534 397 2845 478 
Q 3156 559 3463 722 
L 3463 178 
Q 3153 47 2828 -22 
Q 2503 -91 2169 -91 
Q 1331 -91 842 396 
Q 353 884 353 1716 
Q 353 2575 817 3079 
Q 1281 3584 2069 3584 
Q 2775 3584 3186 3129 
Q 3597 2675 3597 1894 
z
M 3022 2063 
Q 3016 2534 2758 2815 
Q 2500 3097 2075 3097 
Q 1594 3097 1305 2825 
Q 1016 2553 972 2059 
L 3022 2063 
z
" id="DejaVuSans-65" transform="scale(0.015625)"/>
       <path d="M 2631 2963 
Q 2534 3019 2420 3045 
Q 2306 3072 2169 3072 
Q 1681 3072 1420 2755 
Q 1159 2438 1159 1844 
L 1159 0 
L 581 0 
L 581 3500 
L 1159 3500 
L 1159 2956 
Q 1341 3275 1631 3429 
Q 1922 3584 2338 3584 
Q 2397 3584 2469 3576 
Q 2541 3569 2628 3553 
L 2631 2963 
z
" id="DejaVuSans-72" transform="scale(0.015625)"/>
       <path id="DejaVuSans-20" transform="scale(0.015625)"/>
       <path d="M 1959 3097 
Q 1497 3097 1228 2736 
Q 959 2375 959 1747 
Q 959 1119 1226 758 
Q 1494 397 1959 397 
Q 2419 397 2687 759 
Q 2956 1122 2956 1747 
Q 2956 2369 2687 2733 
Q 2419 3097 1959 3097 
z
M 1959 3584 
Q 2709 3584 3137 3096 
Q 3566 2609 3566 1747 
Q 3566 888 3137 398 
Q 2709 -91 1959 -91 
Q 1206 -91 779 398 
Q 353 888 353 1747 
Q 353 2609 779 3096 
Q 1206 3584 1959 3584 
z
" id="DejaVuSans-6f" transform="scale(0.015625)"/>
       <path d="M 2375 4863 
L 2375 4384 
L 1825 4384 
Q 1516 4384 1395 4259 
Q 1275 4134 1275 3809 
L 1275 3500 
L 2222 3500 
L 2222 3053 
L 1275 3053 
L 1275 0 
L 697 0 
L 697 3053 
L 147 3053 
L 147 3500 
L 697 3500 
L 697 3744 
Q 697 4328 969 4595 
Q 1241 4863 1831 4863 
L 2375 4863 
z
" id="DejaVuSans-66" transform="scale(0.015625)"/>
       <path d="M 2194 1759 
Q 1497 1759 1228 1600 
Q 959 1441 959 1056 
Q 959 750 1161 570 
Q 1363 391 1709 391 
Q 2188 391 2477 730 
Q 2766 1069 2766 1631 
L 2766 1759 
L 2194 1759 
z
M 3341 1997 
L 3341 0 
L 2766 0 
L 2766 531 
Q 2569 213 2275 61 
Q 1981 -91 1556 -91 
Q 1019 -91 701 211 
Q 384 513 384 1019 
Q 384 1609 779 1909 
Q 1175 2209 1959 2209 
L 2766 2209 
L 2766 2266 
Q 2766 2663 2505 2880 
Q 2244 3097 1772 3097 
Q 1472 3097 1187 3025 
Q 903 2953 641 2809 
L 641 3341 
Q 956 3463 1253 3523 
Q 1550 3584 1831 3584 
Q 2591 3584 2966 3190 
Q 3341 2797 3341 1997 
z
" id="DejaVuSans-61" transform="scale(0.015625)"/>
       <path d="M 1172 4494 
L 1172 3500 
L 2356 3500 
L 2356 3053 
L 1172 3053 
L 1172 1153 
Q 1172 725 1289 603 
Q 1406 481 1766 481 
L 2356 481 
L 2356 0 
L 1766 0 
Q 1100 0 847 248 
Q 594 497 594 1153 
L 594 3053 
L 172 3053 
L 172 3500 
L 594 3500 
L 594 4494 
L 1172 4494 
z
" id="DejaVuSans-74" transform="scale(0.015625)"/>
       <path d="M 603 3500 
L 1178 3500 
L 1178 0 
L 603 0 
L 603 3500 
z
M 603 4863 
L 1178 4863 
L 1178 4134 
L 603 4134 
L 603 4863 
z
" id="DejaVuSans-69" transform="scale(0.015625)"/>
       <path d="M 3122 3366 
L 3122 2828 
Q 2878 2963 2633 3030 
Q 2388 3097 2138 3097 
Q 1578 3097 1268 2742 
Q 959 2388 959 1747 
Q 959 1106 1268 751 
Q 1578 397 2138 397 
Q 2388 397 2633 464 
Q 2878 531 3122 666 
L 3122 134 
Q 2881 22 2623 -34 
Q 2366 -91 2075 -91 
Q 1284 -91 818 406 
Q 353 903 353 1747 
Q 353 2603 823 3093 
Q 1294 3584 2113 3584 
Q 2378 3584 2631 3529 
Q 2884 3475 3122 3366 
z
" id="DejaVuSans-63" transform="scale(0.015625)"/>
       <path d="M 2834 3397 
L 2834 2853 
Q 2591 2978 2328 3040 
Q 2066 3103 1784 3103 
Q 1356 3103 1142 2972 
Q 928 2841 928 2578 
Q 928 2378 1081 2264 
Q 1234 2150 1697 2047 
L 1894 2003 
Q 2506 1872 2764 1633 
Q 3022 1394 3022 966 
Q 3022 478 2636 193 
Q 2250 -91 1575 -91 
Q 1294 -91 989 -36 
Q 684 19 347 128 
L 347 722 
Q 666 556 975 473 
Q 1284 391 1588 391 
Q 1994 391 2212 530 
Q 2431 669 2431 922 
Q 2431 1156 2273 1281 
Q 2116 1406 1581 1522 
L 1381 1569 
Q 847 1681 609 1914 
Q 372 2147 372 2553 
Q 372 3047 722 3315 
Q 1072 3584 1716 3584 
Q 2034 3584 2315 3537 
Q 2597 3491 2834 3397 
z
" id="DejaVuSans-73" transform="scale(0.015625)"/>
      </defs>
      <use xlink:href="#DejaVuSans-4e"/>
      <use x="74.804688" xlink:href="#DejaVuSans-75"/>
      <use x="138.183594" xlink:href="#DejaVuSans-6d"/>
      <use x="235.595703" xlink:href="#DejaVuSans-62"/>
      <use x="299.072266" xlink:href="#DejaVuSans-65"/>
      <use x="360.595703" xlink:href="#DejaVuSans-72"/>
      <use x="401.708984" xlink:href="#DejaVuSans-20"/>
      <use x="433.496094" xlink:href="#DejaVuSans-6f"/>
      <use x="494.677734" xlink:href="#DejaVuSans-66"/>
      <use x="529.882812" xlink:href="#DejaVuSans-20"/>
      <use x="561.669922" xlink:href="#DejaVuSans-6d"/>
      <use x="659.082031" xlink:href="#DejaVuSans-61"/>
      <use x="720.361328" xlink:href="#DejaVuSans-74"/>
      <use x="759.570312" xlink:href="#DejaVuSans-72"/>
      <use x="800.683594" xlink:href="#DejaVuSans-69"/>
      <use x="828.466797" xlink:href="#DejaVuSans-63"/>
      <use x="883.447266" xlink:href="#DejaVuSans-65"/>
      <use x="944.970703" xlink:href="#DejaVuSans-73"/>
     </g>
    </g>
   </g>
   <g id="matplotlib.axis_2">
    <g id="ytick_1">
     <g id="line2d_7">
      <defs>
       <path d="M 0 0 
L -3.5 0 
" id="m76fb293e97" style="stroke:#000000;stroke-width:0.8;"/>
      </defs>
      <g>
       <use style="stroke:#000000;stroke-width:0.8;" x="55.997054" xlink:href="#m76fb293e97" y="345.779484"/>
      </g>
     </g>
     <g id="text_8">
      <!-- $\mathdefault{10^{-5}}$ -->
      <g transform="translate(25.497054 349.578703)scale(0.1 -0.1)">
       <defs>
        <path d="M 678 2272 
L 4684 2272 
L 4684 1741 
L 678 1741 
L 678 2272 
z
" id="DejaVuSans-2212" transform="scale(0.015625)"/>
        <path d="M 691 4666 
L 3169 4666 
L 3169 4134 
L 1269 4134 
L 1269 2991 
Q 1406 3038 1543 3061 
Q 1681 3084 1819 3084 
Q 2600 3084 3056 2656 
Q 3513 2228 3513 1497 
Q 3513 744 3044 326 
Q 2575 -91 1722 -91 
Q 1428 -91 1123 -41 
Q 819 9 494 109 
L 494 744 
Q 775 591 1075 516 
Q 1375 441 1709 441 
Q 2250 441 2565 725 
Q 2881 1009 2881 1497 
Q 2881 1984 2565 2268 
Q 2250 2553 1709 2553 
Q 1456 2553 1204 2497 
Q 953 2441 691 2322 
L 691 4666 
z
" id="DejaVuSans-35" transform="scale(0.015625)"/>
       </defs>
       <use transform="translate(0 0.684375)" xlink:href="#DejaVuSans-31"/>
       <use transform="translate(63.623047 0.684375)" xlink:href="#DejaVuSans-30"/>
       <use transform="translate(128.203125 38.965625)scale(0.7)" xlink:href="#DejaVuSans-2212"/>
       <use transform="translate(186.855469 38.965625)scale(0.7)" xlink:href="#DejaVuSans-35"/>
      </g>
     </g>
    </g>
    <g id="ytick_2">
     <g id="line2d_8">
      <g>
       <use style="stroke:#000000;stroke-width:0.8;" x="55.997054" xlink:href="#m76fb293e97" y="261.27722"/>
      </g>
     </g>
     <g id="text_9">
      <!-- $\mathdefault{10^{-4}}$ -->
      <g transform="translate(25.497054 265.076438)scale(0.1 -0.1)">
       <use transform="translate(0 0.684375)" xlink:href="#DejaVuSans-31"/>
       <use transform="translate(63.623047 0.684375)" xlink:href="#DejaVuSans-30"/>
       <use transform="translate(128.203125 38.965625)scale(0.7)" xlink:href="#DejaVuSans-2212"/>
       <use transform="translate(186.855469 38.965625)scale(0.7)" xlink:href="#DejaVuSans-34"/>
      </g>
     </g>
    </g>
    <g id="ytick_3">
     <g id="line2d_9">
      <g>
       <use style="stroke:#000000;stroke-width:0.8;" x="55.997054" xlink:href="#m76fb293e97" y="176.774955"/>
      </g>
     </g>
     <g id="text_10">
      <!-- $\mathdefault{10^{-3}}$ -->
      <g transform="translate(25.497054 180.574174)scale(0.1 -0.1)">
       <defs>
        <path d="M 2597 2516 
Q 3050 2419 3304 2112 
Q 3559 1806 3559 1356 
Q 3559 666 3084 287 
Q 2609 -91 1734 -91 
Q 1441 -91 1130 -33 
Q 819 25 488 141 
L 488 750 
Q 750 597 1062 519 
Q 1375 441 1716 441 
Q 2309 441 2620 675 
Q 2931 909 2931 1356 
Q 2931 1769 2642 2001 
Q 2353 2234 1838 2234 
L 1294 2234 
L 1294 2753 
L 1863 2753 
Q 2328 2753 2575 2939 
Q 2822 3125 2822 3475 
Q 2822 3834 2567 4026 
Q 2313 4219 1838 4219 
Q 1578 4219 1281 4162 
Q 984 4106 628 3988 
L 628 4550 
Q 988 4650 1302 4700 
Q 1616 4750 1894 4750 
Q 2613 4750 3031 4423 
Q 3450 4097 3450 3541 
Q 3450 3153 3228 2886 
Q 3006 2619 2597 2516 
z
" id="DejaVuSans-33" transform="scale(0.015625)"/>
       </defs>
       <use transform="translate(0 0.765625)" xlink:href="#DejaVuSans-31"/>
       <use transform="translate(63.623047 0.765625)" xlink:href="#DejaVuSans-30"/>
       <use transform="translate(128.203125 39.046875)scale(0.7)" xlink:href="#DejaVuSans-2212"/>
       <use transform="translate(186.855469 39.046875)scale(0.7)" xlink:href="#DejaVuSans-33"/>
      </g>
     </g>
    </g>
    <g id="ytick_4">
     <g id="line2d_10">
      <g>
       <use style="stroke:#000000;stroke-width:0.8;" x="55.997054" xlink:href="#m76fb293e97" y="92.272691"/>
      </g>
     </g>
     <g id="text_11">
      <!-- $\mathdefault{10^{-2}}$ -->
      <g transform="translate(25.497054 96.07191)scale(0.1 -0.1)">
       <use transform="translate(0 0.765625)" xlink:href="#DejaVuSans-31"/>
       <use transform="translate(63.623047 0.765625)" xlink:href="#DejaVuSans-30"/>
       <use transform="translate(128.203125 39.046875)scale(0.7)" xlink:href="#DejaVuSans-2212"/>
       <use transform="translate(186.855469 39.046875)scale(0.7)" xlink:href="#DejaVuSans-32"/>
      </g>
     </g>
    </g>
    <g id="ytick_5">
     <g id="line2d_11">
      <defs>
       <path d="M 0 0 
L -2 0 
" id="m118bfc7e0d" style="stroke:#000000;stroke-width:0.6;"/>
      </defs>
      <g>
       <use style="stroke:#000000;stroke-width:0.6;" x="55.997054" xlink:href="#m118bfc7e0d" y="389.963922"/>
      </g>
     </g>
    </g>
    <g id="ytick_6">
     <g id="line2d_12">
      <g>
       <use style="stroke:#000000;stroke-width:0.6;" x="55.997054" xlink:href="#m118bfc7e0d" y="379.406316"/>
      </g>
     </g>
    </g>
    <g id="ytick_7">
     <g id="line2d_13">
      <g>
       <use style="stroke:#000000;stroke-width:0.6;" x="55.997054" xlink:href="#m118bfc7e0d" y="371.2172"/>
      </g>
     </g>
    </g>
    <g id="ytick_8">
     <g id="line2d_14">
      <g>
       <use style="stroke:#000000;stroke-width:0.6;" x="55.997054" xlink:href="#m118bfc7e0d" y="364.526206"/>
      </g>
     </g>
    </g>
    <g id="ytick_9">
     <g id="line2d_15">
      <g>
       <use style="stroke:#000000;stroke-width:0.6;" x="55.997054" xlink:href="#m118bfc7e0d" y="358.86905"/>
      </g>
     </g>
    </g>
    <g id="ytick_10">
     <g id="line2d_16">
      <g>
       <use style="stroke:#000000;stroke-width:0.6;" x="55.997054" xlink:href="#m118bfc7e0d" y="353.968599"/>
      </g>
     </g>
    </g>
    <g id="ytick_11">
     <g id="line2d_17">
      <g>
       <use style="stroke:#000000;stroke-width:0.6;" x="55.997054" xlink:href="#m118bfc7e0d" y="349.646095"/>
      </g>
     </g>
    </g>
    <g id="ytick_12">
     <g id="line2d_18">
      <g>
       <use style="stroke:#000000;stroke-width:0.6;" x="55.997054" xlink:href="#m118bfc7e0d" y="320.341768"/>
      </g>
     </g>
    </g>
    <g id="ytick_13">
     <g id="line2d_19">
      <g>
       <use style="stroke:#000000;stroke-width:0.6;" x="55.997054" xlink:href="#m118bfc7e0d" y="305.461657"/>
      </g>
     </g>
    </g>
    <g id="ytick_14">
     <g id="line2d_20">
      <g>
       <use style="stroke:#000000;stroke-width:0.6;" x="55.997054" xlink:href="#m118bfc7e0d" y="294.904051"/>
      </g>
     </g>
    </g>
    <g id="ytick_15">
     <g id="line2d_21">
      <g>
       <use style="stroke:#000000;stroke-width:0.6;" x="55.997054" xlink:href="#m118bfc7e0d" y="286.714936"/>
      </g>
     </g>
    </g>
    <g id="ytick_16">
     <g id="line2d_22">
      <g>
       <use style="stroke:#000000;stroke-width:0.6;" x="55.997054" xlink:href="#m118bfc7e0d" y="280.023941"/>
      </g>
     </g>
    </g>
    <g id="ytick_17">
     <g id="line2d_23">
      <g>
       <use style="stroke:#000000;stroke-width:0.6;" x="55.997054" xlink:href="#m118bfc7e0d" y="274.366786"/>
      </g>
     </g>
    </g>
    <g id="ytick_18">
     <g id="line2d_24">
      <g>
       <use style="stroke:#000000;stroke-width:0.6;" x="55.997054" xlink:href="#m118bfc7e0d" y="269.466335"/>
      </g>
     </g>
    </g>
    <g id="ytick_19">
     <g id="line2d_25">
      <g>
       <use style="stroke:#000000;stroke-width:0.6;" x="55.997054" xlink:href="#m118bfc7e0d" y="265.143831"/>
      </g>
     </g>
    </g>
    <g id="ytick_20">
     <g id="line2d_26">
      <g>
       <use style="stroke:#000000;stroke-width:0.6;" x="55.997054" xlink:href="#m118bfc7e0d" y="235.839503"/>
      </g>
     </g>
    </g>
    <g id="ytick_21">
     <g id="line2d_27">
      <g>
       <use style="stroke:#000000;stroke-width:0.6;" x="55.997054" xlink:href="#m118bfc7e0d" y="220.959393"/>
      </g>
     </g>
    </g>
    <g id="ytick_22">
     <g id="line2d_28">
      <g>
       <use style="stroke:#000000;stroke-width:0.6;" x="55.997054" xlink:href="#m118bfc7e0d" y="210.401787"/>
      </g>
     </g>
    </g>
    <g id="ytick_23">
     <g id="line2d_29">
      <g>
       <use style="stroke:#000000;stroke-width:0.6;" x="55.997054" xlink:href="#m118bfc7e0d" y="202.212671"/>
      </g>
     </g>
    </g>
    <g id="ytick_24">
     <g id="line2d_30">
      <g>
       <use style="stroke:#000000;stroke-width:0.6;" x="55.997054" xlink:href="#m118bfc7e0d" y="195.521677"/>
      </g>
     </g>
    </g>
    <g id="ytick_25">
     <g id="line2d_31">
      <g>
       <use style="stroke:#000000;stroke-width:0.6;" x="55.997054" xlink:href="#m118bfc7e0d" y="189.864522"/>
      </g>
     </g>
    </g>
    <g id="ytick_26">
     <g id="line2d_32">
      <g>
       <use style="stroke:#000000;stroke-width:0.6;" x="55.997054" xlink:href="#m118bfc7e0d" y="184.964071"/>
      </g>
     </g>
    </g>
    <g id="ytick_27">
     <g id="line2d_33">
      <g>
       <use style="stroke:#000000;stroke-width:0.6;" x="55.997054" xlink:href="#m118bfc7e0d" y="180.641567"/>
      </g>
     </g>
    </g>
    <g id="ytick_28">
     <g id="line2d_34">
      <g>
       <use style="stroke:#000000;stroke-width:0.6;" x="55.997054" xlink:href="#m118bfc7e0d" y="151.337239"/>
      </g>
     </g>
    </g>
    <g id="ytick_29">
     <g id="line2d_35">
      <g>
       <use style="stroke:#000000;stroke-width:0.6;" x="55.997054" xlink:href="#m118bfc7e0d" y="136.457129"/>
      </g>
     </g>
    </g>
    <g id="ytick_30">
     <g id="line2d_36">
      <g>
       <use style="stroke:#000000;stroke-width:0.6;" x="55.997054" xlink:href="#m118bfc7e0d" y="125.899523"/>
      </g>
     </g>
    </g>
    <g id="ytick_31">
     <g id="line2d_37">
      <g>
       <use style="stroke:#000000;stroke-width:0.6;" x="55.997054" xlink:href="#m118bfc7e0d" y="117.710407"/>
      </g>
     </g>
    </g>
    <g id="ytick_32">
     <g id="line2d_38">
      <g>
       <use style="stroke:#000000;stroke-width:0.6;" x="55.997054" xlink:href="#m118bfc7e0d" y="111.019413"/>
      </g>
     </g>
    </g>
    <g id="ytick_33">
     <g id="line2d_39">
      <g>
       <use style="stroke:#000000;stroke-width:0.6;" x="55.997054" xlink:href="#m118bfc7e0d" y="105.362257"/>
      </g>
     </g>
    </g>
    <g id="ytick_34">
     <g id="line2d_40">
      <g>
       <use style="stroke:#000000;stroke-width:0.6;" x="55.997054" xlink:href="#m118bfc7e0d" y="100.461806"/>
      </g>
     </g>
    </g>
    <g id="ytick_35">
     <g id="line2d_41">
      <g>
       <use style="stroke:#000000;stroke-width:0.6;" x="55.997054" xlink:href="#m118bfc7e0d" y="96.139302"/>
      </g>
     </g>
    </g>
    <g id="ytick_36">
     <g id="line2d_42">
      <g>
       <use style="stroke:#000000;stroke-width:0.6;" x="55.997054" xlink:href="#m118bfc7e0d" y="66.834975"/>
      </g>
     </g>
    </g>
    <g id="ytick_37">
     <g id="line2d_43">
      <g>
       <use style="stroke:#000000;stroke-width:0.6;" x="55.997054" xlink:href="#m118bfc7e0d" y="51.954865"/>
      </g>
     </g>
    </g>
    <g id="ytick_38">
     <g id="line2d_44">
      <g>
       <use style="stroke:#000000;stroke-width:0.6;" x="55.997054" xlink:href="#m118bfc7e0d" y="41.397258"/>
      </g>
     </g>
    </g>
    <g id="ytick_39">
     <g id="line2d_45">
      <g>
       <use style="stroke:#000000;stroke-width:0.6;" x="55.997054" xlink:href="#m118bfc7e0d" y="33.208143"/>
      </g>
     </g>
    </g>
    <g id="ytick_40">
     <g id="line2d_46">
      <g>
       <use style="stroke:#000000;stroke-width:0.6;" x="55.997054" xlink:href="#m118bfc7e0d" y="26.517148"/>
      </g>
     </g>
    </g>
    <g id="ytick_41">
     <g id="line2d_47">
      <g>
       <use style="stroke:#000000;stroke-width:0.6;" x="55.997054" xlink:href="#m118bfc7e0d" y="20.859993"/>
      </g>
     </g>
    </g>
    <g id="ytick_42">
     <g id="line2d_48">
      <g>
       <use style="stroke:#000000;stroke-width:0.6;" x="55.997054" xlink:href="#m118bfc7e0d" y="15.959542"/>
      </g>
     </g>
    </g>
    <g id="ytick_43">
     <g id="line2d_49">
      <g>
       <use style="stroke:#000000;stroke-width:0.6;" x="55.997054" xlink:href="#m118bfc7e0d" y="11.637038"/>
      </g>
     </g>
    </g>
    <g id="text_12">
     <!-- seconds per loop -->
     <g transform="translate(19.417366 243.023906)rotate(-90)scale(0.1 -0.1)">
      <defs>
       <path d="M 3513 2113 
L 3513 0 
L 2938 0 
L 2938 2094 
Q 2938 2591 2744 2837 
Q 2550 3084 2163 3084 
Q 1697 3084 1428 2787 
Q 1159 2491 1159 1978 
L 1159 0 
L 581 0 
L 581 3500 
L 1159 3500 
L 1159 2956 
Q 1366 3272 1645 3428 
Q 1925 3584 2291 3584 
Q 2894 3584 3203 3211 
Q 3513 2838 3513 2113 
z
" id="DejaVuSans-6e" transform="scale(0.015625)"/>
       <path d="M 2906 2969 
L 2906 4863 
L 3481 4863 
L 3481 0 
L 2906 0 
L 2906 525 
Q 2725 213 2448 61 
Q 2172 -91 1784 -91 
Q 1150 -91 751 415 
Q 353 922 353 1747 
Q 353 2572 751 3078 
Q 1150 3584 1784 3584 
Q 2172 3584 2448 3432 
Q 2725 3281 2906 2969 
z
M 947 1747 
Q 947 1113 1208 752 
Q 1469 391 1925 391 
Q 2381 391 2643 752 
Q 2906 1113 2906 1747 
Q 2906 2381 2643 2742 
Q 2381 3103 1925 3103 
Q 1469 3103 1208 2742 
Q 947 2381 947 1747 
z
" id="DejaVuSans-64" transform="scale(0.015625)"/>
       <path d="M 1159 525 
L 1159 -1331 
L 581 -1331 
L 581 3500 
L 1159 3500 
L 1159 2969 
Q 1341 3281 1617 3432 
Q 1894 3584 2278 3584 
Q 2916 3584 3314 3078 
Q 3713 2572 3713 1747 
Q 3713 922 3314 415 
Q 2916 -91 2278 -91 
Q 1894 -91 1617 61 
Q 1341 213 1159 525 
z
M 3116 1747 
Q 3116 2381 2855 2742 
Q 2594 3103 2138 3103 
Q 1681 3103 1420 2742 
Q 1159 2381 1159 1747 
Q 1159 1113 1420 752 
Q 1681 391 2138 391 
Q 2594 391 2855 752 
Q 3116 1113 3116 1747 
z
" id="DejaVuSans-70" transform="scale(0.015625)"/>
       <path d="M 603 4863 
L 1178 4863 
L 1178 0 
L 603 0 
L 603 4863 
z
" id="DejaVuSans-6c" transform="scale(0.015625)"/>
      </defs>
      <use xlink:href="#DejaVuSans-73"/>
      <use x="52.099609" xlink:href="#DejaVuSans-65"/>
      <use x="113.623047" xlink:href="#DejaVuSans-63"/>
      <use x="168.603516" xlink:href="#DejaVuSans-6f"/>
      <use x="229.785156" xlink:href="#DejaVuSans-6e"/>
      <use x="293.164062" xlink:href="#DejaVuSans-64"/>
      <use x="356.640625" xlink:href="#DejaVuSans-73"/>
      <use x="408.740234" xlink:href="#DejaVuSans-20"/>
      <use x="440.527344" xlink:href="#DejaVuSans-70"/>
      <use x="504.003906" xlink:href="#DejaVuSans-65"/>
      <use x="565.527344" xlink:href="#DejaVuSans-72"/>
      <use x="606.640625" xlink:href="#DejaVuSans-20"/>
      <use x="638.427734" xlink:href="#DejaVuSans-6c"/>
      <use x="666.210938" xlink:href="#DejaVuSans-6f"/>
      <use x="727.392578" xlink:href="#DejaVuSans-6f"/>
      <use x="788.574219" xlink:href="#DejaVuSans-70"/>
     </g>
    </g>
   </g>
   <g id="line2d_50">
    <path clip-path="url(#pdd100c794e)" d="M 82.41537 292.082727 
L 87.752403 207.661196 
L 93.089437 193.334067 
L 98.42647 181.369556 
L 103.763504 173.233266 
L 109.100537 165.558193 
L 114.437571 160.264867 
L 119.774604 155.133759 
L 125.111637 149.563507 
L 130.448671 143.441983 
L 135.785704 142.171089 
L 141.122738 139.202286 
L 146.459771 136.439964 
L 151.796805 134.270038 
L 157.133838 131.096998 
L 162.470872 127.163795 
L 167.807905 127.208459 
L 173.144939 125.055125 
L 178.481972 121.772164 
L 183.819006 120.167165 
L 189.156039 116.964608 
L 194.493073 118.336096 
L 199.830106 116.467521 
L 205.16714 115.015681 
L 210.504173 114.308908 
L 215.841207 111.584564 
L 221.17824 111.569223 
L 226.515274 109.149127 
L 231.852307 106.998768 
L 237.189341 106.994469 
L 242.526374 103.828268 
L 247.863408 102.237696 
L 253.200441 101.203022 
L 258.537475 102.340554 
L 263.874508 101.908737 
L 269.211541 100.126039 
L 274.548575 99.341545 
L 279.885608 98.284939 
L 285.222642 96.673158 
L 290.559675 95.652781 
L 295.896709 95.279902 
L 301.233742 93.736258 
L 306.570776 93.264662 
L 311.907809 92.976715 
L 317.244843 91.25979 
L 322.581876 90.979909 
L 327.91891 90.272149 
L 333.255943 88.930958 
L 338.592977 87.907662 
L 343.93001 86.928154 
L 349.267044 84.97118 
L 354.604077 82.302445 
L 359.941111 84.853439 
L 365.278144 79.87318 
L 370.615178 82.971359 
L 375.952211 82.394171 
L 381.289245 81.026795 
L 386.626278 80.605161 
L 391.963312 79.81821 
L 397.300345 79.198827 
L 402.637379 80.392081 
L 407.974412 79.437601 
L 413.311445 77.214555 
L 418.648479 76.07231 
L 423.985512 76.599444 
L 429.322546 77.383754 
L 434.659579 73.945213 
L 439.996613 74.798577 
L 445.333646 74.706419 
L 450.67068 76.013522 
L 456.007713 73.460441 
L 461.344747 73.129613 
L 466.68178 72.795553 
L 472.018814 70.710823 
L 477.355847 70.654676 
L 482.692881 69.71646 
L 488.029914 70.757932 
L 493.366948 69.583703 
L 498.703981 68.967528 
L 504.041015 68.887856 
L 509.378048 67.369648 
L 514.715082 69.390001 
L 520.052115 66.621146 
L 525.389149 68.479666 
L 530.726182 65.78389 
L 536.063216 66.58312 
L 541.400249 66.915433 
L 546.737282 66.510143 
L 552.074316 66.048982 
L 557.411349 65.820474 
L 562.748383 65.459082 
L 568.085416 65.39138 
L 573.42245 65.337688 
L 578.759483 61.935756 
L 584.096517 62.274831 
L 589.43355 61.832549 
L 594.770584 60.475823 
L 600.107617 61.129048 
L 605.444651 59.849295 
L 610.781684 59.807681 
" style="fill:none;stroke:#1f77b4;stroke-linecap:square;stroke-width:1.5;"/>
   </g>
   <g id="line2d_51">
    <path clip-path="url(#pdd100c794e)" d="M 82.41537 252.61332 
L 87.752403 239.645897 
L 93.089437 228.457261 
L 98.42647 218.37269 
L 103.763504 211.244871 
L 109.100537 204.633477 
L 114.437571 200.136687 
L 119.774604 195.490847 
L 125.111637 191.868854 
L 130.448671 184.905312 
L 135.785704 184.23211 
L 141.122738 182.114807 
L 146.459771 178.423851 
L 151.796805 176.576201 
L 157.133838 173.272859 
L 162.470872 170.396128 
L 167.807905 168.7072 
L 173.144939 167.535489 
L 178.481972 163.4851 
L 183.819006 163.798187 
L 189.156039 160.315407 
L 194.493073 128.751988 
L 199.830106 128.612754 
L 205.16714 127.301966 
L 210.504173 125.657004 
L 215.841207 124.446067 
L 221.17824 123.093468 
L 226.515274 121.794513 
L 231.852307 119.750067 
L 237.189341 119.289352 
L 242.526374 117.914567 
L 247.863408 111.670086 
L 253.200441 106.399261 
L 258.537475 114.651845 
L 263.874508 113.638321 
L 269.211541 112.595641 
L 274.548575 111.497924 
L 279.885608 110.597093 
L 285.222642 109.695589 
L 290.559675 108.780659 
L 295.896709 107.949199 
L 301.233742 106.974701 
L 306.570776 106.154972 
L 311.907809 105.210628 
L 317.244843 104.516125 
L 322.581876 103.756514 
L 327.91891 103.032653 
L 333.255943 102.312746 
L 338.592977 101.591891 
L 343.93001 96.655972 
L 349.267044 95.499336 
L 354.604077 92.519885 
L 359.941111 98.488556 
L 365.278144 90.559733 
L 370.615178 91.813364 
L 375.952211 92.401908 
L 381.289245 86.342147 
L 386.626278 90.440389 
L 391.963312 92.130167 
L 397.300345 91.080971 
L 402.637379 90.811471 
L 407.974412 89.671406 
L 413.311445 91.187809 
L 418.648479 90.865567 
L 423.985512 91.249867 
L 429.322546 90.690242 
L 434.659579 85.072781 
L 439.996613 87.557184 
L 445.333646 86.714293 
L 450.67068 85.174916 
L 456.007713 87.163745 
L 461.344747 87.322978 
L 466.68178 80.188274 
L 472.018814 83.504851 
L 477.355847 83.671946 
L 482.692881 77.458561 
L 488.029914 84.762774 
L 493.366948 83.516961 
L 498.703981 81.111793 
L 504.041015 82.739605 
L 509.378048 82.926689 
L 514.715082 82.660646 
L 520.052115 79.155323 
L 525.389149 81.86446 
L 530.726182 81.067419 
L 536.063216 76.851554 
L 541.400249 80.516664 
L 546.737282 80.032669 
L 552.074316 79.719915 
L 557.411349 79.216933 
L 562.748383 78.917566 
L 568.085416 77.988775 
L 573.42245 74.72017 
L 578.759483 76.39949 
L 584.096517 77.133696 
L 589.43355 74.032873 
L 594.770584 74.880174 
L 600.107617 73.97078 
L 605.444651 72.967533 
L 610.781684 73.276479 
" style="fill:none;stroke:#ff7f0e;stroke-linecap:square;stroke-width:1.5;"/>
   </g>
   <g id="line2d_52">
    <path clip-path="url(#pdd100c794e)" d="M 82.41537 238.515954 
L 87.752403 229.452402 
L 93.089437 220.316783 
L 98.42647 211.883661 
L 103.763504 205.973409 
L 109.100537 201.073312 
L 114.437571 196.281347 
L 119.774604 192.265553 
L 125.111637 186.194101 
L 130.448671 184.01018 
L 135.785704 181.459848 
L 141.122738 179.390906 
L 146.459771 176.121759 
L 151.796805 175.478935 
L 157.133838 171.399556 
L 162.470872 168.930605 
L 167.807905 166.673581 
L 173.144939 165.838465 
L 178.481972 163.428317 
L 183.819006 162.15122 
L 189.156039 159.2488 
L 194.493073 129.245997 
L 199.830106 127.161918 
L 205.16714 126.261379 
L 210.504173 124.808123 
L 215.841207 123.483218 
L 221.17824 121.738426 
L 226.515274 120.020289 
L 231.852307 119.646254 
L 237.189341 118.353903 
L 242.526374 103.307086 
L 247.863408 109.598021 
L 253.200441 114.718481 
L 258.537475 113.868517 
L 263.874508 112.898788 
L 269.211541 111.702475 
L 274.548575 110.9401 
L 279.885608 109.991936 
L 285.222642 108.464891 
L 290.559675 108.048851 
L 295.896709 107.284233 
L 301.233742 106.407381 
L 306.570776 105.56456 
L 311.907809 104.762086 
L 317.244843 103.886381 
L 322.581876 103.302224 
L 327.91891 102.527778 
L 333.255943 101.682318 
L 338.592977 101.067198 
L 343.93001 90.304937 
L 349.267044 94.918026 
L 354.604077 97.070171 
L 359.941111 98.084321 
L 365.278144 97.335601 
L 370.615178 93.798206 
L 375.952211 88.363386 
L 381.289245 90.067727 
L 386.626278 89.851534 
L 391.963312 87.025688 
L 397.300345 91.94752 
L 402.637379 93.092292 
L 407.974412 91.773517 
L 413.311445 91.752263 
L 418.648479 88.684891 
L 423.985512 90.862514 
L 429.322546 90.294629 
L 434.659579 81.251377 
L 439.996613 87.640891 
L 445.333646 88.223963 
L 450.67068 85.565593 
L 456.007713 87.088064 
L 461.344747 74.639677 
L 466.68178 81.651909 
L 472.018814 83.406633 
L 477.355847 83.850662 
L 482.692881 71.658038 
L 488.029914 84.605513 
L 493.366948 82.889857 
L 498.703981 83.603789 
L 504.041015 81.871811 
L 509.378048 81.643373 
L 514.715082 82.336559 
L 520.052115 81.899744 
L 525.389149 81.526961 
L 530.726182 80.757796 
L 536.063216 79.698419 
L 541.400249 80.256839 
L 546.737282 79.805919 
L 552.074316 79.308233 
L 557.411349 78.972652 
L 562.748383 78.680749 
L 568.085416 78.100545 
L 573.42245 76.360094 
L 578.759483 74.711088 
L 584.096517 73.800805 
L 589.43355 73.814219 
L 594.770584 75.414814 
L 600.107617 72.287469 
L 605.444651 70.460641 
L 610.781684 70.012155 
" style="fill:none;stroke:#2ca02c;stroke-linecap:square;stroke-width:1.5;"/>
   </g>
   <g id="line2d_53">
    <path clip-path="url(#pdd100c794e)" d="M 82.41537 279.644103 
L 87.752403 195.058417 
L 93.089437 171.433153 
L 98.42647 157.320541 
L 103.763504 147.266727 
L 109.100537 139.568944 
L 114.437571 132.729627 
L 119.774604 128.048439 
L 125.111637 115.278389 
L 130.448671 117.746436 
L 135.785704 114.040645 
L 141.122738 110.79307 
L 146.459771 107.518108 
L 151.796805 105.077418 
L 157.133838 102.840938 
L 162.470872 99.886265 
L 167.807905 97.219203 
L 173.144939 94.727266 
L 178.481972 92.856713 
L 183.819006 88.420863 
L 189.156039 88.336236 
L 194.493073 83.236878 
L 199.830106 82.239619 
L 205.16714 80.993962 
L 210.504173 79.177624 
L 215.841207 78.20298 
L 221.17824 77.117345 
L 226.515274 75.685597 
L 231.852307 73.338964 
L 237.189341 73.005792 
L 242.526374 70.789317 
L 247.863408 69.03467 
L 253.200441 69.8321 
L 258.537475 69.51915 
L 263.874508 68.248804 
L 269.211541 67.239181 
L 274.548575 65.990365 
L 279.885608 65.582162 
L 285.222642 64.49538 
L 290.559675 63.744964 
L 295.896709 62.48451 
L 301.233742 61.956182 
L 306.570776 61.187985 
L 311.907809 59.720779 
L 317.244843 59.426898 
L 322.581876 58.659466 
L 327.91891 58.041923 
L 333.255943 57.373003 
L 338.592977 56.598628 
L 343.93001 55.324108 
L 349.267044 53.268922 
L 354.604077 52.337176 
L 359.941111 52.319162 
L 365.278144 51.596017 
L 370.615178 50.956503 
L 375.952211 50.116536 
L 381.289245 48.218666 
L 386.626278 48.911238 
L 391.963312 47.097063 
L 397.300345 48.445909 
L 402.637379 48.542576 
L 407.974412 47.375099 
L 413.311445 46.663769 
L 418.648479 45.131167 
L 423.985512 46.987195 
L 429.322546 45.706209 
L 434.659579 44.005567 
L 439.996613 44.069018 
L 445.333646 44.519386 
L 450.67068 43.005641 
L 456.007713 42.738046 
L 461.344747 41.295955 
L 466.68178 40.886606 
L 472.018814 40.201084 
L 477.355847 39.422005 
L 482.692881 40.030294 
L 488.029914 40.83864 
L 493.366948 38.746112 
L 498.703981 37.837943 
L 504.041015 37.638623 
L 509.378048 38.106316 
L 514.715082 37.826011 
L 520.052115 36.618676 
L 525.389149 37.136701 
L 530.726182 35.293921 
L 536.063216 36.603498 
L 541.400249 36.516448 
L 546.737282 35.864093 
L 552.074316 35.707135 
L 557.411349 35.356383 
L 562.748383 34.491592 
L 568.085416 34.611482 
L 573.42245 32.836 
L 578.759483 31.667424 
L 584.096517 31.25032 
L 589.43355 29.871583 
L 594.770584 30.00241 
L 600.107617 29.108447 
L 605.444651 28.038182 
L 610.781684 30.033814 
" style="fill:none;stroke:#d62728;stroke-linecap:square;stroke-width:1.5;"/>
   </g>
   <g id="line2d_54">
    <path clip-path="url(#pdd100c794e)" d="M 82.41537 314.766174 
L 87.752403 276.669459 
L 93.089437 257.316402 
L 98.42647 245.640045 
L 103.763504 235.185706 
L 109.100537 228.750635 
L 114.437571 223.706549 
L 119.774604 219.993324 
L 125.111637 212.187496 
L 130.448671 209.217369 
L 135.785704 205.637355 
L 141.122738 202.017661 
L 146.459771 200.16608 
L 151.796805 195.757918 
L 157.133838 195.227828 
L 162.470872 192.16246 
L 167.807905 189.812211 
L 173.144939 186.800794 
L 178.481972 184.731016 
L 183.819006 182.583808 
L 189.156039 182.344869 
L 194.493073 177.971923 
L 199.830106 180.417845 
L 205.16714 178.068244 
L 210.504173 175.908968 
L 215.841207 175.124321 
L 221.17824 173.748126 
L 226.515274 170.471884 
L 231.852307 171.064136 
L 237.189341 167.932987 
L 242.526374 165.513476 
L 247.863408 164.277211 
L 253.200441 166.281481 
L 258.537475 165.599365 
L 263.874508 164.856453 
L 269.211541 163.142218 
L 274.548575 162.488637 
L 279.885608 160.899377 
L 285.222642 160.358411 
L 290.559675 158.466723 
L 295.896709 158.02795 
L 301.233742 157.587236 
L 306.570776 157.011681 
L 311.907809 153.73773 
L 317.244843 153.138764 
L 322.581876 153.87064 
L 327.91891 153.215877 
L 333.255943 152.337436 
L 338.592977 150.520312 
L 343.93001 149.156035 
L 349.267044 148.203856 
L 354.604077 148.659507 
L 359.941111 148.603854 
L 365.278144 146.316548 
L 370.615178 144.986012 
L 375.952211 144.838517 
L 381.289245 137.989706 
L 386.626278 143.04866 
L 391.963312 141.467567 
L 397.300345 143.534183 
L 402.637379 143.739799 
L 407.974412 141.51922 
L 413.311445 141.302661 
L 418.648479 139.063037 
L 423.985512 137.140387 
L 429.322546 139.028528 
L 434.659579 138.694818 
L 439.996613 138.180444 
L 445.333646 138.655149 
L 450.67068 136.735889 
L 456.007713 136.717497 
L 461.344747 135.220947 
L 466.68178 136.64279 
L 472.018814 133.808134 
L 477.355847 129.027305 
L 482.692881 132.944571 
L 488.029914 134.858023 
L 493.366948 132.406853 
L 498.703981 133.597419 
L 504.041015 132.907997 
L 509.378048 132.721248 
L 514.715082 122.423718 
L 520.052115 131.265262 
L 525.389149 129.142866 
L 530.726182 129.765289 
L 536.063216 130.533906 
L 541.400249 129.992589 
L 546.737282 129.6884 
L 552.074316 129.172501 
L 557.411349 128.891663 
L 562.748383 129.106567 
L 568.085416 128.65199 
L 573.42245 121.857419 
L 578.759483 125.471462 
L 584.096517 125.243617 
L 589.43355 123.34003 
L 594.770584 124.136156 
L 600.107617 123.043732 
L 605.444651 122.780771 
L 610.781684 122.950303 
" style="fill:none;stroke:#9467bd;stroke-linecap:square;stroke-width:1.5;"/>
   </g>
   <g id="line2d_55">
    <path clip-path="url(#pdd100c794e)" d="M 82.41537 290.67202 
L 87.752403 299.075884 
L 93.089437 288.842742 
L 98.42647 274.487742 
L 103.763504 278.136497 
L 109.100537 272.411327 
L 114.437571 268.665244 
L 119.774604 265.462081 
L 125.111637 217.053212 
L 130.448671 258.880539 
L 135.785704 253.472661 
L 141.122738 248.349916 
L 146.459771 251.308868 
L 151.796805 248.008449 
L 157.133838 247.049898 
L 162.470872 244.419348 
L 167.807905 240.261741 
L 173.144939 231.443979 
L 178.481972 239.186552 
L 183.819006 237.721008 
L 189.156039 236.440964 
L 194.493073 232.78619 
L 199.830106 232.857236 
L 205.16714 232.010127 
L 210.504173 231.679311 
L 215.841207 229.428773 
L 221.17824 228.21228 
L 226.515274 225.301738 
L 231.852307 225.808636 
L 237.189341 224.205376 
L 242.526374 223.50809 
L 247.863408 221.789639 
L 253.200441 221.551696 
L 258.537475 220.513119 
L 263.874508 219.451131 
L 269.211541 218.758275 
L 274.548575 217.958154 
L 279.885608 217.194755 
L 285.222642 216.038473 
L 290.559675 216.288763 
L 295.896709 214.260686 
L 301.233742 214.044935 
L 306.570776 212.606289 
L 311.907809 211.840591 
L 317.244843 210.9818 
L 322.581876 210.478298 
L 327.91891 210.04617 
L 333.255943 209.018446 
L 338.592977 208.291204 
L 343.93001 207.261189 
L 349.267044 206.65769 
L 354.604077 205.999334 
L 359.941111 205.767647 
L 365.278144 194.921574 
L 370.615178 166.762111 
L 375.952211 203.38559 
L 381.289245 202.610581 
L 386.626278 128.999941 
L 391.963312 201.100413 
L 397.300345 200.848498 
L 402.637379 200.707308 
L 407.974412 201.5122 
L 413.311445 195.382006 
L 418.648479 198.086298 
L 423.985512 199.180501 
L 429.322546 187.204097 
L 434.659579 198.577439 
L 439.996613 196.675855 
L 445.333646 195.970093 
L 450.67068 194.23584 
L 456.007713 162.962293 
L 461.344747 195.659274 
L 466.68178 191.561928 
L 472.018814 193.621734 
L 477.355847 156.599215 
L 482.692881 191.262426 
L 488.029914 192.446121 
L 493.366948 188.502367 
L 498.703981 191.767367 
L 504.041015 192.574453 
L 509.378048 190.709545 
L 514.715082 190.504961 
L 520.052115 188.757368 
L 525.389149 188.21625 
L 530.726182 189.233509 
L 536.063216 189.978929 
L 541.400249 189.545316 
L 546.737282 188.092477 
L 552.074316 188.835083 
L 557.411349 186.310738 
L 562.748383 186.822175 
L 568.085416 186.808579 
L 573.42245 182.405124 
L 578.759483 185.749704 
L 584.096517 180.860367 
L 589.43355 180.94889 
L 594.770584 174.004311 
L 600.107617 178.482771 
L 605.444651 177.653647 
L 610.781684 179.336206 
" style="fill:none;stroke:#8c564b;stroke-linecap:square;stroke-width:1.5;"/>
   </g>
   <g id="line2d_56">
    <path clip-path="url(#pdd100c794e)" d="M 82.41537 314.571126 
L 87.752403 312.386507 
L 93.089437 309.798523 
L 98.42647 304.746479 
L 103.763504 306.510767 
L 109.100537 304.523615 
L 114.437571 303.576363 
L 119.774604 302.08928 
L 125.111637 300.576246 
L 130.448671 299.728736 
L 135.785704 295.798167 
L 141.122738 297.286343 
L 146.459771 296.470217 
L 151.796805 295.385101 
L 157.133838 294.570905 
L 162.470872 293.407692 
L 167.807905 292.516729 
L 173.144939 291.142218 
L 178.481972 290.723534 
L 183.819006 286.231869 
L 189.156039 288.98512 
L 194.493073 287.895208 
L 199.830106 287.427529 
L 205.16714 286.588445 
L 210.504173 285.553186 
L 215.841207 285.034117 
L 221.17824 284.453464 
L 226.515274 283.33686 
L 231.852307 282.672715 
L 237.189341 279.519793 
L 242.526374 281.496713 
L 247.863408 279.790404 
L 253.200441 280.09441 
L 258.537475 279.510222 
L 263.874508 278.84398 
L 269.211541 278.485542 
L 274.548575 277.714694 
L 279.885608 277.045197 
L 285.222642 276.678653 
L 290.559675 275.666133 
L 295.896709 275.237106 
L 301.233742 274.820503 
L 306.570776 274.106867 
L 311.907809 273.517328 
L 317.244843 273.379972 
L 322.581876 272.507752 
L 327.91891 272.034734 
L 333.255943 271.56202 
L 338.592977 270.978492 
L 343.93001 270.528029 
L 349.267044 269.364149 
L 354.604077 268.820419 
L 359.941111 268.54508 
L 365.278144 267.107709 
L 370.615178 266.763804 
L 375.952211 266.903669 
L 381.289245 266.467242 
L 386.626278 263.84431 
L 391.963312 265.453472 
L 397.300345 265.822334 
L 402.637379 265.327895 
L 407.974412 264.97838 
L 413.311445 264.525715 
L 418.648479 263.820624 
L 423.985512 263.863403 
L 429.322546 263.072142 
L 434.659579 262.219932 
L 439.996613 261.903167 
L 445.333646 261.500944 
L 450.67068 260.580589 
L 456.007713 260.345676 
L 461.344747 260.331415 
L 466.68178 259.686628 
L 472.018814 259.519965 
L 477.355847 258.604817 
L 482.692881 258.215989 
L 488.029914 258.541054 
L 493.366948 258.152964 
L 498.703981 257.50258 
L 504.041015 257.554669 
L 509.378048 257.122827 
L 514.715082 256.507443 
L 520.052115 255.809562 
L 525.389149 255.872739 
L 530.726182 255.45744 
L 536.063216 255.460092 
L 541.400249 255.022621 
L 546.737282 254.732281 
L 552.074316 254.321159 
L 557.411349 254.156912 
L 562.748383 253.624213 
L 568.085416 253.567524 
L 573.42245 249.626226 
L 578.759483 251.980324 
L 584.096517 249.321232 
L 589.43355 249.768266 
L 594.770584 251.34351 
L 600.107617 250.318529 
L 605.444651 249.084547 
L 610.781684 248.313998 
" style="fill:none;stroke:#e377c2;stroke-linecap:square;stroke-width:1.5;"/>
   </g>
   <g id="line2d_57">
    <path clip-path="url(#pdd100c794e)" d="M 82.41537 297.259072 
L 87.752403 311.49987 
L 93.089437 309.486278 
L 98.42647 304.097266 
L 103.763504 305.414835 
L 109.100537 303.963497 
L 114.437571 302.682912 
L 119.774604 301.228209 
L 125.111637 275.639962 
L 130.448671 299.121209 
L 135.785704 295.229295 
L 141.122738 297.623358 
L 146.459771 297.693279 
L 151.796805 286.475998 
L 157.133838 298.017554 
L 162.470872 298.153229 
L 167.807905 297.940568 
L 173.144939 270.920616 
L 178.481972 293.194538 
L 183.819006 285.103968 
L 189.156039 293.987896 
L 194.493073 294.099804 
L 199.830106 293.908192 
L 205.16714 293.85965 
L 210.504173 293.676205 
L 215.841207 293.606088 
L 221.17824 293.584132 
L 226.515274 294.027709 
L 231.852307 293.813606 
L 237.189341 278.856835 
L 242.526374 297.780363 
L 247.863408 237.385096 
L 253.200441 297.83011 
L 258.537475 297.552979 
L 263.874508 297.50295 
L 269.211541 297.764094 
L 274.548575 297.519432 
L 279.885608 297.577608 
L 285.222642 297.64754 
L 290.559675 297.723022 
L 295.896709 297.572247 
L 301.233742 297.149636 
L 306.570776 296.972094 
L 311.907809 296.306822 
L 317.244843 296.302596 
L 322.581876 295.480911 
L 327.91891 295.2534 
L 333.255943 293.560154 
L 338.592977 294.436321 
L 343.93001 281.134194 
L 349.267044 293.812062 
L 354.604077 292.400625 
L 359.941111 293.953818 
L 365.278144 293.064405 
L 370.615178 293.37054 
L 375.952211 297.123668 
L 381.289245 297.063223 
L 386.626278 177.287302 
L 391.963312 293.125131 
L 397.300345 294.085984 
L 402.637379 294.218867 
L 407.974412 294.184064 
L 413.311445 288.887466 
L 418.648479 273.705335 
L 423.985512 294.324467 
L 429.322546 293.968394 
L 434.659579 293.566641 
L 439.996613 293.490376 
L 445.333646 293.301853 
L 450.67068 293.46596 
L 456.007713 292.437923 
L 461.344747 292.857713 
L 466.68178 292.912912 
L 472.018814 292.909494 
L 477.355847 292.471737 
L 482.692881 292.767524 
L 488.029914 293.316289 
L 493.366948 293.332723 
L 498.703981 293.040997 
L 504.041015 293.290701 
L 509.378048 292.855486 
L 514.715082 292.854127 
L 520.052115 292.791941 
L 525.389149 293.036114 
L 530.726182 292.997101 
L 536.063216 293.205924 
L 541.400249 293.064725 
L 546.737282 293.266797 
L 552.074316 293.120295 
L 557.411349 293.01589 
L 562.748383 293.009413 
L 568.085416 292.812822 
L 573.42245 282.530418 
L 578.759483 243.467741 
L 584.096517 292.38349 
L 589.43355 289.05447 
L 594.770584 292.51713 
L 600.107617 281.649711 
L 605.444651 292.599926 
L 610.781684 290.94459 
" style="fill:none;stroke:#7f7f7f;stroke-linecap:square;stroke-width:1.5;"/>
   </g>
   <g id="line2d_58">
    <path clip-path="url(#pdd100c794e)" d="M 82.41537 372.801818 
L 87.752403 363.356019 
L 93.089437 356.500232 
L 98.42647 350.833201 
L 103.763504 346.612512 
L 109.100537 342.222371 
L 114.437571 338.447907 
L 119.774604 335.146264 
L 125.111637 332.52574 
L 130.448671 329.984909 
L 135.785704 326.522758 
L 141.122738 325.298183 
L 146.459771 322.842023 
L 151.796805 320.421245 
L 157.133838 318.786265 
L 162.470872 317.033479 
L 167.807905 315.197454 
L 173.144939 313.444971 
L 178.481972 311.963675 
L 183.819006 310.479733 
L 189.156039 309.278646 
L 194.493073 307.736536 
L 199.830106 306.398572 
L 205.16714 305.110181 
L 210.504173 304.1981 
L 215.841207 302.765605 
L 221.17824 301.812727 
L 226.515274 300.675037 
L 231.852307 299.369569 
L 237.189341 298.300275 
L 242.526374 297.184993 
L 247.863408 295.984969 
L 253.200441 295.637261 
L 258.537475 294.584212 
L 263.874508 293.705142 
L 269.211541 292.986737 
L 274.548575 292.031759 
L 279.885608 291.057767 
L 285.222642 290.304851 
L 290.559675 289.283587 
L 295.896709 288.831906 
L 301.233742 288.134188 
L 306.570776 287.057906 
L 311.907809 286.376498 
L 317.244843 285.777251 
L 322.581876 284.882637 
L 327.91891 284.24493 
L 333.255943 283.7072 
L 338.592977 282.849044 
L 343.93001 282.422347 
L 349.267044 281.025982 
L 354.604077 280.289601 
L 359.941111 279.650722 
L 365.278144 279.117233 
L 370.615178 277.969842 
L 375.952211 277.72942 
L 381.289245 277.320747 
L 386.626278 276.166102 
L 391.963312 276.053326 
L 397.300345 276.372593 
L 402.637379 275.43002 
L 407.974412 275.09754 
L 413.311445 274.690795 
L 418.648479 273.785852 
L 423.985512 273.504524 
L 429.322546 272.791188 
L 434.659579 271.688502 
L 439.996613 271.542743 
L 445.333646 270.974397 
L 450.67068 270.423538 
L 456.007713 269.806469 
L 461.344747 269.538764 
L 466.68178 268.774082 
L 472.018814 268.655297 
L 477.355847 268.167914 
L 482.692881 267.399293 
L 488.029914 267.164852 
L 493.366948 266.840068 
L 498.703981 266.024192 
L 504.041015 265.962694 
L 509.378048 265.536495 
L 514.715082 264.967719 
L 520.052115 263.927962 
L 525.389149 264.236487 
L 530.726182 263.581711 
L 536.063216 263.46377 
L 541.400249 262.959756 
L 546.737282 262.549688 
L 552.074316 262.269531 
L 557.411349 261.961822 
L 562.748383 261.225608 
L 568.085416 261.220038 
L 573.42245 259.99543 
L 578.759483 259.289163 
L 584.096517 259.483868 
L 589.43355 259.033361 
L 594.770584 259.085054 
L 600.107617 253.247684 
L 605.444651 258.267072 
L 610.781684 257.874194 
" style="fill:none;stroke:#bcbd22;stroke-linecap:square;stroke-width:1.5;"/>
   </g>
   <g id="line2d_59">
    <path clip-path="url(#pdd100c794e)" d="M 82.41537 333.497276 
L 87.752403 354.889894 
L 93.089437 333.89712 
L 98.42647 342.716317 
L 103.763504 340.609873 
L 109.100537 337.401586 
L 114.437571 333.886502 
L 119.774604 330.803023 
L 125.111637 328.631714 
L 130.448671 326.253249 
L 135.785704 324.027168 
L 141.122738 323.966152 
L 146.459771 323.941788 
L 151.796805 323.9752 
L 157.133838 324.267076 
L 162.470872 324.407295 
L 167.807905 324.053281 
L 173.144939 314.029599 
L 178.481972 319.337129 
L 183.819006 319.31244 
L 189.156039 318.88248 
L 194.493073 318.627439 
L 199.830106 318.330588 
L 205.16714 286.415936 
L 210.504173 318.960564 
L 215.841207 318.620143 
L 221.17824 318.872254 
L 226.515274 318.602347 
L 231.852307 318.76622 
L 237.189341 324.038666 
L 242.526374 312.873303 
L 247.863408 323.608658 
L 253.200441 323.880981 
L 258.537475 324.048815 
L 263.874508 323.887516 
L 269.211541 324.01378 
L 274.548575 324.309508 
L 279.885608 323.877142 
L 285.222642 324.010806 
L 290.559675 324.166675 
L 295.896709 324.194654 
L 301.233742 266.298114 
L 306.570776 322.618707 
L 311.907809 321.702017 
L 317.244843 321.611044 
L 322.581876 321.440926 
L 327.91891 320.600733 
L 333.255943 320.001682 
L 338.592977 319.962494 
L 343.93001 318.982543 
L 349.267044 319.490218 
L 354.604077 319.682016 
L 359.941111 319.894031 
L 365.278144 317.990426 
L 370.615178 235.753521 
L 375.952211 323.23621 
L 381.289245 322.107887 
L 386.626278 317.608338 
L 391.963312 319.341176 
L 397.300345 319.705273 
L 402.637379 319.845664 
L 407.974412 147.434338 
L 413.311445 318.870138 
L 418.648479 319.999137 
L 423.985512 319.968306 
L 429.322546 242.70718 
L 434.659579 319.875426 
L 439.996613 319.400565 
L 445.333646 319.360287 
L 450.67068 319.682377 
L 456.007713 318.04715 
L 461.344747 318.066461 
L 466.68178 317.970811 
L 472.018814 315.299513 
L 477.355847 318.146399 
L 482.692881 317.526447 
L 488.029914 318.046921 
L 493.366948 318.049047 
L 498.703981 318.048759 
L 504.041015 318.10684 
L 509.378048 318.176024 
L 514.715082 317.967773 
L 520.052115 317.805877 
L 525.389149 318.131538 
L 530.726182 318.316694 
L 536.063216 318.202672 
L 541.400249 318.05554 
L 546.737282 318.170374 
L 552.074316 318.411162 
L 557.411349 318.258454 
L 562.748383 318.229975 
L 568.085416 317.777518 
L 573.42245 315.979867 
L 578.759483 315.611596 
L 584.096517 306.575693 
L 589.43355 316.987062 
L 594.770584 317.865175 
L 600.107617 240.832923 
L 605.444651 317.127219 
L 610.781684 309.586658 
" style="fill:none;stroke:#17becf;stroke-linecap:square;stroke-width:1.5;"/>
   </g>
   <g id="patch_3">
    <path d="M 55.997054 390.04 
L 55.997054 10.8 
" style="fill:none;stroke:#000000;stroke-linecap:square;stroke-linejoin:miter;stroke-width:0.8;"/>
   </g>
   <g id="patch_4">
    <path d="M 637.2 390.04 
L 637.2 10.8 
" style="fill:none;stroke:#000000;stroke-linecap:square;stroke-linejoin:miter;stroke-width:0.8;"/>
   </g>
   <g id="patch_5">
    <path d="M 55.997054 390.04 
L 637.2 390.04 
" style="fill:none;stroke:#000000;stroke-linecap:square;stroke-linejoin:miter;stroke-width:0.8;"/>
   </g>
   <g id="patch_6">
    <path d="M 55.997054 10.8 
L 637.2 10.8 
" style="fill:none;stroke:#000000;stroke-linecap:square;stroke-linejoin:miter;stroke-width:0.8;"/>
   </g>
   <g id="legend_1">
    <g id="patch_7">
     <path d="M 477.223437 168.3625 
L 630.2 168.3625 
Q 632.2 168.3625 632.2 166.3625 
L 632.2 17.8 
Q 632.2 15.8 630.2 15.8 
L 477.223437 15.8 
Q 475.223437 15.8 475.223437 17.8 
L 475.223437 166.3625 
Q 475.223437 168.3625 477.223437 168.3625 
z
" style="fill:#ffffff;opacity:0.8;stroke:#cccccc;stroke-linejoin:miter;"/>
    </g>
    <g id="line2d_60">
     <path d="M 479.223437 23.898438 
L 499.223437 23.898438 
" style="fill:none;stroke:#1f77b4;stroke-linecap:square;stroke-width:1.5;"/>
    </g>
    <g id="line2d_61"/>
    <g id="text_13">
     <!-- numpy_dot -->
     <g transform="translate(507.223437 27.398438)scale(0.1 -0.1)">
      <defs>
       <path d="M 2059 -325 
Q 1816 -950 1584 -1140 
Q 1353 -1331 966 -1331 
L 506 -1331 
L 506 -850 
L 844 -850 
Q 1081 -850 1212 -737 
Q 1344 -625 1503 -206 
L 1606 56 
L 191 3500 
L 800 3500 
L 1894 763 
L 2988 3500 
L 3597 3500 
L 2059 -325 
z
" id="DejaVuSans-79" transform="scale(0.015625)"/>
       <path d="M 3263 -1063 
L 3263 -1509 
L -63 -1509 
L -63 -1063 
L 3263 -1063 
z
" id="DejaVuSans-5f" transform="scale(0.015625)"/>
      </defs>
      <use xlink:href="#DejaVuSans-6e"/>
      <use x="63.378906" xlink:href="#DejaVuSans-75"/>
      <use x="126.757812" xlink:href="#DejaVuSans-6d"/>
      <use x="224.169922" xlink:href="#DejaVuSans-70"/>
      <use x="287.646484" xlink:href="#DejaVuSans-79"/>
      <use x="346.826172" xlink:href="#DejaVuSans-5f"/>
      <use x="396.826172" xlink:href="#DejaVuSans-64"/>
      <use x="460.302734" xlink:href="#DejaVuSans-6f"/>
      <use x="521.484375" xlink:href="#DejaVuSans-74"/>
     </g>
    </g>
    <g id="line2d_62">
     <path d="M 479.223437 38.854688 
L 499.223437 38.854688 
" style="fill:none;stroke:#ff7f0e;stroke-linecap:square;stroke-width:1.5;"/>
    </g>
    <g id="line2d_63"/>
    <g id="text_14">
     <!-- numpy_einsum -->
     <g transform="translate(507.223437 42.354688)scale(0.1 -0.1)">
      <use xlink:href="#DejaVuSans-6e"/>
      <use x="63.378906" xlink:href="#DejaVuSans-75"/>
      <use x="126.757812" xlink:href="#DejaVuSans-6d"/>
      <use x="224.169922" xlink:href="#DejaVuSans-70"/>
      <use x="287.646484" xlink:href="#DejaVuSans-79"/>
      <use x="346.826172" xlink:href="#DejaVuSans-5f"/>
      <use x="396.826172" xlink:href="#DejaVuSans-65"/>
      <use x="458.349609" xlink:href="#DejaVuSans-69"/>
      <use x="486.132812" xlink:href="#DejaVuSans-6e"/>
      <use x="549.511719" xlink:href="#DejaVuSans-73"/>
      <use x="601.611328" xlink:href="#DejaVuSans-75"/>
      <use x="664.990234" xlink:href="#DejaVuSans-6d"/>
     </g>
    </g>
    <g id="line2d_64">
     <path d="M 479.223437 53.810938 
L 499.223437 53.810938 
" style="fill:none;stroke:#2ca02c;stroke-linecap:square;stroke-width:1.5;"/>
    </g>
    <g id="line2d_65"/>
    <g id="text_15">
     <!-- opt_einsum -->
     <g transform="translate(507.223437 57.310938)scale(0.1 -0.1)">
      <use xlink:href="#DejaVuSans-6f"/>
      <use x="61.181641" xlink:href="#DejaVuSans-70"/>
      <use x="124.658203" xlink:href="#DejaVuSans-74"/>
      <use x="163.867188" xlink:href="#DejaVuSans-5f"/>
      <use x="213.867188" xlink:href="#DejaVuSans-65"/>
      <use x="275.390625" xlink:href="#DejaVuSans-69"/>
      <use x="303.173828" xlink:href="#DejaVuSans-6e"/>
      <use x="366.552734" xlink:href="#DejaVuSans-73"/>
      <use x="418.652344" xlink:href="#DejaVuSans-75"/>
      <use x="482.03125" xlink:href="#DejaVuSans-6d"/>
     </g>
    </g>
    <g id="line2d_66">
     <path d="M 479.223437 68.767188 
L 499.223437 68.767188 
" style="fill:none;stroke:#d62728;stroke-linecap:square;stroke-width:1.5;"/>
    </g>
    <g id="line2d_67"/>
    <g id="text_16">
     <!-- cython_reduced -->
     <g transform="translate(507.223437 72.267188)scale(0.1 -0.1)">
      <defs>
       <path d="M 3513 2113 
L 3513 0 
L 2938 0 
L 2938 2094 
Q 2938 2591 2744 2837 
Q 2550 3084 2163 3084 
Q 1697 3084 1428 2787 
Q 1159 2491 1159 1978 
L 1159 0 
L 581 0 
L 581 4863 
L 1159 4863 
L 1159 2956 
Q 1366 3272 1645 3428 
Q 1925 3584 2291 3584 
Q 2894 3584 3203 3211 
Q 3513 2838 3513 2113 
z
" id="DejaVuSans-68" transform="scale(0.015625)"/>
      </defs>
      <use xlink:href="#DejaVuSans-63"/>
      <use x="54.980469" xlink:href="#DejaVuSans-79"/>
      <use x="114.160156" xlink:href="#DejaVuSans-74"/>
      <use x="153.369141" xlink:href="#DejaVuSans-68"/>
      <use x="216.748047" xlink:href="#DejaVuSans-6f"/>
      <use x="277.929688" xlink:href="#DejaVuSans-6e"/>
      <use x="341.308594" xlink:href="#DejaVuSans-5f"/>
      <use x="391.308594" xlink:href="#DejaVuSans-72"/>
      <use x="430.171875" xlink:href="#DejaVuSans-65"/>
      <use x="491.695312" xlink:href="#DejaVuSans-64"/>
      <use x="555.171875" xlink:href="#DejaVuSans-75"/>
      <use x="618.550781" xlink:href="#DejaVuSans-63"/>
      <use x="673.53125" xlink:href="#DejaVuSans-65"/>
      <use x="735.054688" xlink:href="#DejaVuSans-64"/>
     </g>
    </g>
    <g id="line2d_68">
     <path d="M 479.223437 83.723438 
L 499.223437 83.723438 
" style="fill:none;stroke:#9467bd;stroke-linecap:square;stroke-width:1.5;"/>
    </g>
    <g id="line2d_69"/>
    <g id="text_17">
     <!-- ctypes_full -->
     <g transform="translate(507.223437 87.223438)scale(0.1 -0.1)">
      <use xlink:href="#DejaVuSans-63"/>
      <use x="54.980469" xlink:href="#DejaVuSans-74"/>
      <use x="94.189453" xlink:href="#DejaVuSans-79"/>
      <use x="153.369141" xlink:href="#DejaVuSans-70"/>
      <use x="216.845703" xlink:href="#DejaVuSans-65"/>
      <use x="278.369141" xlink:href="#DejaVuSans-73"/>
      <use x="330.46875" xlink:href="#DejaVuSans-5f"/>
      <use x="380.46875" xlink:href="#DejaVuSans-66"/>
      <use x="415.673828" xlink:href="#DejaVuSans-75"/>
      <use x="479.052734" xlink:href="#DejaVuSans-6c"/>
      <use x="506.835938" xlink:href="#DejaVuSans-6c"/>
     </g>
    </g>
    <g id="line2d_70">
     <path d="M 479.223437 98.679688 
L 499.223437 98.679688 
" style="fill:none;stroke:#8c564b;stroke-linecap:square;stroke-width:1.5;"/>
    </g>
    <g id="line2d_71"/>
    <g id="text_18">
     <!-- ctypes_full_parallel -->
     <g transform="translate(507.223437 102.179688)scale(0.1 -0.1)">
      <use xlink:href="#DejaVuSans-63"/>
      <use x="54.980469" xlink:href="#DejaVuSans-74"/>
      <use x="94.189453" xlink:href="#DejaVuSans-79"/>
      <use x="153.369141" xlink:href="#DejaVuSans-70"/>
      <use x="216.845703" xlink:href="#DejaVuSans-65"/>
      <use x="278.369141" xlink:href="#DejaVuSans-73"/>
      <use x="330.46875" xlink:href="#DejaVuSans-5f"/>
      <use x="380.46875" xlink:href="#DejaVuSans-66"/>
      <use x="415.673828" xlink:href="#DejaVuSans-75"/>
      <use x="479.052734" xlink:href="#DejaVuSans-6c"/>
      <use x="506.835938" xlink:href="#DejaVuSans-6c"/>
      <use x="534.619141" xlink:href="#DejaVuSans-5f"/>
      <use x="584.619141" xlink:href="#DejaVuSans-70"/>
      <use x="648.095703" xlink:href="#DejaVuSans-61"/>
      <use x="709.375" xlink:href="#DejaVuSans-72"/>
      <use x="750.488281" xlink:href="#DejaVuSans-61"/>
      <use x="811.767578" xlink:href="#DejaVuSans-6c"/>
      <use x="839.550781" xlink:href="#DejaVuSans-6c"/>
      <use x="867.333984" xlink:href="#DejaVuSans-65"/>
      <use x="928.857422" xlink:href="#DejaVuSans-6c"/>
     </g>
    </g>
    <g id="line2d_72">
     <path d="M 479.223437 113.635938 
L 499.223437 113.635938 
" style="fill:none;stroke:#e377c2;stroke-linecap:square;stroke-width:1.5;"/>
    </g>
    <g id="line2d_73"/>
    <g id="text_19">
     <!-- ctypes_reduced -->
     <g transform="translate(507.223437 117.135938)scale(0.1 -0.1)">
      <use xlink:href="#DejaVuSans-63"/>
      <use x="54.980469" xlink:href="#DejaVuSans-74"/>
      <use x="94.189453" xlink:href="#DejaVuSans-79"/>
      <use x="153.369141" xlink:href="#DejaVuSans-70"/>
      <use x="216.845703" xlink:href="#DejaVuSans-65"/>
      <use x="278.369141" xlink:href="#DejaVuSans-73"/>
      <use x="330.46875" xlink:href="#DejaVuSans-5f"/>
      <use x="380.46875" xlink:href="#DejaVuSans-72"/>
      <use x="419.332031" xlink:href="#DejaVuSans-65"/>
      <use x="480.855469" xlink:href="#DejaVuSans-64"/>
      <use x="544.332031" xlink:href="#DejaVuSans-75"/>
      <use x="607.710938" xlink:href="#DejaVuSans-63"/>
      <use x="662.691406" xlink:href="#DejaVuSans-65"/>
      <use x="724.214844" xlink:href="#DejaVuSans-64"/>
     </g>
    </g>
    <g id="line2d_74">
     <path d="M 479.223437 128.592188 
L 499.223437 128.592188 
" style="fill:none;stroke:#7f7f7f;stroke-linecap:square;stroke-width:1.5;"/>
    </g>
    <g id="line2d_75"/>
    <g id="text_20">
     <!-- ctypes_reduced_parallel -->
     <g transform="translate(507.223437 132.092188)scale(0.1 -0.1)">
      <use xlink:href="#DejaVuSans-63"/>
      <use x="54.980469" xlink:href="#DejaVuSans-74"/>
      <use x="94.189453" xlink:href="#DejaVuSans-79"/>
      <use x="153.369141" xlink:href="#DejaVuSans-70"/>
      <use x="216.845703" xlink:href="#DejaVuSans-65"/>
      <use x="278.369141" xlink:href="#DejaVuSans-73"/>
      <use x="330.46875" xlink:href="#DejaVuSans-5f"/>
      <use x="380.46875" xlink:href="#DejaVuSans-72"/>
      <use x="419.332031" xlink:href="#DejaVuSans-65"/>
      <use x="480.855469" xlink:href="#DejaVuSans-64"/>
      <use x="544.332031" xlink:href="#DejaVuSans-75"/>
      <use x="607.710938" xlink:href="#DejaVuSans-63"/>
      <use x="662.691406" xlink:href="#DejaVuSans-65"/>
      <use x="724.214844" xlink:href="#DejaVuSans-64"/>
      <use x="787.691406" xlink:href="#DejaVuSans-5f"/>
      <use x="837.691406" xlink:href="#DejaVuSans-70"/>
      <use x="901.167969" xlink:href="#DejaVuSans-61"/>
      <use x="962.447266" xlink:href="#DejaVuSans-72"/>
      <use x="1003.560547" xlink:href="#DejaVuSans-61"/>
      <use x="1064.839844" xlink:href="#DejaVuSans-6c"/>
      <use x="1092.623047" xlink:href="#DejaVuSans-6c"/>
      <use x="1120.40625" xlink:href="#DejaVuSans-65"/>
      <use x="1181.929688" xlink:href="#DejaVuSans-6c"/>
     </g>
    </g>
    <g id="line2d_76">
     <path d="M 479.223437 143.548437 
L 499.223437 143.548437 
" style="fill:none;stroke:#bcbd22;stroke-linecap:square;stroke-width:1.5;"/>
    </g>
    <g id="line2d_77"/>
    <g id="text_21">
     <!-- cffi_reduced -->
     <g transform="translate(507.223437 147.048437)scale(0.1 -0.1)">
      <use xlink:href="#DejaVuSans-63"/>
      <use x="54.980469" xlink:href="#DejaVuSans-66"/>
      <use x="90.185547" xlink:href="#DejaVuSans-66"/>
      <use x="125.390625" xlink:href="#DejaVuSans-69"/>
      <use x="153.173828" xlink:href="#DejaVuSans-5f"/>
      <use x="203.173828" xlink:href="#DejaVuSans-72"/>
      <use x="242.037109" xlink:href="#DejaVuSans-65"/>
      <use x="303.560547" xlink:href="#DejaVuSans-64"/>
      <use x="367.037109" xlink:href="#DejaVuSans-75"/>
      <use x="430.416016" xlink:href="#DejaVuSans-63"/>
      <use x="485.396484" xlink:href="#DejaVuSans-65"/>
      <use x="546.919922" xlink:href="#DejaVuSans-64"/>
     </g>
    </g>
    <g id="line2d_78">
     <path d="M 479.223437 158.504687 
L 499.223437 158.504687 
" style="fill:none;stroke:#17becf;stroke-linecap:square;stroke-width:1.5;"/>
    </g>
    <g id="line2d_79"/>
    <g id="text_22">
     <!-- cffi_reduced_parallel -->
     <g transform="translate(507.223437 162.004687)scale(0.1 -0.1)">
      <use xlink:href="#DejaVuSans-63"/>
      <use x="54.980469" xlink:href="#DejaVuSans-66"/>
      <use x="90.185547" xlink:href="#DejaVuSans-66"/>
      <use x="125.390625" xlink:href="#DejaVuSans-69"/>
      <use x="153.173828" xlink:href="#DejaVuSans-5f"/>
      <use x="203.173828" xlink:href="#DejaVuSans-72"/>
      <use x="242.037109" xlink:href="#DejaVuSans-65"/>
      <use x="303.560547" xlink:href="#DejaVuSans-64"/>
      <use x="367.037109" xlink:href="#DejaVuSans-75"/>
      <use x="430.416016" xlink:href="#DejaVuSans-63"/>
      <use x="485.396484" xlink:href="#DejaVuSans-65"/>
      <use x="546.919922" xlink:href="#DejaVuSans-64"/>
      <use x="610.396484" xlink:href="#DejaVuSans-5f"/>
      <use x="660.396484" xlink:href="#DejaVuSans-70"/>
      <use x="723.873047" xlink:href="#DejaVuSans-61"/>
      <use x="785.152344" xlink:href="#DejaVuSans-72"/>
      <use x="826.265625" xlink:href="#DejaVuSans-61"/>
      <use x="887.544922" xlink:href="#DejaVuSans-6c"/>
      <use x="915.328125" xlink:href="#DejaVuSans-6c"/>
      <use x="943.111328" xlink:href="#DejaVuSans-65"/>
      <use x="1004.634766" xlink:href="#DejaVuSans-6c"/>
     </g>
    </g>
   </g>
  </g>
 </g>
 <defs>
  <clipPath id="pdd100c794e">
   <rect height="379.24" width="581.202946" x="55.997054" y="10.8"/>
  </clipPath>
 </defs>
</svg>
