<?xml version="1.0" encoding="UTF-8" standalone="no"?>
<svg
   xmlns:dc="http://purl.org/dc/elements/1.1/"
   xmlns:cc="http://creativecommons.org/ns#"
   xmlns:rdf="http://www.w3.org/1999/02/22-rdf-syntax-ns#"
   xmlns:svg="http://www.w3.org/2000/svg"
   xmlns="http://www.w3.org/2000/svg"
   xmlns:sodipodi="http://sodipodi.sourceforge.net/DTD/sodipodi-0.dtd"
   xmlns:inkscape="http://www.inkscape.org/namespaces/inkscape"
   inkscape:version="1.0 (4035a4fb49, 2020-05-01)"
   sodipodi:docname="benchmark-twiss-calculation.svg"
   viewBox="0 0 614.40002 460.79999"
   height="460.79999"
   width="614.40002"
   xml:space="preserve"
   id="svg28"
   version="1.1"><metadata
     id="metadata34"><rdf:RDF><cc:Work
         rdf:about=""><dc:format>image/svg+xml</dc:format><dc:type
           rdf:resource="http://purl.org/dc/dcmitype/StillImage" /><dc:title></dc:title></cc:Work></rdf:RDF></metadata><defs
     id="defs32"><clipPath
       id="clipPath102"
       clipPathUnits="userSpaceOnUse"><path
         id="path100"
         d="M -1021,-463 H 1794 V 1233 H -1021 Z" /></clipPath><clipPath
       id="clipPath126"
       clipPathUnits="userSpaceOnUse"><path
         id="path124"
         d="M -1021,-463 H 1794 V 1233 H -1021 Z" /></clipPath><clipPath
       id="clipPath150"
       clipPathUnits="userSpaceOnUse"><path
         id="path148"
         d="M -1021,-463 H 1794 V 1233 H -1021 Z" /></clipPath><clipPath
       id="clipPath238"
       clipPathUnits="userSpaceOnUse"><path
         id="path236"
         d="M 55.880346,41.96 H 447.48632 V 334.8 H 55.880346 Z" /></clipPath><clipPath
       id="clipPath248"
       clipPathUnits="userSpaceOnUse"><path
         id="path246"
         d="M 55.880346,41.96 H 447.48632 V 334.8 H 55.880346 Z" /></clipPath><clipPath
       id="clipPath258"
       clipPathUnits="userSpaceOnUse"><path
         id="path256"
         d="M 55.880346,41.96 H 447.48632 V 334.8 H 55.880346 Z" /></clipPath><clipPath
       id="clipPath268"
       clipPathUnits="userSpaceOnUse"><path
         id="path266"
         d="M 55.880346,41.96 H 447.48632 V 334.8 H 55.880346 Z" /></clipPath><clipPath
       id="clipPath278"
       clipPathUnits="userSpaceOnUse"><path
         id="path276"
         d="M 55.880346,41.96 H 447.48632 V 334.8 H 55.880346 Z" /></clipPath><clipPath
       id="clipPath288"
       clipPathUnits="userSpaceOnUse"><path
         id="path286"
         d="M 55.880346,41.96 H 447.48632 V 334.8 H 55.880346 Z" /></clipPath><clipPath
       id="clipPath298"
       clipPathUnits="userSpaceOnUse"><path
         id="path296"
         d="M 55.880346,41.96 H 447.48632 V 334.8 H 55.880346 Z" /></clipPath><clipPath
       id="clipPath308"
       clipPathUnits="userSpaceOnUse"><path
         id="path306"
         d="M 55.880346,41.96 H 447.48632 V 334.8 H 55.880346 Z" /></clipPath></defs><sodipodi:namedview
     inkscape:current-layer="g36"
     inkscape:window-maximized="0"
     inkscape:window-y="450"
     inkscape:window-x="0"
     inkscape:cy="230.39999"
     inkscape:cx="307.20001"
     inkscape:zoom="1.5538195"
     showgrid="false"
     id="namedview30"
     inkscape:window-height="480"
     inkscape:window-width="840"
     inkscape:pageshadow="2"
     inkscape:pageopacity="0"
     guidetolerance="10"
     gridtolerance="10"
     objecttolerance="10"
     borderopacity="1"
     bordercolor="#666666"
     pagecolor="#ffffff" /><g
     transform="matrix(1.3333333,0,0,-1.3333333,0,460.8)"
     inkscape:label="benchmark-twiss-calculation"
     inkscape:groupmode="layer"
     id="g36"><path
       id="path38"
       style="fill:#ffffff;fill-opacity:1;fill-rule:nonzero;stroke:none"
       d="M 0,0 H 460.8 V 345.6 H 0 Z" /><path
       id="path40"
       style="fill:#ffffff;fill-opacity:1;fill-rule:nonzero;stroke:none"
       d="M 55.880346,41.96 H 447.48632 V 334.8 H 55.880346 Z" /><path
       id="path42"
       style="fill:#000000;fill-opacity:1;fill-rule:nonzero;stroke:#000000;stroke-width:0.8;stroke-linecap:butt;stroke-linejoin:round;stroke-miterlimit:10;stroke-dasharray:none;stroke-opacity:1"
       d="m 73.321016,41.96 v -3.5" /><text
       id="text46"
       style="font-variant:normal;font-weight:normal;font-size:10px;font-family:'DejaVu Sans';-inkscape-font-specification:DejaVuSans;writing-mode:lr-tb;fill:#000000;fill-opacity:1;fill-rule:nonzero;stroke:none"
       transform="matrix(1,0,0,-1,70.141329,27.36625)"><tspan
         id="tspan44"
         y="0"
         x="0">0</tspan></text><path
       id="path48"
       style="fill:#000000;fill-opacity:1;fill-rule:nonzero;stroke:#000000;stroke-width:0.8;stroke-linecap:butt;stroke-linejoin:round;stroke-miterlimit:10;stroke-dasharray:none;stroke-opacity:1"
       d="m 145.24131,41.96 v -3.5" /><text
       id="text52"
       style="font-variant:normal;font-weight:normal;font-size:10px;font-family:'DejaVu Sans';-inkscape-font-specification:DejaVuSans;writing-mode:lr-tb;fill:#000000;fill-opacity:1;fill-rule:nonzero;stroke:none"
       transform="matrix(1,0,0,-1,132.52256,27.36625)"><tspan
         id="tspan50"
         sodipodi:role="line"
         y="0"
         x="0 6.3600001 12.72 19.08">2000</tspan></text><path
       id="path54"
       style="fill:#000000;fill-opacity:1;fill-rule:nonzero;stroke:#000000;stroke-width:0.8;stroke-linecap:butt;stroke-linejoin:round;stroke-miterlimit:10;stroke-dasharray:none;stroke-opacity:1"
       d="m 217.16159,41.96 v -3.5" /><text
       id="text58"
       style="font-variant:normal;font-weight:normal;font-size:10px;font-family:'DejaVu Sans';-inkscape-font-specification:DejaVuSans;writing-mode:lr-tb;fill:#000000;fill-opacity:1;fill-rule:nonzero;stroke:none"
       transform="matrix(1,0,0,-1,204.44285,27.36625)"><tspan
         id="tspan56"
         sodipodi:role="line"
         y="0"
         x="0 6.3600001 12.72 19.08">4000</tspan></text><path
       id="path60"
       style="fill:#000000;fill-opacity:1;fill-rule:nonzero;stroke:#000000;stroke-width:0.8;stroke-linecap:butt;stroke-linejoin:round;stroke-miterlimit:10;stroke-dasharray:none;stroke-opacity:1"
       d="m 289.08188,41.96 v -3.5" /><text
       id="text64"
       style="font-variant:normal;font-weight:normal;font-size:10px;font-family:'DejaVu Sans';-inkscape-font-specification:DejaVuSans;writing-mode:lr-tb;fill:#000000;fill-opacity:1;fill-rule:nonzero;stroke:none"
       transform="matrix(1,0,0,-1,276.36313,27.36625)"><tspan
         id="tspan62"
         sodipodi:role="line"
         y="0"
         x="0 6.3600001 12.72 19.08">6000</tspan></text><path
       id="path66"
       style="fill:#000000;fill-opacity:1;fill-rule:nonzero;stroke:#000000;stroke-width:0.8;stroke-linecap:butt;stroke-linejoin:round;stroke-miterlimit:10;stroke-dasharray:none;stroke-opacity:1"
       d="m 361.00217,41.96 v -3.5" /><text
       id="text70"
       style="font-variant:normal;font-weight:normal;font-size:10px;font-family:'DejaVu Sans';-inkscape-font-specification:DejaVuSans;writing-mode:lr-tb;fill:#000000;fill-opacity:1;fill-rule:nonzero;stroke:none"
       transform="matrix(1,0,0,-1,348.28342,27.36625)"><tspan
         id="tspan68"
         sodipodi:role="line"
         y="0"
         x="0 6.3600001 12.72 19.08">8000</tspan></text><path
       id="path72"
       style="fill:#000000;fill-opacity:1;fill-rule:nonzero;stroke:#000000;stroke-width:0.8;stroke-linecap:butt;stroke-linejoin:round;stroke-miterlimit:10;stroke-dasharray:none;stroke-opacity:1"
       d="m 432.92246,41.96 v -3.5" /><text
       id="text76"
       style="font-variant:normal;font-weight:normal;font-size:10px;font-family:'DejaVu Sans';-inkscape-font-specification:DejaVuSans;writing-mode:lr-tb;fill:#000000;fill-opacity:1;fill-rule:nonzero;stroke:none"
       transform="matrix(1,0,0,-1,417.02403,27.36625)"><tspan
         id="tspan74"
         sodipodi:role="line"
         y="0"
         x="0 6.3600001 12.72 19.08 25.440001">10000</tspan></text><text
       id="text80"
       style="font-variant:normal;font-weight:normal;font-size:10px;font-family:'DejaVu Sans';-inkscape-font-specification:DejaVuSans;writing-mode:lr-tb;fill:#000000;fill-opacity:1;fill-rule:nonzero;stroke:none"
       transform="matrix(1,0,0,-1,201.80052,13.694375)"><tspan
         id="tspan78"
         sodipodi:role="line"
         y="0"
         x="0 7.48 13.82 23.559999 29.91 36.060001 40.169998 43.349998 49.470001 52.990002 56.169998 65.910004 72.040001 75.959999 80.07 82.849998 88.349998 94.5">Number of matrices</tspan></text><path
       id="path82"
       style="fill:#000000;fill-opacity:1;fill-rule:nonzero;stroke:#000000;stroke-width:0.8;stroke-linecap:butt;stroke-linejoin:round;stroke-miterlimit:10;stroke-dasharray:none;stroke-opacity:1"
       d="m 55.880346,79.386582 h -3.5" /><g
       transform="translate(24.880346,74.925644)"
       id="g84"><text
         id="text88"
         style="font-variant:normal;font-weight:normal;font-size:10px;font-family:'DejaVu Sans';-inkscape-font-specification:DejaVuSans;writing-mode:lr-tb;fill:#000000;fill-opacity:1;fill-rule:nonzero;stroke:none"
         transform="matrix(1,0,0,-1,0,0.9765625)"><tspan
           id="tspan86"
           sodipodi:role="line"
           y="0"
           x="0 6.3623047">10</tspan></text><text
         id="text92"
         style="font-variant:normal;font-weight:normal;font-size:7px;font-family:'DejaVu Sans';-inkscape-font-specification:DejaVuSans;writing-mode:lr-tb;fill:#000000;fill-opacity:1;fill-rule:nonzero;stroke:none"
         transform="matrix(1,0,0,-1,18.685547,4.8046875)"><tspan
           id="tspan90"
           y="0"
           x="0">3</tspan></text><g
         transform="matrix(0.007,0,0,0.007,12.820313,4.8046875)"
         id="g94"><g
           id="g96"><g
             clip-path="url(#clipPath102)"
             id="g98"><path
               id="path104"
               style="fill:#000000;fill-opacity:1;fill-rule:nonzero;stroke:none"
               d="M 106,355 H 732 V 272 H 106 v 83" /></g></g></g></g><path
       id="path106"
       style="fill:#000000;fill-opacity:1;fill-rule:nonzero;stroke:#000000;stroke-width:0.8;stroke-linecap:butt;stroke-linejoin:round;stroke-miterlimit:10;stroke-dasharray:none;stroke-opacity:1"
       d="m 55.880346,155.13801 h -3.5" /><g
       transform="translate(24.880346,150.67708)"
       id="g108"><text
         id="text112"
         style="font-variant:normal;font-weight:normal;font-size:10px;font-family:'DejaVu Sans';-inkscape-font-specification:DejaVuSans;writing-mode:lr-tb;fill:#000000;fill-opacity:1;fill-rule:nonzero;stroke:none"
         transform="matrix(1,0,0,-1,0,0.9765625)"><tspan
           id="tspan110"
           sodipodi:role="line"
           y="0"
           x="0 6.3623047">10</tspan></text><text
         id="text116"
         style="font-variant:normal;font-weight:normal;font-size:7px;font-family:'DejaVu Sans';-inkscape-font-specification:DejaVuSans;writing-mode:lr-tb;fill:#000000;fill-opacity:1;fill-rule:nonzero;stroke:none"
         transform="matrix(1,0,0,-1,18.685547,4.8046875)"><tspan
           id="tspan114"
           y="0"
           x="0">2</tspan></text><g
         transform="matrix(0.007,0,0,0.007,12.820313,4.8046875)"
         id="g118"><g
           id="g120"><g
             clip-path="url(#clipPath126)"
             id="g122"><path
               id="path128"
               style="fill:#000000;fill-opacity:1;fill-rule:nonzero;stroke:none"
               d="M 106,355 H 732 V 272 H 106 v 83" /></g></g></g></g><path
       id="path130"
       style="fill:#000000;fill-opacity:1;fill-rule:nonzero;stroke:#000000;stroke-width:0.8;stroke-linecap:butt;stroke-linejoin:round;stroke-miterlimit:10;stroke-dasharray:none;stroke-opacity:1"
       d="m 55.880346,230.88944 h -3.5" /><g
       transform="translate(24.880346,226.92851)"
       id="g132"><text
         id="text136"
         style="font-variant:normal;font-weight:normal;font-size:10px;font-family:'DejaVu Sans';-inkscape-font-specification:DejaVuSans;writing-mode:lr-tb;fill:#000000;fill-opacity:1;fill-rule:nonzero;stroke:none"
         transform="matrix(1,0,0,-1,0,0.0640625)"><tspan
           id="tspan134"
           sodipodi:role="line"
           y="0"
           x="0 6.3623047">10</tspan></text><text
         id="text140"
         style="font-variant:normal;font-weight:normal;font-size:7px;font-family:'DejaVu Sans';-inkscape-font-specification:DejaVuSans;writing-mode:lr-tb;fill:#000000;fill-opacity:1;fill-rule:nonzero;stroke:none"
         transform="matrix(1,0,0,-1,18.685547,3.8921875)"><tspan
           id="tspan138"
           y="0"
           x="0">1</tspan></text><g
         transform="matrix(0.007,0,0,0.007,12.820313,3.8921875)"
         id="g142"><g
           id="g144"><g
             clip-path="url(#clipPath150)"
             id="g146"><path
               id="path152"
               style="fill:#000000;fill-opacity:1;fill-rule:nonzero;stroke:none"
               d="M 106,355 H 732 V 272 H 106 v 83" /></g></g></g></g><path
       id="path154"
       style="fill:#000000;fill-opacity:1;fill-rule:nonzero;stroke:#000000;stroke-width:0.8;stroke-linecap:butt;stroke-linejoin:round;stroke-miterlimit:10;stroke-dasharray:none;stroke-opacity:1"
       d="m 55.880346,306.64087 h -3.5" /><g
       transform="translate(30.880346,302.17994)"
       id="g156"><text
         id="text160"
         style="font-variant:normal;font-weight:normal;font-size:10px;font-family:'DejaVu Sans';-inkscape-font-specification:DejaVuSans;writing-mode:lr-tb;fill:#000000;fill-opacity:1;fill-rule:nonzero;stroke:none"
         transform="matrix(1,0,0,-1,0,0.9765625)"><tspan
           id="tspan158"
           sodipodi:role="line"
           y="0"
           x="0 6.3623047">10</tspan></text><text
         id="text164"
         style="font-variant:normal;font-weight:normal;font-size:7px;font-family:'DejaVu Sans';-inkscape-font-specification:DejaVuSans;writing-mode:lr-tb;fill:#000000;fill-opacity:1;fill-rule:nonzero;stroke:none"
         transform="matrix(1,0,0,-1,12.820313,4.8046875)"><tspan
           id="tspan162"
           y="0"
           x="0">0</tspan></text></g><path
       id="path166"
       style="fill:#000000;fill-opacity:1;fill-rule:nonzero;stroke:#000000;stroke-width:0.6;stroke-linecap:butt;stroke-linejoin:round;stroke-miterlimit:10;stroke-dasharray:none;stroke-opacity:1"
       d="m 55.880346,49.242057 h -2" /><path
       id="path168"
       style="fill:#000000;fill-opacity:1;fill-rule:nonzero;stroke:#000000;stroke-width:0.6;stroke-linecap:butt;stroke-linejoin:round;stroke-miterlimit:10;stroke-dasharray:none;stroke-opacity:1"
       d="m 55.880346,56.583129 h -2" /><path
       id="path170"
       style="fill:#000000;fill-opacity:1;fill-rule:nonzero;stroke:#000000;stroke-width:0.6;stroke-linecap:butt;stroke-linejoin:round;stroke-miterlimit:10;stroke-dasharray:none;stroke-opacity:1"
       d="m 55.880346,62.581222 h -2" /><path
       id="path172"
       style="fill:#000000;fill-opacity:1;fill-rule:nonzero;stroke:#000000;stroke-width:0.6;stroke-linecap:butt;stroke-linejoin:round;stroke-miterlimit:10;stroke-dasharray:none;stroke-opacity:1"
       d="m 55.880346,67.652537 h -2" /><path
       id="path174"
       style="fill:#000000;fill-opacity:1;fill-rule:nonzero;stroke:#000000;stroke-width:0.6;stroke-linecap:butt;stroke-linejoin:round;stroke-miterlimit:10;stroke-dasharray:none;stroke-opacity:1"
       d="m 55.880346,72.04551 h -2" /><path
       id="path176"
       style="fill:#000000;fill-opacity:1;fill-rule:nonzero;stroke:#000000;stroke-width:0.6;stroke-linecap:butt;stroke-linejoin:round;stroke-miterlimit:10;stroke-dasharray:none;stroke-opacity:1"
       d="m 55.880346,75.920387 h -2" /><path
       id="path178"
       style="fill:#000000;fill-opacity:1;fill-rule:nonzero;stroke:#000000;stroke-width:0.6;stroke-linecap:butt;stroke-linejoin:round;stroke-miterlimit:10;stroke-dasharray:none;stroke-opacity:1"
       d="m 55.880346,102.19003 h -2" /><path
       id="path180"
       style="fill:#000000;fill-opacity:1;fill-rule:nonzero;stroke:#000000;stroke-width:0.6;stroke-linecap:butt;stroke-linejoin:round;stroke-miterlimit:10;stroke-dasharray:none;stroke-opacity:1"
       d="m 55.880346,115.5292 h -2" /><path
       id="path182"
       style="fill:#000000;fill-opacity:1;fill-rule:nonzero;stroke:#000000;stroke-width:0.6;stroke-linecap:butt;stroke-linejoin:round;stroke-miterlimit:10;stroke-dasharray:none;stroke-opacity:1"
       d="m 55.880346,124.99349 h -2" /><path
       id="path184"
       style="fill:#000000;fill-opacity:1;fill-rule:nonzero;stroke:#000000;stroke-width:0.6;stroke-linecap:butt;stroke-linejoin:round;stroke-miterlimit:10;stroke-dasharray:none;stroke-opacity:1"
       d="m 55.880346,132.33456 h -2" /><path
       id="path186"
       style="fill:#000000;fill-opacity:1;fill-rule:nonzero;stroke:#000000;stroke-width:0.6;stroke-linecap:butt;stroke-linejoin:round;stroke-miterlimit:10;stroke-dasharray:none;stroke-opacity:1"
       d="m 55.880346,138.33265 h -2" /><path
       id="path188"
       style="fill:#000000;fill-opacity:1;fill-rule:nonzero;stroke:#000000;stroke-width:0.6;stroke-linecap:butt;stroke-linejoin:round;stroke-miterlimit:10;stroke-dasharray:none;stroke-opacity:1"
       d="m 55.880346,143.40397 h -2" /><path
       id="path190"
       style="fill:#000000;fill-opacity:1;fill-rule:nonzero;stroke:#000000;stroke-width:0.6;stroke-linecap:butt;stroke-linejoin:round;stroke-miterlimit:10;stroke-dasharray:none;stroke-opacity:1"
       d="m 55.880346,147.79694 h -2" /><path
       id="path192"
       style="fill:#000000;fill-opacity:1;fill-rule:nonzero;stroke:#000000;stroke-width:0.6;stroke-linecap:butt;stroke-linejoin:round;stroke-miterlimit:10;stroke-dasharray:none;stroke-opacity:1"
       d="m 55.880346,151.67182 h -2" /><path
       id="path194"
       style="fill:#000000;fill-opacity:1;fill-rule:nonzero;stroke:#000000;stroke-width:0.6;stroke-linecap:butt;stroke-linejoin:round;stroke-miterlimit:10;stroke-dasharray:none;stroke-opacity:1"
       d="m 55.880346,177.94147 h -2" /><path
       id="path196"
       style="fill:#000000;fill-opacity:1;fill-rule:nonzero;stroke:#000000;stroke-width:0.6;stroke-linecap:butt;stroke-linejoin:round;stroke-miterlimit:10;stroke-dasharray:none;stroke-opacity:1"
       d="m 55.880346,191.28063 h -2" /><path
       id="path198"
       style="fill:#000000;fill-opacity:1;fill-rule:nonzero;stroke:#000000;stroke-width:0.6;stroke-linecap:butt;stroke-linejoin:round;stroke-miterlimit:10;stroke-dasharray:none;stroke-opacity:1"
       d="m 55.880346,200.74492 h -2" /><path
       id="path200"
       style="fill:#000000;fill-opacity:1;fill-rule:nonzero;stroke:#000000;stroke-width:0.6;stroke-linecap:butt;stroke-linejoin:round;stroke-miterlimit:10;stroke-dasharray:none;stroke-opacity:1"
       d="m 55.880346,208.08599 h -2" /><path
       id="path202"
       style="fill:#000000;fill-opacity:1;fill-rule:nonzero;stroke:#000000;stroke-width:0.6;stroke-linecap:butt;stroke-linejoin:round;stroke-miterlimit:10;stroke-dasharray:none;stroke-opacity:1"
       d="m 55.880346,214.08408 h -2" /><path
       id="path204"
       style="fill:#000000;fill-opacity:1;fill-rule:nonzero;stroke:#000000;stroke-width:0.6;stroke-linecap:butt;stroke-linejoin:round;stroke-miterlimit:10;stroke-dasharray:none;stroke-opacity:1"
       d="m 55.880346,219.1554 h -2" /><path
       id="path206"
       style="fill:#000000;fill-opacity:1;fill-rule:nonzero;stroke:#000000;stroke-width:0.6;stroke-linecap:butt;stroke-linejoin:round;stroke-miterlimit:10;stroke-dasharray:none;stroke-opacity:1"
       d="m 55.880346,223.54837 h -2" /><path
       id="path208"
       style="fill:#000000;fill-opacity:1;fill-rule:nonzero;stroke:#000000;stroke-width:0.6;stroke-linecap:butt;stroke-linejoin:round;stroke-miterlimit:10;stroke-dasharray:none;stroke-opacity:1"
       d="m 55.880346,227.42325 h -2" /><path
       id="path210"
       style="fill:#000000;fill-opacity:1;fill-rule:nonzero;stroke:#000000;stroke-width:0.6;stroke-linecap:butt;stroke-linejoin:round;stroke-miterlimit:10;stroke-dasharray:none;stroke-opacity:1"
       d="m 55.880346,253.6929 h -2" /><path
       id="path212"
       style="fill:#000000;fill-opacity:1;fill-rule:nonzero;stroke:#000000;stroke-width:0.6;stroke-linecap:butt;stroke-linejoin:round;stroke-miterlimit:10;stroke-dasharray:none;stroke-opacity:1"
       d="m 55.880346,267.03206 h -2" /><path
       id="path214"
       style="fill:#000000;fill-opacity:1;fill-rule:nonzero;stroke:#000000;stroke-width:0.6;stroke-linecap:butt;stroke-linejoin:round;stroke-miterlimit:10;stroke-dasharray:none;stroke-opacity:1"
       d="m 55.880346,276.49635 h -2" /><path
       id="path216"
       style="fill:#000000;fill-opacity:1;fill-rule:nonzero;stroke:#000000;stroke-width:0.6;stroke-linecap:butt;stroke-linejoin:round;stroke-miterlimit:10;stroke-dasharray:none;stroke-opacity:1"
       d="m 55.880346,283.83742 h -2" /><path
       id="path218"
       style="fill:#000000;fill-opacity:1;fill-rule:nonzero;stroke:#000000;stroke-width:0.6;stroke-linecap:butt;stroke-linejoin:round;stroke-miterlimit:10;stroke-dasharray:none;stroke-opacity:1"
       d="m 55.880346,289.83551 h -2" /><path
       id="path220"
       style="fill:#000000;fill-opacity:1;fill-rule:nonzero;stroke:#000000;stroke-width:0.6;stroke-linecap:butt;stroke-linejoin:round;stroke-miterlimit:10;stroke-dasharray:none;stroke-opacity:1"
       d="m 55.880346,294.90683 h -2" /><path
       id="path222"
       style="fill:#000000;fill-opacity:1;fill-rule:nonzero;stroke:#000000;stroke-width:0.6;stroke-linecap:butt;stroke-linejoin:round;stroke-miterlimit:10;stroke-dasharray:none;stroke-opacity:1"
       d="m 55.880346,299.2998 h -2" /><path
       id="path224"
       style="fill:#000000;fill-opacity:1;fill-rule:nonzero;stroke:#000000;stroke-width:0.6;stroke-linecap:butt;stroke-linejoin:round;stroke-miterlimit:10;stroke-dasharray:none;stroke-opacity:1"
       d="m 55.880346,303.17468 h -2" /><path
       id="path226"
       style="fill:#000000;fill-opacity:1;fill-rule:nonzero;stroke:#000000;stroke-width:0.6;stroke-linecap:butt;stroke-linejoin:round;stroke-miterlimit:10;stroke-dasharray:none;stroke-opacity:1"
       d="m 55.880346,329.44433 h -2" /><text
       id="text230"
       style="font-variant:normal;font-weight:normal;font-size:10px;font-family:'DejaVu Sans';-inkscape-font-specification:DejaVuSans;writing-mode:lr-tb;fill:#000000;fill-opacity:1;fill-rule:nonzero;stroke:none"
       transform="matrix(0,1,1,0,18.802221,145.74719)"><tspan
         id="tspan228"
         sodipodi:role="line"
         y="0"
         x="0 5.21 11.36 16.860001 22.98 29.32 35.669998 40.880001 44.060001 50.41 56.560001 60.669998 63.849998 66.629997 72.75 78.870003">seconds per loop</tspan></text><g
       id="g232"><g
         clip-path="url(#clipPath238)"
         id="g234"><path
           id="path240"
           style="fill:none;stroke:#1f77b4;stroke-width:1.5;stroke-linecap:square;stroke-linejoin:round;stroke-miterlimit:10;stroke-dasharray:none;stroke-opacity:1"
           d="m 73.680618,109.7051 3.596014,2.60924 3.596015,18.25378 3.596014,-0.59638 3.596015,6.04084 3.596014,5.766 3.596015,3.33587 3.596014,4.06833 3.596011,27.52398 3.59602,-20.72998 3.59601,2.62394 3.59602,2.75783 3.59601,2.64145 3.59602,2.57984 3.59601,5.90069 3.59601,-1.99961 3.59602,1.90084 3.59601,1.61155 3.59602,2.47483 3.59601,0.85695 3.59602,1.51422 3.59601,1.45876 3.59602,6.53423 3.59601,2.48434 3.59601,-4.6659 3.59602,1.96683 3.59601,7.66765 3.59602,-6.44084 3.59601,1.11839 3.59602,1.55257 3.59601,0.75722 3.59602,0.93786 3.59601,1.26356 3.59601,0.7898 3.59602,1.05497 3.59601,0.59418 3.59602,0.9169 3.59601,0.82068 3.59602,0.85566 3.59601,0.80597 3.59602,1.0342 3.59601,0.55874 3.59602,0.72494 3.59601,0.92738 3.59601,0.54845 3.59602,0.73261 3.59601,1.21203 3.59602,0.18469 3.59601,0.60543 3.59602,1.25156 3.59601,0.10557 3.59602,0.58817 3.59601,1.12373 3.59601,0.12662 3.59602,0.56468 3.59601,0.62244 3.59602,0.52643 3.59601,0.55427 3.59602,0.54689 3.59601,0.53894 3.59602,0.54195 3.59601,0.52594 3.59601,0.53046 3.59602,0.70755 3.59601,0.29238 3.59602,1.30819 3.59601,0.37345 3.59602,0.73223 3.59601,0.59568 3.59602,-0.60157 3.59601,0.97428 3.59601,0.0421 3.59602,0.36401 3.59601,0.42963 3.59602,0.67411 3.59601,0.17352 3.59602,0.44428 3.59601,1.57077 3.59602,-0.68859 3.59601,0.40139 3.59602,0.64556 3.59601,0.51896 3.59601,2.85066 3.59602,-1.74316 3.59601,0.0831 3.59602,0.55982 3.59601,0.30793 3.59602,-0.0107 3.59601,0.36683 3.59602,0.36668 3.59601,1.08035 3.59601,-0.24142 3.59602,0.24325 3.59601,0.20078 3.59602,0.42205 3.59601,0.22788 3.59602,0.57322 3.59601,0.12017 3.59602,3.69792 3.59601,-2.62481" /></g></g><g
       id="g242"><g
         clip-path="url(#clipPath248)"
         id="g244"><path
           id="path250"
           style="fill:none;stroke:#ff7f0e;stroke-width:1.5;stroke-linecap:square;stroke-linejoin:round;stroke-miterlimit:10;stroke-dasharray:none;stroke-opacity:1"
           d="m 73.680618,78.442704 3.596014,15.121079 3.596015,23.006607 3.596014,3.45861 3.596015,7.75269 3.596014,6.45862 3.596015,5.36371 3.596014,4.26436 3.596011,32.26081 3.59602,-20.58682 3.59601,-0.80393 3.59602,4.06049 3.59601,1.70733 3.59602,24.99896 3.59601,-18.74594 3.59601,0.82333 3.59602,1.99538 3.59601,1.84069 3.59602,2.03014 3.59601,1.60526 3.59602,1.55274 3.59601,3.08493 3.59602,32.42158 3.59601,-8.51245 3.59601,-21.18339 3.59602,1.38771 3.59601,23.62412 3.59602,-21.40276 3.59601,4.91758 3.59602,16.7776 3.59601,-18.28982 3.59602,1.06894 3.59601,2.66591 3.59601,24.90407 3.59602,-24.64962 3.59601,1.21135 3.59602,0.64044 3.59601,0.84161 3.59602,0.81642 3.59601,0.92149 3.59602,0.77518 3.59601,0.81963 3.59602,0.76346 3.59601,0.83471 3.59601,0.65601 3.59602,0.77615 3.59601,0.76741 3.59602,0.59686 3.59601,0.75591 3.59602,0.61487 3.59601,0.60982 3.59602,0.69145 3.59601,0.62787 3.59601,0.5781 3.59602,0.61617 3.59601,0.5831 3.59602,0.58371 3.59601,0.62101 3.59602,0.57007 3.59601,0.60406 3.59602,0.4747 3.59601,0.51037 3.59601,0.51402 3.59602,0.58178 3.59601,0.52064 3.59602,0.5146 3.59601,0.51981 3.59602,0.47649 3.59601,0.48705 3.59602,0.39553 3.59601,0.48989 3.59601,0.45616 3.59602,0.4579 3.59601,0.43093 3.59602,0.40911 3.59601,0.43482 3.59602,0.45283 3.59601,0.79858 3.59602,0.0373 3.59601,0.51084 3.59602,0.3049 3.59601,0.50867 3.59601,0.72128 3.59602,0.0985 3.59601,0.306 3.59602,0.47039 3.59601,0.36064 3.59602,0.34293 3.59601,0.32446 3.59602,0.3761 3.59601,1.54417 3.59601,-0.81407 3.59602,0.32574 3.59601,0.38814 3.59602,0.34449 3.59601,0.36342 3.59602,0.26693 3.59601,0.39698 3.59602,10.19975 3.59601,-9.57196" /></g></g><g
       id="g252"><g
         clip-path="url(#clipPath258)"
         id="g254"><path
           id="path260"
           style="fill:none;stroke:#2ca02c;stroke-width:1.5;stroke-linecap:square;stroke-linejoin:round;stroke-miterlimit:10;stroke-dasharray:none;stroke-opacity:1"
           d="m 73.680618,65.738652 3.596014,18.786074 3.596015,20.782974 3.596014,3.65912 3.596015,7.33666 3.596014,6.46095 3.596015,4.45055 3.596014,4.46629 3.596011,3.97774 3.59602,3.55413 3.59601,3.03202 3.59602,5.28907 3.59601,0.34585 3.59602,2.59748 3.59601,2.40817 3.59601,1.91098 3.59602,1.92827 3.59601,1.91542 3.59602,1.8376 3.59601,1.63982 3.59602,1.62185 3.59601,1.62118 3.59602,2.58058 3.59601,0.49036 3.59601,2.90531 3.59602,1.20294 3.59601,1.94712 3.59602,-0.22866 3.59601,0.81116 3.59602,2.44247 3.59601,4.96928 3.59602,-4.87528 3.59601,1.01432 3.59601,1.03878 3.59602,0.9038 3.59601,0.91971 3.59602,0.89093 3.59601,0.86435 3.59602,0.88286 3.59601,0.80932 3.59602,1.4504 3.59601,0.16122 3.59602,0.77518 3.59601,0.78511 3.59601,0.7213 3.59602,0.72209 3.59601,0.74721 3.59602,5.793 3.59601,-4.41722 3.59602,0.63356 3.59601,0.67046 3.59602,0.62441 3.59601,0.63345 3.59601,0.6187 3.59602,0.59995 3.59601,0.59164 3.59602,0.58042 3.59601,0.58002 3.59602,0.55556 3.59601,0.55519 3.59602,0.57109 3.59601,0.50777 3.59601,0.5313 3.59602,0.54343 3.59601,2.12443 3.59602,0.11834 3.59601,0.80332 3.59602,0.8118 3.59601,0.2005 3.59602,-1.08281 3.59601,0.43766 3.59601,0.46261 3.59602,0.45072 3.59601,0.45313 3.59602,0.43649 3.59601,0.49303 3.59602,1.18727 3.59601,4.54015 3.59602,-3.76868 3.59601,1.0434 3.59602,-0.54885 3.59601,1.47998 3.59601,-3.01144 3.59602,1.27251 3.59601,-0.59632 3.59602,-0.057 3.59601,0.61792 3.59602,-0.99936 3.59601,0.0771 3.59602,0.66478 3.59601,-1.2023 3.59601,0.26439 3.59602,-0.33778 3.59601,-0.086 3.59602,-0.18751 3.59601,-0.0532 3.59602,-0.19798 3.59601,0.62293 3.59602,0.94026 3.59601,-1.81433" /></g></g><g
       id="g262"><g
         clip-path="url(#clipPath268)"
         id="g264"><path
           id="path270"
           style="fill:none;stroke:#d62728;stroke-width:1.5;stroke-linecap:square;stroke-linejoin:round;stroke-miterlimit:10;stroke-dasharray:none;stroke-opacity:1"
           d="m 73.680618,201.21939 3.596014,-53.63918 3.596015,3.64939 3.596014,-82.87959 3.596015,3.334481 3.596014,16.633792 3.596015,-7.262039 3.596014,-0.221702 3.596011,80.087818 3.59602,-74.445503 3.59601,17.364103 3.59602,2.94501 3.59601,-12.874415 3.59602,68.733025 3.59601,-53.44391 3.59601,1.85872 3.59602,-13.245037 3.59601,1.414007 3.59602,0.722611 3.59601,2.209009 3.59602,0.93831 3.59601,16.1453 3.59602,66.2636 3.59601,-42.17808 3.59601,-36.2925 3.59602,2.02566 3.59601,76.0376 3.59602,-48.6164 3.59601,15.38965 3.59602,-37.4577 3.59601,6.84635 3.59602,-6.9167 3.59601,0.85876 3.59601,18.69847 3.59602,-17.89336 3.59601,-0.23319 3.59602,2.80831 3.59601,-0.0441 3.59602,0.85046 3.59601,0.085 3.59602,0.81468 3.59601,1.09143 3.59602,-0.31949 3.59601,2.54849 3.59601,-1.29237 3.59602,1.58119 3.59601,4.55477 3.59602,-1.94036 3.59601,-1.02568 3.59602,0.61845 3.59601,0.848 3.59602,-0.23113 3.59601,1.47887 3.59601,0.54246 3.59602,-0.14431 3.59601,29.23994 3.59602,-28.48433 3.59601,0.56377 3.59602,1.02815 3.59601,-0.32003 3.59602,0.67788 3.59601,1.7805 3.59601,0.32852 3.59602,-0.33758 3.59601,0.84834 3.59602,1.22155 3.59601,-0.87336 3.59602,0.43984 3.59601,1.26131 3.59602,0.36989 3.59601,-1.09228 3.59601,1.79429 3.59602,0.50882 3.59601,0.33484 3.59602,0.50156 3.59601,0.63255 3.59602,2.13757 3.59601,9.88329 3.59602,-6.48499 3.59601,0.002 3.59602,-3.39727 3.59601,1.64015 3.59601,-0.50909 3.59602,0.21854 3.59601,0.12415 3.59602,2.09974 3.59601,-1.67984 3.59602,0.61645 3.59601,0.22831 3.59602,0.65205 3.59601,0.4791 3.59601,-0.0329 3.59602,0.78921 3.59601,-0.0302 3.59602,0.004 3.59601,0.8258 3.59602,0.0214 3.59601,4.34683 3.59602,-2.34655 3.59601,-1.0166" /></g></g><g
       id="g272"><g
         clip-path="url(#clipPath278)"
         id="g274"><path
           id="path280"
           style="fill:none;stroke:#9467bd;stroke-width:1.5;stroke-linecap:square;stroke-linejoin:round;stroke-miterlimit:10;stroke-dasharray:none;stroke-opacity:1"
           d="m 73.680618,104.22694 3.596014,78.12891 3.596015,21.20091 3.596014,11.27172 3.596015,9.33709 3.596014,7.64128 3.596015,5.89978 3.596014,4.41511 3.596011,5.0939 3.59602,3.386 3.59601,2.90675 3.59602,3.012 3.59601,2.34802 3.59602,2.68065 3.59601,1.8648 3.59601,1.19371 3.59602,1.68399 3.59601,1.80616 3.59602,2.54106 3.59601,1.09909 3.59602,1.93717 3.59601,1.14455 3.59602,2.54357 3.59601,0.99033 3.59601,0.43145 3.59602,1.6422 3.59601,0.22155 3.59602,2.06475 3.59601,0.44616 3.59602,3.43527 3.59601,0.82188 3.59602,-1.85946 3.59601,1.24053 3.59601,1.27969 3.59602,-0.211 3.59601,1.34776 3.59602,0.4724 3.59601,1.02707 3.59602,0.73094 3.59601,1.10232 3.59602,0.58889 3.59601,0.54467 3.59602,0.88364 3.59601,0.87854 3.59601,0.58268 3.59602,0.92451 3.59601,0.422 3.59602,0.71607 3.59601,0.89542 3.59602,0.44307 3.59601,1.15962 3.59602,0.33028 3.59601,0.54376 3.59601,0.57725 3.59602,-0.0394 3.59601,1.02952 3.59602,0.43769 3.59601,1.56058 3.59602,-0.43022 3.59601,0.48986 3.59602,0.64722 3.59601,0.60377 3.59601,0.81014 3.59602,0.62581 3.59601,-0.0558 3.59602,0.47487 3.59601,0.99745 3.59602,-0.16577 3.59601,1.49579 3.59602,-0.43378 3.59601,0.63168 3.59601,0.31378 3.59602,0.15849 3.59601,0.66686 3.59602,-0.0906 3.59601,0.72254 3.59602,1.74653 3.59601,-0.59207 3.59602,0.54825 3.59601,0.41166 3.59602,0.18219 3.59601,0.69827 3.59601,-0.16426 3.59602,0.83999 3.59601,-0.3167 3.59602,0.64497 3.59601,0.83346 3.59602,-0.20452 3.59601,1.49244 3.59602,-0.69497 3.59601,0.11555 3.59601,0.8028 3.59602,-0.1726 3.59601,0.55588 3.59602,0.5396 3.59601,-0.0843 3.59602,1.19167 3.59601,0.55807 3.59602,0.0694 3.59601,-5.7e-4" /></g></g><g
       id="g282"><g
         clip-path="url(#clipPath288)"
         id="g284"><path
           id="path290"
           style="fill:none;stroke:#8c564b;stroke-width:1.5;stroke-linecap:square;stroke-linejoin:round;stroke-miterlimit:10;stroke-dasharray:none;stroke-opacity:1"
           d="m 73.680618,56.707775 3.596014,9.402517 3.596015,-7.427971 3.596014,0.04256 3.596015,1.628791 3.596014,-0.741937 3.596015,0.775949 3.596014,1.085598 3.596011,-0.931286 3.59602,0.750741 3.59601,0.893753 3.59602,-4.812336 3.59601,0.257593 3.59602,1.085242 3.59601,0.549989 3.59601,-3.996074 3.59602,1.100066 3.59601,-0.05674 3.59602,2.536602 3.59601,0.855099 3.59602,-0.198544 3.59601,1.352863 3.59602,-1.689718 3.59601,0.162353 3.59601,0.10538 3.59602,-0.287506 3.59601,-2.100913 3.59602,2.6325 3.59601,2.88724 3.59602,-2.774198 3.59601,0.961108 3.59602,-0.667918 3.59601,-1.230623 3.59601,2.115226 3.59602,-1.581764 3.59601,0.506573 3.59602,-0.316399 3.59601,1.342555 3.59602,-1.835337 3.59601,1.700127 3.59602,-0.802722 3.59601,0.49622 3.59602,-0.394092 3.59601,0.781556 3.59601,0.91583 3.59602,0.282846 3.59601,-0.336816 3.59602,-0.844249 3.59601,3.731529 3.59602,1.350571 3.59601,0.898602 3.59602,-4.350829 3.59601,0.372608 3.59601,7.301352 3.59602,-2.831784 3.59601,-2.279059 3.59602,-1.851414 3.59601,-0.442843 3.59602,1.244997 3.59601,-0.492445 3.59602,1.623169 3.59601,1.753672 3.59601,2.404571 3.59602,-3.703033 3.59601,0.782037 3.59602,0.333424 3.59601,-2.060143 3.59602,2.594234 3.59601,-0.30575 3.59602,-1.290847 3.59601,0.947327 3.59601,-0.57393 3.59602,1.929139 3.59601,-1.517112 3.59602,-0.607801 3.59601,3.371694 3.59602,2.595826 3.59601,-4.77946 3.59602,1.385568 3.59601,3.104521 3.59602,-3.176498 3.59601,4.493277 3.59601,-4.331756 3.59602,-0.837254 3.59601,0.971549 3.59602,-0.70557 3.59601,0.549977 3.59602,2.193442 3.59601,-1.680283 3.59602,-0.806824 3.59601,2.136695 3.59601,-0.23551 3.59602,-1.546822 3.59601,3.464073 3.59602,-2.103782 3.59601,-0.418014 3.59602,0.918329 3.59601,1.378781 3.59602,-0.300344 3.59601,-1.256457" /></g></g><g
       id="g292"><g
         clip-path="url(#clipPath298)"
         id="g294"><path
           id="path300"
           style="fill:none;stroke:#e377c2;stroke-width:1.5;stroke-linecap:square;stroke-linejoin:round;stroke-miterlimit:10;stroke-dasharray:none;stroke-opacity:1"
           d="m 73.680618,67.640268 3.596014,82.896352 3.596015,-45.75569 3.596014,-47.502941 3.596015,130.099311 3.596014,-62.41124 3.596015,-57.066912 3.596014,104.154332 3.596011,-110.998344 3.59602,1.435105 3.59601,5.766002 3.59602,-2.847356 3.59601,7.920516 3.59602,30.856217 3.59601,-32.769602 3.59601,-5.765703 3.59602,-0.306751 3.59601,0.811764 3.59602,1.071962 3.59601,0.467752 3.59602,4.589264 3.59601,36.560364 3.59602,-36.989865 3.59601,-4.682025 3.59601,1.191261 3.59602,-1.644304 3.59601,0.842393 3.59602,-0.760638 3.59601,5.235216 3.59602,-4.72407 3.59601,4.679204 3.59602,-3.8822 3.59601,-0.207089 3.59601,83.083847 3.59602,-83.515777 3.59601,0.353992 3.59602,-0.05891 3.59601,-0.299945 3.59602,-0.924622 3.59601,-0.210532 3.59602,1.493826 3.59601,-0.160426 3.59602,-1.176092 3.59601,0.853113 3.59601,3.99328 3.59602,-3.693189 3.59601,0.196075 3.59602,-0.07261 3.59601,-0.03154 3.59602,-0.217975 3.59601,4.535134 3.59602,-4.484345 3.59601,0.117641 3.59601,1.421087 3.59602,-1.320198 3.59601,0.454274 3.59602,1.863515 3.59601,-1.692079 3.59602,0.606547 3.59601,0.171745 3.59602,0.01314 3.59601,0.780985 3.59601,-1.531061 3.59602,1.001319 3.59601,0.148677 3.59602,-0.206839 3.59601,0.173069 3.59602,0.123168 3.59601,0.847473 3.59602,-0.971261 3.59601,-0.939387 3.59601,0.211022 3.59602,0.134185 3.59601,20.496266 3.59602,-20.441275 3.59601,0.705974 3.59602,-0.43713 3.59601,2.651896 3.59602,-0.692429 3.59601,40.794819 3.59602,-42.15108 3.59601,2.53384 3.59601,-0.675963 3.59602,-1.818001 3.59601,-0.210099 3.59602,-0.02145 3.59601,0.29952 3.59602,-0.211557 3.59601,0.773564 3.59602,-0.344368 3.59601,-0.381719 3.59601,-0.0066 3.59602,17.247481 3.59601,-16.245373 3.59602,-0.601496 3.59601,-0.532282 3.59602,0.05383 3.59601,0.9054 3.59602,-1.162789 3.59601,21.26124" /></g></g><g
       id="g302"><g
         clip-path="url(#clipPath308)"
         id="g304"><path
           id="path310"
           style="fill:none;stroke:#7f7f7f;stroke-width:1.5;stroke-linecap:square;stroke-linejoin:round;stroke-miterlimit:10;stroke-dasharray:none;stroke-opacity:1"
           d="m 73.680618,65.975505 3.596014,6.661798 3.596015,-5.807658 3.596014,0.252785 3.596015,0.374486 3.596014,-0.02611 3.596015,0.880299 3.596014,-0.19734 3.596011,0.417123 3.59602,0.338929 3.59601,-0.01078 3.59602,-0.06549 3.59601,2.313217 3.59602,-0.866073 3.59601,-0.429039 3.59601,0.878791 3.59602,-0.743599 3.59601,0.165748 3.59602,2.741369 3.59601,-1.264574 3.59602,0.526035 3.59601,1.481189 3.59602,-3.117162 3.59601,0.669221 3.59601,0.16419 3.59602,-1.035828 3.59601,0.925517 3.59602,1.500196 3.59601,-0.67534 3.59602,-0.518759 3.59601,0.178501 3.59602,0.592949 3.59601,-0.454635 3.59601,1.295846 3.59602,-0.767594 3.59601,-0.171798 3.59602,0.364137 3.59601,-0.364014 3.59602,-0.411435 3.59601,0.561552 3.59602,0.78123 3.59601,-0.24037 3.59602,-0.179704 3.59601,-0.186043 3.59601,0.226018 3.59602,1.085045 3.59601,0.05139 3.59602,0.133484 3.59601,-5.04e-4 3.59602,-0.234756 3.59601,0.468657 3.59602,0.01231 3.59601,0.138736 3.59601,0.641351 3.59602,-0.09542 3.59601,-0.476569 3.59602,0.455582 3.59601,0.452407 3.59602,-0.311519 3.59601,0.146266 3.59602,0.212136 3.59601,-0.109175 3.59601,-0.48822 3.59602,0.818646 3.59601,0.18118 3.59602,-0.472111 3.59601,0.512975 3.59602,0.445026 3.59601,-0.06883 3.59602,0.379742 3.59601,-0.646164 3.59601,-0.01081 3.59602,-0.09929 3.59601,0.292407 3.59602,-0.04556 3.59601,1.367635 3.59602,-0.423311 3.59601,0.262049 3.59602,0.01801 3.59601,-0.586789 3.59602,1.288779 3.59601,1.553476 3.59601,-1.769082 3.59602,0.03125 3.59601,2.89744 3.59602,-2.879688 3.59601,0.410017 3.59602,1.967984 3.59601,-2.022413 3.59602,0.315746 3.59601,0.227955 3.59601,-0.184699 3.59602,0.608827 3.59601,-0.344322 3.59602,0.008 3.59601,0.756268 3.59602,-0.563745 3.59601,0.429906 3.59602,0.403881 3.59601,-0.243745" /></g></g><g
       id="g312"><path
         id="path314"
         style="fill:none;stroke:#000000;stroke-width:0.8;stroke-linecap:square;stroke-linejoin:miter;stroke-miterlimit:10;stroke-dasharray:none;stroke-opacity:1"
         d="M 55.880346,41.96 V 334.8" /><path
         id="path316"
         style="fill:none;stroke:#000000;stroke-width:0.8;stroke-linecap:square;stroke-linejoin:miter;stroke-miterlimit:10;stroke-dasharray:none;stroke-opacity:1"
         d="M 447.48632,41.96 V 334.8" /><path
         id="path318"
         style="fill:none;stroke:#000000;stroke-width:0.8;stroke-linecap:square;stroke-linejoin:miter;stroke-miterlimit:10;stroke-dasharray:none;stroke-opacity:1"
         d="M 55.880346,41.96 H 447.48632" /><path
         id="path320"
         style="fill:none;stroke:#000000;stroke-width:0.8;stroke-linecap:square;stroke-linejoin:miter;stroke-miterlimit:10;stroke-dasharray:none;stroke-opacity:1"
         d="M 55.880346,334.8 H 447.48632" /><path
         id="path322"
         style="fill:#ffffff;fill-opacity:0.8;fill-rule:nonzero;stroke:#cccccc;stroke-width:1;stroke-linecap:butt;stroke-linejoin:miter;stroke-miterlimit:10;stroke-dasharray:none;stroke-opacity:0.8"
         d="M 62.880346,207.45625 H 188.5366 c 1.33333,0 2,0.66667 2,2 V 327.8 c 0,1.33333 -0.66667,2 -2,2 H 62.880346 c -1.333333,0 -2,-0.66667 -2,-2 V 209.45625 c 0,-1.33333 0.666667,-2 2,-2 z" /><path
         id="path324"
         style="fill:none;stroke:#1f77b4;stroke-width:1.5;stroke-linecap:square;stroke-linejoin:round;stroke-miterlimit:10;stroke-dasharray:none;stroke-opacity:1"
         d="m 64.880346,321.70625 h 20" /><text
         id="text328"
         style="font-variant:normal;font-weight:normal;font-size:10px;font-family:'DejaVu Sans';-inkscape-font-specification:DejaVuSans;writing-mode:lr-tb;fill:#000000;fill-opacity:1;fill-rule:nonzero;stroke:none"
         transform="matrix(1,0,0,-1,92.880346,318.20625)"><tspan
           id="tspan326"
           sodipodi:role="line"
           y="0"
           x="0 6.1500001 8.9300003 15.27 20.48 26.82">einsum</tspan></text><path
         id="path330"
         style="fill:none;stroke:#ff7f0e;stroke-width:1.5;stroke-linecap:square;stroke-linejoin:round;stroke-miterlimit:10;stroke-dasharray:none;stroke-opacity:1"
         d="m 64.880346,307.03437 h 20" /><text
         id="text334"
         style="font-variant:normal;font-weight:normal;font-size:10px;font-family:'DejaVu Sans';-inkscape-font-specification:DejaVuSans;writing-mode:lr-tb;fill:#000000;fill-opacity:1;fill-rule:nonzero;stroke:none"
         transform="matrix(1,0,0,-1,92.880346,303.53437)"><tspan
           id="tspan332"
           sodipodi:role="line"
           y="0"
           x="0 6.3499999 12.47 16.389999 21.389999 27.52 33.869999">dot_app</tspan></text><path
         id="path336"
         style="fill:none;stroke:#2ca02c;stroke-width:1.5;stroke-linecap:square;stroke-linejoin:round;stroke-miterlimit:10;stroke-dasharray:none;stroke-opacity:1"
         d="m 64.880346,292.08125 h 20" /><text
         id="text340"
         style="font-variant:normal;font-weight:normal;font-size:10px;font-family:'DejaVu Sans';-inkscape-font-specification:DejaVuSans;writing-mode:lr-tb;fill:#000000;fill-opacity:1;fill-rule:nonzero;stroke:none"
         transform="matrix(1,0,0,-1,92.880346,288.58125)"><tspan
           id="tspan338"
           sodipodi:role="line"
           y="0"
           x="0 5.5 10.5 14.02 20.360001 23.139999">c_full</tspan></text><path
         id="path342"
         style="fill:none;stroke:#d62728;stroke-width:1.5;stroke-linecap:square;stroke-linejoin:round;stroke-miterlimit:10;stroke-dasharray:none;stroke-opacity:1"
         d="m 64.880346,277.12812 h 20" /><text
         id="text346"
         style="font-variant:normal;font-weight:normal;font-size:10px;font-family:'DejaVu Sans';-inkscape-font-specification:DejaVuSans;writing-mode:lr-tb;fill:#000000;fill-opacity:1;fill-rule:nonzero;stroke:none"
         transform="matrix(1,0,0,-1,92.880346,273.62812)"><tspan
           id="tspan344"
           sodipodi:role="line"
           y="0"
           x="0 5.5 10.5 14.02 20.360001 23.139999 25.92 30.92 37.27 43.400002 47.509998 53.639999 56.419998 59.200001 65.349998">c_full_parallel</tspan></text><path
         id="path348"
         style="fill:none;stroke:#9467bd;stroke-width:1.5;stroke-linecap:square;stroke-linejoin:round;stroke-miterlimit:10;stroke-dasharray:none;stroke-opacity:1"
         d="m 64.880346,262.175 h 20" /><text
         id="text352"
         style="font-variant:normal;font-weight:normal;font-size:10px;font-family:'DejaVu Sans';-inkscape-font-specification:DejaVuSans;writing-mode:lr-tb;fill:#000000;fill-opacity:1;fill-rule:nonzero;stroke:none"
         transform="matrix(1,0,0,-1,92.880346,258.675)"><tspan
           id="tspan350"
           sodipodi:role="line"
           y="0"
           x="0 5.5 11.42 15.34 21.68 27.799999 34.139999 39.139999 44.639999 49.639999 53.75 59.900002 66.25 72.589996 78.089996 84.239998">cython_c_reduced</tspan></text><path
         id="path354"
         style="fill:none;stroke:#8c564b;stroke-width:1.5;stroke-linecap:square;stroke-linejoin:round;stroke-miterlimit:10;stroke-dasharray:none;stroke-opacity:1"
         d="m 64.880346,247.22187 h 20" /><text
         id="text358"
         style="font-variant:normal;font-weight:normal;font-size:10px;font-family:'DejaVu Sans';-inkscape-font-specification:DejaVuSans;writing-mode:lr-tb;fill:#000000;fill-opacity:1;fill-rule:nonzero;stroke:none"
         transform="matrix(1,0,0,-1,92.880346,243.72187)"><tspan
           id="tspan356"
           sodipodi:role="line"
           y="0"
           x="0 5.5 10.5 14.61 20.76 27.110001 33.450001 38.950001 45.099998">c_reduced</tspan></text><path
         id="path360"
         style="fill:none;stroke:#e377c2;stroke-width:1.5;stroke-linecap:square;stroke-linejoin:round;stroke-miterlimit:10;stroke-dasharray:none;stroke-opacity:1"
         d="m 64.880346,232.26875 h 20" /><text
         id="text364"
         style="font-variant:normal;font-weight:normal;font-size:10px;font-family:'DejaVu Sans';-inkscape-font-specification:DejaVuSans;writing-mode:lr-tb;fill:#000000;fill-opacity:1;fill-rule:nonzero;stroke:none"
         transform="matrix(1,0,0,-1,92.880346,228.76875)"><tspan
           id="tspan362"
           sodipodi:role="line"
           y="0"
           x="0 5.5 10.5 14.61 20.76 27.110001 33.450001 38.950001 45.099998 51.450001 56.450001 62.799999 68.93 73.040001 79.169998 81.949997 84.730003 90.879997">c_reduced_parallel</tspan></text><path
         id="path366"
         style="fill:none;stroke:#7f7f7f;stroke-width:1.5;stroke-linecap:square;stroke-linejoin:round;stroke-miterlimit:10;stroke-dasharray:none;stroke-opacity:1"
         d="m 64.880346,217.31562 h 20" /><text
         id="text370"
         style="font-variant:normal;font-weight:normal;font-size:10px;font-family:'DejaVu Sans';-inkscape-font-specification:DejaVuSans;writing-mode:lr-tb;fill:#000000;fill-opacity:1;fill-rule:nonzero;stroke:none"
         transform="matrix(1,0,0,-1,92.880346,213.81562)"><tspan
           id="tspan368"
           sodipodi:role="line"
           y="0"
           x="0 5.5 9.0200005 12.54 15.32 20.32 25.82 30.82 34.93 41.080002 47.43 53.77 59.27 65.419998">cffi_c_reduced</tspan></text></g></g></svg>
