<svg width="1100" height="740" viewBox="0 0 1100 740" fill="none" xmlns="http://www.w3.org/2000/svg">
<rect width="1100" height="740" fill="white"/>
<path fill-rule="evenodd" clip-rule="evenodd" d="M898.98 311.562C863.39 251.33 812.846 201.279 752.218 166.275C690.404 130.587 620.285 111.798 548.908 111.798C477.531 111.798 407.412 130.587 345.598 166.275C284.97 201.279 234.426 251.33 198.836 311.562L316.226 379.337C339.914 339.708 373.345 306.764 413.368 283.656C454.577 259.864 501.323 247.338 548.908 247.338C596.493 247.338 643.239 259.864 684.448 283.656C724.471 306.764 757.902 339.708 781.59 379.337L898.98 311.562ZM902.538 309.508C866.586 248.652 815.524 198.082 754.272 162.718C691.833 126.669 621.006 107.691 548.908 107.691C476.81 107.691 405.983 126.669 343.544 162.718C282.292 198.082 231.23 248.652 195.279 309.508C194.594 310.668 193.914 311.831 193.24 312.998C193.229 313.017 193.218 313.036 193.207 313.055L317.702 384.932C341.134 344.347 374.836 310.645 415.421 287.213C456.006 263.782 502.044 251.446 548.908 251.446C595.772 251.446 641.81 263.782 682.395 287.213C722.98 310.645 756.682 344.347 780.114 384.932L904.609 313.055C903.924 311.869 903.234 310.687 902.538 309.508Z" fill="#333333"/>
<path d="M548.908 169.3C678.131 169.3 790.957 239.508 851.321 343.86" stroke="black" stroke-width="2" stroke-dasharray="10 10"/>
<path d="M851.478 343.175L1006.01 610.833" stroke="black" stroke-width="2" stroke-dasharray="10 10"/>
<path d="M283.129 362.342L128.596 630" stroke="#FF0000" stroke-width="2" stroke-dasharray="10 10"/>
<path d="M814.512 362.342L969.044 630" stroke="#FF0000" stroke-width="2" stroke-dasharray="10 10"/>
<path d="M282.073 364.396C335.336 272.321 434.887 210.373 548.908 210.373C662.928 210.373 762.48 272.321 815.743 364.396" stroke="#FF0000" stroke-width="2" stroke-dasharray="10 10"/>
<path d="M247.532 343.175L93 610.833" stroke="black" stroke-width="2"/>
<path d="M548.908 169.3C419.685 169.3 306.859 239.508 246.495 343.86" stroke="black" stroke-width="3"/>
<path d="M247.532 343.175L93 610.833" stroke="black" stroke-width="3"/>
<path d="M69.2202 416.273C72.1179 416.273 74.027 414.5 74.3679 412.182H72.3565C71.9815 413.614 70.7884 414.466 69.2202 414.466C66.8338 414.466 65.2997 412.489 65.2997 409.455C65.2997 406.489 66.8679 404.545 69.2202 404.545C70.9929 404.545 72.0497 405.636 72.3565 406.83H74.3679C74.027 404.375 71.9474 402.739 69.1861 402.739C65.6406 402.739 63.2884 405.534 63.2884 409.523C63.2884 413.443 65.5384 416.273 69.2202 416.273ZM79.3196 398.545H77.3082V416H79.3196V398.545ZM88.3217 416.273C91.8672 416.273 94.2536 413.58 94.2536 409.523C94.2536 405.432 91.8672 402.739 88.3217 402.739C84.7763 402.739 82.3899 405.432 82.3899 409.523C82.3899 413.58 84.7763 416.273 88.3217 416.273ZM88.3217 414.466C85.6286 414.466 84.4013 412.148 84.4013 409.523C84.4013 406.898 85.6286 404.545 88.3217 404.545C91.0149 404.545 92.2422 406.898 92.2422 409.523C92.2422 412.148 91.0149 414.466 88.3217 414.466ZM106.597 405.841C105.966 403.983 104.551 402.739 101.96 402.739C99.1989 402.739 97.1534 404.307 97.1534 406.523C97.1534 408.33 98.2273 409.54 100.631 410.102L102.813 410.614C104.134 410.92 104.756 411.551 104.756 412.455C104.756 413.58 103.563 414.5 101.688 414.5C100.043 414.5 99.0114 413.793 98.6534 412.386L96.7443 412.864C97.2131 415.088 99.0455 416.273 101.722 416.273C104.764 416.273 106.835 414.611 106.835 412.352C106.835 410.528 105.693 409.378 103.358 408.807L101.415 408.33C99.8636 407.946 99.1648 407.426 99.1648 406.42C99.1648 405.295 100.358 404.477 101.96 404.477C103.716 404.477 104.44 405.449 104.79 406.352L106.597 405.841ZM115.352 416.273C118.011 416.273 119.954 414.943 120.567 412.966L118.624 412.42C118.113 413.784 116.928 414.466 115.352 414.466C112.991 414.466 111.363 412.94 111.269 410.136H120.772V409.284C120.772 404.409 117.874 402.739 115.147 402.739C111.602 402.739 109.249 405.534 109.249 409.557C109.249 413.58 111.567 416.273 115.352 416.273ZM111.269 408.398C111.406 406.361 112.846 404.545 115.147 404.545C117.329 404.545 118.727 406.182 118.727 408.398H111.269ZM128.775 416.273C131.298 416.273 132.15 414.705 132.593 413.989H132.832V416H134.775V398.545H132.763V404.989H132.593C132.15 404.307 131.366 402.739 128.809 402.739C125.502 402.739 123.218 405.364 123.218 409.489C123.218 413.648 125.502 416.273 128.775 416.273ZM129.048 414.466C126.525 414.466 125.229 412.25 125.229 409.455C125.229 406.693 126.491 404.545 129.048 404.545C131.502 404.545 132.798 406.523 132.798 409.455C132.798 412.42 131.468 414.466 129.048 414.466ZM150.806 416.273C154.352 416.273 156.738 413.58 156.738 409.523C156.738 405.432 154.352 402.739 150.806 402.739C147.261 402.739 144.874 405.432 144.874 409.523C144.874 413.58 147.261 416.273 150.806 416.273ZM150.806 414.466C148.113 414.466 146.886 412.148 146.886 409.523C146.886 406.898 148.113 404.545 150.806 404.545C153.499 404.545 154.727 406.898 154.727 409.523C154.727 412.148 153.499 414.466 150.806 414.466ZM159.808 416H161.82V407.716C161.82 405.943 163.217 404.648 165.126 404.648C165.663 404.648 166.217 404.75 166.354 404.784V402.739C166.124 402.722 165.595 402.705 165.297 402.705C163.729 402.705 162.365 403.591 161.888 404.886H161.751V402.909H159.808V416ZM169.011 416H170.954V413.989H171.192C171.636 414.705 172.488 416.273 175.011 416.273C178.283 416.273 180.567 413.648 180.567 409.489C180.567 405.364 178.283 402.739 174.977 402.739C172.42 402.739 171.636 404.307 171.192 404.989H171.022V398.545H169.011V416ZM170.988 409.455C170.988 406.523 172.283 404.545 174.738 404.545C177.295 404.545 178.556 406.693 178.556 409.455C178.556 412.25 177.261 414.466 174.738 414.466C172.317 414.466 170.988 412.42 170.988 409.455ZM183.644 416H185.656V402.909H183.644V416ZM184.667 400.727C185.451 400.727 186.099 400.114 186.099 399.364C186.099 398.614 185.451 398 184.667 398C183.883 398 183.235 398.614 183.235 399.364C183.235 400.114 183.883 400.727 184.667 400.727ZM195.033 402.909H192.237V399.773H190.226V402.909H188.249V404.614H190.226V412.795C190.226 415.08 192.067 416.17 193.771 416.17C194.521 416.17 194.999 416.034 195.271 415.932L194.862 414.125C194.692 414.159 194.419 414.227 193.976 414.227C193.089 414.227 192.237 413.955 192.237 412.25V404.614H195.033V402.909ZM96.4098 449.909H98.4212V442.989H98.5916C99.0348 443.705 99.8871 445.273 102.41 445.273C105.683 445.273 107.967 442.648 107.967 438.489C107.967 434.364 105.683 431.739 102.376 431.739C99.8189 431.739 99.0348 433.307 98.5916 433.989H98.353V431.909H96.4098V449.909ZM98.3871 438.455C98.3871 435.523 99.6825 433.545 102.137 433.545C104.694 433.545 105.955 435.693 105.955 438.455C105.955 441.25 104.66 443.466 102.137 443.466C99.7166 443.466 98.3871 441.42 98.3871 438.455ZM118.603 441.625H129.103V439.784H118.603V441.625ZM118.603 436.58H129.103V434.739H118.603V436.58ZM140.355 449.909H142.366V442.989H142.537C142.98 443.705 143.832 445.273 146.355 445.273C149.628 445.273 151.912 442.648 151.912 438.489C151.912 434.364 149.628 431.739 146.321 431.739C143.764 431.739 142.98 433.307 142.537 433.989H142.298V431.909H140.355V449.909ZM142.332 438.455C142.332 435.523 143.628 433.545 146.082 433.545C148.639 433.545 149.901 435.693 149.901 438.455C149.901 441.25 148.605 443.466 146.082 443.466C143.662 443.466 142.332 441.42 142.332 438.455ZM158.423 448.205C161.116 448.205 162.787 446.193 162.787 442.784C162.787 439.375 161.116 437.398 158.423 437.398C155.696 437.398 154.06 439.409 154.06 442.784C154.06 446.159 155.696 448.205 158.423 448.205ZM158.423 446.67C156.889 446.67 155.935 445.307 155.935 442.784C155.935 440.227 156.923 438.898 158.423 438.898C159.923 438.898 160.912 440.227 160.912 442.784C160.912 445.341 159.923 446.67 158.423 446.67Z" fill="black"/>
<path d="M188.22 589.273C191.118 589.273 193.027 587.5 193.368 585.182H191.357C190.982 586.614 189.788 587.466 188.22 587.466C185.834 587.466 184.3 585.489 184.3 582.455C184.3 579.489 185.868 577.545 188.22 577.545C189.993 577.545 191.05 578.636 191.357 579.83H193.368C193.027 577.375 190.947 575.739 188.186 575.739C184.641 575.739 182.288 578.534 182.288 582.523C182.288 586.443 184.538 589.273 188.22 589.273ZM198.32 571.545H196.308V589H198.32V571.545ZM207.322 589.273C210.867 589.273 213.254 586.58 213.254 582.523C213.254 578.432 210.867 575.739 207.322 575.739C203.776 575.739 201.39 578.432 201.39 582.523C201.39 586.58 203.776 589.273 207.322 589.273ZM207.322 587.466C204.629 587.466 203.401 585.148 203.401 582.523C203.401 579.898 204.629 577.545 207.322 577.545C210.015 577.545 211.242 579.898 211.242 582.523C211.242 585.148 210.015 587.466 207.322 587.466ZM225.597 578.841C224.966 576.983 223.551 575.739 220.96 575.739C218.199 575.739 216.153 577.307 216.153 579.523C216.153 581.33 217.227 582.54 219.631 583.102L221.813 583.614C223.134 583.92 223.756 584.551 223.756 585.455C223.756 586.58 222.563 587.5 220.688 587.5C219.043 587.5 218.011 586.793 217.653 585.386L215.744 585.864C216.213 588.088 218.045 589.273 220.722 589.273C223.764 589.273 225.835 587.611 225.835 585.352C225.835 583.528 224.693 582.378 222.358 581.807L220.415 581.33C218.864 580.946 218.165 580.426 218.165 579.42C218.165 578.295 219.358 577.477 220.96 577.477C222.716 577.477 223.44 578.449 223.79 579.352L225.597 578.841ZM234.352 589.273C237.011 589.273 238.954 587.943 239.567 585.966L237.624 585.42C237.113 586.784 235.928 587.466 234.352 587.466C231.991 587.466 230.363 585.94 230.269 583.136H239.772V582.284C239.772 577.409 236.874 575.739 234.147 575.739C230.602 575.739 228.249 578.534 228.249 582.557C228.249 586.58 230.567 589.273 234.352 589.273ZM230.269 581.398C230.406 579.361 231.846 577.545 234.147 577.545C236.329 577.545 237.727 579.182 237.727 581.398H230.269ZM247.775 589.273C250.298 589.273 251.15 587.705 251.593 586.989H251.832V589H253.775V571.545H251.763V577.989H251.593C251.15 577.307 250.366 575.739 247.809 575.739C244.502 575.739 242.218 578.364 242.218 582.489C242.218 586.648 244.502 589.273 247.775 589.273ZM248.048 587.466C245.525 587.466 244.229 585.25 244.229 582.455C244.229 579.693 245.491 577.545 248.048 577.545C250.502 577.545 251.798 579.523 251.798 582.455C251.798 585.42 250.468 587.466 248.048 587.466ZM269.806 589.273C273.352 589.273 275.738 586.58 275.738 582.523C275.738 578.432 273.352 575.739 269.806 575.739C266.261 575.739 263.874 578.432 263.874 582.523C263.874 586.58 266.261 589.273 269.806 589.273ZM269.806 587.466C267.113 587.466 265.886 585.148 265.886 582.523C265.886 579.898 267.113 577.545 269.806 577.545C272.499 577.545 273.727 579.898 273.727 582.523C273.727 585.148 272.499 587.466 269.806 587.466ZM278.808 589H280.82V580.716C280.82 578.943 282.217 577.648 284.126 577.648C284.663 577.648 285.217 577.75 285.354 577.784V575.739C285.124 575.722 284.595 575.705 284.297 575.705C282.729 575.705 281.365 576.591 280.888 577.886H280.751V575.909H278.808V589ZM288.011 589H289.954V586.989H290.192C290.636 587.705 291.488 589.273 294.011 589.273C297.283 589.273 299.567 586.648 299.567 582.489C299.567 578.364 297.283 575.739 293.977 575.739C291.42 575.739 290.636 577.307 290.192 577.989H290.022V571.545H288.011V589ZM289.988 582.455C289.988 579.523 291.283 577.545 293.738 577.545C296.295 577.545 297.556 579.693 297.556 582.455C297.556 585.25 296.261 587.466 293.738 587.466C291.317 587.466 289.988 585.42 289.988 582.455ZM302.644 589H304.656V575.909H302.644V589ZM303.667 573.727C304.451 573.727 305.099 573.114 305.099 572.364C305.099 571.614 304.451 571 303.667 571C302.883 571 302.235 571.614 302.235 572.364C302.235 573.114 302.883 573.727 303.667 573.727ZM314.033 575.909H311.237V572.773H309.226V575.909H307.249V577.614H309.226V585.795C309.226 588.08 311.067 589.17 312.771 589.17C313.521 589.17 313.999 589.034 314.271 588.932L313.862 587.125C313.692 587.159 313.419 587.227 312.976 587.227C312.089 587.227 311.237 586.955 311.237 585.25V577.614H314.033V575.909ZM215.41 622.909H217.421V615.989H217.592C218.035 616.705 218.887 618.273 221.41 618.273C224.683 618.273 226.967 615.648 226.967 611.489C226.967 607.364 224.683 604.739 221.376 604.739C218.819 604.739 218.035 606.307 217.592 606.989H217.353V604.909H215.41V622.909ZM217.387 611.455C217.387 608.523 218.683 606.545 221.137 606.545C223.694 606.545 224.955 608.693 224.955 611.455C224.955 614.25 223.66 616.466 221.137 616.466C218.717 616.466 217.387 614.42 217.387 611.455ZM237.364 611.864L248.342 617.455V615.273L239.989 611.25V611.114L248.342 607.091V604.909L237.364 610.5V611.864ZM259.355 622.909H261.366V615.989H261.537C261.98 616.705 262.832 618.273 265.355 618.273C268.628 618.273 270.912 615.648 270.912 611.489C270.912 607.364 268.628 604.739 265.321 604.739C262.764 604.739 261.98 606.307 261.537 606.989H261.298V604.909H259.355V622.909ZM261.332 611.455C261.332 608.523 262.628 606.545 265.082 606.545C267.639 606.545 268.901 608.693 268.901 611.455C268.901 614.25 267.605 616.466 265.082 616.466C262.662 616.466 261.332 614.42 261.332 611.455ZM277.423 621.205C280.116 621.205 281.787 619.193 281.787 615.784C281.787 612.375 280.116 610.398 277.423 610.398C274.696 610.398 273.06 612.409 273.06 615.784C273.06 619.159 274.696 621.205 277.423 621.205ZM277.423 619.67C275.889 619.67 274.935 618.307 274.935 615.784C274.935 613.227 275.923 611.898 277.423 611.898C278.923 611.898 279.912 613.227 279.912 615.784C279.912 618.341 278.923 619.67 277.423 619.67Z" fill="#FF0000"/>
<rect x="877.049" y="525.237" width="140.376" height="24.794" transform="rotate(-30 877.049 525.237)" stroke="black" stroke-width="3"/>
<rect x="833.049" y="451.237" width="140.376" height="24.794" transform="rotate(-30 833.049 451.237)" stroke="black" stroke-width="3"/>
<path d="M548.908 169.534C653.237 169.621 754.677 223.802 810.593 320.651C817.422 332.479 823.36 344.576 828.428 356.866" stroke="#FF0000" stroke-width="3"/>
<path d="M946 609.5L952.502 593.446L935.348 595.842L946 609.5ZM854.679 438.5L856.115 438.067L856.11 438.052L856.105 438.037L854.679 438.5ZM871 458L871.896 456.797L871.726 456.67L871.526 456.595L871 458ZM924 497.5L923.103 498.703L923.153 498.739L923.205 498.772L924 497.5ZM933.5 520L932.012 520.186L932.013 520.197L932.014 520.207L933.5 520ZM856.105 438.037L829.63 356.403L826.776 357.329L853.252 438.963L856.105 438.037ZM871.526 456.595C867.727 455.171 864.702 453.18 862.226 450.277C859.736 447.357 857.737 443.439 856.115 438.067L853.243 438.934C854.942 444.561 857.103 448.892 859.943 452.223C862.798 455.57 866.272 457.829 870.473 459.404L871.526 456.595ZM924.896 496.297L871.896 456.797L870.103 459.203L923.103 498.703L924.896 496.297ZM945.618 595.922L934.986 519.792L932.014 520.207L942.647 596.337L945.618 595.922ZM934.988 519.814C934.5 515.903 934.108 511.342 932.807 507.177C931.486 502.951 929.188 498.973 924.795 496.228L923.205 498.772C926.812 501.026 928.764 504.299 929.943 508.072C931.142 511.908 931.5 516.097 932.012 520.186L934.988 519.814Z" fill="#FF0000"/>
<path d="M550 169.811L562.927 169.854C565.284 175.807 568.108 181.373 579.152 181.373" stroke="black" stroke-width="3"/>
<path d="M579.152 181.373C603.947 181.373 589.703 155.655 613.443 155.655" stroke="black" stroke-width="3"/>
<path d="M613.442 155.655C638.237 155.655 623.993 181.373 647.733 181.373" stroke="black" stroke-width="3"/>
<path d="M647.733 181.373C672.528 181.373 658.284 155.655 682.024 155.655" stroke="black" stroke-width="3"/>
<path d="M682.024 155.655C706.819 155.655 692.575 181.373 716.314 181.373" stroke="black" stroke-width="3"/>
<path d="M716.314 181.373C741.109 181.373 726.865 155.655 750.605 155.655" stroke="black" stroke-width="3"/>
<path d="M750.605 155.655C775.399 155.655 761.156 181.373 784.895 181.373" stroke="black" stroke-width="3"/>
<path d="M784.895 181.373C797.73 181.373 800.105 174.482 802.702 167.834H814.693" stroke="black" stroke-width="3"/>
<path d="M832.033 167.442L814.233 182.001L814.233 152.883L832.033 167.442Z" fill="black"/>
<path d="M787.656 149.909H790.741L791.901 142.938H792.045C792.369 143.892 793.153 145.23 795.403 145.23C798.489 145.23 801.216 142.784 801.923 138.472C802.648 134.108 800.67 131.739 797.645 131.739C795.335 131.739 794.134 133.128 793.52 134.074H793.332L793.69 131.909H790.656L787.656 149.909ZM792.591 138.455C793 135.915 794.372 134.27 796.366 134.27C798.42 134.27 799.17 136.017 798.778 138.455C798.361 140.909 797.006 142.699 794.977 142.699C793.009 142.699 792.182 140.994 792.591 138.455ZM807.838 137.33C808.17 135.438 809.526 134.347 811.179 134.347C812.781 134.347 813.565 135.378 813.284 137.142L811.972 145H815.065L816.463 136.665C816.974 133.494 815.474 131.739 812.773 131.739C810.744 131.739 809.304 132.642 808.477 134.134H808.315L809.406 127.545H806.381L803.483 145H806.577L807.838 137.33ZM823.955 145.256C827.739 145.256 830.585 142.597 831.25 138.591C831.915 134.483 829.903 131.739 826.034 131.739C822.241 131.739 819.395 134.406 818.739 138.429C818.074 142.511 820.077 145.256 823.955 145.256ZM824.202 142.784C822.131 142.784 821.449 140.935 821.832 138.574C822.224 136.136 823.639 134.185 825.787 134.185C827.849 134.185 828.54 136.06 828.156 138.412C827.764 140.858 826.349 142.784 824.202 142.784ZM841.513 131.909H838.923L839.442 128.773H836.357L835.837 131.909H833.988L833.596 134.295H835.445L834.244 141.574C833.817 144.028 835.386 145.239 837.729 145.179C838.599 145.153 839.238 144.983 839.613 144.872L839.477 142.46C839.289 142.494 838.931 142.58 838.556 142.58C837.781 142.58 837.201 142.307 837.397 141.063L838.522 134.295H841.113L841.513 131.909ZM847.533 145.256C851.317 145.256 854.163 142.597 854.828 138.591C855.493 134.483 853.482 131.739 849.612 131.739C845.82 131.739 842.973 134.406 842.317 138.429C841.652 142.511 843.655 145.256 847.533 145.256ZM847.78 142.784C845.709 142.784 845.027 140.935 845.411 138.574C845.803 136.136 847.217 134.185 849.365 134.185C851.428 134.185 852.118 136.06 851.734 138.412C851.342 140.858 849.928 142.784 847.78 142.784ZM860.736 137.33C861.069 135.438 862.39 134.347 864.009 134.347C865.62 134.347 866.387 135.403 866.097 137.142L864.793 145H867.879L869.276 136.665C869.796 133.52 868.288 131.739 865.611 131.739C863.651 131.739 862.126 132.668 861.308 134.134H861.146L861.521 131.909H858.563L856.381 145H859.475L860.736 137.33Z" fill="black"/>
<circle cx="549.215" cy="169.215" r="8.21456" fill="#2D9CDB"/>
</svg>
