<svg width="1100" height="560" viewBox="0 0 1100 560" fill="none" xmlns="http://www.w3.org/2000/svg">
<path d="M36.5 474L36.5 475.5L39.5 475.5L39.5 474L36.5 474ZM38 30L29.3398 45L46.6603 45L38 30ZM39.5 474L39.5 43.5L36.5 43.5L36.5 474L39.5 474Z" fill="black"/>
<path d="M38 472.5H36.5V475.5H38V472.5ZM514 474L499 465.34V482.66L514 474ZM38 475.5H500.5V472.5H38V475.5Z" fill="black"/>
<path d="M39 351C108.025 237.052 295.059 77.5244 491 351" stroke="#999999" stroke-width="3" stroke-dasharray="10 10"/>
<path d="M167 286L172.774 276H161.226L167 286ZM167 223H168V222H167V223ZM65 223L75 228.774V217.227L65 223ZM168 277V223H166V277H168ZM167 222H74V224H167V222Z" fill="black"/>
<path d="M164.518 227.345L165.373 226.827L164.337 225.117L163.482 225.635L164.518 227.345ZM65 286.49L76.5444 286.245L70.5596 276.37L65 286.49ZM163.482 225.635L72.1785 280.97L73.2151 282.681L164.518 227.345L163.482 225.635Z" fill="black"/>
<circle cx="167" cy="224" r="6" fill="#2D9CDB"/>
<path d="M170.954 219.98L175.598 216.888C177.56 218.443 179.604 219.776 183.344 217.616" stroke="black" stroke-width="2"/>
<path d="M183.344 217.616C191.74 212.769 181.889 206.845 189.928 202.203" stroke="black" stroke-width="2"/>
<path d="M189.928 202.203C198.324 197.356 198.529 208.849 206.568 204.208" stroke="black" stroke-width="2"/>
<path d="M206.568 204.208C214.964 199.361 205.113 193.436 213.152 188.795" stroke="black" stroke-width="2"/>
<path d="M213.152 188.795C221.548 183.948 221.753 195.441 229.792 190.8" stroke="black" stroke-width="2"/>
<path d="M229.792 190.8C238.188 185.952 228.336 180.028 236.375 175.387" stroke="black" stroke-width="2"/>
<path d="M236.375 175.387C244.772 170.539 244.976 182.033 253.015 177.392" stroke="black" stroke-width="2"/>
<path d="M253.015 177.392C257.362 174.882 256.818 172.085 256.398 169.326L261.051 166.232" stroke="black" stroke-width="2"/>
<path d="M266.713 162.693L263.532 171.103L257.839 161.243L266.713 162.693Z" fill="black"/>
<path d="M51.7923 258H66.7923L63.2809 240.545H61.0991L51.7923 258ZM54.9968 256.125L61.6786 243.307H61.815L64.2013 256.125H54.9968ZM68.4201 262.909H70.4315L71.5906 255.989H71.761C72.1019 256.705 72.6815 258.273 75.2042 258.273C78.4769 258.273 81.2042 255.648 81.886 251.489C82.5678 247.364 80.7269 244.739 77.4201 244.739C74.8633 244.739 73.8065 246.307 73.261 246.989H73.0224L73.3633 244.909H71.4201L68.4201 262.909ZM72.3065 251.455C72.7837 248.523 74.4201 246.545 76.8746 246.545C79.4315 246.545 80.3178 248.693 79.8746 251.455C79.3974 254.25 77.761 256.466 75.2383 256.466C72.8178 256.466 71.8292 254.42 72.3065 251.455ZM82.1246 264.273H83.9315L84.7496 259.398H84.8178C85.0224 260.216 85.636 261.17 87.1019 261.17C89.1815 261.17 90.9201 259.466 91.3974 256.568C91.8065 254.148 90.8519 252.17 88.6019 252.17C87.2042 252.17 86.2156 253.057 85.7383 253.943H85.636L85.9087 252.273H84.136L82.1246 264.273ZM85.1928 256.568C85.4656 254.864 86.4883 253.636 87.8519 253.636C89.2837 253.636 89.8292 254.898 89.5224 256.705C89.2496 258.409 88.1928 259.67 86.8292 259.67C85.4315 259.67 84.886 258.443 85.1928 256.568ZM95.2539 255.75C95.4585 254.489 96.4471 253.705 97.5721 253.705C98.6971 253.705 99.3107 254.455 99.1062 255.682L98.2198 261H100.027L100.981 255.375C101.322 253.398 100.265 252.17 98.4925 252.17C97.1971 252.17 96.1744 252.784 95.6289 253.773H95.5266L96.2766 249.375H94.5039L92.5607 261H94.3675L95.2539 255.75Z" fill="black"/>
<path d="M192.969 196.556L194.556 195.708L193.235 191.802L193.31 191.762C193.739 192.164 194.51 192.637 195.668 192.019C197.255 191.17 197.986 189.162 197.164 186.749C196.337 184.305 194.668 183.629 193.112 184.461C191.923 185.096 191.687 186.141 191.632 186.797L191.535 186.848L191.124 185.636L189.563 186.47L192.969 196.556ZM192.358 189.306C191.87 187.887 192.124 186.663 193.15 186.115C194.207 185.55 195.073 186.243 195.541 187.605C196.001 188.982 195.796 190.276 194.753 190.833C193.74 191.375 192.846 190.725 192.358 189.306ZM199.893 184.535C199.544 183.47 199.941 182.537 200.792 182.082C201.616 181.641 202.303 181.956 202.643 182.941L204.129 187.345L205.72 186.494L204.148 181.822C203.539 180.05 202.285 179.559 200.895 180.302C199.851 180.86 199.358 181.72 199.343 182.715L199.26 182.76L198.01 179.07L196.453 179.902L199.761 189.679L201.353 188.828L199.893 184.535ZM210.364 184.182C212.311 183.141 213.044 180.991 212.285 178.747C211.497 176.451 209.708 175.592 207.717 176.656C205.766 177.699 205.035 179.854 205.803 182.104C206.584 184.387 208.369 185.248 210.364 184.182ZM209.811 182.842C208.746 183.412 207.887 182.648 207.435 181.328C206.966 179.966 207.158 178.573 208.263 177.982C209.324 177.415 210.194 178.19 210.644 179.506C211.115 180.872 210.916 182.252 209.811 182.842ZM215.728 172.488L214.395 173.2L213.8 171.444L212.213 172.292L212.808 174.048L211.856 174.557L212.311 175.892L213.262 175.384L214.645 179.459C215.101 180.839 216.24 181.03 217.429 180.355C217.87 180.103 218.152 179.84 218.314 179.679L217.581 178.476C217.494 178.545 217.333 178.687 217.14 178.79C216.741 179.004 216.368 179.023 216.127 178.329L214.845 174.538L216.178 173.826L215.728 172.488ZM222.494 177.699C224.441 176.659 225.174 174.508 224.415 172.265C223.628 169.968 221.838 169.11 219.848 170.173C217.896 171.216 217.165 173.371 217.934 175.621C218.714 177.904 220.499 178.765 222.494 177.699ZM221.942 176.36C220.876 176.929 220.017 176.165 219.565 174.845C219.097 173.483 219.288 172.09 220.393 171.5C221.454 170.933 222.325 171.707 222.774 173.023C223.245 174.389 223.047 175.769 221.942 176.36ZM227.108 169.991C226.759 168.926 227.138 168.002 227.972 167.557C228.8 167.114 229.485 167.447 229.814 168.421L231.304 172.822L232.891 171.974L231.319 167.301C230.722 165.54 229.456 165.039 228.079 165.774C227.07 166.313 226.541 167.211 226.523 168.19L226.44 168.234L226.021 166.987L224.5 167.8L226.976 175.135L228.568 174.284L227.108 169.991Z" fill="black"/>
<path d="M108.119 212.909H110.131L111.29 205.989H111.46C111.801 206.705 112.381 208.273 114.903 208.273C118.176 208.273 120.903 205.648 121.585 201.489C122.267 197.364 120.426 194.739 117.119 194.739C114.562 194.739 113.506 196.307 112.96 196.989H112.722L113.062 194.909H111.119L108.119 212.909ZM112.006 201.455C112.483 198.523 114.119 196.545 116.574 196.545C119.131 196.545 120.017 198.693 119.574 201.455C119.097 204.25 117.46 206.466 114.938 206.466C112.517 206.466 111.528 204.42 112.006 201.455Z" fill="black"/>
<path d="M124 206V218" stroke="black" stroke-width="2"/>
<path d="M129 206V218" stroke="black" stroke-width="2"/>
<path d="M173.119 258.909H175.131L176.29 251.989H176.46C176.801 252.705 177.381 254.273 179.903 254.273C183.176 254.273 185.903 251.648 186.585 247.489C187.267 243.364 185.426 240.739 182.119 240.739C179.562 240.739 178.506 242.307 177.96 242.989H177.722L178.062 240.909H176.119L173.119 258.909ZM177.006 247.455C177.483 244.523 179.119 242.545 181.574 242.545C184.131 242.545 185.017 244.693 184.574 247.455C184.097 250.25 182.46 252.466 179.938 252.466C177.517 252.466 176.528 250.42 177.006 247.455Z" fill="black"/>
<path d="M190 251V263" stroke="black" stroke-width="2"/>
<path d="M184 263H196" stroke="black" stroke-width="2"/>
<path d="M584.5 474L584.5 475.5L587.5 475.5L587.5 474L584.5 474ZM586 30L577.34 45L594.66 45L586 30ZM587.5 474L587.5 43.5L584.5 43.5L584.5 474L587.5 474Z" fill="black"/>
<path d="M586 472.5H584.5V475.5H586V472.5ZM1062 474L1047 465.34V482.66L1062 474ZM586 475.5H1048.5V472.5H586V475.5Z" fill="black"/>
<path d="M587 351C656.025 237.052 843.059 77.5244 1039 351" stroke="#999999" stroke-width="3" stroke-dasharray="10 10"/>
<path d="M715 161.5L709.226 171.5H720.774L715 161.5ZM715 223.49H714V224.49H715V223.49ZM814 223.49L804 217.717V229.264L814 223.49ZM714 170.5V223.49H716V170.5H714ZM715 224.49H805V222.49H715V224.49Z" fill="black"/>
<circle cx="715" cy="224" r="6" fill="#2D9CDB"/>
<path d="M720.932 251.909H722.943L724.102 244.989H724.273C724.614 245.705 725.193 247.273 727.716 247.273C730.989 247.273 733.716 244.648 734.398 240.489C735.08 236.364 733.239 233.739 729.932 233.739C727.375 233.739 726.318 235.307 725.773 235.989H725.534L725.875 233.909H723.932L720.932 251.909ZM724.818 240.455C725.295 237.523 726.932 235.545 729.386 235.545C731.943 235.545 732.83 237.693 732.386 240.455C731.909 243.25 730.273 245.466 727.75 245.466C725.33 245.466 724.341 243.42 724.818 240.455ZM751.256 243.625H761.756L762.062 241.784H751.562L751.256 243.625ZM752.091 238.58H762.591L762.898 236.739H752.398L752.091 238.58Z" fill="black"/>
<path d="M737 243V255" stroke="black" stroke-width="2"/>
<path d="M742 243V255" stroke="black" stroke-width="2"/>
<path d="M688.119 203.909H690.131L691.29 196.989H691.46C691.801 197.705 692.381 199.273 694.903 199.273C698.176 199.273 700.903 196.648 701.585 192.489C702.267 188.364 700.426 185.739 697.119 185.739C694.562 185.739 693.506 187.307 692.96 187.989H692.722L693.062 185.909H691.119L688.119 203.909ZM692.006 192.455C692.483 189.523 694.119 187.545 696.574 187.545C699.131 187.545 700.017 189.693 699.574 192.455C699.097 195.25 697.46 197.466 694.938 197.466C692.517 197.466 691.528 195.42 692.006 192.455Z" fill="black"/>
<path d="M705 196V208" stroke="black" stroke-width="2"/>
<path d="M699 208H711" stroke="black" stroke-width="2"/>
<path d="M625 484.565C641.977 484.565 632.224 501 648.478 501" stroke="black" stroke-width="3"/>
<path d="M671.957 484.565C654.98 484.565 664.732 501 648.478 501" stroke="black" stroke-width="3"/>
<path d="M671.957 484.565C689.782 484.565 679.542 501 696.609 501" stroke="black" stroke-width="3"/>
<path d="M720.087 484.565C703.11 484.565 712.863 501 696.609 501" stroke="black" stroke-width="3"/>
<path d="M720.087 484.565C737.064 484.565 727.311 501 743.565 501" stroke="black" stroke-width="3"/>
<path d="M767.043 484.565C750.067 484.565 759.819 501 743.565 501" stroke="black" stroke-width="3"/>
<path d="M767.043 484.565C784.02 484.565 774.268 501 790.522 501" stroke="black" stroke-width="3"/>
<path d="M814 484.565C797.023 484.565 806.776 501 790.522 501" stroke="black" stroke-width="3"/>
<path d="M814 463.435C797.023 463.435 806.776 447 790.522 447" stroke="black" stroke-width="3"/>
<path d="M767.043 463.435C784.02 463.435 774.268 447 790.522 447" stroke="black" stroke-width="3"/>
<path d="M767.043 463.435C750.067 463.435 759.819 447 743.565 447" stroke="black" stroke-width="3"/>
<path d="M720.087 463.435C737.064 463.435 727.311 447 743.565 447" stroke="black" stroke-width="3"/>
<path d="M720.087 463.435C703.11 463.435 712.863 447 696.609 447" stroke="black" stroke-width="3"/>
<path d="M671.957 463.435C689.782 463.435 679.542 447 696.609 447" stroke="black" stroke-width="3"/>
<path d="M671.957 463.435C654.98 463.435 664.732 447 648.478 447" stroke="black" stroke-width="3"/>
<path d="M625 463.435C641.977 463.435 632.224 447 648.478 447" stroke="black" stroke-width="3"/>
<path d="M814 484.565C830.977 484.565 821.224 501 837.478 501" stroke="black" stroke-width="3"/>
<path d="M860.957 484.565C843.98 484.565 853.732 501 837.478 501" stroke="black" stroke-width="3"/>
<path d="M860.957 484.565C877.933 484.565 868.181 501 884.435 501" stroke="black" stroke-width="3"/>
<path d="M907.913 484.565C890.936 484.565 900.689 501 884.435 501" stroke="black" stroke-width="3"/>
<path d="M907.913 484.565C924.89 484.565 915.137 501 931.391 501" stroke="black" stroke-width="3"/>
<path d="M954.87 484.565C937.893 484.565 947.646 501 931.391 501" stroke="black" stroke-width="3"/>
<path d="M954.87 484.565C971.846 484.565 962.094 501 978.348 501" stroke="black" stroke-width="3"/>
<path d="M1003 484.565C985.175 484.565 995.415 501 978.348 501" stroke="black" stroke-width="3"/>
<path d="M1003 463.435C985.175 463.435 995.415 447 978.348 447" stroke="black" stroke-width="3"/>
<path d="M954.87 463.435C971.846 463.435 962.094 447 978.348 447" stroke="black" stroke-width="3"/>
<path d="M954.87 463.435C937.893 463.435 947.646 447 931.391 447" stroke="black" stroke-width="3"/>
<path d="M907.913 463.435C924.89 463.435 915.137 447 931.391 447" stroke="black" stroke-width="3"/>
<path d="M907.913 463.435C890.936 463.435 900.689 447 884.435 447" stroke="black" stroke-width="3"/>
<path d="M860.957 463.435C877.933 463.435 868.181 447 884.435 447" stroke="black" stroke-width="3"/>
<path d="M860.957 463.435C843.98 463.435 853.732 447 837.478 447" stroke="black" stroke-width="3"/>
<path d="M814 463.435C830.977 463.435 821.224 447 837.478 447" stroke="black" stroke-width="3"/>
<path d="M68.9137 38.6477C68.5046 41.1023 66.4592 42.2273 64.9592 42.2273C63.2887 42.2273 62.3001 41 62.6069 39.0909L63.9705 30.9091H61.9592L60.5614 39.2273C60.016 42.5682 61.516 44.1705 63.9705 44.1705C65.9478 44.1705 67.4478 43.1136 68.266 41.7841H68.4023L68.0273 44H70.0387L72.2205 30.9091H70.2092L68.9137 38.6477Z" fill="black"/>
<path d="M508.958 447.841C508.617 445.966 507.424 444.739 504.833 444.739C502.071 444.739 499.753 446.307 499.378 448.523C499.071 450.33 499.958 451.523 502.276 452.102L504.355 452.614C505.651 452.92 506.162 453.534 505.992 454.455C505.821 455.58 504.458 456.5 502.583 456.5C500.946 456.5 500.026 455.784 499.924 454.386L497.912 454.864C498.015 457.08 499.651 458.273 502.344 458.273C505.378 458.273 507.73 456.602 508.105 454.352C508.412 452.511 507.458 451.386 505.208 450.807L503.333 450.33C501.867 449.955 501.253 449.409 501.424 448.42C501.594 447.295 502.924 446.477 504.526 446.477C506.299 446.477 506.844 447.432 507.049 448.352L508.958 447.841Z" fill="black"/>
<path d="M613.914 38.6477C613.505 41.1023 611.459 42.2273 609.959 42.2273C608.289 42.2273 607.3 41 607.607 39.0909L608.971 30.9091H606.959L605.561 39.2273C605.016 42.5682 606.516 44.1705 608.971 44.1705C610.948 44.1705 612.448 43.1136 613.266 41.7841H613.402L613.027 44H615.039L617.221 30.9091H615.209L613.914 38.6477Z" fill="black"/>
<path d="M1056.96 446.841C1056.62 444.966 1055.42 443.739 1052.83 443.739C1050.07 443.739 1047.75 445.307 1047.38 447.523C1047.07 449.33 1047.96 450.523 1050.28 451.102L1052.36 451.614C1053.65 451.92 1054.16 452.534 1053.99 453.455C1053.82 454.58 1052.46 455.5 1050.58 455.5C1048.95 455.5 1048.03 454.784 1047.92 453.386L1045.91 453.864C1046.01 456.08 1047.65 457.273 1050.34 457.273C1053.38 457.273 1055.73 455.602 1056.11 453.352C1056.41 451.511 1055.46 450.386 1053.21 449.807L1051.33 449.33C1049.87 448.955 1049.25 448.409 1049.42 447.42C1049.59 446.295 1050.92 445.477 1052.53 445.477C1054.3 445.477 1054.84 446.432 1055.05 447.352L1056.96 446.841Z" fill="black"/>
<path d="M657.128 544H667.799L668.105 542.125H659.549L660.537 536.193H668.412L668.719 534.318H660.844L661.833 528.42H670.253L670.56 526.545H660.026L657.128 544ZM674.506 536.125C674.915 533.841 676.517 532.545 678.461 532.545C680.336 532.545 681.256 533.773 680.915 535.818L679.551 544H681.563L682.961 535.682C683.506 532.341 681.972 530.739 679.347 530.739C677.37 530.739 675.972 531.625 675.154 532.955H674.983L675.324 530.909H673.381L671.199 544H673.211L674.506 536.125ZM690.693 544.273C693.36 544.273 695.508 542.943 696.454 540.966L694.613 540.42C693.872 541.784 692.61 542.466 691 542.466C688.477 542.466 687.13 541.341 687.616 538.136H697.136L697.272 537.284C698.099 532.409 695.474 530.739 692.738 530.739C689.201 530.739 686.372 533.534 685.716 537.557C685.042 541.58 686.917 544.273 690.693 544.273ZM687.897 536.398C688.298 534.54 690.233 532.545 692.431 532.545C694.622 532.545 695.747 534.182 695.363 536.398H687.897ZM699.254 544H701.265L702.629 535.716C702.936 533.943 704.538 532.648 706.447 532.648C706.993 532.648 707.538 532.75 707.674 532.784L708.015 530.739C707.777 530.705 707.265 530.705 706.958 530.705C705.39 530.705 703.856 531.591 703.174 532.886H703.038L703.379 530.909H701.436L699.254 544ZM712.298 549.182C715.417 549.182 718.179 547.75 718.741 544.375L720.957 530.909H719.014L718.673 532.989H718.468C718.145 532.307 717.582 530.739 715.025 530.739C711.718 530.739 709 533.364 708.343 537.386C707.662 541.477 709.664 543.795 712.843 543.795C715.392 543.795 716.457 542.295 717.002 541.58H717.173L716.764 544.239C716.389 546.42 714.633 547.409 712.537 547.409C710.133 547.409 709.571 546.156 709.162 545.432L707.355 546.557C707.96 547.929 709.358 549.182 712.298 549.182ZM713.355 541.989C710.815 541.989 709.903 540.08 710.355 537.352C710.798 534.693 712.315 532.545 714.889 532.545C717.326 532.545 718.392 534.523 717.923 537.352C717.446 540.25 715.758 541.989 713.355 541.989ZM722.951 548.909C724.724 548.909 726.19 547.989 727.315 545.892L735.343 530.909H733.076L727.724 541.375H727.588L725.713 530.909H723.616L726.241 544L725.679 545.023C724.588 547.009 723.735 547.273 722.338 546.898L721.52 548.67C721.707 548.773 722.27 548.909 722.951 548.909ZM747.056 549.182C750.175 549.182 752.936 547.75 753.499 544.375L755.715 530.909H753.772L753.431 532.989H753.226C752.902 532.307 752.34 530.739 749.783 530.739C746.476 530.739 743.757 533.364 743.101 537.386C742.419 541.477 744.422 543.795 747.601 543.795C750.15 543.795 751.215 542.295 751.76 541.58H751.931L751.522 544.239C751.147 546.42 749.391 547.409 747.294 547.409C744.891 547.409 744.328 546.156 743.919 545.432L742.113 546.557C742.718 547.929 744.115 549.182 747.056 549.182ZM748.113 541.989C745.573 541.989 744.661 540.08 745.113 537.352C745.556 534.693 747.073 532.545 749.647 532.545C752.084 532.545 753.15 534.523 752.681 537.352C752.203 540.25 750.516 541.989 748.113 541.989ZM761.033 544.307C763.317 544.307 764.715 543.08 765.26 542.227H765.363L765.056 544H767.067L768.499 535.375C769.181 531.216 766.113 530.739 764.442 530.739C762.465 530.739 760.078 531.42 758.681 533.807L760.453 534.489C761.067 533.534 762.363 532.511 764.272 532.511C766.113 532.511 766.794 533.5 766.522 535.17V535.239C766.351 536.193 765.363 536.125 762.942 536.432C760.453 536.739 757.726 537.284 757.215 540.284C756.806 542.841 758.544 544.307 761.033 544.307ZM761.613 542.5C760.01 542.5 758.988 541.784 759.226 540.386C759.465 538.852 760.965 538.375 762.567 538.17C763.419 538.068 765.738 537.83 766.147 537.42L765.84 539.261C765.567 540.898 763.999 542.5 761.613 542.5ZM770.738 544H772.75L774.931 530.909H772.92L770.738 544ZM774.539 528.693C775.324 528.693 775.971 528.08 775.971 527.33C775.971 526.58 775.324 525.966 774.539 525.966C773.755 525.966 773.108 526.58 773.108 527.33C773.108 528.08 773.755 528.693 774.539 528.693ZM779.74 536.125C780.15 533.841 781.752 532.545 783.695 532.545C785.57 532.545 786.49 533.773 786.15 535.818L784.786 544H786.797L788.195 535.682C788.74 532.341 787.206 530.739 784.581 530.739C782.604 530.739 781.206 531.625 780.388 532.955H780.218L780.559 530.909H778.615L776.434 544H778.445L779.74 536.125ZM800.189 544H802.166L806.7 533.943H806.904L808.098 544H810.075L816.245 530.909H814.132L809.632 540.898H809.495L808.404 530.909H806.257L801.791 540.932H801.654L800.495 530.909H798.382L800.189 544ZM816.723 544H818.734L820.916 530.909H818.904L816.723 544ZM820.524 528.693C821.308 528.693 821.956 528.08 821.956 527.33C821.956 526.58 821.308 525.966 820.524 525.966C819.74 525.966 819.092 526.58 819.092 527.33C819.092 528.08 819.74 528.693 820.524 528.693ZM830.293 530.909H827.489L828.009 527.773H825.998L825.478 530.909H823.509L823.236 532.614H825.196L823.85 540.795C823.475 543.08 825.111 544.17 826.816 544.17C827.566 544.17 828.077 544.034 828.384 543.932L828.248 542.125C828.077 542.159 827.804 542.227 827.361 542.227C826.475 542.227 825.657 541.955 825.929 540.25L827.199 532.614H830.02L830.293 530.909ZM834.725 536.125C835.134 533.841 836.804 532.545 838.782 532.545C840.657 532.545 841.611 533.739 841.27 535.818L839.907 544H841.918L843.316 535.682C843.861 532.307 842.327 530.739 839.668 530.739C837.588 530.739 836.259 531.591 835.441 532.955H835.27L836.327 526.545H834.316L831.418 544H833.429L834.725 536.125ZM845.598 544H847.609L849.791 530.909H847.779L845.598 544ZM849.399 528.693C850.183 528.693 850.831 528.08 850.831 527.33C850.831 526.58 850.183 525.966 849.399 525.966C848.615 525.966 847.967 526.58 847.967 527.33C847.967 528.08 848.615 528.693 849.399 528.693ZM854.6 536.125C855.009 533.841 856.611 532.545 858.554 532.545C860.429 532.545 861.35 533.773 861.009 535.818L859.645 544H861.657L863.054 535.682C863.6 532.341 862.066 530.739 859.441 530.739C857.463 530.739 856.066 531.625 855.248 532.955H855.077L855.418 530.909H853.475L851.293 544H853.304L854.6 536.125ZM879.957 530.909H877.153L877.673 527.773H875.662L875.142 530.909H873.173L872.9 532.614H874.86L873.514 540.795C873.139 543.08 874.775 544.17 876.48 544.17C877.23 544.17 877.741 544.034 878.048 543.932L877.912 542.125C877.741 542.159 877.468 542.227 877.025 542.227C876.139 542.227 875.321 541.955 875.593 540.25L876.863 532.614H879.684L879.957 530.909ZM884.389 536.125C884.798 533.841 886.468 532.545 888.446 532.545C890.321 532.545 891.275 533.739 890.934 535.818L889.571 544H891.582L892.98 535.682C893.525 532.307 891.991 530.739 889.332 530.739C887.252 530.739 885.923 531.591 885.105 532.955H884.934L885.991 526.545H883.98L881.082 544H883.093L884.389 536.125ZM900.716 544.273C903.384 544.273 905.532 542.943 906.478 540.966L904.637 540.42C903.895 541.784 902.634 542.466 901.023 542.466C898.5 542.466 897.154 541.341 897.64 538.136H907.159L907.296 537.284C908.123 532.409 905.498 530.739 902.762 530.739C899.225 530.739 896.395 533.534 895.739 537.557C895.066 541.58 896.941 544.273 900.716 544.273ZM897.921 536.398C898.321 534.54 900.256 532.545 902.455 532.545C904.645 532.545 905.77 534.182 905.387 536.398H897.921ZM921.311 544.273C924.201 544.273 926.382 542.5 927.141 540.182H925.13C924.507 541.614 923.178 542.466 921.618 542.466C919.223 542.466 917.996 540.489 918.516 537.455C918.985 534.489 920.894 532.545 923.255 532.545C925.019 532.545 925.905 533.636 926.016 534.83H928.027C928.087 532.375 926.28 530.739 923.527 530.739C919.973 530.739 917.144 533.534 916.505 537.523C915.848 541.443 917.621 544.273 921.311 544.273ZM933.252 544.307C935.536 544.307 936.934 543.08 937.479 542.227H937.581L937.275 544H939.286L940.718 535.375C941.4 531.216 938.331 530.739 936.661 530.739C934.684 530.739 932.297 531.42 930.9 533.807L932.672 534.489C933.286 533.534 934.581 532.511 936.49 532.511C938.331 532.511 939.013 533.5 938.74 535.17V535.239C938.57 536.193 937.581 536.125 935.161 536.432C932.672 536.739 929.945 537.284 929.434 540.284C929.025 542.841 930.763 544.307 933.252 544.307ZM933.831 542.5C932.229 542.5 931.206 541.784 931.445 540.386C931.684 538.852 933.184 538.375 934.786 538.17C935.638 538.068 937.956 537.83 938.365 537.42L938.059 539.261C937.786 540.898 936.218 542.5 933.831 542.5ZM955.375 530.909H953.108L947.755 541.341H947.619L945.744 530.909H943.647L946.306 544H948.352L955.375 530.909ZM955.848 544H957.859L960.041 530.909H958.029L955.848 544ZM959.649 528.693C960.433 528.693 961.081 528.08 961.081 527.33C961.081 526.58 960.433 525.966 959.649 525.966C958.865 525.966 958.217 526.58 958.217 527.33C958.217 528.08 958.865 528.693 959.649 528.693ZM969.418 530.909H966.614L967.134 527.773H965.123L964.603 530.909H962.634L962.361 532.614H964.321L962.975 540.795C962.6 543.08 964.236 544.17 965.941 544.17C966.691 544.17 967.202 544.034 967.509 543.932L967.373 542.125C967.202 542.159 966.929 542.227 966.486 542.227C965.6 542.227 964.782 541.955 965.054 540.25L966.324 532.614H969.145L969.418 530.909ZM970.756 548.909C972.529 548.909 973.995 547.989 975.12 545.892L983.148 530.909H980.881L975.529 541.375H975.392L973.517 530.909H971.421L974.046 544L973.483 545.023C972.392 547.009 971.54 547.273 970.142 546.898L969.324 548.67C969.512 548.773 970.074 548.909 970.756 548.909Z" fill="black"/>
<path d="M69.3313 544H80.0018L80.3086 542.125H71.7518L72.7404 536.193H80.6154L80.9222 534.318H73.0472L74.0359 528.42H82.4563L82.7631 526.545H72.229L69.3313 544ZM86.7092 536.125C87.1183 533.841 88.7205 532.545 90.6637 532.545C92.5387 532.545 93.4592 533.773 93.1183 535.818L91.7546 544H93.766L95.1637 535.682C95.7092 532.341 94.1751 530.739 91.5501 530.739C89.5728 530.739 88.1751 531.625 87.3569 532.955H87.1864L87.5273 530.909H85.5842L83.4023 544H85.4137L86.7092 536.125ZM102.896 544.273C105.564 544.273 107.711 542.943 108.657 540.966L106.816 540.42C106.075 541.784 104.814 542.466 103.203 542.466C100.68 542.466 99.3335 541.341 99.8192 538.136H109.339L109.475 537.284C110.302 532.409 107.677 530.739 104.941 530.739C101.404 530.739 98.5749 533.534 97.9187 537.557C97.2454 541.58 99.1204 544.273 102.896 544.273ZM100.1 536.398C100.501 534.54 102.436 532.545 104.635 532.545C106.825 532.545 107.95 534.182 107.566 536.398H100.1ZM111.457 544H113.468L114.832 535.716C115.139 533.943 116.741 532.648 118.65 532.648C119.196 532.648 119.741 532.75 119.877 532.784L120.218 530.739C119.98 530.705 119.468 530.705 119.162 530.705C117.593 530.705 116.059 531.591 115.377 532.886H115.241L115.582 530.909H113.639L111.457 544ZM124.501 549.182C127.62 549.182 130.382 547.75 130.944 544.375L133.16 530.909H131.217L130.876 532.989H130.672C130.348 532.307 129.785 530.739 127.228 530.739C123.922 530.739 121.203 533.364 120.547 537.386C119.865 541.477 121.868 543.795 125.047 543.795C127.595 543.795 128.66 542.295 129.206 541.58H129.376L128.967 544.239C128.592 546.42 126.836 547.409 124.74 547.409C122.336 547.409 121.774 546.156 121.365 545.432L119.558 546.557C120.163 547.929 121.561 549.182 124.501 549.182ZM125.558 541.989C123.018 541.989 122.106 540.08 122.558 537.352C123.001 534.693 124.518 532.545 127.092 532.545C129.529 532.545 130.595 534.523 130.126 537.352C129.649 540.25 127.961 541.989 125.558 541.989ZM135.154 548.909C136.927 548.909 138.393 547.989 139.518 545.892L147.547 530.909H145.279L139.927 541.375H139.791L137.916 530.909H135.819L138.444 544L137.882 545.023C136.791 547.009 135.939 547.273 134.541 546.898L133.723 548.67C133.91 548.773 134.473 548.909 135.154 548.909ZM159.702 526.545H157.691L154.793 544H156.804L159.702 526.545ZM165.909 544.273C169.386 544.273 172.147 541.648 172.795 537.659C173.468 533.5 171.5 530.739 167.886 530.739C164.409 530.739 161.647 533.364 161 537.386C160.335 541.511 162.295 544.273 165.909 544.273ZM165.943 542.466C163.318 542.466 162.534 540.216 162.943 537.659C163.377 534.966 165.091 532.545 167.852 532.545C170.477 532.545 171.261 534.83 170.852 537.386C170.417 540.088 168.704 542.466 165.943 542.466ZM185.786 533.841C185.445 531.966 184.252 530.739 181.661 530.739C178.9 530.739 176.581 532.307 176.206 534.523C175.9 536.33 176.786 537.523 179.104 538.102L181.184 538.614C182.479 538.92 182.99 539.534 182.82 540.455C182.65 541.58 181.286 542.5 179.411 542.5C177.775 542.5 176.854 541.784 176.752 540.386L174.74 540.864C174.843 543.08 176.479 544.273 179.172 544.273C182.206 544.273 184.559 542.602 184.934 540.352C185.24 538.511 184.286 537.386 182.036 536.807L180.161 536.33C178.695 535.955 178.081 535.409 178.252 534.42C178.422 533.295 179.752 532.477 181.354 532.477C183.127 532.477 183.672 533.432 183.877 534.352L185.786 533.841ZM198.325 533.841C197.984 531.966 196.791 530.739 194.2 530.739C191.439 530.739 189.12 532.307 188.745 534.523C188.439 536.33 189.325 537.523 191.643 538.102L193.723 538.614C195.018 538.92 195.529 539.534 195.359 540.455C195.189 541.58 193.825 542.5 191.95 542.5C190.314 542.5 189.393 541.784 189.291 540.386L187.279 540.864C187.382 543.08 189.018 544.273 191.711 544.273C194.745 544.273 197.098 542.602 197.473 540.352C197.779 538.511 196.825 537.386 194.575 536.807L192.7 536.33C191.234 535.955 190.62 535.409 190.791 534.42C190.961 533.295 192.291 532.477 193.893 532.477C195.666 532.477 196.211 533.432 196.416 534.352L198.325 533.841ZM211.58 544.273C214.094 544.273 215.211 542.705 215.773 541.989H216.012L215.671 544H217.614L220.512 526.545H218.5L217.426 532.989H217.256C216.932 532.307 216.404 530.739 213.847 530.739C210.54 530.739 207.821 533.364 207.131 537.489C206.449 541.648 208.299 544.273 211.58 544.273ZM212.074 542.466C209.551 542.466 208.691 540.25 209.159 537.455C209.611 534.693 211.162 532.545 213.711 532.545C216.174 532.545 217.213 534.523 216.728 537.455C216.233 540.42 214.495 542.466 212.074 542.466ZM230.703 538.648C230.294 541.102 228.248 542.227 226.748 542.227C225.078 542.227 224.089 541 224.396 539.091L225.76 530.909H223.748L222.35 539.227C221.805 542.568 223.305 544.17 225.76 544.17C227.737 544.17 229.237 543.114 230.055 541.784H230.191L229.816 544H231.828L234.01 530.909H231.998L230.703 538.648ZM240.966 544.273C243.634 544.273 245.782 542.943 246.728 540.966L244.887 540.42C244.145 541.784 242.884 542.466 241.273 542.466C238.75 542.466 237.404 541.341 237.89 538.136H247.409L247.546 537.284C248.373 532.409 245.748 530.739 243.012 530.739C239.475 530.739 236.645 533.534 235.989 537.557C235.316 541.58 237.191 544.273 240.966 544.273ZM238.171 536.398C238.571 534.54 240.506 532.545 242.705 532.545C244.895 532.545 246.02 534.182 245.637 536.398H238.171ZM264.152 530.909H261.348L261.868 527.773H259.857L259.337 530.909H257.368L257.096 532.614H259.056L257.709 540.795C257.334 543.08 258.971 544.17 260.675 544.17C261.425 544.17 261.936 544.034 262.243 543.932L262.107 542.125C261.936 542.159 261.664 542.227 261.221 542.227C260.334 542.227 259.516 541.955 259.789 540.25L261.059 532.614H263.88L264.152 530.909ZM270.276 544.273C273.753 544.273 276.515 541.648 277.162 537.659C277.836 533.5 275.867 530.739 272.253 530.739C268.776 530.739 266.015 533.364 265.367 537.386C264.702 541.511 266.662 544.273 270.276 544.273ZM270.31 542.466C267.685 542.466 266.901 540.216 267.31 537.659C267.745 534.966 269.458 532.545 272.219 532.545C274.844 532.545 275.628 534.83 275.219 537.386C274.784 540.088 273.071 542.466 270.31 542.466ZM285.108 548.909H287.119L288.278 541.989H288.449C288.789 542.705 289.369 544.273 291.892 544.273C295.164 544.273 297.892 541.648 298.574 537.489C299.255 533.364 297.414 530.739 294.108 530.739C291.551 530.739 290.494 532.307 289.949 532.989H289.71L290.051 530.909H288.108L285.108 548.909ZM288.994 537.455C289.471 534.523 291.108 532.545 293.562 532.545C296.119 532.545 297.005 534.693 296.562 537.455C296.085 540.25 294.449 542.466 291.926 542.466C289.505 542.466 288.517 540.42 288.994 537.455ZM303.858 536.125C304.267 533.841 305.937 532.545 307.914 532.545C309.789 532.545 310.744 533.739 310.403 535.818L309.039 544H311.051L312.449 535.682C312.994 532.307 311.46 530.739 308.801 530.739C306.721 530.739 305.392 531.591 304.574 532.955H304.403L305.46 526.545H303.449L300.551 544H302.562L303.858 536.125ZM320.151 544.273C323.628 544.273 326.39 541.648 327.037 537.659C327.711 533.5 325.742 530.739 322.128 530.739C318.651 530.739 315.89 533.364 315.242 537.386C314.577 541.511 316.537 544.273 320.151 544.273ZM320.185 542.466C317.56 542.466 316.776 540.216 317.185 537.659C317.62 534.966 319.333 532.545 322.094 532.545C324.719 532.545 325.503 534.83 325.094 537.386C324.659 540.088 322.946 542.466 320.185 542.466ZM336.926 530.909H334.122L334.642 527.773H332.63L332.11 530.909H330.142L329.869 532.614H331.829L330.483 540.795C330.108 543.08 331.744 544.17 333.449 544.17C334.199 544.17 334.71 544.034 335.017 543.932L334.88 542.125C334.71 542.159 334.437 542.227 333.994 542.227C333.108 542.227 332.289 541.955 332.562 540.25L333.832 532.614H336.653L336.926 530.909ZM343.049 544.273C346.527 544.273 349.288 541.648 349.936 537.659C350.609 533.5 348.64 530.739 345.027 530.739C341.549 530.739 338.788 533.364 338.14 537.386C337.475 541.511 339.436 544.273 343.049 544.273ZM343.083 542.466C340.458 542.466 339.674 540.216 340.083 537.659C340.518 534.966 342.231 532.545 344.993 532.545C347.618 532.545 348.402 534.83 347.993 537.386C347.558 540.088 345.845 542.466 343.083 542.466ZM355.256 536.125C355.665 533.841 357.267 532.545 359.211 532.545C361.086 532.545 362.006 533.773 361.665 535.818L360.301 544H362.313L363.711 535.682C364.256 532.341 362.722 530.739 360.097 530.739C358.12 530.739 356.722 531.625 355.904 532.955H355.733L356.074 530.909H354.131L351.949 544H353.961L355.256 536.125ZM378.193 544.273C380.86 544.273 383.008 542.943 383.954 540.966L382.113 540.42C381.372 541.784 380.11 542.466 378.5 542.466C375.977 542.466 374.63 541.341 375.116 538.136H384.636L384.772 537.284C385.599 532.409 382.974 530.739 380.238 530.739C376.701 530.739 373.872 533.534 373.216 537.557C372.542 541.58 374.417 544.273 378.193 544.273ZM375.397 536.398C375.798 534.54 377.733 532.545 379.931 532.545C382.122 532.545 383.247 534.182 382.863 536.398H375.397ZM386.754 544H388.765L390.129 535.818C390.436 533.909 392.072 532.545 393.64 532.545C395.174 532.545 396.061 533.534 395.822 535.034L394.322 544H396.368L397.799 535.477C398.072 533.773 399.333 532.545 401.174 532.545C402.606 532.545 403.697 533.295 403.39 535.239L401.924 544H403.936L405.402 535.239C405.913 532.17 404.481 530.739 402.163 530.739C400.288 530.739 398.754 531.591 397.868 532.955H397.731C397.322 531.557 396.299 530.739 394.595 530.739C392.89 530.739 391.493 531.557 390.708 532.955H390.538L390.879 530.909H388.936L386.754 544ZM407.613 544H409.625L411.806 530.909H409.795L407.613 544ZM411.414 528.693C412.199 528.693 412.846 528.08 412.846 527.33C412.846 526.58 412.199 525.966 411.414 525.966C410.63 525.966 409.983 526.58 409.983 527.33C409.983 528.08 410.63 528.693 411.414 528.693ZM424.286 533.841C423.945 531.966 422.752 530.739 420.161 530.739C417.4 530.739 415.081 532.307 414.706 534.523C414.4 536.33 415.286 537.523 417.604 538.102L419.684 538.614C420.979 538.92 421.49 539.534 421.32 540.455C421.15 541.58 419.786 542.5 417.911 542.5C416.275 542.5 415.354 541.784 415.252 540.386L413.24 540.864C413.343 543.08 414.979 544.273 417.672 544.273C420.706 544.273 423.059 542.602 423.434 540.352C423.74 538.511 422.786 537.386 420.536 536.807L418.661 536.33C417.195 535.955 416.581 535.409 416.752 534.42C416.922 533.295 418.252 532.477 419.854 532.477C421.627 532.477 422.172 533.432 422.377 534.352L424.286 533.841ZM436.825 533.841C436.484 531.966 435.291 530.739 432.7 530.739C429.939 530.739 427.62 532.307 427.245 534.523C426.939 536.33 427.825 537.523 430.143 538.102L432.223 538.614C433.518 538.92 434.029 539.534 433.859 540.455C433.689 541.58 432.325 542.5 430.45 542.5C428.814 542.5 427.893 541.784 427.791 540.386L425.779 540.864C425.882 543.08 427.518 544.273 430.211 544.273C433.245 544.273 435.598 542.602 435.973 540.352C436.279 538.511 435.325 537.386 433.075 536.807L431.2 536.33C429.734 535.955 429.12 535.409 429.291 534.42C429.461 533.295 430.791 532.477 432.393 532.477C434.166 532.477 434.711 533.432 434.916 534.352L436.825 533.841ZM438.387 544H440.398L442.58 530.909H440.569L438.387 544ZM442.188 528.693C442.972 528.693 443.62 528.08 443.62 527.33C443.62 526.58 442.972 525.966 442.188 525.966C441.404 525.966 440.756 526.58 440.756 527.33C440.756 528.08 441.404 528.693 442.188 528.693ZM449.502 544.273C452.98 544.273 455.741 541.648 456.389 537.659C457.062 533.5 455.093 530.739 451.48 530.739C448.002 530.739 445.241 533.364 444.593 537.386C443.929 541.511 445.889 544.273 449.502 544.273ZM449.537 542.466C446.912 542.466 446.127 540.216 446.537 537.659C446.971 534.966 448.684 532.545 451.446 532.545C454.071 532.545 454.855 534.83 454.446 537.386C454.011 540.088 452.298 542.466 449.537 542.466ZM461.709 536.125C462.118 533.841 463.721 532.545 465.664 532.545C467.539 532.545 468.459 533.773 468.118 535.818L466.755 544H468.766L470.164 535.682C470.709 532.341 469.175 530.739 466.55 530.739C464.573 530.739 463.175 531.625 462.357 532.955H462.186L462.527 530.909H460.584L458.402 544H460.414L461.709 536.125Z" fill="black"/>
<rect x="91.5" y="448.5" width="367" height="51" stroke="black" stroke-width="3"/>
<rect x="87" y="459" width="4" height="30" fill="white" stroke="black" stroke-width="2"/>
<rect x="459" y="459" width="4" height="30" fill="white" stroke="black" stroke-width="2"/>
<rect x="91" y="481" width="14" height="368" transform="rotate(-90 91 481)" fill="white" stroke="black" stroke-width="2"/>
<path d="M767.843 247H782.843L779.332 229.545H777.15L767.843 247ZM771.048 245.125L777.729 232.307H777.866L780.252 245.125H771.048ZM784.471 251.909H786.482L787.641 244.989H787.812C788.153 245.705 788.732 247.273 791.255 247.273C794.528 247.273 797.255 244.648 797.937 240.489C798.619 236.364 796.778 233.739 793.471 233.739C790.914 233.739 789.857 235.307 789.312 235.989H789.073L789.414 233.909H787.471L784.471 251.909ZM788.357 240.455C788.835 237.523 790.471 235.545 792.925 235.545C795.482 235.545 796.369 237.693 795.925 240.455C795.448 243.25 793.812 245.466 791.289 245.466C788.869 245.466 787.88 243.42 788.357 240.455ZM798.721 250H800.528L801.414 244.784C801.619 243.591 802.607 242.773 803.732 242.773C804.073 242.773 804.346 242.841 804.55 242.943L805.369 241.443C805.096 241.273 804.721 241.17 804.244 241.17C803.289 241.17 802.3 241.682 801.755 242.739H801.687L801.925 241.273H800.187L798.721 250ZM810.953 241.273H809.155L809.283 240.489C809.419 239.773 809.862 239.364 810.612 239.364C810.851 239.364 811.055 239.398 811.328 239.466L811.908 238.068C811.635 238 811.158 237.864 810.51 237.864C809.078 237.864 807.749 238.75 807.476 240.455L807.339 241.273H806.112L805.874 242.67H807.109L805.908 250H807.714L808.925 242.67H810.714L810.953 241.273Z" fill="black"/>
</svg>
