<svg width="1100" height="740" viewBox="0 0 1100 740" fill="none" xmlns="http://www.w3.org/2000/svg">
<path fill-rule="evenodd" clip-rule="evenodd" d="M898.98 311.562C863.39 251.33 812.846 201.279 752.218 166.275C690.404 130.587 620.285 111.798 548.908 111.798C477.531 111.798 407.412 130.587 345.598 166.275C284.97 201.279 234.426 251.33 198.836 311.562L316.226 379.337C339.914 339.708 373.345 306.764 413.368 283.656C454.577 259.864 501.323 247.338 548.908 247.338C596.493 247.338 643.239 259.864 684.448 283.656C724.471 306.764 757.902 339.708 781.59 379.337L898.98 311.562ZM902.538 309.508C866.586 248.652 815.524 198.082 754.272 162.718C691.833 126.669 621.006 107.691 548.908 107.691C476.81 107.691 405.983 126.669 343.544 162.718C282.292 198.082 231.23 248.652 195.279 309.508C194.594 310.668 193.914 311.831 193.24 312.998C193.229 313.017 193.218 313.036 193.207 313.055L317.702 384.932C341.134 344.347 374.836 310.645 415.421 287.213C456.007 263.782 502.044 251.446 548.908 251.446C595.772 251.446 641.81 263.782 682.395 287.213C722.98 310.645 756.682 344.347 780.114 384.932L904.609 313.055C903.924 311.869 903.234 310.687 902.538 309.508Z" fill="#333333"/>
<path d="M548.908 169.3C678.131 169.3 790.957 239.508 851.321 343.86" stroke="black" stroke-width="2" stroke-dasharray="10 10"/>
<path d="M851.478 343.175L1006.01 610.833" stroke="black" stroke-width="2" stroke-dasharray="10 10"/>
<path d="M283.129 362.342L128.596 630" stroke="#FF0000" stroke-width="2" stroke-dasharray="10 10"/>
<path d="M814.512 362.342C814.512 362.342 854.356 433.5 863.678 447.5C873 461.5 969.882 470 977 481C984.118 492 974.5 610.5 974.5 610.5" stroke="#FF0000" stroke-width="2" stroke-dasharray="10 10"/>
<path d="M282.073 364.396C335.336 272.321 434.887 210.373 548.908 210.373C662.928 210.373 762.48 272.321 815.743 364.396" stroke="#FF0000" stroke-width="2" stroke-dasharray="10 10"/>
<path d="M247.532 343.175L93 610.833" stroke="black" stroke-width="2"/>
<path d="M548.908 169.3C419.685 169.3 306.859 239.508 246.495 343.86" stroke="black" stroke-width="3"/>
<path d="M247.532 343.175L93 610.833" stroke="black" stroke-width="3"/>
<path d="M69.2202 416.273C72.1179 416.273 74.027 414.5 74.3679 412.182H72.3565C71.9815 413.614 70.7884 414.466 69.2202 414.466C66.8338 414.466 65.2997 412.489 65.2997 409.455C65.2997 406.489 66.8679 404.545 69.2202 404.545C70.9929 404.545 72.0497 405.636 72.3565 406.83H74.3679C74.027 404.375 71.9474 402.739 69.1861 402.739C65.6406 402.739 63.2884 405.534 63.2884 409.523C63.2884 413.443 65.5384 416.273 69.2202 416.273ZM79.3196 398.545H77.3082V416H79.3196V398.545ZM88.3217 416.273C91.8672 416.273 94.2536 413.58 94.2536 409.523C94.2536 405.432 91.8672 402.739 88.3217 402.739C84.7763 402.739 82.3899 405.432 82.3899 409.523C82.3899 413.58 84.7763 416.273 88.3217 416.273ZM88.3217 414.466C85.6286 414.466 84.4013 412.148 84.4013 409.523C84.4013 406.898 85.6286 404.545 88.3217 404.545C91.0149 404.545 92.2422 406.898 92.2422 409.523C92.2422 412.148 91.0149 414.466 88.3217 414.466ZM106.597 405.841C105.966 403.983 104.551 402.739 101.96 402.739C99.1989 402.739 97.1534 404.307 97.1534 406.523C97.1534 408.33 98.2273 409.54 100.631 410.102L102.813 410.614C104.134 410.92 104.756 411.551 104.756 412.455C104.756 413.58 103.563 414.5 101.688 414.5C100.043 414.5 99.0114 413.793 98.6534 412.386L96.7443 412.864C97.2131 415.088 99.0455 416.273 101.722 416.273C104.764 416.273 106.835 414.611 106.835 412.352C106.835 410.528 105.693 409.378 103.358 408.807L101.415 408.33C99.8636 407.946 99.1648 407.426 99.1648 406.42C99.1648 405.295 100.358 404.477 101.96 404.477C103.716 404.477 104.44 405.449 104.79 406.352L106.597 405.841ZM115.352 416.273C118.011 416.273 119.954 414.943 120.567 412.966L118.624 412.42C118.113 413.784 116.928 414.466 115.352 414.466C112.991 414.466 111.363 412.94 111.269 410.136H120.772V409.284C120.772 404.409 117.874 402.739 115.147 402.739C111.602 402.739 109.249 405.534 109.249 409.557C109.249 413.58 111.567 416.273 115.352 416.273ZM111.269 408.398C111.406 406.361 112.846 404.545 115.147 404.545C117.329 404.545 118.727 406.182 118.727 408.398H111.269ZM128.775 416.273C131.298 416.273 132.15 414.705 132.593 413.989H132.832V416H134.775V398.545H132.763V404.989H132.593C132.15 404.307 131.366 402.739 128.809 402.739C125.502 402.739 123.218 405.364 123.218 409.489C123.218 413.648 125.502 416.273 128.775 416.273ZM129.048 414.466C126.525 414.466 125.229 412.25 125.229 409.455C125.229 406.693 126.491 404.545 129.048 404.545C131.502 404.545 132.798 406.523 132.798 409.455C132.798 412.42 131.468 414.466 129.048 414.466ZM150.806 416.273C154.352 416.273 156.738 413.58 156.738 409.523C156.738 405.432 154.352 402.739 150.806 402.739C147.261 402.739 144.874 405.432 144.874 409.523C144.874 413.58 147.261 416.273 150.806 416.273ZM150.806 414.466C148.113 414.466 146.886 412.148 146.886 409.523C146.886 406.898 148.113 404.545 150.806 404.545C153.499 404.545 154.727 406.898 154.727 409.523C154.727 412.148 153.499 414.466 150.806 414.466ZM159.808 416H161.82V407.716C161.82 405.943 163.217 404.648 165.126 404.648C165.663 404.648 166.217 404.75 166.354 404.784V402.739C166.124 402.722 165.595 402.705 165.297 402.705C163.729 402.705 162.365 403.591 161.888 404.886H161.751V402.909H159.808V416ZM169.011 416H170.954V413.989H171.192C171.636 414.705 172.488 416.273 175.011 416.273C178.283 416.273 180.567 413.648 180.567 409.489C180.567 405.364 178.283 402.739 174.977 402.739C172.42 402.739 171.636 404.307 171.192 404.989H171.022V398.545H169.011V416ZM170.988 409.455C170.988 406.523 172.283 404.545 174.738 404.545C177.295 404.545 178.556 406.693 178.556 409.455C178.556 412.25 177.261 414.466 174.738 414.466C172.317 414.466 170.988 412.42 170.988 409.455ZM183.644 416H185.656V402.909H183.644V416ZM184.667 400.727C185.451 400.727 186.099 400.114 186.099 399.364C186.099 398.614 185.451 398 184.667 398C183.883 398 183.235 398.614 183.235 399.364C183.235 400.114 183.883 400.727 184.667 400.727ZM195.033 402.909H192.237V399.773H190.226V402.909H188.249V404.614H190.226V412.795C190.226 415.08 192.067 416.17 193.771 416.17C194.521 416.17 194.999 416.034 195.271 415.932L194.862 414.125C194.692 414.159 194.419 414.227 193.976 414.227C193.089 414.227 192.237 413.955 192.237 412.25V404.614H195.033V402.909ZM96.4098 449.909H98.4212V442.989H98.5916C99.0348 443.705 99.8871 445.273 102.41 445.273C105.683 445.273 107.967 442.648 107.967 438.489C107.967 434.364 105.683 431.739 102.376 431.739C99.8189 431.739 99.0348 433.307 98.5916 433.989H98.353V431.909H96.4098V449.909ZM98.3871 438.455C98.3871 435.523 99.6825 433.545 102.137 433.545C104.694 433.545 105.955 435.693 105.955 438.455C105.955 441.25 104.66 443.466 102.137 443.466C99.7166 443.466 98.3871 441.42 98.3871 438.455ZM118.603 441.625H129.103V439.784H118.603V441.625ZM118.603 436.58H129.103V434.739H118.603V436.58ZM140.355 449.909H142.366V442.989H142.537C142.98 443.705 143.832 445.273 146.355 445.273C149.628 445.273 151.912 442.648 151.912 438.489C151.912 434.364 149.628 431.739 146.321 431.739C143.764 431.739 142.98 433.307 142.537 433.989H142.298V431.909H140.355V449.909ZM142.332 438.455C142.332 435.523 143.628 433.545 146.082 433.545C148.639 433.545 149.901 435.693 149.901 438.455C149.901 441.25 148.605 443.466 146.082 443.466C143.662 443.466 142.332 441.42 142.332 438.455ZM158.423 448.205C161.116 448.205 162.787 446.193 162.787 442.784C162.787 439.375 161.116 437.398 158.423 437.398C155.696 437.398 154.06 439.409 154.06 442.784C154.06 446.159 155.696 448.205 158.423 448.205ZM158.423 446.67C156.889 446.67 155.935 445.307 155.935 442.784C155.935 440.227 156.923 438.898 158.423 438.898C159.923 438.898 160.912 440.227 160.912 442.784C160.912 445.341 159.923 446.67 158.423 446.67Z" fill="black"/>
<path d="M240.22 520.273C243.118 520.273 245.027 518.5 245.368 516.182H243.357C242.982 517.614 241.788 518.466 240.22 518.466C237.834 518.466 236.3 516.489 236.3 513.455C236.3 510.489 237.868 508.545 240.22 508.545C241.993 508.545 243.05 509.636 243.357 510.83H245.368C245.027 508.375 242.947 506.739 240.186 506.739C236.641 506.739 234.288 509.534 234.288 513.523C234.288 517.443 236.538 520.273 240.22 520.273ZM250.32 502.545H248.308V520H250.32V502.545ZM259.322 520.273C262.867 520.273 265.254 517.58 265.254 513.523C265.254 509.432 262.867 506.739 259.322 506.739C255.776 506.739 253.39 509.432 253.39 513.523C253.39 517.58 255.776 520.273 259.322 520.273ZM259.322 518.466C256.629 518.466 255.401 516.148 255.401 513.523C255.401 510.898 256.629 508.545 259.322 508.545C262.015 508.545 263.242 510.898 263.242 513.523C263.242 516.148 262.015 518.466 259.322 518.466ZM277.597 509.841C276.966 507.983 275.551 506.739 272.96 506.739C270.199 506.739 268.153 508.307 268.153 510.523C268.153 512.33 269.227 513.54 271.631 514.102L273.813 514.614C275.134 514.92 275.756 515.551 275.756 516.455C275.756 517.58 274.563 518.5 272.688 518.5C271.043 518.5 270.011 517.793 269.653 516.386L267.744 516.864C268.213 519.088 270.045 520.273 272.722 520.273C275.764 520.273 277.835 518.611 277.835 516.352C277.835 514.528 276.693 513.378 274.358 512.807L272.415 512.33C270.864 511.946 270.165 511.426 270.165 510.42C270.165 509.295 271.358 508.477 272.96 508.477C274.716 508.477 275.44 509.449 275.79 510.352L277.597 509.841ZM286.352 520.273C289.011 520.273 290.954 518.943 291.567 516.966L289.624 516.42C289.113 517.784 287.928 518.466 286.352 518.466C283.991 518.466 282.363 516.94 282.269 514.136H291.772V513.284C291.772 508.409 288.874 506.739 286.147 506.739C282.602 506.739 280.249 509.534 280.249 513.557C280.249 517.58 282.567 520.273 286.352 520.273ZM282.269 512.398C282.406 510.361 283.846 508.545 286.147 508.545C288.329 508.545 289.727 510.182 289.727 512.398H282.269ZM299.775 520.273C302.298 520.273 303.15 518.705 303.593 517.989H303.832V520H305.775V502.545H303.763V508.989H303.593C303.15 508.307 302.366 506.739 299.809 506.739C296.502 506.739 294.218 509.364 294.218 513.489C294.218 517.648 296.502 520.273 299.775 520.273ZM300.048 518.466C297.525 518.466 296.229 516.25 296.229 513.455C296.229 510.693 297.491 508.545 300.048 508.545C302.502 508.545 303.798 510.523 303.798 513.455C303.798 516.42 302.468 518.466 300.048 518.466ZM321.806 520.273C325.352 520.273 327.738 517.58 327.738 513.523C327.738 509.432 325.352 506.739 321.806 506.739C318.261 506.739 315.874 509.432 315.874 513.523C315.874 517.58 318.261 520.273 321.806 520.273ZM321.806 518.466C319.113 518.466 317.886 516.148 317.886 513.523C317.886 510.898 319.113 508.545 321.806 508.545C324.499 508.545 325.727 510.898 325.727 513.523C325.727 516.148 324.499 518.466 321.806 518.466ZM330.808 520H332.82V511.716C332.82 509.943 334.217 508.648 336.126 508.648C336.663 508.648 337.217 508.75 337.354 508.784V506.739C337.124 506.722 336.595 506.705 336.297 506.705C334.729 506.705 333.365 507.591 332.888 508.886H332.751V506.909H330.808V520ZM340.011 520H341.954V517.989H342.192C342.636 518.705 343.488 520.273 346.011 520.273C349.283 520.273 351.567 517.648 351.567 513.489C351.567 509.364 349.283 506.739 345.977 506.739C343.42 506.739 342.636 508.307 342.192 508.989H342.022V502.545H340.011V520ZM341.988 513.455C341.988 510.523 343.283 508.545 345.738 508.545C348.295 508.545 349.556 510.693 349.556 513.455C349.556 516.25 348.261 518.466 345.738 518.466C343.317 518.466 341.988 516.42 341.988 513.455ZM354.644 520H356.656V506.909H354.644V520ZM355.667 504.727C356.451 504.727 357.099 504.114 357.099 503.364C357.099 502.614 356.451 502 355.667 502C354.883 502 354.235 502.614 354.235 503.364C354.235 504.114 354.883 504.727 355.667 504.727ZM366.033 506.909H363.237V503.773H361.226V506.909H359.249V508.614H361.226V516.795C361.226 519.08 363.067 520.17 364.771 520.17C365.521 520.17 365.999 520.034 366.271 519.932L365.862 518.125C365.692 518.159 365.419 518.227 364.976 518.227C364.089 518.227 363.237 517.955 363.237 516.25V508.614H366.033V506.909ZM267.41 553.909H269.421V546.989H269.592C270.035 547.705 270.887 549.273 273.41 549.273C276.683 549.273 278.967 546.648 278.967 542.489C278.967 538.364 276.683 535.739 273.376 535.739C270.819 535.739 270.035 537.307 269.592 537.989H269.353V535.909H267.41V553.909ZM269.387 542.455C269.387 539.523 270.683 537.545 273.137 537.545C275.694 537.545 276.955 539.693 276.955 542.455C276.955 545.25 275.66 547.466 273.137 547.466C270.717 547.466 269.387 545.42 269.387 542.455ZM289.364 542.864L300.342 548.455V546.273L291.989 542.25V542.114L300.342 538.091V535.909L289.364 541.5V542.864ZM311.355 553.909H313.366V546.989H313.537C313.98 547.705 314.832 549.273 317.355 549.273C320.628 549.273 322.912 546.648 322.912 542.489C322.912 538.364 320.628 535.739 317.321 535.739C314.764 535.739 313.98 537.307 313.537 537.989H313.298V535.909H311.355V553.909ZM313.332 542.455C313.332 539.523 314.628 537.545 317.082 537.545C319.639 537.545 320.901 539.693 320.901 542.455C320.901 545.25 319.605 547.466 317.082 547.466C314.662 547.466 313.332 545.42 313.332 542.455ZM329.423 552.205C332.116 552.205 333.787 550.193 333.787 546.784C333.787 543.375 332.116 541.398 329.423 541.398C326.696 541.398 325.06 543.409 325.06 546.784C325.06 550.159 326.696 552.205 329.423 552.205ZM329.423 550.67C327.889 550.67 326.935 549.307 326.935 546.784C326.935 544.227 327.923 542.898 329.423 542.898C330.923 542.898 331.912 544.227 331.912 546.784C331.912 549.341 330.923 550.67 329.423 550.67Z" fill="#FF0000"/>
<rect x="877.049" y="525.237" width="140.376" height="24.794" transform="rotate(-30 877.049 525.237)" stroke="black" stroke-width="3"/>
<rect x="833.049" y="451.237" width="140.376" height="24.794" transform="rotate(-30 833.049 451.237)" stroke="black" stroke-width="3"/>
<path d="M548.908 169.534C653.237 169.621 754.677 223.802 810.593 320.651C817.422 332.479 823.36 344.576 828.428 356.866" stroke="#FF0000" stroke-width="3"/>
<path d="M998.5 603L1001.63 585.965L985.314 591.769L998.5 603ZM874.038 438.917C868.244 433.364 861.22 421.836 853.545 406.982C845.904 392.193 837.72 374.319 829.57 356.249L826.835 357.483C834.983 375.547 843.197 393.49 850.88 408.359C858.53 423.164 865.756 435.135 871.962 441.083L874.038 438.917ZM995.391 589.782C987.271 566.521 980.151 543.908 974.303 525.979C971.382 517.023 968.774 509.227 966.522 503.119C964.292 497.071 962.35 492.509 960.738 490.153L958.262 491.847C959.629 493.845 961.455 498.05 963.707 504.158C965.938 510.206 968.53 517.955 971.451 526.909C977.287 544.801 984.425 567.471 992.559 590.771L995.391 589.782ZM960.738 490.153C959.754 488.716 957.769 487.072 955.269 485.324C952.713 483.536 949.435 481.515 945.681 479.342C938.172 474.996 928.659 469.981 919.009 464.921C909.344 459.854 899.539 454.741 891.398 450.176C883.196 445.577 876.875 441.636 874.038 438.917L871.962 441.083C875.125 444.114 881.804 448.236 889.93 452.793C898.117 457.384 907.968 462.52 917.616 467.578C927.278 472.644 936.734 477.629 944.178 481.939C947.901 484.094 951.096 486.066 953.549 487.782C956.059 489.537 957.62 490.909 958.262 491.847L960.738 490.153Z" fill="#FF0000"/>
<path d="M550 169.811L562.927 169.854C565.284 175.807 568.108 181.373 579.152 181.373" stroke="black" stroke-width="3"/>
<path d="M579.152 181.373C603.947 181.373 589.703 155.655 613.443 155.655" stroke="black" stroke-width="3"/>
<path d="M613.442 155.655C638.237 155.655 623.993 181.373 647.733 181.373" stroke="black" stroke-width="3"/>
<path d="M647.733 181.373C672.528 181.373 658.284 155.655 682.024 155.655" stroke="black" stroke-width="3"/>
<path d="M682.024 155.655C706.819 155.655 692.575 181.373 716.314 181.373" stroke="black" stroke-width="3"/>
<path d="M716.314 181.373C741.109 181.373 726.865 155.655 750.605 155.655" stroke="black" stroke-width="3"/>
<path d="M750.605 155.655C775.399 155.655 761.156 181.373 784.895 181.373" stroke="black" stroke-width="3"/>
<path d="M784.895 181.373C797.73 181.373 800.105 174.482 802.702 167.834H814.693" stroke="black" stroke-width="3"/>
<path d="M832.033 167.442L814.233 182.001L814.233 152.883L832.033 167.442Z" fill="black"/>
<path d="M787.656 149.909H790.741L791.901 142.938H792.045C792.369 143.892 793.153 145.23 795.403 145.23C798.489 145.23 801.216 142.784 801.923 138.472C802.648 134.108 800.67 131.739 797.645 131.739C795.335 131.739 794.134 133.128 793.52 134.074H793.332L793.69 131.909H790.656L787.656 149.909ZM792.591 138.455C793 135.915 794.372 134.27 796.366 134.27C798.42 134.27 799.17 136.017 798.778 138.455C798.361 140.909 797.006 142.699 794.977 142.699C793.009 142.699 792.182 140.994 792.591 138.455ZM807.838 137.33C808.17 135.438 809.526 134.347 811.179 134.347C812.781 134.347 813.565 135.378 813.284 137.142L811.972 145H815.065L816.463 136.665C816.974 133.494 815.474 131.739 812.773 131.739C810.744 131.739 809.304 132.642 808.477 134.134H808.315L809.406 127.545H806.381L803.483 145H806.577L807.838 137.33ZM823.955 145.256C827.739 145.256 830.585 142.597 831.25 138.591C831.915 134.483 829.903 131.739 826.034 131.739C822.241 131.739 819.395 134.406 818.739 138.429C818.074 142.511 820.077 145.256 823.955 145.256ZM824.202 142.784C822.131 142.784 821.449 140.935 821.832 138.574C822.224 136.136 823.639 134.185 825.787 134.185C827.849 134.185 828.54 136.06 828.156 138.412C827.764 140.858 826.349 142.784 824.202 142.784ZM841.513 131.909H838.923L839.442 128.773H836.357L835.837 131.909H833.988L833.596 134.295H835.445L834.244 141.574C833.817 144.028 835.386 145.239 837.729 145.179C838.599 145.153 839.238 144.983 839.613 144.872L839.477 142.46C839.289 142.494 838.931 142.58 838.556 142.58C837.781 142.58 837.201 142.307 837.397 141.063L838.522 134.295H841.113L841.513 131.909ZM847.533 145.256C851.317 145.256 854.163 142.597 854.828 138.591C855.493 134.483 853.482 131.739 849.612 131.739C845.82 131.739 842.973 134.406 842.317 138.429C841.652 142.511 843.655 145.256 847.533 145.256ZM847.78 142.784C845.709 142.784 845.027 140.935 845.411 138.574C845.803 136.136 847.217 134.185 849.365 134.185C851.428 134.185 852.118 136.06 851.734 138.412C851.342 140.858 849.928 142.784 847.78 142.784ZM860.736 137.33C861.069 135.438 862.39 134.347 864.009 134.347C865.62 134.347 866.387 135.403 866.097 137.142L864.793 145H867.879L869.276 136.665C869.796 133.52 868.288 131.739 865.611 131.739C863.651 131.739 862.126 132.668 861.308 134.134H861.146L861.521 131.909H858.563L856.381 145H859.475L860.736 137.33Z" fill="black"/>
<circle cx="549.215" cy="169.215" r="8.21456" fill="#2D9CDB"/>
</svg>
