<svg width="1500" height="560" viewBox="0 0 1500 560" fill="none" xmlns="http://www.w3.org/2000/svg">
<path d="M18.5 474L18.5 475.5L21.5 475.5L21.5 474L18.5 474ZM20 30L11.3398 45L28.6603 45L20 30ZM21.5 474L21.5 43.5L18.5 43.5L18.5 474L21.5 474Z" fill="black"/>
<path d="M20 472.5H18.5V475.5H20V472.5ZM496 474L481 465.34V482.66L496 474ZM20 475.5H482.5V472.5H20V475.5Z" fill="black"/>
<path d="M21 351C47.9777 306.464 92.9824 254.966 149.5 225.078C237.587 178.496 353.641 184.41 473 351" stroke="#999999" stroke-width="3" stroke-dasharray="10 10"/>
<path d="M149 286L154.774 276H143.226L149 286ZM149 223H150V222H149V223ZM47 223L57 228.774V217.227L47 223ZM150 277V223H148V277H150ZM149 222H56V224H149V222Z" fill="black"/>
<path d="M146.515 227.347L147.372 226.832L146.342 225.118L145.485 225.633L146.515 227.347ZM47 286L58.5452 285.796L52.5963 275.9L47 286ZM145.485 225.633L54.1985 280.506L55.2289 282.22L146.515 227.347L145.485 225.633Z" fill="black"/>
<circle cx="149" cy="224" r="6" fill="#2D9CDB"/>
<path d="M152.954 219.98L157.598 216.888C159.56 218.443 161.604 219.776 165.344 217.616" stroke="black" stroke-width="2"/>
<path d="M165.344 217.616C173.74 212.769 163.889 206.845 171.928 202.203" stroke="black" stroke-width="2"/>
<path d="M171.928 202.203C180.324 197.356 180.529 208.849 188.568 204.208" stroke="black" stroke-width="2"/>
<path d="M188.568 204.208C196.964 199.361 187.113 193.436 195.152 188.795" stroke="black" stroke-width="2"/>
<path d="M195.152 188.795C203.548 183.948 203.753 195.441 211.792 190.8" stroke="black" stroke-width="2"/>
<path d="M211.792 190.8C220.188 185.952 210.336 180.028 218.375 175.387" stroke="black" stroke-width="2"/>
<path d="M218.375 175.387C226.772 170.539 226.976 182.033 235.015 177.392" stroke="black" stroke-width="2"/>
<path d="M235.015 177.392C239.362 174.882 238.818 172.085 238.398 169.326L243.051 166.232" stroke="black" stroke-width="2"/>
<path d="M248.713 162.693L245.532 171.103L239.839 161.243L248.713 162.693Z" fill="black"/>
<path d="M43.0121 237.085C42.7564 238.602 43.4979 239.727 44.87 240.307L44.853 240.375C42.6967 240.886 40.6001 243.06 40.1484 245.795L40.0973 246.102C39.5092 249.614 41.1541 252.239 44.7678 252.239C48.3132 252.239 50.8359 249.588 51.4496 246.085L51.5007 245.795C52.0547 242.668 50.8786 240.486 47.6314 239.25C45.6115 238.483 45.3047 237.682 45.4155 237.068C45.5604 236.267 46.3871 235.688 47.7507 235.688C48.9098 235.688 50.1371 236.097 50.7678 236.369L51.1087 234.358C50.12 233.949 49.2678 233.744 48.0405 233.744C45.245 233.744 43.353 235.074 43.0121 237.085ZM42.5007 245.795C42.8416 243.435 44.2479 241.398 46.5575 241.398C48.5092 241.807 49.4808 243.895 49.1484 245.795L49.0973 246.085C48.6797 248.446 47.3672 250.364 45.0746 250.364C42.7649 250.364 42.1257 248.395 42.4666 246.034L42.5007 245.795ZM52.2912 256.909H54.3026L55.4616 249.989H55.6321C55.973 250.705 56.5526 252.273 59.0753 252.273C62.348 252.273 65.0753 249.648 65.7571 245.489C66.4389 241.364 64.598 238.739 61.2912 238.739C58.7344 238.739 57.6776 240.307 57.1321 240.989H56.8935L57.2344 238.909H55.2912L52.2912 256.909ZM56.1776 245.455C56.6548 242.523 58.2912 240.545 60.7457 240.545C63.3026 240.545 64.1889 242.693 63.7457 245.455C63.2685 248.25 61.6321 250.466 59.1094 250.466C56.6889 250.466 55.7003 248.42 56.1776 245.455ZM65.9957 258.273H67.8026L68.6207 253.398H68.6889C68.8935 254.216 69.5071 255.17 70.973 255.17C73.0526 255.17 74.7912 253.466 75.2685 250.568C75.6776 248.148 74.723 246.17 72.473 246.17C71.0753 246.17 70.0866 247.057 69.6094 247.943H69.5071L69.7798 246.273H68.0071L65.9957 258.273ZM69.0639 250.568C69.3366 248.864 70.3594 247.636 71.723 247.636C73.1548 247.636 73.7003 248.898 73.3935 250.705C73.1207 252.409 72.0639 253.67 70.7003 253.67C69.3026 253.67 68.7571 252.443 69.0639 250.568ZM79.125 249.75C79.3295 248.489 80.3182 247.705 81.4432 247.705C82.5682 247.705 83.1818 248.455 82.9773 249.682L82.0909 255H83.8977L84.8523 249.375C85.1932 247.398 84.1364 246.17 82.3636 246.17C81.0682 246.17 80.0455 246.784 79.5 247.773H79.3977L80.1477 243.375H78.375L76.4318 255H78.2386L79.125 249.75Z" fill="black"/>
<path d="M174.969 196.556L176.556 195.708L175.235 191.802L175.31 191.762C175.739 192.164 176.51 192.637 177.668 192.019C179.255 191.17 179.986 189.162 179.164 186.749C178.337 184.305 176.668 183.629 175.112 184.461C173.923 185.096 173.687 186.141 173.632 186.797L173.535 186.848L173.124 185.636L171.563 186.47L174.969 196.556ZM174.358 189.306C173.87 187.887 174.124 186.663 175.15 186.115C176.207 185.55 177.073 186.243 177.541 187.605C178.001 188.982 177.796 190.276 176.753 190.833C175.74 191.375 174.846 190.725 174.358 189.306ZM181.893 184.535C181.544 183.47 181.941 182.537 182.792 182.082C183.616 181.641 184.303 181.956 184.643 182.941L186.129 187.345L187.72 186.494L186.148 181.822C185.539 180.05 184.285 179.559 182.895 180.302C181.851 180.86 181.358 181.72 181.343 182.715L181.26 182.76L180.01 179.07L178.453 179.902L181.761 189.679L183.353 188.828L181.893 184.535ZM192.364 184.182C194.311 183.141 195.044 180.991 194.285 178.747C193.497 176.451 191.708 175.592 189.717 176.656C187.766 177.699 187.035 179.854 187.803 182.104C188.584 184.387 190.369 185.248 192.364 184.182ZM191.811 182.842C190.746 183.412 189.887 182.648 189.435 181.328C188.966 179.966 189.158 178.573 190.263 177.982C191.324 177.415 192.194 178.19 192.644 179.506C193.115 180.872 192.916 182.252 191.811 182.842ZM197.728 172.488L196.395 173.2L195.8 171.444L194.213 172.292L194.808 174.048L193.856 174.557L194.311 175.892L195.262 175.384L196.645 179.459C197.101 180.839 198.24 181.03 199.429 180.355C199.87 180.103 200.152 179.84 200.314 179.679L199.581 178.476C199.494 178.545 199.333 178.687 199.14 178.79C198.741 179.004 198.368 179.023 198.127 178.329L196.845 174.538L198.178 173.826L197.728 172.488ZM204.494 177.699C206.441 176.659 207.174 174.508 206.415 172.265C205.628 169.968 203.838 169.11 201.848 170.173C199.896 171.216 199.165 173.371 199.934 175.621C200.714 177.904 202.499 178.765 204.494 177.699ZM203.942 176.36C202.876 176.929 202.017 176.165 201.565 174.845C201.097 173.483 201.288 172.09 202.393 171.5C203.454 170.933 204.325 171.707 204.774 173.023C205.245 174.389 205.047 175.769 203.942 176.36ZM209.108 169.991C208.759 168.926 209.138 168.002 209.972 167.557C210.8 167.114 211.485 167.447 211.814 168.421L213.304 172.822L214.891 171.974L213.319 167.301C212.722 165.54 211.456 165.039 210.079 165.774C209.07 166.313 208.541 167.211 208.523 168.19L208.44 168.234L208.021 166.987L206.5 167.8L208.976 175.135L210.568 174.284L209.108 169.991Z" fill="black"/>
<path d="M83.8207 193.085C83.565 194.602 84.3065 195.727 85.6786 196.307L85.6616 196.375C83.5053 196.886 81.4087 199.06 80.957 201.795L80.9059 202.102C80.3178 205.614 81.9627 208.239 85.5763 208.239C89.1218 208.239 91.6445 205.588 92.2582 202.085L92.3093 201.795C92.8633 198.668 91.6871 196.486 88.44 195.25C86.4201 194.483 86.1133 193.682 86.2241 193.068C86.369 192.267 87.1957 191.688 88.5593 191.688C89.7184 191.688 90.9457 192.097 91.5763 192.369L91.9173 190.358C90.9286 189.949 90.0763 189.744 88.8491 189.744C86.0536 189.744 84.1616 191.074 83.8207 193.085ZM83.3093 201.795C83.6502 199.435 85.0565 197.398 87.3661 197.398C89.3178 197.807 90.2894 199.895 89.957 201.795L89.9059 202.085C89.4883 204.446 88.1758 206.364 85.8832 206.364C83.5735 206.364 82.9343 204.395 83.2752 202.034L83.3093 201.795ZM93.0998 212.909H95.1112L96.2702 205.989H96.4407C96.7816 206.705 97.3612 208.273 99.8839 208.273C103.157 208.273 105.884 205.648 106.566 201.489C107.248 197.364 105.407 194.739 102.1 194.739C99.543 194.739 98.4862 196.307 97.9407 196.989H97.7021L98.043 194.909H96.0998L93.0998 212.909ZM96.9862 201.455C97.4634 198.523 99.0998 196.545 101.554 196.545C104.111 196.545 104.998 198.693 104.554 201.455C104.077 204.25 102.441 206.466 99.918 206.466C97.4975 206.466 96.5089 204.42 96.9862 201.455Z" fill="black"/>
<path d="M111 206V218" stroke="black" stroke-width="2"/>
<path d="M116 206V218" stroke="black" stroke-width="2"/>
<path d="M159.821 242.085C159.565 243.602 160.306 244.727 161.679 245.307L161.662 245.375C159.505 245.886 157.409 248.06 156.957 250.795L156.906 251.102C156.318 254.614 157.963 257.239 161.576 257.239C165.122 257.239 167.645 254.588 168.258 251.085L168.309 250.795C168.863 247.668 167.687 245.486 164.44 244.25C162.42 243.483 162.113 242.682 162.224 242.068C162.369 241.267 163.196 240.688 164.559 240.688C165.718 240.688 166.946 241.097 167.576 241.369L167.917 239.358C166.929 238.949 166.076 238.744 164.849 238.744C162.054 238.744 160.162 240.074 159.821 242.085ZM159.309 250.795C159.65 248.435 161.056 246.398 163.366 246.398C165.318 246.807 166.289 248.895 165.957 250.795L165.906 251.085C165.488 253.446 164.176 255.364 161.883 255.364C159.574 255.364 158.934 253.395 159.275 251.034L159.309 250.795ZM169.1 261.909H171.111L172.27 254.989H172.441C172.782 255.705 173.361 257.273 175.884 257.273C179.157 257.273 181.884 254.648 182.566 250.489C183.248 246.364 181.407 243.739 178.1 243.739C175.543 243.739 174.486 245.307 173.941 245.989H173.702L174.043 243.909H172.1L169.1 261.909ZM172.986 250.455C173.463 247.523 175.1 245.545 177.554 245.545C180.111 245.545 180.998 247.693 180.554 250.455C180.077 253.25 178.441 255.466 175.918 255.466C173.498 255.466 172.509 253.42 172.986 250.455Z" fill="black"/>
<path d="M185 255V267" stroke="black" stroke-width="2"/>
<path d="M180 267H192" stroke="black" stroke-width="2"/>
<path d="M50.9137 38.6477C50.5046 41.1023 48.4592 42.2273 46.9592 42.2273C45.2887 42.2273 44.3001 41 44.6069 39.0909L45.9705 30.9091H43.9592L42.5614 39.2273C42.016 42.5682 43.516 44.1705 45.9705 44.1705C47.9478 44.1705 49.4478 43.1136 50.266 41.7841H50.4023L50.0273 44H52.0387L54.2205 30.9091H52.2092L50.9137 38.6477Z" fill="black"/>
<path d="M490.958 447.841C490.617 445.966 489.424 444.739 486.833 444.739C484.071 444.739 481.753 446.307 481.378 448.523C481.071 450.33 481.958 451.523 484.276 452.102L486.355 452.614C487.651 452.92 488.162 453.534 487.992 454.455C487.821 455.58 486.458 456.5 484.583 456.5C482.946 456.5 482.026 455.784 481.924 454.386L479.912 454.864C480.015 457.08 481.651 458.273 484.344 458.273C487.378 458.273 489.73 456.602 490.105 454.352C490.412 452.511 489.458 451.386 487.208 450.807L485.333 450.33C483.867 449.955 483.253 449.409 483.424 448.42C483.594 447.295 484.924 446.477 486.526 446.477C488.299 446.477 488.844 447.432 489.049 448.352L490.958 447.841Z" fill="black"/>
<path d="M51.3313 544H62.0018L62.3086 542.125H53.7518L54.7404 536.193H62.6154L62.9222 534.318H55.0472L56.0359 528.42H64.4563L64.7631 526.545H54.229L51.3313 544ZM68.7092 536.125C69.1183 533.841 70.7205 532.545 72.6637 532.545C74.5387 532.545 75.4592 533.773 75.1183 535.818L73.7546 544H75.766L77.1637 535.682C77.7092 532.341 76.1751 530.739 73.5501 530.739C71.5728 530.739 70.1751 531.625 69.3569 532.955H69.1864L69.5273 530.909H67.5842L65.4023 544H67.4137L68.7092 536.125ZM84.896 544.273C87.5636 544.273 89.7113 542.943 90.6573 540.966L88.8164 540.42C88.0749 541.784 86.8136 542.466 85.2028 542.466C82.68 542.466 81.3335 541.341 81.8192 538.136H91.3391L91.4755 537.284C92.3022 532.409 89.6772 530.739 86.9414 530.739C83.4045 530.739 80.5749 533.534 79.9187 537.557C79.2454 541.58 81.1204 544.273 84.896 544.273ZM82.1005 536.398C82.5011 534.54 84.4357 532.545 86.6346 532.545C88.8249 532.545 89.9499 534.182 89.5664 536.398H82.1005ZM93.457 544H95.4684L96.832 535.716C97.1388 533.943 98.7411 532.648 100.65 532.648C101.196 532.648 101.741 532.75 101.877 532.784L102.218 530.739C101.98 530.705 101.468 530.705 101.162 530.705C99.5934 530.705 98.0593 531.591 97.3775 532.886H97.2411L97.582 530.909H95.6388L93.457 544ZM106.501 549.182C109.62 549.182 112.382 547.75 112.944 544.375L115.16 530.909H113.217L112.876 532.989H112.672C112.348 532.307 111.785 530.739 109.228 530.739C105.922 530.739 103.203 533.364 102.547 537.386C101.865 541.477 103.868 543.795 107.047 543.795C109.595 543.795 110.66 542.295 111.206 541.58H111.376L110.967 544.239C110.592 546.42 108.836 547.409 106.74 547.409C104.336 547.409 103.774 546.156 103.365 545.432L101.558 546.557C102.163 547.929 103.561 549.182 106.501 549.182ZM107.558 541.989C105.018 541.989 104.106 540.08 104.558 537.352C105.001 534.693 106.518 532.545 109.092 532.545C111.529 532.545 112.595 534.523 112.126 537.352C111.649 540.25 109.961 541.989 107.558 541.989ZM117.154 548.909C118.927 548.909 120.393 547.989 121.518 545.892L129.547 530.909H127.279L121.927 541.375H121.791L119.916 530.909H117.819L120.444 544L119.882 545.023C118.791 547.009 117.939 547.273 116.541 546.898L115.723 548.67C115.91 548.773 116.473 548.909 117.154 548.909ZM141.702 526.545H139.691L136.793 544H138.804L141.702 526.545ZM147.909 544.273C151.386 544.273 154.147 541.648 154.795 537.659C155.468 533.5 153.5 530.739 149.886 530.739C146.409 530.739 143.647 533.364 143 537.386C142.335 541.511 144.295 544.273 147.909 544.273ZM147.943 542.466C145.318 542.466 144.534 540.216 144.943 537.659C145.377 534.966 147.091 532.545 149.852 532.545C152.477 532.545 153.261 534.83 152.852 537.386C152.417 540.088 150.704 542.466 147.943 542.466ZM167.786 533.841C167.445 531.966 166.252 530.739 163.661 530.739C160.9 530.739 158.581 532.307 158.206 534.523C157.9 536.33 158.786 537.523 161.104 538.102L163.184 538.614C164.479 538.92 164.99 539.534 164.82 540.455C164.65 541.58 163.286 542.5 161.411 542.5C159.775 542.5 158.854 541.784 158.752 540.386L156.74 540.864C156.843 543.08 158.479 544.273 161.172 544.273C164.206 544.273 166.559 542.602 166.934 540.352C167.24 538.511 166.286 537.386 164.036 536.807L162.161 536.33C160.695 535.955 160.081 535.409 160.252 534.42C160.422 533.295 161.752 532.477 163.354 532.477C165.127 532.477 165.672 533.432 165.877 534.352L167.786 533.841ZM180.325 533.841C179.984 531.966 178.791 530.739 176.2 530.739C173.439 530.739 171.12 532.307 170.745 534.523C170.439 536.33 171.325 537.523 173.643 538.102L175.723 538.614C177.018 538.92 177.529 539.534 177.359 540.455C177.189 541.58 175.825 542.5 173.95 542.5C172.314 542.5 171.393 541.784 171.291 540.386L169.279 540.864C169.382 543.08 171.018 544.273 173.711 544.273C176.745 544.273 179.098 542.602 179.473 540.352C179.779 538.511 178.825 537.386 176.575 536.807L174.7 536.33C173.234 535.955 172.62 535.409 172.791 534.42C172.961 533.295 174.291 532.477 175.893 532.477C177.666 532.477 178.211 533.432 178.416 534.352L180.325 533.841ZM193.58 544.273C196.094 544.273 197.211 542.705 197.773 541.989H198.012L197.671 544H199.614L202.512 526.545H200.5L199.426 532.989H199.256C198.932 532.307 198.404 530.739 195.847 530.739C192.54 530.739 189.821 533.364 189.131 537.489C188.449 541.648 190.299 544.273 193.58 544.273ZM194.074 542.466C191.551 542.466 190.691 540.25 191.159 537.455C191.611 534.693 193.162 532.545 195.711 532.545C198.174 532.545 199.213 534.523 198.728 537.455C198.233 540.42 196.495 542.466 194.074 542.466ZM212.703 538.648C212.294 541.102 210.248 542.227 208.748 542.227C207.078 542.227 206.089 541 206.396 539.091L207.76 530.909H205.748L204.35 539.227C203.805 542.568 205.305 544.17 207.76 544.17C209.737 544.17 211.237 543.114 212.055 541.784H212.191L211.816 544H213.828L216.01 530.909H213.998L212.703 538.648ZM222.966 544.273C225.634 544.273 227.782 542.943 228.728 540.966L226.887 540.42C226.145 541.784 224.884 542.466 223.273 542.466C220.75 542.466 219.404 541.341 219.89 538.136H229.409L229.546 537.284C230.373 532.409 227.748 530.739 225.012 530.739C221.475 530.739 218.645 533.534 217.989 537.557C217.316 541.58 219.191 544.273 222.966 544.273ZM220.171 536.398C220.571 534.54 222.506 532.545 224.705 532.545C226.895 532.545 228.02 534.182 227.637 536.398H220.171ZM246.152 530.909H243.348L243.868 527.773H241.857L241.337 530.909H239.368L239.096 532.614H241.056L239.709 540.795C239.334 543.08 240.971 544.17 242.675 544.17C243.425 544.17 243.936 544.034 244.243 543.932L244.107 542.125C243.936 542.159 243.664 542.227 243.221 542.227C242.334 542.227 241.516 541.955 241.789 540.25L243.059 532.614H245.88L246.152 530.909ZM252.276 544.273C255.753 544.273 258.515 541.648 259.162 537.659C259.836 533.5 257.867 530.739 254.253 530.739C250.776 530.739 248.015 533.364 247.367 537.386C246.702 541.511 248.662 544.273 252.276 544.273ZM252.31 542.466C249.685 542.466 248.901 540.216 249.31 537.659C249.745 534.966 251.458 532.545 254.219 532.545C256.844 532.545 257.628 534.83 257.219 537.386C256.784 540.088 255.071 542.466 252.31 542.466ZM267.108 548.909H269.119L270.278 541.989H270.449C270.789 542.705 271.369 544.273 273.892 544.273C277.164 544.273 279.892 541.648 280.574 537.489C281.255 533.364 279.414 530.739 276.108 530.739C273.551 530.739 272.494 532.307 271.949 532.989H271.71L272.051 530.909H270.108L267.108 548.909ZM270.994 537.455C271.471 534.523 273.108 532.545 275.562 532.545C278.119 532.545 279.005 534.693 278.562 537.455C278.085 540.25 276.449 542.466 273.926 542.466C271.505 542.466 270.517 540.42 270.994 537.455ZM285.858 536.125C286.267 533.841 287.937 532.545 289.914 532.545C291.789 532.545 292.744 533.739 292.403 535.818L291.039 544H293.051L294.449 535.682C294.994 532.307 293.46 530.739 290.801 530.739C288.721 530.739 287.392 531.591 286.574 532.955H286.403L287.46 526.545H285.449L282.551 544H284.562L285.858 536.125ZM302.151 544.273C305.628 544.273 308.39 541.648 309.037 537.659C309.711 533.5 307.742 530.739 304.128 530.739C300.651 530.739 297.89 533.364 297.242 537.386C296.577 541.511 298.537 544.273 302.151 544.273ZM302.185 542.466C299.56 542.466 298.776 540.216 299.185 537.659C299.62 534.966 301.333 532.545 304.094 532.545C306.719 532.545 307.503 534.83 307.094 537.386C306.659 540.088 304.946 542.466 302.185 542.466ZM318.926 530.909H316.122L316.642 527.773H314.63L314.11 530.909H312.142L311.869 532.614H313.829L312.483 540.795C312.108 543.08 313.744 544.17 315.449 544.17C316.199 544.17 316.71 544.034 317.017 543.932L316.88 542.125C316.71 542.159 316.437 542.227 315.994 542.227C315.108 542.227 314.289 541.955 314.562 540.25L315.832 532.614H318.653L318.926 530.909ZM325.049 544.273C328.527 544.273 331.288 541.648 331.936 537.659C332.609 533.5 330.64 530.739 327.027 530.739C323.549 530.739 320.788 533.364 320.14 537.386C319.475 541.511 321.436 544.273 325.049 544.273ZM325.083 542.466C322.458 542.466 321.674 540.216 322.083 537.659C322.518 534.966 324.231 532.545 326.993 532.545C329.618 532.545 330.402 534.83 329.993 537.386C329.558 540.088 327.845 542.466 325.083 542.466ZM337.256 536.125C337.665 533.841 339.267 532.545 341.211 532.545C343.086 532.545 344.006 533.773 343.665 535.818L342.301 544H344.313L345.711 535.682C346.256 532.341 344.722 530.739 342.097 530.739C340.12 530.739 338.722 531.625 337.904 532.955H337.733L338.074 530.909H336.131L333.949 544H335.961L337.256 536.125ZM360.193 544.273C362.86 544.273 365.008 542.943 365.954 540.966L364.113 540.42C363.372 541.784 362.11 542.466 360.5 542.466C357.977 542.466 356.63 541.341 357.116 538.136H366.636L366.772 537.284C367.599 532.409 364.974 530.739 362.238 530.739C358.701 530.739 355.872 533.534 355.216 537.557C354.542 541.58 356.417 544.273 360.193 544.273ZM357.397 536.398C357.798 534.54 359.733 532.545 361.931 532.545C364.122 532.545 365.247 534.182 364.863 536.398H357.397ZM368.754 544H370.765L372.129 535.818C372.436 533.909 374.072 532.545 375.64 532.545C377.174 532.545 378.061 533.534 377.822 535.034L376.322 544H378.368L379.799 535.477C380.072 533.773 381.333 532.545 383.174 532.545C384.606 532.545 385.697 533.295 385.39 535.239L383.924 544H385.936L387.402 535.239C387.913 532.17 386.481 530.739 384.163 530.739C382.288 530.739 380.754 531.591 379.868 532.955H379.731C379.322 531.557 378.299 530.739 376.595 530.739C374.89 530.739 373.493 531.557 372.708 532.955H372.538L372.879 530.909H370.936L368.754 544ZM389.613 544H391.625L393.806 530.909H391.795L389.613 544ZM393.414 528.693C394.199 528.693 394.846 528.08 394.846 527.33C394.846 526.58 394.199 525.966 393.414 525.966C392.63 525.966 391.983 526.58 391.983 527.33C391.983 528.08 392.63 528.693 393.414 528.693ZM406.286 533.841C405.945 531.966 404.752 530.739 402.161 530.739C399.4 530.739 397.081 532.307 396.706 534.523C396.4 536.33 397.286 537.523 399.604 538.102L401.684 538.614C402.979 538.92 403.49 539.534 403.32 540.455C403.15 541.58 401.786 542.5 399.911 542.5C398.275 542.5 397.354 541.784 397.252 540.386L395.24 540.864C395.343 543.08 396.979 544.273 399.672 544.273C402.706 544.273 405.059 542.602 405.434 540.352C405.74 538.511 404.786 537.386 402.536 536.807L400.661 536.33C399.195 535.955 398.581 535.409 398.752 534.42C398.922 533.295 400.252 532.477 401.854 532.477C403.627 532.477 404.172 533.432 404.377 534.352L406.286 533.841ZM418.825 533.841C418.484 531.966 417.291 530.739 414.7 530.739C411.939 530.739 409.62 532.307 409.245 534.523C408.939 536.33 409.825 537.523 412.143 538.102L414.223 538.614C415.518 538.92 416.029 539.534 415.859 540.455C415.689 541.58 414.325 542.5 412.45 542.5C410.814 542.5 409.893 541.784 409.791 540.386L407.779 540.864C407.882 543.08 409.518 544.273 412.211 544.273C415.245 544.273 417.598 542.602 417.973 540.352C418.279 538.511 417.325 537.386 415.075 536.807L413.2 536.33C411.734 535.955 411.12 535.409 411.291 534.42C411.461 533.295 412.791 532.477 414.393 532.477C416.166 532.477 416.711 533.432 416.916 534.352L418.825 533.841ZM420.387 544H422.398L424.58 530.909H422.569L420.387 544ZM424.188 528.693C424.972 528.693 425.62 528.08 425.62 527.33C425.62 526.58 424.972 525.966 424.188 525.966C423.404 525.966 422.756 526.58 422.756 527.33C422.756 528.08 423.404 528.693 424.188 528.693ZM431.502 544.273C434.98 544.273 437.741 541.648 438.389 537.659C439.062 533.5 437.093 530.739 433.48 530.739C430.002 530.739 427.241 533.364 426.593 537.386C425.929 541.511 427.889 544.273 431.502 544.273ZM431.537 542.466C428.912 542.466 428.127 540.216 428.537 537.659C428.971 534.966 430.684 532.545 433.446 532.545C436.071 532.545 436.855 534.83 436.446 537.386C436.011 540.088 434.298 542.466 431.537 542.466ZM443.709 536.125C444.118 533.841 445.721 532.545 447.664 532.545C449.539 532.545 450.459 533.773 450.118 535.818L448.755 544H450.766L452.164 535.682C452.709 532.341 451.175 530.739 448.55 530.739C446.573 530.739 445.175 531.625 444.357 532.955H444.186L444.527 530.909H442.584L440.402 544H442.414L443.709 536.125Z" fill="black"/>
<rect x="73.5" y="448.5" width="367" height="51" stroke="black" stroke-width="3"/>
<rect x="69" y="459" width="4" height="30" fill="white" stroke="black" stroke-width="2"/>
<rect x="441" y="459" width="4" height="30" fill="white" stroke="black" stroke-width="2"/>
<rect x="73" y="481" width="14" height="368" transform="rotate(-90 73 481)" fill="white" stroke="black" stroke-width="2"/>
<path d="M510.5 474L510.5 475.5L513.5 475.5L513.5 474L510.5 474ZM512 30L503.34 45L520.66 45L512 30ZM513.5 474L513.5 43.5L510.5 43.5L510.5 474L513.5 474Z" fill="black"/>
<path d="M512 472.5H510.5V475.5H512V472.5ZM988 474L973 465.34V482.66L988 474ZM512 475.5H974.5V472.5H512V475.5Z" fill="black"/>
<path d="M513 351C582.025 237.052 769.059 77.5244 965 351" stroke="#999999" stroke-width="3" stroke-dasharray="10 10"/>
<path d="M641 222.49H640V224.49H641V222.49ZM740 223.49L730 217.717V229.264L740 223.49ZM641 224.49H731V222.49H641V224.49Z" fill="black"/>
<circle cx="641" cy="224" r="6" fill="#2D9CDB"/>
<path d="M636.614 238.085C636.358 239.602 637.099 240.727 638.472 241.307L638.455 241.375C636.298 241.886 634.202 244.06 633.75 246.795L633.699 247.102C633.111 250.614 634.756 253.239 638.369 253.239C641.915 253.239 644.438 250.588 645.051 247.085L645.102 246.795C645.656 243.668 644.48 241.486 641.233 240.25C639.213 239.483 638.906 238.682 639.017 238.068C639.162 237.267 639.989 236.688 641.352 236.688C642.511 236.688 643.739 237.097 644.369 237.369L644.71 235.358C643.722 234.949 642.869 234.744 641.642 234.744C638.847 234.744 636.955 236.074 636.614 238.085ZM636.102 246.795C636.443 244.435 637.849 242.398 640.159 242.398C642.111 242.807 643.082 244.895 642.75 246.795L642.699 247.085C642.281 249.446 640.969 251.364 638.676 251.364C636.366 251.364 635.727 249.395 636.068 247.034L636.102 246.795ZM645.893 257.909H647.904L649.063 250.989H649.234C649.575 251.705 650.154 253.273 652.677 253.273C655.95 253.273 658.677 250.648 659.359 246.489C660.04 242.364 658.2 239.739 654.893 239.739C652.336 239.739 651.279 241.307 650.734 241.989H650.495L650.836 239.909H648.893L645.893 257.909ZM649.779 246.455C650.256 243.523 651.893 241.545 654.347 241.545C656.904 241.545 657.79 243.693 657.347 246.455C656.87 249.25 655.234 251.466 652.711 251.466C650.29 251.466 649.302 249.42 649.779 246.455ZM676.217 249.625H686.717L687.023 247.784H676.523L676.217 249.625ZM677.052 244.58H687.552L687.859 242.739H677.359L677.052 244.58Z" fill="black"/>
<path d="M666 249V261" stroke="black" stroke-width="2"/>
<path d="M671 249V261" stroke="black" stroke-width="2"/>
<path d="M598.821 185.085C598.565 186.602 599.306 187.727 600.679 188.307L600.662 188.375C598.505 188.886 596.409 191.06 595.957 193.795L595.906 194.102C595.318 197.614 596.963 200.239 600.576 200.239C604.122 200.239 606.645 197.588 607.258 194.085L607.309 193.795C607.863 190.668 606.687 188.486 603.44 187.25C601.42 186.483 601.113 185.682 601.224 185.068C601.369 184.267 602.196 183.688 603.559 183.688C604.718 183.688 605.946 184.097 606.576 184.369L606.917 182.358C605.929 181.949 605.076 181.744 603.849 181.744C601.054 181.744 599.162 183.074 598.821 185.085ZM598.309 193.795C598.65 191.435 600.056 189.398 602.366 189.398C604.318 189.807 605.289 191.895 604.957 193.795L604.906 194.085C604.488 196.446 603.176 198.364 600.883 198.364C598.574 198.364 597.934 196.395 598.275 194.034L598.309 193.795ZM608.1 204.909H610.111L611.27 197.989H611.441C611.782 198.705 612.361 200.273 614.884 200.273C618.157 200.273 620.884 197.648 621.566 193.489C622.248 189.364 620.407 186.739 617.1 186.739C614.543 186.739 613.486 188.307 612.941 188.989H612.702L613.043 186.909H611.1L608.1 204.909ZM611.986 193.455C612.463 190.523 614.1 188.545 616.554 188.545C619.111 188.545 619.998 190.693 619.554 193.455C619.077 196.25 617.441 198.466 614.918 198.466C612.498 198.466 611.509 196.42 611.986 193.455Z" fill="black"/>
<path d="M626 196V208" stroke="black" stroke-width="2"/>
<path d="M620 208H632" stroke="black" stroke-width="2"/>
<path d="M635.346 196.625H645.846L646.152 194.784H635.652L635.346 196.625ZM636.181 191.58H646.681L646.988 189.739H636.488L636.181 191.58ZM663.285 200.239C667.137 200.239 669.353 196.974 669.353 191.273C669.353 185.614 667.103 182.307 663.285 182.307C659.467 182.307 657.217 185.614 657.217 191.273C657.217 196.974 659.433 200.239 663.285 200.239ZM663.285 198.364C660.745 198.364 659.262 195.815 659.262 191.273C659.262 186.739 660.762 184.148 663.285 184.148C665.808 184.148 667.308 186.739 667.308 191.273C667.308 195.815 665.825 198.364 663.285 198.364Z" fill="black"/>
<path d="M551 484.565C567.977 484.565 558.224 501 574.478 501" stroke="black" stroke-width="3"/>
<path d="M597.957 484.565C580.98 484.565 590.732 501 574.478 501" stroke="black" stroke-width="3"/>
<path d="M597.957 484.565C615.782 484.565 605.542 501 622.609 501" stroke="black" stroke-width="3"/>
<path d="M646.087 484.565C629.11 484.565 638.863 501 622.609 501" stroke="black" stroke-width="3"/>
<path d="M646.087 484.565C663.064 484.565 653.311 501 669.565 501" stroke="black" stroke-width="3"/>
<path d="M693.043 484.565C676.067 484.565 685.819 501 669.565 501" stroke="black" stroke-width="3"/>
<path d="M693.043 484.565C710.02 484.565 700.268 501 716.522 501" stroke="black" stroke-width="3"/>
<path d="M740 484.565C723.023 484.565 732.776 501 716.522 501" stroke="black" stroke-width="3"/>
<path d="M740 463.435C723.023 463.435 732.776 447 716.522 447" stroke="black" stroke-width="3"/>
<path d="M693.043 463.435C710.02 463.435 700.268 447 716.522 447" stroke="black" stroke-width="3"/>
<path d="M693.043 463.435C676.067 463.435 685.819 447 669.565 447" stroke="black" stroke-width="3"/>
<path d="M646.087 463.435C663.064 463.435 653.311 447 669.565 447" stroke="black" stroke-width="3"/>
<path d="M646.087 463.435C629.11 463.435 638.863 447 622.609 447" stroke="black" stroke-width="3"/>
<path d="M597.957 463.435C615.782 463.435 605.542 447 622.609 447" stroke="black" stroke-width="3"/>
<path d="M597.957 463.435C580.98 463.435 590.732 447 574.478 447" stroke="black" stroke-width="3"/>
<path d="M551 463.435C567.977 463.435 558.224 447 574.478 447" stroke="black" stroke-width="3"/>
<path d="M740 484.565C756.977 484.565 747.224 501 763.478 501" stroke="black" stroke-width="3"/>
<path d="M786.957 484.565C769.98 484.565 779.732 501 763.478 501" stroke="black" stroke-width="3"/>
<path d="M786.957 484.565C803.933 484.565 794.181 501 810.435 501" stroke="black" stroke-width="3"/>
<path d="M833.913 484.565C816.936 484.565 826.689 501 810.435 501" stroke="black" stroke-width="3"/>
<path d="M833.913 484.565C850.89 484.565 841.137 501 857.391 501" stroke="black" stroke-width="3"/>
<path d="M880.87 484.565C863.893 484.565 873.646 501 857.391 501" stroke="black" stroke-width="3"/>
<path d="M880.87 484.565C897.846 484.565 888.094 501 904.348 501" stroke="black" stroke-width="3"/>
<path d="M929 484.565C911.175 484.565 921.415 501 904.348 501" stroke="black" stroke-width="3"/>
<path d="M929 463.435C911.175 463.435 921.415 447 904.348 447" stroke="black" stroke-width="3"/>
<path d="M880.87 463.435C897.846 463.435 888.094 447 904.348 447" stroke="black" stroke-width="3"/>
<path d="M880.87 463.435C863.893 463.435 873.646 447 857.391 447" stroke="black" stroke-width="3"/>
<path d="M833.913 463.435C850.89 463.435 841.137 447 857.391 447" stroke="black" stroke-width="3"/>
<path d="M833.913 463.435C816.936 463.435 826.689 447 810.435 447" stroke="black" stroke-width="3"/>
<path d="M786.957 463.435C803.933 463.435 794.181 447 810.435 447" stroke="black" stroke-width="3"/>
<path d="M786.957 463.435C769.98 463.435 779.732 447 763.478 447" stroke="black" stroke-width="3"/>
<path d="M740 463.435C756.977 463.435 747.224 447 763.478 447" stroke="black" stroke-width="3"/>
<path d="M539.914 38.6477C539.505 41.1023 537.459 42.2273 535.959 42.2273C534.289 42.2273 533.3 41 533.607 39.0909L534.971 30.9091H532.959L531.561 39.2273C531.016 42.5682 532.516 44.1705 534.971 44.1705C536.948 44.1705 538.448 43.1136 539.266 41.7841H539.402L539.027 44H541.039L543.221 30.9091H541.209L539.914 38.6477Z" fill="black"/>
<path d="M982.958 446.841C982.617 444.966 981.424 443.739 978.833 443.739C976.071 443.739 973.753 445.307 973.378 447.523C973.071 449.33 973.958 450.523 976.276 451.102L978.355 451.614C979.651 451.92 980.162 452.534 979.992 453.455C979.821 454.58 978.458 455.5 976.583 455.5C974.946 455.5 974.026 454.784 973.924 453.386L971.912 453.864C972.015 456.08 973.651 457.273 976.344 457.273C979.378 457.273 981.73 455.602 982.105 453.352C982.412 451.511 981.458 450.386 979.208 449.807L977.333 449.33C975.867 448.955 975.253 448.409 975.424 447.42C975.594 446.295 976.924 445.477 978.526 445.477C980.299 445.477 980.844 446.432 981.049 447.352L982.958 446.841Z" fill="black"/>
<path d="M583.128 544H593.799L594.105 542.125H585.549L586.537 536.193H594.412L594.719 534.318H586.844L587.833 528.42H596.253L596.56 526.545H586.026L583.128 544ZM600.506 536.125C600.915 533.841 602.517 532.545 604.461 532.545C606.336 532.545 607.256 533.773 606.915 535.818L605.551 544H607.563L608.961 535.682C609.506 532.341 607.972 530.739 605.347 530.739C603.37 530.739 601.972 531.625 601.154 532.955H600.983L601.324 530.909H599.381L597.199 544H599.211L600.506 536.125ZM616.693 544.273C619.36 544.273 621.508 542.943 622.454 540.966L620.613 540.42C619.872 541.784 618.61 542.466 617 542.466C614.477 542.466 613.13 541.341 613.616 538.136H623.136L623.272 537.284C624.099 532.409 621.474 530.739 618.738 530.739C615.201 530.739 612.372 533.534 611.716 537.557C611.042 541.58 612.917 544.273 616.693 544.273ZM613.897 536.398C614.298 534.54 616.233 532.545 618.431 532.545C620.622 532.545 621.747 534.182 621.363 536.398H613.897ZM625.254 544H627.265L628.629 535.716C628.936 533.943 630.538 532.648 632.447 532.648C632.993 532.648 633.538 532.75 633.674 532.784L634.015 530.739C633.777 530.705 633.265 530.705 632.958 530.705C631.39 530.705 629.856 531.591 629.174 532.886H629.038L629.379 530.909H627.436L625.254 544ZM638.298 549.182C641.417 549.182 644.179 547.75 644.741 544.375L646.957 530.909H645.014L644.673 532.989H644.468C644.145 532.307 643.582 530.739 641.025 530.739C637.718 530.739 635 533.364 634.343 537.386C633.662 541.477 635.664 543.795 638.843 543.795C641.392 543.795 642.457 542.295 643.002 541.58H643.173L642.764 544.239C642.389 546.42 640.633 547.409 638.537 547.409C636.133 547.409 635.571 546.156 635.162 545.432L633.355 546.557C633.96 547.929 635.358 549.182 638.298 549.182ZM639.355 541.989C636.815 541.989 635.903 540.08 636.355 537.352C636.798 534.693 638.315 532.545 640.889 532.545C643.326 532.545 644.392 534.523 643.923 537.352C643.446 540.25 641.758 541.989 639.355 541.989ZM648.951 548.909C650.724 548.909 652.19 547.989 653.315 545.892L661.343 530.909H659.076L653.724 541.375H653.588L651.713 530.909H649.616L652.241 544L651.679 545.023C650.588 547.009 649.735 547.273 648.338 546.898L647.52 548.67C647.707 548.773 648.27 548.909 648.951 548.909ZM673.056 549.182C676.175 549.182 678.936 547.75 679.499 544.375L681.715 530.909H679.772L679.431 532.989H679.226C678.902 532.307 678.34 530.739 675.783 530.739C672.476 530.739 669.757 533.364 669.101 537.386C668.419 541.477 670.422 543.795 673.601 543.795C676.15 543.795 677.215 542.295 677.76 541.58H677.931L677.522 544.239C677.147 546.42 675.391 547.409 673.294 547.409C670.891 547.409 670.328 546.156 669.919 545.432L668.113 546.557C668.718 547.929 670.115 549.182 673.056 549.182ZM674.113 541.989C671.573 541.989 670.661 540.08 671.113 537.352C671.556 534.693 673.073 532.545 675.647 532.545C678.084 532.545 679.15 534.523 678.681 537.352C678.203 540.25 676.516 541.989 674.113 541.989ZM687.033 544.307C689.317 544.307 690.715 543.08 691.26 542.227H691.363L691.056 544H693.067L694.499 535.375C695.181 531.216 692.113 530.739 690.442 530.739C688.465 530.739 686.078 531.42 684.681 533.807L686.453 534.489C687.067 533.534 688.363 532.511 690.272 532.511C692.113 532.511 692.794 533.5 692.522 535.17V535.239C692.351 536.193 691.363 536.125 688.942 536.432C686.453 536.739 683.726 537.284 683.215 540.284C682.806 542.841 684.544 544.307 687.033 544.307ZM687.613 542.5C686.01 542.5 684.988 541.784 685.226 540.386C685.465 538.852 686.965 538.375 688.567 538.17C689.419 538.068 691.738 537.83 692.147 537.42L691.84 539.261C691.567 540.898 689.999 542.5 687.613 542.5ZM696.738 544H698.75L700.931 530.909H698.92L696.738 544ZM700.539 528.693C701.324 528.693 701.971 528.08 701.971 527.33C701.971 526.58 701.324 525.966 700.539 525.966C699.755 525.966 699.108 526.58 699.108 527.33C699.108 528.08 699.755 528.693 700.539 528.693ZM705.74 536.125C706.15 533.841 707.752 532.545 709.695 532.545C711.57 532.545 712.49 533.773 712.15 535.818L710.786 544H712.797L714.195 535.682C714.74 532.341 713.206 530.739 710.581 530.739C708.604 530.739 707.206 531.625 706.388 532.955H706.218L706.559 530.909H704.615L702.434 544H704.445L705.74 536.125ZM726.189 544H728.166L732.7 533.943H732.904L734.098 544H736.075L742.245 530.909H740.132L735.632 540.898H735.495L734.404 530.909H732.257L727.791 540.932H727.654L726.495 530.909H724.382L726.189 544ZM742.723 544H744.734L746.916 530.909H744.904L742.723 544ZM746.524 528.693C747.308 528.693 747.956 528.08 747.956 527.33C747.956 526.58 747.308 525.966 746.524 525.966C745.74 525.966 745.092 526.58 745.092 527.33C745.092 528.08 745.74 528.693 746.524 528.693ZM756.293 530.909H753.489L754.009 527.773H751.998L751.478 530.909H749.509L749.236 532.614H751.196L749.85 540.795C749.475 543.08 751.111 544.17 752.816 544.17C753.566 544.17 754.077 544.034 754.384 543.932L754.248 542.125C754.077 542.159 753.804 542.227 753.361 542.227C752.475 542.227 751.657 541.955 751.929 540.25L753.199 532.614H756.02L756.293 530.909ZM760.725 536.125C761.134 533.841 762.804 532.545 764.782 532.545C766.657 532.545 767.611 533.739 767.27 535.818L765.907 544H767.918L769.316 535.682C769.861 532.307 768.327 530.739 765.668 530.739C763.588 530.739 762.259 531.591 761.441 532.955H761.27L762.327 526.545H760.316L757.418 544H759.429L760.725 536.125ZM771.598 544H773.609L775.791 530.909H773.779L771.598 544ZM775.399 528.693C776.183 528.693 776.831 528.08 776.831 527.33C776.831 526.58 776.183 525.966 775.399 525.966C774.615 525.966 773.967 526.58 773.967 527.33C773.967 528.08 774.615 528.693 775.399 528.693ZM780.6 536.125C781.009 533.841 782.611 532.545 784.554 532.545C786.429 532.545 787.35 533.773 787.009 535.818L785.645 544H787.657L789.054 535.682C789.6 532.341 788.066 530.739 785.441 530.739C783.463 530.739 782.066 531.625 781.248 532.955H781.077L781.418 530.909H779.475L777.293 544H779.304L780.6 536.125ZM805.957 530.909H803.153L803.673 527.773H801.662L801.142 530.909H799.173L798.9 532.614H800.86L799.514 540.795C799.139 543.08 800.775 544.17 802.48 544.17C803.23 544.17 803.741 544.034 804.048 543.932L803.912 542.125C803.741 542.159 803.468 542.227 803.025 542.227C802.139 542.227 801.321 541.955 801.593 540.25L802.863 532.614H805.684L805.957 530.909ZM810.389 536.125C810.798 533.841 812.468 532.545 814.446 532.545C816.321 532.545 817.275 533.739 816.934 535.818L815.571 544H817.582L818.98 535.682C819.525 532.307 817.991 530.739 815.332 530.739C813.252 530.739 811.923 531.591 811.105 532.955H810.934L811.991 526.545H809.98L807.082 544H809.093L810.389 536.125ZM826.716 544.273C829.384 544.273 831.532 542.943 832.478 540.966L830.637 540.42C829.895 541.784 828.634 542.466 827.023 542.466C824.5 542.466 823.154 541.341 823.64 538.136H833.159L833.296 537.284C834.123 532.409 831.498 530.739 828.762 530.739C825.225 530.739 822.395 533.534 821.739 537.557C821.066 541.58 822.941 544.273 826.716 544.273ZM823.921 536.398C824.321 534.54 826.256 532.545 828.455 532.545C830.645 532.545 831.77 534.182 831.387 536.398H823.921ZM847.311 544.273C850.201 544.273 852.382 542.5 853.141 540.182H851.13C850.507 541.614 849.178 542.466 847.618 542.466C845.223 542.466 843.996 540.489 844.516 537.455C844.985 534.489 846.894 532.545 849.255 532.545C851.019 532.545 851.905 533.636 852.016 534.83H854.027C854.087 532.375 852.28 530.739 849.527 530.739C845.973 530.739 843.144 533.534 842.505 537.523C841.848 541.443 843.621 544.273 847.311 544.273ZM859.252 544.307C861.536 544.307 862.934 543.08 863.479 542.227H863.581L863.275 544H865.286L866.718 535.375C867.4 531.216 864.331 530.739 862.661 530.739C860.684 530.739 858.297 531.42 856.9 533.807L858.672 534.489C859.286 533.534 860.581 532.511 862.49 532.511C864.331 532.511 865.013 533.5 864.74 535.17V535.239C864.57 536.193 863.581 536.125 861.161 536.432C858.672 536.739 855.945 537.284 855.434 540.284C855.025 542.841 856.763 544.307 859.252 544.307ZM859.831 542.5C858.229 542.5 857.206 541.784 857.445 540.386C857.684 538.852 859.184 538.375 860.786 538.17C861.638 538.068 863.956 537.83 864.365 537.42L864.059 539.261C863.786 540.898 862.218 542.5 859.831 542.5ZM881.375 530.909H879.108L873.755 541.341H873.619L871.744 530.909H869.647L872.306 544H874.352L881.375 530.909ZM881.848 544H883.859L886.041 530.909H884.029L881.848 544ZM885.649 528.693C886.433 528.693 887.081 528.08 887.081 527.33C887.081 526.58 886.433 525.966 885.649 525.966C884.865 525.966 884.217 526.58 884.217 527.33C884.217 528.08 884.865 528.693 885.649 528.693ZM895.418 530.909H892.614L893.134 527.773H891.123L890.603 530.909H888.634L888.361 532.614H890.321L888.975 540.795C888.6 543.08 890.236 544.17 891.941 544.17C892.691 544.17 893.202 544.034 893.509 543.932L893.373 542.125C893.202 542.159 892.929 542.227 892.486 542.227C891.6 542.227 890.782 541.955 891.054 540.25L892.324 532.614H895.145L895.418 530.909ZM896.756 548.909C898.529 548.909 899.995 547.989 901.12 545.892L909.148 530.909H906.881L901.529 541.375H901.392L899.517 530.909H897.421L900.046 544L899.483 545.023C898.392 547.009 897.54 547.273 896.142 546.898L895.324 548.67C895.512 548.773 896.074 548.909 896.756 548.909Z" fill="black"/>
<path d="M703.063 238.085C702.807 239.602 703.549 240.727 704.921 241.307L704.904 241.375C702.748 241.886 700.651 244.06 700.199 246.795L700.148 247.102C699.56 250.614 701.205 253.239 704.819 253.239C708.364 253.239 710.887 250.588 711.5 247.085L711.551 246.795C712.105 243.668 710.929 241.486 707.682 240.25C705.662 239.483 705.355 238.682 705.466 238.068C705.611 237.267 706.438 236.688 707.801 236.688C708.961 236.688 710.188 237.097 710.819 237.369L711.159 235.358C710.171 234.949 709.319 234.744 708.091 234.744C705.296 234.744 703.404 236.074 703.063 238.085ZM702.551 246.795C702.892 244.435 704.299 242.398 706.608 242.398C708.56 242.807 709.532 244.895 709.199 246.795L709.148 247.085C708.73 249.446 707.418 251.364 705.125 251.364C702.816 251.364 702.176 249.395 702.517 247.034L702.551 246.795ZM712.342 257.909H714.353L715.512 250.989H715.683C716.024 251.705 716.603 253.273 719.126 253.273C722.399 253.273 725.126 250.648 725.808 246.489C726.49 242.364 724.649 239.739 721.342 239.739C718.785 239.739 717.728 241.307 717.183 241.989H716.944L717.285 239.909H715.342L712.342 257.909ZM716.228 246.455C716.706 243.523 718.342 241.545 720.797 241.545C723.353 241.545 724.24 243.693 723.797 246.455C723.319 249.25 721.683 251.466 719.16 251.466C716.74 251.466 715.751 249.42 716.228 246.455ZM726.592 256H728.399L729.285 250.784C729.49 249.591 730.478 248.773 731.603 248.773C731.944 248.773 732.217 248.841 732.422 248.943L733.24 247.443C732.967 247.273 732.592 247.17 732.115 247.17C731.16 247.17 730.172 247.682 729.626 248.739H729.558L729.797 247.273H728.058L726.592 256ZM738.824 247.273H737.026L737.154 246.489C737.29 245.773 737.733 245.364 738.483 245.364C738.722 245.364 738.926 245.398 739.199 245.466L739.779 244.068C739.506 244 739.029 243.864 738.381 243.864C736.949 243.864 735.62 244.75 735.347 246.455L735.211 247.273H733.983L733.745 248.67H734.98L733.779 256H735.586L736.796 248.67H738.586L738.824 247.273Z" fill="black"/>
<path d="M1002 474L1002 476L1006 476L1006 474L1002 474ZM1004 30L992.453 50L1015.55 50L1004 30ZM1006 474L1006 48L1002 48L1002 474L1006 474Z" fill="black"/>
<path d="M1004 472H1002V476H1004V472ZM1480 474L1460 462.453V485.547L1480 474ZM1004 476H1462V472H1004V476Z" fill="black"/>
<path d="M1404 249L1409.77 239H1398.23L1404 249ZM1405 175V174H1403V175H1405ZM1405 240V175H1403V240H1405Z" fill="black"/>
<path d="M1286.01 189.085C1285.76 190.602 1286.5 191.727 1287.87 192.307L1287.85 192.375C1285.7 192.886 1283.6 195.06 1283.15 197.795L1283.1 198.102C1282.51 201.614 1284.15 204.239 1287.77 204.239C1291.31 204.239 1293.84 201.588 1294.45 198.085L1294.5 197.795C1295.05 194.668 1293.88 192.486 1290.63 191.25C1288.61 190.483 1288.3 189.682 1288.42 189.068C1288.56 188.267 1289.39 187.688 1290.75 187.688C1291.91 187.688 1293.14 188.097 1293.77 188.369L1294.11 186.358C1293.12 185.949 1292.27 185.744 1291.04 185.744C1288.25 185.744 1286.35 187.074 1286.01 189.085ZM1285.5 197.795C1285.84 195.435 1287.25 193.398 1289.56 193.398C1291.51 193.807 1292.48 195.895 1292.15 197.795L1292.1 198.085C1291.68 200.446 1290.37 202.364 1288.07 202.364C1285.76 202.364 1285.13 200.395 1285.47 198.034L1285.5 197.795ZM1295.29 208.909H1297.3L1298.46 201.989H1298.63C1298.97 202.705 1299.55 204.273 1302.08 204.273C1305.35 204.273 1308.08 201.648 1308.76 197.489C1309.44 193.364 1307.6 190.739 1304.29 190.739C1301.73 190.739 1300.68 192.307 1300.13 192.989H1299.89L1300.23 190.909H1298.29L1295.29 208.909ZM1299.18 197.455C1299.65 194.523 1301.29 192.545 1303.75 192.545C1306.3 192.545 1307.19 194.693 1306.75 197.455C1306.27 200.25 1304.63 202.466 1302.11 202.466C1299.69 202.466 1298.7 200.42 1299.18 197.455ZM1309 210.273H1310.8L1311.62 205.398H1311.69C1311.89 206.216 1312.51 207.17 1313.97 207.17C1316.05 207.17 1317.79 205.466 1318.27 202.568C1318.68 200.148 1317.72 198.17 1315.47 198.17C1314.08 198.17 1313.09 199.057 1312.61 199.943H1312.51L1312.78 198.273H1311.01L1309 210.273ZM1312.06 202.568C1312.34 200.864 1313.36 199.636 1314.72 199.636C1316.15 199.636 1316.7 200.898 1316.39 202.705C1316.12 204.409 1315.06 205.67 1313.7 205.67C1312.3 205.67 1311.76 204.443 1312.06 202.568ZM1322.12 201.75C1322.33 200.489 1323.32 199.705 1324.44 199.705C1325.57 199.705 1326.18 200.455 1325.98 201.682L1325.09 207H1326.9L1327.85 201.375C1328.19 199.398 1327.14 198.17 1325.36 198.17C1324.07 198.17 1323.05 198.784 1322.5 199.773H1322.4L1323.15 195.375H1321.38L1319.43 207H1321.24L1322.12 201.75Z" fill="black"/>
<path d="M1415.82 204.085C1415.56 205.602 1416.31 206.727 1417.68 207.307L1417.66 207.375C1415.51 207.886 1413.41 210.06 1412.96 212.795L1412.91 213.102C1412.32 216.614 1413.96 219.239 1417.58 219.239C1421.12 219.239 1423.64 216.588 1424.26 213.085L1424.31 212.795C1424.86 209.668 1423.69 207.486 1420.44 206.25C1418.42 205.483 1418.11 204.682 1418.22 204.068C1418.37 203.267 1419.2 202.688 1420.56 202.688C1421.72 202.688 1422.95 203.097 1423.58 203.369L1423.92 201.358C1422.93 200.949 1422.08 200.744 1420.85 200.744C1418.05 200.744 1416.16 202.074 1415.82 204.085ZM1415.31 212.795C1415.65 210.435 1417.06 208.398 1419.37 208.398C1421.32 208.807 1422.29 210.895 1421.96 212.795L1421.91 213.085C1421.49 215.446 1420.18 217.364 1417.88 217.364C1415.57 217.364 1414.93 215.395 1415.28 213.034L1415.31 212.795ZM1425.1 223.909H1427.11L1428.27 216.989H1428.44C1428.78 217.705 1429.36 219.273 1431.88 219.273C1435.16 219.273 1437.88 216.648 1438.57 212.489C1439.25 208.364 1437.41 205.739 1434.1 205.739C1431.54 205.739 1430.49 207.307 1429.94 207.989H1429.7L1430.04 205.909H1428.1L1425.1 223.909ZM1428.99 212.455C1429.46 209.523 1431.1 207.545 1433.55 207.545C1436.11 207.545 1437 209.693 1436.55 212.455C1436.08 215.25 1434.44 217.466 1431.92 217.466C1429.5 217.466 1428.51 215.42 1428.99 212.455Z" fill="black"/>
<path d="M1442 215V227" stroke="black" stroke-width="2"/>
<path d="M1437 227H1449" stroke="black" stroke-width="2"/>
<path d="M1034.91 38.6477C1034.5 41.1023 1032.46 42.2273 1030.96 42.2273C1029.29 42.2273 1028.3 41 1028.61 39.0909L1029.97 30.9091H1027.96L1026.56 39.2273C1026.02 42.5682 1027.52 44.1705 1029.97 44.1705C1031.95 44.1705 1033.45 43.1136 1034.27 41.7841H1034.4L1034.03 44H1036.04L1038.22 30.9091H1036.21L1034.91 38.6477Z" fill="black"/>
<path d="M1474.96 447.841C1474.62 445.966 1473.42 444.739 1470.83 444.739C1468.07 444.739 1465.75 446.307 1465.38 448.523C1465.07 450.33 1465.96 451.523 1468.28 452.102L1470.36 452.614C1471.65 452.92 1472.16 453.534 1471.99 454.455C1471.82 455.58 1470.46 456.5 1468.58 456.5C1466.95 456.5 1466.03 455.784 1465.92 454.386L1463.91 454.864C1464.01 457.08 1465.65 458.273 1468.34 458.273C1471.38 458.273 1473.73 456.602 1474.11 454.352C1474.41 452.511 1473.46 451.386 1471.21 450.807L1469.33 450.33C1467.87 449.955 1467.25 449.409 1467.42 448.42C1467.59 447.295 1468.92 446.477 1470.53 446.477C1472.3 446.477 1472.84 447.432 1473.05 448.352L1474.96 447.841Z" fill="black"/>
<path d="M1065.5 544H1067.61L1068.74 537.182H1072.55C1072.71 537.182 1072.85 537.182 1073 537.173L1075.55 544H1078.01L1075.25 536.79C1077.61 536.023 1078.95 534.199 1079.34 531.898C1079.85 528.795 1078.38 526.545 1074.29 526.545H1068.39L1065.5 544ZM1069.06 535.273L1070.2 528.42H1073.92C1076.75 528.42 1077.6 529.784 1077.26 531.898C1076.92 533.977 1075.62 535.273 1072.82 535.273H1069.06ZM1085.89 544.273C1088.56 544.273 1090.7 542.943 1091.65 540.966L1089.81 540.42C1089.07 541.784 1087.81 542.466 1086.19 542.466C1083.67 542.466 1082.33 541.341 1082.81 538.136H1092.33L1092.47 537.284C1093.29 532.409 1090.67 530.739 1087.93 530.739C1084.4 530.739 1081.57 533.534 1080.91 537.557C1080.24 541.58 1082.11 544.273 1085.89 544.273ZM1083.09 536.398C1083.49 534.54 1085.43 532.545 1087.63 532.545C1089.82 532.545 1090.94 534.182 1090.56 536.398H1083.09ZM1105.43 533.841C1105.09 531.966 1103.89 530.739 1101.3 530.739C1098.54 530.739 1096.22 532.307 1095.85 534.523C1095.54 536.33 1096.43 537.523 1098.74 538.102L1100.82 538.614C1102.12 538.92 1102.63 539.534 1102.46 540.455C1102.29 541.58 1100.93 542.5 1099.05 542.5C1097.42 542.5 1096.49 541.784 1096.39 540.386L1094.38 540.864C1094.48 543.08 1096.12 544.273 1098.81 544.273C1101.85 544.273 1104.2 542.602 1104.57 540.352C1104.88 538.511 1103.93 537.386 1101.68 536.807L1099.8 536.33C1098.34 535.955 1097.72 535.409 1097.89 534.42C1098.06 533.295 1099.39 532.477 1100.99 532.477C1102.77 532.477 1103.31 533.432 1103.52 534.352L1105.43 533.841ZM1116.12 538.648C1115.72 541.102 1113.67 542.227 1112.17 542.227C1110.5 542.227 1109.51 541 1109.82 539.091L1111.18 530.909H1109.17L1107.77 539.227C1107.23 542.568 1108.73 544.17 1111.18 544.17C1113.16 544.17 1114.66 543.114 1115.48 541.784H1115.61L1115.24 544H1117.25L1119.43 530.909H1117.42L1116.12 538.648ZM1125.84 526.545H1123.83L1120.93 544H1122.94L1125.84 526.545ZM1134.5 530.909H1131.7L1132.22 527.773H1130.21L1129.69 530.909H1127.72L1127.45 532.614H1129.41L1128.06 540.795C1127.69 543.08 1129.32 544.17 1131.03 544.17C1131.78 544.17 1132.29 544.034 1132.59 543.932L1132.46 542.125C1132.29 542.159 1132.02 542.227 1131.57 542.227C1130.69 542.227 1129.87 541.955 1130.14 540.25L1131.41 532.614H1134.23L1134.5 530.909ZM1135.35 544H1137.36L1139.54 530.909H1137.53L1135.35 544ZM1139.15 528.693C1139.93 528.693 1140.58 528.08 1140.58 527.33C1140.58 526.58 1139.93 525.966 1139.15 525.966C1138.36 525.966 1137.72 526.58 1137.72 527.33C1137.72 528.08 1138.36 528.693 1139.15 528.693ZM1144.35 536.125C1144.76 533.841 1146.36 532.545 1148.3 532.545C1150.18 532.545 1151.1 533.773 1150.76 535.818L1149.4 544H1151.41L1152.8 535.682C1153.35 532.341 1151.82 530.739 1149.19 530.739C1147.21 530.739 1145.82 531.625 1145 532.955H1144.83L1145.17 530.909H1143.22L1141.04 544H1143.05L1144.35 536.125ZM1159.55 549.182C1162.67 549.182 1165.43 547.75 1165.99 544.375L1168.21 530.909H1166.26L1165.92 532.989H1165.72C1165.39 532.307 1164.83 530.739 1162.28 530.739C1158.97 530.739 1156.25 533.364 1155.59 537.386C1154.91 541.477 1156.91 543.795 1160.09 543.795C1162.64 543.795 1163.71 542.295 1164.25 541.58H1164.42L1164.01 544.239C1163.64 546.42 1161.88 547.409 1159.79 547.409C1157.38 547.409 1156.82 546.156 1156.41 545.432L1154.6 546.557C1155.21 547.929 1156.61 549.182 1159.55 549.182ZM1160.6 541.989C1158.06 541.989 1157.15 540.08 1157.6 537.352C1158.05 534.693 1159.56 532.545 1162.14 532.545C1164.58 532.545 1165.64 534.523 1165.17 537.352C1164.7 540.25 1163.01 541.989 1160.6 541.989ZM1176.46 544H1178.47L1179.83 535.818C1180.14 533.909 1181.78 532.545 1183.34 532.545C1184.88 532.545 1185.76 533.534 1185.53 535.034L1184.03 544H1186.07L1187.5 535.477C1187.78 533.773 1189.04 532.545 1190.88 532.545C1192.31 532.545 1193.4 533.295 1193.09 535.239L1191.63 544H1193.64L1195.1 535.239C1195.62 532.17 1194.18 530.739 1191.87 530.739C1189.99 530.739 1188.46 531.591 1187.57 532.955H1187.43C1187.03 531.557 1186 530.739 1184.3 530.739C1182.59 530.739 1181.2 531.557 1180.41 532.955H1180.24L1180.58 530.909H1178.64L1176.46 544ZM1202.74 544.273C1206.21 544.273 1208.98 541.648 1209.62 537.659C1210.3 533.5 1208.33 530.739 1204.71 530.739C1201.24 530.739 1198.48 533.364 1197.83 537.386C1197.16 541.511 1199.12 544.273 1202.74 544.273ZM1202.77 542.466C1200.15 542.466 1199.36 540.216 1199.77 537.659C1200.21 534.966 1201.92 532.545 1204.68 532.545C1207.31 532.545 1208.09 534.83 1207.68 537.386C1207.25 540.088 1205.53 542.466 1202.77 542.466ZM1211.64 544H1213.65L1215.01 535.818C1215.32 533.909 1216.95 532.545 1218.52 532.545C1220.06 532.545 1220.94 533.534 1220.7 535.034L1219.2 544H1221.25L1222.68 535.477C1222.95 533.773 1224.22 532.545 1226.06 532.545C1227.49 532.545 1228.58 533.295 1228.27 535.239L1226.81 544H1228.82L1230.28 535.239C1230.8 532.17 1229.36 530.739 1227.05 530.739C1225.17 530.739 1223.64 531.591 1222.75 532.955H1222.61C1222.2 531.557 1221.18 530.739 1219.48 530.739C1217.77 530.739 1216.38 531.557 1215.59 532.955H1215.42L1215.76 530.909H1213.82L1211.64 544ZM1237.95 544.273C1240.62 544.273 1242.77 542.943 1243.71 540.966L1241.87 540.42C1241.13 541.784 1239.87 542.466 1238.26 542.466C1235.73 542.466 1234.39 541.341 1234.87 538.136H1244.39L1244.53 537.284C1245.36 532.409 1242.73 530.739 1240 530.739C1236.46 530.739 1233.63 533.534 1232.97 537.557C1232.3 541.58 1234.18 544.273 1237.95 544.273ZM1235.16 536.398C1235.56 534.54 1237.49 532.545 1239.69 532.545C1241.88 532.545 1243 534.182 1242.62 536.398H1235.16ZM1249.82 536.125C1250.23 533.841 1251.83 532.545 1253.77 532.545C1255.65 532.545 1256.57 533.773 1256.23 535.818L1254.86 544H1256.88L1258.27 535.682C1258.82 532.341 1257.28 530.739 1254.66 530.739C1252.68 530.739 1251.28 531.625 1250.47 532.955H1250.3L1250.64 530.909H1248.69L1246.51 544H1248.52L1249.82 536.125ZM1268.43 530.909H1265.62L1266.14 527.773H1264.13L1263.61 530.909H1261.64L1261.37 532.614H1263.33L1261.98 540.795C1261.61 543.08 1263.24 544.17 1264.95 544.17C1265.7 544.17 1266.21 544.034 1266.52 543.932L1266.38 542.125C1266.21 542.159 1265.94 542.227 1265.49 542.227C1264.61 542.227 1263.79 541.955 1264.06 540.25L1265.33 532.614H1268.15L1268.43 530.909ZM1278.41 538.648C1278 541.102 1275.95 542.227 1274.45 542.227C1272.78 542.227 1271.79 541 1272.1 539.091L1273.46 530.909H1271.45L1270.05 539.227C1269.51 542.568 1271.01 544.17 1273.46 544.17C1275.44 544.17 1276.94 543.114 1277.76 541.784H1277.89L1277.52 544H1279.53L1281.71 530.909H1279.7L1278.41 538.648ZM1283.21 544H1285.23L1286.59 535.818C1286.9 533.909 1288.53 532.545 1290.1 532.545C1291.64 532.545 1292.52 533.534 1292.28 535.034L1290.78 544H1292.83L1294.26 535.477C1294.53 533.773 1295.79 532.545 1297.64 532.545C1299.07 532.545 1300.16 533.295 1299.85 535.239L1298.39 544H1300.4L1301.86 535.239C1302.37 532.17 1300.94 530.739 1298.62 530.739C1296.75 530.739 1295.21 531.591 1294.33 532.955H1294.19C1293.78 531.557 1292.76 530.739 1291.06 530.739C1289.35 530.739 1287.95 531.557 1287.17 532.955H1287L1287.34 530.909H1285.4L1283.21 544ZM1323.71 530.909H1321.44L1316.09 541.341H1315.95L1314.08 530.909H1311.98L1314.64 544H1316.69L1323.71 530.909ZM1327.6 544.307C1329.89 544.307 1331.29 543.08 1331.83 542.227H1331.93L1331.63 544H1333.64L1335.07 535.375C1335.75 531.216 1332.68 530.739 1331.01 530.739C1329.04 530.739 1326.65 531.42 1325.25 533.807L1327.02 534.489C1327.64 533.534 1328.93 532.511 1330.84 532.511C1332.68 532.511 1333.36 533.5 1333.09 535.17V535.239C1332.92 536.193 1331.93 536.125 1329.51 536.432C1327.02 536.739 1324.3 537.284 1323.79 540.284C1323.38 542.841 1325.11 544.307 1327.6 544.307ZM1328.18 542.5C1326.58 542.5 1325.56 541.784 1325.8 540.386C1326.04 538.852 1327.54 538.375 1329.14 538.17C1329.99 538.068 1332.31 537.83 1332.72 537.42L1332.41 539.261C1332.14 540.898 1330.57 542.5 1328.18 542.5ZM1337.31 544H1339.32L1340.68 535.716C1340.99 533.943 1342.59 532.648 1344.5 532.648C1345.05 532.648 1345.59 532.75 1345.73 532.784L1346.07 530.739C1345.83 530.705 1345.32 530.705 1345.01 530.705C1343.44 530.705 1341.91 531.591 1341.23 532.886H1341.09L1341.43 530.909H1339.49L1337.31 544ZM1346.29 544H1348.3L1350.48 530.909H1348.47L1346.29 544ZM1350.09 528.693C1350.87 528.693 1351.52 528.08 1351.52 527.33C1351.52 526.58 1350.87 525.966 1350.09 525.966C1349.3 525.966 1348.65 526.58 1348.65 527.33C1348.65 528.08 1349.3 528.693 1350.09 528.693ZM1355.8 544.307C1358.08 544.307 1359.48 543.08 1360.03 542.227H1360.13L1359.82 544H1361.83L1363.26 535.375C1363.95 531.216 1360.88 530.739 1359.21 530.739C1357.23 530.739 1354.84 531.42 1353.45 533.807L1355.22 534.489C1355.83 533.534 1357.13 532.511 1359.04 532.511C1360.88 532.511 1361.56 533.5 1361.29 535.17V535.239C1361.12 536.193 1360.13 536.125 1357.71 536.432C1355.22 536.739 1352.49 537.284 1351.98 540.284C1351.57 542.841 1353.31 544.307 1355.8 544.307ZM1356.38 542.5C1354.78 542.5 1353.75 541.784 1353.99 540.386C1354.23 538.852 1355.73 538.375 1357.33 538.17C1358.19 538.068 1360.5 537.83 1360.91 537.42L1360.61 539.261C1360.33 540.898 1358.76 542.5 1356.38 542.5ZM1373.38 530.909H1370.57L1371.09 527.773H1369.08L1368.56 530.909H1366.59L1366.32 532.614H1368.28L1366.94 540.795C1366.56 543.08 1368.2 544.17 1369.9 544.17C1370.65 544.17 1371.16 544.034 1371.47 543.932L1371.33 542.125C1371.16 542.159 1370.89 542.227 1370.45 542.227C1369.56 542.227 1368.74 541.955 1369.02 540.25L1370.29 532.614H1373.11L1373.38 530.909ZM1374.22 544H1376.23L1378.42 530.909H1376.4L1374.22 544ZM1378.02 528.693C1378.81 528.693 1379.46 528.08 1379.46 527.33C1379.46 526.58 1378.81 525.966 1378.02 525.966C1377.24 525.966 1376.59 526.58 1376.59 527.33C1376.59 528.08 1377.24 528.693 1378.02 528.693ZM1385.34 544.273C1388.82 544.273 1391.58 541.648 1392.22 537.659C1392.9 533.5 1390.93 530.739 1387.32 530.739C1383.84 530.739 1381.08 533.364 1380.43 537.386C1379.76 541.511 1381.72 544.273 1385.34 544.273ZM1385.37 542.466C1382.75 542.466 1381.96 540.216 1382.37 537.659C1382.81 534.966 1384.52 532.545 1387.28 532.545C1389.91 532.545 1390.69 534.83 1390.28 537.386C1389.85 540.088 1388.13 542.466 1385.37 542.466ZM1397.55 536.125C1397.95 533.841 1399.56 532.545 1401.5 532.545C1403.37 532.545 1404.3 533.773 1403.95 535.818L1402.59 544H1404.6L1406 535.682C1406.55 532.341 1405.01 530.739 1402.39 530.739C1400.41 530.739 1399.01 531.625 1398.19 532.955H1398.02L1398.36 530.909H1396.42L1394.24 544H1396.25L1397.55 536.125Z" fill="black"/>
<path d="M1317.06 255.085C1316.81 256.602 1317.55 257.727 1318.92 258.307L1318.9 258.375C1316.75 258.886 1314.65 261.06 1314.2 263.795L1314.15 264.102C1313.56 267.614 1315.2 270.239 1318.82 270.239C1322.36 270.239 1324.89 267.588 1325.5 264.085L1325.55 263.795C1326.11 260.668 1324.93 258.486 1321.68 257.25C1319.66 256.483 1319.36 255.682 1319.47 255.068C1319.61 254.267 1320.44 253.688 1321.8 253.688C1322.96 253.688 1324.19 254.097 1324.82 254.369L1325.16 252.358C1324.17 251.949 1323.32 251.744 1322.09 251.744C1319.3 251.744 1317.4 253.074 1317.06 255.085ZM1316.55 263.795C1316.89 261.435 1318.3 259.398 1320.61 259.398C1322.56 259.807 1323.53 261.895 1323.2 263.795L1323.15 264.085C1322.73 266.446 1321.42 268.364 1319.13 268.364C1316.82 268.364 1316.18 266.395 1316.52 264.034L1316.55 263.795ZM1326.34 274.909H1328.35L1329.51 267.989H1329.68C1330.02 268.705 1330.6 270.273 1333.13 270.273C1336.4 270.273 1339.13 267.648 1339.81 263.489C1340.49 259.364 1338.65 256.739 1335.34 256.739C1332.79 256.739 1331.73 258.307 1331.18 258.989H1330.94L1331.29 256.909H1329.34L1326.34 274.909ZM1330.23 263.455C1330.71 260.523 1332.34 258.545 1334.8 258.545C1337.35 258.545 1338.24 260.693 1337.8 263.455C1337.32 266.25 1335.68 268.466 1333.16 268.466C1330.74 268.466 1329.75 266.42 1330.23 263.455ZM1340.59 273H1342.4L1343.29 267.784C1343.49 266.591 1344.48 265.773 1345.6 265.773C1345.94 265.773 1346.22 265.841 1346.42 265.943L1347.24 264.443C1346.97 264.273 1346.59 264.17 1346.11 264.17C1345.16 264.17 1344.17 264.682 1343.63 265.739H1343.56L1343.8 264.273H1342.06L1340.59 273ZM1352.82 264.273H1351.03L1351.15 263.489C1351.29 262.773 1351.73 262.364 1352.48 262.364C1352.72 262.364 1352.93 262.398 1353.2 262.466L1353.78 261.068C1353.51 261 1353.03 260.864 1352.38 260.864C1350.95 260.864 1349.62 261.75 1349.35 263.455L1349.21 264.273H1347.98L1347.74 265.67H1348.98L1347.78 273H1349.59L1350.8 265.67H1352.59L1352.82 264.273Z" fill="black"/>
<path d="M1003.4 473.2L1002.6 473.8L1003.8 475.4L1004.6 474.8L1003.4 473.2ZM1404 174L1392.54 175.381L1399.46 184.619L1404 174ZM1004.6 474.8L1397.4 180.2L1396.2 178.6L1003.4 473.2L1004.6 474.8Z" fill="#2D9CDB"/>
<path d="M1003.51 473.128L1002.64 473.619L1003.62 475.362L1004.49 474.872L1003.51 473.128ZM1404 249L1392.45 248.871L1398.11 258.935L1404 249ZM1004.49 474.872L1396.65 254.284L1395.67 252.541L1003.51 473.128L1004.49 474.872Z" fill="#2D9CDB"/>
<path d="M1390.59 175.804L1391.4 175.209L1390.21 173.601L1389.41 174.196L1390.59 175.804ZM1290 249L1301.47 247.693L1294.6 238.411L1290 249ZM1389.41 174.196L1296.64 242.843L1297.83 244.45L1390.59 175.804L1389.41 174.196Z" fill="black"/>
<path d="M1304 248H1303V250H1304V248ZM1404 249L1394 243.226V254.774L1404 249ZM1304 250H1395V248H1304V250Z" fill="black"/>
<path d="M1171.12 328.909H1173.13L1174.29 321.989H1174.46C1174.8 322.705 1175.38 324.273 1177.9 324.273C1181.18 324.273 1183.9 321.648 1184.59 317.489C1185.27 313.364 1183.43 310.739 1180.12 310.739C1177.56 310.739 1176.51 312.307 1175.96 312.989H1175.72L1176.06 310.909H1174.12L1171.12 328.909ZM1175.01 317.455C1175.48 314.523 1177.12 312.545 1179.57 312.545C1182.13 312.545 1183.02 314.693 1182.57 317.455C1182.1 320.25 1180.46 322.466 1177.94 322.466C1175.52 322.466 1174.53 320.42 1175.01 317.455Z" fill="black"/>
<path d="M1298 373V385" stroke="black" stroke-width="2"/>
<path d="M1293 385H1305" stroke="black" stroke-width="2"/>
<path d="M1225.17 381.909H1227.18L1228.34 374.989H1228.51C1228.85 375.705 1229.43 377.273 1231.95 377.273C1235.22 377.273 1237.95 374.648 1238.63 370.489C1239.31 366.364 1237.47 363.739 1234.17 363.739C1231.61 363.739 1230.55 365.307 1230.01 365.989H1229.77L1230.11 363.909H1228.17L1225.17 381.909ZM1229.05 370.455C1229.53 367.523 1231.17 365.545 1233.62 365.545C1236.18 365.545 1237.06 367.693 1236.62 370.455C1236.14 373.25 1234.51 375.466 1231.98 375.466C1229.56 375.466 1228.58 373.42 1229.05 370.455ZM1252.68 375.807H1254.6L1255.38 371.136H1260.02L1260.35 369.227H1255.69L1256.46 364.557H1254.54L1253.76 369.227H1249.1L1248.77 371.136H1253.45L1252.68 375.807ZM1272.79 362.085C1272.54 363.602 1273.28 364.727 1274.65 365.307L1274.63 365.375C1272.48 365.886 1270.38 368.06 1269.93 370.795L1269.88 371.102C1269.29 374.614 1270.94 377.239 1274.55 377.239C1278.09 377.239 1280.62 374.588 1281.23 371.085L1281.28 370.795C1281.84 367.668 1280.66 365.486 1277.41 364.25C1275.39 363.483 1275.09 362.682 1275.2 362.068C1275.34 361.267 1276.17 360.688 1277.53 360.688C1278.69 360.688 1279.92 361.097 1280.55 361.369L1280.89 359.358C1279.9 358.949 1279.05 358.744 1277.82 358.744C1275.03 358.744 1273.13 360.074 1272.79 362.085ZM1272.28 370.795C1272.62 368.435 1274.03 366.398 1276.34 366.398C1278.29 366.807 1279.26 368.895 1278.93 370.795L1278.88 371.085C1278.46 373.446 1277.15 375.364 1274.86 375.364C1272.55 375.364 1271.91 373.395 1272.25 371.034L1272.28 370.795ZM1282.07 381.909H1284.08L1285.24 374.989H1285.41C1285.75 375.705 1286.33 377.273 1288.86 377.273C1292.13 377.273 1294.86 374.648 1295.54 370.489C1296.22 366.364 1294.38 363.739 1291.07 363.739C1288.52 363.739 1287.46 365.307 1286.91 365.989H1286.67L1287.02 363.909H1285.07L1282.07 381.909ZM1285.96 370.455C1286.44 367.523 1288.07 365.545 1290.53 365.545C1293.08 365.545 1293.97 367.693 1293.53 370.455C1293.05 373.25 1291.41 375.466 1288.89 375.466C1286.47 375.466 1285.48 373.42 1285.96 370.455Z" fill="black"/>
</svg>
