<svg width="1100" height="560" viewBox="0 0 1100 560" fill="none" xmlns="http://www.w3.org/2000/svg">
<rect width="1100" height="560" fill="white"/>
<path d="M36.5 474L36.5 475.5L39.5 475.5L39.5 474L36.5 474ZM38 30L29.3398 45L46.6603 45L38 30ZM39.5 474L39.5 43.5L36.5 43.5L36.5 474L39.5 474Z" fill="black"/>
<path d="M38 472.5H36.5V475.5H38V472.5ZM514 474L499 465.34V482.66L514 474ZM38 475.5H500.5V472.5H38V475.5Z" fill="black"/>
<path d="M39 351C108.025 237.052 295.059 77.5244 491 351" stroke="#999999" stroke-width="3" stroke-dasharray="10 10"/>
<path d="M167 286L172.774 276H161.226L167 286ZM167 223H168V222H167V223ZM65 223L75 228.774V217.227L65 223ZM168 277V223H166V277H168ZM167 222H74V224H167V222Z" fill="black"/>
<path d="M164.518 227.345L165.373 226.827L164.337 225.117L163.482 225.635L164.518 227.345ZM65 286.49L76.5444 286.245L70.5596 276.37L65 286.49ZM163.482 225.635L72.1785 280.97L73.2151 282.681L164.518 227.345L163.482 225.635Z" fill="black"/>
<circle cx="167" cy="224" r="6" fill="#2D9CDB"/>
<path d="M170.954 219.98L175.598 216.888C177.56 218.443 179.604 219.776 183.344 217.616" stroke="black" stroke-width="2"/>
<path d="M183.344 217.616C191.74 212.769 181.889 206.845 189.928 202.203" stroke="black" stroke-width="2"/>
<path d="M189.928 202.203C198.324 197.356 198.529 208.849 206.568 204.208" stroke="black" stroke-width="2"/>
<path d="M206.568 204.208C214.964 199.361 205.113 193.436 213.152 188.795" stroke="black" stroke-width="2"/>
<path d="M213.152 188.795C221.548 183.948 221.753 195.441 229.792 190.8" stroke="black" stroke-width="2"/>
<path d="M229.792 190.8C238.188 185.952 228.336 180.028 236.375 175.387" stroke="black" stroke-width="2"/>
<path d="M236.375 175.387C244.772 170.539 244.976 182.033 253.015 177.392" stroke="black" stroke-width="2"/>
<path d="M253.015 177.392C257.362 174.882 256.818 172.085 256.398 169.326L261.051 166.232" stroke="black" stroke-width="2"/>
<path d="M266.713 162.693L263.532 171.103L257.839 161.243L266.713 162.693Z" fill="black"/>
<path d="M48.7923 260H63.7923L60.2809 242.545H58.0991L48.7923 260ZM51.9968 258.125L58.6786 245.307H58.815L61.2013 258.125H51.9968ZM65.4201 264.909H67.4315L68.5906 257.989H68.761C69.1019 258.705 69.6815 260.273 72.2042 260.273C75.4769 260.273 78.2042 257.648 78.886 253.489C79.5678 249.364 77.7269 246.739 74.4201 246.739C71.8633 246.739 70.8065 248.307 70.261 248.989H70.0224L70.3633 246.909H68.4201L65.4201 264.909ZM69.3065 253.455C69.7837 250.523 71.4201 248.545 73.8746 248.545C76.4315 248.545 77.3178 250.693 76.8746 253.455C76.3974 256.25 74.761 258.466 72.2383 258.466C69.8178 258.466 68.8292 256.42 69.3065 253.455ZM79.1246 266.273H80.9315L81.7496 261.398H81.8178C82.0224 262.216 82.636 263.17 84.1019 263.17C86.1815 263.17 87.9201 261.466 88.3974 258.568C88.8065 256.148 87.8519 254.17 85.6019 254.17C84.2042 254.17 83.2156 255.057 82.7383 255.943H82.636L82.9087 254.273H81.136L79.1246 266.273ZM82.1928 258.568C82.4656 256.864 83.4883 255.636 84.8519 255.636C86.2837 255.636 86.8292 256.898 86.5224 258.705C86.2496 260.409 85.1928 261.67 83.8292 261.67C82.4315 261.67 81.886 260.443 82.1928 258.568ZM92.2539 257.75C92.4585 256.489 93.4471 255.705 94.5721 255.705C95.6971 255.705 96.3107 256.455 96.1062 257.682L95.2198 263H97.0266L97.9812 257.375C98.3221 255.398 97.2653 254.17 95.4925 254.17C94.1971 254.17 93.1744 254.784 92.6289 255.773H92.5266L93.2766 251.375H91.5039L89.5607 263H91.3675L92.2539 257.75Z" fill="black"/>
<path d="M193.969 197.556L195.556 196.708L194.235 192.802L194.31 192.762C194.739 193.164 195.51 193.637 196.668 193.019C198.255 192.17 198.986 190.162 198.164 187.749C197.337 185.305 195.668 184.629 194.112 185.461C192.923 186.096 192.687 187.141 192.632 187.797L192.535 187.848L192.124 186.636L190.563 187.47L193.969 197.556ZM193.358 190.306C192.87 188.887 193.124 187.663 194.15 187.115C195.207 186.55 196.073 187.243 196.541 188.605C197.001 189.982 196.796 191.276 195.753 191.833C194.74 192.375 193.846 191.725 193.358 190.306ZM200.893 185.535C200.544 184.47 200.941 183.537 201.792 183.082C202.616 182.641 203.303 182.956 203.643 183.941L205.129 188.345L206.72 187.494L205.148 182.822C204.539 181.05 203.285 180.559 201.895 181.302C200.851 181.86 200.358 182.72 200.343 183.715L200.26 183.76L199.01 180.07L197.453 180.902L200.761 190.679L202.353 189.828L200.893 185.535ZM211.364 185.182C213.311 184.141 214.044 181.991 213.285 179.747C212.497 177.451 210.708 176.592 208.717 177.656C206.766 178.699 206.035 180.854 206.803 183.104C207.584 185.387 209.369 186.248 211.364 185.182ZM210.811 183.842C209.746 184.412 208.887 183.648 208.435 182.328C207.966 180.966 208.158 179.573 209.263 178.982C210.324 178.415 211.194 179.19 211.644 180.506C212.115 181.872 211.916 183.252 210.811 183.842ZM216.728 173.488L215.395 174.2L214.8 172.444L213.213 173.292L213.808 175.048L212.856 175.557L213.311 176.892L214.262 176.384L215.645 180.459C216.101 181.839 217.24 182.03 218.429 181.355C218.87 181.103 219.152 180.84 219.314 180.679L218.581 179.476C218.494 179.545 218.333 179.687 218.14 179.79C217.741 180.004 217.368 180.023 217.127 179.329L215.845 175.538L217.178 174.826L216.728 173.488ZM223.494 178.699C225.441 177.659 226.174 175.508 225.415 173.265C224.628 170.968 222.838 170.11 220.848 171.173C218.896 172.216 218.165 174.371 218.934 176.621C219.714 178.904 221.499 179.765 223.494 178.699ZM222.942 177.36C221.876 177.929 221.017 177.165 220.565 175.845C220.097 174.483 220.288 173.09 221.393 172.5C222.454 171.933 223.325 172.707 223.774 174.023C224.245 175.389 224.047 176.769 222.942 177.36ZM228.108 170.991C227.759 169.926 228.138 169.002 228.972 168.557C229.8 168.114 230.485 168.447 230.814 169.421L232.304 173.822L233.891 172.974L232.319 168.301C231.722 166.54 230.456 166.039 229.079 166.774C228.07 167.313 227.541 168.211 227.523 169.19L227.44 169.234L227.021 167.987L225.5 168.8L227.976 176.135L229.568 175.284L228.108 170.991Z" fill="black"/>
<path d="M108.119 212.909H110.131L111.29 205.989H111.46C111.801 206.705 112.381 208.273 114.903 208.273C118.176 208.273 120.903 205.648 121.585 201.489C122.267 197.364 120.426 194.739 117.119 194.739C114.562 194.739 113.506 196.307 112.96 196.989H112.722L113.062 194.909H111.119L108.119 212.909ZM112.006 201.455C112.483 198.523 114.119 196.545 116.574 196.545C119.131 196.545 120.017 198.693 119.574 201.455C119.097 204.25 117.46 206.466 114.938 206.466C112.517 206.466 111.528 204.42 112.006 201.455Z" fill="black"/>
<path d="M124 206V218" stroke="black" stroke-width="2"/>
<path d="M129 206V218" stroke="black" stroke-width="2"/>
<path d="M173.119 258.909H175.131L176.29 251.989H176.46C176.801 252.705 177.381 254.273 179.903 254.273C183.176 254.273 185.903 251.648 186.585 247.489C187.267 243.364 185.426 240.739 182.119 240.739C179.562 240.739 178.506 242.307 177.96 242.989H177.722L178.062 240.909H176.119L173.119 258.909ZM177.006 247.455C177.483 244.523 179.119 242.545 181.574 242.545C184.131 242.545 185.017 244.693 184.574 247.455C184.097 250.25 182.46 252.466 179.938 252.466C177.517 252.466 176.528 250.42 177.006 247.455Z" fill="black"/>
<path d="M190 251V263" stroke="black" stroke-width="2"/>
<path d="M184 263H196" stroke="black" stroke-width="2"/>
<path d="M584.5 474L584.5 475.5L587.5 475.5L587.5 474L584.5 474ZM586 30L577.34 45L594.66 45L586 30ZM587.5 474L587.5 43.5L584.5 43.5L584.5 474L587.5 474Z" fill="black"/>
<path d="M586 472.5H584.5V475.5H586V472.5ZM1062 474L1047 465.34V482.66L1062 474ZM586 475.5H1048.5V472.5H586V475.5Z" fill="black"/>
<path d="M587 351C656.025 237.052 843.059 77.5244 1039 351" stroke="#999999" stroke-width="3" stroke-dasharray="10 10"/>
<path d="M715 161.5L709.226 171.5H720.774L715 161.5ZM715 223.49H714V224.49H715V223.49ZM814 223.49L804 217.717V229.264L814 223.49ZM714 170.5V223.49H716V170.5H714ZM715 224.49H805V222.49H715V224.49Z" fill="black"/>
<circle cx="715" cy="224" r="6" fill="#2D9CDB"/>
<path d="M725.932 251.909H727.943L729.102 244.989H729.273C729.614 245.705 730.193 247.273 732.716 247.273C735.989 247.273 738.716 244.648 739.398 240.489C740.08 236.364 738.239 233.739 734.932 233.739C732.375 233.739 731.318 235.307 730.773 235.989H730.534L730.875 233.909H728.932L725.932 251.909ZM729.818 240.455C730.295 237.523 731.932 235.545 734.386 235.545C736.943 235.545 737.83 237.693 737.386 240.455C736.909 243.25 735.273 245.466 732.75 245.466C730.33 245.466 729.341 243.42 729.818 240.455ZM756.256 243.625H766.756L767.062 241.784H756.562L756.256 243.625ZM757.091 238.58H767.591L767.898 236.739H757.398L757.091 238.58Z" fill="black"/>
<path d="M742 243V255" stroke="black" stroke-width="2"/>
<path d="M747 243V255" stroke="black" stroke-width="2"/>
<path d="M688.119 203.909H690.131L691.29 196.989H691.46C691.801 197.705 692.381 199.273 694.903 199.273C698.176 199.273 700.903 196.648 701.585 192.489C702.267 188.364 700.426 185.739 697.119 185.739C694.562 185.739 693.506 187.307 692.96 187.989H692.722L693.062 185.909H691.119L688.119 203.909ZM692.006 192.455C692.483 189.523 694.119 187.545 696.574 187.545C699.131 187.545 700.017 189.693 699.574 192.455C699.097 195.25 697.46 197.466 694.938 197.466C692.517 197.466 691.528 195.42 692.006 192.455Z" fill="black"/>
<path d="M705 196V208" stroke="black" stroke-width="2"/>
<path d="M699 208H711" stroke="black" stroke-width="2"/>
<path d="M625 484.565C641.977 484.565 632.224 501 648.478 501" stroke="black" stroke-width="3"/>
<path d="M671.957 484.565C654.98 484.565 664.732 501 648.478 501" stroke="black" stroke-width="3"/>
<path d="M671.957 484.565C689.782 484.565 679.542 501 696.609 501" stroke="black" stroke-width="3"/>
<path d="M720.087 484.565C703.11 484.565 712.863 501 696.609 501" stroke="black" stroke-width="3"/>
<path d="M720.087 484.565C737.064 484.565 727.311 501 743.565 501" stroke="black" stroke-width="3"/>
<path d="M767.043 484.565C750.067 484.565 759.819 501 743.565 501" stroke="black" stroke-width="3"/>
<path d="M767.043 484.565C784.02 484.565 774.268 501 790.522 501" stroke="black" stroke-width="3"/>
<path d="M814 484.565C797.023 484.565 806.776 501 790.522 501" stroke="black" stroke-width="3"/>
<path d="M814 463.435C797.023 463.435 806.776 447 790.522 447" stroke="black" stroke-width="3"/>
<path d="M767.043 463.435C784.02 463.435 774.268 447 790.522 447" stroke="black" stroke-width="3"/>
<path d="M767.043 463.435C750.067 463.435 759.819 447 743.565 447" stroke="black" stroke-width="3"/>
<path d="M720.087 463.435C737.064 463.435 727.311 447 743.565 447" stroke="black" stroke-width="3"/>
<path d="M720.087 463.435C703.11 463.435 712.863 447 696.609 447" stroke="black" stroke-width="3"/>
<path d="M671.957 463.435C689.782 463.435 679.542 447 696.609 447" stroke="black" stroke-width="3"/>
<path d="M671.957 463.435C654.98 463.435 664.732 447 648.478 447" stroke="black" stroke-width="3"/>
<path d="M625 463.435C641.977 463.435 632.224 447 648.478 447" stroke="black" stroke-width="3"/>
<path d="M814 484.565C830.977 484.565 821.224 501 837.478 501" stroke="black" stroke-width="3"/>
<path d="M860.957 484.565C843.98 484.565 853.732 501 837.478 501" stroke="black" stroke-width="3"/>
<path d="M860.957 484.565C877.933 484.565 868.181 501 884.435 501" stroke="black" stroke-width="3"/>
<path d="M907.913 484.565C890.936 484.565 900.689 501 884.435 501" stroke="black" stroke-width="3"/>
<path d="M907.913 484.565C924.89 484.565 915.137 501 931.391 501" stroke="black" stroke-width="3"/>
<path d="M954.87 484.565C937.893 484.565 947.646 501 931.391 501" stroke="black" stroke-width="3"/>
<path d="M954.87 484.565C971.846 484.565 962.094 501 978.348 501" stroke="black" stroke-width="3"/>
<path d="M1003 484.565C985.175 484.565 995.415 501 978.348 501" stroke="black" stroke-width="3"/>
<path d="M1003 463.435C985.175 463.435 995.415 447 978.348 447" stroke="black" stroke-width="3"/>
<path d="M954.87 463.435C971.846 463.435 962.094 447 978.348 447" stroke="black" stroke-width="3"/>
<path d="M954.87 463.435C937.893 463.435 947.646 447 931.391 447" stroke="black" stroke-width="3"/>
<path d="M907.913 463.435C924.89 463.435 915.137 447 931.391 447" stroke="black" stroke-width="3"/>
<path d="M907.913 463.435C890.936 463.435 900.689 447 884.435 447" stroke="black" stroke-width="3"/>
<path d="M860.957 463.435C877.933 463.435 868.181 447 884.435 447" stroke="black" stroke-width="3"/>
<path d="M860.957 463.435C843.98 463.435 853.732 447 837.478 447" stroke="black" stroke-width="3"/>
<path d="M814 463.435C830.977 463.435 821.224 447 837.478 447" stroke="black" stroke-width="3"/>
<path d="M68.9137 38.6477C68.5046 41.1023 66.4592 42.2273 64.9592 42.2273C63.2887 42.2273 62.3001 41 62.6069 39.0909L63.9705 30.9091H61.9592L60.5614 39.2273C60.016 42.5682 61.516 44.1705 63.9705 44.1705C65.9478 44.1705 67.4478 43.1136 68.266 41.7841H68.4023L68.0273 44H70.0387L72.2205 30.9091H70.2092L68.9137 38.6477Z" fill="black"/>
<path d="M508.958 447.841C508.617 445.966 507.424 444.739 504.833 444.739C502.071 444.739 499.753 446.307 499.378 448.523C499.071 450.33 499.958 451.523 502.276 452.102L504.355 452.614C505.651 452.92 506.162 453.534 505.992 454.455C505.821 455.58 504.458 456.5 502.583 456.5C500.946 456.5 500.026 455.784 499.924 454.386L497.912 454.864C498.015 457.08 499.651 458.273 502.344 458.273C505.378 458.273 507.73 456.602 508.105 454.352C508.412 452.511 507.458 451.386 505.208 450.807L503.333 450.33C501.867 449.955 501.253 449.409 501.424 448.42C501.594 447.295 502.924 446.477 504.526 446.477C506.299 446.477 506.844 447.432 507.049 448.352L508.958 447.841Z" fill="black"/>
<path d="M613.914 38.6477C613.505 41.1023 611.459 42.2273 609.959 42.2273C608.289 42.2273 607.3 41 607.607 39.0909L608.971 30.9091H606.959L605.561 39.2273C605.016 42.5682 606.516 44.1705 608.971 44.1705C610.948 44.1705 612.448 43.1136 613.266 41.7841H613.402L613.027 44H615.039L617.221 30.9091H615.209L613.914 38.6477Z" fill="black"/>
<path d="M1056.96 446.841C1056.62 444.966 1055.42 443.739 1052.83 443.739C1050.07 443.739 1047.75 445.307 1047.38 447.523C1047.07 449.33 1047.96 450.523 1050.28 451.102L1052.36 451.614C1053.65 451.92 1054.16 452.534 1053.99 453.455C1053.82 454.58 1052.46 455.5 1050.58 455.5C1048.95 455.5 1048.03 454.784 1047.92 453.386L1045.91 453.864C1046.01 456.08 1047.65 457.273 1050.34 457.273C1053.38 457.273 1055.73 455.602 1056.11 453.352C1056.41 451.511 1055.46 450.386 1053.21 449.807L1051.33 449.33C1049.87 448.955 1049.25 448.409 1049.42 447.42C1049.59 446.295 1050.92 445.477 1052.53 445.477C1054.3 445.477 1054.84 446.432 1055.05 447.352L1056.96 446.841Z" fill="black"/>
<path d="M682.465 535.113H675.293L674.238 541.16H682.582L682.254 543H671.719L674.684 525.938H685.102L684.773 527.789H676.559L675.609 533.273H682.781L682.465 535.113ZM688.957 530.309L688.652 531.914C689.793 530.664 691.09 530.055 692.543 530.086C693.738 530.117 694.621 530.531 695.191 531.328C695.762 532.125 695.973 533.246 695.824 534.691L694.441 543H692.32L693.715 534.656C693.762 534.273 693.766 533.918 693.727 533.59C693.594 532.496 692.949 531.938 691.793 531.914C690.52 531.891 689.402 532.57 688.441 533.953L686.871 543H684.75L686.953 530.32L688.957 530.309ZM703.195 543.234C701.617 543.203 700.383 542.621 699.492 541.488C698.602 540.355 698.227 538.906 698.367 537.141L698.426 536.637C698.559 535.379 698.93 534.23 699.539 533.191C700.156 532.152 700.906 531.371 701.789 530.848C702.672 530.316 703.625 530.062 704.648 530.086C705.953 530.117 706.977 530.551 707.719 531.387C708.461 532.223 708.867 533.355 708.938 534.785C708.961 535.293 708.945 535.801 708.891 536.309L708.762 537.281H700.477C700.336 538.43 700.523 539.406 701.039 540.211C701.562 541.016 702.34 541.434 703.371 541.465C704.621 541.496 705.777 540.934 706.84 539.777L708.059 540.809C707.527 541.574 706.84 542.176 705.996 542.613C705.16 543.043 704.227 543.25 703.195 543.234ZM704.543 531.855C703.668 531.832 702.902 532.129 702.246 532.746C701.598 533.363 701.082 534.281 700.699 535.5L706.863 535.512L706.91 535.324C707.035 534.34 706.875 533.523 706.43 532.875C705.992 532.219 705.363 531.879 704.543 531.855ZM718.043 532.254L717.047 532.148C715.688 532.148 714.617 532.762 713.836 533.988L712.277 543H710.156L712.359 530.32L714.41 530.309L714.094 531.785C714.992 530.605 716.051 530.031 717.27 530.062C717.527 530.062 717.863 530.121 718.277 530.238L718.043 532.254ZM718.535 536.637C718.723 535.254 719.094 534.055 719.648 533.039C720.211 532.016 720.891 531.262 721.688 530.777C722.492 530.285 723.371 530.051 724.324 530.074C725.793 530.105 726.902 530.66 727.652 531.738L728.074 530.32H730.02L727.91 542.73C727.684 544.348 727.027 545.641 725.941 546.609C724.855 547.586 723.516 548.051 721.922 548.004C721.062 547.988 720.238 547.785 719.449 547.395C718.668 547.004 718.051 546.469 717.598 545.789L718.805 544.488C719.57 545.621 720.582 546.203 721.84 546.234C722.848 546.266 723.699 545.984 724.395 545.391C725.098 544.797 725.562 543.953 725.789 542.859L726.023 541.734C724.992 542.766 723.785 543.266 722.402 543.234C721.613 543.211 720.926 543 720.34 542.602C719.762 542.195 719.312 541.613 718.992 540.855C718.672 540.09 718.496 539.238 718.465 538.301C718.449 537.84 718.473 537.285 718.535 536.637ZM720.586 537.844C720.562 538.961 720.754 539.828 721.16 540.445C721.574 541.055 722.195 541.375 723.023 541.406C724.289 541.438 725.379 540.816 726.293 539.543L727.289 533.719C726.82 532.562 725.973 531.961 724.746 531.914C723.598 531.883 722.652 532.352 721.91 533.32C721.176 534.289 720.742 535.598 720.609 537.246L720.586 537.844ZM735.656 539.801L740.168 530.32H742.512L734.988 545.109C733.941 547.164 732.598 548.18 730.957 548.156C730.668 548.148 730.242 548.078 729.68 547.945L729.867 546.188L730.418 546.246C731.09 546.277 731.668 546.125 732.152 545.789C732.645 545.461 733.078 544.926 733.453 544.184L734.215 542.73L732.023 530.32H734.238L735.656 539.801ZM748.746 536.637C748.934 535.254 749.305 534.055 749.859 533.039C750.422 532.016 751.102 531.262 751.898 530.777C752.703 530.285 753.582 530.051 754.535 530.074C756.004 530.105 757.113 530.66 757.863 531.738L758.285 530.32H760.23L758.121 542.73C757.895 544.348 757.238 545.641 756.152 546.609C755.066 547.586 753.727 548.051 752.133 548.004C751.273 547.988 750.449 547.785 749.66 547.395C748.879 547.004 748.262 546.469 747.809 545.789L749.016 544.488C749.781 545.621 750.793 546.203 752.051 546.234C753.059 546.266 753.91 545.984 754.605 545.391C755.309 544.797 755.773 543.953 756 542.859L756.234 541.734C755.203 542.766 753.996 543.266 752.613 543.234C751.824 543.211 751.137 543 750.551 542.602C749.973 542.195 749.523 541.613 749.203 540.855C748.883 540.09 748.707 539.238 748.676 538.301C748.66 537.84 748.684 537.285 748.746 536.637ZM750.797 537.844C750.773 538.961 750.965 539.828 751.371 540.445C751.785 541.055 752.406 541.375 753.234 541.406C754.5 541.438 755.59 540.816 756.504 539.543L757.5 533.719C757.031 532.562 756.184 531.961 754.957 531.914C753.809 531.883 752.863 532.352 752.121 533.32C751.387 534.289 750.953 535.598 750.82 537.246L750.797 537.844ZM769.078 543C769.023 542.773 768.996 542.551 768.996 542.332L769.031 541.664C767.867 542.742 766.633 543.266 765.328 543.234C764.211 543.219 763.301 542.867 762.598 542.18C761.902 541.484 761.586 540.617 761.648 539.578C761.727 538.234 762.312 537.188 763.406 536.438C764.508 535.68 765.953 535.301 767.742 535.301L769.957 535.312L770.098 534.305C770.176 533.547 770.027 532.949 769.652 532.512C769.285 532.066 768.73 531.836 767.988 531.82C767.262 531.805 766.617 531.984 766.055 532.359C765.5 532.727 765.16 533.215 765.035 533.824L762.902 533.836C762.973 533.094 763.262 532.438 763.77 531.867C764.277 531.289 764.93 530.844 765.727 530.531C766.523 530.211 767.348 530.059 768.199 530.074C769.52 530.105 770.547 530.508 771.281 531.281C772.016 532.047 772.324 533.066 772.207 534.34L771.176 540.621L771.117 541.523C771.102 541.953 771.148 542.379 771.258 542.801L771.234 543H769.078ZM765.75 541.359C766.43 541.375 767.07 541.215 767.672 540.879C768.281 540.535 768.805 540.062 769.242 539.461L769.699 536.848L768.094 536.836C766.758 536.836 765.734 537.047 765.023 537.469C764.312 537.891 763.91 538.488 763.816 539.262C763.746 539.855 763.883 540.352 764.227 540.75C764.578 541.141 765.086 541.344 765.75 541.359ZM776.414 543H774.305L776.508 530.32H778.617L776.414 543ZM778.16 525.691C778.52 525.676 778.816 525.785 779.051 526.02C779.293 526.246 779.414 526.547 779.414 526.922C779.406 527.289 779.285 527.59 779.051 527.824C778.824 528.059 778.527 528.184 778.16 528.199C777.793 528.215 777.492 528.109 777.258 527.883C777.023 527.656 776.91 527.359 776.918 526.992C776.926 526.625 777.043 526.32 777.27 526.078C777.496 525.836 777.793 525.707 778.16 525.691ZM784.09 530.309L783.785 531.914C784.926 530.664 786.223 530.055 787.676 530.086C788.871 530.117 789.754 530.531 790.324 531.328C790.895 532.125 791.105 533.246 790.957 534.691L789.574 543H787.453L788.848 534.656C788.895 534.273 788.898 533.918 788.859 533.59C788.727 532.496 788.082 531.938 786.926 531.914C785.652 531.891 784.535 532.57 783.574 533.953L782.004 543H779.883L782.086 530.32L784.09 530.309ZM810.105 540L814.148 530.32H816.34L810.562 543H808.84L807.527 533.414L802.957 543H801.234L799.863 530.32H801.891L802.664 539.766L807.164 530.32H808.875L810.105 540ZM818.648 543H816.539L818.742 530.32H820.852L818.648 543ZM820.395 525.691C820.754 525.676 821.051 525.785 821.285 526.02C821.527 526.246 821.648 526.547 821.648 526.922C821.641 527.289 821.52 527.59 821.285 527.824C821.059 528.059 820.762 528.184 820.395 528.199C820.027 528.215 819.727 528.109 819.492 527.883C819.258 527.656 819.145 527.359 819.152 526.992C819.16 526.625 819.277 526.32 819.504 526.078C819.73 525.836 820.027 525.707 820.395 525.691ZM827.719 527.25L827.18 530.32H829.488L829.195 531.996H826.898L825.574 539.883C825.551 540.086 825.547 540.273 825.562 540.445C825.617 541.055 825.949 541.359 826.559 541.359C826.816 541.359 827.16 541.32 827.59 541.242L827.426 543.012C826.918 543.152 826.402 543.223 825.879 543.223C825.035 543.207 824.402 542.898 823.98 542.297C823.559 541.688 823.395 540.871 823.488 539.848L824.777 531.996H822.539L822.832 530.32H825.07L825.609 527.25H827.719ZM833.812 531.867C834.922 530.656 836.199 530.066 837.645 530.098C838.832 530.113 839.711 530.523 840.281 531.328C840.859 532.125 841.074 533.246 840.926 534.691L839.543 543H837.422L838.816 534.656C838.863 534.273 838.867 533.918 838.828 533.59C838.695 532.496 838.051 531.938 836.895 531.914C835.598 531.883 834.48 532.562 833.543 533.953L831.973 543H829.852L832.98 525H835.102L833.812 531.867ZM845.086 543H842.977L845.18 530.32H847.289L845.086 543ZM846.832 525.691C847.191 525.676 847.488 525.785 847.723 526.02C847.965 526.246 848.086 526.547 848.086 526.922C848.078 527.289 847.957 527.59 847.723 527.824C847.496 528.059 847.199 528.184 846.832 528.199C846.465 528.215 846.164 528.109 845.93 527.883C845.695 527.656 845.582 527.359 845.59 526.992C845.598 526.625 845.715 526.32 845.941 526.078C846.168 525.836 846.465 525.707 846.832 525.691ZM852.762 530.309L852.457 531.914C853.598 530.664 854.895 530.055 856.348 530.086C857.543 530.117 858.426 530.531 858.996 531.328C859.566 532.125 859.777 533.246 859.629 534.691L858.246 543H856.125L857.52 534.656C857.566 534.273 857.57 533.918 857.531 533.59C857.398 532.496 856.754 531.938 855.598 531.914C854.324 531.891 853.207 532.57 852.246 533.953L850.676 543H848.555L850.758 530.32L852.762 530.309ZM873 527.25L872.461 530.32H874.77L874.477 531.996H872.18L870.855 539.883C870.832 540.086 870.828 540.273 870.844 540.445C870.898 541.055 871.23 541.359 871.84 541.359C872.098 541.359 872.441 541.32 872.871 541.242L872.707 543.012C872.199 543.152 871.684 543.223 871.16 543.223C870.316 543.207 869.684 542.898 869.262 542.297C868.84 541.688 868.676 540.871 868.77 539.848L870.059 531.996H867.82L868.113 530.32H870.352L870.891 527.25H873ZM879.094 531.867C880.203 530.656 881.48 530.066 882.926 530.098C884.113 530.113 884.992 530.523 885.562 531.328C886.141 532.125 886.355 533.246 886.207 534.691L884.824 543H882.703L884.098 534.656C884.145 534.273 884.148 533.918 884.109 533.59C883.977 532.496 883.332 531.938 882.176 531.914C880.879 531.883 879.762 532.562 878.824 533.953L877.254 543H875.133L878.262 525H880.383L879.094 531.867ZM893.555 543.234C891.977 543.203 890.742 542.621 889.852 541.488C888.961 540.355 888.586 538.906 888.727 537.141L888.785 536.637C888.918 535.379 889.289 534.23 889.898 533.191C890.516 532.152 891.266 531.371 892.148 530.848C893.031 530.316 893.984 530.062 895.008 530.086C896.312 530.117 897.336 530.551 898.078 531.387C898.82 532.223 899.227 533.355 899.297 534.785C899.32 535.293 899.305 535.801 899.25 536.309L899.121 537.281H890.836C890.695 538.43 890.883 539.406 891.398 540.211C891.922 541.016 892.699 541.434 893.73 541.465C894.98 541.496 896.137 540.934 897.199 539.777L898.418 540.809C897.887 541.574 897.199 542.176 896.355 542.613C895.52 543.043 894.586 543.25 893.555 543.234ZM894.902 531.855C894.027 531.832 893.262 532.129 892.605 532.746C891.957 533.363 891.441 534.281 891.059 535.5L897.223 535.512L897.27 535.324C897.395 534.34 897.234 533.523 896.789 532.875C896.352 532.219 895.723 531.879 894.902 531.855ZM911.754 541.477C912.512 541.492 913.195 541.273 913.805 540.82C914.414 540.359 914.812 539.758 915 539.016L917.004 539.004C916.887 539.801 916.566 540.527 916.043 541.184C915.527 541.84 914.875 542.352 914.086 542.719C913.297 543.086 912.488 543.258 911.66 543.234C910.605 543.219 909.711 542.945 908.977 542.414C908.25 541.875 907.715 541.129 907.371 540.176C907.027 539.215 906.91 538.137 907.02 536.941L907.078 536.355C907.227 535.137 907.582 534.047 908.145 533.086C908.707 532.125 909.441 531.379 910.348 530.848C911.254 530.309 912.254 530.055 913.348 530.086C914.676 530.117 915.738 530.562 916.535 531.422C917.332 532.281 917.73 533.371 917.73 534.691L915.75 534.68C915.734 533.852 915.504 533.184 915.059 532.676C914.613 532.16 914.012 531.887 913.254 531.855C912.152 531.832 911.234 532.242 910.5 533.086C909.773 533.93 909.32 535.109 909.141 536.625L909.105 536.93C909.059 537.43 909.051 537.945 909.082 538.477C909.137 539.391 909.395 540.113 909.855 540.645C910.316 541.176 910.949 541.453 911.754 541.477ZM926.461 543C926.406 542.773 926.379 542.551 926.379 542.332L926.414 541.664C925.25 542.742 924.016 543.266 922.711 543.234C921.594 543.219 920.684 542.867 919.98 542.18C919.285 541.484 918.969 540.617 919.031 539.578C919.109 538.234 919.695 537.188 920.789 536.438C921.891 535.68 923.336 535.301 925.125 535.301L927.34 535.312L927.48 534.305C927.559 533.547 927.41 532.949 927.035 532.512C926.668 532.066 926.113 531.836 925.371 531.82C924.645 531.805 924 531.984 923.438 532.359C922.883 532.727 922.543 533.215 922.418 533.824L920.285 533.836C920.355 533.094 920.645 532.438 921.152 531.867C921.66 531.289 922.312 530.844 923.109 530.531C923.906 530.211 924.73 530.059 925.582 530.074C926.902 530.105 927.93 530.508 928.664 531.281C929.398 532.047 929.707 533.066 929.59 534.34L928.559 540.621L928.5 541.523C928.484 541.953 928.531 542.379 928.641 542.801L928.617 543H926.461ZM923.133 541.359C923.812 541.375 924.453 541.215 925.055 540.879C925.664 540.535 926.188 540.062 926.625 539.461L927.082 536.848L925.477 536.836C924.141 536.836 923.117 537.047 922.406 537.469C921.695 537.891 921.293 538.488 921.199 539.262C921.129 539.855 921.266 540.352 921.609 540.75C921.961 541.141 922.469 541.344 923.133 541.359ZM935.918 540.035L940.488 530.32H942.727L936.34 543H934.723L932.238 530.32H934.324L935.918 540.035ZM945 543H942.891L945.094 530.32H947.203L945 543ZM946.746 525.691C947.105 525.676 947.402 525.785 947.637 526.02C947.879 526.246 948 526.547 948 526.922C947.992 527.289 947.871 527.59 947.637 527.824C947.41 528.059 947.113 528.184 946.746 528.199C946.379 528.215 946.078 528.109 945.844 527.883C945.609 527.656 945.496 527.359 945.504 526.992C945.512 526.625 945.629 526.32 945.855 526.078C946.082 525.836 946.379 525.707 946.746 525.691ZM954.07 527.25L953.531 530.32H955.84L955.547 531.996H953.25L951.926 539.883C951.902 540.086 951.898 540.273 951.914 540.445C951.969 541.055 952.301 541.359 952.91 541.359C953.168 541.359 953.512 541.32 953.941 541.242L953.777 543.012C953.27 543.152 952.754 543.223 952.23 543.223C951.387 543.207 950.754 542.898 950.332 542.297C949.91 541.688 949.746 540.871 949.84 539.848L951.129 531.996H948.891L949.184 530.32H951.422L951.961 527.25H954.07ZM960.75 539.801L965.262 530.32H967.605L960.082 545.109C959.035 547.164 957.691 548.18 956.051 548.156C955.762 548.148 955.336 548.078 954.773 547.945L954.961 546.188L955.512 546.246C956.184 546.277 956.762 546.125 957.246 545.789C957.738 545.461 958.172 544.926 958.547 544.184L959.309 542.73L957.117 530.32H959.332L960.75 539.801Z" fill="black"/>
<path d="M95.5664 535.113H88.3945L87.3398 541.16H95.6836L95.3555 543H84.8203L87.7852 525.938H98.2031L97.875 527.789H89.6602L88.7109 533.273H95.8828L95.5664 535.113ZM102.059 530.309L101.754 531.914C102.895 530.664 104.191 530.055 105.645 530.086C106.84 530.117 107.723 530.531 108.293 531.328C108.863 532.125 109.074 533.246 108.926 534.691L107.543 543H105.422L106.816 534.656C106.863 534.273 106.867 533.918 106.828 533.59C106.695 532.496 106.051 531.938 104.895 531.914C103.621 531.891 102.504 532.57 101.543 533.953L99.9727 543H97.8516L100.055 530.32L102.059 530.309ZM116.297 543.234C114.719 543.203 113.484 542.621 112.594 541.488C111.703 540.355 111.328 538.906 111.469 537.141L111.527 536.637C111.66 535.379 112.031 534.23 112.641 533.191C113.258 532.152 114.008 531.371 114.891 530.848C115.773 530.316 116.727 530.062 117.75 530.086C119.055 530.117 120.078 530.551 120.82 531.387C121.562 532.223 121.969 533.355 122.039 534.785C122.062 535.293 122.047 535.801 121.992 536.309L121.863 537.281H113.578C113.438 538.43 113.625 539.406 114.141 540.211C114.664 541.016 115.441 541.434 116.473 541.465C117.723 541.496 118.879 540.934 119.941 539.777L121.16 540.809C120.629 541.574 119.941 542.176 119.098 542.613C118.262 543.043 117.328 543.25 116.297 543.234ZM117.645 531.855C116.77 531.832 116.004 532.129 115.348 532.746C114.699 533.363 114.184 534.281 113.801 535.5L119.965 535.512L120.012 535.324C120.137 534.34 119.977 533.523 119.531 532.875C119.094 532.219 118.465 531.879 117.645 531.855ZM131.145 532.254L130.148 532.148C128.789 532.148 127.719 532.762 126.938 533.988L125.379 543H123.258L125.461 530.32L127.512 530.309L127.195 531.785C128.094 530.605 129.152 530.031 130.371 530.062C130.629 530.062 130.965 530.121 131.379 530.238L131.145 532.254ZM131.637 536.637C131.824 535.254 132.195 534.055 132.75 533.039C133.312 532.016 133.992 531.262 134.789 530.777C135.594 530.285 136.473 530.051 137.426 530.074C138.895 530.105 140.004 530.66 140.754 531.738L141.176 530.32H143.121L141.012 542.73C140.785 544.348 140.129 545.641 139.043 546.609C137.957 547.586 136.617 548.051 135.023 548.004C134.164 547.988 133.34 547.785 132.551 547.395C131.77 547.004 131.152 546.469 130.699 545.789L131.906 544.488C132.672 545.621 133.684 546.203 134.941 546.234C135.949 546.266 136.801 545.984 137.496 545.391C138.199 544.797 138.664 543.953 138.891 542.859L139.125 541.734C138.094 542.766 136.887 543.266 135.504 543.234C134.715 543.211 134.027 543 133.441 542.602C132.863 542.195 132.414 541.613 132.094 540.855C131.773 540.09 131.598 539.238 131.566 538.301C131.551 537.84 131.574 537.285 131.637 536.637ZM133.688 537.844C133.664 538.961 133.855 539.828 134.262 540.445C134.676 541.055 135.297 541.375 136.125 541.406C137.391 541.438 138.48 540.816 139.395 539.543L140.391 533.719C139.922 532.562 139.074 531.961 137.848 531.914C136.699 531.883 135.754 532.352 135.012 533.32C134.277 534.289 133.844 535.598 133.711 537.246L133.688 537.844ZM148.758 539.801L153.27 530.32H155.613L148.09 545.109C147.043 547.164 145.699 548.18 144.059 548.156C143.77 548.148 143.344 548.078 142.781 547.945L142.969 546.188L143.52 546.246C144.191 546.277 144.77 546.125 145.254 545.789C145.746 545.461 146.18 544.926 146.555 544.184L147.316 542.73L145.125 530.32H147.34L148.758 539.801ZM163.523 543H161.414L164.531 525H166.652L163.523 543ZM174.035 530.086C175.098 530.102 176.008 530.391 176.766 530.953C177.523 531.516 178.082 532.293 178.441 533.285C178.809 534.27 178.934 535.348 178.816 536.52L178.793 536.777C178.645 538.012 178.277 539.129 177.691 540.129C177.105 541.121 176.348 541.895 175.418 542.449C174.488 543.004 173.469 543.266 172.359 543.234C171.305 543.219 170.395 542.93 169.629 542.367C168.871 541.805 168.316 541.039 167.965 540.07C167.613 539.102 167.488 538.035 167.59 536.871C167.707 535.559 168.062 534.379 168.656 533.332C169.25 532.285 170.012 531.477 170.941 530.906C171.879 530.328 172.91 530.055 174.035 530.086ZM169.723 536.883C169.668 537.375 169.668 537.887 169.723 538.418C169.801 539.34 170.074 540.074 170.543 540.621C171.02 541.168 171.652 541.453 172.441 541.477C173.145 541.5 173.793 541.328 174.387 540.961C174.98 540.586 175.48 540.023 175.887 539.273C176.293 538.523 176.555 537.691 176.672 536.777C176.734 536.059 176.746 535.453 176.707 534.961C176.613 534.016 176.328 533.27 175.852 532.723C175.375 532.176 174.742 531.887 173.953 531.855C172.859 531.832 171.93 532.262 171.164 533.145C170.398 534.027 169.926 535.184 169.746 536.613L169.723 536.883ZM188.25 539.566C188.367 538.691 187.887 538.074 186.809 537.715L184.605 537.07C182.746 536.43 181.848 535.367 181.91 533.883C181.965 532.766 182.473 531.852 183.434 531.141C184.402 530.422 185.539 530.07 186.844 530.086C188.125 530.102 189.164 530.477 189.961 531.211C190.766 531.938 191.152 532.887 191.121 534.059L189.012 534.047C189.027 533.414 188.828 532.898 188.414 532.5C188 532.102 187.449 531.895 186.762 531.879C186.027 531.863 185.395 532.043 184.863 532.418C184.371 532.77 184.086 533.23 184.008 533.801C183.906 534.535 184.355 535.07 185.355 535.406L186.422 535.699C187.875 536.074 188.906 536.562 189.516 537.164C190.125 537.766 190.406 538.512 190.359 539.402C190.312 540.191 190.055 540.879 189.586 541.465C189.117 542.051 188.492 542.5 187.711 542.812C186.93 543.117 186.098 543.258 185.215 543.234C183.871 543.219 182.762 542.828 181.887 542.062C181.012 541.289 180.59 540.297 180.621 539.086L182.742 539.098C182.742 539.809 182.969 540.379 183.422 540.809C183.875 541.238 184.496 541.453 185.285 541.453C186.059 541.469 186.727 541.309 187.289 540.973C187.852 540.629 188.172 540.16 188.25 539.566ZM200.367 539.566C200.484 538.691 200.004 538.074 198.926 537.715L196.723 537.07C194.863 536.43 193.965 535.367 194.027 533.883C194.082 532.766 194.59 531.852 195.551 531.141C196.52 530.422 197.656 530.07 198.961 530.086C200.242 530.102 201.281 530.477 202.078 531.211C202.883 531.938 203.27 532.887 203.238 534.059L201.129 534.047C201.145 533.414 200.945 532.898 200.531 532.5C200.117 532.102 199.566 531.895 198.879 531.879C198.145 531.863 197.512 532.043 196.98 532.418C196.488 532.77 196.203 533.23 196.125 533.801C196.023 534.535 196.473 535.07 197.473 535.406L198.539 535.699C199.992 536.074 201.023 536.562 201.633 537.164C202.242 537.766 202.523 538.512 202.477 539.402C202.43 540.191 202.172 540.879 201.703 541.465C201.234 542.051 200.609 542.5 199.828 542.812C199.047 543.117 198.215 543.258 197.332 543.234C195.988 543.219 194.879 542.828 194.004 542.062C193.129 541.289 192.707 540.297 192.738 539.086L194.859 539.098C194.859 539.809 195.086 540.379 195.539 540.809C195.992 541.238 196.613 541.453 197.402 541.453C198.176 541.469 198.844 541.309 199.406 540.973C199.969 540.629 200.289 540.16 200.367 539.566ZM211.125 536.637C211.281 535.348 211.637 534.184 212.191 533.145C212.746 532.105 213.43 531.328 214.242 530.812C215.055 530.297 215.949 530.051 216.926 530.074C218.34 530.105 219.426 530.621 220.184 531.621L221.402 525H223.523L220.406 543H218.473L218.695 541.641C217.695 542.734 216.461 543.266 214.992 543.234C213.82 543.203 212.887 542.746 212.191 541.863C211.496 540.973 211.121 539.781 211.066 538.289C211.043 537.828 211.062 537.277 211.125 536.637ZM213.164 537.855C213.141 538.973 213.34 539.84 213.762 540.457C214.184 541.074 214.801 541.391 215.613 541.406C216.84 541.461 217.93 540.844 218.883 539.555L219.891 533.695C219.422 532.539 218.57 531.945 217.336 531.914C216.5 531.891 215.762 532.145 215.121 532.676C214.488 533.199 214.004 533.938 213.668 534.891C213.34 535.836 213.172 536.824 213.164 537.855ZM231.809 541.746C230.816 542.77 229.555 543.266 228.023 543.234C226.812 543.203 225.914 542.77 225.328 541.934C224.75 541.098 224.535 539.957 224.684 538.512L226.043 530.32H228.164L226.793 538.547C226.754 538.891 226.746 539.227 226.77 539.555C226.809 540.117 226.977 540.559 227.273 540.879C227.57 541.199 227.984 541.371 228.516 541.395C230.031 541.441 231.203 540.828 232.031 539.555L233.625 530.32H235.746L233.543 543H231.539L231.809 541.746ZM242.203 543.234C240.625 543.203 239.391 542.621 238.5 541.488C237.609 540.355 237.234 538.906 237.375 537.141L237.434 536.637C237.566 535.379 237.938 534.23 238.547 533.191C239.164 532.152 239.914 531.371 240.797 530.848C241.68 530.316 242.633 530.062 243.656 530.086C244.961 530.117 245.984 530.551 246.727 531.387C247.469 532.223 247.875 533.355 247.945 534.785C247.969 535.293 247.953 535.801 247.898 536.309L247.77 537.281H239.484C239.344 538.43 239.531 539.406 240.047 540.211C240.57 541.016 241.348 541.434 242.379 541.465C243.629 541.496 244.785 540.934 245.848 539.777L247.066 540.809C246.535 541.574 245.848 542.176 245.004 542.613C244.168 543.043 243.234 543.25 242.203 543.234ZM243.551 531.855C242.676 531.832 241.91 532.129 241.254 532.746C240.605 533.363 240.09 534.281 239.707 535.5L245.871 535.512L245.918 535.324C246.043 534.34 245.883 533.523 245.438 532.875C245 532.219 244.371 531.879 243.551 531.855ZM260.648 527.25L260.109 530.32H262.418L262.125 531.996H259.828L258.504 539.883C258.48 540.086 258.477 540.273 258.492 540.445C258.547 541.055 258.879 541.359 259.488 541.359C259.746 541.359 260.09 541.32 260.52 541.242L260.355 543.012C259.848 543.152 259.332 543.223 258.809 543.223C257.965 543.207 257.332 542.898 256.91 542.297C256.488 541.688 256.324 540.871 256.418 539.848L257.707 531.996H255.469L255.762 530.32H258L258.539 527.25H260.648ZM269.59 530.086C270.652 530.102 271.562 530.391 272.32 530.953C273.078 531.516 273.637 532.293 273.996 533.285C274.363 534.27 274.488 535.348 274.371 536.52L274.348 536.777C274.199 538.012 273.832 539.129 273.246 540.129C272.66 541.121 271.902 541.895 270.973 542.449C270.043 543.004 269.023 543.266 267.914 543.234C266.859 543.219 265.949 542.93 265.184 542.367C264.426 541.805 263.871 541.039 263.52 540.07C263.168 539.102 263.043 538.035 263.145 536.871C263.262 535.559 263.617 534.379 264.211 533.332C264.805 532.285 265.566 531.477 266.496 530.906C267.434 530.328 268.465 530.055 269.59 530.086ZM265.277 536.883C265.223 537.375 265.223 537.887 265.277 538.418C265.355 539.34 265.629 540.074 266.098 540.621C266.574 541.168 267.207 541.453 267.996 541.477C268.699 541.5 269.348 541.328 269.941 540.961C270.535 540.586 271.035 540.023 271.441 539.273C271.848 538.523 272.109 537.691 272.227 536.777C272.289 536.059 272.301 535.453 272.262 534.961C272.168 534.016 271.883 533.27 271.406 532.723C270.93 532.176 270.297 531.887 269.508 531.855C268.414 531.832 267.484 532.262 266.719 533.145C265.953 534.027 265.48 535.184 265.301 536.613L265.277 536.883ZM293.32 536.719C293.164 538.008 292.816 539.168 292.277 540.199C291.738 541.23 291.07 542.004 290.273 542.52C289.477 543.027 288.594 543.27 287.625 543.246C286.156 543.215 285.031 542.719 284.25 541.758L283.113 547.875H280.992L284.039 530.32L285.961 530.309L285.727 531.727C286.773 530.602 288.027 530.055 289.488 530.086C290.707 530.117 291.656 530.566 292.336 531.434C293.016 532.301 293.375 533.496 293.414 535.02C293.422 535.52 293.402 536.004 293.355 536.473L293.32 536.719ZM291.234 536.473L291.293 535.488C291.293 534.348 291.074 533.477 290.637 532.875C290.207 532.266 289.582 531.945 288.762 531.914C287.535 531.883 286.477 532.465 285.586 533.66L284.52 539.742C284.996 540.867 285.852 541.445 287.086 541.477C288.141 541.5 289.035 541.09 289.77 540.246C290.512 539.395 291 538.137 291.234 536.473ZM298.992 531.867C300.102 530.656 301.379 530.066 302.824 530.098C304.012 530.113 304.891 530.523 305.461 531.328C306.039 532.125 306.254 533.246 306.105 534.691L304.723 543H302.602L303.996 534.656C304.043 534.273 304.047 533.918 304.008 533.59C303.875 532.496 303.23 531.938 302.074 531.914C300.777 531.883 299.66 532.562 298.723 533.953L297.152 543H295.031L298.16 525H300.281L298.992 531.867ZM315.012 530.086C316.074 530.102 316.984 530.391 317.742 530.953C318.5 531.516 319.059 532.293 319.418 533.285C319.785 534.27 319.91 535.348 319.793 536.52L319.77 536.777C319.621 538.012 319.254 539.129 318.668 540.129C318.082 541.121 317.324 541.895 316.395 542.449C315.465 543.004 314.445 543.266 313.336 543.234C312.281 543.219 311.371 542.93 310.605 542.367C309.848 541.805 309.293 541.039 308.941 540.07C308.59 539.102 308.465 538.035 308.566 536.871C308.684 535.559 309.039 534.379 309.633 533.332C310.227 532.285 310.988 531.477 311.918 530.906C312.855 530.328 313.887 530.055 315.012 530.086ZM310.699 536.883C310.645 537.375 310.645 537.887 310.699 538.418C310.777 539.34 311.051 540.074 311.52 540.621C311.996 541.168 312.629 541.453 313.418 541.477C314.121 541.5 314.77 541.328 315.363 540.961C315.957 540.586 316.457 540.023 316.863 539.273C317.27 538.523 317.531 537.691 317.648 536.777C317.711 536.059 317.723 535.453 317.684 534.961C317.59 534.016 317.305 533.27 316.828 532.723C316.352 532.176 315.719 531.887 314.93 531.855C313.836 531.832 312.906 532.262 312.141 533.145C311.375 534.027 310.902 535.184 310.723 536.613L310.699 536.883ZM326.977 527.25L326.438 530.32H328.746L328.453 531.996H326.156L324.832 539.883C324.809 540.086 324.805 540.273 324.82 540.445C324.875 541.055 325.207 541.359 325.816 541.359C326.074 541.359 326.418 541.32 326.848 541.242L326.684 543.012C326.176 543.152 325.66 543.223 325.137 543.223C324.293 543.207 323.66 542.898 323.238 542.297C322.816 541.688 322.652 540.871 322.746 539.848L324.035 531.996H321.797L322.09 530.32H324.328L324.867 527.25H326.977ZM335.918 530.086C336.98 530.102 337.891 530.391 338.648 530.953C339.406 531.516 339.965 532.293 340.324 533.285C340.691 534.27 340.816 535.348 340.699 536.52L340.676 536.777C340.527 538.012 340.16 539.129 339.574 540.129C338.988 541.121 338.23 541.895 337.301 542.449C336.371 543.004 335.352 543.266 334.242 543.234C333.188 543.219 332.277 542.93 331.512 542.367C330.754 541.805 330.199 541.039 329.848 540.07C329.496 539.102 329.371 538.035 329.473 536.871C329.59 535.559 329.945 534.379 330.539 533.332C331.133 532.285 331.895 531.477 332.824 530.906C333.762 530.328 334.793 530.055 335.918 530.086ZM331.605 536.883C331.551 537.375 331.551 537.887 331.605 538.418C331.684 539.34 331.957 540.074 332.426 540.621C332.902 541.168 333.535 541.453 334.324 541.477C335.027 541.5 335.676 541.328 336.27 540.961C336.863 540.586 337.363 540.023 337.77 539.273C338.176 538.523 338.438 537.691 338.555 536.777C338.617 536.059 338.629 535.453 338.59 534.961C338.496 534.016 338.211 533.27 337.734 532.723C337.258 532.176 336.625 531.887 335.836 531.855C334.742 531.832 333.812 532.262 333.047 533.145C332.281 534.027 331.809 535.184 331.629 536.613L331.605 536.883ZM346.488 530.309L346.184 531.914C347.324 530.664 348.621 530.055 350.074 530.086C351.27 530.117 352.152 530.531 352.723 531.328C353.293 532.125 353.504 533.246 353.355 534.691L351.973 543H349.852L351.246 534.656C351.293 534.273 351.297 533.918 351.258 533.59C351.125 532.496 350.48 531.938 349.324 531.914C348.051 531.891 346.934 532.57 345.973 533.953L344.402 543H342.281L344.484 530.32L346.488 530.309ZM366.609 543.234C365.031 543.203 363.797 542.621 362.906 541.488C362.016 540.355 361.641 538.906 361.781 537.141L361.84 536.637C361.973 535.379 362.344 534.23 362.953 533.191C363.57 532.152 364.32 531.371 365.203 530.848C366.086 530.316 367.039 530.062 368.062 530.086C369.367 530.117 370.391 530.551 371.133 531.387C371.875 532.223 372.281 533.355 372.352 534.785C372.375 535.293 372.359 535.801 372.305 536.309L372.176 537.281H363.891C363.75 538.43 363.938 539.406 364.453 540.211C364.977 541.016 365.754 541.434 366.785 541.465C368.035 541.496 369.191 540.934 370.254 539.777L371.473 540.809C370.941 541.574 370.254 542.176 369.41 542.613C368.574 543.043 367.641 543.25 366.609 543.234ZM367.957 531.855C367.082 531.832 366.316 532.129 365.66 532.746C365.012 533.363 364.496 534.281 364.113 535.5L370.277 535.512L370.324 535.324C370.449 534.34 370.289 533.523 369.844 532.875C369.406 532.219 368.777 531.879 367.957 531.855ZM377.754 530.309L377.484 531.727C378.547 530.602 379.832 530.055 381.34 530.086C382.145 530.102 382.824 530.285 383.379 530.637C383.941 530.988 384.328 531.484 384.539 532.125C385.727 530.734 387.129 530.055 388.746 530.086C390.012 530.117 390.945 530.543 391.547 531.363C392.148 532.184 392.371 533.285 392.215 534.668L390.82 543H388.711L390.094 534.645C390.141 534.238 390.141 533.867 390.094 533.531C389.945 532.469 389.25 531.926 388.008 531.902C387.234 531.887 386.531 532.129 385.898 532.629C385.273 533.121 384.871 533.77 384.691 534.574L383.25 543H381.117L382.523 534.656C382.625 533.789 382.492 533.121 382.125 532.652C381.766 532.184 381.203 531.941 380.438 531.926C379.117 531.895 378.066 532.496 377.285 533.73L375.68 543H373.559L375.762 530.32L377.754 530.309ZM396.398 543H394.289L396.492 530.32H398.602L396.398 543ZM398.145 525.691C398.504 525.676 398.801 525.785 399.035 526.02C399.277 526.246 399.398 526.547 399.398 526.922C399.391 527.289 399.27 527.59 399.035 527.824C398.809 528.059 398.512 528.184 398.145 528.199C397.777 528.215 397.477 528.109 397.242 527.883C397.008 527.656 396.895 527.359 396.902 526.992C396.91 526.625 397.027 526.32 397.254 526.078C397.48 525.836 397.777 525.707 398.145 525.691ZM407.719 539.566C407.836 538.691 407.355 538.074 406.277 537.715L404.074 537.07C402.215 536.43 401.316 535.367 401.379 533.883C401.434 532.766 401.941 531.852 402.902 531.141C403.871 530.422 405.008 530.07 406.312 530.086C407.594 530.102 408.633 530.477 409.43 531.211C410.234 531.938 410.621 532.887 410.59 534.059L408.48 534.047C408.496 533.414 408.297 532.898 407.883 532.5C407.469 532.102 406.918 531.895 406.23 531.879C405.496 531.863 404.863 532.043 404.332 532.418C403.84 532.77 403.555 533.23 403.477 533.801C403.375 534.535 403.824 535.07 404.824 535.406L405.891 535.699C407.344 536.074 408.375 536.562 408.984 537.164C409.594 537.766 409.875 538.512 409.828 539.402C409.781 540.191 409.523 540.879 409.055 541.465C408.586 542.051 407.961 542.5 407.18 542.812C406.398 543.117 405.566 543.258 404.684 543.234C403.34 543.219 402.23 542.828 401.355 542.062C400.48 541.289 400.059 540.297 400.09 539.086L402.211 539.098C402.211 539.809 402.438 540.379 402.891 540.809C403.344 541.238 403.965 541.453 404.754 541.453C405.527 541.469 406.195 541.309 406.758 540.973C407.32 540.629 407.641 540.16 407.719 539.566ZM419.836 539.566C419.953 538.691 419.473 538.074 418.395 537.715L416.191 537.07C414.332 536.43 413.434 535.367 413.496 533.883C413.551 532.766 414.059 531.852 415.02 531.141C415.988 530.422 417.125 530.07 418.43 530.086C419.711 530.102 420.75 530.477 421.547 531.211C422.352 531.938 422.738 532.887 422.707 534.059L420.598 534.047C420.613 533.414 420.414 532.898 420 532.5C419.586 532.102 419.035 531.895 418.348 531.879C417.613 531.863 416.98 532.043 416.449 532.418C415.957 532.77 415.672 533.23 415.594 533.801C415.492 534.535 415.941 535.07 416.941 535.406L418.008 535.699C419.461 536.074 420.492 536.562 421.102 537.164C421.711 537.766 421.992 538.512 421.945 539.402C421.898 540.191 421.641 540.879 421.172 541.465C420.703 542.051 420.078 542.5 419.297 542.812C418.516 543.117 417.684 543.258 416.801 543.234C415.457 543.219 414.348 542.828 413.473 542.062C412.598 541.289 412.176 540.297 412.207 539.086L414.328 539.098C414.328 539.809 414.555 540.379 415.008 540.809C415.461 541.238 416.082 541.453 416.871 541.453C417.645 541.469 418.312 541.309 418.875 540.973C419.438 540.629 419.758 540.16 419.836 539.566ZM426.398 543H424.289L426.492 530.32H428.602L426.398 543ZM428.145 525.691C428.504 525.676 428.801 525.785 429.035 526.02C429.277 526.246 429.398 526.547 429.398 526.922C429.391 527.289 429.27 527.59 429.035 527.824C428.809 528.059 428.512 528.184 428.145 528.199C427.777 528.215 427.477 528.109 427.242 527.883C427.008 527.656 426.895 527.359 426.902 526.992C426.91 526.625 427.027 526.32 427.254 526.078C427.48 525.836 427.777 525.707 428.145 525.691ZM436.91 530.086C437.973 530.102 438.883 530.391 439.641 530.953C440.398 531.516 440.957 532.293 441.316 533.285C441.684 534.27 441.809 535.348 441.691 536.52L441.668 536.777C441.52 538.012 441.152 539.129 440.566 540.129C439.98 541.121 439.223 541.895 438.293 542.449C437.363 543.004 436.344 543.266 435.234 543.234C434.18 543.219 433.27 542.93 432.504 542.367C431.746 541.805 431.191 541.039 430.84 540.07C430.488 539.102 430.363 538.035 430.465 536.871C430.582 535.559 430.938 534.379 431.531 533.332C432.125 532.285 432.887 531.477 433.816 530.906C434.754 530.328 435.785 530.055 436.91 530.086ZM432.598 536.883C432.543 537.375 432.543 537.887 432.598 538.418C432.676 539.34 432.949 540.074 433.418 540.621C433.895 541.168 434.527 541.453 435.316 541.477C436.02 541.5 436.668 541.328 437.262 540.961C437.855 540.586 438.355 540.023 438.762 539.273C439.168 538.523 439.43 537.691 439.547 536.777C439.609 536.059 439.621 535.453 439.582 534.961C439.488 534.016 439.203 533.27 438.727 532.723C438.25 532.176 437.617 531.887 436.828 531.855C435.734 531.832 434.805 532.262 434.039 533.145C433.273 534.027 432.801 535.184 432.621 536.613L432.598 536.883ZM447.48 530.309L447.176 531.914C448.316 530.664 449.613 530.055 451.066 530.086C452.262 530.117 453.145 530.531 453.715 531.328C454.285 532.125 454.496 533.246 454.348 534.691L452.965 543H450.844L452.238 534.656C452.285 534.273 452.289 533.918 452.25 533.59C452.117 532.496 451.473 531.938 450.316 531.914C449.043 531.891 447.926 532.57 446.965 533.953L445.395 543H443.273L445.477 530.32L447.48 530.309Z" fill="black"/>
<rect x="91.5" y="448.5" width="367" height="51" stroke="black" stroke-width="3"/>
<rect x="87" y="459" width="4" height="30" fill="white" stroke="black" stroke-width="2"/>
<rect x="459" y="459" width="4" height="30" fill="white" stroke="black" stroke-width="2"/>
<rect x="91" y="481" width="14" height="368" transform="rotate(-90 91 481)" fill="white" stroke="black" stroke-width="2"/>
<path d="M773.362 251.909H775.373L776.532 244.989H776.702C777.043 245.705 777.623 247.273 780.146 247.273C783.418 247.273 786.146 244.648 786.827 240.489C787.509 236.364 785.668 233.739 782.362 233.739C779.805 233.739 778.748 235.307 778.202 235.989H777.964L778.305 233.909H776.362L773.362 251.909ZM777.248 240.455C777.725 237.523 779.362 235.545 781.816 235.545C784.373 235.545 785.259 237.693 784.816 240.455C784.339 243.25 782.702 245.466 780.18 245.466C777.759 245.466 776.771 243.42 777.248 240.455ZM787.612 250H789.418L790.305 244.784C790.509 243.591 791.498 242.773 792.623 242.773C792.964 242.773 793.237 242.841 793.441 242.943L794.259 241.443C793.987 241.273 793.612 241.17 793.134 241.17C792.18 241.17 791.191 241.682 790.646 242.739H790.577L790.816 241.273H789.077L787.612 250ZM799.844 241.273H798.045L798.173 240.489C798.31 239.773 798.753 239.364 799.503 239.364C799.741 239.364 799.946 239.398 800.219 239.466L800.798 238.068C800.526 238 800.048 237.864 799.401 237.864C797.969 237.864 796.639 238.75 796.366 240.455L796.23 241.273H795.003L794.764 242.67H796L794.798 250H796.605L797.815 242.67H799.605L799.844 241.273Z" fill="black"/>
</svg>
