<?xml version="1.0" encoding="utf-8" standalone="no"?>
<!DOCTYPE svg PUBLIC "-//W3C//DTD SVG 1.1//EN"
  "http://www.w3.org/Graphics/SVG/1.1/DTD/svg11.dtd">
<!-- Created with matplotlib (https://matplotlib.org/) -->
<svg height="648pt" version="1.1" viewBox="0 0 576 648" width="576pt" xmlns="http://www.w3.org/2000/svg" xmlns:xlink="http://www.w3.org/1999/xlink">
 <metadata>
  <rdf:RDF xmlns:cc="http://creativecommons.org/ns#" xmlns:dc="http://purl.org/dc/elements/1.1/" xmlns:rdf="http://www.w3.org/1999/02/22-rdf-syntax-ns#">
   <cc:Work>
    <dc:type rdf:resource="http://purl.org/dc/dcmitype/StillImage"/>
    <dc:date>2020-10-13T23:47:32.918584</dc:date>
    <dc:format>image/svg+xml</dc:format>
    <dc:creator>
     <cc:Agent>
      <dc:title>Matplotlib v3.3.1, https://matplotlib.org/</dc:title>
     </cc:Agent>
    </dc:creator>
   </cc:Work>
  </rdf:RDF>
 </metadata>
 <defs>
  <style type="text/css">*{stroke-linecap:butt;stroke-linejoin:round;}</style>
 </defs>
 <g id="figure_1">
  <g id="patch_1">
   <path d="M 0 648 
L 576 648 
L 576 0 
L 0 0 
z
" style="fill:#ffffff;"/>
  </g>
  <g id="axes_1">
   <g id="patch_2">
    <path d="M 32.56 193.088153 
L 556.004076 193.088153 
L 556.004076 51.546507 
L 32.56 51.546507 
z
" style="fill:#ffffff;"/>
   </g>
   <g id="matplotlib.axis_1">
    <g id="xtick_1">
     <g id="line2d_1">
      <path clip-path="url(#p0aafca11b4)" d="M 32.56 193.088153 
L 32.56 51.546507 
" style="fill:none;stroke:#b0b0b0;stroke-dasharray:2.96,1.28;stroke-dashoffset:0;stroke-width:0.8;"/>
     </g>
     <g id="line2d_2">
      <defs>
       <path d="M 0 0 
L 0 3.5 
" id="ma59d1cdea7" style="stroke:#000000;stroke-width:0.8;"/>
      </defs>
      <g>
       <use style="stroke:#000000;stroke-width:0.8;" x="32.56" xlink:href="#ma59d1cdea7" y="193.088153"/>
      </g>
     </g>
     <g id="text_1">
      <!-- 0.0 -->
      <g transform="translate(28.888569 216.706267)rotate(-45)scale(0.1 -0.1)">
       <defs>
        <path d="M 31.78125 66.40625 
Q 24.171875 66.40625 20.328125 58.90625 
Q 16.5 51.421875 16.5 36.375 
Q 16.5 21.390625 20.328125 13.890625 
Q 24.171875 6.390625 31.78125 6.390625 
Q 39.453125 6.390625 43.28125 13.890625 
Q 47.125 21.390625 47.125 36.375 
Q 47.125 51.421875 43.28125 58.90625 
Q 39.453125 66.40625 31.78125 66.40625 
z
M 31.78125 74.21875 
Q 44.046875 74.21875 50.515625 64.515625 
Q 56.984375 54.828125 56.984375 36.375 
Q 56.984375 17.96875 50.515625 8.265625 
Q 44.046875 -1.421875 31.78125 -1.421875 
Q 19.53125 -1.421875 13.0625 8.265625 
Q 6.59375 17.96875 6.59375 36.375 
Q 6.59375 54.828125 13.0625 64.515625 
Q 19.53125 74.21875 31.78125 74.21875 
z
" id="DejaVuSans-48"/>
        <path d="M 10.6875 12.40625 
L 21 12.40625 
L 21 0 
L 10.6875 0 
z
" id="DejaVuSans-46"/>
       </defs>
       <use xlink:href="#DejaVuSans-48"/>
       <use x="63.623047" xlink:href="#DejaVuSans-46"/>
       <use x="95.410156" xlink:href="#DejaVuSans-48"/>
      </g>
     </g>
    </g>
    <g id="xtick_2">
     <g id="line2d_3">
      <path clip-path="url(#p0aafca11b4)" d="M 65.275255 193.088153 
L 65.275255 51.546507 
" style="fill:none;stroke:#b0b0b0;stroke-dasharray:2.96,1.28;stroke-dashoffset:0;stroke-width:0.8;"/>
     </g>
     <g id="line2d_4">
      <g>
       <use style="stroke:#000000;stroke-width:0.8;" x="65.275255" xlink:href="#ma59d1cdea7" y="193.088153"/>
      </g>
     </g>
     <g id="text_2">
      <!-- 0.5 -->
      <g transform="translate(61.603824 216.706267)rotate(-45)scale(0.1 -0.1)">
       <defs>
        <path d="M 10.796875 72.90625 
L 49.515625 72.90625 
L 49.515625 64.59375 
L 19.828125 64.59375 
L 19.828125 46.734375 
Q 21.96875 47.46875 24.109375 47.828125 
Q 26.265625 48.1875 28.421875 48.1875 
Q 40.625 48.1875 47.75 41.5 
Q 54.890625 34.8125 54.890625 23.390625 
Q 54.890625 11.625 47.5625 5.09375 
Q 40.234375 -1.421875 26.90625 -1.421875 
Q 22.3125 -1.421875 17.546875 -0.640625 
Q 12.796875 0.140625 7.71875 1.703125 
L 7.71875 11.625 
Q 12.109375 9.234375 16.796875 8.0625 
Q 21.484375 6.890625 26.703125 6.890625 
Q 35.15625 6.890625 40.078125 11.328125 
Q 45.015625 15.765625 45.015625 23.390625 
Q 45.015625 31 40.078125 35.4375 
Q 35.15625 39.890625 26.703125 39.890625 
Q 22.75 39.890625 18.8125 39.015625 
Q 14.890625 38.140625 10.796875 36.28125 
z
" id="DejaVuSans-53"/>
       </defs>
       <use xlink:href="#DejaVuSans-48"/>
       <use x="63.623047" xlink:href="#DejaVuSans-46"/>
       <use x="95.410156" xlink:href="#DejaVuSans-53"/>
      </g>
     </g>
    </g>
    <g id="xtick_3">
     <g id="line2d_5">
      <path clip-path="url(#p0aafca11b4)" d="M 78.361357 193.088153 
L 78.361357 51.546507 
" style="fill:none;stroke:#b0b0b0;stroke-dasharray:2.96,1.28;stroke-dashoffset:0;stroke-width:0.8;"/>
     </g>
     <g id="line2d_6">
      <g>
       <use style="stroke:#000000;stroke-width:0.8;" x="78.361357" xlink:href="#ma59d1cdea7" y="193.088153"/>
      </g>
     </g>
     <g id="text_3">
      <!-- 0.7 -->
      <g transform="translate(74.689926 216.706267)rotate(-45)scale(0.1 -0.1)">
       <defs>
        <path d="M 8.203125 72.90625 
L 55.078125 72.90625 
L 55.078125 68.703125 
L 28.609375 0 
L 18.3125 0 
L 43.21875 64.59375 
L 8.203125 64.59375 
z
" id="DejaVuSans-55"/>
       </defs>
       <use xlink:href="#DejaVuSans-48"/>
       <use x="63.623047" xlink:href="#DejaVuSans-46"/>
       <use x="95.410156" xlink:href="#DejaVuSans-55"/>
      </g>
     </g>
    </g>
    <g id="xtick_4">
     <g id="line2d_7">
      <path clip-path="url(#p0aafca11b4)" d="M 111.076611 193.088153 
L 111.076611 51.546507 
" style="fill:none;stroke:#b0b0b0;stroke-dasharray:2.96,1.28;stroke-dashoffset:0;stroke-width:0.8;"/>
     </g>
     <g id="line2d_8">
      <g>
       <use style="stroke:#000000;stroke-width:0.8;" x="111.076611" xlink:href="#ma59d1cdea7" y="193.088153"/>
      </g>
     </g>
     <g id="text_4">
      <!-- 1.2 -->
      <g transform="translate(107.40518 216.706267)rotate(-45)scale(0.1 -0.1)">
       <defs>
        <path d="M 12.40625 8.296875 
L 28.515625 8.296875 
L 28.515625 63.921875 
L 10.984375 60.40625 
L 10.984375 69.390625 
L 28.421875 72.90625 
L 38.28125 72.90625 
L 38.28125 8.296875 
L 54.390625 8.296875 
L 54.390625 0 
L 12.40625 0 
z
" id="DejaVuSans-49"/>
        <path d="M 19.1875 8.296875 
L 53.609375 8.296875 
L 53.609375 0 
L 7.328125 0 
L 7.328125 8.296875 
Q 12.9375 14.109375 22.625 23.890625 
Q 32.328125 33.6875 34.8125 36.53125 
Q 39.546875 41.84375 41.421875 45.53125 
Q 43.3125 49.21875 43.3125 52.78125 
Q 43.3125 58.59375 39.234375 62.25 
Q 35.15625 65.921875 28.609375 65.921875 
Q 23.96875 65.921875 18.8125 64.3125 
Q 13.671875 62.703125 7.8125 59.421875 
L 7.8125 69.390625 
Q 13.765625 71.78125 18.9375 73 
Q 24.125 74.21875 28.421875 74.21875 
Q 39.75 74.21875 46.484375 68.546875 
Q 53.21875 62.890625 53.21875 53.421875 
Q 53.21875 48.921875 51.53125 44.890625 
Q 49.859375 40.875 45.40625 35.40625 
Q 44.1875 33.984375 37.640625 27.21875 
Q 31.109375 20.453125 19.1875 8.296875 
z
" id="DejaVuSans-50"/>
       </defs>
       <use xlink:href="#DejaVuSans-49"/>
       <use x="63.623047" xlink:href="#DejaVuSans-46"/>
       <use x="95.410156" xlink:href="#DejaVuSans-50"/>
      </g>
     </g>
    </g>
    <g id="xtick_5">
     <g id="line2d_9">
      <path clip-path="url(#p0aafca11b4)" d="M 124.162713 193.088153 
L 124.162713 51.546507 
" style="fill:none;stroke:#b0b0b0;stroke-dasharray:2.96,1.28;stroke-dashoffset:0;stroke-width:0.8;"/>
     </g>
     <g id="line2d_10">
      <g>
       <use style="stroke:#000000;stroke-width:0.8;" x="124.162713" xlink:href="#ma59d1cdea7" y="193.088153"/>
      </g>
     </g>
     <g id="text_5">
      <!-- 1.4 -->
      <g transform="translate(120.491282 216.706267)rotate(-45)scale(0.1 -0.1)">
       <defs>
        <path d="M 37.796875 64.3125 
L 12.890625 25.390625 
L 37.796875 25.390625 
z
M 35.203125 72.90625 
L 47.609375 72.90625 
L 47.609375 25.390625 
L 58.015625 25.390625 
L 58.015625 17.1875 
L 47.609375 17.1875 
L 47.609375 0 
L 37.796875 0 
L 37.796875 17.1875 
L 4.890625 17.1875 
L 4.890625 26.703125 
z
" id="DejaVuSans-52"/>
       </defs>
       <use xlink:href="#DejaVuSans-49"/>
       <use x="63.623047" xlink:href="#DejaVuSans-46"/>
       <use x="95.410156" xlink:href="#DejaVuSans-52"/>
      </g>
     </g>
    </g>
    <g id="xtick_6">
     <g id="line2d_11">
      <path clip-path="url(#p0aafca11b4)" d="M 156.877968 193.088153 
L 156.877968 51.546507 
" style="fill:none;stroke:#b0b0b0;stroke-dasharray:2.96,1.28;stroke-dashoffset:0;stroke-width:0.8;"/>
     </g>
     <g id="line2d_12">
      <g>
       <use style="stroke:#000000;stroke-width:0.8;" x="156.877968" xlink:href="#ma59d1cdea7" y="193.088153"/>
      </g>
     </g>
     <g id="text_6">
      <!-- 1.9 -->
      <g transform="translate(153.206537 216.706267)rotate(-45)scale(0.1 -0.1)">
       <defs>
        <path d="M 10.984375 1.515625 
L 10.984375 10.5 
Q 14.703125 8.734375 18.5 7.8125 
Q 22.3125 6.890625 25.984375 6.890625 
Q 35.75 6.890625 40.890625 13.453125 
Q 46.046875 20.015625 46.78125 33.40625 
Q 43.953125 29.203125 39.59375 26.953125 
Q 35.25 24.703125 29.984375 24.703125 
Q 19.046875 24.703125 12.671875 31.3125 
Q 6.296875 37.9375 6.296875 49.421875 
Q 6.296875 60.640625 12.9375 67.421875 
Q 19.578125 74.21875 30.609375 74.21875 
Q 43.265625 74.21875 49.921875 64.515625 
Q 56.59375 54.828125 56.59375 36.375 
Q 56.59375 19.140625 48.40625 8.859375 
Q 40.234375 -1.421875 26.421875 -1.421875 
Q 22.703125 -1.421875 18.890625 -0.6875 
Q 15.09375 0.046875 10.984375 1.515625 
z
M 30.609375 32.421875 
Q 37.25 32.421875 41.125 36.953125 
Q 45.015625 41.5 45.015625 49.421875 
Q 45.015625 57.28125 41.125 61.84375 
Q 37.25 66.40625 30.609375 66.40625 
Q 23.96875 66.40625 20.09375 61.84375 
Q 16.21875 57.28125 16.21875 49.421875 
Q 16.21875 41.5 20.09375 36.953125 
Q 23.96875 32.421875 30.609375 32.421875 
z
" id="DejaVuSans-57"/>
       </defs>
       <use xlink:href="#DejaVuSans-49"/>
       <use x="63.623047" xlink:href="#DejaVuSans-46"/>
       <use x="95.410156" xlink:href="#DejaVuSans-57"/>
      </g>
     </g>
    </g>
    <g id="xtick_7">
     <g id="line2d_13">
      <path clip-path="url(#p0aafca11b4)" d="M 255.023732 193.088153 
L 255.023732 51.546507 
" style="fill:none;stroke:#b0b0b0;stroke-dasharray:2.96,1.28;stroke-dashoffset:0;stroke-width:0.8;"/>
     </g>
     <g id="line2d_14">
      <g>
       <use style="stroke:#000000;stroke-width:0.8;" x="255.023732" xlink:href="#ma59d1cdea7" y="193.088153"/>
      </g>
     </g>
     <g id="text_7">
      <!-- 3.4 -->
      <g transform="translate(251.352301 216.706267)rotate(-45)scale(0.1 -0.1)">
       <defs>
        <path d="M 40.578125 39.3125 
Q 47.65625 37.796875 51.625 33 
Q 55.609375 28.21875 55.609375 21.1875 
Q 55.609375 10.40625 48.1875 4.484375 
Q 40.765625 -1.421875 27.09375 -1.421875 
Q 22.515625 -1.421875 17.65625 -0.515625 
Q 12.796875 0.390625 7.625 2.203125 
L 7.625 11.71875 
Q 11.71875 9.328125 16.59375 8.109375 
Q 21.484375 6.890625 26.8125 6.890625 
Q 36.078125 6.890625 40.9375 10.546875 
Q 45.796875 14.203125 45.796875 21.1875 
Q 45.796875 27.640625 41.28125 31.265625 
Q 36.765625 34.90625 28.71875 34.90625 
L 20.21875 34.90625 
L 20.21875 43.015625 
L 29.109375 43.015625 
Q 36.375 43.015625 40.234375 45.921875 
Q 44.09375 48.828125 44.09375 54.296875 
Q 44.09375 59.90625 40.109375 62.90625 
Q 36.140625 65.921875 28.71875 65.921875 
Q 24.65625 65.921875 20.015625 65.03125 
Q 15.375 64.15625 9.8125 62.3125 
L 9.8125 71.09375 
Q 15.4375 72.65625 20.34375 73.4375 
Q 25.25 74.21875 29.59375 74.21875 
Q 40.828125 74.21875 47.359375 69.109375 
Q 53.90625 64.015625 53.90625 55.328125 
Q 53.90625 49.265625 50.4375 45.09375 
Q 46.96875 40.921875 40.578125 39.3125 
z
" id="DejaVuSans-51"/>
       </defs>
       <use xlink:href="#DejaVuSans-51"/>
       <use x="63.623047" xlink:href="#DejaVuSans-46"/>
       <use x="95.410156" xlink:href="#DejaVuSans-52"/>
      </g>
     </g>
    </g>
    <g id="xtick_8">
     <g id="line2d_15">
      <path clip-path="url(#p0aafca11b4)" d="M 287.738987 193.088153 
L 287.738987 51.546507 
" style="fill:none;stroke:#b0b0b0;stroke-dasharray:2.96,1.28;stroke-dashoffset:0;stroke-width:0.8;"/>
     </g>
     <g id="line2d_16">
      <g>
       <use style="stroke:#000000;stroke-width:0.8;" x="287.738987" xlink:href="#ma59d1cdea7" y="193.088153"/>
      </g>
     </g>
     <g id="text_8">
      <!-- 3.9 -->
      <g transform="translate(284.067556 216.706267)rotate(-45)scale(0.1 -0.1)">
       <use xlink:href="#DejaVuSans-51"/>
       <use x="63.623047" xlink:href="#DejaVuSans-46"/>
       <use x="95.410156" xlink:href="#DejaVuSans-57"/>
      </g>
     </g>
    </g>
    <g id="xtick_9">
     <g id="line2d_17">
      <path clip-path="url(#p0aafca11b4)" d="M 300.825089 193.088153 
L 300.825089 51.546507 
" style="fill:none;stroke:#b0b0b0;stroke-dasharray:2.96,1.28;stroke-dashoffset:0;stroke-width:0.8;"/>
     </g>
     <g id="line2d_18">
      <g>
       <use style="stroke:#000000;stroke-width:0.8;" x="300.825089" xlink:href="#ma59d1cdea7" y="193.088153"/>
      </g>
     </g>
     <g id="text_9">
      <!-- 4.1 -->
      <g transform="translate(297.153658 216.706267)rotate(-45)scale(0.1 -0.1)">
       <use xlink:href="#DejaVuSans-52"/>
       <use x="63.623047" xlink:href="#DejaVuSans-46"/>
       <use x="95.410156" xlink:href="#DejaVuSans-49"/>
      </g>
     </g>
    </g>
    <g id="xtick_10">
     <g id="line2d_19">
      <path clip-path="url(#p0aafca11b4)" d="M 333.540344 193.088153 
L 333.540344 51.546507 
" style="fill:none;stroke:#b0b0b0;stroke-dasharray:2.96,1.28;stroke-dashoffset:0;stroke-width:0.8;"/>
     </g>
     <g id="line2d_20">
      <g>
       <use style="stroke:#000000;stroke-width:0.8;" x="333.540344" xlink:href="#ma59d1cdea7" y="193.088153"/>
      </g>
     </g>
     <g id="text_10">
      <!-- 4.6 -->
      <g transform="translate(329.868913 216.706267)rotate(-45)scale(0.1 -0.1)">
       <defs>
        <path d="M 33.015625 40.375 
Q 26.375 40.375 22.484375 35.828125 
Q 18.609375 31.296875 18.609375 23.390625 
Q 18.609375 15.53125 22.484375 10.953125 
Q 26.375 6.390625 33.015625 6.390625 
Q 39.65625 6.390625 43.53125 10.953125 
Q 47.40625 15.53125 47.40625 23.390625 
Q 47.40625 31.296875 43.53125 35.828125 
Q 39.65625 40.375 33.015625 40.375 
z
M 52.59375 71.296875 
L 52.59375 62.3125 
Q 48.875 64.0625 45.09375 64.984375 
Q 41.3125 65.921875 37.59375 65.921875 
Q 27.828125 65.921875 22.671875 59.328125 
Q 17.53125 52.734375 16.796875 39.40625 
Q 19.671875 43.65625 24.015625 45.921875 
Q 28.375 48.1875 33.59375 48.1875 
Q 44.578125 48.1875 50.953125 41.515625 
Q 57.328125 34.859375 57.328125 23.390625 
Q 57.328125 12.15625 50.6875 5.359375 
Q 44.046875 -1.421875 33.015625 -1.421875 
Q 20.359375 -1.421875 13.671875 8.265625 
Q 6.984375 17.96875 6.984375 36.375 
Q 6.984375 53.65625 15.1875 63.9375 
Q 23.390625 74.21875 37.203125 74.21875 
Q 40.921875 74.21875 44.703125 73.484375 
Q 48.484375 72.75 52.59375 71.296875 
z
" id="DejaVuSans-54"/>
       </defs>
       <use xlink:href="#DejaVuSans-52"/>
       <use x="63.623047" xlink:href="#DejaVuSans-46"/>
       <use x="95.410156" xlink:href="#DejaVuSans-54"/>
      </g>
     </g>
    </g>
    <g id="xtick_11">
     <g id="line2d_21">
      <path clip-path="url(#p0aafca11b4)" d="M 431.686108 193.088153 
L 431.686108 51.546507 
" style="fill:none;stroke:#b0b0b0;stroke-dasharray:2.96,1.28;stroke-dashoffset:0;stroke-width:0.8;"/>
     </g>
     <g id="line2d_22">
      <g>
       <use style="stroke:#000000;stroke-width:0.8;" x="431.686108" xlink:href="#ma59d1cdea7" y="193.088153"/>
      </g>
     </g>
     <g id="text_11">
      <!-- 6.1 -->
      <g transform="translate(428.014677 216.706267)rotate(-45)scale(0.1 -0.1)">
       <use xlink:href="#DejaVuSans-54"/>
       <use x="63.623047" xlink:href="#DejaVuSans-46"/>
       <use x="95.410156" xlink:href="#DejaVuSans-49"/>
      </g>
     </g>
    </g>
    <g id="xtick_12">
     <g id="line2d_23">
      <path clip-path="url(#p0aafca11b4)" d="M 464.401363 193.088153 
L 464.401363 51.546507 
" style="fill:none;stroke:#b0b0b0;stroke-dasharray:2.96,1.28;stroke-dashoffset:0;stroke-width:0.8;"/>
     </g>
     <g id="line2d_24">
      <g>
       <use style="stroke:#000000;stroke-width:0.8;" x="464.401363" xlink:href="#ma59d1cdea7" y="193.088153"/>
      </g>
     </g>
     <g id="text_12">
      <!-- 6.6 -->
      <g transform="translate(460.729932 216.706267)rotate(-45)scale(0.1 -0.1)">
       <use xlink:href="#DejaVuSans-54"/>
       <use x="63.623047" xlink:href="#DejaVuSans-46"/>
       <use x="95.410156" xlink:href="#DejaVuSans-54"/>
      </g>
     </g>
    </g>
    <g id="xtick_13">
     <g id="line2d_25">
      <path clip-path="url(#p0aafca11b4)" d="M 477.487465 193.088153 
L 477.487465 51.546507 
" style="fill:none;stroke:#b0b0b0;stroke-dasharray:2.96,1.28;stroke-dashoffset:0;stroke-width:0.8;"/>
     </g>
     <g id="line2d_26">
      <g>
       <use style="stroke:#000000;stroke-width:0.8;" x="477.487465" xlink:href="#ma59d1cdea7" y="193.088153"/>
      </g>
     </g>
     <g id="text_13">
      <!-- 6.8 -->
      <g transform="translate(473.816034 216.706267)rotate(-45)scale(0.1 -0.1)">
       <defs>
        <path d="M 31.78125 34.625 
Q 24.75 34.625 20.71875 30.859375 
Q 16.703125 27.09375 16.703125 20.515625 
Q 16.703125 13.921875 20.71875 10.15625 
Q 24.75 6.390625 31.78125 6.390625 
Q 38.8125 6.390625 42.859375 10.171875 
Q 46.921875 13.96875 46.921875 20.515625 
Q 46.921875 27.09375 42.890625 30.859375 
Q 38.875 34.625 31.78125 34.625 
z
M 21.921875 38.8125 
Q 15.578125 40.375 12.03125 44.71875 
Q 8.5 49.078125 8.5 55.328125 
Q 8.5 64.0625 14.71875 69.140625 
Q 20.953125 74.21875 31.78125 74.21875 
Q 42.671875 74.21875 48.875 69.140625 
Q 55.078125 64.0625 55.078125 55.328125 
Q 55.078125 49.078125 51.53125 44.71875 
Q 48 40.375 41.703125 38.8125 
Q 48.828125 37.15625 52.796875 32.3125 
Q 56.78125 27.484375 56.78125 20.515625 
Q 56.78125 9.90625 50.3125 4.234375 
Q 43.84375 -1.421875 31.78125 -1.421875 
Q 19.734375 -1.421875 13.25 4.234375 
Q 6.78125 9.90625 6.78125 20.515625 
Q 6.78125 27.484375 10.78125 32.3125 
Q 14.796875 37.15625 21.921875 38.8125 
z
M 18.3125 54.390625 
Q 18.3125 48.734375 21.84375 45.5625 
Q 25.390625 42.390625 31.78125 42.390625 
Q 38.140625 42.390625 41.71875 45.5625 
Q 45.3125 48.734375 45.3125 54.390625 
Q 45.3125 60.0625 41.71875 63.234375 
Q 38.140625 66.40625 31.78125 66.40625 
Q 25.390625 66.40625 21.84375 63.234375 
Q 18.3125 60.0625 18.3125 54.390625 
z
" id="DejaVuSans-56"/>
       </defs>
       <use xlink:href="#DejaVuSans-54"/>
       <use x="63.623047" xlink:href="#DejaVuSans-46"/>
       <use x="95.410156" xlink:href="#DejaVuSans-56"/>
      </g>
     </g>
    </g>
    <g id="xtick_14">
     <g id="line2d_27">
      <path clip-path="url(#p0aafca11b4)" d="M 510.20272 193.088153 
L 510.20272 51.546507 
" style="fill:none;stroke:#b0b0b0;stroke-dasharray:2.96,1.28;stroke-dashoffset:0;stroke-width:0.8;"/>
     </g>
     <g id="line2d_28">
      <g>
       <use style="stroke:#000000;stroke-width:0.8;" x="510.20272" xlink:href="#ma59d1cdea7" y="193.088153"/>
      </g>
     </g>
     <g id="text_14">
      <!-- 7.3 -->
      <g transform="translate(506.531289 216.706267)rotate(-45)scale(0.1 -0.1)">
       <use xlink:href="#DejaVuSans-55"/>
       <use x="63.623047" xlink:href="#DejaVuSans-46"/>
       <use x="95.410156" xlink:href="#DejaVuSans-51"/>
      </g>
     </g>
    </g>
    <g id="xtick_15">
     <g id="line2d_29">
      <path clip-path="url(#p0aafca11b4)" d="M 523.288822 193.088153 
L 523.288822 51.546507 
" style="fill:none;stroke:#b0b0b0;stroke-dasharray:2.96,1.28;stroke-dashoffset:0;stroke-width:0.8;"/>
     </g>
     <g id="line2d_30">
      <g>
       <use style="stroke:#000000;stroke-width:0.8;" x="523.288822" xlink:href="#ma59d1cdea7" y="193.088153"/>
      </g>
     </g>
     <g id="text_15">
      <!-- 7.5 -->
      <g transform="translate(519.617391 216.706267)rotate(-45)scale(0.1 -0.1)">
       <use xlink:href="#DejaVuSans-55"/>
       <use x="63.623047" xlink:href="#DejaVuSans-46"/>
       <use x="95.410156" xlink:href="#DejaVuSans-53"/>
      </g>
     </g>
    </g>
    <g id="xtick_16">
     <g id="line2d_31">
      <path clip-path="url(#p0aafca11b4)" d="M 556.004076 193.088153 
L 556.004076 51.546507 
" style="fill:none;stroke:#b0b0b0;stroke-dasharray:2.96,1.28;stroke-dashoffset:0;stroke-width:0.8;"/>
     </g>
     <g id="line2d_32">
      <g>
       <use style="stroke:#000000;stroke-width:0.8;" x="556.004076" xlink:href="#ma59d1cdea7" y="193.088153"/>
      </g>
     </g>
     <g id="text_16">
      <!-- 8.0 -->
      <g transform="translate(552.332645 216.706267)rotate(-45)scale(0.1 -0.1)">
       <use xlink:href="#DejaVuSans-56"/>
       <use x="63.623047" xlink:href="#DejaVuSans-46"/>
       <use x="95.410156" xlink:href="#DejaVuSans-48"/>
      </g>
     </g>
    </g>
    <g id="text_17">
     <!-- Orbit Position $s$ / m -->
     <g transform="translate(246.582038 229.775265)scale(0.1 -0.1)">
      <defs>
       <path d="M 39.40625 66.21875 
Q 28.65625 66.21875 22.328125 58.203125 
Q 16.015625 50.203125 16.015625 36.375 
Q 16.015625 22.609375 22.328125 14.59375 
Q 28.65625 6.59375 39.40625 6.59375 
Q 50.140625 6.59375 56.421875 14.59375 
Q 62.703125 22.609375 62.703125 36.375 
Q 62.703125 50.203125 56.421875 58.203125 
Q 50.140625 66.21875 39.40625 66.21875 
z
M 39.40625 74.21875 
Q 54.734375 74.21875 63.90625 63.9375 
Q 73.09375 53.65625 73.09375 36.375 
Q 73.09375 19.140625 63.90625 8.859375 
Q 54.734375 -1.421875 39.40625 -1.421875 
Q 24.03125 -1.421875 14.8125 8.828125 
Q 5.609375 19.09375 5.609375 36.375 
Q 5.609375 53.65625 14.8125 63.9375 
Q 24.03125 74.21875 39.40625 74.21875 
z
" id="DejaVuSans-79"/>
       <path d="M 41.109375 46.296875 
Q 39.59375 47.171875 37.8125 47.578125 
Q 36.03125 48 33.890625 48 
Q 26.265625 48 22.1875 43.046875 
Q 18.109375 38.09375 18.109375 28.8125 
L 18.109375 0 
L 9.078125 0 
L 9.078125 54.6875 
L 18.109375 54.6875 
L 18.109375 46.1875 
Q 20.953125 51.171875 25.484375 53.578125 
Q 30.03125 56 36.53125 56 
Q 37.453125 56 38.578125 55.875 
Q 39.703125 55.765625 41.0625 55.515625 
z
" id="DejaVuSans-114"/>
       <path d="M 48.6875 27.296875 
Q 48.6875 37.203125 44.609375 42.84375 
Q 40.53125 48.484375 33.40625 48.484375 
Q 26.265625 48.484375 22.1875 42.84375 
Q 18.109375 37.203125 18.109375 27.296875 
Q 18.109375 17.390625 22.1875 11.75 
Q 26.265625 6.109375 33.40625 6.109375 
Q 40.53125 6.109375 44.609375 11.75 
Q 48.6875 17.390625 48.6875 27.296875 
z
M 18.109375 46.390625 
Q 20.953125 51.265625 25.265625 53.625 
Q 29.59375 56 35.59375 56 
Q 45.5625 56 51.78125 48.09375 
Q 58.015625 40.1875 58.015625 27.296875 
Q 58.015625 14.40625 51.78125 6.484375 
Q 45.5625 -1.421875 35.59375 -1.421875 
Q 29.59375 -1.421875 25.265625 0.953125 
Q 20.953125 3.328125 18.109375 8.203125 
L 18.109375 0 
L 9.078125 0 
L 9.078125 75.984375 
L 18.109375 75.984375 
z
" id="DejaVuSans-98"/>
       <path d="M 9.421875 54.6875 
L 18.40625 54.6875 
L 18.40625 0 
L 9.421875 0 
z
M 9.421875 75.984375 
L 18.40625 75.984375 
L 18.40625 64.59375 
L 9.421875 64.59375 
z
" id="DejaVuSans-105"/>
       <path d="M 18.3125 70.21875 
L 18.3125 54.6875 
L 36.8125 54.6875 
L 36.8125 47.703125 
L 18.3125 47.703125 
L 18.3125 18.015625 
Q 18.3125 11.328125 20.140625 9.421875 
Q 21.96875 7.515625 27.59375 7.515625 
L 36.8125 7.515625 
L 36.8125 0 
L 27.59375 0 
Q 17.1875 0 13.234375 3.875 
Q 9.28125 7.765625 9.28125 18.015625 
L 9.28125 47.703125 
L 2.6875 47.703125 
L 2.6875 54.6875 
L 9.28125 54.6875 
L 9.28125 70.21875 
z
" id="DejaVuSans-116"/>
       <path id="DejaVuSans-32"/>
       <path d="M 19.671875 64.796875 
L 19.671875 37.40625 
L 32.078125 37.40625 
Q 38.96875 37.40625 42.71875 40.96875 
Q 46.484375 44.53125 46.484375 51.125 
Q 46.484375 57.671875 42.71875 61.234375 
Q 38.96875 64.796875 32.078125 64.796875 
z
M 9.8125 72.90625 
L 32.078125 72.90625 
Q 44.34375 72.90625 50.609375 67.359375 
Q 56.890625 61.8125 56.890625 51.125 
Q 56.890625 40.328125 50.609375 34.8125 
Q 44.34375 29.296875 32.078125 29.296875 
L 19.671875 29.296875 
L 19.671875 0 
L 9.8125 0 
z
" id="DejaVuSans-80"/>
       <path d="M 30.609375 48.390625 
Q 23.390625 48.390625 19.1875 42.75 
Q 14.984375 37.109375 14.984375 27.296875 
Q 14.984375 17.484375 19.15625 11.84375 
Q 23.34375 6.203125 30.609375 6.203125 
Q 37.796875 6.203125 41.984375 11.859375 
Q 46.1875 17.53125 46.1875 27.296875 
Q 46.1875 37.015625 41.984375 42.703125 
Q 37.796875 48.390625 30.609375 48.390625 
z
M 30.609375 56 
Q 42.328125 56 49.015625 48.375 
Q 55.71875 40.765625 55.71875 27.296875 
Q 55.71875 13.875 49.015625 6.21875 
Q 42.328125 -1.421875 30.609375 -1.421875 
Q 18.84375 -1.421875 12.171875 6.21875 
Q 5.515625 13.875 5.515625 27.296875 
Q 5.515625 40.765625 12.171875 48.375 
Q 18.84375 56 30.609375 56 
z
" id="DejaVuSans-111"/>
       <path d="M 44.28125 53.078125 
L 44.28125 44.578125 
Q 40.484375 46.53125 36.375 47.5 
Q 32.28125 48.484375 27.875 48.484375 
Q 21.1875 48.484375 17.84375 46.4375 
Q 14.5 44.390625 14.5 40.28125 
Q 14.5 37.15625 16.890625 35.375 
Q 19.28125 33.59375 26.515625 31.984375 
L 29.59375 31.296875 
Q 39.15625 29.25 43.1875 25.515625 
Q 47.21875 21.78125 47.21875 15.09375 
Q 47.21875 7.46875 41.1875 3.015625 
Q 35.15625 -1.421875 24.609375 -1.421875 
Q 20.21875 -1.421875 15.453125 -0.5625 
Q 10.6875 0.296875 5.421875 2 
L 5.421875 11.28125 
Q 10.40625 8.6875 15.234375 7.390625 
Q 20.0625 6.109375 24.8125 6.109375 
Q 31.15625 6.109375 34.5625 8.28125 
Q 37.984375 10.453125 37.984375 14.40625 
Q 37.984375 18.0625 35.515625 20.015625 
Q 33.0625 21.96875 24.703125 23.78125 
L 21.578125 24.515625 
Q 13.234375 26.265625 9.515625 29.90625 
Q 5.8125 33.546875 5.8125 39.890625 
Q 5.8125 47.609375 11.28125 51.796875 
Q 16.75 56 26.8125 56 
Q 31.78125 56 36.171875 55.265625 
Q 40.578125 54.546875 44.28125 53.078125 
z
" id="DejaVuSans-115"/>
       <path d="M 54.890625 33.015625 
L 54.890625 0 
L 45.90625 0 
L 45.90625 32.71875 
Q 45.90625 40.484375 42.875 44.328125 
Q 39.84375 48.1875 33.796875 48.1875 
Q 26.515625 48.1875 22.3125 43.546875 
Q 18.109375 38.921875 18.109375 30.90625 
L 18.109375 0 
L 9.078125 0 
L 9.078125 54.6875 
L 18.109375 54.6875 
L 18.109375 46.1875 
Q 21.34375 51.125 25.703125 53.5625 
Q 30.078125 56 35.796875 56 
Q 45.21875 56 50.046875 50.171875 
Q 54.890625 44.34375 54.890625 33.015625 
z
" id="DejaVuSans-110"/>
       <path d="M 50 53.078125 
L 48.296875 44.578125 
Q 44.734375 46.53125 40.765625 47.5 
Q 36.8125 48.484375 32.625 48.484375 
Q 25.53125 48.484375 21.453125 46.0625 
Q 17.390625 43.65625 17.390625 39.5 
Q 17.390625 34.671875 26.859375 32.078125 
Q 27.59375 31.890625 27.9375 31.78125 
L 30.8125 30.90625 
Q 39.796875 28.421875 42.796875 25.6875 
Q 45.796875 22.953125 45.796875 18.21875 
Q 45.796875 9.515625 38.890625 4.046875 
Q 31.984375 -1.421875 20.796875 -1.421875 
Q 16.453125 -1.421875 11.671875 -0.578125 
Q 6.890625 0.25 1.125 2 
L 2.875 11.28125 
Q 7.8125 8.734375 12.59375 7.421875 
Q 17.390625 6.109375 21.78125 6.109375 
Q 28.375 6.109375 32.5 8.9375 
Q 36.625 11.765625 36.625 16.109375 
Q 36.625 20.796875 25.78125 23.6875 
L 24.859375 23.921875 
L 21.78125 24.703125 
Q 14.9375 26.515625 11.765625 29.46875 
Q 8.59375 32.421875 8.59375 37.015625 
Q 8.59375 45.75 15.15625 50.875 
Q 21.734375 56 33.015625 56 
Q 37.453125 56 41.671875 55.265625 
Q 45.90625 54.546875 50 53.078125 
z
" id="DejaVuSans-Oblique-115"/>
       <path d="M 25.390625 72.90625 
L 33.6875 72.90625 
L 8.296875 -9.28125 
L 0 -9.28125 
z
" id="DejaVuSans-47"/>
       <path d="M 52 44.1875 
Q 55.375 50.25 60.0625 53.125 
Q 64.75 56 71.09375 56 
Q 79.640625 56 84.28125 50.015625 
Q 88.921875 44.046875 88.921875 33.015625 
L 88.921875 0 
L 79.890625 0 
L 79.890625 32.71875 
Q 79.890625 40.578125 77.09375 44.375 
Q 74.3125 48.1875 68.609375 48.1875 
Q 61.625 48.1875 57.5625 43.546875 
Q 53.515625 38.921875 53.515625 30.90625 
L 53.515625 0 
L 44.484375 0 
L 44.484375 32.71875 
Q 44.484375 40.625 41.703125 44.40625 
Q 38.921875 48.1875 33.109375 48.1875 
Q 26.21875 48.1875 22.15625 43.53125 
Q 18.109375 38.875 18.109375 30.90625 
L 18.109375 0 
L 9.078125 0 
L 9.078125 54.6875 
L 18.109375 54.6875 
L 18.109375 46.1875 
Q 21.1875 51.21875 25.484375 53.609375 
Q 29.78125 56 35.6875 56 
Q 41.65625 56 45.828125 52.96875 
Q 50 49.953125 52 44.1875 
z
" id="DejaVuSans-109"/>
      </defs>
      <use transform="translate(0 0.015625)" xlink:href="#DejaVuSans-79"/>
      <use transform="translate(78.710938 0.015625)" xlink:href="#DejaVuSans-114"/>
      <use transform="translate(119.824219 0.015625)" xlink:href="#DejaVuSans-98"/>
      <use transform="translate(183.300781 0.015625)" xlink:href="#DejaVuSans-105"/>
      <use transform="translate(211.083984 0.015625)" xlink:href="#DejaVuSans-116"/>
      <use transform="translate(250.292969 0.015625)" xlink:href="#DejaVuSans-32"/>
      <use transform="translate(282.080078 0.015625)" xlink:href="#DejaVuSans-80"/>
      <use transform="translate(342.382812 0.015625)" xlink:href="#DejaVuSans-111"/>
      <use transform="translate(403.564453 0.015625)" xlink:href="#DejaVuSans-115"/>
      <use transform="translate(455.664062 0.015625)" xlink:href="#DejaVuSans-105"/>
      <use transform="translate(483.447266 0.015625)" xlink:href="#DejaVuSans-116"/>
      <use transform="translate(522.65625 0.015625)" xlink:href="#DejaVuSans-105"/>
      <use transform="translate(550.439453 0.015625)" xlink:href="#DejaVuSans-111"/>
      <use transform="translate(611.621094 0.015625)" xlink:href="#DejaVuSans-110"/>
      <use transform="translate(675 0.015625)" xlink:href="#DejaVuSans-32"/>
      <use transform="translate(706.787109 0.015625)" xlink:href="#DejaVuSans-Oblique-115"/>
      <use transform="translate(758.886719 0.015625)" xlink:href="#DejaVuSans-32"/>
      <use transform="translate(790.673828 0.015625)" xlink:href="#DejaVuSans-47"/>
      <use transform="translate(824.365234 0.015625)" xlink:href="#DejaVuSans-32"/>
      <use transform="translate(856.152344 0.015625)" xlink:href="#DejaVuSans-109"/>
     </g>
    </g>
   </g>
   <g id="matplotlib.axis_2">
    <g id="ytick_1">
     <g id="line2d_33">
      <path clip-path="url(#p0aafca11b4)" d="M 32.56 190.540758 
L 556.004076 190.540758 
" style="fill:none;stroke:#b0b0b0;stroke-dasharray:2.96,1.28;stroke-dashoffset:0;stroke-width:0.8;"/>
     </g>
     <g id="line2d_34">
      <defs>
       <path d="M 0 0 
L -3.5 0 
" id="m3733f5721a" style="stroke:#000000;stroke-width:0.8;"/>
      </defs>
      <g>
       <use style="stroke:#000000;stroke-width:0.8;" x="32.56" xlink:href="#m3733f5721a" y="190.540758"/>
      </g>
     </g>
     <g id="text_18">
      <!-- 0 -->
      <g transform="translate(19.1975 194.339977)scale(0.1 -0.1)">
       <use xlink:href="#DejaVuSans-48"/>
      </g>
     </g>
    </g>
    <g id="ytick_2">
     <g id="line2d_35">
      <path clip-path="url(#p0aafca11b4)" d="M 32.56 157.877561 
L 556.004076 157.877561 
" style="fill:none;stroke:#b0b0b0;stroke-dasharray:2.96,1.28;stroke-dashoffset:0;stroke-width:0.8;"/>
     </g>
     <g id="line2d_36">
      <g>
       <use style="stroke:#000000;stroke-width:0.8;" x="32.56" xlink:href="#m3733f5721a" y="157.877561"/>
      </g>
     </g>
     <g id="text_19">
      <!-- 5 -->
      <g transform="translate(19.1975 161.676779)scale(0.1 -0.1)">
       <use xlink:href="#DejaVuSans-53"/>
      </g>
     </g>
    </g>
    <g id="ytick_3">
     <g id="line2d_37">
      <path clip-path="url(#p0aafca11b4)" d="M 32.56 125.214363 
L 556.004076 125.214363 
" style="fill:none;stroke:#b0b0b0;stroke-dasharray:2.96,1.28;stroke-dashoffset:0;stroke-width:0.8;"/>
     </g>
     <g id="line2d_38">
      <g>
       <use style="stroke:#000000;stroke-width:0.8;" x="32.56" xlink:href="#m3733f5721a" y="125.214363"/>
      </g>
     </g>
     <g id="text_20">
      <!-- 10 -->
      <g transform="translate(12.835 129.013581)scale(0.1 -0.1)">
       <use xlink:href="#DejaVuSans-49"/>
       <use x="63.623047" xlink:href="#DejaVuSans-48"/>
      </g>
     </g>
    </g>
    <g id="ytick_4">
     <g id="line2d_39">
      <path clip-path="url(#p0aafca11b4)" d="M 32.56 92.551165 
L 556.004076 92.551165 
" style="fill:none;stroke:#b0b0b0;stroke-dasharray:2.96,1.28;stroke-dashoffset:0;stroke-width:0.8;"/>
     </g>
     <g id="line2d_40">
      <g>
       <use style="stroke:#000000;stroke-width:0.8;" x="32.56" xlink:href="#m3733f5721a" y="92.551165"/>
      </g>
     </g>
     <g id="text_21">
      <!-- 15 -->
      <g transform="translate(12.835 96.350383)scale(0.1 -0.1)">
       <use xlink:href="#DejaVuSans-49"/>
       <use x="63.623047" xlink:href="#DejaVuSans-53"/>
      </g>
     </g>
    </g>
    <g id="ytick_5">
     <g id="line2d_41">
      <path clip-path="url(#p0aafca11b4)" d="M 32.56 59.887967 
L 556.004076 59.887967 
" style="fill:none;stroke:#b0b0b0;stroke-dasharray:2.96,1.28;stroke-dashoffset:0;stroke-width:0.8;"/>
     </g>
     <g id="line2d_42">
      <g>
       <use style="stroke:#000000;stroke-width:0.8;" x="32.56" xlink:href="#m3733f5721a" y="59.887967"/>
      </g>
     </g>
     <g id="text_22">
      <!-- 20 -->
      <g transform="translate(12.835 63.687186)scale(0.1 -0.1)">
       <use xlink:href="#DejaVuSans-50"/>
       <use x="63.623047" xlink:href="#DejaVuSans-48"/>
      </g>
     </g>
    </g>
   </g>
   <g id="patch_3">
    <path d="M 32.56 193.088153 
L 32.56 51.546507 
" style="fill:none;stroke:#000000;stroke-linecap:square;stroke-linejoin:miter;stroke-width:0.8;"/>
   </g>
   <g id="patch_4">
    <path d="M 556.004076 193.088153 
L 556.004076 51.546507 
" style="fill:none;stroke:#000000;stroke-linecap:square;stroke-linejoin:miter;stroke-width:0.8;"/>
   </g>
   <g id="patch_5">
    <path d="M 32.56 193.088153 
L 556.004076 193.088153 
" style="fill:none;stroke:#000000;stroke-linecap:square;stroke-linejoin:miter;stroke-width:0.8;"/>
   </g>
   <g id="patch_6">
    <path d="M 32.56 51.546507 
L 556.004076 51.546507 
" style="fill:none;stroke:#000000;stroke-linecap:square;stroke-linejoin:miter;stroke-width:0.8;"/>
   </g>
   <g id="line2d_43">
    <path clip-path="url(#p0aafca11b4)" d="M 32.56 147.602543 
L 55.460678 147.480793 
L 66.583865 147.272008 
L 67.892475 147.065134 
L 69.201085 146.732268 
L 70.509696 146.271506 
L 71.818306 145.680212 
L 73.126916 144.955003 
L 74.435526 144.091729 
L 75.744136 143.085452 
L 77.052746 141.930414 
L 78.361357 140.620006 
L 84.904408 133.416807 
L 91.447459 125.712361 
L 97.99051 117.506667 
L 104.53356 108.799725 
L 112.385222 97.834687 
L 113.693832 96.354746 
L 115.002442 95.161016 
L 116.311052 94.261003 
L 117.619662 93.660365 
L 118.928273 93.362879 
L 120.236883 93.370415 
L 121.545493 93.682925 
L 122.854103 94.298445 
L 124.162713 95.213105 
L 133.97729 103.00502 
L 143.791866 110.443742 
L 153.606443 117.529272 
L 156.877968 119.812629 
L 166.692545 127.474826 
L 176.507121 134.669104 
L 186.321697 141.395463 
L 196.136274 147.653903 
L 205.95085 153.444425 
L 215.765427 158.767027 
L 225.580003 163.62171 
L 235.39458 168.008474 
L 245.209156 171.927319 
L 261.566783 177.565246 
L 268.109834 179.521124 
L 274.652885 181.245879 
L 281.195936 182.739511 
L 287.738987 184.00202 
L 290.356208 184.363018 
L 292.973428 184.539043 
L 295.590648 184.539043 
L 298.207869 184.363018 
L 300.825089 184.00202 
L 307.36814 182.739511 
L 313.911191 181.245879 
L 320.454242 179.521124 
L 326.997293 177.565246 
L 333.540344 175.378245 
L 343.35492 171.927319 
L 353.169497 168.008474 
L 362.984073 163.62171 
L 372.79865 158.767027 
L 382.613226 153.444425 
L 392.427802 147.653903 
L 402.242379 141.395463 
L 412.056955 134.669104 
L 421.871532 127.474826 
L 431.686108 119.812629 
L 441.500685 112.844829 
L 451.315261 105.523837 
L 461.129837 97.849654 
L 465.709973 94.298445 
L 467.018583 93.682925 
L 468.327194 93.370415 
L 469.635804 93.362879 
L 470.944414 93.660365 
L 472.253024 94.261003 
L 473.561634 95.161016 
L 474.870244 96.354746 
L 476.178855 97.834687 
L 477.487465 99.591536 
L 484.030516 108.799725 
L 490.573567 117.506667 
L 497.116618 125.712361 
L 503.659669 133.416807 
L 510.20272 140.620006 
L 512.81994 143.085452 
L 514.12855 144.091729 
L 515.43716 144.955003 
L 516.745771 145.680212 
L 518.054381 146.271506 
L 519.362991 146.732268 
L 520.671601 147.065134 
L 521.980211 147.272008 
L 523.288822 147.354073 
L 546.1895 147.580181 
L 556.004076 147.602543 
L 556.004076 147.602543 
" style="fill:none;stroke:#1e90ff;stroke-linecap:square;stroke-width:1.3;"/>
   </g>
   <g id="patch_7">
    <path d="M 65.275255 53.758096 
L 78.361357 53.758096 
L 78.361357 49.334919 
L 65.275255 49.334919 
z
" style="fill:#dc143c;"/>
   </g>
   <g id="patch_8">
    <path d="M 111.076611 53.758096 
L 124.162713 53.758096 
L 124.162713 49.334919 
L 111.076611 49.334919 
z
" style="fill:#dc143c;"/>
   </g>
   <g id="patch_9">
    <path d="M 156.877968 53.758096 
L 255.023732 53.758096 
L 255.023732 49.334919 
L 156.877968 49.334919 
z
" style="fill:#ffd700;"/>
   </g>
   <g id="patch_10">
    <path d="M 287.738987 53.758096 
L 300.825089 53.758096 
L 300.825089 49.334919 
L 287.738987 49.334919 
z
" style="fill:#dc143c;"/>
   </g>
   <g id="patch_11">
    <path d="M 333.540344 53.758096 
L 431.686108 53.758096 
L 431.686108 49.334919 
L 333.540344 49.334919 
z
" style="fill:#ffd700;"/>
   </g>
   <g id="patch_12">
    <path d="M 464.401363 53.758096 
L 477.487465 53.758096 
L 477.487465 49.334919 
L 464.401363 49.334919 
z
" style="fill:#dc143c;"/>
   </g>
   <g id="patch_13">
    <path d="M 510.20272 53.758096 
L 523.288822 53.758096 
L 523.288822 49.334919 
L 510.20272 49.334919 
z
" style="fill:#dc143c;"/>
   </g>
   <g id="line2d_44">
    <path clip-path="url(#p0aafca11b4)" d="M 32.56 58.06075 
L 66.583865 58.163079 
L 67.892475 58.723488 
L 69.201085 59.658243 
L 70.509696 60.961999 
L 71.818306 62.627307 
L 73.126916 64.644645 
L 74.435526 67.002484 
L 75.744136 69.687347 
L 77.052746 72.683887 
L 84.904408 92.489736 
L 88.175933 100.262332 
L 91.447459 107.711739 
L 94.718984 114.837955 
L 97.99051 121.640983 
L 101.262035 128.12082 
L 104.53356 134.277468 
L 107.805086 140.110927 
L 112.385222 147.666363 
L 115.002442 151.227776 
L 117.619662 154.156974 
L 120.236883 156.527814 
L 122.854103 158.400074 
L 124.162713 159.164446 
L 130.705764 162.599015 
L 137.248815 165.805724 
L 143.791866 168.784572 
L 150.334917 171.535559 
L 156.877968 174.058685 
L 166.692545 177.207939 
L 176.507121 179.930579 
L 186.321697 182.209819 
L 196.136274 184.031608 
L 205.95085 185.384712 
L 215.765427 186.260791 
L 225.580003 186.654441 
L 235.39458 186.563238 
L 245.209156 185.987742 
L 255.023732 184.931502 
L 261.566783 183.896027 
L 268.109834 182.632691 
L 274.652885 181.141494 
L 281.195936 179.422436 
L 290.356208 176.804599 
L 292.973428 176.460467 
L 295.590648 176.460467 
L 298.207869 176.804599 
L 300.825089 177.475517 
L 307.36814 179.422436 
L 313.911191 181.141494 
L 320.454242 182.632691 
L 326.997293 183.896027 
L 333.540344 184.931502 
L 343.35492 185.987742 
L 353.169497 186.563238 
L 362.984073 186.654441 
L 372.79865 186.260791 
L 382.613226 185.384712 
L 392.427802 184.031608 
L 402.242379 182.209819 
L 412.056955 179.930579 
L 421.871532 177.207939 
L 431.686108 174.058685 
L 438.229159 171.535559 
L 444.77221 168.784572 
L 451.315261 165.805724 
L 457.858312 162.599015 
L 464.401363 159.164446 
L 467.018583 157.523036 
L 469.635804 155.408142 
L 472.253024 152.766436 
L 474.870244 149.531311 
L 477.487465 145.621196 
L 480.75899 140.110927 
L 484.030516 134.277468 
L 487.302041 128.12082 
L 490.573567 121.640983 
L 493.845092 114.837955 
L 497.116618 107.711739 
L 500.388143 100.262332 
L 503.659669 92.489736 
L 506.931194 84.393951 
L 511.51133 72.683887 
L 512.81994 69.687347 
L 514.12855 67.002484 
L 515.43716 64.644645 
L 516.745771 62.627307 
L 518.054381 60.961999 
L 519.362991 59.658243 
L 520.671601 58.723488 
L 521.980211 58.163079 
L 523.288822 57.980219 
L 556.004076 58.06075 
L 556.004076 58.06075 
" style="fill:none;stroke:#dc143c;stroke-linecap:square;stroke-width:1.3;"/>
   </g>
   <g id="text_23">
    <!-- q1 -->
    <g transform="translate(66.733931 48.776963)scale(0.08 -0.08)">
     <defs>
      <path d="M 14.796875 27.296875 
Q 14.796875 17.390625 18.875 11.75 
Q 22.953125 6.109375 30.078125 6.109375 
Q 37.203125 6.109375 41.296875 11.75 
Q 45.40625 17.390625 45.40625 27.296875 
Q 45.40625 37.203125 41.296875 42.84375 
Q 37.203125 48.484375 30.078125 48.484375 
Q 22.953125 48.484375 18.875 42.84375 
Q 14.796875 37.203125 14.796875 27.296875 
z
M 45.40625 8.203125 
Q 42.578125 3.328125 38.25 0.953125 
Q 33.9375 -1.421875 27.875 -1.421875 
Q 17.96875 -1.421875 11.734375 6.484375 
Q 5.515625 14.40625 5.515625 27.296875 
Q 5.515625 40.1875 11.734375 48.09375 
Q 17.96875 56 27.875 56 
Q 33.9375 56 38.25 53.625 
Q 42.578125 51.265625 45.40625 46.390625 
L 45.40625 54.6875 
L 54.390625 54.6875 
L 54.390625 -20.796875 
L 45.40625 -20.796875 
z
" id="DejaVuSans-113"/>
     </defs>
     <use xlink:href="#DejaVuSans-113"/>
     <use x="63.476562" xlink:href="#DejaVuSans-49"/>
    </g>
   </g>
   <g id="text_24">
    <!-- q2 -->
    <g transform="translate(112.535287 48.776963)scale(0.08 -0.08)">
     <use xlink:href="#DejaVuSans-113"/>
     <use x="63.476562" xlink:href="#DejaVuSans-50"/>
    </g>
   </g>
   <g id="text_25">
    <!-- b1 -->
    <g transform="translate(200.866475 63.154228)scale(0.08 -0.08)">
     <use xlink:href="#DejaVuSans-98"/>
     <use x="63.476562" xlink:href="#DejaVuSans-49"/>
    </g>
   </g>
   <g id="text_26">
    <!-- q3 -->
    <g transform="translate(289.197663 48.776963)scale(0.08 -0.08)">
     <use xlink:href="#DejaVuSans-113"/>
     <use x="63.476562" xlink:href="#DejaVuSans-51"/>
    </g>
   </g>
   <g id="text_27">
    <!-- b1 -->
    <g transform="translate(377.528851 63.154228)scale(0.08 -0.08)">
     <use xlink:href="#DejaVuSans-98"/>
     <use x="63.476562" xlink:href="#DejaVuSans-49"/>
    </g>
   </g>
   <g id="text_28">
    <!-- q2 -->
    <g transform="translate(465.860039 48.776963)scale(0.08 -0.08)">
     <use xlink:href="#DejaVuSans-113"/>
     <use x="63.476562" xlink:href="#DejaVuSans-50"/>
    </g>
   </g>
   <g id="text_29">
    <!-- q1 -->
    <g transform="translate(511.661396 48.776963)scale(0.08 -0.08)">
     <use xlink:href="#DejaVuSans-113"/>
     <use x="63.476562" xlink:href="#DejaVuSans-49"/>
    </g>
   </g>
  </g>
  <g id="axes_2">
   <g id="patch_14">
    <path d="M 32.56 394.688153 
L 556.004076 394.688153 
L 556.004076 253.146507 
L 32.56 253.146507 
z
" style="fill:#ffffff;"/>
   </g>
   <g id="matplotlib.axis_3">
    <g id="xtick_17">
     <g id="line2d_45">
      <path clip-path="url(#pd312ad6975)" d="M 32.56 394.688153 
L 32.56 253.146507 
" style="fill:none;stroke:#b0b0b0;stroke-dasharray:2.96,1.28;stroke-dashoffset:0;stroke-width:0.8;"/>
     </g>
     <g id="line2d_46">
      <g>
       <use style="stroke:#000000;stroke-width:0.8;" x="32.56" xlink:href="#ma59d1cdea7" y="394.688153"/>
      </g>
     </g>
     <g id="text_30">
      <!-- 0.0 -->
      <g transform="translate(28.888569 418.306267)rotate(-45)scale(0.1 -0.1)">
       <use xlink:href="#DejaVuSans-48"/>
       <use x="63.623047" xlink:href="#DejaVuSans-46"/>
       <use x="95.410156" xlink:href="#DejaVuSans-48"/>
      </g>
     </g>
    </g>
    <g id="xtick_18">
     <g id="line2d_47">
      <path clip-path="url(#pd312ad6975)" d="M 65.275255 394.688153 
L 65.275255 253.146507 
" style="fill:none;stroke:#b0b0b0;stroke-dasharray:2.96,1.28;stroke-dashoffset:0;stroke-width:0.8;"/>
     </g>
     <g id="line2d_48">
      <g>
       <use style="stroke:#000000;stroke-width:0.8;" x="65.275255" xlink:href="#ma59d1cdea7" y="394.688153"/>
      </g>
     </g>
     <g id="text_31">
      <!-- 0.5 -->
      <g transform="translate(61.603824 418.306267)rotate(-45)scale(0.1 -0.1)">
       <use xlink:href="#DejaVuSans-48"/>
       <use x="63.623047" xlink:href="#DejaVuSans-46"/>
       <use x="95.410156" xlink:href="#DejaVuSans-53"/>
      </g>
     </g>
    </g>
    <g id="xtick_19">
     <g id="line2d_49">
      <path clip-path="url(#pd312ad6975)" d="M 78.361357 394.688153 
L 78.361357 253.146507 
" style="fill:none;stroke:#b0b0b0;stroke-dasharray:2.96,1.28;stroke-dashoffset:0;stroke-width:0.8;"/>
     </g>
     <g id="line2d_50">
      <g>
       <use style="stroke:#000000;stroke-width:0.8;" x="78.361357" xlink:href="#ma59d1cdea7" y="394.688153"/>
      </g>
     </g>
     <g id="text_32">
      <!-- 0.7 -->
      <g transform="translate(74.689926 418.306267)rotate(-45)scale(0.1 -0.1)">
       <use xlink:href="#DejaVuSans-48"/>
       <use x="63.623047" xlink:href="#DejaVuSans-46"/>
       <use x="95.410156" xlink:href="#DejaVuSans-55"/>
      </g>
     </g>
    </g>
    <g id="xtick_20">
     <g id="line2d_51">
      <path clip-path="url(#pd312ad6975)" d="M 111.076611 394.688153 
L 111.076611 253.146507 
" style="fill:none;stroke:#b0b0b0;stroke-dasharray:2.96,1.28;stroke-dashoffset:0;stroke-width:0.8;"/>
     </g>
     <g id="line2d_52">
      <g>
       <use style="stroke:#000000;stroke-width:0.8;" x="111.076611" xlink:href="#ma59d1cdea7" y="394.688153"/>
      </g>
     </g>
     <g id="text_33">
      <!-- 1.2 -->
      <g transform="translate(107.40518 418.306267)rotate(-45)scale(0.1 -0.1)">
       <use xlink:href="#DejaVuSans-49"/>
       <use x="63.623047" xlink:href="#DejaVuSans-46"/>
       <use x="95.410156" xlink:href="#DejaVuSans-50"/>
      </g>
     </g>
    </g>
    <g id="xtick_21">
     <g id="line2d_53">
      <path clip-path="url(#pd312ad6975)" d="M 124.162713 394.688153 
L 124.162713 253.146507 
" style="fill:none;stroke:#b0b0b0;stroke-dasharray:2.96,1.28;stroke-dashoffset:0;stroke-width:0.8;"/>
     </g>
     <g id="line2d_54">
      <g>
       <use style="stroke:#000000;stroke-width:0.8;" x="124.162713" xlink:href="#ma59d1cdea7" y="394.688153"/>
      </g>
     </g>
     <g id="text_34">
      <!-- 1.4 -->
      <g transform="translate(120.491282 418.306267)rotate(-45)scale(0.1 -0.1)">
       <use xlink:href="#DejaVuSans-49"/>
       <use x="63.623047" xlink:href="#DejaVuSans-46"/>
       <use x="95.410156" xlink:href="#DejaVuSans-52"/>
      </g>
     </g>
    </g>
    <g id="xtick_22">
     <g id="line2d_55">
      <path clip-path="url(#pd312ad6975)" d="M 156.877968 394.688153 
L 156.877968 253.146507 
" style="fill:none;stroke:#b0b0b0;stroke-dasharray:2.96,1.28;stroke-dashoffset:0;stroke-width:0.8;"/>
     </g>
     <g id="line2d_56">
      <g>
       <use style="stroke:#000000;stroke-width:0.8;" x="156.877968" xlink:href="#ma59d1cdea7" y="394.688153"/>
      </g>
     </g>
     <g id="text_35">
      <!-- 1.9 -->
      <g transform="translate(153.206537 418.306267)rotate(-45)scale(0.1 -0.1)">
       <use xlink:href="#DejaVuSans-49"/>
       <use x="63.623047" xlink:href="#DejaVuSans-46"/>
       <use x="95.410156" xlink:href="#DejaVuSans-57"/>
      </g>
     </g>
    </g>
    <g id="xtick_23">
     <g id="line2d_57">
      <path clip-path="url(#pd312ad6975)" d="M 255.023732 394.688153 
L 255.023732 253.146507 
" style="fill:none;stroke:#b0b0b0;stroke-dasharray:2.96,1.28;stroke-dashoffset:0;stroke-width:0.8;"/>
     </g>
     <g id="line2d_58">
      <g>
       <use style="stroke:#000000;stroke-width:0.8;" x="255.023732" xlink:href="#ma59d1cdea7" y="394.688153"/>
      </g>
     </g>
     <g id="text_36">
      <!-- 3.4 -->
      <g transform="translate(251.352301 418.306267)rotate(-45)scale(0.1 -0.1)">
       <use xlink:href="#DejaVuSans-51"/>
       <use x="63.623047" xlink:href="#DejaVuSans-46"/>
       <use x="95.410156" xlink:href="#DejaVuSans-52"/>
      </g>
     </g>
    </g>
    <g id="xtick_24">
     <g id="line2d_59">
      <path clip-path="url(#pd312ad6975)" d="M 287.738987 394.688153 
L 287.738987 253.146507 
" style="fill:none;stroke:#b0b0b0;stroke-dasharray:2.96,1.28;stroke-dashoffset:0;stroke-width:0.8;"/>
     </g>
     <g id="line2d_60">
      <g>
       <use style="stroke:#000000;stroke-width:0.8;" x="287.738987" xlink:href="#ma59d1cdea7" y="394.688153"/>
      </g>
     </g>
     <g id="text_37">
      <!-- 3.9 -->
      <g transform="translate(284.067556 418.306267)rotate(-45)scale(0.1 -0.1)">
       <use xlink:href="#DejaVuSans-51"/>
       <use x="63.623047" xlink:href="#DejaVuSans-46"/>
       <use x="95.410156" xlink:href="#DejaVuSans-57"/>
      </g>
     </g>
    </g>
    <g id="xtick_25">
     <g id="line2d_61">
      <path clip-path="url(#pd312ad6975)" d="M 300.825089 394.688153 
L 300.825089 253.146507 
" style="fill:none;stroke:#b0b0b0;stroke-dasharray:2.96,1.28;stroke-dashoffset:0;stroke-width:0.8;"/>
     </g>
     <g id="line2d_62">
      <g>
       <use style="stroke:#000000;stroke-width:0.8;" x="300.825089" xlink:href="#ma59d1cdea7" y="394.688153"/>
      </g>
     </g>
     <g id="text_38">
      <!-- 4.1 -->
      <g transform="translate(297.153658 418.306267)rotate(-45)scale(0.1 -0.1)">
       <use xlink:href="#DejaVuSans-52"/>
       <use x="63.623047" xlink:href="#DejaVuSans-46"/>
       <use x="95.410156" xlink:href="#DejaVuSans-49"/>
      </g>
     </g>
    </g>
    <g id="xtick_26">
     <g id="line2d_63">
      <path clip-path="url(#pd312ad6975)" d="M 333.540344 394.688153 
L 333.540344 253.146507 
" style="fill:none;stroke:#b0b0b0;stroke-dasharray:2.96,1.28;stroke-dashoffset:0;stroke-width:0.8;"/>
     </g>
     <g id="line2d_64">
      <g>
       <use style="stroke:#000000;stroke-width:0.8;" x="333.540344" xlink:href="#ma59d1cdea7" y="394.688153"/>
      </g>
     </g>
     <g id="text_39">
      <!-- 4.6 -->
      <g transform="translate(329.868913 418.306267)rotate(-45)scale(0.1 -0.1)">
       <use xlink:href="#DejaVuSans-52"/>
       <use x="63.623047" xlink:href="#DejaVuSans-46"/>
       <use x="95.410156" xlink:href="#DejaVuSans-54"/>
      </g>
     </g>
    </g>
    <g id="xtick_27">
     <g id="line2d_65">
      <path clip-path="url(#pd312ad6975)" d="M 431.686108 394.688153 
L 431.686108 253.146507 
" style="fill:none;stroke:#b0b0b0;stroke-dasharray:2.96,1.28;stroke-dashoffset:0;stroke-width:0.8;"/>
     </g>
     <g id="line2d_66">
      <g>
       <use style="stroke:#000000;stroke-width:0.8;" x="431.686108" xlink:href="#ma59d1cdea7" y="394.688153"/>
      </g>
     </g>
     <g id="text_40">
      <!-- 6.1 -->
      <g transform="translate(428.014677 418.306267)rotate(-45)scale(0.1 -0.1)">
       <use xlink:href="#DejaVuSans-54"/>
       <use x="63.623047" xlink:href="#DejaVuSans-46"/>
       <use x="95.410156" xlink:href="#DejaVuSans-49"/>
      </g>
     </g>
    </g>
    <g id="xtick_28">
     <g id="line2d_67">
      <path clip-path="url(#pd312ad6975)" d="M 464.401363 394.688153 
L 464.401363 253.146507 
" style="fill:none;stroke:#b0b0b0;stroke-dasharray:2.96,1.28;stroke-dashoffset:0;stroke-width:0.8;"/>
     </g>
     <g id="line2d_68">
      <g>
       <use style="stroke:#000000;stroke-width:0.8;" x="464.401363" xlink:href="#ma59d1cdea7" y="394.688153"/>
      </g>
     </g>
     <g id="text_41">
      <!-- 6.6 -->
      <g transform="translate(460.729932 418.306267)rotate(-45)scale(0.1 -0.1)">
       <use xlink:href="#DejaVuSans-54"/>
       <use x="63.623047" xlink:href="#DejaVuSans-46"/>
       <use x="95.410156" xlink:href="#DejaVuSans-54"/>
      </g>
     </g>
    </g>
    <g id="xtick_29">
     <g id="line2d_69">
      <path clip-path="url(#pd312ad6975)" d="M 477.487465 394.688153 
L 477.487465 253.146507 
" style="fill:none;stroke:#b0b0b0;stroke-dasharray:2.96,1.28;stroke-dashoffset:0;stroke-width:0.8;"/>
     </g>
     <g id="line2d_70">
      <g>
       <use style="stroke:#000000;stroke-width:0.8;" x="477.487465" xlink:href="#ma59d1cdea7" y="394.688153"/>
      </g>
     </g>
     <g id="text_42">
      <!-- 6.8 -->
      <g transform="translate(473.816034 418.306267)rotate(-45)scale(0.1 -0.1)">
       <use xlink:href="#DejaVuSans-54"/>
       <use x="63.623047" xlink:href="#DejaVuSans-46"/>
       <use x="95.410156" xlink:href="#DejaVuSans-56"/>
      </g>
     </g>
    </g>
    <g id="xtick_30">
     <g id="line2d_71">
      <path clip-path="url(#pd312ad6975)" d="M 510.20272 394.688153 
L 510.20272 253.146507 
" style="fill:none;stroke:#b0b0b0;stroke-dasharray:2.96,1.28;stroke-dashoffset:0;stroke-width:0.8;"/>
     </g>
     <g id="line2d_72">
      <g>
       <use style="stroke:#000000;stroke-width:0.8;" x="510.20272" xlink:href="#ma59d1cdea7" y="394.688153"/>
      </g>
     </g>
     <g id="text_43">
      <!-- 7.3 -->
      <g transform="translate(506.531289 418.306267)rotate(-45)scale(0.1 -0.1)">
       <use xlink:href="#DejaVuSans-55"/>
       <use x="63.623047" xlink:href="#DejaVuSans-46"/>
       <use x="95.410156" xlink:href="#DejaVuSans-51"/>
      </g>
     </g>
    </g>
    <g id="xtick_31">
     <g id="line2d_73">
      <path clip-path="url(#pd312ad6975)" d="M 523.288822 394.688153 
L 523.288822 253.146507 
" style="fill:none;stroke:#b0b0b0;stroke-dasharray:2.96,1.28;stroke-dashoffset:0;stroke-width:0.8;"/>
     </g>
     <g id="line2d_74">
      <g>
       <use style="stroke:#000000;stroke-width:0.8;" x="523.288822" xlink:href="#ma59d1cdea7" y="394.688153"/>
      </g>
     </g>
     <g id="text_44">
      <!-- 7.5 -->
      <g transform="translate(519.617391 418.306267)rotate(-45)scale(0.1 -0.1)">
       <use xlink:href="#DejaVuSans-55"/>
       <use x="63.623047" xlink:href="#DejaVuSans-46"/>
       <use x="95.410156" xlink:href="#DejaVuSans-53"/>
      </g>
     </g>
    </g>
    <g id="xtick_32">
     <g id="line2d_75">
      <path clip-path="url(#pd312ad6975)" d="M 556.004076 394.688153 
L 556.004076 253.146507 
" style="fill:none;stroke:#b0b0b0;stroke-dasharray:2.96,1.28;stroke-dashoffset:0;stroke-width:0.8;"/>
     </g>
     <g id="line2d_76">
      <g>
       <use style="stroke:#000000;stroke-width:0.8;" x="556.004076" xlink:href="#ma59d1cdea7" y="394.688153"/>
      </g>
     </g>
     <g id="text_45">
      <!-- 8.0 -->
      <g transform="translate(552.332645 418.306267)rotate(-45)scale(0.1 -0.1)">
       <use xlink:href="#DejaVuSans-56"/>
       <use x="63.623047" xlink:href="#DejaVuSans-46"/>
       <use x="95.410156" xlink:href="#DejaVuSans-48"/>
      </g>
     </g>
    </g>
    <g id="text_46">
     <!-- Orbit Position $s$ / m -->
     <g transform="translate(246.582038 431.375265)scale(0.1 -0.1)">
      <use transform="translate(0 0.015625)" xlink:href="#DejaVuSans-79"/>
      <use transform="translate(78.710938 0.015625)" xlink:href="#DejaVuSans-114"/>
      <use transform="translate(119.824219 0.015625)" xlink:href="#DejaVuSans-98"/>
      <use transform="translate(183.300781 0.015625)" xlink:href="#DejaVuSans-105"/>
      <use transform="translate(211.083984 0.015625)" xlink:href="#DejaVuSans-116"/>
      <use transform="translate(250.292969 0.015625)" xlink:href="#DejaVuSans-32"/>
      <use transform="translate(282.080078 0.015625)" xlink:href="#DejaVuSans-80"/>
      <use transform="translate(342.382812 0.015625)" xlink:href="#DejaVuSans-111"/>
      <use transform="translate(403.564453 0.015625)" xlink:href="#DejaVuSans-115"/>
      <use transform="translate(455.664062 0.015625)" xlink:href="#DejaVuSans-105"/>
      <use transform="translate(483.447266 0.015625)" xlink:href="#DejaVuSans-116"/>
      <use transform="translate(522.65625 0.015625)" xlink:href="#DejaVuSans-105"/>
      <use transform="translate(550.439453 0.015625)" xlink:href="#DejaVuSans-111"/>
      <use transform="translate(611.621094 0.015625)" xlink:href="#DejaVuSans-110"/>
      <use transform="translate(675 0.015625)" xlink:href="#DejaVuSans-32"/>
      <use transform="translate(706.787109 0.015625)" xlink:href="#DejaVuSans-Oblique-115"/>
      <use transform="translate(758.886719 0.015625)" xlink:href="#DejaVuSans-32"/>
      <use transform="translate(790.673828 0.015625)" xlink:href="#DejaVuSans-47"/>
      <use transform="translate(824.365234 0.015625)" xlink:href="#DejaVuSans-32"/>
      <use transform="translate(856.152344 0.015625)" xlink:href="#DejaVuSans-109"/>
     </g>
    </g>
   </g>
   <g id="matplotlib.axis_4">
    <g id="ytick_6">
     <g id="line2d_77">
      <path clip-path="url(#pd312ad6975)" d="M 32.56 388.562865 
L 556.004076 388.562865 
" style="fill:none;stroke:#b0b0b0;stroke-dasharray:2.96,1.28;stroke-dashoffset:0;stroke-width:0.8;"/>
     </g>
     <g id="line2d_78">
      <g>
       <use style="stroke:#000000;stroke-width:0.8;" x="32.56" xlink:href="#m3733f5721a" y="388.562865"/>
      </g>
     </g>
     <g id="text_47">
      <!-- −4 -->
      <g transform="translate(10.817813 392.362084)scale(0.1 -0.1)">
       <defs>
        <path d="M 10.59375 35.5 
L 73.1875 35.5 
L 73.1875 27.203125 
L 10.59375 27.203125 
z
" id="DejaVuSans-8722"/>
       </defs>
       <use xlink:href="#DejaVuSans-8722"/>
       <use x="83.789062" xlink:href="#DejaVuSans-52"/>
      </g>
     </g>
    </g>
    <g id="ytick_7">
     <g id="line2d_79">
      <path clip-path="url(#pd312ad6975)" d="M 32.56 360.205511 
L 556.004076 360.205511 
" style="fill:none;stroke:#b0b0b0;stroke-dasharray:2.96,1.28;stroke-dashoffset:0;stroke-width:0.8;"/>
     </g>
     <g id="line2d_80">
      <g>
       <use style="stroke:#000000;stroke-width:0.8;" x="32.56" xlink:href="#m3733f5721a" y="360.205511"/>
      </g>
     </g>
     <g id="text_48">
      <!-- −2 -->
      <g transform="translate(10.817813 364.00473)scale(0.1 -0.1)">
       <use xlink:href="#DejaVuSans-8722"/>
       <use x="83.789062" xlink:href="#DejaVuSans-50"/>
      </g>
     </g>
    </g>
    <g id="ytick_8">
     <g id="line2d_81">
      <path clip-path="url(#pd312ad6975)" d="M 32.56 331.848158 
L 556.004076 331.848158 
" style="fill:none;stroke:#b0b0b0;stroke-dasharray:2.96,1.28;stroke-dashoffset:0;stroke-width:0.8;"/>
     </g>
     <g id="line2d_82">
      <g>
       <use style="stroke:#000000;stroke-width:0.8;" x="32.56" xlink:href="#m3733f5721a" y="331.848158"/>
      </g>
     </g>
     <g id="text_49">
      <!-- 0 -->
      <g transform="translate(19.1975 335.647376)scale(0.1 -0.1)">
       <use xlink:href="#DejaVuSans-48"/>
      </g>
     </g>
    </g>
    <g id="ytick_9">
     <g id="line2d_83">
      <path clip-path="url(#pd312ad6975)" d="M 32.56 303.490804 
L 556.004076 303.490804 
" style="fill:none;stroke:#b0b0b0;stroke-dasharray:2.96,1.28;stroke-dashoffset:0;stroke-width:0.8;"/>
     </g>
     <g id="line2d_84">
      <g>
       <use style="stroke:#000000;stroke-width:0.8;" x="32.56" xlink:href="#m3733f5721a" y="303.490804"/>
      </g>
     </g>
     <g id="text_50">
      <!-- 2 -->
      <g transform="translate(19.1975 307.290022)scale(0.1 -0.1)">
       <use xlink:href="#DejaVuSans-50"/>
      </g>
     </g>
    </g>
    <g id="ytick_10">
     <g id="line2d_85">
      <path clip-path="url(#pd312ad6975)" d="M 32.56 275.13345 
L 556.004076 275.13345 
" style="fill:none;stroke:#b0b0b0;stroke-dasharray:2.96,1.28;stroke-dashoffset:0;stroke-width:0.8;"/>
     </g>
     <g id="line2d_86">
      <g>
       <use style="stroke:#000000;stroke-width:0.8;" x="32.56" xlink:href="#m3733f5721a" y="275.13345"/>
      </g>
     </g>
     <g id="text_51">
      <!-- 4 -->
      <g transform="translate(19.1975 278.932668)scale(0.1 -0.1)">
       <use xlink:href="#DejaVuSans-52"/>
      </g>
     </g>
    </g>
   </g>
   <g id="patch_15">
    <path d="M 32.56 394.688153 
L 32.56 253.146507 
" style="fill:none;stroke:#000000;stroke-linecap:square;stroke-linejoin:miter;stroke-width:0.8;"/>
   </g>
   <g id="patch_16">
    <path d="M 556.004076 394.688153 
L 556.004076 253.146507 
" style="fill:none;stroke:#000000;stroke-linecap:square;stroke-linejoin:miter;stroke-width:0.8;"/>
   </g>
   <g id="patch_17">
    <path d="M 32.56 394.688153 
L 556.004076 394.688153 
" style="fill:none;stroke:#000000;stroke-linecap:square;stroke-linejoin:miter;stroke-width:0.8;"/>
   </g>
   <g id="patch_18">
    <path d="M 32.56 253.146507 
L 556.004076 253.146507 
" style="fill:none;stroke:#000000;stroke-linecap:square;stroke-linejoin:miter;stroke-width:0.8;"/>
   </g>
   <g id="line2d_87">
    <path clip-path="url(#pd312ad6975)" d="M 32.56 331.848158 
L 156.877968 331.848158 
L 196.136274 309.66782 
L 215.765427 298.748694 
L 235.39458 288.033636 
L 245.209156 282.773338 
L 255.023732 275.441874 
L 287.738987 275.441874 
L 292.973428 320.422838 
L 300.825089 388.254441 
L 333.540344 388.254441 
L 343.35492 380.922977 
L 362.984073 370.334822 
L 382.613226 359.509384 
L 412.056955 342.972619 
L 431.686108 331.848157 
L 556.004076 331.848158 
L 556.004076 331.848158 
" style="fill:none;stroke:#ff8c00;stroke-linecap:square;stroke-width:1.3;"/>
   </g>
   <g id="patch_19">
    <path d="M 65.275255 255.358096 
L 78.361357 255.358096 
L 78.361357 250.934919 
L 65.275255 250.934919 
z
" style="fill:#dc143c;"/>
   </g>
   <g id="patch_20">
    <path d="M 111.076611 255.358096 
L 124.162713 255.358096 
L 124.162713 250.934919 
L 111.076611 250.934919 
z
" style="fill:#dc143c;"/>
   </g>
   <g id="patch_21">
    <path d="M 156.877968 255.358096 
L 255.023732 255.358096 
L 255.023732 250.934919 
L 156.877968 250.934919 
z
" style="fill:#ffd700;"/>
   </g>
   <g id="patch_22">
    <path d="M 287.738987 255.358096 
L 300.825089 255.358096 
L 300.825089 250.934919 
L 287.738987 250.934919 
z
" style="fill:#dc143c;"/>
   </g>
   <g id="patch_23">
    <path d="M 333.540344 255.358096 
L 431.686108 255.358096 
L 431.686108 250.934919 
L 333.540344 250.934919 
z
" style="fill:#ffd700;"/>
   </g>
   <g id="patch_24">
    <path d="M 464.401363 255.358096 
L 477.487465 255.358096 
L 477.487465 250.934919 
L 464.401363 250.934919 
z
" style="fill:#dc143c;"/>
   </g>
   <g id="patch_25">
    <path d="M 510.20272 255.358096 
L 523.288822 255.358096 
L 523.288822 250.934919 
L 510.20272 250.934919 
z
" style="fill:#dc143c;"/>
   </g>
   <g id="line2d_88">
    <path clip-path="url(#pd312ad6975)" d="M 32.56 331.848157 
L 156.877968 331.848157 
L 166.692545 331.430615 
L 176.507121 330.17863 
L 186.321697 328.094134 
L 196.136274 325.18034 
L 205.95085 321.441743 
L 215.765427 316.884105 
L 225.580003 311.514455 
L 235.39458 305.341073 
L 245.209156 298.373477 
L 255.023732 290.622411 
L 289.047597 261.401532 
L 290.356208 260.606601 
L 291.664818 260.03699 
L 292.973428 259.694502 
L 294.282038 259.580219 
L 295.590648 259.694502 
L 296.899259 260.03699 
L 298.207869 260.606601 
L 299.516479 261.401532 
L 300.825089 262.419269 
L 333.540344 290.622411 
L 343.35492 298.373477 
L 353.169497 305.341073 
L 362.984073 311.514455 
L 372.79865 316.884105 
L 382.613226 321.441743 
L 392.427802 325.18034 
L 402.242379 328.094134 
L 412.056955 330.17863 
L 421.871532 331.430615 
L 431.686108 331.848157 
L 556.004076 331.848157 
L 556.004076 331.848157 
" style="fill:none;stroke:#3cb371;stroke-linecap:square;stroke-width:1.3;"/>
   </g>
   <g id="text_52">
    <!-- q1 -->
    <g transform="translate(66.733931 250.376963)scale(0.08 -0.08)">
     <use xlink:href="#DejaVuSans-113"/>
     <use x="63.476562" xlink:href="#DejaVuSans-49"/>
    </g>
   </g>
   <g id="text_53">
    <!-- q2 -->
    <g transform="translate(112.535287 250.376963)scale(0.08 -0.08)">
     <use xlink:href="#DejaVuSans-113"/>
     <use x="63.476562" xlink:href="#DejaVuSans-50"/>
    </g>
   </g>
   <g id="text_54">
    <!-- b1 -->
    <g transform="translate(200.866475 264.754228)scale(0.08 -0.08)">
     <use xlink:href="#DejaVuSans-98"/>
     <use x="63.476562" xlink:href="#DejaVuSans-49"/>
    </g>
   </g>
   <g id="text_55">
    <!-- q3 -->
    <g transform="translate(289.197663 250.376963)scale(0.08 -0.08)">
     <use xlink:href="#DejaVuSans-113"/>
     <use x="63.476562" xlink:href="#DejaVuSans-51"/>
    </g>
   </g>
   <g id="text_56">
    <!-- b1 -->
    <g transform="translate(377.528851 264.754228)scale(0.08 -0.08)">
     <use xlink:href="#DejaVuSans-98"/>
     <use x="63.476562" xlink:href="#DejaVuSans-49"/>
    </g>
   </g>
   <g id="text_57">
    <!-- q2 -->
    <g transform="translate(465.860039 250.376963)scale(0.08 -0.08)">
     <use xlink:href="#DejaVuSans-113"/>
     <use x="63.476562" xlink:href="#DejaVuSans-50"/>
    </g>
   </g>
   <g id="text_58">
    <!-- q1 -->
    <g transform="translate(511.661396 250.376963)scale(0.08 -0.08)">
     <use xlink:href="#DejaVuSans-113"/>
     <use x="63.476562" xlink:href="#DejaVuSans-49"/>
    </g>
   </g>
  </g>
  <g id="axes_3">
   <g id="patch_26">
    <path d="M 32.56 596.288153 
L 556.004076 596.288153 
L 556.004076 454.746507 
L 32.56 454.746507 
z
" style="fill:#ffffff;"/>
   </g>
   <g id="matplotlib.axis_5">
    <g id="xtick_33">
     <g id="line2d_89">
      <path clip-path="url(#p543b74e81d)" d="M 32.56 596.288153 
L 32.56 454.746507 
" style="fill:none;stroke:#b0b0b0;stroke-dasharray:2.96,1.28;stroke-dashoffset:0;stroke-width:0.8;"/>
     </g>
     <g id="line2d_90">
      <g>
       <use style="stroke:#000000;stroke-width:0.8;" x="32.56" xlink:href="#ma59d1cdea7" y="596.288153"/>
      </g>
     </g>
     <g id="text_59">
      <!-- 0.0 -->
      <g transform="translate(28.888569 619.906267)rotate(-45)scale(0.1 -0.1)">
       <use xlink:href="#DejaVuSans-48"/>
       <use x="63.623047" xlink:href="#DejaVuSans-46"/>
       <use x="95.410156" xlink:href="#DejaVuSans-48"/>
      </g>
     </g>
    </g>
    <g id="xtick_34">
     <g id="line2d_91">
      <path clip-path="url(#p543b74e81d)" d="M 65.275255 596.288153 
L 65.275255 454.746507 
" style="fill:none;stroke:#b0b0b0;stroke-dasharray:2.96,1.28;stroke-dashoffset:0;stroke-width:0.8;"/>
     </g>
     <g id="line2d_92">
      <g>
       <use style="stroke:#000000;stroke-width:0.8;" x="65.275255" xlink:href="#ma59d1cdea7" y="596.288153"/>
      </g>
     </g>
     <g id="text_60">
      <!-- 0.5 -->
      <g transform="translate(61.603824 619.906267)rotate(-45)scale(0.1 -0.1)">
       <use xlink:href="#DejaVuSans-48"/>
       <use x="63.623047" xlink:href="#DejaVuSans-46"/>
       <use x="95.410156" xlink:href="#DejaVuSans-53"/>
      </g>
     </g>
    </g>
    <g id="xtick_35">
     <g id="line2d_93">
      <path clip-path="url(#p543b74e81d)" d="M 78.361357 596.288153 
L 78.361357 454.746507 
" style="fill:none;stroke:#b0b0b0;stroke-dasharray:2.96,1.28;stroke-dashoffset:0;stroke-width:0.8;"/>
     </g>
     <g id="line2d_94">
      <g>
       <use style="stroke:#000000;stroke-width:0.8;" x="78.361357" xlink:href="#ma59d1cdea7" y="596.288153"/>
      </g>
     </g>
     <g id="text_61">
      <!-- 0.7 -->
      <g transform="translate(74.689926 619.906267)rotate(-45)scale(0.1 -0.1)">
       <use xlink:href="#DejaVuSans-48"/>
       <use x="63.623047" xlink:href="#DejaVuSans-46"/>
       <use x="95.410156" xlink:href="#DejaVuSans-55"/>
      </g>
     </g>
    </g>
    <g id="xtick_36">
     <g id="line2d_95">
      <path clip-path="url(#p543b74e81d)" d="M 111.076611 596.288153 
L 111.076611 454.746507 
" style="fill:none;stroke:#b0b0b0;stroke-dasharray:2.96,1.28;stroke-dashoffset:0;stroke-width:0.8;"/>
     </g>
     <g id="line2d_96">
      <g>
       <use style="stroke:#000000;stroke-width:0.8;" x="111.076611" xlink:href="#ma59d1cdea7" y="596.288153"/>
      </g>
     </g>
     <g id="text_62">
      <!-- 1.2 -->
      <g transform="translate(107.40518 619.906267)rotate(-45)scale(0.1 -0.1)">
       <use xlink:href="#DejaVuSans-49"/>
       <use x="63.623047" xlink:href="#DejaVuSans-46"/>
       <use x="95.410156" xlink:href="#DejaVuSans-50"/>
      </g>
     </g>
    </g>
    <g id="xtick_37">
     <g id="line2d_97">
      <path clip-path="url(#p543b74e81d)" d="M 124.162713 596.288153 
L 124.162713 454.746507 
" style="fill:none;stroke:#b0b0b0;stroke-dasharray:2.96,1.28;stroke-dashoffset:0;stroke-width:0.8;"/>
     </g>
     <g id="line2d_98">
      <g>
       <use style="stroke:#000000;stroke-width:0.8;" x="124.162713" xlink:href="#ma59d1cdea7" y="596.288153"/>
      </g>
     </g>
     <g id="text_63">
      <!-- 1.4 -->
      <g transform="translate(120.491282 619.906267)rotate(-45)scale(0.1 -0.1)">
       <use xlink:href="#DejaVuSans-49"/>
       <use x="63.623047" xlink:href="#DejaVuSans-46"/>
       <use x="95.410156" xlink:href="#DejaVuSans-52"/>
      </g>
     </g>
    </g>
    <g id="xtick_38">
     <g id="line2d_99">
      <path clip-path="url(#p543b74e81d)" d="M 156.877968 596.288153 
L 156.877968 454.746507 
" style="fill:none;stroke:#b0b0b0;stroke-dasharray:2.96,1.28;stroke-dashoffset:0;stroke-width:0.8;"/>
     </g>
     <g id="line2d_100">
      <g>
       <use style="stroke:#000000;stroke-width:0.8;" x="156.877968" xlink:href="#ma59d1cdea7" y="596.288153"/>
      </g>
     </g>
     <g id="text_64">
      <!-- 1.9 -->
      <g transform="translate(153.206537 619.906267)rotate(-45)scale(0.1 -0.1)">
       <use xlink:href="#DejaVuSans-49"/>
       <use x="63.623047" xlink:href="#DejaVuSans-46"/>
       <use x="95.410156" xlink:href="#DejaVuSans-57"/>
      </g>
     </g>
    </g>
    <g id="xtick_39">
     <g id="line2d_101">
      <path clip-path="url(#p543b74e81d)" d="M 255.023732 596.288153 
L 255.023732 454.746507 
" style="fill:none;stroke:#b0b0b0;stroke-dasharray:2.96,1.28;stroke-dashoffset:0;stroke-width:0.8;"/>
     </g>
     <g id="line2d_102">
      <g>
       <use style="stroke:#000000;stroke-width:0.8;" x="255.023732" xlink:href="#ma59d1cdea7" y="596.288153"/>
      </g>
     </g>
     <g id="text_65">
      <!-- 3.4 -->
      <g transform="translate(251.352301 619.906267)rotate(-45)scale(0.1 -0.1)">
       <use xlink:href="#DejaVuSans-51"/>
       <use x="63.623047" xlink:href="#DejaVuSans-46"/>
       <use x="95.410156" xlink:href="#DejaVuSans-52"/>
      </g>
     </g>
    </g>
    <g id="xtick_40">
     <g id="line2d_103">
      <path clip-path="url(#p543b74e81d)" d="M 287.738987 596.288153 
L 287.738987 454.746507 
" style="fill:none;stroke:#b0b0b0;stroke-dasharray:2.96,1.28;stroke-dashoffset:0;stroke-width:0.8;"/>
     </g>
     <g id="line2d_104">
      <g>
       <use style="stroke:#000000;stroke-width:0.8;" x="287.738987" xlink:href="#ma59d1cdea7" y="596.288153"/>
      </g>
     </g>
     <g id="text_66">
      <!-- 3.9 -->
      <g transform="translate(284.067556 619.906267)rotate(-45)scale(0.1 -0.1)">
       <use xlink:href="#DejaVuSans-51"/>
       <use x="63.623047" xlink:href="#DejaVuSans-46"/>
       <use x="95.410156" xlink:href="#DejaVuSans-57"/>
      </g>
     </g>
    </g>
    <g id="xtick_41">
     <g id="line2d_105">
      <path clip-path="url(#p543b74e81d)" d="M 300.825089 596.288153 
L 300.825089 454.746507 
" style="fill:none;stroke:#b0b0b0;stroke-dasharray:2.96,1.28;stroke-dashoffset:0;stroke-width:0.8;"/>
     </g>
     <g id="line2d_106">
      <g>
       <use style="stroke:#000000;stroke-width:0.8;" x="300.825089" xlink:href="#ma59d1cdea7" y="596.288153"/>
      </g>
     </g>
     <g id="text_67">
      <!-- 4.1 -->
      <g transform="translate(297.153658 619.906267)rotate(-45)scale(0.1 -0.1)">
       <use xlink:href="#DejaVuSans-52"/>
       <use x="63.623047" xlink:href="#DejaVuSans-46"/>
       <use x="95.410156" xlink:href="#DejaVuSans-49"/>
      </g>
     </g>
    </g>
    <g id="xtick_42">
     <g id="line2d_107">
      <path clip-path="url(#p543b74e81d)" d="M 333.540344 596.288153 
L 333.540344 454.746507 
" style="fill:none;stroke:#b0b0b0;stroke-dasharray:2.96,1.28;stroke-dashoffset:0;stroke-width:0.8;"/>
     </g>
     <g id="line2d_108">
      <g>
       <use style="stroke:#000000;stroke-width:0.8;" x="333.540344" xlink:href="#ma59d1cdea7" y="596.288153"/>
      </g>
     </g>
     <g id="text_68">
      <!-- 4.6 -->
      <g transform="translate(329.868913 619.906267)rotate(-45)scale(0.1 -0.1)">
       <use xlink:href="#DejaVuSans-52"/>
       <use x="63.623047" xlink:href="#DejaVuSans-46"/>
       <use x="95.410156" xlink:href="#DejaVuSans-54"/>
      </g>
     </g>
    </g>
    <g id="xtick_43">
     <g id="line2d_109">
      <path clip-path="url(#p543b74e81d)" d="M 431.686108 596.288153 
L 431.686108 454.746507 
" style="fill:none;stroke:#b0b0b0;stroke-dasharray:2.96,1.28;stroke-dashoffset:0;stroke-width:0.8;"/>
     </g>
     <g id="line2d_110">
      <g>
       <use style="stroke:#000000;stroke-width:0.8;" x="431.686108" xlink:href="#ma59d1cdea7" y="596.288153"/>
      </g>
     </g>
     <g id="text_69">
      <!-- 6.1 -->
      <g transform="translate(428.014677 619.906267)rotate(-45)scale(0.1 -0.1)">
       <use xlink:href="#DejaVuSans-54"/>
       <use x="63.623047" xlink:href="#DejaVuSans-46"/>
       <use x="95.410156" xlink:href="#DejaVuSans-49"/>
      </g>
     </g>
    </g>
    <g id="xtick_44">
     <g id="line2d_111">
      <path clip-path="url(#p543b74e81d)" d="M 464.401363 596.288153 
L 464.401363 454.746507 
" style="fill:none;stroke:#b0b0b0;stroke-dasharray:2.96,1.28;stroke-dashoffset:0;stroke-width:0.8;"/>
     </g>
     <g id="line2d_112">
      <g>
       <use style="stroke:#000000;stroke-width:0.8;" x="464.401363" xlink:href="#ma59d1cdea7" y="596.288153"/>
      </g>
     </g>
     <g id="text_70">
      <!-- 6.6 -->
      <g transform="translate(460.729932 619.906267)rotate(-45)scale(0.1 -0.1)">
       <use xlink:href="#DejaVuSans-54"/>
       <use x="63.623047" xlink:href="#DejaVuSans-46"/>
       <use x="95.410156" xlink:href="#DejaVuSans-54"/>
      </g>
     </g>
    </g>
    <g id="xtick_45">
     <g id="line2d_113">
      <path clip-path="url(#p543b74e81d)" d="M 477.487465 596.288153 
L 477.487465 454.746507 
" style="fill:none;stroke:#b0b0b0;stroke-dasharray:2.96,1.28;stroke-dashoffset:0;stroke-width:0.8;"/>
     </g>
     <g id="line2d_114">
      <g>
       <use style="stroke:#000000;stroke-width:0.8;" x="477.487465" xlink:href="#ma59d1cdea7" y="596.288153"/>
      </g>
     </g>
     <g id="text_71">
      <!-- 6.8 -->
      <g transform="translate(473.816034 619.906267)rotate(-45)scale(0.1 -0.1)">
       <use xlink:href="#DejaVuSans-54"/>
       <use x="63.623047" xlink:href="#DejaVuSans-46"/>
       <use x="95.410156" xlink:href="#DejaVuSans-56"/>
      </g>
     </g>
    </g>
    <g id="xtick_46">
     <g id="line2d_115">
      <path clip-path="url(#p543b74e81d)" d="M 510.20272 596.288153 
L 510.20272 454.746507 
" style="fill:none;stroke:#b0b0b0;stroke-dasharray:2.96,1.28;stroke-dashoffset:0;stroke-width:0.8;"/>
     </g>
     <g id="line2d_116">
      <g>
       <use style="stroke:#000000;stroke-width:0.8;" x="510.20272" xlink:href="#ma59d1cdea7" y="596.288153"/>
      </g>
     </g>
     <g id="text_72">
      <!-- 7.3 -->
      <g transform="translate(506.531289 619.906267)rotate(-45)scale(0.1 -0.1)">
       <use xlink:href="#DejaVuSans-55"/>
       <use x="63.623047" xlink:href="#DejaVuSans-46"/>
       <use x="95.410156" xlink:href="#DejaVuSans-51"/>
      </g>
     </g>
    </g>
    <g id="xtick_47">
     <g id="line2d_117">
      <path clip-path="url(#p543b74e81d)" d="M 523.288822 596.288153 
L 523.288822 454.746507 
" style="fill:none;stroke:#b0b0b0;stroke-dasharray:2.96,1.28;stroke-dashoffset:0;stroke-width:0.8;"/>
     </g>
     <g id="line2d_118">
      <g>
       <use style="stroke:#000000;stroke-width:0.8;" x="523.288822" xlink:href="#ma59d1cdea7" y="596.288153"/>
      </g>
     </g>
     <g id="text_73">
      <!-- 7.5 -->
      <g transform="translate(519.617391 619.906267)rotate(-45)scale(0.1 -0.1)">
       <use xlink:href="#DejaVuSans-55"/>
       <use x="63.623047" xlink:href="#DejaVuSans-46"/>
       <use x="95.410156" xlink:href="#DejaVuSans-53"/>
      </g>
     </g>
    </g>
    <g id="xtick_48">
     <g id="line2d_119">
      <path clip-path="url(#p543b74e81d)" d="M 556.004076 596.288153 
L 556.004076 454.746507 
" style="fill:none;stroke:#b0b0b0;stroke-dasharray:2.96,1.28;stroke-dashoffset:0;stroke-width:0.8;"/>
     </g>
     <g id="line2d_120">
      <g>
       <use style="stroke:#000000;stroke-width:0.8;" x="556.004076" xlink:href="#ma59d1cdea7" y="596.288153"/>
      </g>
     </g>
     <g id="text_74">
      <!-- 8.0 -->
      <g transform="translate(552.332645 619.906267)rotate(-45)scale(0.1 -0.1)">
       <use xlink:href="#DejaVuSans-56"/>
       <use x="63.623047" xlink:href="#DejaVuSans-46"/>
       <use x="95.410156" xlink:href="#DejaVuSans-48"/>
      </g>
     </g>
    </g>
    <g id="text_75">
     <!-- Orbit Position $s$ / m -->
     <g transform="translate(246.582038 632.975265)scale(0.1 -0.1)">
      <use transform="translate(0 0.015625)" xlink:href="#DejaVuSans-79"/>
      <use transform="translate(78.710938 0.015625)" xlink:href="#DejaVuSans-114"/>
      <use transform="translate(119.824219 0.015625)" xlink:href="#DejaVuSans-98"/>
      <use transform="translate(183.300781 0.015625)" xlink:href="#DejaVuSans-105"/>
      <use transform="translate(211.083984 0.015625)" xlink:href="#DejaVuSans-116"/>
      <use transform="translate(250.292969 0.015625)" xlink:href="#DejaVuSans-32"/>
      <use transform="translate(282.080078 0.015625)" xlink:href="#DejaVuSans-80"/>
      <use transform="translate(342.382812 0.015625)" xlink:href="#DejaVuSans-111"/>
      <use transform="translate(403.564453 0.015625)" xlink:href="#DejaVuSans-115"/>
      <use transform="translate(455.664062 0.015625)" xlink:href="#DejaVuSans-105"/>
      <use transform="translate(483.447266 0.015625)" xlink:href="#DejaVuSans-116"/>
      <use transform="translate(522.65625 0.015625)" xlink:href="#DejaVuSans-105"/>
      <use transform="translate(550.439453 0.015625)" xlink:href="#DejaVuSans-111"/>
      <use transform="translate(611.621094 0.015625)" xlink:href="#DejaVuSans-110"/>
      <use transform="translate(675 0.015625)" xlink:href="#DejaVuSans-32"/>
      <use transform="translate(706.787109 0.015625)" xlink:href="#DejaVuSans-Oblique-115"/>
      <use transform="translate(758.886719 0.015625)" xlink:href="#DejaVuSans-32"/>
      <use transform="translate(790.673828 0.015625)" xlink:href="#DejaVuSans-47"/>
      <use transform="translate(824.365234 0.015625)" xlink:href="#DejaVuSans-32"/>
      <use transform="translate(856.152344 0.015625)" xlink:href="#DejaVuSans-109"/>
     </g>
    </g>
   </g>
   <g id="matplotlib.axis_6">
    <g id="ytick_11">
     <g id="line2d_121">
      <path clip-path="url(#p543b74e81d)" d="M 32.56 589.854441 
L 556.004076 589.854441 
" style="fill:none;stroke:#b0b0b0;stroke-dasharray:2.96,1.28;stroke-dashoffset:0;stroke-width:0.8;"/>
     </g>
     <g id="line2d_122">
      <g>
       <use style="stroke:#000000;stroke-width:0.8;" x="32.56" xlink:href="#m3733f5721a" y="589.854441"/>
      </g>
     </g>
     <g id="text_76">
      <!-- 0 -->
      <g transform="translate(19.1975 593.65366)scale(0.1 -0.1)">
       <use xlink:href="#DejaVuSans-48"/>
      </g>
     </g>
    </g>
    <g id="ytick_12">
     <g id="line2d_123">
      <path clip-path="url(#p543b74e81d)" d="M 32.56 562.862172 
L 556.004076 562.862172 
" style="fill:none;stroke:#b0b0b0;stroke-dasharray:2.96,1.28;stroke-dashoffset:0;stroke-width:0.8;"/>
     </g>
     <g id="line2d_124">
      <g>
       <use style="stroke:#000000;stroke-width:0.8;" x="32.56" xlink:href="#m3733f5721a" y="562.862172"/>
      </g>
     </g>
     <g id="text_77">
      <!-- 1 -->
      <g transform="translate(19.1975 566.661391)scale(0.1 -0.1)">
       <use xlink:href="#DejaVuSans-49"/>
      </g>
     </g>
    </g>
    <g id="ytick_13">
     <g id="line2d_125">
      <path clip-path="url(#p543b74e81d)" d="M 32.56 535.869903 
L 556.004076 535.869903 
" style="fill:none;stroke:#b0b0b0;stroke-dasharray:2.96,1.28;stroke-dashoffset:0;stroke-width:0.8;"/>
     </g>
     <g id="line2d_126">
      <g>
       <use style="stroke:#000000;stroke-width:0.8;" x="32.56" xlink:href="#m3733f5721a" y="535.869903"/>
      </g>
     </g>
     <g id="text_78">
      <!-- 2 -->
      <g transform="translate(19.1975 539.669121)scale(0.1 -0.1)">
       <use xlink:href="#DejaVuSans-50"/>
      </g>
     </g>
    </g>
    <g id="ytick_14">
     <g id="line2d_127">
      <path clip-path="url(#p543b74e81d)" d="M 32.56 508.877633 
L 556.004076 508.877633 
" style="fill:none;stroke:#b0b0b0;stroke-dasharray:2.96,1.28;stroke-dashoffset:0;stroke-width:0.8;"/>
     </g>
     <g id="line2d_128">
      <g>
       <use style="stroke:#000000;stroke-width:0.8;" x="32.56" xlink:href="#m3733f5721a" y="508.877633"/>
      </g>
     </g>
     <g id="text_79">
      <!-- 3 -->
      <g transform="translate(19.1975 512.676852)scale(0.1 -0.1)">
       <use xlink:href="#DejaVuSans-51"/>
      </g>
     </g>
    </g>
    <g id="ytick_15">
     <g id="line2d_129">
      <path clip-path="url(#p543b74e81d)" d="M 32.56 481.885364 
L 556.004076 481.885364 
" style="fill:none;stroke:#b0b0b0;stroke-dasharray:2.96,1.28;stroke-dashoffset:0;stroke-width:0.8;"/>
     </g>
     <g id="line2d_130">
      <g>
       <use style="stroke:#000000;stroke-width:0.8;" x="32.56" xlink:href="#m3733f5721a" y="481.885364"/>
      </g>
     </g>
     <g id="text_80">
      <!-- 4 -->
      <g transform="translate(19.1975 485.684582)scale(0.1 -0.1)">
       <use xlink:href="#DejaVuSans-52"/>
      </g>
     </g>
    </g>
    <g id="ytick_16">
     <g id="line2d_131">
      <path clip-path="url(#p543b74e81d)" d="M 32.56 454.893094 
L 556.004076 454.893094 
" style="fill:none;stroke:#b0b0b0;stroke-dasharray:2.96,1.28;stroke-dashoffset:0;stroke-width:0.8;"/>
     </g>
     <g id="line2d_132">
      <g>
       <use style="stroke:#000000;stroke-width:0.8;" x="32.56" xlink:href="#m3733f5721a" y="454.893094"/>
      </g>
     </g>
     <g id="text_81">
      <!-- 5 -->
      <g transform="translate(19.1975 458.692313)scale(0.1 -0.1)">
       <use xlink:href="#DejaVuSans-53"/>
      </g>
     </g>
    </g>
   </g>
   <g id="LineCollection_1">
    <path clip-path="url(#p543b74e81d)" d="M 32.56 582.822057 
L 556.004076 582.822057 
" style="fill:none;stroke:#000000;stroke-dasharray:1.5,2.475;stroke-dashoffset:0;stroke-width:1.5;"/>
    <path clip-path="url(#p543b74e81d)" d="M 32.56 468.212603 
L 556.004076 468.212603 
" style="fill:none;stroke:#000000;stroke-dasharray:1.5,2.475;stroke-dashoffset:0;stroke-width:1.5;"/>
   </g>
   <g id="patch_27">
    <path d="M 32.56 596.288153 
L 32.56 454.746507 
" style="fill:none;stroke:#000000;stroke-linecap:square;stroke-linejoin:miter;stroke-width:0.8;"/>
   </g>
   <g id="patch_28">
    <path d="M 556.004076 596.288153 
L 556.004076 454.746507 
" style="fill:none;stroke:#000000;stroke-linecap:square;stroke-linejoin:miter;stroke-width:0.8;"/>
   </g>
   <g id="patch_29">
    <path d="M 32.56 596.288153 
L 556.004076 596.288153 
" style="fill:none;stroke:#000000;stroke-linecap:square;stroke-linejoin:miter;stroke-width:0.8;"/>
   </g>
   <g id="patch_30">
    <path d="M 32.56 454.746507 
L 556.004076 454.746507 
" style="fill:none;stroke:#000000;stroke-linecap:square;stroke-linejoin:miter;stroke-width:0.8;"/>
   </g>
   <g id="patch_31">
    <path d="M 349.31946 475.070969 
Q 322.510176 527.557611 295.700893 580.044254 
" style="fill:none;stroke:#000000;stroke-linecap:round;"/>
    <path d="M 345.718836 477.723422 
L 349.31946 475.070969 
L 349.281048 479.54294 
" style="fill:none;stroke:#000000;stroke-linecap:round;"/>
    <path d="M 299.301517 577.3918 
L 295.700893 580.044254 
L 295.739304 575.572283 
" style="fill:none;stroke:#000000;stroke-linecap:round;"/>
   </g>
   <g id="text_82">
    <!-- 1.3515470641018357 $\pi$ -->
    <g transform="translate(294.282038 468.212603)scale(0.1 -0.1)">
     <defs>
      <path d="M 9.125 54.6875 
L 61.53125 54.6875 
L 59.765625 45.703125 
L 52.875 45.703125 
L 46.34375 12.109375 
Q 45.65625 8.59375 46.578125 7.03125 
Q 47.46875 5.515625 50.140625 5.515625 
Q 50.875 5.515625 51.953125 5.671875 
Q 53.078125 5.765625 53.421875 5.8125 
L 52.15625 -0.6875 
Q 50.34375 -1.3125 48.484375 -1.609375 
Q 46.578125 -1.90625 44.78125 -1.90625 
Q 38.921875 -1.90625 37.3125 1.265625 
Q 35.6875 4.5 37.359375 13.09375 
L 43.703125 45.703125 
L 23.53125 45.703125 
L 14.65625 0 
L 5.46875 0 
L 14.359375 45.703125 
L 7.375 45.703125 
z
" id="DejaVuSans-Oblique-960"/>
     </defs>
     <use transform="translate(0 0.78125)" xlink:href="#DejaVuSans-49"/>
     <use transform="translate(63.623047 0.78125)" xlink:href="#DejaVuSans-46"/>
     <use transform="translate(95.410156 0.78125)" xlink:href="#DejaVuSans-51"/>
     <use transform="translate(159.033203 0.78125)" xlink:href="#DejaVuSans-53"/>
     <use transform="translate(222.65625 0.78125)" xlink:href="#DejaVuSans-49"/>
     <use transform="translate(286.279297 0.78125)" xlink:href="#DejaVuSans-53"/>
     <use transform="translate(349.902344 0.78125)" xlink:href="#DejaVuSans-52"/>
     <use transform="translate(413.525391 0.78125)" xlink:href="#DejaVuSans-55"/>
     <use transform="translate(477.148438 0.78125)" xlink:href="#DejaVuSans-48"/>
     <use transform="translate(540.771484 0.78125)" xlink:href="#DejaVuSans-54"/>
     <use transform="translate(604.394531 0.78125)" xlink:href="#DejaVuSans-52"/>
     <use transform="translate(668.017578 0.78125)" xlink:href="#DejaVuSans-49"/>
     <use transform="translate(731.640625 0.78125)" xlink:href="#DejaVuSans-48"/>
     <use transform="translate(795.263672 0.78125)" xlink:href="#DejaVuSans-49"/>
     <use transform="translate(858.886719 0.78125)" xlink:href="#DejaVuSans-56"/>
     <use transform="translate(922.509766 0.78125)" xlink:href="#DejaVuSans-51"/>
     <use transform="translate(986.132812 0.78125)" xlink:href="#DejaVuSans-53"/>
     <use transform="translate(1042.505859 0.78125)" xlink:href="#DejaVuSans-55"/>
     <use transform="translate(1106.128906 0.78125)" xlink:href="#DejaVuSans-32"/>
     <use transform="translate(1137.916016 0.78125)" xlink:href="#DejaVuSans-Oblique-960"/>
    </g>
   </g>
   <g id="line2d_133">
    <path clip-path="url(#p543b74e81d)" d="M 32.56 589.854441 
L 81.632882 586.856635 
L 97.99051 586.150719 
L 120.236883 585.458516 
L 150.334917 584.516292 
L 166.692545 583.878015 
L 186.321697 582.925821 
L 205.95085 581.683496 
L 215.765427 580.910778 
L 225.580003 580.003279 
L 235.39458 578.925072 
L 245.209156 577.627647 
L 258.295258 575.440234 
L 264.838309 574.078465 
L 271.38136 572.474833 
L 277.924411 570.573603 
L 284.467462 568.308697 
L 290.356208 565.905352 
L 300.825089 561.295206 
L 307.36814 558.821338 
L 313.911191 556.747092 
L 320.454242 555.002306 
L 326.997293 553.525896 
L 333.540344 552.267471 
L 343.35492 550.684769 
L 353.169497 549.387344 
L 362.984073 548.309137 
L 372.79865 547.401638 
L 392.427802 545.964056 
L 412.056955 544.880799 
L 438.229159 543.796124 
L 467.018583 542.890252 
L 493.845092 542.037328 
L 511.51133 541.21342 
L 533.103398 539.89392 
L 556.004076 538.457975 
L 556.004076 538.457975 
" style="fill:none;stroke:#ff8c00;stroke-linecap:square;stroke-width:1.3;"/>
   </g>
   <g id="patch_32">
    <path d="M 65.275255 456.958096 
L 78.361357 456.958096 
L 78.361357 452.534919 
L 65.275255 452.534919 
z
" style="fill:#dc143c;"/>
   </g>
   <g id="patch_33">
    <path d="M 111.076611 456.958096 
L 124.162713 456.958096 
L 124.162713 452.534919 
L 111.076611 452.534919 
z
" style="fill:#dc143c;"/>
   </g>
   <g id="patch_34">
    <path d="M 156.877968 456.958096 
L 255.023732 456.958096 
L 255.023732 452.534919 
L 156.877968 452.534919 
z
" style="fill:#ffd700;"/>
   </g>
   <g id="patch_35">
    <path d="M 287.738987 456.958096 
L 300.825089 456.958096 
L 300.825089 452.534919 
L 287.738987 452.534919 
z
" style="fill:#dc143c;"/>
   </g>
   <g id="patch_36">
    <path d="M 333.540344 456.958096 
L 431.686108 456.958096 
L 431.686108 452.534919 
L 333.540344 452.534919 
z
" style="fill:#ffd700;"/>
   </g>
   <g id="patch_37">
    <path d="M 464.401363 456.958096 
L 477.487465 456.958096 
L 477.487465 452.534919 
L 464.401363 452.534919 
z
" style="fill:#dc143c;"/>
   </g>
   <g id="patch_38">
    <path d="M 510.20272 456.958096 
L 523.288822 456.958096 
L 523.288822 452.534919 
L 510.20272 452.534919 
z
" style="fill:#dc143c;"/>
   </g>
   <g id="line2d_134">
    <path clip-path="url(#p543b74e81d)" d="M 32.56 589.854441 
L 91.447459 588.54726 
L 104.53356 588.030018 
L 116.311052 587.334811 
L 127.434239 586.425135 
L 137.248815 585.447504 
L 147.063392 584.2677 
L 156.877968 582.822057 
L 166.692545 581.027783 
L 176.507121 578.789458 
L 186.321697 575.955599 
L 196.136274 572.336441 
L 205.95085 567.739803 
L 215.765427 562.084959 
L 225.580003 555.592112 
L 235.39458 548.864309 
L 245.209156 542.634796 
L 255.023732 537.372495 
L 258.295258 535.863759 
L 264.838309 533.205857 
L 271.38136 530.971674 
L 277.924411 529.091675 
L 284.467462 527.50237 
L 292.973428 525.76741 
L 304.096615 523.53229 
L 310.639666 521.942985 
L 317.182716 520.062986 
L 323.725767 517.828803 
L 330.268818 515.170901 
L 333.540344 513.662165 
L 343.35492 508.399864 
L 353.169497 502.170351 
L 362.984073 495.442548 
L 372.79865 488.949701 
L 382.613226 483.294857 
L 392.427802 478.698219 
L 402.242379 475.079061 
L 412.056955 472.245202 
L 421.871532 470.006877 
L 434.957634 467.696302 
L 444.77221 466.34774 
L 454.586787 465.241385 
L 467.018583 464.100926 
L 477.487465 463.355958 
L 490.573567 462.721065 
L 506.931194 462.205072 
L 539.646449 461.512951 
L 556.004076 461.180219 
L 556.004076 461.180219 
" style="fill:none;stroke:#ffd700;stroke-linecap:square;stroke-width:1.3;"/>
   </g>
   <g id="text_83">
    <!-- q1 -->
    <g transform="translate(66.733931 451.976963)scale(0.08 -0.08)">
     <use xlink:href="#DejaVuSans-113"/>
     <use x="63.476562" xlink:href="#DejaVuSans-49"/>
    </g>
   </g>
   <g id="text_84">
    <!-- q2 -->
    <g transform="translate(112.535287 451.976963)scale(0.08 -0.08)">
     <use xlink:href="#DejaVuSans-113"/>
     <use x="63.476562" xlink:href="#DejaVuSans-50"/>
    </g>
   </g>
   <g id="text_85">
    <!-- b1 -->
    <g transform="translate(200.866475 466.354228)scale(0.08 -0.08)">
     <use xlink:href="#DejaVuSans-98"/>
     <use x="63.476562" xlink:href="#DejaVuSans-49"/>
    </g>
   </g>
   <g id="text_86">
    <!-- q3 -->
    <g transform="translate(289.197663 451.976963)scale(0.08 -0.08)">
     <use xlink:href="#DejaVuSans-113"/>
     <use x="63.476562" xlink:href="#DejaVuSans-51"/>
    </g>
   </g>
   <g id="text_87">
    <!-- b1 -->
    <g transform="translate(377.528851 466.354228)scale(0.08 -0.08)">
     <use xlink:href="#DejaVuSans-98"/>
     <use x="63.476562" xlink:href="#DejaVuSans-49"/>
    </g>
   </g>
   <g id="text_88">
    <!-- q2 -->
    <g transform="translate(465.860039 451.976963)scale(0.08 -0.08)">
     <use xlink:href="#DejaVuSans-113"/>
     <use x="63.476562" xlink:href="#DejaVuSans-50"/>
    </g>
   </g>
   <g id="text_89">
    <!-- q1 -->
    <g transform="translate(511.661396 451.976963)scale(0.08 -0.08)">
     <use xlink:href="#DejaVuSans-113"/>
     <use x="63.476562" xlink:href="#DejaVuSans-49"/>
    </g>
   </g>
  </g>
  <g id="legend_1">
   <g id="line2d_135">
    <path d="M 9 13.3 
L 29 13.3 
" style="fill:none;stroke:#dc143c;stroke-linecap:square;stroke-width:1.3;"/>
   </g>
   <g id="line2d_136"/>
   <g id="text_90">
    <!-- $\beta_x$/m -->
    <g transform="translate(37 16.8)scale(0.1 -0.1)">
     <defs>
      <path d="M 13.625 3.375 
L 8.9375 -20.796875 
L -0.09375 -20.796875 
L 14.5 54.34375 
Q 18.84375 76.609375 39.65625 76.609375 
Q 60.75 76.609375 57.171875 57.8125 
Q 54.734375 44.4375 45.21875 39.546875 
Q 58.015625 35.15625 55.515625 22.125 
Q 51.125 -1.078125 27.484375 -1.03125 
Q 17.140625 -0.984375 13.625 3.375 
z
M 15.921875 15.09375 
Q 19.671875 6.59375 29.296875 6.640625 
Q 43.359375 6.640625 46.34375 21.96875 
Q 49.03125 35.75 26.171875 34.671875 
L 27.78125 42.96875 
Q 45.453125 42.671875 48.53125 58.59375 
Q 50.640625 69.34375 39.203125 69.28125 
Q 26.421875 69.28125 23.484375 54.046875 
z
" id="DejaVuSans-Oblique-946"/>
      <path d="M 60.015625 54.6875 
L 34.90625 27.875 
L 50.296875 0 
L 39.984375 0 
L 28.421875 21.6875 
L 8.296875 0 
L -2.59375 0 
L 24.3125 28.8125 
L 10.015625 54.6875 
L 20.3125 54.6875 
L 30.8125 34.90625 
L 49.125 54.6875 
z
" id="DejaVuSans-Oblique-120"/>
     </defs>
     <use transform="translate(0 0.390625)" xlink:href="#DejaVuSans-Oblique-946"/>
     <use transform="translate(63.818359 -16.015625)scale(0.7)" xlink:href="#DejaVuSans-Oblique-120"/>
     <use transform="translate(107.978516 0.390625)" xlink:href="#DejaVuSans-47"/>
     <use transform="translate(141.669922 0.390625)" xlink:href="#DejaVuSans-109"/>
    </g>
   </g>
   <g id="line2d_137">
    <path d="M 81 13.3 
L 101 13.3 
" style="fill:none;stroke:#1e90ff;stroke-linecap:square;stroke-width:1.3;"/>
   </g>
   <g id="line2d_138"/>
   <g id="text_91">
    <!-- $\beta_y$/m -->
    <g transform="translate(109 16.8)scale(0.1 -0.1)">
     <defs>
      <path d="M 24.8125 -5.078125 
Q 18.5625 -15.578125 14.625 -18.1875 
Q 10.6875 -20.796875 4.59375 -20.796875 
L -2.484375 -20.796875 
L -0.984375 -13.28125 
L 4.203125 -13.28125 
Q 7.953125 -13.28125 10.59375 -11.234375 
Q 13.234375 -9.1875 16.5 -3.21875 
L 19.28125 2 
L 7.171875 54.6875 
L 16.703125 54.6875 
L 25.78125 12.796875 
L 50.875 54.6875 
L 60.296875 54.6875 
z
" id="DejaVuSans-Oblique-121"/>
     </defs>
     <use transform="translate(0 0.390625)" xlink:href="#DejaVuSans-Oblique-946"/>
     <use transform="translate(63.818359 -16.015625)scale(0.7)" xlink:href="#DejaVuSans-Oblique-121"/>
     <use transform="translate(107.978516 0.390625)" xlink:href="#DejaVuSans-47"/>
     <use transform="translate(141.669922 0.390625)" xlink:href="#DejaVuSans-109"/>
    </g>
   </g>
   <g id="line2d_139">
    <path d="M 153 13.3 
L 173 13.3 
" style="fill:none;stroke:#3cb371;stroke-linecap:square;stroke-width:1.3;"/>
   </g>
   <g id="line2d_140"/>
   <g id="text_92">
    <!-- 10$\eta_x$/m -->
    <g transform="translate(181 16.8)scale(0.1 -0.1)">
     <defs>
      <path d="M 57.859375 33.015625 
L 47.40625 -20.796875 
L 38.421875 -20.796875 
L 48.828125 32.71875 
Q 50.34375 40.484375 48.046875 44.34375 
Q 45.796875 48.1875 39.75 48.1875 
Q 32.46875 48.1875 27.34375 43.5625 
Q 22.265625 38.921875 20.703125 30.90625 
L 14.703125 0 
L 5.671875 0 
L 16.3125 54.6875 
L 25.34375 54.6875 
L 23.6875 46.1875 
Q 27.828125 51.125 32.71875 53.5625 
Q 37.546875 56 43.265625 56 
Q 52.6875 56 56.390625 50.203125 
Q 60.0625 44.34375 57.859375 33.015625 
z
" id="DejaVuSans-Oblique-951"/>
     </defs>
     <use transform="translate(0 0.78125)" xlink:href="#DejaVuSans-49"/>
     <use transform="translate(63.623047 0.78125)" xlink:href="#DejaVuSans-48"/>
     <use transform="translate(127.246094 0.78125)" xlink:href="#DejaVuSans-Oblique-951"/>
     <use transform="translate(190.625 -15.625)scale(0.7)" xlink:href="#DejaVuSans-Oblique-120"/>
     <use transform="translate(234.785156 0.78125)" xlink:href="#DejaVuSans-47"/>
     <use transform="translate(268.476562 0.78125)" xlink:href="#DejaVuSans-109"/>
    </g>
   </g>
   <g id="line2d_141">
    <path d="M 237.6 13.3 
L 257.6 13.3 
" style="fill:none;stroke:#ff8c00;stroke-linecap:square;stroke-width:1.3;"/>
   </g>
   <g id="line2d_142"/>
   <g id="text_93">
    <!-- 10$\eta_x'$/m -->
    <g transform="translate(265.6 16.8)scale(0.1 -0.1)">
     <defs>
      <path d="M 3.515625 5.421875 
Q 2.875 5.609375 2.875 6.390625 
L 15.09375 51.8125 
Q 15.671875 53.65625 17.078125 54.78125 
Q 18.5 55.90625 20.3125 55.90625 
Q 22.65625 55.90625 24.4375 54.359375 
Q 26.21875 52.828125 26.21875 50.484375 
Q 26.21875 49.46875 25.6875 48.1875 
L 7.625 4.984375 
Q 7.28125 4.296875 6.6875 4.296875 
Q 6.15625 4.296875 5 4.78125 
Q 3.859375 5.28125 3.515625 5.421875 
z
" id="Cmsy10-48"/>
     </defs>
     <use transform="translate(0 0.584375)" xlink:href="#DejaVuSans-49"/>
     <use transform="translate(63.623047 0.584375)" xlink:href="#DejaVuSans-48"/>
     <use transform="translate(127.246094 0.584375)" xlink:href="#DejaVuSans-Oblique-951"/>
     <use transform="translate(195.274896 38.865625)scale(0.7)" xlink:href="#Cmsy10-48"/>
     <use transform="translate(190.625 -26.759375)scale(0.7)" xlink:href="#DejaVuSans-Oblique-120"/>
     <use transform="translate(234.785156 0.584375)" xlink:href="#DejaVuSans-47"/>
     <use transform="translate(268.476562 0.584375)" xlink:href="#DejaVuSans-109"/>
    </g>
   </g>
   <g id="line2d_143">
    <path d="M 322.2 13.3 
L 342.2 13.3 
" style="fill:none;stroke:#ffd700;stroke-linecap:square;stroke-width:1.3;"/>
   </g>
   <g id="line2d_144"/>
   <g id="text_94">
    <!-- $\psi_x$ -->
    <g transform="translate(350.2 16.8)scale(0.1 -0.1)">
     <defs>
      <path d="M 24.859375 -1.21875 
Q 13.921875 0.59375 9.625 5.328125 
Q 4.34375 11.140625 6.640625 23 
L 12.796875 54.6875 
L 21.875 54.6875 
L 15.765625 23.34375 
Q 14.0625 14.40625 17.484375 10.6875 
Q 20.515625 7.46875 26.421875 6.78125 
L 35.6875 54.6875 
L 44.625 54.6875 
L 35.359375 6.84375 
Q 41.890625 7.515625 45.75 10.75 
Q 50.734375 14.84375 52.390625 23.390625 
L 58.453125 54.6875 
L 67.53125 54.6875 
L 61.375 23.046875 
Q 58.984375 10.75 51.5625 5.375 
Q 44.875 0.53125 33.796875 -1.171875 
L 29.984375 -20.796875 
L 21.046875 -20.796875 
z
" id="DejaVuSans-Oblique-968"/>
     </defs>
     <use transform="translate(0 0.3125)" xlink:href="#DejaVuSans-Oblique-968"/>
     <use transform="translate(65.966797 -16.09375)scale(0.7)" xlink:href="#DejaVuSans-Oblique-120"/>
    </g>
   </g>
   <g id="line2d_145">
    <path d="M 381.3 13.3 
L 401.3 13.3 
" style="fill:none;stroke:#ff8c00;stroke-linecap:square;stroke-width:1.3;"/>
   </g>
   <g id="line2d_146"/>
   <g id="text_95">
    <!-- $\psi_y$ -->
    <g transform="translate(409.3 16.8)scale(0.1 -0.1)">
     <use transform="translate(0 0.3125)" xlink:href="#DejaVuSans-Oblique-968"/>
     <use transform="translate(65.966797 -16.09375)scale(0.7)" xlink:href="#DejaVuSans-Oblique-121"/>
    </g>
   </g>
  </g>
 </g>
 <defs>
  <clipPath id="p0aafca11b4">
   <rect height="141.541645" width="523.444076" x="32.56" y="51.546507"/>
  </clipPath>
  <clipPath id="pd312ad6975">
   <rect height="141.541645" width="523.444076" x="32.56" y="253.146507"/>
  </clipPath>
  <clipPath id="p543b74e81d">
   <rect height="141.541645" width="523.444076" x="32.56" y="454.746507"/>
  </clipPath>
 </defs>
</svg>
