<svg width="1000" height="500" viewBox="0 0 1000 500" fill="none" xmlns="http://www.w3.org/2000/svg">
<path d="M500 97L500 397" stroke="black" stroke-width="2" stroke-dasharray="10 10"/>
<mask id="path-2-inside-1" fill="white">
<path fill-rule="evenodd" clip-rule="evenodd" d="M500 347C515.832 318.085 525 283.784 525 247C525 210.216 515.832 175.915 500 147C484.168 175.915 475 210.216 475 247C475 283.784 484.168 318.085 500 347Z"/>
</mask>
<path fill-rule="evenodd" clip-rule="evenodd" d="M500 347C515.832 318.085 525 283.784 525 247C525 210.216 515.832 175.915 500 147C484.168 175.915 475 210.216 475 247C475 283.784 484.168 318.085 500 347Z" fill="white"/>
<path d="M500 347L498.246 347.96L500 351.164L501.754 347.96L500 347ZM500 147L501.754 146.039L500 142.836L498.246 146.039L500 147ZM523 247C523 283.452 513.914 317.423 498.246 346.039L501.754 347.96C517.749 318.748 527 284.116 527 247H523ZM498.246 147.961C513.914 176.577 523 210.548 523 247H527C527 209.884 517.749 175.252 501.754 146.039L498.246 147.961ZM477 247C477 210.548 486.086 176.577 501.754 147.961L498.246 146.039C482.251 175.252 473 209.884 473 247H477ZM501.754 346.039C486.086 317.423 477 283.452 477 247H473C473 284.116 482.251 318.748 498.246 347.96L501.754 346.039Z" fill="black" mask="url(#path-2-inside-1)"/>
<path d="M328.005 67.125C328.005 64.8409 329.462 63.5455 331.448 63.5455C333.34 63.5455 334.482 64.7386 334.482 66.8182V75H336.493V66.6818C336.493 63.3153 334.703 61.7386 332.027 61.7386C329.965 61.7386 328.789 62.5994 328.175 63.9545H328.005V57.5455H325.993V75H328.005V67.125ZM345.491 75.2727C349.037 75.2727 351.423 72.5795 351.423 68.5227C351.423 64.4318 349.037 61.7386 345.491 61.7386C341.946 61.7386 339.559 64.4318 339.559 68.5227C339.559 72.5795 341.946 75.2727 345.491 75.2727ZM345.491 73.4659C342.798 73.4659 341.571 71.1477 341.571 68.5227C341.571 65.8977 342.798 63.5455 345.491 63.5455C348.184 63.5455 349.412 65.8977 349.412 68.5227C349.412 71.1477 348.184 73.4659 345.491 73.4659ZM354.493 75H356.505V66.7159C356.505 64.9432 357.902 63.6477 359.811 63.6477C360.348 63.6477 360.902 63.75 361.039 63.7841V61.7386C360.809 61.7216 360.28 61.7045 359.982 61.7045C358.414 61.7045 357.05 62.5909 356.573 63.8864H356.436V61.9091H354.493V75ZM363.423 75H365.434V61.9091H363.423V75ZM364.446 59.7273C365.23 59.7273 365.877 59.1136 365.877 58.3636C365.877 57.6136 365.23 57 364.446 57C363.662 57 363.014 57.6136 363.014 58.3636C363.014 59.1136 363.662 59.7273 364.446 59.7273ZM368.743 75H379.005V73.125H371.539V72.9886L378.766 63.5114V61.9091H368.982V63.7841H376.175V63.9205L368.743 73.4659V75ZM387.046 75.2727C390.591 75.2727 392.978 72.5795 392.978 68.5227C392.978 64.4318 390.591 61.7386 387.046 61.7386C383.5 61.7386 381.114 64.4318 381.114 68.5227C381.114 72.5795 383.5 75.2727 387.046 75.2727ZM387.046 73.4659C384.353 73.4659 383.125 71.1477 383.125 68.5227C383.125 65.8977 384.353 63.5455 387.046 63.5455C389.739 63.5455 390.966 65.8977 390.966 68.5227C390.966 71.1477 389.739 73.4659 387.046 73.4659ZM398.059 67.125C398.059 64.8409 399.474 63.5455 401.4 63.5455C403.267 63.5455 404.4 64.7642 404.4 66.8182V75H406.412V66.6818C406.412 63.3409 404.63 61.7386 401.98 61.7386C400.002 61.7386 398.775 62.625 398.162 63.9545H397.991V61.9091H396.048V75H398.059V67.125ZM415.78 61.9091H412.985V58.7727H410.973V61.9091H408.996V63.6136H410.973V71.7955C410.973 74.0795 412.814 75.1705 414.519 75.1705C415.269 75.1705 415.746 75.0341 416.019 74.9318L415.61 73.125C415.439 73.1591 415.167 73.2273 414.723 73.2273C413.837 73.2273 412.985 72.9545 412.985 71.25V63.6136H415.78V61.9091ZM422.658 75.3068C424.942 75.3068 426.135 74.0795 426.544 73.2273H426.647V75H428.658V66.375C428.658 62.2159 425.488 61.7386 423.817 61.7386C421.84 61.7386 419.59 62.4205 418.567 64.8068L420.476 65.4886C420.919 64.5341 421.968 63.5114 423.885 63.5114C425.735 63.5114 426.647 64.4915 426.647 66.1705V66.2386C426.647 67.2102 425.658 67.125 423.272 67.4318C420.843 67.7472 418.192 68.2841 418.192 71.2841C418.192 73.8409 420.169 75.3068 422.658 75.3068ZM422.965 73.5C421.363 73.5 420.203 72.7841 420.203 71.3864C420.203 69.8523 421.601 69.375 423.169 69.1705C424.022 69.0682 426.306 68.8295 426.647 68.4205V70.2614C426.647 71.8977 425.351 73.5 422.965 73.5ZM434.341 57.5455H432.329V75H434.341V57.5455ZM450.604 61.9091H447.672V60.5795C447.672 59.2841 448.218 58.6023 449.547 58.6023C450.127 58.6023 450.468 58.7386 450.672 58.8068L451.252 57.0682C450.945 56.9318 450.331 56.7273 449.343 56.7273C447.468 56.7273 445.661 57.8523 445.661 60.1023V61.9091H443.547V63.6136H445.661V75H447.672V63.6136H450.604V61.9091ZM458.202 75.2727C461.748 75.2727 464.134 72.5795 464.134 68.5227C464.134 64.4318 461.748 61.7386 458.202 61.7386C454.657 61.7386 452.27 64.4318 452.27 68.5227C452.27 72.5795 454.657 75.2727 458.202 75.2727ZM458.202 73.4659C455.509 73.4659 454.282 71.1477 454.282 68.5227C454.282 65.8977 455.509 63.5455 458.202 63.5455C460.895 63.5455 462.123 65.8977 462.123 68.5227C462.123 71.1477 460.895 73.4659 458.202 73.4659ZM472.522 75.2727C475.42 75.2727 477.329 73.5 477.67 71.1818H475.659C475.284 72.6136 474.091 73.4659 472.522 73.4659C470.136 73.4659 468.602 71.4886 468.602 68.4545C468.602 65.4886 470.17 63.5455 472.522 63.5455C474.295 63.5455 475.352 64.6364 475.659 65.8295H477.67C477.329 63.375 475.25 61.7386 472.488 61.7386C468.943 61.7386 466.591 64.5341 466.591 68.5227C466.591 72.4432 468.841 75.2727 472.522 75.2727ZM488.86 69.6477C488.86 72.1023 486.985 73.2273 485.485 73.2273C483.815 73.2273 482.622 72 482.622 70.0909V61.9091H480.61V70.2273C480.61 73.5682 482.383 75.1705 484.838 75.1705C486.815 75.1705 488.11 74.1136 488.724 72.7841H488.86V75H490.872V61.9091H488.86V69.6477ZM503.828 64.8409C503.198 62.983 501.783 61.7386 499.192 61.7386C496.431 61.7386 494.385 63.3068 494.385 65.5227C494.385 67.3295 495.459 68.5398 497.863 69.1023L500.044 69.6136C501.365 69.9205 501.988 70.5511 501.988 71.4545C501.988 72.5795 500.794 73.5 498.919 73.5C497.275 73.5 496.243 72.7926 495.885 71.3864L493.976 71.8636C494.445 74.0881 496.277 75.2727 498.953 75.2727C501.996 75.2727 504.067 73.6108 504.067 71.3523C504.067 69.5284 502.925 68.3778 500.59 67.8068L498.647 67.3295C497.096 66.946 496.397 66.4261 496.397 65.4205C496.397 64.2955 497.59 63.4773 499.192 63.4773C500.948 63.4773 501.672 64.4489 502.022 65.3523L503.828 64.8409ZM507.095 75H509.106V61.9091H507.095V75ZM508.118 59.7273C508.902 59.7273 509.549 59.1136 509.549 58.3636C509.549 57.6136 508.902 57 508.118 57C507.333 57 506.686 57.6136 506.686 58.3636C506.686 59.1136 507.333 59.7273 508.118 59.7273ZM514.801 67.125C514.801 64.8409 516.216 63.5455 518.142 63.5455C520.009 63.5455 521.142 64.7642 521.142 66.8182V75H523.154V66.6818C523.154 63.3409 521.373 61.7386 518.722 61.7386C516.745 61.7386 515.517 62.625 514.904 63.9545H514.733V61.9091H512.79V75H514.801V67.125ZM532.113 80.1818C535.25 80.1818 537.772 78.75 537.772 75.375V61.9091H535.829V63.9886H535.625C535.181 63.3068 534.363 61.7386 531.806 61.7386C528.5 61.7386 526.216 64.3636 526.216 68.3864C526.216 72.4773 528.602 74.7955 531.772 74.7955C534.329 74.7955 535.147 73.2955 535.591 72.5795H535.761V75.2386C535.761 77.4205 534.227 78.4091 532.113 78.4091C529.735 78.4091 528.9 77.1562 528.363 76.4318L526.761 77.5568C527.579 78.929 529.19 80.1818 532.113 80.1818ZM532.045 72.9886C529.522 72.9886 528.227 71.0795 528.227 68.3523C528.227 65.6932 529.488 63.5455 532.045 63.5455C534.5 63.5455 535.795 65.5227 535.795 68.3523C535.795 71.25 534.466 72.9886 532.045 72.9886ZM559.147 79.9091V61.9091H557.204V63.9886H556.966C556.522 63.3068 555.738 61.7386 553.181 61.7386C549.875 61.7386 547.591 64.3636 547.591 68.4886C547.591 72.6477 549.875 75.2727 553.147 75.2727C555.67 75.2727 556.522 73.7045 556.966 72.9886H557.136V79.9091H559.147ZM557.17 68.4545C557.17 71.4205 555.841 73.4659 553.42 73.4659C550.897 73.4659 549.602 71.25 549.602 68.4545C549.602 65.6932 550.863 63.5455 553.42 63.5455C555.875 63.5455 557.17 65.5227 557.17 68.4545ZM571.079 69.6477C571.079 72.1023 569.204 73.2273 567.704 73.2273C566.034 73.2273 564.841 72 564.841 70.0909V61.9091H562.829V70.2273C562.829 73.5682 564.602 75.1705 567.056 75.1705C569.034 75.1705 570.329 74.1136 570.943 72.7841H571.079V75H573.091V61.9091H571.079V69.6477ZM580.627 75.3068C582.911 75.3068 584.104 74.0795 584.513 73.2273H584.615V75H586.627V66.375C586.627 62.2159 583.456 61.7386 581.786 61.7386C579.809 61.7386 577.559 62.4205 576.536 64.8068L578.445 65.4886C578.888 64.5341 579.936 63.5114 581.854 63.5114C583.703 63.5114 584.615 64.4915 584.615 66.1705V66.2386C584.615 67.2102 583.627 67.125 581.24 67.4318C578.811 67.7472 576.161 68.2841 576.161 71.2841C576.161 73.8409 578.138 75.3068 580.627 75.3068ZM580.934 73.5C579.331 73.5 578.172 72.7841 578.172 71.3864C578.172 69.8523 579.57 69.375 581.138 69.1705C581.99 69.0682 584.275 68.8295 584.615 68.4205V70.2614C584.615 71.8977 583.32 73.5 580.934 73.5ZM595.241 75.2727C597.764 75.2727 598.616 73.7045 599.059 72.9886H599.298V75H601.241V57.5455H599.23V63.9886H599.059C598.616 63.3068 597.832 61.7386 595.275 61.7386C591.968 61.7386 589.684 64.3636 589.684 68.4886C589.684 72.6477 591.968 75.2727 595.241 75.2727ZM595.514 73.4659C592.991 73.4659 591.696 71.25 591.696 68.4545C591.696 65.6932 592.957 63.5455 595.514 63.5455C597.968 63.5455 599.264 65.5227 599.264 68.4545C599.264 71.4205 597.934 73.4659 595.514 73.4659ZM605.204 75H607.216V66.7159C607.216 64.9432 608.613 63.6477 610.522 63.6477C611.059 63.6477 611.613 63.75 611.75 63.7841V61.7386C611.52 61.7216 610.991 61.7045 610.693 61.7045C609.125 61.7045 607.761 62.5909 607.284 63.8864H607.147V61.9091H605.204V75ZM622.384 69.6477C622.384 72.1023 620.509 73.2273 619.009 73.2273C617.338 73.2273 616.145 72 616.145 70.0909V61.9091H614.134V70.2273C614.134 73.5682 615.907 75.1705 618.361 75.1705C620.338 75.1705 621.634 74.1136 622.248 72.7841H622.384V75H624.395V61.9091H622.384V69.6477ZM628.079 79.9091H630.091V72.9886H630.261C630.704 73.7045 631.556 75.2727 634.079 75.2727C637.352 75.2727 639.636 72.6477 639.636 68.4886C639.636 64.3636 637.352 61.7386 634.045 61.7386C631.488 61.7386 630.704 63.3068 630.261 63.9886H630.022V61.9091H628.079V79.9091ZM630.056 68.4545C630.056 65.5227 631.352 63.5455 633.806 63.5455C636.363 63.5455 637.625 65.6932 637.625 68.4545C637.625 71.25 636.329 73.4659 633.806 73.4659C631.386 73.4659 630.056 71.4205 630.056 68.4545ZM648.022 75.2727C651.568 75.2727 653.954 72.5795 653.954 68.5227C653.954 64.4318 651.568 61.7386 648.022 61.7386C644.477 61.7386 642.091 64.4318 642.091 68.5227C642.091 72.5795 644.477 75.2727 648.022 75.2727ZM648.022 73.4659C645.329 73.4659 644.102 71.1477 644.102 68.5227C644.102 65.8977 645.329 63.5455 648.022 63.5455C650.716 63.5455 651.943 65.8977 651.943 68.5227C651.943 71.1477 650.716 73.4659 648.022 73.4659ZM659.036 57.5455H657.025V75H659.036V57.5455ZM668.208 75.2727C670.868 75.2727 672.811 73.9432 673.424 71.9659L671.481 71.4205C670.97 72.7841 669.785 73.4659 668.208 73.4659C665.848 73.4659 664.22 71.9403 664.126 69.1364H673.629V68.2841C673.629 63.4091 670.731 61.7386 668.004 61.7386C664.458 61.7386 662.106 64.5341 662.106 68.5568C662.106 72.5795 664.424 75.2727 668.208 75.2727ZM664.126 67.3977C664.262 65.3608 665.703 63.5455 668.004 63.5455C670.186 63.5455 671.583 65.1818 671.583 67.3977H664.126Z" fill="black"/>
<path d="M116.282 170H118.225V167.989H118.463C118.907 168.705 119.759 170.273 122.282 170.273C125.554 170.273 127.838 167.648 127.838 163.489C127.838 159.364 125.554 156.739 122.248 156.739C119.691 156.739 118.907 158.307 118.463 158.989H118.293V152.545H116.282V170ZM118.259 163.455C118.259 160.523 119.554 158.545 122.009 158.545C124.566 158.545 125.827 160.693 125.827 163.455C125.827 166.25 124.532 168.466 122.009 168.466C119.588 168.466 118.259 166.42 118.259 163.455ZM136.404 170.273C139.063 170.273 141.006 168.943 141.62 166.966L139.676 166.42C139.165 167.784 137.98 168.466 136.404 168.466C134.043 168.466 132.415 166.94 132.321 164.136H141.824V163.284C141.824 158.409 138.926 156.739 136.199 156.739C132.654 156.739 130.301 159.534 130.301 163.557C130.301 167.58 132.62 170.273 136.404 170.273ZM132.321 162.398C132.458 160.361 133.898 158.545 136.199 158.545C138.381 158.545 139.779 160.182 139.779 162.398H132.321ZM146.895 162.125C146.895 159.841 148.31 158.545 150.236 158.545C152.103 158.545 153.236 159.764 153.236 161.818V170H155.248V161.682C155.248 158.341 153.466 156.739 150.816 156.739C148.838 156.739 147.611 157.625 146.998 158.955H146.827V156.909H144.884V170H146.895V162.125ZM163.866 170.273C166.389 170.273 167.241 168.705 167.684 167.989H167.923V170H169.866V152.545H167.855V158.989H167.684C167.241 158.307 166.457 156.739 163.9 156.739C160.593 156.739 158.309 159.364 158.309 163.489C158.309 167.648 160.593 170.273 163.866 170.273ZM164.139 168.466C161.616 168.466 160.321 166.25 160.321 163.455C160.321 160.693 161.582 158.545 164.139 158.545C166.593 158.545 167.889 160.523 167.889 163.455C167.889 166.42 166.559 168.466 164.139 168.466ZM173.829 170H175.841V156.909H173.829V170ZM174.852 154.727C175.636 154.727 176.284 154.114 176.284 153.364C176.284 152.614 175.636 152 174.852 152C174.068 152 173.42 152.614 173.42 153.364C173.42 154.114 174.068 154.727 174.852 154.727ZM181.536 162.125C181.536 159.841 182.951 158.545 184.877 158.545C186.743 158.545 187.877 159.764 187.877 161.818V170H189.888V161.682C189.888 158.341 188.107 156.739 185.456 156.739C183.479 156.739 182.252 157.625 181.638 158.955H181.468V156.909H179.525V170H181.536V162.125ZM198.848 175.182C201.984 175.182 204.507 173.75 204.507 170.375V156.909H202.564V158.989H202.359C201.916 158.307 201.098 156.739 198.541 156.739C195.234 156.739 192.95 159.364 192.95 163.386C192.95 167.477 195.336 169.795 198.507 169.795C201.064 169.795 201.882 168.295 202.325 167.58H202.495V170.239C202.495 172.42 200.961 173.409 198.848 173.409C196.47 173.409 195.635 172.156 195.098 171.432L193.495 172.557C194.314 173.929 195.924 175.182 198.848 175.182ZM198.779 167.989C196.257 167.989 194.961 166.08 194.961 163.352C194.961 160.693 196.223 158.545 198.779 158.545C201.234 158.545 202.529 160.523 202.529 163.352C202.529 166.25 201.2 167.989 198.779 167.989ZM214.939 170H216.95V161.818C216.95 159.901 218.348 158.545 219.916 158.545C221.441 158.545 222.507 159.543 222.507 161.034V170H224.552V161.477C224.552 159.79 225.609 158.545 227.45 158.545C228.882 158.545 230.109 159.304 230.109 161.239V170H232.12V161.239C232.12 158.162 230.467 156.739 228.132 156.739C226.257 156.739 224.885 157.599 224.211 158.955H224.075C223.427 157.557 222.285 156.739 220.564 156.739C218.859 156.739 217.598 157.557 217.052 158.955H216.882V156.909H214.939V170ZM239.65 170.307C241.934 170.307 243.127 169.08 243.537 168.227H243.639V170H245.65V161.375C245.65 157.216 242.48 156.739 240.809 156.739C238.832 156.739 236.582 157.42 235.559 159.807L237.468 160.489C237.912 159.534 238.96 158.511 240.877 158.511C242.727 158.511 243.639 159.491 243.639 161.17V161.239C243.639 162.21 242.65 162.125 240.264 162.432C237.835 162.747 235.184 163.284 235.184 166.284C235.184 168.841 237.162 170.307 239.65 170.307ZM239.957 168.5C238.355 168.5 237.196 167.784 237.196 166.386C237.196 164.852 238.593 164.375 240.162 164.17C241.014 164.068 243.298 163.83 243.639 163.42V165.261C243.639 166.898 242.343 168.5 239.957 168.5ZM254.605 175.182C257.742 175.182 260.265 173.75 260.265 170.375V156.909H258.321V158.989H258.117C257.674 158.307 256.855 156.739 254.299 156.739C250.992 156.739 248.708 159.364 248.708 163.386C248.708 167.477 251.094 169.795 254.265 169.795C256.821 169.795 257.64 168.295 258.083 167.58H258.253V170.239C258.253 172.42 256.719 173.409 254.605 173.409C252.228 173.409 251.392 172.156 250.855 171.432L249.253 172.557C250.071 173.929 251.682 175.182 254.605 175.182ZM254.537 167.989C252.015 167.989 250.719 166.08 250.719 163.352C250.719 160.693 251.98 158.545 254.537 158.545C256.992 158.545 258.287 160.523 258.287 163.352C258.287 166.25 256.958 167.989 254.537 167.989ZM265.958 162.125C265.958 159.841 267.373 158.545 269.299 158.545C271.165 158.545 272.299 159.764 272.299 161.818V170H274.31V161.682C274.31 158.341 272.529 156.739 269.878 156.739C267.901 156.739 266.674 157.625 266.06 158.955H265.89V156.909H263.946V170H265.958V162.125ZM283.474 170.273C286.133 170.273 288.076 168.943 288.69 166.966L286.747 166.42C286.235 167.784 285.051 168.466 283.474 168.466C281.113 168.466 279.485 166.94 279.392 164.136H288.895V163.284C288.895 158.409 285.997 156.739 283.27 156.739C279.724 156.739 277.372 159.534 277.372 163.557C277.372 167.58 279.69 170.273 283.474 170.273ZM279.392 162.398C279.528 160.361 280.968 158.545 283.27 158.545C285.451 158.545 286.849 160.182 286.849 162.398H279.392ZM297.647 156.909H294.852V153.773H292.841V156.909H290.863V158.614H292.841V166.795C292.841 169.08 294.681 170.17 296.386 170.17C297.136 170.17 297.613 170.034 297.886 169.932L297.477 168.125C297.306 168.159 297.034 168.227 296.591 168.227C295.704 168.227 294.852 167.955 294.852 166.25V158.614H297.647V156.909Z" fill="black"/>
<path d="M703.282 170H705.225V167.989H705.463C705.907 168.705 706.759 170.273 709.282 170.273C712.554 170.273 714.838 167.648 714.838 163.489C714.838 159.364 712.554 156.739 709.248 156.739C706.691 156.739 705.907 158.307 705.463 158.989H705.293V152.545H703.282V170ZM705.259 163.455C705.259 160.523 706.554 158.545 709.009 158.545C711.566 158.545 712.827 160.693 712.827 163.455C712.827 166.25 711.532 168.466 709.009 168.466C706.588 168.466 705.259 166.42 705.259 163.455ZM723.404 170.273C726.063 170.273 728.006 168.943 728.62 166.966L726.676 166.42C726.165 167.784 724.98 168.466 723.404 168.466C721.043 168.466 719.415 166.94 719.321 164.136H728.824V163.284C728.824 158.409 725.926 156.739 723.199 156.739C719.654 156.739 717.301 159.534 717.301 163.557C717.301 167.58 719.62 170.273 723.404 170.273ZM719.321 162.398C719.458 160.361 720.898 158.545 723.199 158.545C725.381 158.545 726.779 160.182 726.779 162.398H719.321ZM733.895 162.125C733.895 159.841 735.31 158.545 737.236 158.545C739.103 158.545 740.236 159.764 740.236 161.818V170H742.248V161.682C742.248 158.341 740.466 156.739 737.816 156.739C735.838 156.739 734.611 157.625 733.998 158.955H733.827V156.909H731.884V170H733.895V162.125ZM750.866 170.273C753.389 170.273 754.241 168.705 754.684 167.989H754.923V170H756.866V152.545H754.855V158.989H754.684C754.241 158.307 753.457 156.739 750.9 156.739C747.593 156.739 745.309 159.364 745.309 163.489C745.309 167.648 747.593 170.273 750.866 170.273ZM751.139 168.466C748.616 168.466 747.321 166.25 747.321 163.455C747.321 160.693 748.582 158.545 751.139 158.545C753.593 158.545 754.889 160.523 754.889 163.455C754.889 166.42 753.559 168.466 751.139 168.466ZM760.829 170H762.841V156.909H760.829V170ZM761.852 154.727C762.636 154.727 763.284 154.114 763.284 153.364C763.284 152.614 762.636 152 761.852 152C761.068 152 760.42 152.614 760.42 153.364C760.42 154.114 761.068 154.727 761.852 154.727ZM768.536 162.125C768.536 159.841 769.951 158.545 771.877 158.545C773.743 158.545 774.877 159.764 774.877 161.818V170H776.888V161.682C776.888 158.341 775.107 156.739 772.456 156.739C770.479 156.739 769.252 157.625 768.638 158.955H768.468V156.909H766.525V170H768.536V162.125ZM785.848 175.182C788.984 175.182 791.507 173.75 791.507 170.375V156.909H789.564V158.989H789.359C788.916 158.307 788.098 156.739 785.541 156.739C782.234 156.739 779.95 159.364 779.95 163.386C779.95 167.477 782.336 169.795 785.507 169.795C788.064 169.795 788.882 168.295 789.325 167.58H789.495V170.239C789.495 172.42 787.961 173.409 785.848 173.409C783.47 173.409 782.635 172.156 782.098 171.432L780.495 172.557C781.314 173.929 782.924 175.182 785.848 175.182ZM785.779 167.989C783.257 167.989 781.961 166.08 781.961 163.352C781.961 160.693 783.223 158.545 785.779 158.545C788.234 158.545 789.529 160.523 789.529 163.352C789.529 166.25 788.2 167.989 785.779 167.989ZM801.939 170H803.95V161.818C803.95 159.901 805.348 158.545 806.916 158.545C808.441 158.545 809.507 159.543 809.507 161.034V170H811.552V161.477C811.552 159.79 812.609 158.545 814.45 158.545C815.882 158.545 817.109 159.304 817.109 161.239V170H819.12V161.239C819.12 158.162 817.467 156.739 815.132 156.739C813.257 156.739 811.885 157.599 811.211 158.955H811.075C810.427 157.557 809.285 156.739 807.564 156.739C805.859 156.739 804.598 157.557 804.052 158.955H803.882V156.909H801.939V170ZM826.65 170.307C828.934 170.307 830.127 169.08 830.537 168.227H830.639V170H832.65V161.375C832.65 157.216 829.48 156.739 827.809 156.739C825.832 156.739 823.582 157.42 822.559 159.807L824.468 160.489C824.912 159.534 825.96 158.511 827.877 158.511C829.727 158.511 830.639 159.491 830.639 161.17V161.239C830.639 162.21 829.65 162.125 827.264 162.432C824.835 162.747 822.184 163.284 822.184 166.284C822.184 168.841 824.162 170.307 826.65 170.307ZM826.957 168.5C825.355 168.5 824.196 167.784 824.196 166.386C824.196 164.852 825.593 164.375 827.162 164.17C828.014 164.068 830.298 163.83 830.639 163.42V165.261C830.639 166.898 829.343 168.5 826.957 168.5ZM841.605 175.182C844.742 175.182 847.265 173.75 847.265 170.375V156.909H845.321V158.989H845.117C844.674 158.307 843.855 156.739 841.299 156.739C837.992 156.739 835.708 159.364 835.708 163.386C835.708 167.477 838.094 169.795 841.265 169.795C843.821 169.795 844.64 168.295 845.083 167.58H845.253V170.239C845.253 172.42 843.719 173.409 841.605 173.409C839.228 173.409 838.392 172.156 837.855 171.432L836.253 172.557C837.071 173.929 838.682 175.182 841.605 175.182ZM841.537 167.989C839.015 167.989 837.719 166.08 837.719 163.352C837.719 160.693 838.98 158.545 841.537 158.545C843.992 158.545 845.287 160.523 845.287 163.352C845.287 166.25 843.958 167.989 841.537 167.989ZM852.958 162.125C852.958 159.841 854.373 158.545 856.299 158.545C858.165 158.545 859.299 159.764 859.299 161.818V170H861.31V161.682C861.31 158.341 859.529 156.739 856.878 156.739C854.901 156.739 853.674 157.625 853.06 158.955H852.89V156.909H850.946V170H852.958V162.125ZM870.474 170.273C873.133 170.273 875.076 168.943 875.69 166.966L873.747 166.42C873.235 167.784 872.051 168.466 870.474 168.466C868.113 168.466 866.485 166.94 866.392 164.136H875.895V163.284C875.895 158.409 872.997 156.739 870.27 156.739C866.724 156.739 864.372 159.534 864.372 163.557C864.372 167.58 866.69 170.273 870.474 170.273ZM866.392 162.398C866.528 160.361 867.968 158.545 870.27 158.545C872.451 158.545 873.849 160.182 873.849 162.398H866.392ZM884.647 156.909H881.852V153.773H879.841V156.909H877.863V158.614H879.841V166.795C879.841 169.08 881.681 170.17 883.386 170.17C884.136 170.17 884.613 170.034 884.886 169.932L884.477 168.125C884.306 168.159 884.034 168.227 883.591 168.227C882.704 168.227 881.852 167.955 881.852 166.25V158.614H884.647V156.909Z" fill="black"/>
<mask id="path-7-inside-2" fill="white">
<path fill-rule="evenodd" clip-rule="evenodd" d="M123.223 270.223C170.107 223.339 233.696 197 300 197V297C260.218 297 222.064 312.804 193.934 340.934L123.223 270.223Z"/>
</mask>
<path d="M300 197H302V195H300V197ZM123.223 270.223L121.809 268.809L120.395 270.223L121.809 271.637L123.223 270.223ZM300 297V299H302V297H300ZM193.934 340.934L192.52 342.348L193.934 343.762L195.348 342.348L193.934 340.934ZM300 195C233.165 195 169.068 221.55 121.809 268.809L124.638 271.637C171.147 225.128 234.226 199 300 199V195ZM302 297V197H298V297H302ZM300 295C259.687 295 221.025 311.014 192.52 339.52L195.348 342.348C223.104 314.593 260.748 299 300 299V295ZM121.809 271.637L192.52 342.348L195.348 339.52L124.638 268.809L121.809 271.637Z" fill="black" mask="url(#path-7-inside-2)"/>
<mask id="path-9-inside-3" fill="white">
<path fill-rule="evenodd" clip-rule="evenodd" d="M700 197C766.304 197 829.893 223.339 876.777 270.223L806.066 340.934C777.936 312.804 739.782 297 700 297L700 197Z"/>
</mask>
<path d="M876.777 270.223L878.191 271.637L879.605 270.223L878.191 268.809L876.777 270.223ZM700 197V195H698L698 197L700 197ZM806.066 340.934L804.652 342.348L806.066 343.762L807.48 342.348L806.066 340.934ZM700 297H698V299H700V297ZM878.191 268.809C830.932 221.55 766.835 195 700 195V199C765.774 199 828.853 225.128 875.362 271.637L878.191 268.809ZM807.48 342.348L878.191 271.637L875.362 268.809L804.652 339.52L807.48 342.348ZM807.48 339.52C778.975 311.014 740.313 295 700 295V299C739.252 299 776.896 314.593 804.652 342.348L807.48 339.52ZM698 197L698 297H702L702 197L698 197Z" fill="black" mask="url(#path-9-inside-3)"/>
<path d="M300 247H700" stroke="black" stroke-width="2"/>
<path d="M18 447.421L159.421 306" stroke="black" stroke-width="2"/>
<path d="M841 306L982.421 447.421" stroke="black" stroke-width="2"/>
<path d="M841.421 305.579C803.914 268.071 753.043 247 700 247" stroke="black" stroke-width="2"/>
<path d="M300 247C246.957 247 196.086 268.071 158.579 305.579" stroke="black" stroke-width="2"/>
<path d="M160 305.049C178.225 287.128 200.154 273.417 224.245 264.879C248.337 256.342 273.558 253.554 299 256L500 288" stroke="#FF0000" stroke-width="2"/>
<path d="M160 305C197.893 266.883 246.68 243.093 299 235L500 206" stroke="#FF0000" stroke-width="2"/>
<path d="M840 305.049C821.775 287.128 799.846 273.417 775.755 264.879C751.663 256.342 726.442 253.554 701 256L500 288" stroke="#FF0000" stroke-width="2"/>
<path d="M840 305C802.107 266.883 753.32 243.093 701 235L500 206" stroke="#FF0000" stroke-width="2"/>
</svg>
