<?xml version="1.0" encoding="utf-8" standalone="no"?>
<!DOCTYPE svg PUBLIC "-//W3C//DTD SVG 1.1//EN"
  "http://www.w3.org/Graphics/SVG/1.1/DTD/svg11.dtd">
<!-- Created with matplotlib (https://matplotlib.org/) -->
<svg height="460.8pt" version="1.1" viewBox="0 0 460.8 460.8" width="460.8pt" xmlns="http://www.w3.org/2000/svg" xmlns:xlink="http://www.w3.org/1999/xlink">
 <metadata>
  <rdf:RDF xmlns:cc="http://creativecommons.org/ns#" xmlns:dc="http://purl.org/dc/elements/1.1/" xmlns:rdf="http://www.w3.org/1999/02/22-rdf-syntax-ns#">
   <cc:Work>
    <dc:type rdf:resource="http://purl.org/dc/dcmitype/StillImage"/>
    <dc:date>2020-10-05T23:34:26.281409</dc:date>
    <dc:format>image/svg+xml</dc:format>
    <dc:creator>
     <cc:Agent>
      <dc:title>Matplotlib v3.3.1, https://matplotlib.org/</dc:title>
     </cc:Agent>
    </dc:creator>
   </cc:Work>
  </rdf:RDF>
 </metadata>
 <defs>
  <style type="text/css">*{stroke-linecap:butt;stroke-linejoin:round;}</style>
 </defs>
 <g id="figure_1">
  <g id="patch_1">
   <path d="M 0 460.8 
L 460.8 460.8 
L 460.8 0 
L 0 0 
z
" style="fill:#ffffff;"/>
  </g>
  <g id="axes_1">
   <g id="patch_2">
    <path d="M 81.76 116.181863 
L 450 116.181863 
L 450 18.815294 
L 81.76 18.815294 
z
" style="fill:#ffffff;"/>
   </g>
   <g id="matplotlib.axis_1">
    <g id="xtick_1">
     <g id="line2d_1">
      <path clip-path="url(#p131381e4c9)" d="M 98.498182 116.181863 
L 98.498182 18.815294 
" style="fill:none;stroke:#b0b0b0;stroke-dasharray:2.96,1.28;stroke-dashoffset:0;stroke-width:0.8;"/>
     </g>
     <g id="line2d_2">
      <defs>
       <path d="M 0 0 
L 0 3.5 
" id="mb235de3efa" style="stroke:#000000;stroke-width:0.8;"/>
      </defs>
      <g>
       <use style="stroke:#000000;stroke-width:0.8;" x="98.498182" xlink:href="#mb235de3efa" y="116.181863"/>
      </g>
     </g>
     <g id="text_1">
      <!-- 0 -->
      <g transform="translate(95.316932 130.7803)scale(0.1 -0.1)">
       <defs>
        <path d="M 31.78125 66.40625 
Q 24.171875 66.40625 20.328125 58.90625 
Q 16.5 51.421875 16.5 36.375 
Q 16.5 21.390625 20.328125 13.890625 
Q 24.171875 6.390625 31.78125 6.390625 
Q 39.453125 6.390625 43.28125 13.890625 
Q 47.125 21.390625 47.125 36.375 
Q 47.125 51.421875 43.28125 58.90625 
Q 39.453125 66.40625 31.78125 66.40625 
z
M 31.78125 74.21875 
Q 44.046875 74.21875 50.515625 64.515625 
Q 56.984375 54.828125 56.984375 36.375 
Q 56.984375 17.96875 50.515625 8.265625 
Q 44.046875 -1.421875 31.78125 -1.421875 
Q 19.53125 -1.421875 13.0625 8.265625 
Q 6.59375 17.96875 6.59375 36.375 
Q 6.59375 54.828125 13.0625 64.515625 
Q 19.53125 74.21875 31.78125 74.21875 
z
" id="DejaVuSans-48"/>
       </defs>
       <use xlink:href="#DejaVuSans-48"/>
      </g>
     </g>
    </g>
    <g id="xtick_2">
     <g id="line2d_3">
      <path clip-path="url(#p131381e4c9)" d="M 182.189091 116.181863 
L 182.189091 18.815294 
" style="fill:none;stroke:#b0b0b0;stroke-dasharray:2.96,1.28;stroke-dashoffset:0;stroke-width:0.8;"/>
     </g>
     <g id="line2d_4">
      <g>
       <use style="stroke:#000000;stroke-width:0.8;" x="182.189091" xlink:href="#mb235de3efa" y="116.181863"/>
      </g>
     </g>
     <g id="text_2">
      <!-- 8 -->
      <g transform="translate(179.007841 130.7803)scale(0.1 -0.1)">
       <defs>
        <path d="M 31.78125 34.625 
Q 24.75 34.625 20.71875 30.859375 
Q 16.703125 27.09375 16.703125 20.515625 
Q 16.703125 13.921875 20.71875 10.15625 
Q 24.75 6.390625 31.78125 6.390625 
Q 38.8125 6.390625 42.859375 10.171875 
Q 46.921875 13.96875 46.921875 20.515625 
Q 46.921875 27.09375 42.890625 30.859375 
Q 38.875 34.625 31.78125 34.625 
z
M 21.921875 38.8125 
Q 15.578125 40.375 12.03125 44.71875 
Q 8.5 49.078125 8.5 55.328125 
Q 8.5 64.0625 14.71875 69.140625 
Q 20.953125 74.21875 31.78125 74.21875 
Q 42.671875 74.21875 48.875 69.140625 
Q 55.078125 64.0625 55.078125 55.328125 
Q 55.078125 49.078125 51.53125 44.71875 
Q 48 40.375 41.703125 38.8125 
Q 48.828125 37.15625 52.796875 32.3125 
Q 56.78125 27.484375 56.78125 20.515625 
Q 56.78125 9.90625 50.3125 4.234375 
Q 43.84375 -1.421875 31.78125 -1.421875 
Q 19.734375 -1.421875 13.25 4.234375 
Q 6.78125 9.90625 6.78125 20.515625 
Q 6.78125 27.484375 10.78125 32.3125 
Q 14.796875 37.15625 21.921875 38.8125 
z
M 18.3125 54.390625 
Q 18.3125 48.734375 21.84375 45.5625 
Q 25.390625 42.390625 31.78125 42.390625 
Q 38.140625 42.390625 41.71875 45.5625 
Q 45.3125 48.734375 45.3125 54.390625 
Q 45.3125 60.0625 41.71875 63.234375 
Q 38.140625 66.40625 31.78125 66.40625 
Q 25.390625 66.40625 21.84375 63.234375 
Q 18.3125 60.0625 18.3125 54.390625 
z
" id="DejaVuSans-56"/>
       </defs>
       <use xlink:href="#DejaVuSans-56"/>
      </g>
     </g>
    </g>
    <g id="xtick_3">
     <g id="line2d_5">
      <path clip-path="url(#p131381e4c9)" d="M 265.88 116.181863 
L 265.88 18.815294 
" style="fill:none;stroke:#b0b0b0;stroke-dasharray:2.96,1.28;stroke-dashoffset:0;stroke-width:0.8;"/>
     </g>
     <g id="line2d_6">
      <g>
       <use style="stroke:#000000;stroke-width:0.8;" x="265.88" xlink:href="#mb235de3efa" y="116.181863"/>
      </g>
     </g>
     <g id="text_3">
      <!-- 16 -->
      <g transform="translate(259.5175 130.7803)scale(0.1 -0.1)">
       <defs>
        <path d="M 12.40625 8.296875 
L 28.515625 8.296875 
L 28.515625 63.921875 
L 10.984375 60.40625 
L 10.984375 69.390625 
L 28.421875 72.90625 
L 38.28125 72.90625 
L 38.28125 8.296875 
L 54.390625 8.296875 
L 54.390625 0 
L 12.40625 0 
z
" id="DejaVuSans-49"/>
        <path d="M 33.015625 40.375 
Q 26.375 40.375 22.484375 35.828125 
Q 18.609375 31.296875 18.609375 23.390625 
Q 18.609375 15.53125 22.484375 10.953125 
Q 26.375 6.390625 33.015625 6.390625 
Q 39.65625 6.390625 43.53125 10.953125 
Q 47.40625 15.53125 47.40625 23.390625 
Q 47.40625 31.296875 43.53125 35.828125 
Q 39.65625 40.375 33.015625 40.375 
z
M 52.59375 71.296875 
L 52.59375 62.3125 
Q 48.875 64.0625 45.09375 64.984375 
Q 41.3125 65.921875 37.59375 65.921875 
Q 27.828125 65.921875 22.671875 59.328125 
Q 17.53125 52.734375 16.796875 39.40625 
Q 19.671875 43.65625 24.015625 45.921875 
Q 28.375 48.1875 33.59375 48.1875 
Q 44.578125 48.1875 50.953125 41.515625 
Q 57.328125 34.859375 57.328125 23.390625 
Q 57.328125 12.15625 50.6875 5.359375 
Q 44.046875 -1.421875 33.015625 -1.421875 
Q 20.359375 -1.421875 13.671875 8.265625 
Q 6.984375 17.96875 6.984375 36.375 
Q 6.984375 53.65625 15.1875 63.9375 
Q 23.390625 74.21875 37.203125 74.21875 
Q 40.921875 74.21875 44.703125 73.484375 
Q 48.484375 72.75 52.59375 71.296875 
z
" id="DejaVuSans-54"/>
       </defs>
       <use xlink:href="#DejaVuSans-49"/>
       <use x="63.623047" xlink:href="#DejaVuSans-54"/>
      </g>
     </g>
    </g>
    <g id="xtick_4">
     <g id="line2d_7">
      <path clip-path="url(#p131381e4c9)" d="M 349.570909 116.181863 
L 349.570909 18.815294 
" style="fill:none;stroke:#b0b0b0;stroke-dasharray:2.96,1.28;stroke-dashoffset:0;stroke-width:0.8;"/>
     </g>
     <g id="line2d_8">
      <g>
       <use style="stroke:#000000;stroke-width:0.8;" x="349.570909" xlink:href="#mb235de3efa" y="116.181863"/>
      </g>
     </g>
     <g id="text_4">
      <!-- 24 -->
      <g transform="translate(343.208409 130.7803)scale(0.1 -0.1)">
       <defs>
        <path d="M 19.1875 8.296875 
L 53.609375 8.296875 
L 53.609375 0 
L 7.328125 0 
L 7.328125 8.296875 
Q 12.9375 14.109375 22.625 23.890625 
Q 32.328125 33.6875 34.8125 36.53125 
Q 39.546875 41.84375 41.421875 45.53125 
Q 43.3125 49.21875 43.3125 52.78125 
Q 43.3125 58.59375 39.234375 62.25 
Q 35.15625 65.921875 28.609375 65.921875 
Q 23.96875 65.921875 18.8125 64.3125 
Q 13.671875 62.703125 7.8125 59.421875 
L 7.8125 69.390625 
Q 13.765625 71.78125 18.9375 73 
Q 24.125 74.21875 28.421875 74.21875 
Q 39.75 74.21875 46.484375 68.546875 
Q 53.21875 62.890625 53.21875 53.421875 
Q 53.21875 48.921875 51.53125 44.890625 
Q 49.859375 40.875 45.40625 35.40625 
Q 44.1875 33.984375 37.640625 27.21875 
Q 31.109375 20.453125 19.1875 8.296875 
z
" id="DejaVuSans-50"/>
        <path d="M 37.796875 64.3125 
L 12.890625 25.390625 
L 37.796875 25.390625 
z
M 35.203125 72.90625 
L 47.609375 72.90625 
L 47.609375 25.390625 
L 58.015625 25.390625 
L 58.015625 17.1875 
L 47.609375 17.1875 
L 47.609375 0 
L 37.796875 0 
L 37.796875 17.1875 
L 4.890625 17.1875 
L 4.890625 26.703125 
z
" id="DejaVuSans-52"/>
       </defs>
       <use xlink:href="#DejaVuSans-50"/>
       <use x="63.623047" xlink:href="#DejaVuSans-52"/>
      </g>
     </g>
    </g>
    <g id="xtick_5">
     <g id="line2d_9">
      <path clip-path="url(#p131381e4c9)" d="M 433.261818 116.181863 
L 433.261818 18.815294 
" style="fill:none;stroke:#b0b0b0;stroke-dasharray:2.96,1.28;stroke-dashoffset:0;stroke-width:0.8;"/>
     </g>
     <g id="line2d_10">
      <g>
       <use style="stroke:#000000;stroke-width:0.8;" x="433.261818" xlink:href="#mb235de3efa" y="116.181863"/>
      </g>
     </g>
     <g id="text_5">
      <!-- 32 -->
      <g transform="translate(426.899318 130.7803)scale(0.1 -0.1)">
       <defs>
        <path d="M 40.578125 39.3125 
Q 47.65625 37.796875 51.625 33 
Q 55.609375 28.21875 55.609375 21.1875 
Q 55.609375 10.40625 48.1875 4.484375 
Q 40.765625 -1.421875 27.09375 -1.421875 
Q 22.515625 -1.421875 17.65625 -0.515625 
Q 12.796875 0.390625 7.625 2.203125 
L 7.625 11.71875 
Q 11.71875 9.328125 16.59375 8.109375 
Q 21.484375 6.890625 26.8125 6.890625 
Q 36.078125 6.890625 40.9375 10.546875 
Q 45.796875 14.203125 45.796875 21.1875 
Q 45.796875 27.640625 41.28125 31.265625 
Q 36.765625 34.90625 28.71875 34.90625 
L 20.21875 34.90625 
L 20.21875 43.015625 
L 29.109375 43.015625 
Q 36.375 43.015625 40.234375 45.921875 
Q 44.09375 48.828125 44.09375 54.296875 
Q 44.09375 59.90625 40.109375 62.90625 
Q 36.140625 65.921875 28.71875 65.921875 
Q 24.65625 65.921875 20.015625 65.03125 
Q 15.375 64.15625 9.8125 62.3125 
L 9.8125 71.09375 
Q 15.4375 72.65625 20.34375 73.4375 
Q 25.25 74.21875 29.59375 74.21875 
Q 40.828125 74.21875 47.359375 69.109375 
Q 53.90625 64.015625 53.90625 55.328125 
Q 53.90625 49.265625 50.4375 45.09375 
Q 46.96875 40.921875 40.578125 39.3125 
z
" id="DejaVuSans-51"/>
       </defs>
       <use xlink:href="#DejaVuSans-51"/>
       <use x="63.623047" xlink:href="#DejaVuSans-50"/>
      </g>
     </g>
    </g>
    <g id="text_6">
     <!-- Orbit position $s$ / m -->
     <g transform="translate(218.03 144.459988)scale(0.1 -0.1)">
      <defs>
       <path d="M 39.40625 66.21875 
Q 28.65625 66.21875 22.328125 58.203125 
Q 16.015625 50.203125 16.015625 36.375 
Q 16.015625 22.609375 22.328125 14.59375 
Q 28.65625 6.59375 39.40625 6.59375 
Q 50.140625 6.59375 56.421875 14.59375 
Q 62.703125 22.609375 62.703125 36.375 
Q 62.703125 50.203125 56.421875 58.203125 
Q 50.140625 66.21875 39.40625 66.21875 
z
M 39.40625 74.21875 
Q 54.734375 74.21875 63.90625 63.9375 
Q 73.09375 53.65625 73.09375 36.375 
Q 73.09375 19.140625 63.90625 8.859375 
Q 54.734375 -1.421875 39.40625 -1.421875 
Q 24.03125 -1.421875 14.8125 8.828125 
Q 5.609375 19.09375 5.609375 36.375 
Q 5.609375 53.65625 14.8125 63.9375 
Q 24.03125 74.21875 39.40625 74.21875 
z
" id="DejaVuSans-79"/>
       <path d="M 41.109375 46.296875 
Q 39.59375 47.171875 37.8125 47.578125 
Q 36.03125 48 33.890625 48 
Q 26.265625 48 22.1875 43.046875 
Q 18.109375 38.09375 18.109375 28.8125 
L 18.109375 0 
L 9.078125 0 
L 9.078125 54.6875 
L 18.109375 54.6875 
L 18.109375 46.1875 
Q 20.953125 51.171875 25.484375 53.578125 
Q 30.03125 56 36.53125 56 
Q 37.453125 56 38.578125 55.875 
Q 39.703125 55.765625 41.0625 55.515625 
z
" id="DejaVuSans-114"/>
       <path d="M 48.6875 27.296875 
Q 48.6875 37.203125 44.609375 42.84375 
Q 40.53125 48.484375 33.40625 48.484375 
Q 26.265625 48.484375 22.1875 42.84375 
Q 18.109375 37.203125 18.109375 27.296875 
Q 18.109375 17.390625 22.1875 11.75 
Q 26.265625 6.109375 33.40625 6.109375 
Q 40.53125 6.109375 44.609375 11.75 
Q 48.6875 17.390625 48.6875 27.296875 
z
M 18.109375 46.390625 
Q 20.953125 51.265625 25.265625 53.625 
Q 29.59375 56 35.59375 56 
Q 45.5625 56 51.78125 48.09375 
Q 58.015625 40.1875 58.015625 27.296875 
Q 58.015625 14.40625 51.78125 6.484375 
Q 45.5625 -1.421875 35.59375 -1.421875 
Q 29.59375 -1.421875 25.265625 0.953125 
Q 20.953125 3.328125 18.109375 8.203125 
L 18.109375 0 
L 9.078125 0 
L 9.078125 75.984375 
L 18.109375 75.984375 
z
" id="DejaVuSans-98"/>
       <path d="M 9.421875 54.6875 
L 18.40625 54.6875 
L 18.40625 0 
L 9.421875 0 
z
M 9.421875 75.984375 
L 18.40625 75.984375 
L 18.40625 64.59375 
L 9.421875 64.59375 
z
" id="DejaVuSans-105"/>
       <path d="M 18.3125 70.21875 
L 18.3125 54.6875 
L 36.8125 54.6875 
L 36.8125 47.703125 
L 18.3125 47.703125 
L 18.3125 18.015625 
Q 18.3125 11.328125 20.140625 9.421875 
Q 21.96875 7.515625 27.59375 7.515625 
L 36.8125 7.515625 
L 36.8125 0 
L 27.59375 0 
Q 17.1875 0 13.234375 3.875 
Q 9.28125 7.765625 9.28125 18.015625 
L 9.28125 47.703125 
L 2.6875 47.703125 
L 2.6875 54.6875 
L 9.28125 54.6875 
L 9.28125 70.21875 
z
" id="DejaVuSans-116"/>
       <path id="DejaVuSans-32"/>
       <path d="M 18.109375 8.203125 
L 18.109375 -20.796875 
L 9.078125 -20.796875 
L 9.078125 54.6875 
L 18.109375 54.6875 
L 18.109375 46.390625 
Q 20.953125 51.265625 25.265625 53.625 
Q 29.59375 56 35.59375 56 
Q 45.5625 56 51.78125 48.09375 
Q 58.015625 40.1875 58.015625 27.296875 
Q 58.015625 14.40625 51.78125 6.484375 
Q 45.5625 -1.421875 35.59375 -1.421875 
Q 29.59375 -1.421875 25.265625 0.953125 
Q 20.953125 3.328125 18.109375 8.203125 
z
M 48.6875 27.296875 
Q 48.6875 37.203125 44.609375 42.84375 
Q 40.53125 48.484375 33.40625 48.484375 
Q 26.265625 48.484375 22.1875 42.84375 
Q 18.109375 37.203125 18.109375 27.296875 
Q 18.109375 17.390625 22.1875 11.75 
Q 26.265625 6.109375 33.40625 6.109375 
Q 40.53125 6.109375 44.609375 11.75 
Q 48.6875 17.390625 48.6875 27.296875 
z
" id="DejaVuSans-112"/>
       <path d="M 30.609375 48.390625 
Q 23.390625 48.390625 19.1875 42.75 
Q 14.984375 37.109375 14.984375 27.296875 
Q 14.984375 17.484375 19.15625 11.84375 
Q 23.34375 6.203125 30.609375 6.203125 
Q 37.796875 6.203125 41.984375 11.859375 
Q 46.1875 17.53125 46.1875 27.296875 
Q 46.1875 37.015625 41.984375 42.703125 
Q 37.796875 48.390625 30.609375 48.390625 
z
M 30.609375 56 
Q 42.328125 56 49.015625 48.375 
Q 55.71875 40.765625 55.71875 27.296875 
Q 55.71875 13.875 49.015625 6.21875 
Q 42.328125 -1.421875 30.609375 -1.421875 
Q 18.84375 -1.421875 12.171875 6.21875 
Q 5.515625 13.875 5.515625 27.296875 
Q 5.515625 40.765625 12.171875 48.375 
Q 18.84375 56 30.609375 56 
z
" id="DejaVuSans-111"/>
       <path d="M 44.28125 53.078125 
L 44.28125 44.578125 
Q 40.484375 46.53125 36.375 47.5 
Q 32.28125 48.484375 27.875 48.484375 
Q 21.1875 48.484375 17.84375 46.4375 
Q 14.5 44.390625 14.5 40.28125 
Q 14.5 37.15625 16.890625 35.375 
Q 19.28125 33.59375 26.515625 31.984375 
L 29.59375 31.296875 
Q 39.15625 29.25 43.1875 25.515625 
Q 47.21875 21.78125 47.21875 15.09375 
Q 47.21875 7.46875 41.1875 3.015625 
Q 35.15625 -1.421875 24.609375 -1.421875 
Q 20.21875 -1.421875 15.453125 -0.5625 
Q 10.6875 0.296875 5.421875 2 
L 5.421875 11.28125 
Q 10.40625 8.6875 15.234375 7.390625 
Q 20.0625 6.109375 24.8125 6.109375 
Q 31.15625 6.109375 34.5625 8.28125 
Q 37.984375 10.453125 37.984375 14.40625 
Q 37.984375 18.0625 35.515625 20.015625 
Q 33.0625 21.96875 24.703125 23.78125 
L 21.578125 24.515625 
Q 13.234375 26.265625 9.515625 29.90625 
Q 5.8125 33.546875 5.8125 39.890625 
Q 5.8125 47.609375 11.28125 51.796875 
Q 16.75 56 26.8125 56 
Q 31.78125 56 36.171875 55.265625 
Q 40.578125 54.546875 44.28125 53.078125 
z
" id="DejaVuSans-115"/>
       <path d="M 54.890625 33.015625 
L 54.890625 0 
L 45.90625 0 
L 45.90625 32.71875 
Q 45.90625 40.484375 42.875 44.328125 
Q 39.84375 48.1875 33.796875 48.1875 
Q 26.515625 48.1875 22.3125 43.546875 
Q 18.109375 38.921875 18.109375 30.90625 
L 18.109375 0 
L 9.078125 0 
L 9.078125 54.6875 
L 18.109375 54.6875 
L 18.109375 46.1875 
Q 21.34375 51.125 25.703125 53.5625 
Q 30.078125 56 35.796875 56 
Q 45.21875 56 50.046875 50.171875 
Q 54.890625 44.34375 54.890625 33.015625 
z
" id="DejaVuSans-110"/>
       <path d="M 50 53.078125 
L 48.296875 44.578125 
Q 44.734375 46.53125 40.765625 47.5 
Q 36.8125 48.484375 32.625 48.484375 
Q 25.53125 48.484375 21.453125 46.0625 
Q 17.390625 43.65625 17.390625 39.5 
Q 17.390625 34.671875 26.859375 32.078125 
Q 27.59375 31.890625 27.9375 31.78125 
L 30.8125 30.90625 
Q 39.796875 28.421875 42.796875 25.6875 
Q 45.796875 22.953125 45.796875 18.21875 
Q 45.796875 9.515625 38.890625 4.046875 
Q 31.984375 -1.421875 20.796875 -1.421875 
Q 16.453125 -1.421875 11.671875 -0.578125 
Q 6.890625 0.25 1.125 2 
L 2.875 11.28125 
Q 7.8125 8.734375 12.59375 7.421875 
Q 17.390625 6.109375 21.78125 6.109375 
Q 28.375 6.109375 32.5 8.9375 
Q 36.625 11.765625 36.625 16.109375 
Q 36.625 20.796875 25.78125 23.6875 
L 24.859375 23.921875 
L 21.78125 24.703125 
Q 14.9375 26.515625 11.765625 29.46875 
Q 8.59375 32.421875 8.59375 37.015625 
Q 8.59375 45.75 15.15625 50.875 
Q 21.734375 56 33.015625 56 
Q 37.453125 56 41.671875 55.265625 
Q 45.90625 54.546875 50 53.078125 
z
" id="DejaVuSans-Oblique-115"/>
       <path d="M 25.390625 72.90625 
L 33.6875 72.90625 
L 8.296875 -9.28125 
L 0 -9.28125 
z
" id="DejaVuSans-47"/>
       <path d="M 52 44.1875 
Q 55.375 50.25 60.0625 53.125 
Q 64.75 56 71.09375 56 
Q 79.640625 56 84.28125 50.015625 
Q 88.921875 44.046875 88.921875 33.015625 
L 88.921875 0 
L 79.890625 0 
L 79.890625 32.71875 
Q 79.890625 40.578125 77.09375 44.375 
Q 74.3125 48.1875 68.609375 48.1875 
Q 61.625 48.1875 57.5625 43.546875 
Q 53.515625 38.921875 53.515625 30.90625 
L 53.515625 0 
L 44.484375 0 
L 44.484375 32.71875 
Q 44.484375 40.625 41.703125 44.40625 
Q 38.921875 48.1875 33.109375 48.1875 
Q 26.21875 48.1875 22.15625 43.53125 
Q 18.109375 38.875 18.109375 30.90625 
L 18.109375 0 
L 9.078125 0 
L 9.078125 54.6875 
L 18.109375 54.6875 
L 18.109375 46.1875 
Q 21.1875 51.21875 25.484375 53.609375 
Q 29.78125 56 35.6875 56 
Q 41.65625 56 45.828125 52.96875 
Q 50 49.953125 52 44.1875 
z
" id="DejaVuSans-109"/>
      </defs>
      <use transform="translate(0 0.015625)" xlink:href="#DejaVuSans-79"/>
      <use transform="translate(78.710938 0.015625)" xlink:href="#DejaVuSans-114"/>
      <use transform="translate(119.824219 0.015625)" xlink:href="#DejaVuSans-98"/>
      <use transform="translate(183.300781 0.015625)" xlink:href="#DejaVuSans-105"/>
      <use transform="translate(211.083984 0.015625)" xlink:href="#DejaVuSans-116"/>
      <use transform="translate(250.292969 0.015625)" xlink:href="#DejaVuSans-32"/>
      <use transform="translate(282.080078 0.015625)" xlink:href="#DejaVuSans-112"/>
      <use transform="translate(345.556641 0.015625)" xlink:href="#DejaVuSans-111"/>
      <use transform="translate(406.738281 0.015625)" xlink:href="#DejaVuSans-115"/>
      <use transform="translate(458.837891 0.015625)" xlink:href="#DejaVuSans-105"/>
      <use transform="translate(486.621094 0.015625)" xlink:href="#DejaVuSans-116"/>
      <use transform="translate(525.830078 0.015625)" xlink:href="#DejaVuSans-105"/>
      <use transform="translate(553.613281 0.015625)" xlink:href="#DejaVuSans-111"/>
      <use transform="translate(614.794922 0.015625)" xlink:href="#DejaVuSans-110"/>
      <use transform="translate(678.173828 0.015625)" xlink:href="#DejaVuSans-32"/>
      <use transform="translate(709.960938 0.015625)" xlink:href="#DejaVuSans-Oblique-115"/>
      <use transform="translate(762.060547 0.015625)" xlink:href="#DejaVuSans-32"/>
      <use transform="translate(793.847656 0.015625)" xlink:href="#DejaVuSans-47"/>
      <use transform="translate(827.539062 0.015625)" xlink:href="#DejaVuSans-32"/>
      <use transform="translate(859.326172 0.015625)" xlink:href="#DejaVuSans-109"/>
     </g>
    </g>
   </g>
   <g id="matplotlib.axis_2">
    <g id="ytick_1">
     <g id="line2d_11">
      <path clip-path="url(#p131381e4c9)" d="M 81.76 111.75611 
L 450 111.75611 
" style="fill:none;stroke:#b0b0b0;stroke-dasharray:2.96,1.28;stroke-dashoffset:0;stroke-width:0.8;"/>
     </g>
     <g id="line2d_12">
      <defs>
       <path d="M 0 0 
L -3.5 0 
" id="m849a602a30" style="stroke:#000000;stroke-width:0.8;"/>
      </defs>
      <g>
       <use style="stroke:#000000;stroke-width:0.8;" x="81.76" xlink:href="#m849a602a30" y="111.75611"/>
      </g>
     </g>
     <g id="text_7">
      <!-- −0.001 -->
      <g transform="translate(37.752188 115.555328)scale(0.1 -0.1)">
       <defs>
        <path d="M 10.59375 35.5 
L 73.1875 35.5 
L 73.1875 27.203125 
L 10.59375 27.203125 
z
" id="DejaVuSans-8722"/>
        <path d="M 10.6875 12.40625 
L 21 12.40625 
L 21 0 
L 10.6875 0 
z
" id="DejaVuSans-46"/>
       </defs>
       <use xlink:href="#DejaVuSans-8722"/>
       <use x="83.789062" xlink:href="#DejaVuSans-48"/>
       <use x="147.412109" xlink:href="#DejaVuSans-46"/>
       <use x="179.199219" xlink:href="#DejaVuSans-48"/>
       <use x="242.822266" xlink:href="#DejaVuSans-48"/>
       <use x="306.445312" xlink:href="#DejaVuSans-49"/>
      </g>
     </g>
    </g>
    <g id="ytick_2">
     <g id="line2d_13">
      <path clip-path="url(#p131381e4c9)" d="M 81.76 67.498578 
L 450 67.498578 
" style="fill:none;stroke:#b0b0b0;stroke-dasharray:2.96,1.28;stroke-dashoffset:0;stroke-width:0.8;"/>
     </g>
     <g id="line2d_14">
      <g>
       <use style="stroke:#000000;stroke-width:0.8;" x="81.76" xlink:href="#m849a602a30" y="67.498578"/>
      </g>
     </g>
     <g id="text_8">
      <!-- 0.000 -->
      <g transform="translate(46.131875 71.297797)scale(0.1 -0.1)">
       <use xlink:href="#DejaVuSans-48"/>
       <use x="63.623047" xlink:href="#DejaVuSans-46"/>
       <use x="95.410156" xlink:href="#DejaVuSans-48"/>
       <use x="159.033203" xlink:href="#DejaVuSans-48"/>
       <use x="222.65625" xlink:href="#DejaVuSans-48"/>
      </g>
     </g>
    </g>
    <g id="ytick_3">
     <g id="line2d_15">
      <path clip-path="url(#p131381e4c9)" d="M 81.76 23.241047 
L 450 23.241047 
" style="fill:none;stroke:#b0b0b0;stroke-dasharray:2.96,1.28;stroke-dashoffset:0;stroke-width:0.8;"/>
     </g>
     <g id="line2d_16">
      <g>
       <use style="stroke:#000000;stroke-width:0.8;" x="81.76" xlink:href="#m849a602a30" y="23.241047"/>
      </g>
     </g>
     <g id="text_9">
      <!-- 0.001 -->
      <g transform="translate(46.131875 27.040266)scale(0.1 -0.1)">
       <use xlink:href="#DejaVuSans-48"/>
       <use x="63.623047" xlink:href="#DejaVuSans-46"/>
       <use x="95.410156" xlink:href="#DejaVuSans-48"/>
       <use x="159.033203" xlink:href="#DejaVuSans-48"/>
       <use x="222.65625" xlink:href="#DejaVuSans-49"/>
      </g>
     </g>
    </g>
    <g id="text_10">
     <!-- $x(s)$ / m -->
     <g transform="translate(31.6725 86.698578)rotate(-90)scale(0.1 -0.1)">
      <defs>
       <path d="M 60.015625 54.6875 
L 34.90625 27.875 
L 50.296875 0 
L 39.984375 0 
L 28.421875 21.6875 
L 8.296875 0 
L -2.59375 0 
L 24.3125 28.8125 
L 10.015625 54.6875 
L 20.3125 54.6875 
L 30.8125 34.90625 
L 49.125 54.6875 
z
" id="DejaVuSans-Oblique-120"/>
       <path d="M 31 75.875 
Q 24.46875 64.65625 21.28125 53.65625 
Q 18.109375 42.671875 18.109375 31.390625 
Q 18.109375 20.125 21.3125 9.0625 
Q 24.515625 -2 31 -13.1875 
L 23.1875 -13.1875 
Q 15.875 -1.703125 12.234375 9.375 
Q 8.59375 20.453125 8.59375 31.390625 
Q 8.59375 42.28125 12.203125 53.3125 
Q 15.828125 64.359375 23.1875 75.875 
z
" id="DejaVuSans-40"/>
       <path d="M 8.015625 75.875 
L 15.828125 75.875 
Q 23.140625 64.359375 26.78125 53.3125 
Q 30.421875 42.28125 30.421875 31.390625 
Q 30.421875 20.453125 26.78125 9.375 
Q 23.140625 -1.703125 15.828125 -13.1875 
L 8.015625 -13.1875 
Q 14.5 -2 17.703125 9.0625 
Q 20.90625 20.125 20.90625 31.390625 
Q 20.90625 42.671875 17.703125 53.65625 
Q 14.5 64.65625 8.015625 75.875 
z
" id="DejaVuSans-41"/>
      </defs>
      <use transform="translate(0 0.125)" xlink:href="#DejaVuSans-Oblique-120"/>
      <use transform="translate(59.179688 0.125)" xlink:href="#DejaVuSans-40"/>
      <use transform="translate(98.193359 0.125)" xlink:href="#DejaVuSans-Oblique-115"/>
      <use transform="translate(150.292969 0.125)" xlink:href="#DejaVuSans-41"/>
      <use transform="translate(189.306641 0.125)" xlink:href="#DejaVuSans-32"/>
      <use transform="translate(221.09375 0.125)" xlink:href="#DejaVuSans-47"/>
      <use transform="translate(254.785156 0.125)" xlink:href="#DejaVuSans-32"/>
      <use transform="translate(286.572266 0.125)" xlink:href="#DejaVuSans-109"/>
     </g>
    </g>
   </g>
   <g id="line2d_17">
    <path clip-path="url(#p131381e4c9)" d="M 98.498182 23.241047 
L 99.282784 23.339958 
L 100.067386 23.636237 
L 100.851989 24.128525 
L 104.251932 26.940497 
L 111.574886 32.905505 
L 124.128523 42.348655 
L 128.313068 45.289132 
L 132.497614 47.872042 
L 135.636023 49.545298 
L 138.251364 50.694383 
L 139.2975 50.95733 
L 140.343636 51.044973 
L 141.389773 50.95733 
L 142.435909 50.694383 
L 144.005114 50.039492 
L 147.143523 48.45886 
L 150.281932 46.62346 
L 153.420341 44.594458 
L 159.697159 40.030793 
L 170.158523 32.065108 
L 180.88142 23.515613 
L 181.666023 23.285017 
L 182.450625 23.252041 
L 183.235227 23.416836 
L 184.01983 23.778647 
L 184.804432 24.335814 
L 195.265795 32.905505 
L 207.819432 42.348655 
L 212.003977 45.289132 
L 216.188523 47.872042 
L 219.326932 49.545298 
L 221.942273 50.694383 
L 222.988409 50.95733 
L 224.034545 51.044973 
L 225.080682 50.95733 
L 226.126818 50.694383 
L 227.696023 50.039492 
L 230.834432 48.45886 
L 233.972841 46.62346 
L 237.11125 44.594458 
L 243.388068 40.030793 
L 253.849432 32.065108 
L 264.57233 23.515613 
L 265.356932 23.285017 
L 266.141534 23.252041 
L 266.926136 23.416836 
L 267.710739 23.778647 
L 268.495341 24.335814 
L 278.956705 32.905505 
L 291.510341 42.348655 
L 295.694886 45.289132 
L 299.879432 47.872042 
L 303.017841 49.545298 
L 305.633182 50.694383 
L 306.679318 50.95733 
L 307.725455 51.044973 
L 308.771591 50.95733 
L 309.817727 50.694383 
L 311.386932 50.039492 
L 314.525341 48.45886 
L 317.66375 46.62346 
L 320.802159 44.594458 
L 327.078977 40.030793 
L 337.540341 32.065108 
L 348.263239 23.515613 
L 349.047841 23.285017 
L 349.832443 23.252041 
L 350.617045 23.416836 
L 351.401648 23.778647 
L 352.18625 24.335814 
L 362.647614 32.905505 
L 375.20125 42.348655 
L 379.385795 45.289132 
L 383.570341 47.872042 
L 386.70875 49.545298 
L 389.324091 50.694383 
L 390.370227 50.95733 
L 391.416364 51.044973 
L 392.4625 50.95733 
L 393.508636 50.694383 
L 395.077841 50.039492 
L 398.21625 48.45886 
L 401.354659 46.62346 
L 404.493068 44.594458 
L 410.769886 40.030793 
L 421.23125 32.065108 
L 431.954148 23.515613 
L 432.73875 23.285017 
L 433.261818 23.241047 
L 433.261818 23.241047 
" style="fill:none;stroke:#000000;stroke-dasharray:5.55,2.4;stroke-dashoffset:0;stroke-width:1.5;"/>
   </g>
   <g id="line2d_18">
    <path clip-path="url(#p131381e4c9)" d="M 98.498182 111.75611 
L 99.282784 111.657199 
L 100.067386 111.36092 
L 100.851989 110.868632 
L 104.251932 108.05666 
L 111.574886 102.091652 
L 124.128523 92.648502 
L 128.313068 89.708025 
L 132.497614 87.125115 
L 135.636023 85.451858 
L 138.251364 84.302773 
L 139.2975 84.039827 
L 140.343636 83.952184 
L 141.389773 84.039827 
L 142.435909 84.302773 
L 144.005114 84.957665 
L 147.143523 86.538297 
L 150.281932 88.373697 
L 153.420341 90.402698 
L 159.697159 94.966363 
L 170.158523 102.932049 
L 180.88142 111.481544 
L 181.666023 111.71214 
L 182.450625 111.745116 
L 183.235227 111.580321 
L 184.01983 111.21851 
L 184.804432 110.661343 
L 195.265795 102.091652 
L 207.819432 92.648502 
L 212.003977 89.708025 
L 216.188523 87.125115 
L 219.326932 85.451858 
L 221.942273 84.302773 
L 222.988409 84.039827 
L 224.034545 83.952184 
L 225.080682 84.039827 
L 226.126818 84.302773 
L 227.696023 84.957665 
L 230.834432 86.538297 
L 233.972841 88.373697 
L 237.11125 90.402698 
L 243.388068 94.966363 
L 253.849432 102.932049 
L 264.57233 111.481544 
L 265.356932 111.71214 
L 266.141534 111.745116 
L 266.926136 111.580321 
L 267.710739 111.21851 
L 268.495341 110.661343 
L 278.956705 102.091652 
L 291.510341 92.648502 
L 295.694886 89.708025 
L 299.879432 87.125115 
L 303.017841 85.451858 
L 305.633182 84.302773 
L 306.679318 84.039827 
L 307.725455 83.952184 
L 308.771591 84.039827 
L 309.817727 84.302773 
L 311.386932 84.957665 
L 314.525341 86.538297 
L 317.66375 88.373697 
L 320.802159 90.402698 
L 327.078977 94.966363 
L 337.540341 102.932049 
L 348.263239 111.481544 
L 349.047841 111.71214 
L 349.832443 111.745116 
L 350.617045 111.580321 
L 351.401648 111.21851 
L 352.18625 110.661343 
L 362.647614 102.091652 
L 375.20125 92.648502 
L 379.385795 89.708025 
L 383.570341 87.125115 
L 386.70875 85.451858 
L 389.324091 84.302773 
L 390.370227 84.039827 
L 391.416364 83.952184 
L 392.4625 84.039827 
L 393.508636 84.302773 
L 395.077841 84.957665 
L 398.21625 86.538297 
L 401.354659 88.373697 
L 404.493068 90.402698 
L 410.769886 94.966363 
L 421.23125 102.932049 
L 431.954148 111.481544 
L 432.73875 111.71214 
L 433.261818 111.75611 
L 433.261818 111.75611 
" style="fill:none;stroke:#000000;stroke-dasharray:5.55,2.4;stroke-dashoffset:0;stroke-width:1.5;"/>
   </g>
   <g id="line2d_19">
    <path clip-path="url(#p131381e4c9)" d="M 98.498182 23.241047 
L 99.282784 23.340589 
L 100.067386 23.638768 
L 100.851989 24.134242 
L 104.251932 26.976261 
L 116.2825 36.928887 
L 124.128523 43.504634 
L 135.636023 53.225604 
L 139.2975 56.189007 
L 141.389773 57.485514 
L 142.958977 58.245181 
L 181.142955 74.548535 
L 183.235227 75.169027 
L 184.804432 75.474538 
L 222.988409 81.288393 
L 224.557614 81.893308 
L 226.126818 82.757717 
L 230.834432 86.016826 
L 263.787727 108.827884 
L 264.57233 109.156853 
L 265.356932 109.29843 
L 266.141534 109.251978 
L 266.926136 109.017707 
L 267.710739 108.596669 
L 268.495341 107.99076 
L 283.664318 94.634827 
L 293.079545 86.255125 
L 301.971705 78.319974 
L 307.202386 73.788844 
L 309.817727 71.890372 
L 327.078977 60.450874 
L 348.001705 46.758041 
L 349.309375 46.227775 
L 350.617045 45.963117 
L 351.924716 45.967371 
L 357.416932 46.771598 
L 389.847159 51.472981 
L 391.416364 51.367248 
L 392.985568 50.970714 
L 394.031705 50.541492 
L 431.169545 33.000218 
L 432.215682 32.779753 
L 433.261818 32.836853 
L 433.261818 32.836853 
" style="fill:none;stroke:#1f77b4;stroke-linecap:square;stroke-width:1.5;"/>
   </g>
   <g id="patch_3">
    <path d="M 81.76 116.181863 
L 81.76 18.815294 
" style="fill:none;stroke:#000000;stroke-linecap:square;stroke-linejoin:miter;stroke-width:0.8;"/>
   </g>
   <g id="patch_4">
    <path d="M 450 116.181863 
L 450 18.815294 
" style="fill:none;stroke:#000000;stroke-linecap:square;stroke-linejoin:miter;stroke-width:0.8;"/>
   </g>
   <g id="patch_5">
    <path d="M 81.76 116.181863 
L 450 116.181863 
" style="fill:none;stroke:#000000;stroke-linecap:square;stroke-linejoin:miter;stroke-width:0.8;"/>
   </g>
   <g id="patch_6">
    <path d="M 81.76 18.815294 
L 450 18.815294 
" style="fill:none;stroke:#000000;stroke-linecap:square;stroke-linejoin:miter;stroke-width:0.8;"/>
   </g>
   <g id="patch_7">
    <path d="M 98.498182 20.336647 
L 101.113523 20.336647 
L 101.113523 17.293941 
L 98.498182 17.293941 
z
" style="fill:#dc143c;"/>
   </g>
   <g id="patch_8">
    <path d="M 111.574886 20.336647 
L 127.266932 20.336647 
L 127.266932 17.293941 
L 111.574886 17.293941 
z
" style="fill:#ffd700;"/>
   </g>
   <g id="patch_9">
    <path d="M 137.728295 20.336647 
L 142.958977 20.336647 
L 142.958977 17.293941 
L 137.728295 17.293941 
z
" style="fill:#dc143c;"/>
   </g>
   <g id="patch_10">
    <path d="M 153.420341 20.336647 
L 169.112386 20.336647 
L 169.112386 17.293941 
L 153.420341 17.293941 
z
" style="fill:#ffd700;"/>
   </g>
   <g id="patch_11">
    <path d="M 179.57375 20.336647 
L 184.804432 20.336647 
L 184.804432 17.293941 
L 179.57375 17.293941 
z
" style="fill:#dc143c;"/>
   </g>
   <g id="patch_12">
    <path d="M 195.265795 20.336647 
L 210.957841 20.336647 
L 210.957841 17.293941 
L 195.265795 17.293941 
z
" style="fill:#ffd700;"/>
   </g>
   <g id="patch_13">
    <path d="M 221.419205 20.336647 
L 226.649886 20.336647 
L 226.649886 17.293941 
L 221.419205 17.293941 
z
" style="fill:#dc143c;"/>
   </g>
   <g id="patch_14">
    <path d="M 237.11125 20.336647 
L 252.803295 20.336647 
L 252.803295 17.293941 
L 237.11125 17.293941 
z
" style="fill:#ffd700;"/>
   </g>
   <g id="patch_15">
    <path d="M 263.264659 20.336647 
L 268.495341 20.336647 
L 268.495341 17.293941 
L 263.264659 17.293941 
z
" style="fill:#dc143c;"/>
   </g>
   <g id="patch_16">
    <path d="M 278.956705 20.336647 
L 294.64875 20.336647 
L 294.64875 17.293941 
L 278.956705 17.293941 
z
" style="fill:#ffd700;"/>
   </g>
   <g id="patch_17">
    <path d="M 305.110114 20.336647 
L 310.340795 20.336647 
L 310.340795 17.293941 
L 305.110114 17.293941 
z
" style="fill:#dc143c;"/>
   </g>
   <g id="patch_18">
    <path d="M 320.802159 20.336647 
L 336.494205 20.336647 
L 336.494205 17.293941 
L 320.802159 17.293941 
z
" style="fill:#ffd700;"/>
   </g>
   <g id="patch_19">
    <path d="M 346.955568 20.336647 
L 352.18625 20.336647 
L 352.18625 17.293941 
L 346.955568 17.293941 
z
" style="fill:#dc143c;"/>
   </g>
   <g id="patch_20">
    <path d="M 362.647614 20.336647 
L 378.339659 20.336647 
L 378.339659 17.293941 
L 362.647614 17.293941 
z
" style="fill:#ffd700;"/>
   </g>
   <g id="patch_21">
    <path d="M 388.801023 20.336647 
L 394.031705 20.336647 
L 394.031705 17.293941 
L 388.801023 17.293941 
z
" style="fill:#dc143c;"/>
   </g>
   <g id="patch_22">
    <path d="M 404.493068 20.336647 
L 420.185114 20.336647 
L 420.185114 17.293941 
L 404.493068 17.293941 
z
" style="fill:#ffd700;"/>
   </g>
   <g id="patch_23">
    <path d="M 430.646477 20.336647 
L 433.261818 20.336647 
L 433.261818 17.293941 
L 430.646477 17.293941 
z
" style="fill:#dc143c;"/>
   </g>
   <g id="text_11">
    <!-- q1 -->
    <g transform="translate(94.721477 16.390868)scale(0.08 -0.08)">
     <defs>
      <path d="M 14.796875 27.296875 
Q 14.796875 17.390625 18.875 11.75 
Q 22.953125 6.109375 30.078125 6.109375 
Q 37.203125 6.109375 41.296875 11.75 
Q 45.40625 17.390625 45.40625 27.296875 
Q 45.40625 37.203125 41.296875 42.84375 
Q 37.203125 48.484375 30.078125 48.484375 
Q 22.953125 48.484375 18.875 42.84375 
Q 14.796875 37.203125 14.796875 27.296875 
z
M 45.40625 8.203125 
Q 42.578125 3.328125 38.25 0.953125 
Q 33.9375 -1.421875 27.875 -1.421875 
Q 17.96875 -1.421875 11.734375 6.484375 
Q 5.515625 14.40625 5.515625 27.296875 
Q 5.515625 40.1875 11.734375 48.09375 
Q 17.96875 56 27.875 56 
Q 33.9375 56 38.25 53.625 
Q 42.578125 51.265625 45.40625 46.390625 
L 45.40625 54.6875 
L 54.390625 54.6875 
L 54.390625 -20.796875 
L 45.40625 -20.796875 
z
" id="DejaVuSans-113"/>
     </defs>
     <use xlink:href="#DejaVuSans-113"/>
     <use x="63.476562" xlink:href="#DejaVuSans-49"/>
    </g>
   </g>
   <g id="text_12">
    <!-- b1 -->
    <g transform="translate(114.336534 28.697426)scale(0.08 -0.08)">
     <use xlink:href="#DejaVuSans-98"/>
     <use x="63.476562" xlink:href="#DejaVuSans-49"/>
    </g>
   </g>
   <g id="text_13">
    <!-- q2 -->
    <g transform="translate(135.259261 16.390868)scale(0.08 -0.08)">
     <use xlink:href="#DejaVuSans-113"/>
     <use x="63.476562" xlink:href="#DejaVuSans-50"/>
    </g>
   </g>
   <g id="text_14">
    <!-- b1 -->
    <g transform="translate(156.181989 28.697426)scale(0.08 -0.08)">
     <use xlink:href="#DejaVuSans-98"/>
     <use x="63.476562" xlink:href="#DejaVuSans-49"/>
    </g>
   </g>
   <g id="text_15">
    <!-- q1 -->
    <g transform="translate(177.104716 16.390868)scale(0.08 -0.08)">
     <use xlink:href="#DejaVuSans-113"/>
     <use x="63.476562" xlink:href="#DejaVuSans-49"/>
    </g>
   </g>
   <g id="text_16">
    <!-- b1 -->
    <g transform="translate(198.027443 28.697426)scale(0.08 -0.08)">
     <use xlink:href="#DejaVuSans-98"/>
     <use x="63.476562" xlink:href="#DejaVuSans-49"/>
    </g>
   </g>
   <g id="text_17">
    <!-- q2 -->
    <g transform="translate(218.95017 16.390868)scale(0.08 -0.08)">
     <use xlink:href="#DejaVuSans-113"/>
     <use x="63.476562" xlink:href="#DejaVuSans-50"/>
    </g>
   </g>
   <g id="text_18">
    <!-- b1 -->
    <g transform="translate(239.872898 28.697426)scale(0.08 -0.08)">
     <use xlink:href="#DejaVuSans-98"/>
     <use x="63.476562" xlink:href="#DejaVuSans-49"/>
    </g>
   </g>
   <g id="text_19">
    <!-- q1 -->
    <g transform="translate(260.795625 16.390868)scale(0.08 -0.08)">
     <use xlink:href="#DejaVuSans-113"/>
     <use x="63.476562" xlink:href="#DejaVuSans-49"/>
    </g>
   </g>
   <g id="text_20">
    <!-- b1 -->
    <g transform="translate(281.718352 28.697426)scale(0.08 -0.08)">
     <use xlink:href="#DejaVuSans-98"/>
     <use x="63.476562" xlink:href="#DejaVuSans-49"/>
    </g>
   </g>
   <g id="text_21">
    <!-- q2 -->
    <g transform="translate(302.64108 16.390868)scale(0.08 -0.08)">
     <use xlink:href="#DejaVuSans-113"/>
     <use x="63.476562" xlink:href="#DejaVuSans-50"/>
    </g>
   </g>
   <g id="text_22">
    <!-- b1 -->
    <g transform="translate(323.563807 28.697426)scale(0.08 -0.08)">
     <use xlink:href="#DejaVuSans-98"/>
     <use x="63.476562" xlink:href="#DejaVuSans-49"/>
    </g>
   </g>
   <g id="text_23">
    <!-- q1 -->
    <g transform="translate(344.486534 16.390868)scale(0.08 -0.08)">
     <use xlink:href="#DejaVuSans-113"/>
     <use x="63.476562" xlink:href="#DejaVuSans-49"/>
    </g>
   </g>
   <g id="text_24">
    <!-- b1 -->
    <g transform="translate(365.409261 28.697426)scale(0.08 -0.08)">
     <use xlink:href="#DejaVuSans-98"/>
     <use x="63.476562" xlink:href="#DejaVuSans-49"/>
    </g>
   </g>
   <g id="text_25">
    <!-- q2 -->
    <g transform="translate(386.331989 16.390868)scale(0.08 -0.08)">
     <use xlink:href="#DejaVuSans-113"/>
     <use x="63.476562" xlink:href="#DejaVuSans-50"/>
    </g>
   </g>
   <g id="text_26">
    <!-- b1 -->
    <g transform="translate(407.254716 28.697426)scale(0.08 -0.08)">
     <use xlink:href="#DejaVuSans-98"/>
     <use x="63.476562" xlink:href="#DejaVuSans-49"/>
    </g>
   </g>
   <g id="text_27">
    <!-- q1 -->
    <g transform="translate(426.869773 16.390868)scale(0.08 -0.08)">
     <use xlink:href="#DejaVuSans-113"/>
     <use x="63.476562" xlink:href="#DejaVuSans-49"/>
    </g>
   </g>
   <g id="text_28">
    <g clip-path="url(#p131381e4c9)">
     <!-- fodo-cell -->
     <g style="opacity:0.5;" transform="translate(123.174886 31.672263)scale(0.08 -0.08)">
      <defs>
       <path d="M 47.796875 75.984375 
L 46.390625 68.5 
L 37.796875 68.5 
Q 32.90625 68.5 30.6875 66.578125 
Q 28.46875 64.65625 27.390625 59.515625 
L 26.421875 54.6875 
L 41.21875 54.6875 
L 39.890625 47.703125 
L 25.09375 47.703125 
L 15.828125 0 
L 6.78125 0 
L 16.109375 47.703125 
L 7.515625 47.703125 
L 8.796875 54.6875 
L 17.390625 54.6875 
L 18.109375 58.5 
Q 19.96875 68.171875 24.625 72.078125 
Q 29.296875 75.984375 39.3125 75.984375 
z
" id="DejaVuSans-Oblique-102"/>
       <path d="M 25.390625 -1.421875 
Q 15.765625 -1.421875 10.171875 4.515625 
Q 4.59375 10.453125 4.59375 20.703125 
Q 4.59375 26.65625 6.515625 32.828125 
Q 8.453125 39.015625 11.53125 43.21875 
Q 16.359375 49.75 22.3125 52.875 
Q 28.265625 56 35.796875 56 
Q 45.125 56 50.859375 50.1875 
Q 56.59375 44.390625 56.59375 35.015625 
Q 56.59375 28.515625 54.6875 22.0625 
Q 52.78125 15.625 49.703125 11.375 
Q 44.921875 4.828125 38.96875 1.703125 
Q 33.015625 -1.421875 25.390625 -1.421875 
z
M 13.921875 21 
Q 13.921875 13.578125 17.015625 9.890625 
Q 20.125 6.203125 26.421875 6.203125 
Q 35.453125 6.203125 41.375 14.078125 
Q 47.3125 21.96875 47.3125 34.078125 
Q 47.3125 41.15625 44.140625 44.765625 
Q 40.96875 48.390625 34.8125 48.390625 
Q 29.734375 48.390625 25.78125 46.015625 
Q 21.828125 43.65625 18.703125 38.8125 
Q 16.40625 35.203125 15.15625 30.5625 
Q 13.921875 25.921875 13.921875 21 
z
" id="DejaVuSans-Oblique-111"/>
       <path d="M 41.796875 8.203125 
Q 38.1875 3.46875 33.25 1.015625 
Q 28.328125 -1.421875 22.3125 -1.421875 
Q 14.109375 -1.421875 9.34375 4.171875 
Q 4.59375 9.765625 4.59375 19.484375 
Q 4.59375 27.59375 7.46875 34.9375 
Q 10.359375 42.28125 15.828125 48.09375 
Q 19.4375 51.953125 23.96875 53.96875 
Q 28.515625 56 33.5 56 
Q 38.765625 56 42.796875 53.453125 
Q 46.828125 50.921875 49.03125 46.1875 
L 54.890625 75.984375 
L 63.921875 75.984375 
L 49.125 0 
L 40.09375 0 
z
M 13.921875 21.09375 
Q 13.921875 14.015625 17.109375 10.0625 
Q 20.3125 6.109375 25.984375 6.109375 
Q 30.171875 6.109375 33.765625 8.125 
Q 37.359375 10.15625 40.09375 14.109375 
Q 42.96875 18.21875 44.625 23.578125 
Q 46.296875 28.953125 46.296875 34.1875 
Q 46.296875 40.96875 43.09375 44.765625 
Q 39.890625 48.578125 34.28125 48.578125 
Q 30.03125 48.578125 26.359375 46.578125 
Q 22.703125 44.578125 20.125 40.828125 
Q 17.28125 36.765625 15.59375 31.390625 
Q 13.921875 26.03125 13.921875 21.09375 
z
" id="DejaVuSans-Oblique-100"/>
       <path d="M 6.109375 31.390625 
L 32.421875 31.390625 
L 30.90625 23.390625 
L 4.5 23.390625 
z
" id="DejaVuSans-Oblique-45"/>
       <path d="M 53.609375 52.59375 
L 51.8125 43.703125 
Q 48.578125 46.046875 44.9375 47.21875 
Q 41.3125 48.390625 37.40625 48.390625 
Q 33.109375 48.390625 29.21875 46.875 
Q 25.34375 45.359375 22.703125 42.578125 
Q 18.5 38.328125 16.203125 32.609375 
Q 13.921875 26.90625 13.921875 20.796875 
Q 13.921875 13.421875 17.609375 9.8125 
Q 21.296875 6.203125 28.8125 6.203125 
Q 32.515625 6.203125 36.6875 7.328125 
Q 40.875 8.453125 45.40625 10.6875 
L 43.703125 1.8125 
Q 39.796875 0.203125 35.671875 -0.609375 
Q 31.546875 -1.421875 27.203125 -1.421875 
Q 16.3125 -1.421875 10.453125 4.015625 
Q 4.59375 9.46875 4.59375 19.578125 
Q 4.59375 28.078125 7.640625 35.234375 
Q 10.6875 42.390625 16.703125 48.09375 
Q 20.796875 52 26.3125 54 
Q 31.84375 56 38.375 56 
Q 42.1875 56 45.9375 55.140625 
Q 49.703125 54.296875 53.609375 52.59375 
z
" id="DejaVuSans-Oblique-99"/>
       <path d="M 48.09375 32.234375 
Q 48.25 33.015625 48.3125 33.84375 
Q 48.390625 34.671875 48.390625 35.5 
Q 48.390625 41.453125 44.890625 44.921875 
Q 41.40625 48.390625 35.40625 48.390625 
Q 28.71875 48.390625 23.578125 44.15625 
Q 18.453125 39.9375 15.828125 32.171875 
z
M 55.90625 25.203125 
L 14.109375 25.203125 
Q 13.8125 23.34375 13.71875 22.265625 
Q 13.625 21.1875 13.625 20.40625 
Q 13.625 13.625 17.796875 9.90625 
Q 21.96875 6.203125 29.59375 6.203125 
Q 35.453125 6.203125 40.671875 7.515625 
Q 45.90625 8.84375 50.390625 11.375 
L 48.6875 2.484375 
Q 43.84375 0.53125 38.6875 -0.4375 
Q 33.546875 -1.421875 28.21875 -1.421875 
Q 16.84375 -1.421875 10.71875 4.015625 
Q 4.59375 9.46875 4.59375 19.484375 
Q 4.59375 28.03125 7.640625 35.375 
Q 10.6875 42.71875 16.609375 48.484375 
Q 20.40625 52.09375 25.65625 54.046875 
Q 30.90625 56 36.8125 56 
Q 46.09375 56 51.578125 50.4375 
Q 57.078125 44.875 57.078125 35.5 
Q 57.078125 33.25 56.78125 30.6875 
Q 56.5 28.125 55.90625 25.203125 
z
" id="DejaVuSans-Oblique-101"/>
       <path d="M 18.3125 75.984375 
L 27.296875 75.984375 
L 12.5 0 
L 3.515625 0 
z
" id="DejaVuSans-Oblique-108"/>
      </defs>
      <use xlink:href="#DejaVuSans-Oblique-102"/>
      <use x="35.205078" xlink:href="#DejaVuSans-Oblique-111"/>
      <use x="96.386719" xlink:href="#DejaVuSans-Oblique-100"/>
      <use x="159.863281" xlink:href="#DejaVuSans-Oblique-111"/>
      <use x="221.044922" xlink:href="#DejaVuSans-Oblique-45"/>
      <use x="257.128906" xlink:href="#DejaVuSans-Oblique-99"/>
      <use x="312.109375" xlink:href="#DejaVuSans-Oblique-101"/>
      <use x="373.632812" xlink:href="#DejaVuSans-Oblique-108"/>
      <use x="401.416016" xlink:href="#DejaVuSans-Oblique-108"/>
     </g>
    </g>
   </g>
   <g id="text_29">
    <g clip-path="url(#p131381e4c9)">
     <!-- fodo-cell -->
     <g style="opacity:0.5;" transform="translate(206.865795 31.672263)scale(0.08 -0.08)">
      <use xlink:href="#DejaVuSans-Oblique-102"/>
      <use x="35.205078" xlink:href="#DejaVuSans-Oblique-111"/>
      <use x="96.386719" xlink:href="#DejaVuSans-Oblique-100"/>
      <use x="159.863281" xlink:href="#DejaVuSans-Oblique-111"/>
      <use x="221.044922" xlink:href="#DejaVuSans-Oblique-45"/>
      <use x="257.128906" xlink:href="#DejaVuSans-Oblique-99"/>
      <use x="312.109375" xlink:href="#DejaVuSans-Oblique-101"/>
      <use x="373.632812" xlink:href="#DejaVuSans-Oblique-108"/>
      <use x="401.416016" xlink:href="#DejaVuSans-Oblique-108"/>
     </g>
    </g>
   </g>
   <g id="text_30">
    <g clip-path="url(#p131381e4c9)">
     <!-- fodo-cell -->
     <g style="opacity:0.5;" transform="translate(290.556705 31.672263)scale(0.08 -0.08)">
      <use xlink:href="#DejaVuSans-Oblique-102"/>
      <use x="35.205078" xlink:href="#DejaVuSans-Oblique-111"/>
      <use x="96.386719" xlink:href="#DejaVuSans-Oblique-100"/>
      <use x="159.863281" xlink:href="#DejaVuSans-Oblique-111"/>
      <use x="221.044922" xlink:href="#DejaVuSans-Oblique-45"/>
      <use x="257.128906" xlink:href="#DejaVuSans-Oblique-99"/>
      <use x="312.109375" xlink:href="#DejaVuSans-Oblique-101"/>
      <use x="373.632812" xlink:href="#DejaVuSans-Oblique-108"/>
      <use x="401.416016" xlink:href="#DejaVuSans-Oblique-108"/>
     </g>
    </g>
   </g>
   <g id="text_31">
    <g clip-path="url(#p131381e4c9)">
     <!-- fodo-cell -->
     <g style="opacity:0.5;" transform="translate(374.247614 31.672263)scale(0.08 -0.08)">
      <use xlink:href="#DejaVuSans-Oblique-102"/>
      <use x="35.205078" xlink:href="#DejaVuSans-Oblique-111"/>
      <use x="96.386719" xlink:href="#DejaVuSans-Oblique-100"/>
      <use x="159.863281" xlink:href="#DejaVuSans-Oblique-111"/>
      <use x="221.044922" xlink:href="#DejaVuSans-Oblique-45"/>
      <use x="257.128906" xlink:href="#DejaVuSans-Oblique-99"/>
      <use x="312.109375" xlink:href="#DejaVuSans-Oblique-101"/>
      <use x="373.632812" xlink:href="#DejaVuSans-Oblique-108"/>
      <use x="401.416016" xlink:href="#DejaVuSans-Oblique-108"/>
     </g>
    </g>
   </g>
  </g>
  <g id="axes_2">
   <g id="patch_24">
    <path d="M 81.76 262.348431 
L 450 262.348431 
L 450 164.981863 
L 81.76 164.981863 
z
" style="fill:#ffffff;"/>
   </g>
   <g id="matplotlib.axis_3">
    <g id="xtick_6">
     <g id="line2d_20">
      <path clip-path="url(#pc905356a80)" d="M 98.498182 262.348431 
L 98.498182 164.981863 
" style="fill:none;stroke:#b0b0b0;stroke-dasharray:2.96,1.28;stroke-dashoffset:0;stroke-width:0.8;"/>
     </g>
     <g id="line2d_21">
      <g>
       <use style="stroke:#000000;stroke-width:0.8;" x="98.498182" xlink:href="#mb235de3efa" y="262.348431"/>
      </g>
     </g>
     <g id="text_32">
      <!-- 0 -->
      <g transform="translate(95.316932 276.946869)scale(0.1 -0.1)">
       <use xlink:href="#DejaVuSans-48"/>
      </g>
     </g>
    </g>
    <g id="xtick_7">
     <g id="line2d_22">
      <path clip-path="url(#pc905356a80)" d="M 182.189091 262.348431 
L 182.189091 164.981863 
" style="fill:none;stroke:#b0b0b0;stroke-dasharray:2.96,1.28;stroke-dashoffset:0;stroke-width:0.8;"/>
     </g>
     <g id="line2d_23">
      <g>
       <use style="stroke:#000000;stroke-width:0.8;" x="182.189091" xlink:href="#mb235de3efa" y="262.348431"/>
      </g>
     </g>
     <g id="text_33">
      <!-- 8 -->
      <g transform="translate(179.007841 276.946869)scale(0.1 -0.1)">
       <use xlink:href="#DejaVuSans-56"/>
      </g>
     </g>
    </g>
    <g id="xtick_8">
     <g id="line2d_24">
      <path clip-path="url(#pc905356a80)" d="M 265.88 262.348431 
L 265.88 164.981863 
" style="fill:none;stroke:#b0b0b0;stroke-dasharray:2.96,1.28;stroke-dashoffset:0;stroke-width:0.8;"/>
     </g>
     <g id="line2d_25">
      <g>
       <use style="stroke:#000000;stroke-width:0.8;" x="265.88" xlink:href="#mb235de3efa" y="262.348431"/>
      </g>
     </g>
     <g id="text_34">
      <!-- 16 -->
      <g transform="translate(259.5175 276.946869)scale(0.1 -0.1)">
       <use xlink:href="#DejaVuSans-49"/>
       <use x="63.623047" xlink:href="#DejaVuSans-54"/>
      </g>
     </g>
    </g>
    <g id="xtick_9">
     <g id="line2d_26">
      <path clip-path="url(#pc905356a80)" d="M 349.570909 262.348431 
L 349.570909 164.981863 
" style="fill:none;stroke:#b0b0b0;stroke-dasharray:2.96,1.28;stroke-dashoffset:0;stroke-width:0.8;"/>
     </g>
     <g id="line2d_27">
      <g>
       <use style="stroke:#000000;stroke-width:0.8;" x="349.570909" xlink:href="#mb235de3efa" y="262.348431"/>
      </g>
     </g>
     <g id="text_35">
      <!-- 24 -->
      <g transform="translate(343.208409 276.946869)scale(0.1 -0.1)">
       <use xlink:href="#DejaVuSans-50"/>
       <use x="63.623047" xlink:href="#DejaVuSans-52"/>
      </g>
     </g>
    </g>
    <g id="xtick_10">
     <g id="line2d_28">
      <path clip-path="url(#pc905356a80)" d="M 433.261818 262.348431 
L 433.261818 164.981863 
" style="fill:none;stroke:#b0b0b0;stroke-dasharray:2.96,1.28;stroke-dashoffset:0;stroke-width:0.8;"/>
     </g>
     <g id="line2d_29">
      <g>
       <use style="stroke:#000000;stroke-width:0.8;" x="433.261818" xlink:href="#mb235de3efa" y="262.348431"/>
      </g>
     </g>
     <g id="text_36">
      <!-- 32 -->
      <g transform="translate(426.899318 276.946869)scale(0.1 -0.1)">
       <use xlink:href="#DejaVuSans-51"/>
       <use x="63.623047" xlink:href="#DejaVuSans-50"/>
      </g>
     </g>
    </g>
    <g id="text_37">
     <!-- Orbit position $s$ / m -->
     <g transform="translate(218.03 290.626556)scale(0.1 -0.1)">
      <use transform="translate(0 0.015625)" xlink:href="#DejaVuSans-79"/>
      <use transform="translate(78.710938 0.015625)" xlink:href="#DejaVuSans-114"/>
      <use transform="translate(119.824219 0.015625)" xlink:href="#DejaVuSans-98"/>
      <use transform="translate(183.300781 0.015625)" xlink:href="#DejaVuSans-105"/>
      <use transform="translate(211.083984 0.015625)" xlink:href="#DejaVuSans-116"/>
      <use transform="translate(250.292969 0.015625)" xlink:href="#DejaVuSans-32"/>
      <use transform="translate(282.080078 0.015625)" xlink:href="#DejaVuSans-112"/>
      <use transform="translate(345.556641 0.015625)" xlink:href="#DejaVuSans-111"/>
      <use transform="translate(406.738281 0.015625)" xlink:href="#DejaVuSans-115"/>
      <use transform="translate(458.837891 0.015625)" xlink:href="#DejaVuSans-105"/>
      <use transform="translate(486.621094 0.015625)" xlink:href="#DejaVuSans-116"/>
      <use transform="translate(525.830078 0.015625)" xlink:href="#DejaVuSans-105"/>
      <use transform="translate(553.613281 0.015625)" xlink:href="#DejaVuSans-111"/>
      <use transform="translate(614.794922 0.015625)" xlink:href="#DejaVuSans-110"/>
      <use transform="translate(678.173828 0.015625)" xlink:href="#DejaVuSans-32"/>
      <use transform="translate(709.960938 0.015625)" xlink:href="#DejaVuSans-Oblique-115"/>
      <use transform="translate(762.060547 0.015625)" xlink:href="#DejaVuSans-32"/>
      <use transform="translate(793.847656 0.015625)" xlink:href="#DejaVuSans-47"/>
      <use transform="translate(827.539062 0.015625)" xlink:href="#DejaVuSans-32"/>
      <use transform="translate(859.326172 0.015625)" xlink:href="#DejaVuSans-109"/>
     </g>
    </g>
   </g>
   <g id="matplotlib.axis_4">
    <g id="ytick_4">
     <g id="line2d_30">
      <path clip-path="url(#pc905356a80)" d="M 81.76 262.348431 
L 450 262.348431 
" style="fill:none;stroke:#b0b0b0;stroke-dasharray:2.96,1.28;stroke-dashoffset:0;stroke-width:0.8;"/>
     </g>
     <g id="line2d_31">
      <g>
       <use style="stroke:#000000;stroke-width:0.8;" x="81.76" xlink:href="#m849a602a30" y="262.348431"/>
      </g>
     </g>
     <g id="text_38">
      <!-- −0.0004 -->
      <g transform="translate(31.389688 266.14765)scale(0.1 -0.1)">
       <use xlink:href="#DejaVuSans-8722"/>
       <use x="83.789062" xlink:href="#DejaVuSans-48"/>
       <use x="147.412109" xlink:href="#DejaVuSans-46"/>
       <use x="179.199219" xlink:href="#DejaVuSans-48"/>
       <use x="242.822266" xlink:href="#DejaVuSans-48"/>
       <use x="306.445312" xlink:href="#DejaVuSans-48"/>
       <use x="370.068359" xlink:href="#DejaVuSans-52"/>
      </g>
     </g>
    </g>
    <g id="ytick_5">
     <g id="line2d_32">
      <path clip-path="url(#pc905356a80)" d="M 81.76 238.006789 
L 450 238.006789 
" style="fill:none;stroke:#b0b0b0;stroke-dasharray:2.96,1.28;stroke-dashoffset:0;stroke-width:0.8;"/>
     </g>
     <g id="line2d_33">
      <g>
       <use style="stroke:#000000;stroke-width:0.8;" x="81.76" xlink:href="#m849a602a30" y="238.006789"/>
      </g>
     </g>
     <g id="text_39">
      <!-- −0.0002 -->
      <g transform="translate(31.389688 241.806008)scale(0.1 -0.1)">
       <use xlink:href="#DejaVuSans-8722"/>
       <use x="83.789062" xlink:href="#DejaVuSans-48"/>
       <use x="147.412109" xlink:href="#DejaVuSans-46"/>
       <use x="179.199219" xlink:href="#DejaVuSans-48"/>
       <use x="242.822266" xlink:href="#DejaVuSans-48"/>
       <use x="306.445312" xlink:href="#DejaVuSans-48"/>
       <use x="370.068359" xlink:href="#DejaVuSans-50"/>
      </g>
     </g>
    </g>
    <g id="ytick_6">
     <g id="line2d_34">
      <path clip-path="url(#pc905356a80)" d="M 81.76 213.665147 
L 450 213.665147 
" style="fill:none;stroke:#b0b0b0;stroke-dasharray:2.96,1.28;stroke-dashoffset:0;stroke-width:0.8;"/>
     </g>
     <g id="line2d_35">
      <g>
       <use style="stroke:#000000;stroke-width:0.8;" x="81.76" xlink:href="#m849a602a30" y="213.665147"/>
      </g>
     </g>
     <g id="text_40">
      <!-- 0.0000 -->
      <g transform="translate(39.769375 217.464366)scale(0.1 -0.1)">
       <use xlink:href="#DejaVuSans-48"/>
       <use x="63.623047" xlink:href="#DejaVuSans-46"/>
       <use x="95.410156" xlink:href="#DejaVuSans-48"/>
       <use x="159.033203" xlink:href="#DejaVuSans-48"/>
       <use x="222.65625" xlink:href="#DejaVuSans-48"/>
       <use x="286.279297" xlink:href="#DejaVuSans-48"/>
      </g>
     </g>
    </g>
    <g id="ytick_7">
     <g id="line2d_36">
      <path clip-path="url(#pc905356a80)" d="M 81.76 189.323505 
L 450 189.323505 
" style="fill:none;stroke:#b0b0b0;stroke-dasharray:2.96,1.28;stroke-dashoffset:0;stroke-width:0.8;"/>
     </g>
     <g id="line2d_37">
      <g>
       <use style="stroke:#000000;stroke-width:0.8;" x="81.76" xlink:href="#m849a602a30" y="189.323505"/>
      </g>
     </g>
     <g id="text_41">
      <!-- 0.0002 -->
      <g transform="translate(39.769375 193.122724)scale(0.1 -0.1)">
       <use xlink:href="#DejaVuSans-48"/>
       <use x="63.623047" xlink:href="#DejaVuSans-46"/>
       <use x="95.410156" xlink:href="#DejaVuSans-48"/>
       <use x="159.033203" xlink:href="#DejaVuSans-48"/>
       <use x="222.65625" xlink:href="#DejaVuSans-48"/>
       <use x="286.279297" xlink:href="#DejaVuSans-50"/>
      </g>
     </g>
    </g>
    <g id="ytick_8">
     <g id="line2d_38">
      <path clip-path="url(#pc905356a80)" d="M 81.76 164.981863 
L 450 164.981863 
" style="fill:none;stroke:#b0b0b0;stroke-dasharray:2.96,1.28;stroke-dashoffset:0;stroke-width:0.8;"/>
     </g>
     <g id="line2d_39">
      <g>
       <use style="stroke:#000000;stroke-width:0.8;" x="81.76" xlink:href="#m849a602a30" y="164.981863"/>
      </g>
     </g>
     <g id="text_42">
      <!-- 0.0004 -->
      <g transform="translate(39.769375 168.781081)scale(0.1 -0.1)">
       <use xlink:href="#DejaVuSans-48"/>
       <use x="63.623047" xlink:href="#DejaVuSans-46"/>
       <use x="95.410156" xlink:href="#DejaVuSans-48"/>
       <use x="159.033203" xlink:href="#DejaVuSans-48"/>
       <use x="222.65625" xlink:href="#DejaVuSans-48"/>
       <use x="286.279297" xlink:href="#DejaVuSans-52"/>
      </g>
     </g>
    </g>
    <g id="text_43">
     <!-- $x(s) / \sqrt{\beta(s)}$ -->
     <g transform="translate(25.289687 239.465147)rotate(-90)scale(0.1 -0.1)">
      <defs>
       <path d="M 108.90625 155.203125 
L 52.703125 -29.5 
L 48.5 -29.5 
L 25.40625 45.59375 
Q 24.296875 49.203125 22.890625 50.796875 
Q 21.5 52.40625 19.203125 52.40625 
Q 15.796875 52.40625 12.40625 49.703125 
L 11.203125 51.703125 
L 27.59375 64.296875 
L 30.09375 64.296875 
L 52.796875 -9.40625 
L 53.203125 -9.40625 
L 103.203125 155.203125 
z
" id="STIXSizeOneSym-Regular-8730"/>
       <path d="M 13.625 3.375 
L 8.9375 -20.796875 
L -0.09375 -20.796875 
L 14.5 54.34375 
Q 18.84375 76.609375 39.65625 76.609375 
Q 60.75 76.609375 57.171875 57.8125 
Q 54.734375 44.4375 45.21875 39.546875 
Q 58.015625 35.15625 55.515625 22.125 
Q 51.125 -1.078125 27.484375 -1.03125 
Q 17.140625 -0.984375 13.625 3.375 
z
M 15.921875 15.09375 
Q 19.671875 6.59375 29.296875 6.640625 
Q 43.359375 6.640625 46.34375 21.96875 
Q 49.03125 35.75 26.171875 34.671875 
L 27.78125 42.96875 
Q 45.453125 42.671875 48.53125 58.59375 
Q 50.640625 69.34375 39.203125 69.28125 
Q 26.421875 69.28125 23.484375 54.046875 
z
" id="DejaVuSans-Oblique-946"/>
      </defs>
      <use transform="translate(0 0.171875)" xlink:href="#DejaVuSans-Oblique-120"/>
      <use transform="translate(59.179688 0.171875)" xlink:href="#DejaVuSans-40"/>
      <use transform="translate(98.193359 0.171875)" xlink:href="#DejaVuSans-Oblique-115"/>
      <use transform="translate(150.292969 0.171875)" xlink:href="#DejaVuSans-41"/>
      <use transform="translate(189.306641 0.171875)" xlink:href="#DejaVuSans-47"/>
      <use transform="translate(222.998047 -0.078125)scale(0.696557)" xlink:href="#STIXSizeOneSym-Regular-8730"/>
      <use transform="translate(309.1082 0.140625)" xlink:href="#DejaVuSans-Oblique-946"/>
      <use transform="translate(372.926559 0.140625)" xlink:href="#DejaVuSans-40"/>
      <use transform="translate(411.940231 0.140625)" xlink:href="#DejaVuSans-Oblique-115"/>
      <use transform="translate(464.039841 0.140625)" xlink:href="#DejaVuSans-41"/>
      <path d="M 296.6082 101.5 
L 296.6082 107.75 
L 515.553513 107.75 
L 515.553513 101.5 
L 296.6082 101.5 
z
"/>
     </g>
    </g>
   </g>
   <g id="line2d_40">
    <path clip-path="url(#pc905356a80)" d="M 81.76 181.190932 
L 450 181.190932 
" style="fill:none;stroke:#000000;stroke-dasharray:5.55,2.4;stroke-dashoffset:0;stroke-width:1.5;"/>
   </g>
   <g id="line2d_41">
    <path clip-path="url(#pc905356a80)" d="M 81.76 246.139362 
L 450 246.139362 
" style="fill:none;stroke:#000000;stroke-dasharray:5.55,2.4;stroke-dashoffset:0;stroke-width:1.5;"/>
   </g>
   <g id="line2d_42">
    <path clip-path="url(#pc905356a80)" d="M 98.498182 181.190932 
L 108.436477 181.292342 
L 114.713295 181.551582 
L 119.420909 181.953937 
L 122.559318 182.391327 
L 125.697727 183.039161 
L 128.313068 183.811045 
L 130.405341 184.633848 
L 132.497614 185.691768 
L 134.589886 187.042837 
L 136.682159 188.749868 
L 138.774432 190.868905 
L 140.866705 193.352137 
L 146.097386 199.774941 
L 149.235795 203.145136 
L 152.374205 206.050153 
L 154.989545 208.131171 
L 158.127955 210.26205 
L 161.266364 212.060124 
L 164.404773 213.588718 
L 167.543182 214.899727 
L 171.204659 216.207031 
L 175.389205 217.459099 
L 180.619886 218.74313 
L 188.988977 220.701812 
L 193.173523 221.924483 
L 196.835 223.183968 
L 199.973409 224.429577 
L 203.111818 225.8599 
L 206.250227 227.511911 
L 209.388636 229.42645 
L 213.050114 232.038314 
L 216.188523 234.598734 
L 220.373068 238.360848 
L 224.034545 241.622164 
L 226.126818 243.153532 
L 227.696023 244.048881 
L 229.788295 244.925991 
L 231.880568 245.509617 
L 233.972841 245.868982 
L 237.11125 246.11137 
L 240.249659 246.123612 
L 244.957273 245.912343 
L 255.941705 245.077222 
L 274.772159 243.51644 
L 278.956705 242.946705 
L 283.664318 242.075927 
L 286.802727 241.304007 
L 289.941136 240.31494 
L 293.079545 239.02776 
L 295.694886 237.647013 
L 297.787159 236.286405 
L 299.879432 234.647905 
L 301.971705 232.680061 
L 304.063977 230.333475 
L 306.15625 227.575279 
L 309.817727 222.152316 
L 312.433068 218.470075 
L 314.525341 215.833643 
L 316.617614 213.482871 
L 318.709886 211.405044 
L 320.802159 209.576694 
L 323.940568 207.248429 
L 327.078977 205.332889 
L 330.217386 203.74154 
L 333.355795 202.40489 
L 337.540341 200.928817 
L 341.724886 199.728423 
L 345.909432 198.740331 
L 359.509205 195.805498 
L 364.216818 194.454443 
L 368.924432 192.844427 
L 373.632045 190.918877 
L 376.770455 189.434182 
L 381.478068 186.915911 
L 388.801023 182.883139 
L 390.893295 182.002102 
L 392.4625 181.54079 
L 394.031705 181.275651 
L 396.123977 181.196949 
L 398.21625 181.356202 
L 401.354659 181.880077 
L 406.062273 182.964529 
L 415.4775 185.180645 
L 422.277386 186.530643 
L 428.554205 187.566037 
L 433.261818 188.231909 
L 433.261818 188.231909 
" style="fill:none;stroke:#1f77b4;stroke-linecap:square;stroke-width:1.5;"/>
   </g>
   <g id="patch_25">
    <path d="M 81.76 262.348431 
L 81.76 164.981863 
" style="fill:none;stroke:#000000;stroke-linecap:square;stroke-linejoin:miter;stroke-width:0.8;"/>
   </g>
   <g id="patch_26">
    <path d="M 450 262.348431 
L 450 164.981863 
" style="fill:none;stroke:#000000;stroke-linecap:square;stroke-linejoin:miter;stroke-width:0.8;"/>
   </g>
   <g id="patch_27">
    <path d="M 81.76 262.348431 
L 450 262.348431 
" style="fill:none;stroke:#000000;stroke-linecap:square;stroke-linejoin:miter;stroke-width:0.8;"/>
   </g>
   <g id="patch_28">
    <path d="M 81.76 164.981863 
L 450 164.981863 
" style="fill:none;stroke:#000000;stroke-linecap:square;stroke-linejoin:miter;stroke-width:0.8;"/>
   </g>
   <g id="patch_29">
    <path d="M 98.498182 263.869784 
L 101.113523 263.869784 
L 101.113523 260.827079 
L 98.498182 260.827079 
z
" style="fill:#dc143c;"/>
   </g>
   <g id="patch_30">
    <path d="M 111.574886 263.869784 
L 127.266932 263.869784 
L 127.266932 260.827079 
L 111.574886 260.827079 
z
" style="fill:#ffd700;"/>
   </g>
   <g id="patch_31">
    <path d="M 137.728295 263.869784 
L 142.958977 263.869784 
L 142.958977 260.827079 
L 137.728295 260.827079 
z
" style="fill:#dc143c;"/>
   </g>
   <g id="patch_32">
    <path d="M 153.420341 263.869784 
L 169.112386 263.869784 
L 169.112386 260.827079 
L 153.420341 260.827079 
z
" style="fill:#ffd700;"/>
   </g>
   <g id="patch_33">
    <path d="M 179.57375 263.869784 
L 184.804432 263.869784 
L 184.804432 260.827079 
L 179.57375 260.827079 
z
" style="fill:#dc143c;"/>
   </g>
   <g id="patch_34">
    <path d="M 195.265795 263.869784 
L 210.957841 263.869784 
L 210.957841 260.827079 
L 195.265795 260.827079 
z
" style="fill:#ffd700;"/>
   </g>
   <g id="patch_35">
    <path d="M 221.419205 263.869784 
L 226.649886 263.869784 
L 226.649886 260.827079 
L 221.419205 260.827079 
z
" style="fill:#dc143c;"/>
   </g>
   <g id="patch_36">
    <path d="M 237.11125 263.869784 
L 252.803295 263.869784 
L 252.803295 260.827079 
L 237.11125 260.827079 
z
" style="fill:#ffd700;"/>
   </g>
   <g id="patch_37">
    <path d="M 263.264659 263.869784 
L 268.495341 263.869784 
L 268.495341 260.827079 
L 263.264659 260.827079 
z
" style="fill:#dc143c;"/>
   </g>
   <g id="patch_38">
    <path d="M 278.956705 263.869784 
L 294.64875 263.869784 
L 294.64875 260.827079 
L 278.956705 260.827079 
z
" style="fill:#ffd700;"/>
   </g>
   <g id="patch_39">
    <path d="M 305.110114 263.869784 
L 310.340795 263.869784 
L 310.340795 260.827079 
L 305.110114 260.827079 
z
" style="fill:#dc143c;"/>
   </g>
   <g id="patch_40">
    <path d="M 320.802159 263.869784 
L 336.494205 263.869784 
L 336.494205 260.827079 
L 320.802159 260.827079 
z
" style="fill:#ffd700;"/>
   </g>
   <g id="patch_41">
    <path d="M 346.955568 263.869784 
L 352.18625 263.869784 
L 352.18625 260.827079 
L 346.955568 260.827079 
z
" style="fill:#dc143c;"/>
   </g>
   <g id="patch_42">
    <path d="M 362.647614 263.869784 
L 378.339659 263.869784 
L 378.339659 260.827079 
L 362.647614 260.827079 
z
" style="fill:#ffd700;"/>
   </g>
   <g id="patch_43">
    <path d="M 388.801023 263.869784 
L 394.031705 263.869784 
L 394.031705 260.827079 
L 388.801023 260.827079 
z
" style="fill:#dc143c;"/>
   </g>
   <g id="patch_44">
    <path d="M 404.493068 263.869784 
L 420.185114 263.869784 
L 420.185114 260.827079 
L 404.493068 260.827079 
z
" style="fill:#ffd700;"/>
   </g>
   <g id="patch_45">
    <path d="M 430.646477 263.869784 
L 433.261818 263.869784 
L 433.261818 260.827079 
L 430.646477 260.827079 
z
" style="fill:#dc143c;"/>
   </g>
   <g id="text_44">
    <!-- q1 -->
    <g transform="translate(94.721477 259.924005)scale(0.08 -0.08)">
     <use xlink:href="#DejaVuSans-113"/>
     <use x="63.476562" xlink:href="#DejaVuSans-49"/>
    </g>
   </g>
   <g id="text_45">
    <!-- b1 -->
    <g transform="translate(114.336534 272.230563)scale(0.08 -0.08)">
     <use xlink:href="#DejaVuSans-98"/>
     <use x="63.476562" xlink:href="#DejaVuSans-49"/>
    </g>
   </g>
   <g id="text_46">
    <!-- q2 -->
    <g transform="translate(135.259261 259.924005)scale(0.08 -0.08)">
     <use xlink:href="#DejaVuSans-113"/>
     <use x="63.476562" xlink:href="#DejaVuSans-50"/>
    </g>
   </g>
   <g id="text_47">
    <!-- b1 -->
    <g transform="translate(156.181989 272.230563)scale(0.08 -0.08)">
     <use xlink:href="#DejaVuSans-98"/>
     <use x="63.476562" xlink:href="#DejaVuSans-49"/>
    </g>
   </g>
   <g id="text_48">
    <!-- q1 -->
    <g transform="translate(177.104716 259.924005)scale(0.08 -0.08)">
     <use xlink:href="#DejaVuSans-113"/>
     <use x="63.476562" xlink:href="#DejaVuSans-49"/>
    </g>
   </g>
   <g id="text_49">
    <!-- b1 -->
    <g transform="translate(198.027443 272.230563)scale(0.08 -0.08)">
     <use xlink:href="#DejaVuSans-98"/>
     <use x="63.476562" xlink:href="#DejaVuSans-49"/>
    </g>
   </g>
   <g id="text_50">
    <!-- q2 -->
    <g transform="translate(218.95017 259.924005)scale(0.08 -0.08)">
     <use xlink:href="#DejaVuSans-113"/>
     <use x="63.476562" xlink:href="#DejaVuSans-50"/>
    </g>
   </g>
   <g id="text_51">
    <!-- b1 -->
    <g transform="translate(239.872898 272.230563)scale(0.08 -0.08)">
     <use xlink:href="#DejaVuSans-98"/>
     <use x="63.476562" xlink:href="#DejaVuSans-49"/>
    </g>
   </g>
   <g id="text_52">
    <!-- q1 -->
    <g transform="translate(260.795625 259.924005)scale(0.08 -0.08)">
     <use xlink:href="#DejaVuSans-113"/>
     <use x="63.476562" xlink:href="#DejaVuSans-49"/>
    </g>
   </g>
   <g id="text_53">
    <!-- b1 -->
    <g transform="translate(281.718352 272.230563)scale(0.08 -0.08)">
     <use xlink:href="#DejaVuSans-98"/>
     <use x="63.476562" xlink:href="#DejaVuSans-49"/>
    </g>
   </g>
   <g id="text_54">
    <!-- q2 -->
    <g transform="translate(302.64108 259.924005)scale(0.08 -0.08)">
     <use xlink:href="#DejaVuSans-113"/>
     <use x="63.476562" xlink:href="#DejaVuSans-50"/>
    </g>
   </g>
   <g id="text_55">
    <!-- b1 -->
    <g transform="translate(323.563807 272.230563)scale(0.08 -0.08)">
     <use xlink:href="#DejaVuSans-98"/>
     <use x="63.476562" xlink:href="#DejaVuSans-49"/>
    </g>
   </g>
   <g id="text_56">
    <!-- q1 -->
    <g transform="translate(344.486534 259.924005)scale(0.08 -0.08)">
     <use xlink:href="#DejaVuSans-113"/>
     <use x="63.476562" xlink:href="#DejaVuSans-49"/>
    </g>
   </g>
   <g id="text_57">
    <!-- b1 -->
    <g transform="translate(365.409261 272.230563)scale(0.08 -0.08)">
     <use xlink:href="#DejaVuSans-98"/>
     <use x="63.476562" xlink:href="#DejaVuSans-49"/>
    </g>
   </g>
   <g id="text_58">
    <!-- q2 -->
    <g transform="translate(386.331989 259.924005)scale(0.08 -0.08)">
     <use xlink:href="#DejaVuSans-113"/>
     <use x="63.476562" xlink:href="#DejaVuSans-50"/>
    </g>
   </g>
   <g id="text_59">
    <!-- b1 -->
    <g transform="translate(407.254716 272.230563)scale(0.08 -0.08)">
     <use xlink:href="#DejaVuSans-98"/>
     <use x="63.476562" xlink:href="#DejaVuSans-49"/>
    </g>
   </g>
   <g id="text_60">
    <!-- q1 -->
    <g transform="translate(426.869773 259.924005)scale(0.08 -0.08)">
     <use xlink:href="#DejaVuSans-113"/>
     <use x="63.476562" xlink:href="#DejaVuSans-49"/>
    </g>
   </g>
  </g>
  <g id="axes_3">
   <g id="patch_46">
    <path d="M 81.76 408.515 
L 450 408.515 
L 450 311.148431 
L 81.76 311.148431 
z
" style="fill:#ffffff;"/>
   </g>
   <g id="matplotlib.axis_5">
    <g id="xtick_11">
     <g id="line2d_43">
      <g>
       <use style="stroke:#000000;stroke-width:0.8;" x="98.498182" xlink:href="#mb235de3efa" y="408.515"/>
      </g>
     </g>
     <g id="text_61">
      <!-- $0$ -->
      <g transform="translate(95.298182 423.113438)scale(0.1 -0.1)">
       <use transform="translate(0 0.78125)" xlink:href="#DejaVuSans-48"/>
      </g>
     </g>
    </g>
    <g id="xtick_12">
     <g id="line2d_44">
      <g>
       <use style="stroke:#000000;stroke-width:0.8;" x="174.090815" xlink:href="#mb235de3efa" y="408.515"/>
      </g>
     </g>
     <g id="text_62">
      <!-- $\frac{\pi}{2}$ -->
      <g transform="translate(171.190815 423.915)scale(0.1 -0.1)">
       <defs>
        <path d="M 9.125 54.6875 
L 61.53125 54.6875 
L 59.765625 45.703125 
L 52.875 45.703125 
L 46.34375 12.109375 
Q 45.65625 8.59375 46.578125 7.03125 
Q 47.46875 5.515625 50.140625 5.515625 
Q 50.875 5.515625 51.953125 5.671875 
Q 53.078125 5.765625 53.421875 5.8125 
L 52.15625 -0.6875 
Q 50.34375 -1.3125 48.484375 -1.609375 
Q 46.578125 -1.90625 44.78125 -1.90625 
Q 38.921875 -1.90625 37.3125 1.265625 
Q 35.6875 4.5 37.359375 13.09375 
L 43.703125 45.703125 
L 23.53125 45.703125 
L 14.65625 0 
L 5.46875 0 
L 14.359375 45.703125 
L 7.375 45.703125 
z
" id="DejaVuSans-Oblique-960"/>
       </defs>
       <use transform="translate(1 45.71875)scale(0.7)" xlink:href="#DejaVuSans-Oblique-960"/>
       <use transform="translate(0 -38.81875)scale(0.7)" xlink:href="#DejaVuSans-50"/>
       <path d="M 0 19.384375 
L 0 25.634375 
L 44.536133 25.634375 
L 44.536133 19.384375 
L 0 19.384375 
z
"/>
      </g>
     </g>
    </g>
    <g id="xtick_13">
     <g id="line2d_45">
      <g>
       <use style="stroke:#000000;stroke-width:0.8;" x="249.683448" xlink:href="#mb235de3efa" y="408.515"/>
      </g>
     </g>
     <g id="text_63">
      <!-- $\pi$ -->
      <g transform="translate(246.633448 423.113438)scale(0.1 -0.1)">
       <use transform="translate(0 0.3125)" xlink:href="#DejaVuSans-Oblique-960"/>
      </g>
     </g>
    </g>
    <g id="xtick_14">
     <g id="line2d_46">
      <g>
       <use style="stroke:#000000;stroke-width:0.8;" x="325.27608" xlink:href="#mb235de3efa" y="408.515"/>
      </g>
     </g>
     <g id="text_64">
      <!-- $\frac{3\pi}{2}$ -->
      <g transform="translate(320.27608 425.315)scale(0.1 -0.1)">
       <use transform="translate(0 46.046875)scale(0.7)" xlink:href="#DejaVuSans-51"/>
       <use transform="translate(44.536133 46.046875)scale(0.7)" xlink:href="#DejaVuSans-Oblique-960"/>
       <use transform="translate(21 -38.490625)scale(0.7)" xlink:href="#DejaVuSans-50"/>
       <path d="M 0 19.7125 
L 0 25.9625 
L 86.679688 25.9625 
L 86.679688 19.7125 
L 0 19.7125 
z
"/>
      </g>
     </g>
    </g>
    <g id="xtick_15">
     <g id="line2d_47">
      <g>
       <use style="stroke:#000000;stroke-width:0.8;" x="400.868713" xlink:href="#mb235de3efa" y="408.515"/>
      </g>
     </g>
     <g id="text_65">
      <!-- $2\pi$ -->
      <g transform="translate(394.668713 423.113438)scale(0.1 -0.1)">
       <use transform="translate(0 0.78125)" xlink:href="#DejaVuSans-50"/>
       <use transform="translate(63.623047 0.78125)" xlink:href="#DejaVuSans-Oblique-960"/>
      </g>
     </g>
    </g>
    <g id="text_66">
     <!-- Betatron phase $\psi_x(s)$ -->
     <g transform="translate(213.78 440.915)scale(0.1 -0.1)">
      <defs>
       <path d="M 19.671875 34.8125 
L 19.671875 8.109375 
L 35.5 8.109375 
Q 43.453125 8.109375 47.28125 11.40625 
Q 51.125 14.703125 51.125 21.484375 
Q 51.125 28.328125 47.28125 31.5625 
Q 43.453125 34.8125 35.5 34.8125 
z
M 19.671875 64.796875 
L 19.671875 42.828125 
L 34.28125 42.828125 
Q 41.5 42.828125 45.03125 45.53125 
Q 48.578125 48.25 48.578125 53.8125 
Q 48.578125 59.328125 45.03125 62.0625 
Q 41.5 64.796875 34.28125 64.796875 
z
M 9.8125 72.90625 
L 35.015625 72.90625 
Q 46.296875 72.90625 52.390625 68.21875 
Q 58.5 63.53125 58.5 54.890625 
Q 58.5 48.1875 55.375 44.234375 
Q 52.25 40.28125 46.1875 39.3125 
Q 53.46875 37.75 57.5 32.78125 
Q 61.53125 27.828125 61.53125 20.40625 
Q 61.53125 10.640625 54.890625 5.3125 
Q 48.25 0 35.984375 0 
L 9.8125 0 
z
" id="DejaVuSans-66"/>
       <path d="M 56.203125 29.59375 
L 56.203125 25.203125 
L 14.890625 25.203125 
Q 15.484375 15.921875 20.484375 11.0625 
Q 25.484375 6.203125 34.421875 6.203125 
Q 39.59375 6.203125 44.453125 7.46875 
Q 49.3125 8.734375 54.109375 11.28125 
L 54.109375 2.78125 
Q 49.265625 0.734375 44.1875 -0.34375 
Q 39.109375 -1.421875 33.890625 -1.421875 
Q 20.796875 -1.421875 13.15625 6.1875 
Q 5.515625 13.8125 5.515625 26.8125 
Q 5.515625 40.234375 12.765625 48.109375 
Q 20.015625 56 32.328125 56 
Q 43.359375 56 49.78125 48.890625 
Q 56.203125 41.796875 56.203125 29.59375 
z
M 47.21875 32.234375 
Q 47.125 39.59375 43.09375 43.984375 
Q 39.0625 48.390625 32.421875 48.390625 
Q 24.90625 48.390625 20.390625 44.140625 
Q 15.875 39.890625 15.1875 32.171875 
z
" id="DejaVuSans-101"/>
       <path d="M 34.28125 27.484375 
Q 23.390625 27.484375 19.1875 25 
Q 14.984375 22.515625 14.984375 16.5 
Q 14.984375 11.71875 18.140625 8.90625 
Q 21.296875 6.109375 26.703125 6.109375 
Q 34.1875 6.109375 38.703125 11.40625 
Q 43.21875 16.703125 43.21875 25.484375 
L 43.21875 27.484375 
z
M 52.203125 31.203125 
L 52.203125 0 
L 43.21875 0 
L 43.21875 8.296875 
Q 40.140625 3.328125 35.546875 0.953125 
Q 30.953125 -1.421875 24.3125 -1.421875 
Q 15.921875 -1.421875 10.953125 3.296875 
Q 6 8.015625 6 15.921875 
Q 6 25.140625 12.171875 29.828125 
Q 18.359375 34.515625 30.609375 34.515625 
L 43.21875 34.515625 
L 43.21875 35.40625 
Q 43.21875 41.609375 39.140625 45 
Q 35.0625 48.390625 27.6875 48.390625 
Q 23 48.390625 18.546875 47.265625 
Q 14.109375 46.140625 10.015625 43.890625 
L 10.015625 52.203125 
Q 14.9375 54.109375 19.578125 55.046875 
Q 24.21875 56 28.609375 56 
Q 40.484375 56 46.34375 49.84375 
Q 52.203125 43.703125 52.203125 31.203125 
z
" id="DejaVuSans-97"/>
       <path d="M 54.890625 33.015625 
L 54.890625 0 
L 45.90625 0 
L 45.90625 32.71875 
Q 45.90625 40.484375 42.875 44.328125 
Q 39.84375 48.1875 33.796875 48.1875 
Q 26.515625 48.1875 22.3125 43.546875 
Q 18.109375 38.921875 18.109375 30.90625 
L 18.109375 0 
L 9.078125 0 
L 9.078125 75.984375 
L 18.109375 75.984375 
L 18.109375 46.1875 
Q 21.34375 51.125 25.703125 53.5625 
Q 30.078125 56 35.796875 56 
Q 45.21875 56 50.046875 50.171875 
Q 54.890625 44.34375 54.890625 33.015625 
z
" id="DejaVuSans-104"/>
       <path d="M 24.859375 -1.21875 
Q 13.921875 0.59375 9.625 5.328125 
Q 4.34375 11.140625 6.640625 23 
L 12.796875 54.6875 
L 21.875 54.6875 
L 15.765625 23.34375 
Q 14.0625 14.40625 17.484375 10.6875 
Q 20.515625 7.46875 26.421875 6.78125 
L 35.6875 54.6875 
L 44.625 54.6875 
L 35.359375 6.84375 
Q 41.890625 7.515625 45.75 10.75 
Q 50.734375 14.84375 52.390625 23.390625 
L 58.453125 54.6875 
L 67.53125 54.6875 
L 61.375 23.046875 
Q 58.984375 10.75 51.5625 5.375 
Q 44.875 0.53125 33.796875 -1.171875 
L 29.984375 -20.796875 
L 21.046875 -20.796875 
z
" id="DejaVuSans-Oblique-968"/>
      </defs>
      <use transform="translate(0 0.015625)" xlink:href="#DejaVuSans-66"/>
      <use transform="translate(68.603516 0.015625)" xlink:href="#DejaVuSans-101"/>
      <use transform="translate(130.126953 0.015625)" xlink:href="#DejaVuSans-116"/>
      <use transform="translate(169.335938 0.015625)" xlink:href="#DejaVuSans-97"/>
      <use transform="translate(230.615234 0.015625)" xlink:href="#DejaVuSans-116"/>
      <use transform="translate(269.824219 0.015625)" xlink:href="#DejaVuSans-114"/>
      <use transform="translate(310.9375 0.015625)" xlink:href="#DejaVuSans-111"/>
      <use transform="translate(372.119141 0.015625)" xlink:href="#DejaVuSans-110"/>
      <use transform="translate(435.498047 0.015625)" xlink:href="#DejaVuSans-32"/>
      <use transform="translate(467.285156 0.015625)" xlink:href="#DejaVuSans-112"/>
      <use transform="translate(530.761719 0.015625)" xlink:href="#DejaVuSans-104"/>
      <use transform="translate(594.140625 0.015625)" xlink:href="#DejaVuSans-97"/>
      <use transform="translate(655.419922 0.015625)" xlink:href="#DejaVuSans-115"/>
      <use transform="translate(707.519531 0.015625)" xlink:href="#DejaVuSans-101"/>
      <use transform="translate(769.042969 0.015625)" xlink:href="#DejaVuSans-32"/>
      <use transform="translate(800.830078 0.015625)" xlink:href="#DejaVuSans-Oblique-968"/>
      <use transform="translate(866.796875 -16.390625)scale(0.7)" xlink:href="#DejaVuSans-Oblique-120"/>
      <use transform="translate(910.957031 0.015625)" xlink:href="#DejaVuSans-40"/>
      <use transform="translate(949.970703 0.015625)" xlink:href="#DejaVuSans-Oblique-115"/>
      <use transform="translate(1002.070312 0.015625)" xlink:href="#DejaVuSans-41"/>
     </g>
    </g>
   </g>
   <g id="matplotlib.axis_6">
    <g id="ytick_9">
     <g id="line2d_48">
      <g>
       <use style="stroke:#000000;stroke-width:0.8;" x="81.76" xlink:href="#m849a602a30" y="393.005994"/>
      </g>
     </g>
     <g id="text_67">
      <!-- −0.0002 -->
      <g transform="translate(31.389688 396.805213)scale(0.1 -0.1)">
       <use xlink:href="#DejaVuSans-8722"/>
       <use x="83.789062" xlink:href="#DejaVuSans-48"/>
       <use x="147.412109" xlink:href="#DejaVuSans-46"/>
       <use x="179.199219" xlink:href="#DejaVuSans-48"/>
       <use x="242.822266" xlink:href="#DejaVuSans-48"/>
       <use x="306.445312" xlink:href="#DejaVuSans-48"/>
       <use x="370.068359" xlink:href="#DejaVuSans-50"/>
      </g>
     </g>
    </g>
    <g id="ytick_10">
     <g id="line2d_49">
      <g>
       <use style="stroke:#000000;stroke-width:0.8;" x="81.76" xlink:href="#m849a602a30" y="359.83185"/>
      </g>
     </g>
     <g id="text_68">
      <!-- 0.0000 -->
      <g transform="translate(39.769375 363.631069)scale(0.1 -0.1)">
       <use xlink:href="#DejaVuSans-48"/>
       <use x="63.623047" xlink:href="#DejaVuSans-46"/>
       <use x="95.410156" xlink:href="#DejaVuSans-48"/>
       <use x="159.033203" xlink:href="#DejaVuSans-48"/>
       <use x="222.65625" xlink:href="#DejaVuSans-48"/>
       <use x="286.279297" xlink:href="#DejaVuSans-48"/>
      </g>
     </g>
    </g>
    <g id="ytick_11">
     <g id="line2d_50">
      <g>
       <use style="stroke:#000000;stroke-width:0.8;" x="81.76" xlink:href="#m849a602a30" y="326.657707"/>
      </g>
     </g>
     <g id="text_69">
      <!-- 0.0002 -->
      <g transform="translate(39.769375 330.456926)scale(0.1 -0.1)">
       <use xlink:href="#DejaVuSans-48"/>
       <use x="63.623047" xlink:href="#DejaVuSans-46"/>
       <use x="95.410156" xlink:href="#DejaVuSans-48"/>
       <use x="159.033203" xlink:href="#DejaVuSans-48"/>
       <use x="222.65625" xlink:href="#DejaVuSans-48"/>
       <use x="286.279297" xlink:href="#DejaVuSans-50"/>
      </g>
     </g>
    </g>
    <g id="text_70">
     <!-- $x(s) / \sqrt{\beta(s)}$ -->
     <g transform="translate(25.289687 385.631716)rotate(-90)scale(0.1 -0.1)">
      <use transform="translate(0 0.171875)" xlink:href="#DejaVuSans-Oblique-120"/>
      <use transform="translate(59.179688 0.171875)" xlink:href="#DejaVuSans-40"/>
      <use transform="translate(98.193359 0.171875)" xlink:href="#DejaVuSans-Oblique-115"/>
      <use transform="translate(150.292969 0.171875)" xlink:href="#DejaVuSans-41"/>
      <use transform="translate(189.306641 0.171875)" xlink:href="#DejaVuSans-47"/>
      <use transform="translate(222.998047 -0.078125)scale(0.696557)" xlink:href="#STIXSizeOneSym-Regular-8730"/>
      <use transform="translate(309.1082 0.140625)" xlink:href="#DejaVuSans-Oblique-946"/>
      <use transform="translate(372.926559 0.140625)" xlink:href="#DejaVuSans-40"/>
      <use transform="translate(411.940231 0.140625)" xlink:href="#DejaVuSans-Oblique-115"/>
      <use transform="translate(464.039841 0.140625)" xlink:href="#DejaVuSans-41"/>
      <path d="M 296.6082 101.5 
L 296.6082 107.75 
L 515.553513 107.75 
L 515.553513 101.5 
L 296.6082 101.5 
z
"/>
     </g>
    </g>
   </g>
   <g id="line2d_51">
    <path clip-path="url(#pb1e335a725)" d="M 98.498182 315.574184 
L 101.827036 315.679987 
L 104.742983 315.946092 
L 107.776376 316.393527 
L 111.630629 317.21015 
L 114.822256 318.093054 
L 119.378102 319.670167 
L 122.460907 320.942517 
L 125.947788 322.573597 
L 129.879181 324.646717 
L 134.282573 327.246939 
L 139.105861 330.408508 
L 144.030918 333.941632 
L 148.666309 337.514514 
L 154.739484 342.501766 
L 161.30917 348.203581 
L 170.451279 356.470117 
L 187.562183 372.036556 
L 193.926903 377.536088 
L 200.345223 382.768071 
L 206.151817 387.155919 
L 211.546687 390.878429 
L 215.711873 393.488524 
L 220.347263 396.096999 
L 224.034545 397.933227 
L 227.721827 399.545689 
L 230.095609 400.460837 
L 234.499001 401.894518 
L 238.430393 402.877361 
L 241.917274 403.509007 
L 245.00008 403.876711 
L 247.723868 404.051367 
L 251.22429 404.068052 
L 255.4227 403.780122 
L 258.698928 403.323359 
L 262.551146 402.528856 
L 266.310078 401.489873 
L 269.684891 400.34054 
L 273.061072 398.991943 
L 276.3373 397.499625 
L 280.53571 395.333841 
L 285.355987 392.515671 
L 289.842726 389.596508 
L 295.237596 385.746433 
L 299.402782 382.548375 
L 305.256454 377.770538 
L 311.412737 372.459919 
L 320.213313 364.534891 
L 339.113609 347.343057 
L 346.242055 341.216887 
L 352.009264 336.550776 
L 356.751981 332.961658 
L 361.308721 329.759446 
L 365.894983 326.808545 
L 370.45083 324.172574 
L 375.22385 321.75281 
L 378.928505 320.131283 
L 383.093691 318.589157 
L 387.729082 317.235981 
L 391.416364 316.441055 
L 395.103646 315.90096 
L 397.477427 315.689645 
L 401.880819 315.582385 
L 405.812212 315.799423 
L 409.299093 316.237651 
L 412.381898 316.815599 
L 415.105686 317.473054 
L 418.606108 318.515999 
L 422.804518 320.054122 
L 427.017017 321.90123 
L 431.240384 324.045167 
L 433.261818 325.17002 
L 433.261818 325.17002 
" style="fill:none;stroke:#1f77b4;stroke-linecap:square;stroke-width:1.5;"/>
   </g>
   <g id="patch_47">
    <path d="M 81.76 408.515 
L 81.76 311.148431 
" style="fill:none;stroke:#000000;stroke-linecap:square;stroke-linejoin:miter;stroke-width:0.8;"/>
   </g>
   <g id="patch_48">
    <path d="M 450 408.515 
L 450 311.148431 
" style="fill:none;stroke:#000000;stroke-linecap:square;stroke-linejoin:miter;stroke-width:0.8;"/>
   </g>
   <g id="patch_49">
    <path d="M 81.76 408.515 
L 450 408.515 
" style="fill:none;stroke:#000000;stroke-linecap:square;stroke-linejoin:miter;stroke-width:0.8;"/>
   </g>
   <g id="patch_50">
    <path d="M 81.76 311.148431 
L 450 311.148431 
" style="fill:none;stroke:#000000;stroke-linecap:square;stroke-linejoin:miter;stroke-width:0.8;"/>
   </g>
  </g>
 </g>
 <defs>
  <clipPath id="p131381e4c9">
   <rect height="97.366569" width="368.24" x="81.76" y="18.815294"/>
  </clipPath>
  <clipPath id="pc905356a80">
   <rect height="97.366569" width="368.24" x="81.76" y="164.981863"/>
  </clipPath>
  <clipPath id="pb1e335a725">
   <rect height="97.366569" width="368.24" x="81.76" y="311.148431"/>
  </clipPath>
 </defs>
</svg>
