<?xml version="1.0" encoding="utf-8" standalone="no"?>
<!DOCTYPE svg PUBLIC "-//W3C//DTD SVG 1.1//EN"
  "http://www.w3.org/Graphics/SVG/1.1/DTD/svg11.dtd">
<svg xmlns:xlink="http://www.w3.org/1999/xlink" width="460.8pt" height="460.8pt" viewBox="0 0 460.8 460.8" xmlns="http://www.w3.org/2000/svg" version="1.1">
 <metadata>
  <rdf:RDF xmlns:dc="http://purl.org/dc/elements/1.1/" xmlns:cc="http://creativecommons.org/ns#" xmlns:rdf="http://www.w3.org/1999/02/22-rdf-syntax-ns#">
   <cc:Work>
    <dc:type rdf:resource="http://purl.org/dc/dcmitype/StillImage"/>
    <dc:format>image/svg+xml</dc:format>
    <dc:creator>
     <cc:Agent>
      <dc:title>Matplotlib v3.5.0, https://matplotlib.org/</dc:title>
     </cc:Agent>
    </dc:creator>
   </cc:Work>
  </rdf:RDF>
 </metadata>
 <defs>
  <style type="text/css">*{stroke-linejoin: round; stroke-linecap: butt}</style>
 </defs>
 <g id="figure_1">
  <g id="patch_1">
   <path d="M 0 460.8 
L 460.8 460.8 
L 460.8 0 
L 0 0 
z
" style="fill: #ffffff"/>
  </g>
  <g id="axes_1">
   <g id="patch_2">
    <path d="M 49.88 142.626667 
L 446.805 142.626667 
L 446.805 46.009412 
L 49.88 46.009412 
z
" style="fill: #ffffff"/>
   </g>
   <g id="matplotlib.axis_1">
    <g id="xtick_1">
     <g id="line2d_1">
      <defs>
       <path id="m1b5c85cee3" d="M 0 0 
L 0 3.5 
" style="stroke: #000000; stroke-width: 0.8"/>
      </defs>
      <g>
       <use xlink:href="#m1b5c85cee3" x="49.88" y="142.626667" style="stroke: #000000; stroke-width: 0.8"/>
      </g>
     </g>
     <g id="text_1">
      <!-- 0 -->
      <g transform="translate(46.69875 157.225104)scale(0.1 -0.1)">
       <defs>
        <path id="DejaVuSans-30" d="M 2034 4250 
Q 1547 4250 1301 3770 
Q 1056 3291 1056 2328 
Q 1056 1369 1301 889 
Q 1547 409 2034 409 
Q 2525 409 2770 889 
Q 3016 1369 3016 2328 
Q 3016 3291 2770 3770 
Q 2525 4250 2034 4250 
z
M 2034 4750 
Q 2819 4750 3233 4129 
Q 3647 3509 3647 2328 
Q 3647 1150 3233 529 
Q 2819 -91 2034 -91 
Q 1250 -91 836 529 
Q 422 1150 422 2328 
Q 422 3509 836 4129 
Q 1250 4750 2034 4750 
z
" transform="scale(0.015625)"/>
       </defs>
       <use xlink:href="#DejaVuSans-30"/>
      </g>
     </g>
    </g>
    <g id="xtick_2">
     <g id="line2d_2">
      <g>
       <use xlink:href="#m1b5c85cee3" x="99.495625" y="142.626667" style="stroke: #000000; stroke-width: 0.8"/>
      </g>
     </g>
     <g id="text_2">
      <!-- 1 -->
      <g transform="translate(96.314375 157.225104)scale(0.1 -0.1)">
       <defs>
        <path id="DejaVuSans-31" d="M 794 531 
L 1825 531 
L 1825 4091 
L 703 3866 
L 703 4441 
L 1819 4666 
L 2450 4666 
L 2450 531 
L 3481 531 
L 3481 0 
L 794 0 
L 794 531 
z
" transform="scale(0.015625)"/>
       </defs>
       <use xlink:href="#DejaVuSans-31"/>
      </g>
     </g>
    </g>
    <g id="xtick_3">
     <g id="line2d_3">
      <g>
       <use xlink:href="#m1b5c85cee3" x="149.11125" y="142.626667" style="stroke: #000000; stroke-width: 0.8"/>
      </g>
     </g>
     <g id="text_3">
      <!-- 2 -->
      <g transform="translate(145.93 157.225104)scale(0.1 -0.1)">
       <defs>
        <path id="DejaVuSans-32" d="M 1228 531 
L 3431 531 
L 3431 0 
L 469 0 
L 469 531 
Q 828 903 1448 1529 
Q 2069 2156 2228 2338 
Q 2531 2678 2651 2914 
Q 2772 3150 2772 3378 
Q 2772 3750 2511 3984 
Q 2250 4219 1831 4219 
Q 1534 4219 1204 4116 
Q 875 4013 500 3803 
L 500 4441 
Q 881 4594 1212 4672 
Q 1544 4750 1819 4750 
Q 2544 4750 2975 4387 
Q 3406 4025 3406 3419 
Q 3406 3131 3298 2873 
Q 3191 2616 2906 2266 
Q 2828 2175 2409 1742 
Q 1991 1309 1228 531 
z
" transform="scale(0.015625)"/>
       </defs>
       <use xlink:href="#DejaVuSans-32"/>
      </g>
     </g>
    </g>
    <g id="xtick_4">
     <g id="line2d_4">
      <g>
       <use xlink:href="#m1b5c85cee3" x="198.726875" y="142.626667" style="stroke: #000000; stroke-width: 0.8"/>
      </g>
     </g>
     <g id="text_4">
      <!-- 3 -->
      <g transform="translate(195.545625 157.225104)scale(0.1 -0.1)">
       <defs>
        <path id="DejaVuSans-33" d="M 2597 2516 
Q 3050 2419 3304 2112 
Q 3559 1806 3559 1356 
Q 3559 666 3084 287 
Q 2609 -91 1734 -91 
Q 1441 -91 1130 -33 
Q 819 25 488 141 
L 488 750 
Q 750 597 1062 519 
Q 1375 441 1716 441 
Q 2309 441 2620 675 
Q 2931 909 2931 1356 
Q 2931 1769 2642 2001 
Q 2353 2234 1838 2234 
L 1294 2234 
L 1294 2753 
L 1863 2753 
Q 2328 2753 2575 2939 
Q 2822 3125 2822 3475 
Q 2822 3834 2567 4026 
Q 2313 4219 1838 4219 
Q 1578 4219 1281 4162 
Q 984 4106 628 3988 
L 628 4550 
Q 988 4650 1302 4700 
Q 1616 4750 1894 4750 
Q 2613 4750 3031 4423 
Q 3450 4097 3450 3541 
Q 3450 3153 3228 2886 
Q 3006 2619 2597 2516 
z
" transform="scale(0.015625)"/>
       </defs>
       <use xlink:href="#DejaVuSans-33"/>
      </g>
     </g>
    </g>
    <g id="xtick_5">
     <g id="line2d_5">
      <g>
       <use xlink:href="#m1b5c85cee3" x="248.3425" y="142.626667" style="stroke: #000000; stroke-width: 0.8"/>
      </g>
     </g>
     <g id="text_5">
      <!-- 4 -->
      <g transform="translate(245.16125 157.225104)scale(0.1 -0.1)">
       <defs>
        <path id="DejaVuSans-34" d="M 2419 4116 
L 825 1625 
L 2419 1625 
L 2419 4116 
z
M 2253 4666 
L 3047 4666 
L 3047 1625 
L 3713 1625 
L 3713 1100 
L 3047 1100 
L 3047 0 
L 2419 0 
L 2419 1100 
L 313 1100 
L 313 1709 
L 2253 4666 
z
" transform="scale(0.015625)"/>
       </defs>
       <use xlink:href="#DejaVuSans-34"/>
      </g>
     </g>
    </g>
    <g id="xtick_6">
     <g id="line2d_6">
      <g>
       <use xlink:href="#m1b5c85cee3" x="297.958125" y="142.626667" style="stroke: #000000; stroke-width: 0.8"/>
      </g>
     </g>
     <g id="text_6">
      <!-- 5 -->
      <g transform="translate(294.776875 157.225104)scale(0.1 -0.1)">
       <defs>
        <path id="DejaVuSans-35" d="M 691 4666 
L 3169 4666 
L 3169 4134 
L 1269 4134 
L 1269 2991 
Q 1406 3038 1543 3061 
Q 1681 3084 1819 3084 
Q 2600 3084 3056 2656 
Q 3513 2228 3513 1497 
Q 3513 744 3044 326 
Q 2575 -91 1722 -91 
Q 1428 -91 1123 -41 
Q 819 9 494 109 
L 494 744 
Q 775 591 1075 516 
Q 1375 441 1709 441 
Q 2250 441 2565 725 
Q 2881 1009 2881 1497 
Q 2881 1984 2565 2268 
Q 2250 2553 1709 2553 
Q 1456 2553 1204 2497 
Q 953 2441 691 2322 
L 691 4666 
z
" transform="scale(0.015625)"/>
       </defs>
       <use xlink:href="#DejaVuSans-35"/>
      </g>
     </g>
    </g>
    <g id="xtick_7">
     <g id="line2d_7">
      <g>
       <use xlink:href="#m1b5c85cee3" x="347.57375" y="142.626667" style="stroke: #000000; stroke-width: 0.8"/>
      </g>
     </g>
     <g id="text_7">
      <!-- 6 -->
      <g transform="translate(344.3925 157.225104)scale(0.1 -0.1)">
       <defs>
        <path id="DejaVuSans-36" d="M 2113 2584 
Q 1688 2584 1439 2293 
Q 1191 2003 1191 1497 
Q 1191 994 1439 701 
Q 1688 409 2113 409 
Q 2538 409 2786 701 
Q 3034 994 3034 1497 
Q 3034 2003 2786 2293 
Q 2538 2584 2113 2584 
z
M 3366 4563 
L 3366 3988 
Q 3128 4100 2886 4159 
Q 2644 4219 2406 4219 
Q 1781 4219 1451 3797 
Q 1122 3375 1075 2522 
Q 1259 2794 1537 2939 
Q 1816 3084 2150 3084 
Q 2853 3084 3261 2657 
Q 3669 2231 3669 1497 
Q 3669 778 3244 343 
Q 2819 -91 2113 -91 
Q 1303 -91 875 529 
Q 447 1150 447 2328 
Q 447 3434 972 4092 
Q 1497 4750 2381 4750 
Q 2619 4750 2861 4703 
Q 3103 4656 3366 4563 
z
" transform="scale(0.015625)"/>
       </defs>
       <use xlink:href="#DejaVuSans-36"/>
      </g>
     </g>
    </g>
    <g id="xtick_8">
     <g id="line2d_8">
      <g>
       <use xlink:href="#m1b5c85cee3" x="397.189375" y="142.626667" style="stroke: #000000; stroke-width: 0.8"/>
      </g>
     </g>
     <g id="text_8">
      <!-- 7 -->
      <g transform="translate(394.008125 157.225104)scale(0.1 -0.1)">
       <defs>
        <path id="DejaVuSans-37" d="M 525 4666 
L 3525 4666 
L 3525 4397 
L 1831 0 
L 1172 0 
L 2766 4134 
L 525 4134 
L 525 4666 
z
" transform="scale(0.015625)"/>
       </defs>
       <use xlink:href="#DejaVuSans-37"/>
      </g>
     </g>
    </g>
    <g id="xtick_9">
     <g id="line2d_9">
      <g>
       <use xlink:href="#m1b5c85cee3" x="446.805" y="142.626667" style="stroke: #000000; stroke-width: 0.8"/>
      </g>
     </g>
     <g id="text_9">
      <!-- 8 -->
      <g transform="translate(443.62375 157.225104)scale(0.1 -0.1)">
       <defs>
        <path id="DejaVuSans-38" d="M 2034 2216 
Q 1584 2216 1326 1975 
Q 1069 1734 1069 1313 
Q 1069 891 1326 650 
Q 1584 409 2034 409 
Q 2484 409 2743 651 
Q 3003 894 3003 1313 
Q 3003 1734 2745 1975 
Q 2488 2216 2034 2216 
z
M 1403 2484 
Q 997 2584 770 2862 
Q 544 3141 544 3541 
Q 544 4100 942 4425 
Q 1341 4750 2034 4750 
Q 2731 4750 3128 4425 
Q 3525 4100 3525 3541 
Q 3525 3141 3298 2862 
Q 3072 2584 2669 2484 
Q 3125 2378 3379 2068 
Q 3634 1759 3634 1313 
Q 3634 634 3220 271 
Q 2806 -91 2034 -91 
Q 1263 -91 848 271 
Q 434 634 434 1313 
Q 434 1759 690 2068 
Q 947 2378 1403 2484 
z
M 1172 3481 
Q 1172 3119 1398 2916 
Q 1625 2713 2034 2713 
Q 2441 2713 2670 2916 
Q 2900 3119 2900 3481 
Q 2900 3844 2670 4047 
Q 2441 4250 2034 4250 
Q 1625 4250 1398 4047 
Q 1172 3844 1172 3481 
z
" transform="scale(0.015625)"/>
       </defs>
       <use xlink:href="#DejaVuSans-38"/>
      </g>
     </g>
    </g>
   </g>
   <g id="matplotlib.axis_2">
    <g id="ytick_1">
     <g id="line2d_10">
      <defs>
       <path id="md612d8602d" d="M 0 0 
L -3.5 0 
" style="stroke: #000000; stroke-width: 0.8"/>
      </defs>
      <g>
       <use xlink:href="#md612d8602d" x="49.88" y="115.942227" style="stroke: #000000; stroke-width: 0.8"/>
      </g>
     </g>
     <g id="text_10">
      <!-- 5 -->
      <g transform="translate(36.5175 119.741445)scale(0.1 -0.1)">
       <use xlink:href="#DejaVuSans-35"/>
      </g>
     </g>
    </g>
    <g id="ytick_2">
     <g id="line2d_11">
      <g>
       <use xlink:href="#md612d8602d" x="49.88" y="82.144253" style="stroke: #000000; stroke-width: 0.8"/>
      </g>
     </g>
     <g id="text_11">
      <!-- 10 -->
      <g transform="translate(30.155 85.943472)scale(0.1 -0.1)">
       <use xlink:href="#DejaVuSans-31"/>
       <use xlink:href="#DejaVuSans-30" x="63.623047"/>
      </g>
     </g>
    </g>
    <g id="ytick_3">
     <g id="line2d_12">
      <g>
       <use xlink:href="#md612d8602d" x="49.88" y="48.34628" style="stroke: #000000; stroke-width: 0.8"/>
      </g>
     </g>
     <g id="text_12">
      <!-- 15 -->
      <g transform="translate(30.155 52.145499)scale(0.1 -0.1)">
       <use xlink:href="#DejaVuSans-31"/>
       <use xlink:href="#DejaVuSans-35" x="63.623047"/>
      </g>
     </g>
    </g>
    <g id="text_13">
     <!-- $\beta_u$ / m -->
     <g transform="translate(24.055 109.618039)rotate(-90)scale(0.1 -0.1)">
      <defs>
       <path id="DejaVuSans-Oblique-3b2" d="M 872 216 
L 572 -1331 
L -6 -1331 
L 928 3478 
Q 1206 4903 2538 4903 
Q 3888 4903 3659 3700 
Q 3503 2844 2894 2531 
Q 3713 2250 3553 1416 
Q 3272 -69 1759 -66 
Q 1097 -63 872 216 
z
M 1019 966 
Q 1259 422 1875 425 
Q 2775 425 2966 1406 
Q 3138 2288 1675 2219 
L 1778 2750 
Q 2909 2731 3106 3750 
Q 3241 4438 2509 4434 
Q 1691 4434 1503 3459 
L 1019 966 
z
" transform="scale(0.015625)"/>
       <path id="DejaVuSans-Oblique-75" d="M 428 1388 
L 838 3500 
L 1416 3500 
L 1006 1409 
Q 975 1256 961 1147 
Q 947 1038 947 966 
Q 947 700 1109 554 
Q 1272 409 1569 409 
Q 2031 409 2368 721 
Q 2706 1034 2809 1563 
L 3194 3500 
L 3769 3500 
L 3091 0 
L 2516 0 
L 2631 550 
Q 2388 244 2052 76 
Q 1716 -91 1338 -91 
Q 878 -91 622 161 
Q 366 413 366 863 
Q 366 956 381 1097 
Q 397 1238 428 1388 
z
" transform="scale(0.015625)"/>
       <path id="DejaVuSans-20" transform="scale(0.015625)"/>
       <path id="DejaVuSans-2f" d="M 1625 4666 
L 2156 4666 
L 531 -594 
L 0 -594 
L 1625 4666 
z
" transform="scale(0.015625)"/>
       <path id="DejaVuSans-6d" d="M 3328 2828 
Q 3544 3216 3844 3400 
Q 4144 3584 4550 3584 
Q 5097 3584 5394 3201 
Q 5691 2819 5691 2113 
L 5691 0 
L 5113 0 
L 5113 2094 
Q 5113 2597 4934 2840 
Q 4756 3084 4391 3084 
Q 3944 3084 3684 2787 
Q 3425 2491 3425 1978 
L 3425 0 
L 2847 0 
L 2847 2094 
Q 2847 2600 2669 2842 
Q 2491 3084 2119 3084 
Q 1678 3084 1418 2786 
Q 1159 2488 1159 1978 
L 1159 0 
L 581 0 
L 581 3500 
L 1159 3500 
L 1159 2956 
Q 1356 3278 1631 3431 
Q 1906 3584 2284 3584 
Q 2666 3584 2933 3390 
Q 3200 3197 3328 2828 
z
" transform="scale(0.015625)"/>
      </defs>
      <use xlink:href="#DejaVuSans-Oblique-3b2" transform="translate(0 0.390625)"/>
      <use xlink:href="#DejaVuSans-Oblique-75" transform="translate(63.818359 -16.015625)scale(0.7)"/>
      <use xlink:href="#DejaVuSans-20" transform="translate(110.917969 0.390625)"/>
      <use xlink:href="#DejaVuSans-2f" transform="translate(142.705078 0.390625)"/>
      <use xlink:href="#DejaVuSans-20" transform="translate(176.396484 0.390625)"/>
      <use xlink:href="#DejaVuSans-6d" transform="translate(208.183594 0.390625)"/>
     </g>
    </g>
   </g>
   <g id="line2d_13">
    <path d="M 49.88 54.792799 
L 51.120391 54.839964 
L 52.360781 54.981365 
L 53.601172 55.216718 
L 54.841563 55.545555 
L 56.081953 55.967216 
L 57.322344 56.480859 
L 58.562734 57.085457 
L 59.803125 57.7798 
L 61.043516 58.5625 
L 62.283906 59.431992 
L 67.245469 63.039358 
L 72.207031 66.562872 
L 77.168594 70.002534 
L 82.130156 73.358345 
L 87.091719 76.630303 
L 92.053281 79.81841 
L 97.014844 82.922665 
L 101.976406 85.943068 
L 106.937969 88.879619 
L 111.899531 91.732319 
L 119.341875 95.659068 
L 126.784219 99.451714 
L 134.226562 103.104408 
L 141.668906 106.611518 
L 149.11125 109.967636 
L 156.553594 113.167587 
L 163.995937 116.206437 
L 171.438281 119.079501 
L 178.880625 121.782347 
L 186.322969 124.31081 
L 191.284531 125.829947 
L 196.246094 127.265232 
L 201.207656 128.616665 
L 206.169219 129.884246 
L 211.130781 131.067975 
L 216.092344 132.167853 
L 221.053906 133.183879 
L 226.015469 134.116053 
L 230.977031 134.964375 
L 235.938594 135.728845 
L 238.419375 136.052069 
L 240.900156 136.300821 
L 243.380938 136.477092 
L 245.861719 136.582294 
L 248.3425 136.617268 
L 250.823281 136.582294 
L 253.304062 136.477092 
L 255.784844 136.300821 
L 258.265625 136.052069 
L 260.746406 135.728845 
L 265.707969 134.964375 
L 270.669531 134.116053 
L 275.631094 133.183879 
L 280.592656 132.167853 
L 285.554219 131.067975 
L 290.515781 129.884246 
L 295.477344 128.616665 
L 300.438906 127.265232 
L 305.400469 125.829947 
L 310.362031 124.31081 
L 317.804375 121.782347 
L 325.246719 119.079501 
L 332.689062 116.206437 
L 340.131406 113.167587 
L 347.57375 109.967636 
L 355.016094 106.611518 
L 362.458437 103.104408 
L 369.900781 99.451714 
L 377.343125 95.659068 
L 384.785469 91.732319 
L 389.747031 88.879619 
L 394.708594 85.943068 
L 399.670156 82.922665 
L 404.631719 79.81841 
L 409.593281 76.630303 
L 414.554844 73.358345 
L 419.516406 70.002534 
L 424.477969 66.562872 
L 429.439531 63.039358 
L 434.401094 59.431992 
L 435.641484 58.5625 
L 436.881875 57.7798 
L 438.122266 57.085457 
L 439.362656 56.480859 
L 440.603047 55.967216 
L 441.843437 55.545555 
L 443.083828 55.216718 
L 444.324219 54.981365 
L 445.564609 54.839964 
L 446.805 54.792799 
" clip-path="url(#pf47529a47e)" style="fill: none; stroke: #ef4444; stroke-width: 1.5; stroke-linecap: square"/>
   </g>
   <g id="line2d_14">
    <path d="M 49.88 138.444102 
L 51.120391 138.435924 
L 52.360781 138.411375 
L 53.601172 138.370406 
L 54.841563 138.312934 
L 56.081953 138.238845 
L 57.322344 138.14799 
L 58.562734 138.040188 
L 59.803125 137.915223 
L 61.043516 137.772845 
L 62.283906 137.612769 
L 67.245469 136.889556 
L 72.207031 136.072142 
L 77.168594 135.160528 
L 82.130156 134.154714 
L 87.091719 133.054699 
L 92.053281 131.860484 
L 97.014844 130.572069 
L 101.976406 129.189454 
L 106.937969 127.712638 
L 111.899531 126.141623 
L 119.341875 123.704352 
L 126.784219 121.064343 
L 134.226562 118.221593 
L 141.668906 115.176105 
L 149.11125 111.927877 
L 156.553594 108.47691 
L 163.995937 104.823203 
L 171.438281 100.966757 
L 178.880625 96.907572 
L 186.322969 92.645647 
L 191.284531 89.842604 
L 196.246094 86.956766 
L 201.207656 83.988132 
L 206.169219 80.936703 
L 211.130781 77.802477 
L 216.092344 74.585456 
L 221.053906 71.285639 
L 226.015469 67.903027 
L 230.977031 64.437619 
L 235.938594 60.889415 
L 238.419375 59.264247 
L 240.900156 57.986552 
L 243.380938 57.066546 
L 245.861719 56.511584 
L 248.3425 56.326103 
L 250.823281 56.511584 
L 253.304062 57.066546 
L 255.784844 57.986552 
L 258.265625 59.264247 
L 260.746406 60.889415 
L 265.707969 64.437619 
L 270.669531 67.903027 
L 275.631094 71.285639 
L 280.592656 74.585456 
L 285.554219 77.802477 
L 290.515781 80.936703 
L 295.477344 83.988132 
L 300.438906 86.956766 
L 305.400469 89.842604 
L 310.362031 92.645647 
L 317.804375 96.907572 
L 325.246719 100.966757 
L 332.689062 104.823203 
L 340.131406 108.47691 
L 347.57375 111.927877 
L 355.016094 115.176105 
L 362.458437 118.221593 
L 369.900781 121.064343 
L 377.343125 123.704352 
L 384.785469 126.141623 
L 389.747031 127.712638 
L 394.708594 129.189454 
L 399.670156 130.572069 
L 404.631719 131.860484 
L 409.593281 133.054699 
L 414.554844 134.154714 
L 419.516406 135.160528 
L 424.477969 136.072142 
L 429.439531 136.889556 
L 434.401094 137.612769 
L 435.641484 137.772845 
L 436.881875 137.915223 
L 438.122266 138.040188 
L 439.362656 138.14799 
L 440.603047 138.238845 
L 441.843437 138.312934 
L 443.083828 138.370406 
L 444.324219 138.411375 
L 445.564609 138.435924 
L 446.805 138.444102 
" clip-path="url(#pf47529a47e)" style="fill: none; stroke: #3b82f6; stroke-width: 1.5; stroke-linecap: square"/>
   </g>
   <g id="patch_3">
    <path d="M 49.88 142.626667 
L 49.88 46.009412 
" style="fill: none; stroke: #000000; stroke-width: 0.8; stroke-linejoin: miter; stroke-linecap: square"/>
   </g>
   <g id="patch_4">
    <path d="M 446.805 142.626667 
L 446.805 46.009412 
" style="fill: none; stroke: #000000; stroke-width: 0.8; stroke-linejoin: miter; stroke-linecap: square"/>
   </g>
   <g id="patch_5">
    <path d="M 49.88 142.626667 
L 446.805 142.626667 
" style="fill: none; stroke: #000000; stroke-width: 0.8; stroke-linejoin: miter; stroke-linecap: square"/>
   </g>
   <g id="patch_6">
    <path d="M 49.88 46.009412 
L 446.805 46.009412 
" style="fill: none; stroke: #000000; stroke-width: 0.8; stroke-linejoin: miter; stroke-linecap: square"/>
   </g>
   <g id="patch_7">
    <path d="M 49.88 48.309823 
L 62.283906 48.309823 
L 62.283906 43.709001 
L 49.88 43.709001 
z
" style="fill: #ef4444"/>
   </g>
   <g id="patch_8">
    <path d="M 111.899531 48.309823 
L 186.322969 48.309823 
L 186.322969 43.709001 
L 111.899531 43.709001 
z
" style="fill: #fbbf24"/>
   </g>
   <g id="patch_9">
    <path d="M 235.938594 48.309823 
L 260.746406 48.309823 
L 260.746406 43.709001 
L 235.938594 43.709001 
z
" style="fill: #ef4444"/>
   </g>
   <g id="patch_10">
    <path d="M 310.362031 48.309823 
L 384.785469 48.309823 
L 384.785469 43.709001 
L 310.362031 43.709001 
z
" style="fill: #fbbf24"/>
   </g>
   <g id="patch_11">
    <path d="M 434.401094 48.309823 
L 446.805 48.309823 
L 446.805 43.709001 
L 434.401094 43.709001 
z
" style="fill: #ef4444"/>
   </g>
   <g id="text_14">
    <!-- q1 -->
    <g transform="translate(50.997578 39.74484)scale(0.08 -0.08)">
     <defs>
      <path id="DejaVuSans-71" d="M 947 1747 
Q 947 1113 1208 752 
Q 1469 391 1925 391 
Q 2381 391 2643 752 
Q 2906 1113 2906 1747 
Q 2906 2381 2643 2742 
Q 2381 3103 1925 3103 
Q 1469 3103 1208 2742 
Q 947 2381 947 1747 
z
M 2906 525 
Q 2725 213 2448 61 
Q 2172 -91 1784 -91 
Q 1150 -91 751 415 
Q 353 922 353 1747 
Q 353 2572 751 3078 
Q 1150 3584 1784 3584 
Q 2172 3584 2448 3432 
Q 2725 3281 2906 2969 
L 2906 3500 
L 3481 3500 
L 3481 -1331 
L 2906 -1331 
L 2906 525 
z
" transform="scale(0.015625)"/>
     </defs>
     <use xlink:href="#DejaVuSans-71"/>
     <use xlink:href="#DejaVuSans-31" x="63.476562"/>
    </g>
   </g>
   <g id="text_15">
    <!-- b1 -->
    <g transform="translate(144.026875 56.688983)scale(0.08 -0.08)">
     <defs>
      <path id="DejaVuSans-62" d="M 3116 1747 
Q 3116 2381 2855 2742 
Q 2594 3103 2138 3103 
Q 1681 3103 1420 2742 
Q 1159 2381 1159 1747 
Q 1159 1113 1420 752 
Q 1681 391 2138 391 
Q 2594 391 2855 752 
Q 3116 1113 3116 1747 
z
M 1159 2969 
Q 1341 3281 1617 3432 
Q 1894 3584 2278 3584 
Q 2916 3584 3314 3078 
Q 3713 2572 3713 1747 
Q 3713 922 3314 415 
Q 2916 -91 2278 -91 
Q 1894 -91 1617 61 
Q 1341 213 1159 525 
L 1159 0 
L 581 0 
L 581 4863 
L 1159 4863 
L 1159 2969 
z
" transform="scale(0.015625)"/>
     </defs>
     <use xlink:href="#DejaVuSans-62"/>
     <use xlink:href="#DejaVuSans-31" x="63.476562"/>
    </g>
   </g>
   <g id="text_16">
    <!-- q2 -->
    <g transform="translate(243.258125 39.74484)scale(0.08 -0.08)">
     <use xlink:href="#DejaVuSans-71"/>
     <use xlink:href="#DejaVuSans-32" x="63.476562"/>
    </g>
   </g>
   <g id="text_17">
    <!-- b1 -->
    <g transform="translate(342.489375 56.688983)scale(0.08 -0.08)">
     <use xlink:href="#DejaVuSans-62"/>
     <use xlink:href="#DejaVuSans-31" x="63.476562"/>
    </g>
   </g>
   <g id="text_18">
    <!-- q1 -->
    <g transform="translate(435.518672 39.74484)scale(0.08 -0.08)">
     <use xlink:href="#DejaVuSans-71"/>
     <use xlink:href="#DejaVuSans-31" x="63.476562"/>
    </g>
   </g>
  </g>
  <g id="axes_2">
   <g id="patch_12">
    <path d="M 49.88 279.293333 
L 446.805 279.293333 
L 446.805 182.676078 
L 49.88 182.676078 
z
" style="fill: #ffffff"/>
   </g>
   <g id="matplotlib.axis_3">
    <g id="xtick_10">
     <g id="line2d_15">
      <g>
       <use xlink:href="#m1b5c85cee3" x="49.88" y="279.293333" style="stroke: #000000; stroke-width: 0.8"/>
      </g>
     </g>
     <g id="text_19">
      <!-- 0 -->
      <g transform="translate(46.69875 293.891771)scale(0.1 -0.1)">
       <use xlink:href="#DejaVuSans-30"/>
      </g>
     </g>
    </g>
    <g id="xtick_11">
     <g id="line2d_16">
      <g>
       <use xlink:href="#m1b5c85cee3" x="99.495625" y="279.293333" style="stroke: #000000; stroke-width: 0.8"/>
      </g>
     </g>
     <g id="text_20">
      <!-- 1 -->
      <g transform="translate(96.314375 293.891771)scale(0.1 -0.1)">
       <use xlink:href="#DejaVuSans-31"/>
      </g>
     </g>
    </g>
    <g id="xtick_12">
     <g id="line2d_17">
      <g>
       <use xlink:href="#m1b5c85cee3" x="149.11125" y="279.293333" style="stroke: #000000; stroke-width: 0.8"/>
      </g>
     </g>
     <g id="text_21">
      <!-- 2 -->
      <g transform="translate(145.93 293.891771)scale(0.1 -0.1)">
       <use xlink:href="#DejaVuSans-32"/>
      </g>
     </g>
    </g>
    <g id="xtick_13">
     <g id="line2d_18">
      <g>
       <use xlink:href="#m1b5c85cee3" x="198.726875" y="279.293333" style="stroke: #000000; stroke-width: 0.8"/>
      </g>
     </g>
     <g id="text_22">
      <!-- 3 -->
      <g transform="translate(195.545625 293.891771)scale(0.1 -0.1)">
       <use xlink:href="#DejaVuSans-33"/>
      </g>
     </g>
    </g>
    <g id="xtick_14">
     <g id="line2d_19">
      <g>
       <use xlink:href="#m1b5c85cee3" x="248.3425" y="279.293333" style="stroke: #000000; stroke-width: 0.8"/>
      </g>
     </g>
     <g id="text_23">
      <!-- 4 -->
      <g transform="translate(245.16125 293.891771)scale(0.1 -0.1)">
       <use xlink:href="#DejaVuSans-34"/>
      </g>
     </g>
    </g>
    <g id="xtick_15">
     <g id="line2d_20">
      <g>
       <use xlink:href="#m1b5c85cee3" x="297.958125" y="279.293333" style="stroke: #000000; stroke-width: 0.8"/>
      </g>
     </g>
     <g id="text_24">
      <!-- 5 -->
      <g transform="translate(294.776875 293.891771)scale(0.1 -0.1)">
       <use xlink:href="#DejaVuSans-35"/>
      </g>
     </g>
    </g>
    <g id="xtick_16">
     <g id="line2d_21">
      <g>
       <use xlink:href="#m1b5c85cee3" x="347.57375" y="279.293333" style="stroke: #000000; stroke-width: 0.8"/>
      </g>
     </g>
     <g id="text_25">
      <!-- 6 -->
      <g transform="translate(344.3925 293.891771)scale(0.1 -0.1)">
       <use xlink:href="#DejaVuSans-36"/>
      </g>
     </g>
    </g>
    <g id="xtick_17">
     <g id="line2d_22">
      <g>
       <use xlink:href="#m1b5c85cee3" x="397.189375" y="279.293333" style="stroke: #000000; stroke-width: 0.8"/>
      </g>
     </g>
     <g id="text_26">
      <!-- 7 -->
      <g transform="translate(394.008125 293.891771)scale(0.1 -0.1)">
       <use xlink:href="#DejaVuSans-37"/>
      </g>
     </g>
    </g>
    <g id="xtick_18">
     <g id="line2d_23">
      <g>
       <use xlink:href="#m1b5c85cee3" x="446.805" y="279.293333" style="stroke: #000000; stroke-width: 0.8"/>
      </g>
     </g>
     <g id="text_27">
      <!-- 8 -->
      <g transform="translate(443.62375 293.891771)scale(0.1 -0.1)">
       <use xlink:href="#DejaVuSans-38"/>
      </g>
     </g>
    </g>
   </g>
   <g id="matplotlib.axis_4">
    <g id="ytick_4">
     <g id="line2d_24">
      <g>
       <use xlink:href="#md612d8602d" x="49.88" y="264.274631" style="stroke: #000000; stroke-width: 0.8"/>
      </g>
     </g>
     <g id="text_28">
      <!-- −2 -->
      <g transform="translate(28.137813 268.07385)scale(0.1 -0.1)">
       <defs>
        <path id="DejaVuSans-2212" d="M 678 2272 
L 4684 2272 
L 4684 1741 
L 678 1741 
L 678 2272 
z
" transform="scale(0.015625)"/>
       </defs>
       <use xlink:href="#DejaVuSans-2212"/>
       <use xlink:href="#DejaVuSans-32" x="83.789062"/>
      </g>
     </g>
    </g>
    <g id="ytick_5">
     <g id="line2d_25">
      <g>
       <use xlink:href="#md612d8602d" x="49.88" y="233.285117" style="stroke: #000000; stroke-width: 0.8"/>
      </g>
     </g>
     <g id="text_29">
      <!-- 0 -->
      <g transform="translate(36.5175 237.084335)scale(0.1 -0.1)">
       <use xlink:href="#DejaVuSans-30"/>
      </g>
     </g>
    </g>
    <g id="ytick_6">
     <g id="line2d_26">
      <g>
       <use xlink:href="#md612d8602d" x="49.88" y="202.295602" style="stroke: #000000; stroke-width: 0.8"/>
      </g>
     </g>
     <g id="text_30">
      <!-- 2 -->
      <g transform="translate(36.5175 206.094821)scale(0.1 -0.1)">
       <use xlink:href="#DejaVuSans-32"/>
      </g>
     </g>
    </g>
    <g id="text_31">
     <!-- $\alpha_u$ / m -->
     <g transform="translate(22.058125 246.384706)rotate(-90)scale(0.1 -0.1)">
      <defs>
       <path id="DejaVuSans-Oblique-3b1" d="M 2619 1628 
L 2622 2350 
Q 2625 3088 2069 3091 
Q 1653 3094 1394 2747 
Q 1069 2319 959 1747 
Q 825 1059 994 731 
Q 1169 397 1547 397 
Q 1966 397 2319 1063 
L 2619 1628 
z
M 2166 3578 
Q 3141 3594 3128 2584 
Q 3128 2584 3616 3500 
L 4128 3500 
L 3119 1603 
L 3109 919 
Q 3109 766 3194 638 
Q 3291 488 3391 488 
L 3669 488 
L 3575 0 
L 3228 0 
Q 2934 0 2722 263 
Q 2622 394 2619 669 
Q 2416 334 2066 50 
Q 1900 -81 1453 -78 
Q 722 -72 456 397 
Q 184 884 353 1747 
Q 534 2675 1009 3097 
Q 1544 3569 2166 3578 
z
" transform="scale(0.015625)"/>
      </defs>
      <use xlink:href="#DejaVuSans-Oblique-3b1" transform="translate(0 0.09375)"/>
      <use xlink:href="#DejaVuSans-Oblique-75" transform="translate(65.917969 -16.3125)scale(0.7)"/>
      <use xlink:href="#DejaVuSans-20" transform="translate(113.017578 0.09375)"/>
      <use xlink:href="#DejaVuSans-2f" transform="translate(144.804688 0.09375)"/>
      <use xlink:href="#DejaVuSans-20" transform="translate(178.496094 0.09375)"/>
      <use xlink:href="#DejaVuSans-6d" transform="translate(210.283203 0.09375)"/>
     </g>
    </g>
   </g>
   <g id="line2d_27">
    <path d="M 49.88 233.285117 
L 51.120391 228.961251 
L 52.360781 224.646032 
L 53.601172 220.348088 
L 54.841563 216.076014 
L 56.081953 211.838352 
L 57.322344 207.643577 
L 58.562734 203.500076 
L 59.803125 199.416135 
L 61.043516 195.399921 
L 62.283906 191.459465 
L 67.245469 192.420517 
L 72.207031 193.381568 
L 77.168594 194.342619 
L 82.130156 195.303671 
L 87.091719 196.264722 
L 92.053281 197.225774 
L 97.014844 198.186825 
L 101.976406 199.147876 
L 106.937969 200.108928 
L 111.899531 201.069979 
L 119.341875 203.786081 
L 126.784219 204.833364 
L 134.226562 205.924517 
L 141.668906 207.057858 
L 149.11125 208.23164 
L 156.553594 209.444052 
L 163.995937 210.693225 
L 171.438281 211.977234 
L 178.880625 213.294098 
L 186.322969 215.3933 
L 191.284531 216.354351 
L 196.246094 217.315403 
L 201.207656 218.276454 
L 206.169219 219.237506 
L 211.130781 220.198557 
L 216.092344 221.159608 
L 221.053906 222.12066 
L 226.015469 223.081711 
L 230.977031 224.042763 
L 235.938594 225.003814 
L 238.419375 226.738254 
L 240.900156 228.420285 
L 243.380938 230.063371 
L 245.861719 231.680666 
L 248.3425 233.285117 
L 250.823281 234.889567 
L 253.304062 236.506862 
L 255.784844 238.149948 
L 258.265625 239.831979 
L 260.746406 241.566419 
L 265.707969 242.527471 
L 270.669531 243.488522 
L 275.631094 244.449574 
L 280.592656 245.410625 
L 285.554219 246.371676 
L 290.515781 247.332728 
L 295.477344 248.293779 
L 300.438906 249.254831 
L 305.400469 250.215882 
L 310.362031 251.176933 
L 317.804375 253.276136 
L 325.246719 254.593 
L 332.689062 255.877008 
L 340.131406 257.126182 
L 347.57375 258.338594 
L 355.016094 259.512375 
L 362.458437 260.645717 
L 369.900781 261.73687 
L 377.343125 262.784152 
L 384.785469 265.500254 
L 389.747031 266.461306 
L 394.708594 267.422357 
L 399.670156 268.383408 
L 404.631719 269.34446 
L 409.593281 270.305511 
L 414.554844 271.266563 
L 419.516406 272.227614 
L 424.477969 273.188665 
L 429.439531 274.149717 
L 434.401094 275.110768 
L 435.641484 271.170312 
L 436.881875 267.154098 
L 438.122266 263.070157 
L 439.362656 258.926657 
L 440.603047 254.731881 
L 441.843437 250.49422 
L 443.083828 246.222145 
L 444.324219 241.924201 
L 445.564609 237.608982 
L 446.805 233.285117 
" clip-path="url(#p460716359a)" style="fill: none; stroke: #ef4444; stroke-width: 1.5; stroke-linecap: square"/>
   </g>
   <g id="line2d_28">
    <path d="M 49.88 233.285117 
L 51.120391 234.035041 
L 52.360781 234.786465 
L 53.601172 235.540892 
L 54.841563 236.299832 
L 56.081953 237.064802 
L 57.322344 237.837332 
L 58.562734 238.618969 
L 59.803125 239.411275 
L 61.043516 240.215836 
L 62.283906 241.03426 
L 67.245469 242.113918 
L 72.207031 243.193576 
L 77.168594 244.273234 
L 82.130156 245.352892 
L 87.091719 246.43255 
L 92.053281 247.512208 
L 97.014844 248.591866 
L 101.976406 249.671524 
L 106.937969 250.751182 
L 111.899531 251.83084 
L 119.341875 252.682537 
L 126.784219 254.231643 
L 134.226562 255.780749 
L 141.668906 257.329854 
L 149.11125 258.87896 
L 156.553594 260.428065 
L 163.995937 261.977171 
L 171.438281 263.526276 
L 178.880625 265.075382 
L 186.322969 264.937174 
L 191.284531 265.886121 
L 196.246094 266.835068 
L 201.207656 267.784014 
L 206.169219 268.732961 
L 211.130781 269.681908 
L 216.092344 270.630855 
L 221.053906 271.579802 
L 226.015469 272.528749 
L 230.977031 273.477696 
L 235.938594 274.426643 
L 238.419375 266.600116 
L 240.900156 258.507248 
L 243.380938 250.212737 
L 245.861719 241.782895 
L 248.3425 233.285117 
L 250.823281 224.787338 
L 253.304062 216.357496 
L 255.784844 208.062985 
L 258.265625 199.970117 
L 260.746406 192.143591 
L 265.707969 193.092538 
L 270.669531 194.041485 
L 275.631094 194.990431 
L 280.592656 195.939378 
L 285.554219 196.888325 
L 290.515781 197.837272 
L 295.477344 198.786219 
L 300.438906 199.735166 
L 305.400469 200.684113 
L 310.362031 201.63306 
L 317.804375 201.494852 
L 325.246719 203.043957 
L 332.689062 204.593063 
L 340.131406 206.142168 
L 347.57375 207.691274 
L 355.016094 209.240379 
L 362.458437 210.789485 
L 369.900781 212.33859 
L 377.343125 213.887696 
L 384.785469 214.739394 
L 389.747031 215.819052 
L 394.708594 216.89871 
L 399.670156 217.978368 
L 404.631719 219.058026 
L 409.593281 220.137684 
L 414.554844 221.217342 
L 419.516406 222.297 
L 424.477969 223.376658 
L 429.439531 224.456316 
L 434.401094 225.535974 
L 435.641484 226.354398 
L 436.881875 227.158958 
L 438.122266 227.951264 
L 439.362656 228.732901 
L 440.603047 229.505432 
L 441.843437 230.270402 
L 443.083828 231.029341 
L 444.324219 231.783769 
L 445.564609 232.535193 
L 446.805 233.285117 
" clip-path="url(#p460716359a)" style="fill: none; stroke: #3b82f6; stroke-width: 1.5; stroke-linecap: square"/>
   </g>
   <g id="patch_13">
    <path d="M 49.88 279.293333 
L 49.88 182.676078 
" style="fill: none; stroke: #000000; stroke-width: 0.8; stroke-linejoin: miter; stroke-linecap: square"/>
   </g>
   <g id="patch_14">
    <path d="M 446.805 279.293333 
L 446.805 182.676078 
" style="fill: none; stroke: #000000; stroke-width: 0.8; stroke-linejoin: miter; stroke-linecap: square"/>
   </g>
   <g id="patch_15">
    <path d="M 49.88 279.293333 
L 446.805 279.293333 
" style="fill: none; stroke: #000000; stroke-width: 0.8; stroke-linejoin: miter; stroke-linecap: square"/>
   </g>
   <g id="patch_16">
    <path d="M 49.88 182.676078 
L 446.805 182.676078 
" style="fill: none; stroke: #000000; stroke-width: 0.8; stroke-linejoin: miter; stroke-linecap: square"/>
   </g>
   <g id="patch_17">
    <path d="M 49.88 184.976489 
L 62.283906 184.976489 
L 62.283906 180.375668 
L 49.88 180.375668 
z
" style="fill: #ef4444"/>
   </g>
   <g id="patch_18">
    <path d="M 111.899531 184.976489 
L 186.322969 184.976489 
L 186.322969 180.375668 
L 111.899531 180.375668 
z
" style="fill: #fbbf24"/>
   </g>
   <g id="patch_19">
    <path d="M 235.938594 184.976489 
L 260.746406 184.976489 
L 260.746406 180.375668 
L 235.938594 180.375668 
z
" style="fill: #ef4444"/>
   </g>
   <g id="patch_20">
    <path d="M 310.362031 184.976489 
L 384.785469 184.976489 
L 384.785469 180.375668 
L 310.362031 180.375668 
z
" style="fill: #fbbf24"/>
   </g>
   <g id="patch_21">
    <path d="M 434.401094 184.976489 
L 446.805 184.976489 
L 446.805 180.375668 
L 434.401094 180.375668 
z
" style="fill: #ef4444"/>
   </g>
   <g id="text_32">
    <!-- q1 -->
    <g transform="translate(50.997578 176.411507)scale(0.08 -0.08)">
     <use xlink:href="#DejaVuSans-71"/>
     <use xlink:href="#DejaVuSans-31" x="63.476562"/>
    </g>
   </g>
   <g id="text_33">
    <!-- b1 -->
    <g transform="translate(144.026875 193.35565)scale(0.08 -0.08)">
     <use xlink:href="#DejaVuSans-62"/>
     <use xlink:href="#DejaVuSans-31" x="63.476562"/>
    </g>
   </g>
   <g id="text_34">
    <!-- q2 -->
    <g transform="translate(243.258125 176.411507)scale(0.08 -0.08)">
     <use xlink:href="#DejaVuSans-71"/>
     <use xlink:href="#DejaVuSans-32" x="63.476562"/>
    </g>
   </g>
   <g id="text_35">
    <!-- b1 -->
    <g transform="translate(342.489375 193.35565)scale(0.08 -0.08)">
     <use xlink:href="#DejaVuSans-62"/>
     <use xlink:href="#DejaVuSans-31" x="63.476562"/>
    </g>
   </g>
   <g id="text_36">
    <!-- q1 -->
    <g transform="translate(435.518672 176.411507)scale(0.08 -0.08)">
     <use xlink:href="#DejaVuSans-71"/>
     <use xlink:href="#DejaVuSans-31" x="63.476562"/>
    </g>
   </g>
  </g>
  <g id="axes_3">
   <g id="patch_22">
    <path d="M 49.88 415.96 
L 446.805 415.96 
L 446.805 319.342745 
L 49.88 319.342745 
z
" style="fill: #ffffff"/>
   </g>
   <g id="matplotlib.axis_5">
    <g id="xtick_19">
     <g id="line2d_29">
      <g>
       <use xlink:href="#m1b5c85cee3" x="49.88" y="415.96" style="stroke: #000000; stroke-width: 0.8"/>
      </g>
     </g>
     <g id="text_37">
      <!-- 0 -->
      <g transform="translate(46.69875 430.558437)scale(0.1 -0.1)">
       <use xlink:href="#DejaVuSans-30"/>
      </g>
     </g>
    </g>
    <g id="xtick_20">
     <g id="line2d_30">
      <g>
       <use xlink:href="#m1b5c85cee3" x="99.495625" y="415.96" style="stroke: #000000; stroke-width: 0.8"/>
      </g>
     </g>
     <g id="text_38">
      <!-- 1 -->
      <g transform="translate(96.314375 430.558437)scale(0.1 -0.1)">
       <use xlink:href="#DejaVuSans-31"/>
      </g>
     </g>
    </g>
    <g id="xtick_21">
     <g id="line2d_31">
      <g>
       <use xlink:href="#m1b5c85cee3" x="149.11125" y="415.96" style="stroke: #000000; stroke-width: 0.8"/>
      </g>
     </g>
     <g id="text_39">
      <!-- 2 -->
      <g transform="translate(145.93 430.558437)scale(0.1 -0.1)">
       <use xlink:href="#DejaVuSans-32"/>
      </g>
     </g>
    </g>
    <g id="xtick_22">
     <g id="line2d_32">
      <g>
       <use xlink:href="#m1b5c85cee3" x="198.726875" y="415.96" style="stroke: #000000; stroke-width: 0.8"/>
      </g>
     </g>
     <g id="text_40">
      <!-- 3 -->
      <g transform="translate(195.545625 430.558437)scale(0.1 -0.1)">
       <use xlink:href="#DejaVuSans-33"/>
      </g>
     </g>
    </g>
    <g id="xtick_23">
     <g id="line2d_33">
      <g>
       <use xlink:href="#m1b5c85cee3" x="248.3425" y="415.96" style="stroke: #000000; stroke-width: 0.8"/>
      </g>
     </g>
     <g id="text_41">
      <!-- 4 -->
      <g transform="translate(245.16125 430.558437)scale(0.1 -0.1)">
       <use xlink:href="#DejaVuSans-34"/>
      </g>
     </g>
    </g>
    <g id="xtick_24">
     <g id="line2d_34">
      <g>
       <use xlink:href="#m1b5c85cee3" x="297.958125" y="415.96" style="stroke: #000000; stroke-width: 0.8"/>
      </g>
     </g>
     <g id="text_42">
      <!-- 5 -->
      <g transform="translate(294.776875 430.558437)scale(0.1 -0.1)">
       <use xlink:href="#DejaVuSans-35"/>
      </g>
     </g>
    </g>
    <g id="xtick_25">
     <g id="line2d_35">
      <g>
       <use xlink:href="#m1b5c85cee3" x="347.57375" y="415.96" style="stroke: #000000; stroke-width: 0.8"/>
      </g>
     </g>
     <g id="text_43">
      <!-- 6 -->
      <g transform="translate(344.3925 430.558437)scale(0.1 -0.1)">
       <use xlink:href="#DejaVuSans-36"/>
      </g>
     </g>
    </g>
    <g id="xtick_26">
     <g id="line2d_36">
      <g>
       <use xlink:href="#m1b5c85cee3" x="397.189375" y="415.96" style="stroke: #000000; stroke-width: 0.8"/>
      </g>
     </g>
     <g id="text_44">
      <!-- 7 -->
      <g transform="translate(394.008125 430.558437)scale(0.1 -0.1)">
       <use xlink:href="#DejaVuSans-37"/>
      </g>
     </g>
    </g>
    <g id="xtick_27">
     <g id="line2d_37">
      <g>
       <use xlink:href="#m1b5c85cee3" x="446.805" y="415.96" style="stroke: #000000; stroke-width: 0.8"/>
      </g>
     </g>
     <g id="text_45">
      <!-- 8 -->
      <g transform="translate(443.62375 430.558437)scale(0.1 -0.1)">
       <use xlink:href="#DejaVuSans-38"/>
      </g>
     </g>
    </g>
    <g id="text_46">
     <!-- orbit position $s$ / m -->
     <g transform="translate(201.3425 444.238125)scale(0.1 -0.1)">
      <defs>
       <path id="DejaVuSans-6f" d="M 1959 3097 
Q 1497 3097 1228 2736 
Q 959 2375 959 1747 
Q 959 1119 1226 758 
Q 1494 397 1959 397 
Q 2419 397 2687 759 
Q 2956 1122 2956 1747 
Q 2956 2369 2687 2733 
Q 2419 3097 1959 3097 
z
M 1959 3584 
Q 2709 3584 3137 3096 
Q 3566 2609 3566 1747 
Q 3566 888 3137 398 
Q 2709 -91 1959 -91 
Q 1206 -91 779 398 
Q 353 888 353 1747 
Q 353 2609 779 3096 
Q 1206 3584 1959 3584 
z
" transform="scale(0.015625)"/>
       <path id="DejaVuSans-72" d="M 2631 2963 
Q 2534 3019 2420 3045 
Q 2306 3072 2169 3072 
Q 1681 3072 1420 2755 
Q 1159 2438 1159 1844 
L 1159 0 
L 581 0 
L 581 3500 
L 1159 3500 
L 1159 2956 
Q 1341 3275 1631 3429 
Q 1922 3584 2338 3584 
Q 2397 3584 2469 3576 
Q 2541 3569 2628 3553 
L 2631 2963 
z
" transform="scale(0.015625)"/>
       <path id="DejaVuSans-69" d="M 603 3500 
L 1178 3500 
L 1178 0 
L 603 0 
L 603 3500 
z
M 603 4863 
L 1178 4863 
L 1178 4134 
L 603 4134 
L 603 4863 
z
" transform="scale(0.015625)"/>
       <path id="DejaVuSans-74" d="M 1172 4494 
L 1172 3500 
L 2356 3500 
L 2356 3053 
L 1172 3053 
L 1172 1153 
Q 1172 725 1289 603 
Q 1406 481 1766 481 
L 2356 481 
L 2356 0 
L 1766 0 
Q 1100 0 847 248 
Q 594 497 594 1153 
L 594 3053 
L 172 3053 
L 172 3500 
L 594 3500 
L 594 4494 
L 1172 4494 
z
" transform="scale(0.015625)"/>
       <path id="DejaVuSans-70" d="M 1159 525 
L 1159 -1331 
L 581 -1331 
L 581 3500 
L 1159 3500 
L 1159 2969 
Q 1341 3281 1617 3432 
Q 1894 3584 2278 3584 
Q 2916 3584 3314 3078 
Q 3713 2572 3713 1747 
Q 3713 922 3314 415 
Q 2916 -91 2278 -91 
Q 1894 -91 1617 61 
Q 1341 213 1159 525 
z
M 3116 1747 
Q 3116 2381 2855 2742 
Q 2594 3103 2138 3103 
Q 1681 3103 1420 2742 
Q 1159 2381 1159 1747 
Q 1159 1113 1420 752 
Q 1681 391 2138 391 
Q 2594 391 2855 752 
Q 3116 1113 3116 1747 
z
" transform="scale(0.015625)"/>
       <path id="DejaVuSans-73" d="M 2834 3397 
L 2834 2853 
Q 2591 2978 2328 3040 
Q 2066 3103 1784 3103 
Q 1356 3103 1142 2972 
Q 928 2841 928 2578 
Q 928 2378 1081 2264 
Q 1234 2150 1697 2047 
L 1894 2003 
Q 2506 1872 2764 1633 
Q 3022 1394 3022 966 
Q 3022 478 2636 193 
Q 2250 -91 1575 -91 
Q 1294 -91 989 -36 
Q 684 19 347 128 
L 347 722 
Q 666 556 975 473 
Q 1284 391 1588 391 
Q 1994 391 2212 530 
Q 2431 669 2431 922 
Q 2431 1156 2273 1281 
Q 2116 1406 1581 1522 
L 1381 1569 
Q 847 1681 609 1914 
Q 372 2147 372 2553 
Q 372 3047 722 3315 
Q 1072 3584 1716 3584 
Q 2034 3584 2315 3537 
Q 2597 3491 2834 3397 
z
" transform="scale(0.015625)"/>
       <path id="DejaVuSans-6e" d="M 3513 2113 
L 3513 0 
L 2938 0 
L 2938 2094 
Q 2938 2591 2744 2837 
Q 2550 3084 2163 3084 
Q 1697 3084 1428 2787 
Q 1159 2491 1159 1978 
L 1159 0 
L 581 0 
L 581 3500 
L 1159 3500 
L 1159 2956 
Q 1366 3272 1645 3428 
Q 1925 3584 2291 3584 
Q 2894 3584 3203 3211 
Q 3513 2838 3513 2113 
z
" transform="scale(0.015625)"/>
       <path id="DejaVuSans-Oblique-73" d="M 3200 3397 
L 3091 2853 
Q 2863 2978 2609 3040 
Q 2356 3103 2088 3103 
Q 1634 3103 1373 2948 
Q 1113 2794 1113 2528 
Q 1113 2219 1719 2053 
Q 1766 2041 1788 2034 
L 1972 1978 
Q 2547 1819 2739 1644 
Q 2931 1469 2931 1166 
Q 2931 609 2489 259 
Q 2047 -91 1331 -91 
Q 1053 -91 747 -37 
Q 441 16 72 128 
L 184 722 
Q 500 559 806 475 
Q 1113 391 1394 391 
Q 1816 391 2080 572 
Q 2344 753 2344 1031 
Q 2344 1331 1650 1516 
L 1591 1531 
L 1394 1581 
Q 956 1697 753 1886 
Q 550 2075 550 2369 
Q 550 2928 970 3256 
Q 1391 3584 2113 3584 
Q 2397 3584 2667 3537 
Q 2938 3491 3200 3397 
z
" transform="scale(0.015625)"/>
      </defs>
      <use xlink:href="#DejaVuSans-6f" transform="translate(0 0.015625)"/>
      <use xlink:href="#DejaVuSans-72" transform="translate(61.181641 0.015625)"/>
      <use xlink:href="#DejaVuSans-62" transform="translate(102.294922 0.015625)"/>
      <use xlink:href="#DejaVuSans-69" transform="translate(165.771484 0.015625)"/>
      <use xlink:href="#DejaVuSans-74" transform="translate(193.554688 0.015625)"/>
      <use xlink:href="#DejaVuSans-20" transform="translate(232.763672 0.015625)"/>
      <use xlink:href="#DejaVuSans-70" transform="translate(264.550781 0.015625)"/>
      <use xlink:href="#DejaVuSans-6f" transform="translate(328.027344 0.015625)"/>
      <use xlink:href="#DejaVuSans-73" transform="translate(389.208984 0.015625)"/>
      <use xlink:href="#DejaVuSans-69" transform="translate(441.308594 0.015625)"/>
      <use xlink:href="#DejaVuSans-74" transform="translate(469.091797 0.015625)"/>
      <use xlink:href="#DejaVuSans-69" transform="translate(508.300781 0.015625)"/>
      <use xlink:href="#DejaVuSans-6f" transform="translate(536.083984 0.015625)"/>
      <use xlink:href="#DejaVuSans-6e" transform="translate(597.265625 0.015625)"/>
      <use xlink:href="#DejaVuSans-20" transform="translate(660.644531 0.015625)"/>
      <use xlink:href="#DejaVuSans-Oblique-73" transform="translate(692.431641 0.015625)"/>
      <use xlink:href="#DejaVuSans-20" transform="translate(744.53125 0.015625)"/>
      <use xlink:href="#DejaVuSans-2f" transform="translate(776.318359 0.015625)"/>
      <use xlink:href="#DejaVuSans-20" transform="translate(810.009766 0.015625)"/>
      <use xlink:href="#DejaVuSans-6d" transform="translate(841.796875 0.015625)"/>
     </g>
    </g>
   </g>
   <g id="matplotlib.axis_6">
    <g id="ytick_7">
     <g id="line2d_38">
      <g>
       <use xlink:href="#md612d8602d" x="49.88" y="411.777435" style="stroke: #000000; stroke-width: 0.8"/>
      </g>
     </g>
     <g id="text_47">
      <!-- 0 -->
      <g transform="translate(36.5175 415.576654)scale(0.1 -0.1)">
       <use xlink:href="#DejaVuSans-30"/>
      </g>
     </g>
    </g>
    <g id="ytick_8">
     <g id="line2d_39">
      <g>
       <use xlink:href="#md612d8602d" x="49.88" y="367.788356" style="stroke: #000000; stroke-width: 0.8"/>
      </g>
     </g>
     <g id="text_48">
      <!-- 1 -->
      <g transform="translate(36.5175 371.587575)scale(0.1 -0.1)">
       <use xlink:href="#DejaVuSans-31"/>
      </g>
     </g>
    </g>
    <g id="ytick_9">
     <g id="line2d_40">
      <g>
       <use xlink:href="#md612d8602d" x="49.88" y="323.799278" style="stroke: #000000; stroke-width: 0.8"/>
      </g>
     </g>
     <g id="text_49">
      <!-- 2 -->
      <g transform="translate(36.5175 327.598496)scale(0.1 -0.1)">
       <use xlink:href="#DejaVuSans-32"/>
      </g>
     </g>
    </g>
    <g id="text_50">
     <!-- $\psi_u$ / m -->
     <g transform="translate(30.4175 383.051373)rotate(-90)scale(0.1 -0.1)">
      <defs>
       <path id="DejaVuSans-Oblique-3c8" d="M 1591 -78 
Q 891 38 616 341 
Q 278 713 425 1472 
L 819 3500 
L 1400 3500 
L 1009 1494 
Q 900 922 1119 684 
Q 1313 478 1691 434 
L 2284 3500 
L 2856 3500 
L 2263 438 
Q 2681 481 2928 688 
Q 3247 950 3353 1497 
L 3741 3500 
L 4322 3500 
L 3928 1475 
Q 3775 688 3300 344 
Q 2872 34 2163 -75 
L 1919 -1331 
L 1347 -1331 
L 1591 -78 
z
" transform="scale(0.015625)"/>
      </defs>
      <use xlink:href="#DejaVuSans-Oblique-3c8" transform="translate(0 0.09375)"/>
      <use xlink:href="#DejaVuSans-Oblique-75" transform="translate(65.966797 -16.3125)scale(0.7)"/>
      <use xlink:href="#DejaVuSans-20" transform="translate(113.066406 0.09375)"/>
      <use xlink:href="#DejaVuSans-2f" transform="translate(144.853516 0.09375)"/>
      <use xlink:href="#DejaVuSans-20" transform="translate(178.544922 0.09375)"/>
      <use xlink:href="#DejaVuSans-6d" transform="translate(210.332031 0.09375)"/>
     </g>
    </g>
   </g>
   <g id="line2d_41">
    <path d="M 49.88 411.777435 
L 51.120391 411.699122 
L 52.360781 411.620732 
L 53.601172 411.542186 
L 54.841563 411.463405 
L 56.081953 411.384309 
L 57.322344 411.304817 
L 58.562734 411.224847 
L 59.803125 411.144314 
L 61.043516 411.063131 
L 62.283906 410.981208 
L 67.245469 410.645099 
L 72.207031 410.294876 
L 77.168594 409.929678 
L 82.130156 409.548578 
L 87.091719 409.150575 
L 92.053281 408.734589 
L 97.014844 408.299452 
L 101.976406 407.843902 
L 106.937969 407.366573 
L 111.899531 406.865987 
L 119.341875 406.069173 
L 126.784219 405.213345 
L 134.226562 404.291683 
L 141.668906 403.296402 
L 149.11125 402.218602 
L 156.553594 401.048109 
L 163.995937 399.773298 
L 171.438281 398.380911 
L 178.880625 396.855889 
L 186.322969 395.181237 
L 191.284531 393.974781 
L 196.246094 392.69147 
L 201.207656 391.326129 
L 206.169219 389.873533 
L 211.130781 388.328538 
L 216.092344 386.686237 
L 221.053906 384.942178 
L 226.015469 383.092621 
L 230.977031 381.134855 
L 235.938594 379.067559 
L 238.419375 377.993933 
L 240.900156 376.897727 
L 243.380938 375.784118 
L 245.861719 374.658676 
L 248.3425 373.527248 
L 250.823281 372.39582 
L 253.304062 371.270378 
L 255.784844 370.156769 
L 258.265625 369.060563 
L 260.746406 367.986937 
L 265.707969 365.919641 
L 270.669531 363.961876 
L 275.631094 362.112319 
L 280.592656 360.368259 
L 285.554219 358.725959 
L 290.515781 357.180963 
L 295.477344 355.728368 
L 300.438906 354.363026 
L 305.400469 353.079715 
L 310.362031 351.873259 
L 317.804375 350.198607 
L 325.246719 348.673586 
L 332.689062 347.281198 
L 340.131406 346.006387 
L 347.57375 344.835894 
L 355.016094 343.758094 
L 362.458437 342.762813 
L 369.900781 341.841152 
L 377.343125 340.985323 
L 384.785469 340.188509 
L 389.747031 339.687923 
L 394.708594 339.210594 
L 399.670156 338.755044 
L 404.631719 338.319908 
L 409.593281 337.903921 
L 414.554844 337.505918 
L 419.516406 337.124818 
L 424.477969 336.75962 
L 429.439531 336.409397 
L 434.401094 336.073288 
L 435.641484 335.991366 
L 436.881875 335.910183 
L 438.122266 335.82965 
L 439.362656 335.749679 
L 440.603047 335.670188 
L 441.843437 335.591092 
L 443.083828 335.51231 
L 444.324219 335.433764 
L 445.564609 335.355374 
L 446.805 335.277061 
" clip-path="url(#paff09ec764)" style="fill: none; stroke: #ef4444; stroke-width: 1.5; stroke-linecap: square"/>
   </g>
   <g id="line2d_42">
    <path d="M 49.88 411.777435 
L 51.120391 411.119595 
L 52.360781 410.462706 
L 53.601172 409.807712 
L 54.841563 409.155544 
L 56.081953 408.507116 
L 57.322344 407.863315 
L 58.562734 407.225002 
L 59.803125 406.593 
L 61.043516 405.968095 
L 62.283906 405.351029 
L 67.245469 402.968156 
L 72.207031 400.723468 
L 77.168594 398.615983 
L 82.130156 396.64232 
L 87.091719 394.797355 
L 92.053281 393.074792 
L 97.014844 391.467636 
L 101.976406 389.968555 
L 106.937969 388.57016 
L 111.899531 387.2652 
L 119.341875 385.463626 
L 126.784219 383.829374 
L 134.226562 382.344123 
L 141.668906 380.991358 
L 149.11125 379.756363 
L 156.553594 378.626119 
L 163.995937 377.589163 
L 171.438281 376.635428 
L 178.880625 375.75608 
L 186.322969 374.943371 
L 191.284531 374.434757 
L 196.246094 373.949738 
L 201.207656 373.48682 
L 206.169219 373.044622 
L 211.130781 372.621866 
L 216.092344 372.217371 
L 221.053906 371.830043 
L 226.015469 371.458869 
L 230.977031 371.102908 
L 235.938594 370.761288 
L 238.419375 370.59546 
L 240.900156 370.43228 
L 243.380938 370.271048 
L 245.861719 370.111098 
L 248.3425 369.951783 
L 250.823281 369.792469 
L 253.304062 369.632519 
L 255.784844 369.471287 
L 258.265625 369.308107 
L 260.746406 369.142279 
L 265.707969 368.800659 
L 270.669531 368.444698 
L 275.631094 368.073523 
L 280.592656 367.686196 
L 285.554219 367.281701 
L 290.515781 366.858945 
L 295.477344 366.416747 
L 300.438906 365.953829 
L 305.400469 365.46881 
L 310.362031 364.960196 
L 317.804375 364.147487 
L 325.246719 363.268139 
L 332.689062 362.314404 
L 340.131406 361.277448 
L 347.57375 360.147204 
L 355.016094 358.912209 
L 362.458437 357.559444 
L 369.900781 356.074193 
L 377.343125 354.439941 
L 384.785469 352.638367 
L 389.747031 351.333407 
L 394.708594 349.935012 
L 399.670156 348.435931 
L 404.631719 346.828775 
L 409.593281 345.106212 
L 414.554844 343.261247 
L 419.516406 341.287584 
L 424.477969 339.180099 
L 429.439531 336.93541 
L 434.401094 334.552538 
L 435.641484 333.935472 
L 436.881875 333.310567 
L 438.122266 332.678565 
L 439.362656 332.040252 
L 440.603047 331.396451 
L 441.843437 330.748023 
L 443.083828 330.095855 
L 444.324219 329.44086 
L 445.564609 328.783971 
L 446.805 328.126132 
" clip-path="url(#paff09ec764)" style="fill: none; stroke: #3b82f6; stroke-width: 1.5; stroke-linecap: square"/>
   </g>
   <g id="patch_23">
    <path d="M 49.88 415.96 
L 49.88 319.342745 
" style="fill: none; stroke: #000000; stroke-width: 0.8; stroke-linejoin: miter; stroke-linecap: square"/>
   </g>
   <g id="patch_24">
    <path d="M 446.805 415.96 
L 446.805 319.342745 
" style="fill: none; stroke: #000000; stroke-width: 0.8; stroke-linejoin: miter; stroke-linecap: square"/>
   </g>
   <g id="patch_25">
    <path d="M 49.88 415.96 
L 446.805 415.96 
" style="fill: none; stroke: #000000; stroke-width: 0.8; stroke-linejoin: miter; stroke-linecap: square"/>
   </g>
   <g id="patch_26">
    <path d="M 49.88 319.342745 
L 446.805 319.342745 
" style="fill: none; stroke: #000000; stroke-width: 0.8; stroke-linejoin: miter; stroke-linecap: square"/>
   </g>
   <g id="patch_27">
    <path d="M 49.88 321.643156 
L 62.283906 321.643156 
L 62.283906 317.042334 
L 49.88 317.042334 
z
" style="fill: #ef4444"/>
   </g>
   <g id="patch_28">
    <path d="M 111.899531 321.643156 
L 186.322969 321.643156 
L 186.322969 317.042334 
L 111.899531 317.042334 
z
" style="fill: #fbbf24"/>
   </g>
   <g id="patch_29">
    <path d="M 235.938594 321.643156 
L 260.746406 321.643156 
L 260.746406 317.042334 
L 235.938594 317.042334 
z
" style="fill: #ef4444"/>
   </g>
   <g id="patch_30">
    <path d="M 310.362031 321.643156 
L 384.785469 321.643156 
L 384.785469 317.042334 
L 310.362031 317.042334 
z
" style="fill: #fbbf24"/>
   </g>
   <g id="patch_31">
    <path d="M 434.401094 321.643156 
L 446.805 321.643156 
L 446.805 317.042334 
L 434.401094 317.042334 
z
" style="fill: #ef4444"/>
   </g>
   <g id="text_51">
    <!-- q1 -->
    <g transform="translate(50.997578 313.078173)scale(0.08 -0.08)">
     <use xlink:href="#DejaVuSans-71"/>
     <use xlink:href="#DejaVuSans-31" x="63.476562"/>
    </g>
   </g>
   <g id="text_52">
    <!-- b1 -->
    <g transform="translate(144.026875 330.022317)scale(0.08 -0.08)">
     <use xlink:href="#DejaVuSans-62"/>
     <use xlink:href="#DejaVuSans-31" x="63.476562"/>
    </g>
   </g>
   <g id="text_53">
    <!-- q2 -->
    <g transform="translate(243.258125 313.078173)scale(0.08 -0.08)">
     <use xlink:href="#DejaVuSans-71"/>
     <use xlink:href="#DejaVuSans-32" x="63.476562"/>
    </g>
   </g>
   <g id="text_54">
    <!-- b1 -->
    <g transform="translate(342.489375 330.022317)scale(0.08 -0.08)">
     <use xlink:href="#DejaVuSans-62"/>
     <use xlink:href="#DejaVuSans-31" x="63.476562"/>
    </g>
   </g>
   <g id="text_55">
    <!-- q1 -->
    <g transform="translate(435.518672 313.078173)scale(0.08 -0.08)">
     <use xlink:href="#DejaVuSans-71"/>
     <use xlink:href="#DejaVuSans-31" x="63.476562"/>
    </g>
   </g>
  </g>
  <g id="legend_1">
   <g id="line2d_43">
    <path d="M 9 13.2 
L 19 13.2 
L 29 13.2 
" style="fill: none; stroke: #ef4444; stroke-width: 1.5; stroke-linecap: square"/>
   </g>
   <g id="text_56">
    <!-- $\beta_\mathrm{x}$ / m -->
    <g transform="translate(37 16.7)scale(0.1 -0.1)">
     <defs>
      <path id="DejaVuSans-78" d="M 3513 3500 
L 2247 1797 
L 3578 0 
L 2900 0 
L 1881 1375 
L 863 0 
L 184 0 
L 1544 1831 
L 300 3500 
L 978 3500 
L 1906 2253 
L 2834 3500 
L 3513 3500 
z
" transform="scale(0.015625)"/>
     </defs>
     <use xlink:href="#DejaVuSans-Oblique-3b2" transform="translate(0 0.390625)"/>
     <use xlink:href="#DejaVuSans-78" transform="translate(63.818359 -16.015625)scale(0.7)"/>
     <use xlink:href="#DejaVuSans-20" transform="translate(107.978516 0.390625)"/>
     <use xlink:href="#DejaVuSans-2f" transform="translate(139.765625 0.390625)"/>
     <use xlink:href="#DejaVuSans-20" transform="translate(173.457031 0.390625)"/>
     <use xlink:href="#DejaVuSans-6d" transform="translate(205.244141 0.390625)"/>
    </g>
   </g>
   <g id="line2d_44">
    <path d="M 87.3 13.2 
L 97.3 13.2 
L 107.3 13.2 
" style="fill: none; stroke: #3b82f6; stroke-width: 1.5; stroke-linecap: square"/>
   </g>
   <g id="text_57">
    <!-- $\beta_\mathrm{y}$ / m -->
    <g transform="translate(115.3 16.7)scale(0.1 -0.1)">
     <defs>
      <path id="DejaVuSans-79" d="M 2059 -325 
Q 1816 -950 1584 -1140 
Q 1353 -1331 966 -1331 
L 506 -1331 
L 506 -850 
L 844 -850 
Q 1081 -850 1212 -737 
Q 1344 -625 1503 -206 
L 1606 56 
L 191 3500 
L 800 3500 
L 1894 763 
L 2988 3500 
L 3597 3500 
L 2059 -325 
z
" transform="scale(0.015625)"/>
     </defs>
     <use xlink:href="#DejaVuSans-Oblique-3b2" transform="translate(0 0.390625)"/>
     <use xlink:href="#DejaVuSans-79" transform="translate(63.818359 -16.015625)scale(0.7)"/>
     <use xlink:href="#DejaVuSans-20" transform="translate(107.978516 0.390625)"/>
     <use xlink:href="#DejaVuSans-2f" transform="translate(139.765625 0.390625)"/>
     <use xlink:href="#DejaVuSans-20" transform="translate(173.457031 0.390625)"/>
     <use xlink:href="#DejaVuSans-6d" transform="translate(205.244141 0.390625)"/>
    </g>
   </g>
   <g id="line2d_45">
    <path d="M 165.6 13.2 
L 175.6 13.2 
L 185.6 13.2 
" style="fill: none; stroke: #ef4444; stroke-width: 1.5; stroke-linecap: square"/>
   </g>
   <g id="text_58">
    <!-- $\alpha_\mathrm{x}$ / m -->
    <g transform="translate(193.6 16.7)scale(0.1 -0.1)">
     <use xlink:href="#DejaVuSans-Oblique-3b1" transform="translate(0 0.09375)"/>
     <use xlink:href="#DejaVuSans-78" transform="translate(65.917969 -16.3125)scale(0.7)"/>
     <use xlink:href="#DejaVuSans-20" transform="translate(110.078125 0.09375)"/>
     <use xlink:href="#DejaVuSans-2f" transform="translate(141.865234 0.09375)"/>
     <use xlink:href="#DejaVuSans-20" transform="translate(175.556641 0.09375)"/>
     <use xlink:href="#DejaVuSans-6d" transform="translate(207.34375 0.09375)"/>
    </g>
   </g>
   <g id="line2d_46">
    <path d="M 244.1 13.2 
L 254.1 13.2 
L 264.1 13.2 
" style="fill: none; stroke: #3b82f6; stroke-width: 1.5; stroke-linecap: square"/>
   </g>
   <g id="text_59">
    <!-- $\alpha_\mathrm{y}$ / m -->
    <g transform="translate(272.1 16.7)scale(0.1 -0.1)">
     <use xlink:href="#DejaVuSans-Oblique-3b1" transform="translate(0 0.09375)"/>
     <use xlink:href="#DejaVuSans-79" transform="translate(65.917969 -16.3125)scale(0.7)"/>
     <use xlink:href="#DejaVuSans-20" transform="translate(110.078125 0.09375)"/>
     <use xlink:href="#DejaVuSans-2f" transform="translate(141.865234 0.09375)"/>
     <use xlink:href="#DejaVuSans-20" transform="translate(175.556641 0.09375)"/>
     <use xlink:href="#DejaVuSans-6d" transform="translate(207.34375 0.09375)"/>
    </g>
   </g>
   <g id="line2d_47">
    <path d="M 322.6 13.2 
L 332.6 13.2 
L 342.6 13.2 
" style="fill: none; stroke: #ef4444; stroke-width: 1.5; stroke-linecap: square"/>
   </g>
   <g id="text_60">
    <!-- $\psi_\mathrm{x}$ / m -->
    <g transform="translate(350.6 16.7)scale(0.1 -0.1)">
     <use xlink:href="#DejaVuSans-Oblique-3c8" transform="translate(0 0.09375)"/>
     <use xlink:href="#DejaVuSans-78" transform="translate(65.966797 -16.3125)scale(0.7)"/>
     <use xlink:href="#DejaVuSans-20" transform="translate(110.126953 0.09375)"/>
     <use xlink:href="#DejaVuSans-2f" transform="translate(141.914062 0.09375)"/>
     <use xlink:href="#DejaVuSans-20" transform="translate(175.605469 0.09375)"/>
     <use xlink:href="#DejaVuSans-6d" transform="translate(207.392578 0.09375)"/>
    </g>
   </g>
   <g id="line2d_48">
    <path d="M 401.1 13.2 
L 411.1 13.2 
L 421.1 13.2 
" style="fill: none; stroke: #3b82f6; stroke-width: 1.5; stroke-linecap: square"/>
   </g>
   <g id="text_61">
    <!-- $\psi_\mathrm{y}$ / m -->
    <g transform="translate(429.1 16.7)scale(0.1 -0.1)">
     <use xlink:href="#DejaVuSans-Oblique-3c8" transform="translate(0 0.09375)"/>
     <use xlink:href="#DejaVuSans-79" transform="translate(65.966797 -16.3125)scale(0.7)"/>
     <use xlink:href="#DejaVuSans-20" transform="translate(110.126953 0.09375)"/>
     <use xlink:href="#DejaVuSans-2f" transform="translate(141.914062 0.09375)"/>
     <use xlink:href="#DejaVuSans-20" transform="translate(175.605469 0.09375)"/>
     <use xlink:href="#DejaVuSans-6d" transform="translate(207.392578 0.09375)"/>
    </g>
   </g>
  </g>
 </g>
 <defs>
  <clipPath id="pf47529a47e">
   <rect x="49.88" y="46.009412" width="396.925" height="96.617255"/>
  </clipPath>
  <clipPath id="p460716359a">
   <rect x="49.88" y="182.676078" width="396.925" height="96.617255"/>
  </clipPath>
  <clipPath id="paff09ec764">
   <rect x="49.88" y="319.342745" width="396.925" height="96.617255"/>
  </clipPath>
 </defs>
</svg>
