<svg width="1100" height="447" viewBox="0 0 1100 447" fill="none" xmlns="http://www.w3.org/2000/svg">
<path d="M67 227H1032" stroke="black" stroke-width="2"/>
<path d="M217 377L227 382.774L227 371.226L217 377ZM883 377L873 371.227L873 382.774L883 377ZM226 378L874 378L874 376L226 376L226 378Z" fill="black"/>
<path d="M883 77L883 377" stroke="black" stroke-width="2" stroke-dasharray="10 10"/>
<mask id="path-4-inside-1" fill="white">
<path fill-rule="evenodd" clip-rule="evenodd" d="M883 327C898.832 298.085 908 263.784 908 227C908 190.216 898.832 155.915 883 127C867.168 155.915 858 190.216 858 227C858 263.784 867.168 298.085 883 327Z"/>
</mask>
<path fill-rule="evenodd" clip-rule="evenodd" d="M883 327C898.832 298.085 908 263.784 908 227C908 190.216 898.832 155.915 883 127C867.168 155.915 858 190.216 858 227C858 263.784 867.168 298.085 883 327Z" fill="white"/>
<path d="M883 327L881.246 327.96L883 331.164L884.754 327.96L883 327ZM883 127L884.754 126.039L883 122.836L881.246 126.039L883 127ZM906 227C906 263.452 896.914 297.423 881.246 326.039L884.754 327.96C900.749 298.748 910 264.116 910 227H906ZM881.246 127.961C896.914 156.577 906 190.548 906 227H910C910 189.884 900.749 155.252 884.754 126.039L881.246 127.961ZM860 227C860 190.548 869.086 156.577 884.754 127.961L881.246 126.039C865.251 155.252 856 189.884 856 227H860ZM884.754 326.039C869.086 297.423 860 263.452 860 227H856C856 264.116 865.251 298.748 881.246 327.96L884.754 326.039Z" fill="black" mask="url(#path-4-inside-1)"/>
<path d="M217 77L217 377" stroke="black" stroke-width="2" stroke-dasharray="10 10"/>
<mask id="path-7-inside-2" fill="white">
<path fill-rule="evenodd" clip-rule="evenodd" d="M217 327C232.832 298.085 242 263.784 242 227C242 190.216 232.832 155.915 217 127C201.168 155.915 192 190.216 192 227C192 263.784 201.168 298.085 217 327Z"/>
</mask>
<path fill-rule="evenodd" clip-rule="evenodd" d="M217 327C232.832 298.085 242 263.784 242 227C242 190.216 232.832 155.915 217 127C201.168 155.915 192 190.216 192 227C192 263.784 201.168 298.085 217 327Z" fill="white"/>
<path d="M217 327L215.246 327.96L217 331.164L218.754 327.96L217 327ZM217 127L218.754 126.039L217 122.836L215.246 126.039L217 127ZM240 227C240 263.452 230.914 297.423 215.246 326.039L218.754 327.96C234.749 298.748 244 264.116 244 227H240ZM215.246 127.961C230.914 156.577 240 190.548 240 227H244C244 189.884 234.749 155.252 218.754 126.039L215.246 127.961ZM194 227C194 190.548 203.086 156.577 218.754 127.961L215.246 126.039C199.251 155.252 190 189.884 190 227H194ZM218.754 326.039C203.086 297.423 194 263.452 194 227H190C190 264.116 199.251 298.748 215.246 327.96L218.754 326.039Z" fill="black" mask="url(#path-7-inside-2)"/>
<mask id="path-9-inside-3" fill="white">
<path fill-rule="evenodd" clip-rule="evenodd" d="M515 327C531.323 297.926 540.773 263.449 540.773 226.479C540.773 189.95 531.547 155.854 515.58 127H584.42C568.453 155.854 559.227 189.95 559.227 226.479C559.227 263.449 568.677 297.926 585 327H515Z"/>
</mask>
<path fill-rule="evenodd" clip-rule="evenodd" d="M515 327C531.323 297.926 540.773 263.449 540.773 226.479C540.773 189.95 531.547 155.854 515.58 127H584.42C568.453 155.854 559.227 189.95 559.227 226.479C559.227 263.449 568.677 297.926 585 327H515Z" fill="white"/>
<path d="M515 327L513.256 326.021L511.584 329H515V327ZM515.58 127V125H512.188L513.83 127.968L515.58 127ZM584.42 127L586.17 127.968L587.812 125H584.42V127ZM585 327V329H588.417L586.744 326.021L585 327ZM538.773 226.479C538.773 263.107 529.41 297.247 513.256 326.021L516.744 327.979C533.235 298.605 542.773 263.79 542.773 226.479H538.773ZM513.83 127.968C529.632 156.525 538.773 190.288 538.773 226.479H542.773C542.773 189.613 533.461 155.184 517.33 126.032L513.83 127.968ZM584.42 125H515.58V129H584.42V125ZM561.227 226.479C561.227 190.288 570.368 156.525 586.17 127.968L582.67 126.032C566.539 155.184 557.227 189.613 557.227 226.479H561.227ZM586.744 326.021C570.59 297.247 561.227 263.107 561.227 226.479H557.227C557.227 263.79 566.765 298.605 583.256 327.979L586.744 326.021ZM515 329H585V325H515V329Z" fill="black" mask="url(#path-9-inside-3)"/>
<path d="M495.495 400C494.847 396.42 491.984 394.307 488.472 394.307C484.006 394.307 480.768 397.75 480.768 403.273C480.768 408.795 484.006 412.239 488.472 412.239C491.984 412.239 494.847 410.125 495.495 406.545H493.381C492.87 408.966 490.79 410.261 488.472 410.261C485.302 410.261 482.813 407.807 482.813 403.273C482.813 398.739 485.302 396.284 488.472 396.284C490.79 396.284 492.87 397.58 493.381 400H495.495ZM504.126 412.273C506.786 412.273 508.729 410.943 509.342 408.966L507.399 408.42C506.888 409.784 505.703 410.466 504.126 410.466C501.766 410.466 500.138 408.94 500.044 406.136H509.547V405.284C509.547 400.409 506.649 398.739 503.922 398.739C500.376 398.739 498.024 401.534 498.024 405.557C498.024 409.58 500.342 412.273 504.126 412.273ZM500.044 404.398C500.18 402.361 501.621 400.545 503.922 400.545C506.104 400.545 507.501 402.182 507.501 404.398H500.044ZM514.618 394.545H512.607V412H514.618V394.545ZM520.313 394.545H518.302V412H520.313V394.545ZM532.759 394.545H530.747V412H532.759V394.545ZM541.931 412.273C544.59 412.273 546.533 410.943 547.147 408.966L545.204 408.42C544.692 409.784 543.508 410.466 541.931 410.466C539.57 410.466 537.942 408.94 537.849 406.136H547.352V405.284C547.352 400.409 544.454 398.739 541.727 398.739C538.181 398.739 535.829 401.534 535.829 405.557C535.829 409.58 538.147 412.273 541.931 412.273ZM537.849 404.398C537.985 402.361 539.425 400.545 541.727 400.545C543.908 400.545 545.306 402.182 545.306 404.398H537.849ZM552.423 404.125C552.423 401.841 553.837 400.545 555.763 400.545C557.63 400.545 558.763 401.764 558.763 403.818V412H560.775V403.682C560.775 400.341 558.994 398.739 556.343 398.739C554.366 398.739 553.138 399.625 552.525 400.955H552.354V398.909H550.411V412H552.423V404.125ZM569.734 417.182C572.871 417.182 575.393 415.75 575.393 412.375V398.909H573.45V400.989H573.246C572.803 400.307 571.984 398.739 569.428 398.739C566.121 398.739 563.837 401.364 563.837 405.386C563.837 409.477 566.223 411.795 569.393 411.795C571.95 411.795 572.768 410.295 573.212 409.58H573.382V412.239C573.382 414.42 571.848 415.409 569.734 415.409C567.357 415.409 566.521 414.156 565.984 413.432L564.382 414.557C565.2 415.929 566.811 417.182 569.734 417.182ZM569.666 409.989C567.143 409.989 565.848 408.08 565.848 405.352C565.848 402.693 567.109 400.545 569.666 400.545C572.121 400.545 573.416 402.523 573.416 405.352C573.416 408.25 572.087 409.989 569.666 409.989ZM584.768 398.909H581.973V395.773H579.962V398.909H577.984V400.614H579.962V408.795C579.962 411.08 581.803 412.17 583.507 412.17C584.257 412.17 584.734 412.034 585.007 411.932L584.598 410.125C584.428 410.159 584.155 410.227 583.712 410.227C582.825 410.227 581.973 409.955 581.973 408.25V400.614H584.768V398.909ZM590.087 404.125C590.087 401.841 591.544 400.545 593.53 400.545C595.422 400.545 596.564 401.739 596.564 403.818V412H598.575V403.682C598.575 400.315 596.786 398.739 594.109 398.739C592.047 398.739 590.871 399.599 590.257 400.955H590.087V394.545H588.075V412H590.087V404.125ZM608.187 412H618.414L618.721 410.125H610.607L613.198 394.545H611.085L608.187 412Z" fill="black"/>
<path d="M113.122 45.125C113.122 42.8409 114.579 41.5455 116.565 41.5455C118.457 41.5455 119.599 42.7386 119.599 44.8182V53H121.61V44.6818C121.61 41.3153 119.821 39.7386 117.145 39.7386C115.082 39.7386 113.906 40.5994 113.292 41.9545H113.122V35.5455H111.11V53H113.122V45.125ZM130.608 53.2727C134.154 53.2727 136.54 50.5795 136.54 46.5227C136.54 42.4318 134.154 39.7386 130.608 39.7386C127.063 39.7386 124.676 42.4318 124.676 46.5227C124.676 50.5795 127.063 53.2727 130.608 53.2727ZM130.608 51.4659C127.915 51.4659 126.688 49.1477 126.688 46.5227C126.688 43.8977 127.915 41.5455 130.608 41.5455C133.301 41.5455 134.529 43.8977 134.529 46.5227C134.529 49.1477 133.301 51.4659 130.608 51.4659ZM139.61 53H141.622V44.7159C141.622 42.9432 143.02 41.6477 144.929 41.6477C145.466 41.6477 146.02 41.75 146.156 41.7841V39.7386C145.926 39.7216 145.397 39.7045 145.099 39.7045C143.531 39.7045 142.167 40.5909 141.69 41.8864H141.554V39.9091H139.61V53ZM148.54 53H150.551V39.9091H148.54V53ZM149.563 37.7273C150.347 37.7273 150.995 37.1136 150.995 36.3636C150.995 35.6136 150.347 35 149.563 35C148.779 35 148.131 35.6136 148.131 36.3636C148.131 37.1136 148.779 37.7273 149.563 37.7273ZM153.86 53H164.122V51.125H156.656V50.9886L163.883 41.5114V39.9091H154.099V41.7841H161.292V41.9205L153.86 51.4659V53ZM172.163 53.2727C175.708 53.2727 178.095 50.5795 178.095 46.5227C178.095 42.4318 175.708 39.7386 172.163 39.7386C168.618 39.7386 166.231 42.4318 166.231 46.5227C166.231 50.5795 168.618 53.2727 172.163 53.2727ZM172.163 51.4659C169.47 51.4659 168.243 49.1477 168.243 46.5227C168.243 43.8977 169.47 41.5455 172.163 41.5455C174.856 41.5455 176.083 43.8977 176.083 46.5227C176.083 49.1477 174.856 51.4659 172.163 51.4659ZM183.176 45.125C183.176 42.8409 184.591 41.5455 186.517 41.5455C188.384 41.5455 189.517 42.7642 189.517 44.8182V53H191.529V44.6818C191.529 41.3409 189.748 39.7386 187.097 39.7386C185.12 39.7386 183.892 40.625 183.279 41.9545H183.108V39.9091H181.165V53H183.176V45.125ZM200.897 39.9091H198.102V36.7727H196.091V39.9091H194.113V41.6136H196.091V49.7955C196.091 52.0795 197.931 53.1705 199.636 53.1705C200.386 53.1705 200.863 53.0341 201.136 52.9318L200.727 51.125C200.556 51.1591 200.284 51.2273 199.841 51.2273C198.954 51.2273 198.102 50.9545 198.102 49.25V41.6136H200.897V39.9091ZM207.775 53.3068C210.059 53.3068 211.252 52.0795 211.662 51.2273H211.764V53H213.775V44.375C213.775 40.2159 210.605 39.7386 208.934 39.7386C206.957 39.7386 204.707 40.4205 203.684 42.8068L205.593 43.4886C206.037 42.5341 207.085 41.5114 209.002 41.5114C210.852 41.5114 211.764 42.4915 211.764 44.1705V44.2386C211.764 45.2102 210.775 45.125 208.389 45.4318C205.96 45.7472 203.309 46.2841 203.309 49.2841C203.309 51.8409 205.287 53.3068 207.775 53.3068ZM208.082 51.5C206.48 51.5 205.321 50.7841 205.321 49.3864C205.321 47.8523 206.718 47.375 208.287 47.1705C209.139 47.0682 211.423 46.8295 211.764 46.4205V48.2614C211.764 49.8977 210.468 51.5 208.082 51.5ZM219.458 35.5455H217.446V53H219.458V35.5455ZM235.721 39.9091H232.789V38.5795C232.789 37.2841 233.335 36.6023 234.664 36.6023C235.244 36.6023 235.585 36.7386 235.789 36.8068L236.369 35.0682C236.062 34.9318 235.449 34.7273 234.46 34.7273C232.585 34.7273 230.778 35.8523 230.778 38.1023V39.9091H228.664V41.6136H230.778V53H232.789V41.6136H235.721V39.9091ZM243.319 53.2727C246.865 53.2727 249.251 50.5795 249.251 46.5227C249.251 42.4318 246.865 39.7386 243.319 39.7386C239.774 39.7386 237.387 42.4318 237.387 46.5227C237.387 50.5795 239.774 53.2727 243.319 53.2727ZM243.319 51.4659C240.626 51.4659 239.399 49.1477 239.399 46.5227C239.399 43.8977 240.626 41.5455 243.319 41.5455C246.012 41.5455 247.24 43.8977 247.24 46.5227C247.24 49.1477 246.012 51.4659 243.319 51.4659ZM257.64 53.2727C260.537 53.2727 262.446 51.5 262.787 49.1818H260.776C260.401 50.6136 259.208 51.4659 257.64 51.4659C255.253 51.4659 253.719 49.4886 253.719 46.4545C253.719 43.4886 255.287 41.5455 257.64 41.5455C259.412 41.5455 260.469 42.6364 260.776 43.8295H262.787C262.446 41.375 260.367 39.7386 257.605 39.7386C254.06 39.7386 251.708 42.5341 251.708 46.5227C251.708 50.4432 253.958 53.2727 257.64 53.2727ZM273.978 47.6477C273.978 50.1023 272.103 51.2273 270.603 51.2273C268.932 51.2273 267.739 50 267.739 48.0909V39.9091H265.728V48.2273C265.728 51.5682 267.5 53.1705 269.955 53.1705C271.932 53.1705 273.228 52.1136 273.841 50.7841H273.978V53H275.989V39.9091H273.978V47.6477ZM288.946 42.8409C288.315 40.983 286.9 39.7386 284.309 39.7386C281.548 39.7386 279.502 41.3068 279.502 43.5227C279.502 45.3295 280.576 46.5398 282.98 47.1023L285.162 47.6136C286.483 47.9205 287.105 48.5511 287.105 49.4545C287.105 50.5795 285.912 51.5 284.037 51.5C282.392 51.5 281.36 50.7926 281.002 49.3864L279.093 49.8636C279.562 52.0881 281.395 53.2727 284.071 53.2727C287.113 53.2727 289.184 51.6108 289.184 49.3523C289.184 47.5284 288.042 46.3778 285.707 45.8068L283.764 45.3295C282.213 44.946 281.514 44.4261 281.514 43.4205C281.514 42.2955 282.707 41.4773 284.309 41.4773C286.065 41.4773 286.789 42.4489 287.139 43.3523L288.946 42.8409ZM292.212 53H294.223V39.9091H292.212V53ZM293.235 37.7273C294.019 37.7273 294.667 37.1136 294.667 36.3636C294.667 35.6136 294.019 35 293.235 35C292.451 35 291.803 35.6136 291.803 36.3636C291.803 37.1136 292.451 37.7273 293.235 37.7273ZM299.919 45.125C299.919 42.8409 301.333 41.5455 303.26 41.5455C305.126 41.5455 306.26 42.7642 306.26 44.8182V53H308.271V44.6818C308.271 41.3409 306.49 39.7386 303.839 39.7386C301.862 39.7386 300.635 40.625 300.021 41.9545H299.85V39.9091H297.907V53H299.919V45.125ZM317.23 58.1818C320.367 58.1818 322.89 56.75 322.89 53.375V39.9091H320.946V41.9886H320.742C320.299 41.3068 319.48 39.7386 316.924 39.7386C313.617 39.7386 311.333 42.3636 311.333 46.3864C311.333 50.4773 313.719 52.7955 316.89 52.7955C319.446 52.7955 320.265 51.2955 320.708 50.5795H320.878V53.2386C320.878 55.4205 319.344 56.4091 317.23 56.4091C314.853 56.4091 314.017 55.1562 313.48 54.4318L311.878 55.5568C312.696 56.929 314.307 58.1818 317.23 58.1818ZM317.162 50.9886C314.64 50.9886 313.344 49.0795 313.344 46.3523C313.344 43.6932 314.605 41.5455 317.162 41.5455C319.617 41.5455 320.912 43.5227 320.912 46.3523C320.912 49.25 319.583 50.9886 317.162 50.9886Z" fill="black"/>
<path d="M779.122 51.125C779.122 48.8409 780.579 47.5455 782.565 47.5455C784.457 47.5455 785.599 48.7386 785.599 50.8182V59H787.61V50.6818C787.61 47.3153 785.821 45.7386 783.145 45.7386C781.082 45.7386 779.906 46.5994 779.292 47.9545H779.122V41.5455H777.11V59H779.122V51.125ZM796.608 59.2727C800.154 59.2727 802.54 56.5795 802.54 52.5227C802.54 48.4318 800.154 45.7386 796.608 45.7386C793.063 45.7386 790.676 48.4318 790.676 52.5227C790.676 56.5795 793.063 59.2727 796.608 59.2727ZM796.608 57.4659C793.915 57.4659 792.688 55.1477 792.688 52.5227C792.688 49.8977 793.915 47.5455 796.608 47.5455C799.301 47.5455 800.529 49.8977 800.529 52.5227C800.529 55.1477 799.301 57.4659 796.608 57.4659ZM805.61 59H807.622V50.7159C807.622 48.9432 809.02 47.6477 810.929 47.6477C811.466 47.6477 812.02 47.75 812.156 47.7841V45.7386C811.926 45.7216 811.397 45.7045 811.099 45.7045C809.531 45.7045 808.167 46.5909 807.69 47.8864H807.554V45.9091H805.61V59ZM814.54 59H816.551V45.9091H814.54V59ZM815.563 43.7273C816.347 43.7273 816.995 43.1136 816.995 42.3636C816.995 41.6136 816.347 41 815.563 41C814.779 41 814.131 41.6136 814.131 42.3636C814.131 43.1136 814.779 43.7273 815.563 43.7273ZM819.86 59H830.122V57.125H822.656V56.9886L829.883 47.5114V45.9091H820.099V47.7841H827.292V47.9205L819.86 57.4659V59ZM838.163 59.2727C841.708 59.2727 844.095 56.5795 844.095 52.5227C844.095 48.4318 841.708 45.7386 838.163 45.7386C834.618 45.7386 832.231 48.4318 832.231 52.5227C832.231 56.5795 834.618 59.2727 838.163 59.2727ZM838.163 57.4659C835.47 57.4659 834.243 55.1477 834.243 52.5227C834.243 49.8977 835.47 47.5455 838.163 47.5455C840.856 47.5455 842.083 49.8977 842.083 52.5227C842.083 55.1477 840.856 57.4659 838.163 57.4659ZM849.176 51.125C849.176 48.8409 850.591 47.5455 852.517 47.5455C854.384 47.5455 855.517 48.7642 855.517 50.8182V59H857.529V50.6818C857.529 47.3409 855.748 45.7386 853.097 45.7386C851.12 45.7386 849.892 46.625 849.279 47.9545H849.108V45.9091H847.165V59H849.176V51.125ZM866.897 45.9091H864.102V42.7727H862.091V45.9091H860.113V47.6136H862.091V55.7955C862.091 58.0795 863.931 59.1705 865.636 59.1705C866.386 59.1705 866.863 59.0341 867.136 58.9318L866.727 57.125C866.556 57.1591 866.284 57.2273 865.841 57.2273C864.954 57.2273 864.102 56.9545 864.102 55.25V47.6136H866.897V45.9091ZM873.775 59.3068C876.059 59.3068 877.252 58.0795 877.662 57.2273H877.764V59H879.775V50.375C879.775 46.2159 876.605 45.7386 874.934 45.7386C872.957 45.7386 870.707 46.4205 869.684 48.8068L871.593 49.4886C872.037 48.5341 873.085 47.5114 875.002 47.5114C876.852 47.5114 877.764 48.4915 877.764 50.1705V50.2386C877.764 51.2102 876.775 51.125 874.389 51.4318C871.96 51.7472 869.309 52.2841 869.309 55.2841C869.309 57.8409 871.287 59.3068 873.775 59.3068ZM874.082 57.5C872.48 57.5 871.321 56.7841 871.321 55.3864C871.321 53.8523 872.718 53.375 874.287 53.1705C875.139 53.0682 877.423 52.8295 877.764 52.4205V54.2614C877.764 55.8977 876.468 57.5 874.082 57.5ZM885.458 41.5455H883.446V59H885.458V41.5455ZM901.721 45.9091H898.789V44.5795C898.789 43.2841 899.335 42.6023 900.664 42.6023C901.244 42.6023 901.585 42.7386 901.789 42.8068L902.369 41.0682C902.062 40.9318 901.449 40.7273 900.46 40.7273C898.585 40.7273 896.778 41.8523 896.778 44.1023V45.9091H894.664V47.6136H896.778V59H898.789V47.6136H901.721V45.9091ZM909.319 59.2727C912.865 59.2727 915.251 56.5795 915.251 52.5227C915.251 48.4318 912.865 45.7386 909.319 45.7386C905.774 45.7386 903.387 48.4318 903.387 52.5227C903.387 56.5795 905.774 59.2727 909.319 59.2727ZM909.319 57.4659C906.626 57.4659 905.399 55.1477 905.399 52.5227C905.399 49.8977 906.626 47.5455 909.319 47.5455C912.012 47.5455 913.24 49.8977 913.24 52.5227C913.24 55.1477 912.012 57.4659 909.319 57.4659ZM923.64 59.2727C926.537 59.2727 928.446 57.5 928.787 55.1818H926.776C926.401 56.6136 925.208 57.4659 923.64 57.4659C921.253 57.4659 919.719 55.4886 919.719 52.4545C919.719 49.4886 921.287 47.5455 923.64 47.5455C925.412 47.5455 926.469 48.6364 926.776 49.8295H928.787C928.446 47.375 926.367 45.7386 923.605 45.7386C920.06 45.7386 917.708 48.5341 917.708 52.5227C917.708 56.4432 919.958 59.2727 923.64 59.2727ZM939.978 53.6477C939.978 56.1023 938.103 57.2273 936.603 57.2273C934.932 57.2273 933.739 56 933.739 54.0909V45.9091H931.728V54.2273C931.728 57.5682 933.5 59.1705 935.955 59.1705C937.932 59.1705 939.228 58.1136 939.841 56.7841H939.978V59H941.989V45.9091H939.978V53.6477ZM954.946 48.8409C954.315 46.983 952.9 45.7386 950.309 45.7386C947.548 45.7386 945.502 47.3068 945.502 49.5227C945.502 51.3295 946.576 52.5398 948.98 53.1023L951.162 53.6136C952.483 53.9205 953.105 54.5511 953.105 55.4545C953.105 56.5795 951.912 57.5 950.037 57.5C948.392 57.5 947.36 56.7926 947.002 55.3864L945.093 55.8636C945.562 58.0881 947.395 59.2727 950.071 59.2727C953.113 59.2727 955.184 57.6108 955.184 55.3523C955.184 53.5284 954.042 52.3778 951.707 51.8068L949.764 51.3295C948.213 50.946 947.514 50.4261 947.514 49.4205C947.514 48.2955 948.707 47.4773 950.309 47.4773C952.065 47.4773 952.789 48.4489 953.139 49.3523L954.946 48.8409ZM958.212 59H960.223V45.9091H958.212V59ZM959.235 43.7273C960.019 43.7273 960.667 43.1136 960.667 42.3636C960.667 41.6136 960.019 41 959.235 41C958.451 41 957.803 41.6136 957.803 42.3636C957.803 43.1136 958.451 43.7273 959.235 43.7273ZM965.919 51.125C965.919 48.8409 967.333 47.5455 969.26 47.5455C971.126 47.5455 972.26 48.7642 972.26 50.8182V59H974.271V50.6818C974.271 47.3409 972.49 45.7386 969.839 45.7386C967.862 45.7386 966.635 46.625 966.021 47.9545H965.85V45.9091H963.907V59H965.919V51.125ZM983.23 64.1818C986.367 64.1818 988.89 62.75 988.89 59.375V45.9091H986.946V47.9886H986.742C986.299 47.3068 985.48 45.7386 982.924 45.7386C979.617 45.7386 977.333 48.3636 977.333 52.3864C977.333 56.4773 979.719 58.7955 982.89 58.7955C985.446 58.7955 986.265 57.2955 986.708 56.5795H986.878V59.2386C986.878 61.4205 985.344 62.4091 983.23 62.4091C980.853 62.4091 980.017 61.1562 979.48 60.4318L977.878 61.5568C978.696 62.929 980.307 64.1818 983.23 64.1818ZM983.162 56.9886C980.64 56.9886 979.344 55.0795 979.344 52.3523C979.344 49.6932 980.605 47.5455 983.162 47.5455C985.617 47.5455 986.912 49.5227 986.912 52.3523C986.912 55.25 985.583 56.9886 983.162 56.9886Z" fill="black"/>
<path d="M469.006 40.9091H466.825L463.211 51.3409H463.075L459.461 40.9091H457.279L462.12 54H464.165L469.006 40.9091ZM476.681 54.2727C479.34 54.2727 481.283 52.9432 481.897 50.9659L479.954 50.4205C479.442 51.7841 478.258 52.4659 476.681 52.4659C474.32 52.4659 472.692 50.9403 472.599 48.1364H482.102V47.2841C482.102 42.4091 479.204 40.7386 476.477 40.7386C472.931 40.7386 470.579 43.5341 470.579 47.5568C470.579 51.5795 472.897 54.2727 476.681 54.2727ZM472.599 46.3977C472.735 44.3608 474.175 42.5455 476.477 42.5455C478.658 42.5455 480.056 44.1818 480.056 46.3977H472.599ZM485.161 54H487.173V45.7159C487.173 43.9432 488.57 42.6477 490.479 42.6477C491.016 42.6477 491.57 42.75 491.707 42.7841V40.7386C491.477 40.7216 490.948 40.7045 490.65 40.7045C489.082 40.7045 487.718 41.5909 487.241 42.8864H487.104V40.9091H485.161V54ZM500.604 40.9091H497.809V37.7727H495.798V40.9091H493.82V42.6136H495.798V50.7955C495.798 53.0795 497.638 54.1705 499.343 54.1705C500.093 54.1705 500.57 54.0341 500.843 53.9318L500.434 52.125C500.263 52.1591 499.991 52.2273 499.548 52.2273C498.661 52.2273 497.809 51.9545 497.809 50.25V42.6136H500.604V40.9091ZM503.63 54H505.641V40.9091H503.63V54ZM504.653 38.7273C505.437 38.7273 506.085 38.1136 506.085 37.3636C506.085 36.6136 505.437 36 504.653 36C503.869 36 503.221 36.6136 503.221 37.3636C503.221 38.1136 503.869 38.7273 504.653 38.7273ZM514.643 54.2727C517.541 54.2727 519.45 52.5 519.791 50.1818H517.78C517.405 51.6136 516.212 52.4659 514.643 52.4659C512.257 52.4659 510.723 50.4886 510.723 47.4545C510.723 44.4886 512.291 42.5455 514.643 42.5455C516.416 42.5455 517.473 43.6364 517.78 44.8295H519.791C519.45 42.375 517.371 40.7386 514.609 40.7386C511.064 40.7386 508.712 43.5341 508.712 47.5227C508.712 51.4432 510.962 54.2727 514.643 54.2727ZM526.584 54.3068C528.868 54.3068 530.061 53.0795 530.47 52.2273H530.572V54H532.584V45.375C532.584 41.2159 529.413 40.7386 527.743 40.7386C525.766 40.7386 523.516 41.4205 522.493 43.8068L524.402 44.4886C524.845 43.5341 525.893 42.5114 527.811 42.5114C529.661 42.5114 530.572 43.4915 530.572 45.1705V45.2386C530.572 46.2102 529.584 46.125 527.197 46.4318C524.768 46.7472 522.118 47.2841 522.118 50.2841C522.118 52.8409 524.095 54.3068 526.584 54.3068ZM526.891 52.5C525.288 52.5 524.129 51.7841 524.129 50.3864C524.129 48.8523 525.527 48.375 527.095 48.1705C527.947 48.0682 530.232 47.8295 530.572 47.4205V49.2614C530.572 50.8977 529.277 52.5 526.891 52.5ZM538.266 36.5455H536.255V54H538.266V36.5455ZM554.53 40.9091H551.598V39.5795C551.598 38.2841 552.143 37.6023 553.473 37.6023C554.053 37.6023 554.393 37.7386 554.598 37.8068L555.178 36.0682C554.871 35.9318 554.257 35.7273 553.268 35.7273C551.393 35.7273 549.587 36.8523 549.587 39.1023V40.9091H547.473V42.6136H549.587V54H551.598V42.6136H554.53V40.9091ZM562.128 54.2727C565.673 54.2727 568.06 51.5795 568.06 47.5227C568.06 43.4318 565.673 40.7386 562.128 40.7386C558.582 40.7386 556.196 43.4318 556.196 47.5227C556.196 51.5795 558.582 54.2727 562.128 54.2727ZM562.128 52.4659C559.435 52.4659 558.207 50.1477 558.207 47.5227C558.207 44.8977 559.435 42.5455 562.128 42.5455C564.821 42.5455 566.048 44.8977 566.048 47.5227C566.048 50.1477 564.821 52.4659 562.128 52.4659ZM576.448 54.2727C579.346 54.2727 581.255 52.5 581.596 50.1818H579.585C579.21 51.6136 578.016 52.4659 576.448 52.4659C574.062 52.4659 572.528 50.4886 572.528 47.4545C572.528 44.4886 574.096 42.5455 576.448 42.5455C578.221 42.5455 579.278 43.6364 579.585 44.8295H581.596C581.255 42.375 579.175 40.7386 576.414 40.7386C572.869 40.7386 570.516 43.5341 570.516 47.5227C570.516 51.4432 572.766 54.2727 576.448 54.2727ZM592.786 48.6477C592.786 51.1023 590.911 52.2273 589.411 52.2273C587.741 52.2273 586.548 51 586.548 49.0909V40.9091H584.536V49.2273C584.536 52.5682 586.309 54.1705 588.763 54.1705C590.741 54.1705 592.036 53.1136 592.65 51.7841H592.786V54H594.798V40.9091H592.786V48.6477ZM607.754 43.8409C607.124 41.983 605.709 40.7386 603.118 40.7386C600.357 40.7386 598.311 42.3068 598.311 44.5227C598.311 46.3295 599.385 47.5398 601.788 48.1023L603.97 48.6136C605.291 48.9205 605.913 49.5511 605.913 50.4545C605.913 51.5795 604.72 52.5 602.845 52.5C601.2 52.5 600.169 51.7926 599.811 50.3864L597.902 50.8636C598.371 53.0881 600.203 54.2727 602.879 54.2727C605.922 54.2727 607.993 52.6108 607.993 50.3523C607.993 48.5284 606.851 47.3778 604.516 46.8068L602.572 46.3295C601.021 45.946 600.322 45.4261 600.322 44.4205C600.322 43.2955 601.516 42.4773 603.118 42.4773C604.874 42.4773 605.598 43.4489 605.947 44.3523L607.754 43.8409ZM611.021 54H613.032V40.9091H611.021V54ZM612.043 38.7273C612.827 38.7273 613.475 38.1136 613.475 37.3636C613.475 36.6136 612.827 36 612.043 36C611.259 36 610.612 36.6136 610.612 37.3636C610.612 38.1136 611.259 38.7273 612.043 38.7273ZM618.727 46.125C618.727 43.8409 620.142 42.5455 622.068 42.5455C623.935 42.5455 625.068 43.7642 625.068 45.8182V54H627.08V45.6818C627.08 42.3409 625.298 40.7386 622.648 40.7386C620.67 40.7386 619.443 41.625 618.83 42.9545H618.659V40.9091H616.716V54H618.727V46.125ZM636.039 59.1818C639.175 59.1818 641.698 57.75 641.698 54.375V40.9091H639.755V42.9886H639.55C639.107 42.3068 638.289 40.7386 635.732 40.7386C632.425 40.7386 630.141 43.3636 630.141 47.3864C630.141 51.4773 632.528 53.7955 635.698 53.7955C638.255 53.7955 639.073 52.2955 639.516 51.5795H639.687V54.2386C639.687 56.4205 638.153 57.4091 636.039 57.4091C633.661 57.4091 632.826 56.1562 632.289 55.4318L630.687 56.5568C631.505 57.929 633.116 59.1818 636.039 59.1818ZM635.971 51.9886C633.448 51.9886 632.153 50.0795 632.153 47.3523C632.153 44.6932 633.414 42.5455 635.971 42.5455C638.425 42.5455 639.721 44.5227 639.721 47.3523C639.721 50.25 638.391 51.9886 635.971 51.9886Z" fill="black"/>
</svg>
