<?xml version="1.0" encoding="utf-8" standalone="no"?>
<!DOCTYPE svg PUBLIC "-//W3C//DTD SVG 1.1//EN"
  "http://www.w3.org/Graphics/SVG/1.1/DTD/svg11.dtd">
<!-- Created with matplotlib (https://matplotlib.org/) -->
<svg height="460.8pt" version="1.1" viewBox="0 0 460.8 460.8" width="460.8pt" xmlns="http://www.w3.org/2000/svg" xmlns:xlink="http://www.w3.org/1999/xlink">
 <metadata>
  <rdf:RDF xmlns:cc="http://creativecommons.org/ns#" xmlns:dc="http://purl.org/dc/elements/1.1/" xmlns:rdf="http://www.w3.org/1999/02/22-rdf-syntax-ns#">
   <cc:Work>
    <dc:type rdf:resource="http://purl.org/dc/dcmitype/StillImage"/>
    <dc:date>2020-10-02T00:57:43.392168</dc:date>
    <dc:format>image/svg+xml</dc:format>
    <dc:creator>
     <cc:Agent>
      <dc:title>Matplotlib v3.3.1, https://matplotlib.org/</dc:title>
     </cc:Agent>
    </dc:creator>
   </cc:Work>
  </rdf:RDF>
 </metadata>
 <defs>
  <style type="text/css">*{stroke-linecap:butt;stroke-linejoin:round;}</style>
 </defs>
 <g id="figure_1">
  <g id="patch_1">
   <path d="M 0 460.8 
L 460.8 460.8 
L 460.8 0 
L 0 0 
z
" style="fill:#ffffff;"/>
  </g>
  <g id="axes_1">
   <g id="patch_2">
    <path d="M 33.73 119.92974 
L 438.54487 119.92974 
L 438.54487 43.485882 
L 33.73 43.485882 
z
" style="fill:#ffffff;"/>
   </g>
   <g id="matplotlib.axis_1">
    <g id="xtick_1">
     <g id="line2d_1">
      <path clip-path="url(#p770123bde8)" d="M 33.73 119.92974 
L 33.73 43.485882 
" style="fill:none;stroke:#b0b0b0;stroke-dasharray:2.96,1.28;stroke-dashoffset:0;stroke-width:0.8;"/>
     </g>
     <g id="line2d_2">
      <defs>
       <path d="M 0 0 
L 0 3.5 
" id="m43ac020229" style="stroke:#000000;stroke-width:0.8;"/>
      </defs>
      <g>
       <use style="stroke:#000000;stroke-width:0.8;" x="33.73" xlink:href="#m43ac020229" y="119.92974"/>
      </g>
     </g>
     <g id="text_1">
      <!-- 0.00 -->
      <g transform="translate(27.809086 148.046821)rotate(-45)scale(0.1 -0.1)">
       <defs>
        <path d="M 31.78125 66.40625 
Q 24.171875 66.40625 20.328125 58.90625 
Q 16.5 51.421875 16.5 36.375 
Q 16.5 21.390625 20.328125 13.890625 
Q 24.171875 6.390625 31.78125 6.390625 
Q 39.453125 6.390625 43.28125 13.890625 
Q 47.125 21.390625 47.125 36.375 
Q 47.125 51.421875 43.28125 58.90625 
Q 39.453125 66.40625 31.78125 66.40625 
z
M 31.78125 74.21875 
Q 44.046875 74.21875 50.515625 64.515625 
Q 56.984375 54.828125 56.984375 36.375 
Q 56.984375 17.96875 50.515625 8.265625 
Q 44.046875 -1.421875 31.78125 -1.421875 
Q 19.53125 -1.421875 13.0625 8.265625 
Q 6.59375 17.96875 6.59375 36.375 
Q 6.59375 54.828125 13.0625 64.515625 
Q 19.53125 74.21875 31.78125 74.21875 
z
" id="DejaVuSans-48"/>
        <path d="M 10.6875 12.40625 
L 21 12.40625 
L 21 0 
L 10.6875 0 
z
" id="DejaVuSans-46"/>
       </defs>
       <use xlink:href="#DejaVuSans-48"/>
       <use x="63.623047" xlink:href="#DejaVuSans-46"/>
       <use x="95.410156" xlink:href="#DejaVuSans-48"/>
       <use x="159.033203" xlink:href="#DejaVuSans-48"/>
      </g>
     </g>
    </g>
    <g id="xtick_2">
     <g id="line2d_3">
      <path clip-path="url(#p770123bde8)" d="M 46.380465 119.92974 
L 46.380465 43.485882 
" style="fill:none;stroke:#b0b0b0;stroke-dasharray:2.96,1.28;stroke-dashoffset:0;stroke-width:0.8;"/>
     </g>
     <g id="line2d_4">
      <g>
       <use style="stroke:#000000;stroke-width:0.8;" x="46.380465" xlink:href="#m43ac020229" y="119.92974"/>
      </g>
     </g>
     <g id="text_2">
      <!-- 0.25 -->
      <g transform="translate(40.45955 148.046821)rotate(-45)scale(0.1 -0.1)">
       <defs>
        <path d="M 19.1875 8.296875 
L 53.609375 8.296875 
L 53.609375 0 
L 7.328125 0 
L 7.328125 8.296875 
Q 12.9375 14.109375 22.625 23.890625 
Q 32.328125 33.6875 34.8125 36.53125 
Q 39.546875 41.84375 41.421875 45.53125 
Q 43.3125 49.21875 43.3125 52.78125 
Q 43.3125 58.59375 39.234375 62.25 
Q 35.15625 65.921875 28.609375 65.921875 
Q 23.96875 65.921875 18.8125 64.3125 
Q 13.671875 62.703125 7.8125 59.421875 
L 7.8125 69.390625 
Q 13.765625 71.78125 18.9375 73 
Q 24.125 74.21875 28.421875 74.21875 
Q 39.75 74.21875 46.484375 68.546875 
Q 53.21875 62.890625 53.21875 53.421875 
Q 53.21875 48.921875 51.53125 44.890625 
Q 49.859375 40.875 45.40625 35.40625 
Q 44.1875 33.984375 37.640625 27.21875 
Q 31.109375 20.453125 19.1875 8.296875 
z
" id="DejaVuSans-50"/>
        <path d="M 10.796875 72.90625 
L 49.515625 72.90625 
L 49.515625 64.59375 
L 19.828125 64.59375 
L 19.828125 46.734375 
Q 21.96875 47.46875 24.109375 47.828125 
Q 26.265625 48.1875 28.421875 48.1875 
Q 40.625 48.1875 47.75 41.5 
Q 54.890625 34.8125 54.890625 23.390625 
Q 54.890625 11.625 47.5625 5.09375 
Q 40.234375 -1.421875 26.90625 -1.421875 
Q 22.3125 -1.421875 17.546875 -0.640625 
Q 12.796875 0.140625 7.71875 1.703125 
L 7.71875 11.625 
Q 12.109375 9.234375 16.796875 8.0625 
Q 21.484375 6.890625 26.703125 6.890625 
Q 35.15625 6.890625 40.078125 11.328125 
Q 45.015625 15.765625 45.015625 23.390625 
Q 45.015625 31 40.078125 35.4375 
Q 35.15625 39.890625 26.703125 39.890625 
Q 22.75 39.890625 18.8125 39.015625 
Q 14.890625 38.140625 10.796875 36.28125 
z
" id="DejaVuSans-53"/>
       </defs>
       <use xlink:href="#DejaVuSans-48"/>
       <use x="63.623047" xlink:href="#DejaVuSans-46"/>
       <use x="95.410156" xlink:href="#DejaVuSans-50"/>
       <use x="159.033203" xlink:href="#DejaVuSans-53"/>
      </g>
     </g>
    </g>
    <g id="xtick_3">
     <g id="line2d_5">
      <path clip-path="url(#p770123bde8)" d="M 96.982323 119.92974 
L 96.982323 43.485882 
" style="fill:none;stroke:#b0b0b0;stroke-dasharray:2.96,1.28;stroke-dashoffset:0;stroke-width:0.8;"/>
     </g>
     <g id="line2d_6">
      <g>
       <use style="stroke:#000000;stroke-width:0.8;" x="96.982323" xlink:href="#m43ac020229" y="119.92974"/>
      </g>
     </g>
     <g id="text_3">
      <!-- 1.25 -->
      <g transform="translate(91.061409 148.046821)rotate(-45)scale(0.1 -0.1)">
       <defs>
        <path d="M 12.40625 8.296875 
L 28.515625 8.296875 
L 28.515625 63.921875 
L 10.984375 60.40625 
L 10.984375 69.390625 
L 28.421875 72.90625 
L 38.28125 72.90625 
L 38.28125 8.296875 
L 54.390625 8.296875 
L 54.390625 0 
L 12.40625 0 
z
" id="DejaVuSans-49"/>
       </defs>
       <use xlink:href="#DejaVuSans-49"/>
       <use x="63.623047" xlink:href="#DejaVuSans-46"/>
       <use x="95.410156" xlink:href="#DejaVuSans-50"/>
       <use x="159.033203" xlink:href="#DejaVuSans-53"/>
      </g>
     </g>
    </g>
    <g id="xtick_4">
     <g id="line2d_7">
      <path clip-path="url(#p770123bde8)" d="M 172.885112 119.92974 
L 172.885112 43.485882 
" style="fill:none;stroke:#b0b0b0;stroke-dasharray:2.96,1.28;stroke-dashoffset:0;stroke-width:0.8;"/>
     </g>
     <g id="line2d_8">
      <g>
       <use style="stroke:#000000;stroke-width:0.8;" x="172.885112" xlink:href="#m43ac020229" y="119.92974"/>
      </g>
     </g>
     <g id="text_4">
      <!-- 2.75 -->
      <g transform="translate(166.964197 148.046821)rotate(-45)scale(0.1 -0.1)">
       <defs>
        <path d="M 8.203125 72.90625 
L 55.078125 72.90625 
L 55.078125 68.703125 
L 28.609375 0 
L 18.3125 0 
L 43.21875 64.59375 
L 8.203125 64.59375 
z
" id="DejaVuSans-55"/>
       </defs>
       <use xlink:href="#DejaVuSans-50"/>
       <use x="63.623047" xlink:href="#DejaVuSans-46"/>
       <use x="95.410156" xlink:href="#DejaVuSans-55"/>
       <use x="159.033203" xlink:href="#DejaVuSans-53"/>
      </g>
     </g>
    </g>
    <g id="xtick_5">
     <g id="line2d_9">
      <path clip-path="url(#p770123bde8)" d="M 223.48697 119.92974 
L 223.48697 43.485882 
" style="fill:none;stroke:#b0b0b0;stroke-dasharray:2.96,1.28;stroke-dashoffset:0;stroke-width:0.8;"/>
     </g>
     <g id="line2d_10">
      <g>
       <use style="stroke:#000000;stroke-width:0.8;" x="223.48697" xlink:href="#m43ac020229" y="119.92974"/>
      </g>
     </g>
     <g id="text_5">
      <!-- 3.75 -->
      <g transform="translate(217.566056 148.046821)rotate(-45)scale(0.1 -0.1)">
       <defs>
        <path d="M 40.578125 39.3125 
Q 47.65625 37.796875 51.625 33 
Q 55.609375 28.21875 55.609375 21.1875 
Q 55.609375 10.40625 48.1875 4.484375 
Q 40.765625 -1.421875 27.09375 -1.421875 
Q 22.515625 -1.421875 17.65625 -0.515625 
Q 12.796875 0.390625 7.625 2.203125 
L 7.625 11.71875 
Q 11.71875 9.328125 16.59375 8.109375 
Q 21.484375 6.890625 26.8125 6.890625 
Q 36.078125 6.890625 40.9375 10.546875 
Q 45.796875 14.203125 45.796875 21.1875 
Q 45.796875 27.640625 41.28125 31.265625 
Q 36.765625 34.90625 28.71875 34.90625 
L 20.21875 34.90625 
L 20.21875 43.015625 
L 29.109375 43.015625 
Q 36.375 43.015625 40.234375 45.921875 
Q 44.09375 48.828125 44.09375 54.296875 
Q 44.09375 59.90625 40.109375 62.90625 
Q 36.140625 65.921875 28.71875 65.921875 
Q 24.65625 65.921875 20.015625 65.03125 
Q 15.375 64.15625 9.8125 62.3125 
L 9.8125 71.09375 
Q 15.4375 72.65625 20.34375 73.4375 
Q 25.25 74.21875 29.59375 74.21875 
Q 40.828125 74.21875 47.359375 69.109375 
Q 53.90625 64.015625 53.90625 55.328125 
Q 53.90625 49.265625 50.4375 45.09375 
Q 46.96875 40.921875 40.578125 39.3125 
z
" id="DejaVuSans-51"/>
       </defs>
       <use xlink:href="#DejaVuSans-51"/>
       <use x="63.623047" xlink:href="#DejaVuSans-46"/>
       <use x="95.410156" xlink:href="#DejaVuSans-55"/>
       <use x="159.033203" xlink:href="#DejaVuSans-53"/>
      </g>
     </g>
    </g>
    <g id="xtick_6">
     <g id="line2d_11">
      <path clip-path="url(#p770123bde8)" d="M 248.7879 119.92974 
L 248.7879 43.485882 
" style="fill:none;stroke:#b0b0b0;stroke-dasharray:2.96,1.28;stroke-dashoffset:0;stroke-width:0.8;"/>
     </g>
     <g id="line2d_12">
      <g>
       <use style="stroke:#000000;stroke-width:0.8;" x="248.7879" xlink:href="#m43ac020229" y="119.92974"/>
      </g>
     </g>
     <g id="text_6">
      <!-- 4.25 -->
      <g transform="translate(242.866985 148.046821)rotate(-45)scale(0.1 -0.1)">
       <defs>
        <path d="M 37.796875 64.3125 
L 12.890625 25.390625 
L 37.796875 25.390625 
z
M 35.203125 72.90625 
L 47.609375 72.90625 
L 47.609375 25.390625 
L 58.015625 25.390625 
L 58.015625 17.1875 
L 47.609375 17.1875 
L 47.609375 0 
L 37.796875 0 
L 37.796875 17.1875 
L 4.890625 17.1875 
L 4.890625 26.703125 
z
" id="DejaVuSans-52"/>
       </defs>
       <use xlink:href="#DejaVuSans-52"/>
       <use x="63.623047" xlink:href="#DejaVuSans-46"/>
       <use x="95.410156" xlink:href="#DejaVuSans-50"/>
       <use x="159.033203" xlink:href="#DejaVuSans-53"/>
      </g>
     </g>
    </g>
    <g id="xtick_7">
     <g id="line2d_13">
      <path clip-path="url(#p770123bde8)" d="M 299.389759 119.92974 
L 299.389759 43.485882 
" style="fill:none;stroke:#b0b0b0;stroke-dasharray:2.96,1.28;stroke-dashoffset:0;stroke-width:0.8;"/>
     </g>
     <g id="line2d_14">
      <g>
       <use style="stroke:#000000;stroke-width:0.8;" x="299.389759" xlink:href="#m43ac020229" y="119.92974"/>
      </g>
     </g>
     <g id="text_7">
      <!-- 5.25 -->
      <g transform="translate(293.468844 148.046821)rotate(-45)scale(0.1 -0.1)">
       <use xlink:href="#DejaVuSans-53"/>
       <use x="63.623047" xlink:href="#DejaVuSans-46"/>
       <use x="95.410156" xlink:href="#DejaVuSans-50"/>
       <use x="159.033203" xlink:href="#DejaVuSans-53"/>
      </g>
     </g>
    </g>
    <g id="xtick_8">
     <g id="line2d_15">
      <path clip-path="url(#p770123bde8)" d="M 375.292547 119.92974 
L 375.292547 43.485882 
" style="fill:none;stroke:#b0b0b0;stroke-dasharray:2.96,1.28;stroke-dashoffset:0;stroke-width:0.8;"/>
     </g>
     <g id="line2d_16">
      <g>
       <use style="stroke:#000000;stroke-width:0.8;" x="375.292547" xlink:href="#m43ac020229" y="119.92974"/>
      </g>
     </g>
     <g id="text_8">
      <!-- 6.75 -->
      <g transform="translate(369.371632 148.046821)rotate(-45)scale(0.1 -0.1)">
       <defs>
        <path d="M 33.015625 40.375 
Q 26.375 40.375 22.484375 35.828125 
Q 18.609375 31.296875 18.609375 23.390625 
Q 18.609375 15.53125 22.484375 10.953125 
Q 26.375 6.390625 33.015625 6.390625 
Q 39.65625 6.390625 43.53125 10.953125 
Q 47.40625 15.53125 47.40625 23.390625 
Q 47.40625 31.296875 43.53125 35.828125 
Q 39.65625 40.375 33.015625 40.375 
z
M 52.59375 71.296875 
L 52.59375 62.3125 
Q 48.875 64.0625 45.09375 64.984375 
Q 41.3125 65.921875 37.59375 65.921875 
Q 27.828125 65.921875 22.671875 59.328125 
Q 17.53125 52.734375 16.796875 39.40625 
Q 19.671875 43.65625 24.015625 45.921875 
Q 28.375 48.1875 33.59375 48.1875 
Q 44.578125 48.1875 50.953125 41.515625 
Q 57.328125 34.859375 57.328125 23.390625 
Q 57.328125 12.15625 50.6875 5.359375 
Q 44.046875 -1.421875 33.015625 -1.421875 
Q 20.359375 -1.421875 13.671875 8.265625 
Q 6.984375 17.96875 6.984375 36.375 
Q 6.984375 53.65625 15.1875 63.9375 
Q 23.390625 74.21875 37.203125 74.21875 
Q 40.921875 74.21875 44.703125 73.484375 
Q 48.484375 72.75 52.59375 71.296875 
z
" id="DejaVuSans-54"/>
       </defs>
       <use xlink:href="#DejaVuSans-54"/>
       <use x="63.623047" xlink:href="#DejaVuSans-46"/>
       <use x="95.410156" xlink:href="#DejaVuSans-55"/>
       <use x="159.033203" xlink:href="#DejaVuSans-53"/>
      </g>
     </g>
    </g>
    <g id="xtick_9">
     <g id="line2d_17">
      <path clip-path="url(#p770123bde8)" d="M 425.894405 119.92974 
L 425.894405 43.485882 
" style="fill:none;stroke:#b0b0b0;stroke-dasharray:2.96,1.28;stroke-dashoffset:0;stroke-width:0.8;"/>
     </g>
     <g id="line2d_18">
      <g>
       <use style="stroke:#000000;stroke-width:0.8;" x="425.894405" xlink:href="#m43ac020229" y="119.92974"/>
      </g>
     </g>
     <g id="text_9">
      <!-- 7.75 -->
      <g transform="translate(419.973491 148.046821)rotate(-45)scale(0.1 -0.1)">
       <use xlink:href="#DejaVuSans-55"/>
       <use x="63.623047" xlink:href="#DejaVuSans-46"/>
       <use x="95.410156" xlink:href="#DejaVuSans-55"/>
       <use x="159.033203" xlink:href="#DejaVuSans-53"/>
      </g>
     </g>
    </g>
    <g id="xtick_10">
     <g id="line2d_19">
      <path clip-path="url(#p770123bde8)" d="M 438.54487 119.92974 
L 438.54487 43.485882 
" style="fill:none;stroke:#b0b0b0;stroke-dasharray:2.96,1.28;stroke-dashoffset:0;stroke-width:0.8;"/>
     </g>
     <g id="line2d_20">
      <g>
       <use style="stroke:#000000;stroke-width:0.8;" x="438.54487" xlink:href="#m43ac020229" y="119.92974"/>
      </g>
     </g>
     <g id="text_10">
      <!-- 8.00 -->
      <g transform="translate(432.623956 148.046821)rotate(-45)scale(0.1 -0.1)">
       <defs>
        <path d="M 31.78125 34.625 
Q 24.75 34.625 20.71875 30.859375 
Q 16.703125 27.09375 16.703125 20.515625 
Q 16.703125 13.921875 20.71875 10.15625 
Q 24.75 6.390625 31.78125 6.390625 
Q 38.8125 6.390625 42.859375 10.171875 
Q 46.921875 13.96875 46.921875 20.515625 
Q 46.921875 27.09375 42.890625 30.859375 
Q 38.875 34.625 31.78125 34.625 
z
M 21.921875 38.8125 
Q 15.578125 40.375 12.03125 44.71875 
Q 8.5 49.078125 8.5 55.328125 
Q 8.5 64.0625 14.71875 69.140625 
Q 20.953125 74.21875 31.78125 74.21875 
Q 42.671875 74.21875 48.875 69.140625 
Q 55.078125 64.0625 55.078125 55.328125 
Q 55.078125 49.078125 51.53125 44.71875 
Q 48 40.375 41.703125 38.8125 
Q 48.828125 37.15625 52.796875 32.3125 
Q 56.78125 27.484375 56.78125 20.515625 
Q 56.78125 9.90625 50.3125 4.234375 
Q 43.84375 -1.421875 31.78125 -1.421875 
Q 19.734375 -1.421875 13.25 4.234375 
Q 6.78125 9.90625 6.78125 20.515625 
Q 6.78125 27.484375 10.78125 32.3125 
Q 14.796875 37.15625 21.921875 38.8125 
z
M 18.3125 54.390625 
Q 18.3125 48.734375 21.84375 45.5625 
Q 25.390625 42.390625 31.78125 42.390625 
Q 38.140625 42.390625 41.71875 45.5625 
Q 45.3125 48.734375 45.3125 54.390625 
Q 45.3125 60.0625 41.71875 63.234375 
Q 38.140625 66.40625 31.78125 66.40625 
Q 25.390625 66.40625 21.84375 63.234375 
Q 18.3125 60.0625 18.3125 54.390625 
z
" id="DejaVuSans-56"/>
       </defs>
       <use xlink:href="#DejaVuSans-56"/>
       <use x="63.623047" xlink:href="#DejaVuSans-46"/>
       <use x="95.410156" xlink:href="#DejaVuSans-48"/>
       <use x="159.033203" xlink:href="#DejaVuSans-48"/>
      </g>
     </g>
    </g>
    <g id="text_11">
     <!-- Orbit Position $s$ / m -->
     <g transform="translate(188.437435 161.11582)scale(0.1 -0.1)">
      <defs>
       <path d="M 39.40625 66.21875 
Q 28.65625 66.21875 22.328125 58.203125 
Q 16.015625 50.203125 16.015625 36.375 
Q 16.015625 22.609375 22.328125 14.59375 
Q 28.65625 6.59375 39.40625 6.59375 
Q 50.140625 6.59375 56.421875 14.59375 
Q 62.703125 22.609375 62.703125 36.375 
Q 62.703125 50.203125 56.421875 58.203125 
Q 50.140625 66.21875 39.40625 66.21875 
z
M 39.40625 74.21875 
Q 54.734375 74.21875 63.90625 63.9375 
Q 73.09375 53.65625 73.09375 36.375 
Q 73.09375 19.140625 63.90625 8.859375 
Q 54.734375 -1.421875 39.40625 -1.421875 
Q 24.03125 -1.421875 14.8125 8.828125 
Q 5.609375 19.09375 5.609375 36.375 
Q 5.609375 53.65625 14.8125 63.9375 
Q 24.03125 74.21875 39.40625 74.21875 
z
" id="DejaVuSans-79"/>
       <path d="M 41.109375 46.296875 
Q 39.59375 47.171875 37.8125 47.578125 
Q 36.03125 48 33.890625 48 
Q 26.265625 48 22.1875 43.046875 
Q 18.109375 38.09375 18.109375 28.8125 
L 18.109375 0 
L 9.078125 0 
L 9.078125 54.6875 
L 18.109375 54.6875 
L 18.109375 46.1875 
Q 20.953125 51.171875 25.484375 53.578125 
Q 30.03125 56 36.53125 56 
Q 37.453125 56 38.578125 55.875 
Q 39.703125 55.765625 41.0625 55.515625 
z
" id="DejaVuSans-114"/>
       <path d="M 48.6875 27.296875 
Q 48.6875 37.203125 44.609375 42.84375 
Q 40.53125 48.484375 33.40625 48.484375 
Q 26.265625 48.484375 22.1875 42.84375 
Q 18.109375 37.203125 18.109375 27.296875 
Q 18.109375 17.390625 22.1875 11.75 
Q 26.265625 6.109375 33.40625 6.109375 
Q 40.53125 6.109375 44.609375 11.75 
Q 48.6875 17.390625 48.6875 27.296875 
z
M 18.109375 46.390625 
Q 20.953125 51.265625 25.265625 53.625 
Q 29.59375 56 35.59375 56 
Q 45.5625 56 51.78125 48.09375 
Q 58.015625 40.1875 58.015625 27.296875 
Q 58.015625 14.40625 51.78125 6.484375 
Q 45.5625 -1.421875 35.59375 -1.421875 
Q 29.59375 -1.421875 25.265625 0.953125 
Q 20.953125 3.328125 18.109375 8.203125 
L 18.109375 0 
L 9.078125 0 
L 9.078125 75.984375 
L 18.109375 75.984375 
z
" id="DejaVuSans-98"/>
       <path d="M 9.421875 54.6875 
L 18.40625 54.6875 
L 18.40625 0 
L 9.421875 0 
z
M 9.421875 75.984375 
L 18.40625 75.984375 
L 18.40625 64.59375 
L 9.421875 64.59375 
z
" id="DejaVuSans-105"/>
       <path d="M 18.3125 70.21875 
L 18.3125 54.6875 
L 36.8125 54.6875 
L 36.8125 47.703125 
L 18.3125 47.703125 
L 18.3125 18.015625 
Q 18.3125 11.328125 20.140625 9.421875 
Q 21.96875 7.515625 27.59375 7.515625 
L 36.8125 7.515625 
L 36.8125 0 
L 27.59375 0 
Q 17.1875 0 13.234375 3.875 
Q 9.28125 7.765625 9.28125 18.015625 
L 9.28125 47.703125 
L 2.6875 47.703125 
L 2.6875 54.6875 
L 9.28125 54.6875 
L 9.28125 70.21875 
z
" id="DejaVuSans-116"/>
       <path id="DejaVuSans-32"/>
       <path d="M 19.671875 64.796875 
L 19.671875 37.40625 
L 32.078125 37.40625 
Q 38.96875 37.40625 42.71875 40.96875 
Q 46.484375 44.53125 46.484375 51.125 
Q 46.484375 57.671875 42.71875 61.234375 
Q 38.96875 64.796875 32.078125 64.796875 
z
M 9.8125 72.90625 
L 32.078125 72.90625 
Q 44.34375 72.90625 50.609375 67.359375 
Q 56.890625 61.8125 56.890625 51.125 
Q 56.890625 40.328125 50.609375 34.8125 
Q 44.34375 29.296875 32.078125 29.296875 
L 19.671875 29.296875 
L 19.671875 0 
L 9.8125 0 
z
" id="DejaVuSans-80"/>
       <path d="M 30.609375 48.390625 
Q 23.390625 48.390625 19.1875 42.75 
Q 14.984375 37.109375 14.984375 27.296875 
Q 14.984375 17.484375 19.15625 11.84375 
Q 23.34375 6.203125 30.609375 6.203125 
Q 37.796875 6.203125 41.984375 11.859375 
Q 46.1875 17.53125 46.1875 27.296875 
Q 46.1875 37.015625 41.984375 42.703125 
Q 37.796875 48.390625 30.609375 48.390625 
z
M 30.609375 56 
Q 42.328125 56 49.015625 48.375 
Q 55.71875 40.765625 55.71875 27.296875 
Q 55.71875 13.875 49.015625 6.21875 
Q 42.328125 -1.421875 30.609375 -1.421875 
Q 18.84375 -1.421875 12.171875 6.21875 
Q 5.515625 13.875 5.515625 27.296875 
Q 5.515625 40.765625 12.171875 48.375 
Q 18.84375 56 30.609375 56 
z
" id="DejaVuSans-111"/>
       <path d="M 44.28125 53.078125 
L 44.28125 44.578125 
Q 40.484375 46.53125 36.375 47.5 
Q 32.28125 48.484375 27.875 48.484375 
Q 21.1875 48.484375 17.84375 46.4375 
Q 14.5 44.390625 14.5 40.28125 
Q 14.5 37.15625 16.890625 35.375 
Q 19.28125 33.59375 26.515625 31.984375 
L 29.59375 31.296875 
Q 39.15625 29.25 43.1875 25.515625 
Q 47.21875 21.78125 47.21875 15.09375 
Q 47.21875 7.46875 41.1875 3.015625 
Q 35.15625 -1.421875 24.609375 -1.421875 
Q 20.21875 -1.421875 15.453125 -0.5625 
Q 10.6875 0.296875 5.421875 2 
L 5.421875 11.28125 
Q 10.40625 8.6875 15.234375 7.390625 
Q 20.0625 6.109375 24.8125 6.109375 
Q 31.15625 6.109375 34.5625 8.28125 
Q 37.984375 10.453125 37.984375 14.40625 
Q 37.984375 18.0625 35.515625 20.015625 
Q 33.0625 21.96875 24.703125 23.78125 
L 21.578125 24.515625 
Q 13.234375 26.265625 9.515625 29.90625 
Q 5.8125 33.546875 5.8125 39.890625 
Q 5.8125 47.609375 11.28125 51.796875 
Q 16.75 56 26.8125 56 
Q 31.78125 56 36.171875 55.265625 
Q 40.578125 54.546875 44.28125 53.078125 
z
" id="DejaVuSans-115"/>
       <path d="M 54.890625 33.015625 
L 54.890625 0 
L 45.90625 0 
L 45.90625 32.71875 
Q 45.90625 40.484375 42.875 44.328125 
Q 39.84375 48.1875 33.796875 48.1875 
Q 26.515625 48.1875 22.3125 43.546875 
Q 18.109375 38.921875 18.109375 30.90625 
L 18.109375 0 
L 9.078125 0 
L 9.078125 54.6875 
L 18.109375 54.6875 
L 18.109375 46.1875 
Q 21.34375 51.125 25.703125 53.5625 
Q 30.078125 56 35.796875 56 
Q 45.21875 56 50.046875 50.171875 
Q 54.890625 44.34375 54.890625 33.015625 
z
" id="DejaVuSans-110"/>
       <path d="M 50 53.078125 
L 48.296875 44.578125 
Q 44.734375 46.53125 40.765625 47.5 
Q 36.8125 48.484375 32.625 48.484375 
Q 25.53125 48.484375 21.453125 46.0625 
Q 17.390625 43.65625 17.390625 39.5 
Q 17.390625 34.671875 26.859375 32.078125 
Q 27.59375 31.890625 27.9375 31.78125 
L 30.8125 30.90625 
Q 39.796875 28.421875 42.796875 25.6875 
Q 45.796875 22.953125 45.796875 18.21875 
Q 45.796875 9.515625 38.890625 4.046875 
Q 31.984375 -1.421875 20.796875 -1.421875 
Q 16.453125 -1.421875 11.671875 -0.578125 
Q 6.890625 0.25 1.125 2 
L 2.875 11.28125 
Q 7.8125 8.734375 12.59375 7.421875 
Q 17.390625 6.109375 21.78125 6.109375 
Q 28.375 6.109375 32.5 8.9375 
Q 36.625 11.765625 36.625 16.109375 
Q 36.625 20.796875 25.78125 23.6875 
L 24.859375 23.921875 
L 21.78125 24.703125 
Q 14.9375 26.515625 11.765625 29.46875 
Q 8.59375 32.421875 8.59375 37.015625 
Q 8.59375 45.75 15.15625 50.875 
Q 21.734375 56 33.015625 56 
Q 37.453125 56 41.671875 55.265625 
Q 45.90625 54.546875 50 53.078125 
z
" id="DejaVuSans-Oblique-115"/>
       <path d="M 25.390625 72.90625 
L 33.6875 72.90625 
L 8.296875 -9.28125 
L 0 -9.28125 
z
" id="DejaVuSans-47"/>
       <path d="M 52 44.1875 
Q 55.375 50.25 60.0625 53.125 
Q 64.75 56 71.09375 56 
Q 79.640625 56 84.28125 50.015625 
Q 88.921875 44.046875 88.921875 33.015625 
L 88.921875 0 
L 79.890625 0 
L 79.890625 32.71875 
Q 79.890625 40.578125 77.09375 44.375 
Q 74.3125 48.1875 68.609375 48.1875 
Q 61.625 48.1875 57.5625 43.546875 
Q 53.515625 38.921875 53.515625 30.90625 
L 53.515625 0 
L 44.484375 0 
L 44.484375 32.71875 
Q 44.484375 40.625 41.703125 44.40625 
Q 38.921875 48.1875 33.109375 48.1875 
Q 26.21875 48.1875 22.15625 43.53125 
Q 18.109375 38.875 18.109375 30.90625 
L 18.109375 0 
L 9.078125 0 
L 9.078125 54.6875 
L 18.109375 54.6875 
L 18.109375 46.1875 
Q 21.1875 51.21875 25.484375 53.609375 
Q 29.78125 56 35.6875 56 
Q 41.65625 56 45.828125 52.96875 
Q 50 49.953125 52 44.1875 
z
" id="DejaVuSans-109"/>
      </defs>
      <use transform="translate(0 0.015625)" xlink:href="#DejaVuSans-79"/>
      <use transform="translate(78.710938 0.015625)" xlink:href="#DejaVuSans-114"/>
      <use transform="translate(119.824219 0.015625)" xlink:href="#DejaVuSans-98"/>
      <use transform="translate(183.300781 0.015625)" xlink:href="#DejaVuSans-105"/>
      <use transform="translate(211.083984 0.015625)" xlink:href="#DejaVuSans-116"/>
      <use transform="translate(250.292969 0.015625)" xlink:href="#DejaVuSans-32"/>
      <use transform="translate(282.080078 0.015625)" xlink:href="#DejaVuSans-80"/>
      <use transform="translate(342.382812 0.015625)" xlink:href="#DejaVuSans-111"/>
      <use transform="translate(403.564453 0.015625)" xlink:href="#DejaVuSans-115"/>
      <use transform="translate(455.664062 0.015625)" xlink:href="#DejaVuSans-105"/>
      <use transform="translate(483.447266 0.015625)" xlink:href="#DejaVuSans-116"/>
      <use transform="translate(522.65625 0.015625)" xlink:href="#DejaVuSans-105"/>
      <use transform="translate(550.439453 0.015625)" xlink:href="#DejaVuSans-111"/>
      <use transform="translate(611.621094 0.015625)" xlink:href="#DejaVuSans-110"/>
      <use transform="translate(675 0.015625)" xlink:href="#DejaVuSans-32"/>
      <use transform="translate(706.787109 0.015625)" xlink:href="#DejaVuSans-Oblique-115"/>
      <use transform="translate(758.886719 0.015625)" xlink:href="#DejaVuSans-32"/>
      <use transform="translate(790.673828 0.015625)" xlink:href="#DejaVuSans-47"/>
      <use transform="translate(824.365234 0.015625)" xlink:href="#DejaVuSans-32"/>
      <use transform="translate(856.152344 0.015625)" xlink:href="#DejaVuSans-109"/>
     </g>
    </g>
   </g>
   <g id="matplotlib.axis_2">
    <g id="ytick_1">
     <g id="line2d_21">
      <path clip-path="url(#p770123bde8)" d="M 33.73 97.761292 
L 438.54487 97.761292 
" style="fill:none;stroke:#b0b0b0;stroke-dasharray:2.96,1.28;stroke-dashoffset:0;stroke-width:0.8;"/>
     </g>
     <g id="line2d_22">
      <defs>
       <path d="M 0 0 
L -3.5 0 
" id="m1c2d64e6d4" style="stroke:#000000;stroke-width:0.8;"/>
      </defs>
      <g>
       <use style="stroke:#000000;stroke-width:0.8;" x="33.73" xlink:href="#m1c2d64e6d4" y="97.761292"/>
      </g>
     </g>
     <g id="text_12">
      <!-- 5 -->
      <g transform="translate(20.3675 101.560511)scale(0.1 -0.1)">
       <use xlink:href="#DejaVuSans-53"/>
      </g>
     </g>
    </g>
    <g id="ytick_2">
     <g id="line2d_23">
      <path clip-path="url(#p770123bde8)" d="M 33.73 69.683183 
L 438.54487 69.683183 
" style="fill:none;stroke:#b0b0b0;stroke-dasharray:2.96,1.28;stroke-dashoffset:0;stroke-width:0.8;"/>
     </g>
     <g id="line2d_24">
      <g>
       <use style="stroke:#000000;stroke-width:0.8;" x="33.73" xlink:href="#m1c2d64e6d4" y="69.683183"/>
      </g>
     </g>
     <g id="text_13">
      <!-- 10 -->
      <g transform="translate(14.005 73.482401)scale(0.1 -0.1)">
       <use xlink:href="#DejaVuSans-49"/>
       <use x="63.623047" xlink:href="#DejaVuSans-48"/>
      </g>
     </g>
    </g>
   </g>
   <g id="patch_3">
    <path d="M 33.73 119.92974 
L 33.73 43.485882 
" style="fill:none;stroke:#000000;stroke-linecap:square;stroke-linejoin:miter;stroke-width:0.8;"/>
   </g>
   <g id="patch_4">
    <path d="M 438.54487 119.92974 
L 438.54487 43.485882 
" style="fill:none;stroke:#000000;stroke-linecap:square;stroke-linejoin:miter;stroke-width:0.8;"/>
   </g>
   <g id="patch_5">
    <path d="M 33.73 119.92974 
L 438.54487 119.92974 
" style="fill:none;stroke:#000000;stroke-linecap:square;stroke-linejoin:miter;stroke-width:0.8;"/>
   </g>
   <g id="patch_6">
    <path d="M 33.73 43.485882 
L 438.54487 43.485882 
" style="fill:none;stroke:#000000;stroke-linecap:square;stroke-linejoin:miter;stroke-width:0.8;"/>
   </g>
   <g id="line2d_25">
    <path clip-path="url(#p770123bde8)" d="M 33.73 116.455019 
L 34.995046 116.448226 
L 36.260093 116.427832 
L 37.525139 116.393796 
L 38.790186 116.34605 
L 40.055232 116.2845 
L 41.320279 116.209021 
L 42.585325 116.119463 
L 43.850372 116.015647 
L 45.115418 115.897364 
L 46.380465 115.764379 
L 51.440651 115.16356 
L 56.500836 114.484483 
L 61.561022 113.727148 
L 66.621208 112.891554 
L 71.681394 111.977703 
L 76.74158 110.985593 
L 81.801766 109.915225 
L 86.861952 108.7666 
L 91.922138 107.539716 
L 96.982323 106.234574 
L 104.572602 104.20978 
L 112.162881 102.016557 
L 119.75316 99.654906 
L 127.343439 97.124826 
L 134.933718 94.426319 
L 142.523996 91.559382 
L 150.114275 88.524018 
L 157.704554 85.320225 
L 165.294833 81.948003 
L 172.885112 78.407353 
L 177.945297 76.078689 
L 183.005483 73.681241 
L 188.065669 71.215009 
L 193.125855 68.679994 
L 198.186041 66.076195 
L 203.246227 63.403613 
L 208.306413 60.662247 
L 213.366599 57.852097 
L 218.426785 54.973164 
L 223.48697 52.025447 
L 226.017063 50.675317 
L 228.547156 49.613856 
L 231.077249 48.849549 
L 233.607342 48.388507 
L 236.137435 48.234416 
L 238.667528 48.388507 
L 241.197621 48.849549 
L 243.727714 49.613856 
L 246.257807 50.675317 
L 248.7879 52.025447 
L 253.848086 54.973164 
L 258.908272 57.852097 
L 263.968457 60.662247 
L 269.028643 63.403613 
L 274.088829 66.076195 
L 279.149015 68.679994 
L 284.209201 71.215009 
L 289.269387 73.681241 
L 294.329573 76.078689 
L 299.389759 78.407353 
L 306.980037 81.948003 
L 314.570316 85.320225 
L 322.160595 88.524018 
L 329.750874 91.559382 
L 337.341153 94.426319 
L 344.931431 97.124826 
L 352.52171 99.654906 
L 360.111989 102.016557 
L 367.702268 104.20978 
L 375.292547 106.234574 
L 380.352733 107.539716 
L 385.412918 108.7666 
L 390.473104 109.915225 
L 395.53329 110.985593 
L 400.593476 111.977703 
L 405.653662 112.891554 
L 410.713848 113.727148 
L 415.774034 114.484483 
L 420.83422 115.16356 
L 425.894405 115.764379 
L 427.159452 115.897364 
L 428.424498 116.015647 
L 429.689545 116.119463 
L 430.954591 116.209021 
L 432.219638 116.2845 
L 433.484684 116.34605 
L 434.749731 116.393796 
L 436.014777 116.427832 
L 437.279824 116.448226 
L 438.54487 116.455019 
" style="fill:none;stroke:#1e90ff;stroke-linecap:square;stroke-width:1.3;"/>
   </g>
   <g id="patch_7">
    <path d="M 33.73 44.680318 
L 46.380465 44.680318 
L 46.380465 42.291447 
L 33.73 42.291447 
z
" style="fill:#dc143c;"/>
   </g>
   <g id="patch_8">
    <path d="M 96.982323 44.680318 
L 172.885112 44.680318 
L 172.885112 42.291447 
L 96.982323 42.291447 
z
" style="fill:#ffd700;"/>
   </g>
   <g id="patch_9">
    <path d="M 223.48697 44.680318 
L 248.7879 44.680318 
L 248.7879 42.291447 
L 223.48697 42.291447 
z
" style="fill:#dc143c;"/>
   </g>
   <g id="patch_10">
    <path d="M 299.389759 44.680318 
L 375.292547 44.680318 
L 375.292547 42.291447 
L 299.389759 42.291447 
z
" style="fill:#ffd700;"/>
   </g>
   <g id="patch_11">
    <path d="M 425.894405 44.680318 
L 438.54487 44.680318 
L 438.54487 42.291447 
L 425.894405 42.291447 
z
" style="fill:#dc143c;"/>
   </g>
   <g id="line2d_26">
    <path clip-path="url(#p770123bde8)" d="M 33.73 46.960603 
L 34.995046 46.999786 
L 36.260093 47.117257 
L 37.525139 47.31278 
L 38.790186 47.585965 
L 40.055232 47.936266 
L 41.320279 48.362982 
L 42.585325 48.865259 
L 43.850372 49.442093 
L 45.115418 50.092332 
L 46.380465 50.814674 
L 51.440651 53.81154 
L 56.500836 56.738746 
L 61.561022 59.59629 
L 66.621208 62.384174 
L 71.681394 65.102396 
L 76.74158 67.750958 
L 81.801766 70.329858 
L 86.861952 72.839098 
L 91.922138 75.278676 
L 96.982323 77.648594 
L 104.572602 80.910793 
L 112.162881 84.061583 
L 119.75316 87.096106 
L 127.343439 90.009683 
L 134.933718 92.797822 
L 142.523996 95.456224 
L 150.114275 97.980788 
L 157.704554 100.367623 
L 165.294833 102.613049 
L 172.885112 104.713602 
L 177.945297 105.975645 
L 183.005483 107.168027 
L 188.065669 108.290748 
L 193.125855 109.343807 
L 198.186041 110.327206 
L 203.246227 111.240944 
L 208.306413 112.08502 
L 213.366599 112.859436 
L 218.426785 113.564191 
L 223.48697 114.199285 
L 226.017063 114.467807 
L 228.547156 114.674461 
L 231.077249 114.820901 
L 233.607342 114.908298 
L 236.137435 114.937353 
L 238.667528 114.908298 
L 241.197621 114.820901 
L 243.727714 114.674461 
L 246.257807 114.467807 
L 248.7879 114.199285 
L 253.848086 113.564191 
L 258.908272 112.859436 
L 263.968457 112.08502 
L 269.028643 111.240944 
L 274.088829 110.327206 
L 279.149015 109.343807 
L 284.209201 108.290748 
L 289.269387 107.168027 
L 294.329573 105.975645 
L 299.389759 104.713602 
L 306.980037 102.613049 
L 314.570316 100.367623 
L 322.160595 97.980788 
L 329.750874 95.456224 
L 337.341153 92.797822 
L 344.931431 90.009683 
L 352.52171 87.096106 
L 360.111989 84.061583 
L 367.702268 80.910793 
L 375.292547 77.648594 
L 380.352733 75.278676 
L 385.412918 72.839098 
L 390.473104 70.329858 
L 395.53329 67.750958 
L 400.593476 65.102396 
L 405.653662 62.384174 
L 410.713848 59.59629 
L 415.774034 56.738746 
L 420.83422 53.81154 
L 425.894405 50.814674 
L 427.159452 50.092332 
L 428.424498 49.442093 
L 429.689545 48.865259 
L 430.954591 48.362982 
L 432.219638 47.936266 
L 433.484684 47.585965 
L 434.749731 47.31278 
L 436.014777 47.117257 
L 437.279824 46.999786 
L 438.54487 46.960603 
" style="fill:none;stroke:#dc143c;stroke-linecap:square;stroke-width:1.3;"/>
   </g>
   <g id="text_14">
    <!-- q1 -->
    <g transform="translate(34.970857 40.030479)scale(0.08 -0.08)">
     <defs>
      <path d="M 14.796875 27.296875 
Q 14.796875 17.390625 18.875 11.75 
Q 22.953125 6.109375 30.078125 6.109375 
Q 37.203125 6.109375 41.296875 11.75 
Q 45.40625 17.390625 45.40625 27.296875 
Q 45.40625 37.203125 41.296875 42.84375 
Q 37.203125 48.484375 30.078125 48.484375 
Q 22.953125 48.484375 18.875 42.84375 
Q 14.796875 37.203125 14.796875 27.296875 
z
M 45.40625 8.203125 
Q 42.578125 3.328125 38.25 0.953125 
Q 33.9375 -1.421875 27.875 -1.421875 
Q 17.96875 -1.421875 11.734375 6.484375 
Q 5.515625 14.40625 5.515625 27.296875 
Q 5.515625 40.1875 11.734375 48.09375 
Q 17.96875 56 27.875 56 
Q 33.9375 56 38.25 53.625 
Q 42.578125 51.265625 45.40625 46.390625 
L 45.40625 54.6875 
L 54.390625 54.6875 
L 54.390625 -20.796875 
L 45.40625 -20.796875 
z
" id="DejaVuSans-113"/>
     </defs>
     <use xlink:href="#DejaVuSans-113"/>
     <use x="63.476562" xlink:href="#DejaVuSans-49"/>
    </g>
   </g>
   <g id="text_15">
    <!-- b1 -->
    <g transform="translate(129.849343 51.356285)scale(0.08 -0.08)">
     <use xlink:href="#DejaVuSans-98"/>
     <use x="63.476562" xlink:href="#DejaVuSans-49"/>
    </g>
   </g>
   <g id="text_16">
    <!-- q2 -->
    <g transform="translate(231.05306 40.030479)scale(0.08 -0.08)">
     <use xlink:href="#DejaVuSans-113"/>
     <use x="63.476562" xlink:href="#DejaVuSans-50"/>
    </g>
   </g>
   <g id="text_17">
    <!-- b1 -->
    <g transform="translate(332.256778 51.356285)scale(0.08 -0.08)">
     <use xlink:href="#DejaVuSans-98"/>
     <use x="63.476562" xlink:href="#DejaVuSans-49"/>
    </g>
   </g>
   <g id="text_18">
    <!-- q1 -->
    <g transform="translate(427.135263 40.030479)scale(0.08 -0.08)">
     <use xlink:href="#DejaVuSans-113"/>
     <use x="63.476562" xlink:href="#DejaVuSans-49"/>
    </g>
   </g>
  </g>
  <g id="axes_2">
   <g id="patch_12">
    <path d="M 33.73 262.24974 
L 438.54487 262.24974 
L 438.54487 185.805882 
L 33.73 185.805882 
z
" style="fill:#ffffff;"/>
   </g>
   <g id="matplotlib.axis_3">
    <g id="xtick_11">
     <g id="line2d_27">
      <path clip-path="url(#p62c0831557)" d="M 33.73 262.24974 
L 33.73 185.805882 
" style="fill:none;stroke:#b0b0b0;stroke-dasharray:2.96,1.28;stroke-dashoffset:0;stroke-width:0.8;"/>
     </g>
     <g id="line2d_28">
      <g>
       <use style="stroke:#000000;stroke-width:0.8;" x="33.73" xlink:href="#m43ac020229" y="262.24974"/>
      </g>
     </g>
     <g id="text_19">
      <!-- 0.00 -->
      <g transform="translate(27.809086 290.366821)rotate(-45)scale(0.1 -0.1)">
       <use xlink:href="#DejaVuSans-48"/>
       <use x="63.623047" xlink:href="#DejaVuSans-46"/>
       <use x="95.410156" xlink:href="#DejaVuSans-48"/>
       <use x="159.033203" xlink:href="#DejaVuSans-48"/>
      </g>
     </g>
    </g>
    <g id="xtick_12">
     <g id="line2d_29">
      <path clip-path="url(#p62c0831557)" d="M 46.380465 262.24974 
L 46.380465 185.805882 
" style="fill:none;stroke:#b0b0b0;stroke-dasharray:2.96,1.28;stroke-dashoffset:0;stroke-width:0.8;"/>
     </g>
     <g id="line2d_30">
      <g>
       <use style="stroke:#000000;stroke-width:0.8;" x="46.380465" xlink:href="#m43ac020229" y="262.24974"/>
      </g>
     </g>
     <g id="text_20">
      <!-- 0.25 -->
      <g transform="translate(40.45955 290.366821)rotate(-45)scale(0.1 -0.1)">
       <use xlink:href="#DejaVuSans-48"/>
       <use x="63.623047" xlink:href="#DejaVuSans-46"/>
       <use x="95.410156" xlink:href="#DejaVuSans-50"/>
       <use x="159.033203" xlink:href="#DejaVuSans-53"/>
      </g>
     </g>
    </g>
    <g id="xtick_13">
     <g id="line2d_31">
      <path clip-path="url(#p62c0831557)" d="M 96.982323 262.24974 
L 96.982323 185.805882 
" style="fill:none;stroke:#b0b0b0;stroke-dasharray:2.96,1.28;stroke-dashoffset:0;stroke-width:0.8;"/>
     </g>
     <g id="line2d_32">
      <g>
       <use style="stroke:#000000;stroke-width:0.8;" x="96.982323" xlink:href="#m43ac020229" y="262.24974"/>
      </g>
     </g>
     <g id="text_21">
      <!-- 1.25 -->
      <g transform="translate(91.061409 290.366821)rotate(-45)scale(0.1 -0.1)">
       <use xlink:href="#DejaVuSans-49"/>
       <use x="63.623047" xlink:href="#DejaVuSans-46"/>
       <use x="95.410156" xlink:href="#DejaVuSans-50"/>
       <use x="159.033203" xlink:href="#DejaVuSans-53"/>
      </g>
     </g>
    </g>
    <g id="xtick_14">
     <g id="line2d_33">
      <path clip-path="url(#p62c0831557)" d="M 172.885112 262.24974 
L 172.885112 185.805882 
" style="fill:none;stroke:#b0b0b0;stroke-dasharray:2.96,1.28;stroke-dashoffset:0;stroke-width:0.8;"/>
     </g>
     <g id="line2d_34">
      <g>
       <use style="stroke:#000000;stroke-width:0.8;" x="172.885112" xlink:href="#m43ac020229" y="262.24974"/>
      </g>
     </g>
     <g id="text_22">
      <!-- 2.75 -->
      <g transform="translate(166.964197 290.366821)rotate(-45)scale(0.1 -0.1)">
       <use xlink:href="#DejaVuSans-50"/>
       <use x="63.623047" xlink:href="#DejaVuSans-46"/>
       <use x="95.410156" xlink:href="#DejaVuSans-55"/>
       <use x="159.033203" xlink:href="#DejaVuSans-53"/>
      </g>
     </g>
    </g>
    <g id="xtick_15">
     <g id="line2d_35">
      <path clip-path="url(#p62c0831557)" d="M 223.48697 262.24974 
L 223.48697 185.805882 
" style="fill:none;stroke:#b0b0b0;stroke-dasharray:2.96,1.28;stroke-dashoffset:0;stroke-width:0.8;"/>
     </g>
     <g id="line2d_36">
      <g>
       <use style="stroke:#000000;stroke-width:0.8;" x="223.48697" xlink:href="#m43ac020229" y="262.24974"/>
      </g>
     </g>
     <g id="text_23">
      <!-- 3.75 -->
      <g transform="translate(217.566056 290.366821)rotate(-45)scale(0.1 -0.1)">
       <use xlink:href="#DejaVuSans-51"/>
       <use x="63.623047" xlink:href="#DejaVuSans-46"/>
       <use x="95.410156" xlink:href="#DejaVuSans-55"/>
       <use x="159.033203" xlink:href="#DejaVuSans-53"/>
      </g>
     </g>
    </g>
    <g id="xtick_16">
     <g id="line2d_37">
      <path clip-path="url(#p62c0831557)" d="M 248.7879 262.24974 
L 248.7879 185.805882 
" style="fill:none;stroke:#b0b0b0;stroke-dasharray:2.96,1.28;stroke-dashoffset:0;stroke-width:0.8;"/>
     </g>
     <g id="line2d_38">
      <g>
       <use style="stroke:#000000;stroke-width:0.8;" x="248.7879" xlink:href="#m43ac020229" y="262.24974"/>
      </g>
     </g>
     <g id="text_24">
      <!-- 4.25 -->
      <g transform="translate(242.866985 290.366821)rotate(-45)scale(0.1 -0.1)">
       <use xlink:href="#DejaVuSans-52"/>
       <use x="63.623047" xlink:href="#DejaVuSans-46"/>
       <use x="95.410156" xlink:href="#DejaVuSans-50"/>
       <use x="159.033203" xlink:href="#DejaVuSans-53"/>
      </g>
     </g>
    </g>
    <g id="xtick_17">
     <g id="line2d_39">
      <path clip-path="url(#p62c0831557)" d="M 299.389759 262.24974 
L 299.389759 185.805882 
" style="fill:none;stroke:#b0b0b0;stroke-dasharray:2.96,1.28;stroke-dashoffset:0;stroke-width:0.8;"/>
     </g>
     <g id="line2d_40">
      <g>
       <use style="stroke:#000000;stroke-width:0.8;" x="299.389759" xlink:href="#m43ac020229" y="262.24974"/>
      </g>
     </g>
     <g id="text_25">
      <!-- 5.25 -->
      <g transform="translate(293.468844 290.366821)rotate(-45)scale(0.1 -0.1)">
       <use xlink:href="#DejaVuSans-53"/>
       <use x="63.623047" xlink:href="#DejaVuSans-46"/>
       <use x="95.410156" xlink:href="#DejaVuSans-50"/>
       <use x="159.033203" xlink:href="#DejaVuSans-53"/>
      </g>
     </g>
    </g>
    <g id="xtick_18">
     <g id="line2d_41">
      <path clip-path="url(#p62c0831557)" d="M 375.292547 262.24974 
L 375.292547 185.805882 
" style="fill:none;stroke:#b0b0b0;stroke-dasharray:2.96,1.28;stroke-dashoffset:0;stroke-width:0.8;"/>
     </g>
     <g id="line2d_42">
      <g>
       <use style="stroke:#000000;stroke-width:0.8;" x="375.292547" xlink:href="#m43ac020229" y="262.24974"/>
      </g>
     </g>
     <g id="text_26">
      <!-- 6.75 -->
      <g transform="translate(369.371632 290.366821)rotate(-45)scale(0.1 -0.1)">
       <use xlink:href="#DejaVuSans-54"/>
       <use x="63.623047" xlink:href="#DejaVuSans-46"/>
       <use x="95.410156" xlink:href="#DejaVuSans-55"/>
       <use x="159.033203" xlink:href="#DejaVuSans-53"/>
      </g>
     </g>
    </g>
    <g id="xtick_19">
     <g id="line2d_43">
      <path clip-path="url(#p62c0831557)" d="M 425.894405 262.24974 
L 425.894405 185.805882 
" style="fill:none;stroke:#b0b0b0;stroke-dasharray:2.96,1.28;stroke-dashoffset:0;stroke-width:0.8;"/>
     </g>
     <g id="line2d_44">
      <g>
       <use style="stroke:#000000;stroke-width:0.8;" x="425.894405" xlink:href="#m43ac020229" y="262.24974"/>
      </g>
     </g>
     <g id="text_27">
      <!-- 7.75 -->
      <g transform="translate(419.973491 290.366821)rotate(-45)scale(0.1 -0.1)">
       <use xlink:href="#DejaVuSans-55"/>
       <use x="63.623047" xlink:href="#DejaVuSans-46"/>
       <use x="95.410156" xlink:href="#DejaVuSans-55"/>
       <use x="159.033203" xlink:href="#DejaVuSans-53"/>
      </g>
     </g>
    </g>
    <g id="xtick_20">
     <g id="line2d_45">
      <path clip-path="url(#p62c0831557)" d="M 438.54487 262.24974 
L 438.54487 185.805882 
" style="fill:none;stroke:#b0b0b0;stroke-dasharray:2.96,1.28;stroke-dashoffset:0;stroke-width:0.8;"/>
     </g>
     <g id="line2d_46">
      <g>
       <use style="stroke:#000000;stroke-width:0.8;" x="438.54487" xlink:href="#m43ac020229" y="262.24974"/>
      </g>
     </g>
     <g id="text_28">
      <!-- 8.00 -->
      <g transform="translate(432.623956 290.366821)rotate(-45)scale(0.1 -0.1)">
       <use xlink:href="#DejaVuSans-56"/>
       <use x="63.623047" xlink:href="#DejaVuSans-46"/>
       <use x="95.410156" xlink:href="#DejaVuSans-48"/>
       <use x="159.033203" xlink:href="#DejaVuSans-48"/>
      </g>
     </g>
    </g>
    <g id="text_29">
     <!-- Orbit Position $s$ / m -->
     <g transform="translate(188.437435 303.43582)scale(0.1 -0.1)">
      <use transform="translate(0 0.015625)" xlink:href="#DejaVuSans-79"/>
      <use transform="translate(78.710938 0.015625)" xlink:href="#DejaVuSans-114"/>
      <use transform="translate(119.824219 0.015625)" xlink:href="#DejaVuSans-98"/>
      <use transform="translate(183.300781 0.015625)" xlink:href="#DejaVuSans-105"/>
      <use transform="translate(211.083984 0.015625)" xlink:href="#DejaVuSans-116"/>
      <use transform="translate(250.292969 0.015625)" xlink:href="#DejaVuSans-32"/>
      <use transform="translate(282.080078 0.015625)" xlink:href="#DejaVuSans-80"/>
      <use transform="translate(342.382812 0.015625)" xlink:href="#DejaVuSans-111"/>
      <use transform="translate(403.564453 0.015625)" xlink:href="#DejaVuSans-115"/>
      <use transform="translate(455.664062 0.015625)" xlink:href="#DejaVuSans-105"/>
      <use transform="translate(483.447266 0.015625)" xlink:href="#DejaVuSans-116"/>
      <use transform="translate(522.65625 0.015625)" xlink:href="#DejaVuSans-105"/>
      <use transform="translate(550.439453 0.015625)" xlink:href="#DejaVuSans-111"/>
      <use transform="translate(611.621094 0.015625)" xlink:href="#DejaVuSans-110"/>
      <use transform="translate(675 0.015625)" xlink:href="#DejaVuSans-32"/>
      <use transform="translate(706.787109 0.015625)" xlink:href="#DejaVuSans-Oblique-115"/>
      <use transform="translate(758.886719 0.015625)" xlink:href="#DejaVuSans-32"/>
      <use transform="translate(790.673828 0.015625)" xlink:href="#DejaVuSans-47"/>
      <use transform="translate(824.365234 0.015625)" xlink:href="#DejaVuSans-32"/>
      <use transform="translate(856.152344 0.015625)" xlink:href="#DejaVuSans-109"/>
     </g>
    </g>
   </g>
   <g id="matplotlib.axis_4">
    <g id="ytick_3">
     <g id="line2d_47">
      <path clip-path="url(#p62c0831557)" d="M 33.73 249.772757 
L 438.54487 249.772757 
" style="fill:none;stroke:#b0b0b0;stroke-dasharray:2.96,1.28;stroke-dashoffset:0;stroke-width:0.8;"/>
     </g>
     <g id="line2d_48">
      <g>
       <use style="stroke:#000000;stroke-width:0.8;" x="33.73" xlink:href="#m1c2d64e6d4" y="249.772757"/>
      </g>
     </g>
     <g id="text_30">
      <!-- −2 -->
      <g transform="translate(11.987813 253.571976)scale(0.1 -0.1)">
       <defs>
        <path d="M 10.59375 35.5 
L 73.1875 35.5 
L 73.1875 27.203125 
L 10.59375 27.203125 
z
" id="DejaVuSans-8722"/>
       </defs>
       <use xlink:href="#DejaVuSans-8722"/>
       <use x="83.789062" xlink:href="#DejaVuSans-50"/>
      </g>
     </g>
    </g>
    <g id="ytick_4">
     <g id="line2d_49">
      <path clip-path="url(#p62c0831557)" d="M 33.73 224.027811 
L 438.54487 224.027811 
" style="fill:none;stroke:#b0b0b0;stroke-dasharray:2.96,1.28;stroke-dashoffset:0;stroke-width:0.8;"/>
     </g>
     <g id="line2d_50">
      <g>
       <use style="stroke:#000000;stroke-width:0.8;" x="33.73" xlink:href="#m1c2d64e6d4" y="224.027811"/>
      </g>
     </g>
     <g id="text_31">
      <!-- 0 -->
      <g transform="translate(20.3675 227.82703)scale(0.1 -0.1)">
       <use xlink:href="#DejaVuSans-48"/>
      </g>
     </g>
    </g>
    <g id="ytick_5">
     <g id="line2d_51">
      <path clip-path="url(#p62c0831557)" d="M 33.73 198.282866 
L 438.54487 198.282866 
" style="fill:none;stroke:#b0b0b0;stroke-dasharray:2.96,1.28;stroke-dashoffset:0;stroke-width:0.8;"/>
     </g>
     <g id="line2d_52">
      <g>
       <use style="stroke:#000000;stroke-width:0.8;" x="33.73" xlink:href="#m1c2d64e6d4" y="198.282866"/>
      </g>
     </g>
     <g id="text_32">
      <!-- 2 -->
      <g transform="translate(20.3675 202.082085)scale(0.1 -0.1)">
       <use xlink:href="#DejaVuSans-50"/>
      </g>
     </g>
    </g>
   </g>
   <g id="patch_13">
    <path d="M 33.73 262.24974 
L 33.73 185.805882 
" style="fill:none;stroke:#000000;stroke-linecap:square;stroke-linejoin:miter;stroke-width:0.8;"/>
   </g>
   <g id="patch_14">
    <path d="M 438.54487 262.24974 
L 438.54487 185.805882 
" style="fill:none;stroke:#000000;stroke-linecap:square;stroke-linejoin:miter;stroke-width:0.8;"/>
   </g>
   <g id="patch_15">
    <path d="M 33.73 262.24974 
L 438.54487 262.24974 
" style="fill:none;stroke:#000000;stroke-linecap:square;stroke-linejoin:miter;stroke-width:0.8;"/>
   </g>
   <g id="patch_16">
    <path d="M 33.73 185.805882 
L 438.54487 185.805882 
" style="fill:none;stroke:#000000;stroke-linecap:square;stroke-linejoin:miter;stroke-width:0.8;"/>
   </g>
   <g id="line2d_53">
    <path clip-path="url(#p62c0831557)" d="M 33.73 224.027811 
L 34.995046 224.650821 
L 36.260093 225.275076 
L 37.525139 225.901826 
L 38.790186 226.532325 
L 40.055232 227.167834 
L 41.320279 227.809624 
L 42.585325 228.458979 
L 43.850372 229.117198 
L 45.115418 229.785597 
L 46.380465 230.465513 
L 51.440651 231.362453 
L 56.500836 232.259394 
L 61.561022 233.156334 
L 66.621208 234.053274 
L 71.681394 234.950214 
L 76.74158 235.847154 
L 81.801766 236.744094 
L 86.861952 237.641034 
L 91.922138 238.537974 
L 96.982323 239.434914 
L 104.572602 240.142473 
L 112.162881 241.429413 
L 119.75316 242.716352 
L 127.343439 244.003292 
L 134.933718 245.290232 
L 142.523996 246.577171 
L 150.114275 247.864111 
L 157.704554 249.151051 
L 165.294833 250.437991 
L 172.885112 250.323173 
L 177.945297 251.111523 
L 183.005483 251.899873 
L 188.065669 252.688223 
L 193.125855 253.476573 
L 198.186041 254.264923 
L 203.246227 255.053273 
L 208.306413 255.841623 
L 213.366599 256.629973 
L 218.426785 257.418323 
L 223.48697 258.206673 
L 226.017063 251.704684 
L 228.547156 244.981427 
L 231.077249 238.090654 
L 233.607342 231.087452 
L 236.137435 224.027811 
L 238.667528 216.96817 
L 241.197621 209.964969 
L 243.727714 203.074195 
L 246.257807 196.350939 
L 248.7879 189.84895 
L 253.848086 190.6373 
L 258.908272 191.42565 
L 263.968457 192.214 
L 269.028643 193.00235 
L 274.088829 193.7907 
L 279.149015 194.57905 
L 284.209201 195.3674 
L 289.269387 196.15575 
L 294.329573 196.9441 
L 299.389759 197.73245 
L 306.980037 197.617632 
L 314.570316 198.904572 
L 322.160595 200.191511 
L 329.750874 201.478451 
L 337.341153 202.765391 
L 344.931431 204.052331 
L 352.52171 205.33927 
L 360.111989 206.62621 
L 367.702268 207.91315 
L 375.292547 208.620709 
L 380.352733 209.517649 
L 385.412918 210.414589 
L 390.473104 211.311529 
L 395.53329 212.208469 
L 400.593476 213.105409 
L 405.653662 214.002349 
L 410.713848 214.899289 
L 415.774034 215.796229 
L 420.83422 216.693169 
L 425.894405 217.590109 
L 427.159452 218.270026 
L 428.424498 218.938425 
L 429.689545 219.596644 
L 430.954591 220.245999 
L 432.219638 220.887788 
L 433.484684 221.523297 
L 434.749731 222.153796 
L 436.014777 222.780547 
L 437.279824 223.404802 
L 438.54487 224.027811 
" style="fill:none;stroke:#000000;stroke-linecap:square;stroke-width:1.3;"/>
   </g>
   <g id="patch_17">
    <path d="M 33.73 187.000318 
L 46.380465 187.000318 
L 46.380465 184.611447 
L 33.73 184.611447 
z
" style="fill:#dc143c;"/>
   </g>
   <g id="patch_18">
    <path d="M 96.982323 187.000318 
L 172.885112 187.000318 
L 172.885112 184.611447 
L 96.982323 184.611447 
z
" style="fill:#ffd700;"/>
   </g>
   <g id="patch_19">
    <path d="M 223.48697 187.000318 
L 248.7879 187.000318 
L 248.7879 184.611447 
L 223.48697 184.611447 
z
" style="fill:#dc143c;"/>
   </g>
   <g id="patch_20">
    <path d="M 299.389759 187.000318 
L 375.292547 187.000318 
L 375.292547 184.611447 
L 299.389759 184.611447 
z
" style="fill:#ffd700;"/>
   </g>
   <g id="patch_21">
    <path d="M 425.894405 187.000318 
L 438.54487 187.000318 
L 438.54487 184.611447 
L 425.894405 184.611447 
z
" style="fill:#dc143c;"/>
   </g>
   <g id="line2d_54">
    <path clip-path="url(#p62c0831557)" d="M 33.73 224.027811 
L 34.995046 220.435703 
L 36.260093 216.850778 
L 37.525139 213.280205 
L 38.790186 209.731124 
L 40.055232 206.210631 
L 41.320279 202.725766 
L 42.585325 199.283498 
L 43.850372 195.890711 
L 45.115418 192.554189 
L 46.380465 189.280603 
L 51.440651 190.079009 
L 56.500836 190.877415 
L 61.561022 191.675821 
L 66.621208 192.474227 
L 71.681394 193.272633 
L 76.74158 194.071039 
L 81.801766 194.869446 
L 86.861952 195.667852 
L 91.922138 196.466258 
L 96.982323 197.264664 
L 104.572602 199.521101 
L 112.162881 200.391145 
L 119.75316 201.297634 
L 127.343439 202.239172 
L 134.933718 203.214307 
L 142.523996 204.221534 
L 150.114275 205.259301 
L 157.704554 206.326008 
L 165.294833 207.42001 
L 172.885112 209.16395 
L 177.945297 209.962356 
L 183.005483 210.760762 
L 188.065669 211.559168 
L 193.125855 212.357574 
L 198.186041 213.15598 
L 203.246227 213.954386 
L 208.306413 214.752792 
L 213.366599 215.551198 
L 218.426785 216.349605 
L 223.48697 217.148011 
L 226.017063 218.58892 
L 228.547156 219.986289 
L 231.077249 221.351304 
L 233.607342 222.694893 
L 236.137435 224.027811 
L 238.667528 225.36073 
L 241.197621 226.704319 
L 243.727714 228.069334 
L 246.257807 229.466703 
L 248.7879 230.907612 
L 253.848086 231.706018 
L 258.908272 232.504424 
L 263.968457 233.30283 
L 269.028643 234.101236 
L 274.088829 234.899642 
L 279.149015 235.698048 
L 284.209201 236.496454 
L 289.269387 237.294861 
L 294.329573 238.093267 
L 299.389759 238.891673 
L 306.980037 240.635612 
L 314.570316 241.729614 
L 322.160595 242.796321 
L 329.750874 243.834088 
L 337.341153 244.841316 
L 344.931431 245.81645 
L 352.52171 246.757988 
L 360.111989 247.664478 
L 367.702268 248.534522 
L 375.292547 250.790959 
L 380.352733 251.589365 
L 385.412918 252.387771 
L 390.473104 253.186177 
L 395.53329 253.984583 
L 400.593476 254.782989 
L 405.653662 255.581395 
L 410.713848 256.379801 
L 415.774034 257.178207 
L 420.83422 257.976613 
L 425.894405 258.775019 
L 427.159452 255.501434 
L 428.424498 252.164911 
L 429.689545 248.772124 
L 430.954591 245.329857 
L 432.219638 241.844992 
L 433.484684 238.324499 
L 434.749731 234.775417 
L 436.014777 231.204844 
L 437.279824 227.619919 
L 438.54487 224.027811 
" style="fill:none;stroke:#8b008b;stroke-linecap:square;stroke-width:1.3;"/>
   </g>
   <g id="text_33">
    <!-- q1 -->
    <g transform="translate(34.970857 182.350479)scale(0.08 -0.08)">
     <use xlink:href="#DejaVuSans-113"/>
     <use x="63.476562" xlink:href="#DejaVuSans-49"/>
    </g>
   </g>
   <g id="text_34">
    <!-- b1 -->
    <g transform="translate(129.849343 193.676285)scale(0.08 -0.08)">
     <use xlink:href="#DejaVuSans-98"/>
     <use x="63.476562" xlink:href="#DejaVuSans-49"/>
    </g>
   </g>
   <g id="text_35">
    <!-- q2 -->
    <g transform="translate(231.05306 182.350479)scale(0.08 -0.08)">
     <use xlink:href="#DejaVuSans-113"/>
     <use x="63.476562" xlink:href="#DejaVuSans-50"/>
    </g>
   </g>
   <g id="text_36">
    <!-- b1 -->
    <g transform="translate(332.256778 193.676285)scale(0.08 -0.08)">
     <use xlink:href="#DejaVuSans-98"/>
     <use x="63.476562" xlink:href="#DejaVuSans-49"/>
    </g>
   </g>
   <g id="text_37">
    <!-- q1 -->
    <g transform="translate(427.135263 182.350479)scale(0.08 -0.08)">
     <use xlink:href="#DejaVuSans-113"/>
     <use x="63.476562" xlink:href="#DejaVuSans-49"/>
    </g>
   </g>
  </g>
  <g id="axes_3">
   <g id="patch_22">
    <path d="M 33.73 404.56974 
L 438.54487 404.56974 
L 438.54487 328.125882 
L 33.73 328.125882 
z
" style="fill:#ffffff;"/>
   </g>
   <g id="matplotlib.axis_5">
    <g id="xtick_21">
     <g id="line2d_55">
      <path clip-path="url(#pe9406768b4)" d="M 33.73 404.56974 
L 33.73 328.125882 
" style="fill:none;stroke:#b0b0b0;stroke-dasharray:2.96,1.28;stroke-dashoffset:0;stroke-width:0.8;"/>
     </g>
     <g id="line2d_56">
      <g>
       <use style="stroke:#000000;stroke-width:0.8;" x="33.73" xlink:href="#m43ac020229" y="404.56974"/>
      </g>
     </g>
     <g id="text_38">
      <!-- 0.00 -->
      <g transform="translate(27.809086 432.686821)rotate(-45)scale(0.1 -0.1)">
       <use xlink:href="#DejaVuSans-48"/>
       <use x="63.623047" xlink:href="#DejaVuSans-46"/>
       <use x="95.410156" xlink:href="#DejaVuSans-48"/>
       <use x="159.033203" xlink:href="#DejaVuSans-48"/>
      </g>
     </g>
    </g>
    <g id="xtick_22">
     <g id="line2d_57">
      <path clip-path="url(#pe9406768b4)" d="M 46.380465 404.56974 
L 46.380465 328.125882 
" style="fill:none;stroke:#b0b0b0;stroke-dasharray:2.96,1.28;stroke-dashoffset:0;stroke-width:0.8;"/>
     </g>
     <g id="line2d_58">
      <g>
       <use style="stroke:#000000;stroke-width:0.8;" x="46.380465" xlink:href="#m43ac020229" y="404.56974"/>
      </g>
     </g>
     <g id="text_39">
      <!-- 0.25 -->
      <g transform="translate(40.45955 432.686821)rotate(-45)scale(0.1 -0.1)">
       <use xlink:href="#DejaVuSans-48"/>
       <use x="63.623047" xlink:href="#DejaVuSans-46"/>
       <use x="95.410156" xlink:href="#DejaVuSans-50"/>
       <use x="159.033203" xlink:href="#DejaVuSans-53"/>
      </g>
     </g>
    </g>
    <g id="xtick_23">
     <g id="line2d_59">
      <path clip-path="url(#pe9406768b4)" d="M 96.982323 404.56974 
L 96.982323 328.125882 
" style="fill:none;stroke:#b0b0b0;stroke-dasharray:2.96,1.28;stroke-dashoffset:0;stroke-width:0.8;"/>
     </g>
     <g id="line2d_60">
      <g>
       <use style="stroke:#000000;stroke-width:0.8;" x="96.982323" xlink:href="#m43ac020229" y="404.56974"/>
      </g>
     </g>
     <g id="text_40">
      <!-- 1.25 -->
      <g transform="translate(91.061409 432.686821)rotate(-45)scale(0.1 -0.1)">
       <use xlink:href="#DejaVuSans-49"/>
       <use x="63.623047" xlink:href="#DejaVuSans-46"/>
       <use x="95.410156" xlink:href="#DejaVuSans-50"/>
       <use x="159.033203" xlink:href="#DejaVuSans-53"/>
      </g>
     </g>
    </g>
    <g id="xtick_24">
     <g id="line2d_61">
      <path clip-path="url(#pe9406768b4)" d="M 172.885112 404.56974 
L 172.885112 328.125882 
" style="fill:none;stroke:#b0b0b0;stroke-dasharray:2.96,1.28;stroke-dashoffset:0;stroke-width:0.8;"/>
     </g>
     <g id="line2d_62">
      <g>
       <use style="stroke:#000000;stroke-width:0.8;" x="172.885112" xlink:href="#m43ac020229" y="404.56974"/>
      </g>
     </g>
     <g id="text_41">
      <!-- 2.75 -->
      <g transform="translate(166.964197 432.686821)rotate(-45)scale(0.1 -0.1)">
       <use xlink:href="#DejaVuSans-50"/>
       <use x="63.623047" xlink:href="#DejaVuSans-46"/>
       <use x="95.410156" xlink:href="#DejaVuSans-55"/>
       <use x="159.033203" xlink:href="#DejaVuSans-53"/>
      </g>
     </g>
    </g>
    <g id="xtick_25">
     <g id="line2d_63">
      <path clip-path="url(#pe9406768b4)" d="M 223.48697 404.56974 
L 223.48697 328.125882 
" style="fill:none;stroke:#b0b0b0;stroke-dasharray:2.96,1.28;stroke-dashoffset:0;stroke-width:0.8;"/>
     </g>
     <g id="line2d_64">
      <g>
       <use style="stroke:#000000;stroke-width:0.8;" x="223.48697" xlink:href="#m43ac020229" y="404.56974"/>
      </g>
     </g>
     <g id="text_42">
      <!-- 3.75 -->
      <g transform="translate(217.566056 432.686821)rotate(-45)scale(0.1 -0.1)">
       <use xlink:href="#DejaVuSans-51"/>
       <use x="63.623047" xlink:href="#DejaVuSans-46"/>
       <use x="95.410156" xlink:href="#DejaVuSans-55"/>
       <use x="159.033203" xlink:href="#DejaVuSans-53"/>
      </g>
     </g>
    </g>
    <g id="xtick_26">
     <g id="line2d_65">
      <path clip-path="url(#pe9406768b4)" d="M 248.7879 404.56974 
L 248.7879 328.125882 
" style="fill:none;stroke:#b0b0b0;stroke-dasharray:2.96,1.28;stroke-dashoffset:0;stroke-width:0.8;"/>
     </g>
     <g id="line2d_66">
      <g>
       <use style="stroke:#000000;stroke-width:0.8;" x="248.7879" xlink:href="#m43ac020229" y="404.56974"/>
      </g>
     </g>
     <g id="text_43">
      <!-- 4.25 -->
      <g transform="translate(242.866985 432.686821)rotate(-45)scale(0.1 -0.1)">
       <use xlink:href="#DejaVuSans-52"/>
       <use x="63.623047" xlink:href="#DejaVuSans-46"/>
       <use x="95.410156" xlink:href="#DejaVuSans-50"/>
       <use x="159.033203" xlink:href="#DejaVuSans-53"/>
      </g>
     </g>
    </g>
    <g id="xtick_27">
     <g id="line2d_67">
      <path clip-path="url(#pe9406768b4)" d="M 299.389759 404.56974 
L 299.389759 328.125882 
" style="fill:none;stroke:#b0b0b0;stroke-dasharray:2.96,1.28;stroke-dashoffset:0;stroke-width:0.8;"/>
     </g>
     <g id="line2d_68">
      <g>
       <use style="stroke:#000000;stroke-width:0.8;" x="299.389759" xlink:href="#m43ac020229" y="404.56974"/>
      </g>
     </g>
     <g id="text_44">
      <!-- 5.25 -->
      <g transform="translate(293.468844 432.686821)rotate(-45)scale(0.1 -0.1)">
       <use xlink:href="#DejaVuSans-53"/>
       <use x="63.623047" xlink:href="#DejaVuSans-46"/>
       <use x="95.410156" xlink:href="#DejaVuSans-50"/>
       <use x="159.033203" xlink:href="#DejaVuSans-53"/>
      </g>
     </g>
    </g>
    <g id="xtick_28">
     <g id="line2d_69">
      <path clip-path="url(#pe9406768b4)" d="M 375.292547 404.56974 
L 375.292547 328.125882 
" style="fill:none;stroke:#b0b0b0;stroke-dasharray:2.96,1.28;stroke-dashoffset:0;stroke-width:0.8;"/>
     </g>
     <g id="line2d_70">
      <g>
       <use style="stroke:#000000;stroke-width:0.8;" x="375.292547" xlink:href="#m43ac020229" y="404.56974"/>
      </g>
     </g>
     <g id="text_45">
      <!-- 6.75 -->
      <g transform="translate(369.371632 432.686821)rotate(-45)scale(0.1 -0.1)">
       <use xlink:href="#DejaVuSans-54"/>
       <use x="63.623047" xlink:href="#DejaVuSans-46"/>
       <use x="95.410156" xlink:href="#DejaVuSans-55"/>
       <use x="159.033203" xlink:href="#DejaVuSans-53"/>
      </g>
     </g>
    </g>
    <g id="xtick_29">
     <g id="line2d_71">
      <path clip-path="url(#pe9406768b4)" d="M 425.894405 404.56974 
L 425.894405 328.125882 
" style="fill:none;stroke:#b0b0b0;stroke-dasharray:2.96,1.28;stroke-dashoffset:0;stroke-width:0.8;"/>
     </g>
     <g id="line2d_72">
      <g>
       <use style="stroke:#000000;stroke-width:0.8;" x="425.894405" xlink:href="#m43ac020229" y="404.56974"/>
      </g>
     </g>
     <g id="text_46">
      <!-- 7.75 -->
      <g transform="translate(419.973491 432.686821)rotate(-45)scale(0.1 -0.1)">
       <use xlink:href="#DejaVuSans-55"/>
       <use x="63.623047" xlink:href="#DejaVuSans-46"/>
       <use x="95.410156" xlink:href="#DejaVuSans-55"/>
       <use x="159.033203" xlink:href="#DejaVuSans-53"/>
      </g>
     </g>
    </g>
    <g id="xtick_30">
     <g id="line2d_73">
      <path clip-path="url(#pe9406768b4)" d="M 438.54487 404.56974 
L 438.54487 328.125882 
" style="fill:none;stroke:#b0b0b0;stroke-dasharray:2.96,1.28;stroke-dashoffset:0;stroke-width:0.8;"/>
     </g>
     <g id="line2d_74">
      <g>
       <use style="stroke:#000000;stroke-width:0.8;" x="438.54487" xlink:href="#m43ac020229" y="404.56974"/>
      </g>
     </g>
     <g id="text_47">
      <!-- 8.00 -->
      <g transform="translate(432.623956 432.686821)rotate(-45)scale(0.1 -0.1)">
       <use xlink:href="#DejaVuSans-56"/>
       <use x="63.623047" xlink:href="#DejaVuSans-46"/>
       <use x="95.410156" xlink:href="#DejaVuSans-48"/>
       <use x="159.033203" xlink:href="#DejaVuSans-48"/>
      </g>
     </g>
    </g>
    <g id="text_48">
     <!-- Orbit Position $s$ / m -->
     <g transform="translate(188.437435 445.75582)scale(0.1 -0.1)">
      <use transform="translate(0 0.015625)" xlink:href="#DejaVuSans-79"/>
      <use transform="translate(78.710938 0.015625)" xlink:href="#DejaVuSans-114"/>
      <use transform="translate(119.824219 0.015625)" xlink:href="#DejaVuSans-98"/>
      <use transform="translate(183.300781 0.015625)" xlink:href="#DejaVuSans-105"/>
      <use transform="translate(211.083984 0.015625)" xlink:href="#DejaVuSans-116"/>
      <use transform="translate(250.292969 0.015625)" xlink:href="#DejaVuSans-32"/>
      <use transform="translate(282.080078 0.015625)" xlink:href="#DejaVuSans-80"/>
      <use transform="translate(342.382812 0.015625)" xlink:href="#DejaVuSans-111"/>
      <use transform="translate(403.564453 0.015625)" xlink:href="#DejaVuSans-115"/>
      <use transform="translate(455.664062 0.015625)" xlink:href="#DejaVuSans-105"/>
      <use transform="translate(483.447266 0.015625)" xlink:href="#DejaVuSans-116"/>
      <use transform="translate(522.65625 0.015625)" xlink:href="#DejaVuSans-105"/>
      <use transform="translate(550.439453 0.015625)" xlink:href="#DejaVuSans-111"/>
      <use transform="translate(611.621094 0.015625)" xlink:href="#DejaVuSans-110"/>
      <use transform="translate(675 0.015625)" xlink:href="#DejaVuSans-32"/>
      <use transform="translate(706.787109 0.015625)" xlink:href="#DejaVuSans-Oblique-115"/>
      <use transform="translate(758.886719 0.015625)" xlink:href="#DejaVuSans-32"/>
      <use transform="translate(790.673828 0.015625)" xlink:href="#DejaVuSans-47"/>
      <use transform="translate(824.365234 0.015625)" xlink:href="#DejaVuSans-32"/>
      <use transform="translate(856.152344 0.015625)" xlink:href="#DejaVuSans-109"/>
     </g>
    </g>
   </g>
   <g id="matplotlib.axis_6">
    <g id="ytick_6">
     <g id="line2d_75">
      <path clip-path="url(#pe9406768b4)" d="M 33.73 401.095019 
L 438.54487 401.095019 
" style="fill:none;stroke:#b0b0b0;stroke-dasharray:2.96,1.28;stroke-dashoffset:0;stroke-width:0.8;"/>
     </g>
     <g id="line2d_76">
      <g>
       <use style="stroke:#000000;stroke-width:0.8;" x="33.73" xlink:href="#m1c2d64e6d4" y="401.095019"/>
      </g>
     </g>
     <g id="text_49">
      <!-- 0 -->
      <g transform="translate(20.3675 404.894238)scale(0.1 -0.1)">
       <use xlink:href="#DejaVuSans-48"/>
      </g>
     </g>
    </g>
    <g id="ytick_7">
     <g id="line2d_77">
      <path clip-path="url(#pe9406768b4)" d="M 33.73 364.550516 
L 438.54487 364.550516 
" style="fill:none;stroke:#b0b0b0;stroke-dasharray:2.96,1.28;stroke-dashoffset:0;stroke-width:0.8;"/>
     </g>
     <g id="line2d_78">
      <g>
       <use style="stroke:#000000;stroke-width:0.8;" x="33.73" xlink:href="#m1c2d64e6d4" y="364.550516"/>
      </g>
     </g>
     <g id="text_50">
      <!-- 1 -->
      <g transform="translate(20.3675 368.349735)scale(0.1 -0.1)">
       <use xlink:href="#DejaVuSans-49"/>
      </g>
     </g>
    </g>
   </g>
   <g id="patch_23">
    <path d="M 33.73 404.56974 
L 33.73 328.125882 
" style="fill:none;stroke:#000000;stroke-linecap:square;stroke-linejoin:miter;stroke-width:0.8;"/>
   </g>
   <g id="patch_24">
    <path d="M 438.54487 404.56974 
L 438.54487 328.125882 
" style="fill:none;stroke:#000000;stroke-linecap:square;stroke-linejoin:miter;stroke-width:0.8;"/>
   </g>
   <g id="patch_25">
    <path d="M 33.73 404.56974 
L 438.54487 404.56974 
" style="fill:none;stroke:#000000;stroke-linecap:square;stroke-linejoin:miter;stroke-width:0.8;"/>
   </g>
   <g id="patch_26">
    <path d="M 33.73 328.125882 
L 438.54487 328.125882 
" style="fill:none;stroke:#000000;stroke-linecap:square;stroke-linejoin:miter;stroke-width:0.8;"/>
   </g>
   <g id="line2d_79">
    <path clip-path="url(#pe9406768b4)" d="M 33.73 401.095019 
L 34.995046 400.548511 
L 36.260093 400.002792 
L 37.525139 399.458646 
L 38.790186 398.916849 
L 40.055232 398.378159 
L 41.320279 397.843313 
L 42.585325 397.313026 
L 43.850372 396.787982 
L 45.115418 396.268834 
L 46.380465 395.756198 
L 51.440651 393.776596 
L 56.500836 391.911792 
L 61.561022 390.160971 
L 66.621208 388.521324 
L 71.681394 386.988595 
L 76.74158 385.557554 
L 81.801766 384.222388 
L 86.861952 382.977006 
L 91.922138 381.815271 
L 96.982323 380.731159 
L 104.572602 379.234478 
L 112.162881 377.876802 
L 119.75316 376.64291 
L 127.343439 375.519083 
L 134.933718 374.493094 
L 142.523996 373.554129 
L 150.114275 372.692665 
L 157.704554 371.900336 
L 165.294833 371.169806 
L 172.885112 370.494638 
L 177.945297 370.0721 
L 183.005483 369.669165 
L 188.065669 369.284589 
L 193.125855 368.917227 
L 198.186041 368.566017 
L 203.246227 368.229978 
L 208.306413 367.9082 
L 213.366599 367.599843 
L 218.426785 367.304123 
L 223.48697 367.020318 
L 226.017063 366.882554 
L 228.547156 366.74699 
L 231.077249 366.613045 
L 233.607342 366.480164 
L 236.137435 366.347811 
L 238.667528 366.215459 
L 241.197621 366.082578 
L 243.727714 365.948633 
L 246.257807 365.813068 
L 248.7879 365.675305 
L 253.848086 365.391499 
L 258.908272 365.09578 
L 263.968457 364.787422 
L 269.028643 364.465645 
L 274.088829 364.129605 
L 279.149015 363.778395 
L 284.209201 363.411033 
L 289.269387 363.026458 
L 294.329573 362.623522 
L 299.389759 362.200985 
L 306.980037 361.525816 
L 314.570316 360.795286 
L 322.160595 360.002958 
L 329.750874 359.141494 
L 337.341153 358.202529 
L 344.931431 357.17654 
L 352.52171 356.052713 
L 360.111989 354.818821 
L 367.702268 353.461145 
L 375.292547 351.964463 
L 380.352733 350.880351 
L 385.412918 349.718616 
L 390.473104 348.473235 
L 395.53329 347.138069 
L 400.593476 345.707027 
L 405.653662 344.174298 
L 410.713848 342.534652 
L 415.774034 340.783831 
L 420.83422 338.919027 
L 425.894405 336.939424 
L 427.159452 336.426789 
L 428.424498 335.90764 
L 429.689545 335.382597 
L 430.954591 334.852309 
L 432.219638 334.317464 
L 433.484684 333.778773 
L 434.749731 333.236976 
L 436.014777 332.692831 
L 437.279824 332.147112 
L 438.54487 331.600603 
" style="fill:none;stroke:#ff8c00;stroke-linecap:square;stroke-width:1.3;"/>
   </g>
   <g id="patch_27">
    <path d="M 33.73 329.320318 
L 46.380465 329.320318 
L 46.380465 326.931447 
L 33.73 326.931447 
z
" style="fill:#dc143c;"/>
   </g>
   <g id="patch_28">
    <path d="M 96.982323 329.320318 
L 172.885112 329.320318 
L 172.885112 326.931447 
L 96.982323 326.931447 
z
" style="fill:#ffd700;"/>
   </g>
   <g id="patch_29">
    <path d="M 223.48697 329.320318 
L 248.7879 329.320318 
L 248.7879 326.931447 
L 223.48697 326.931447 
z
" style="fill:#dc143c;"/>
   </g>
   <g id="patch_30">
    <path d="M 299.389759 329.320318 
L 375.292547 329.320318 
L 375.292547 326.931447 
L 299.389759 326.931447 
z
" style="fill:#ffd700;"/>
   </g>
   <g id="patch_31">
    <path d="M 425.894405 329.320318 
L 438.54487 329.320318 
L 438.54487 326.931447 
L 425.894405 326.931447 
z
" style="fill:#dc143c;"/>
   </g>
   <g id="line2d_80">
    <path clip-path="url(#pe9406768b4)" d="M 33.73 401.095019 
L 34.995046 401.02996 
L 36.260093 400.964837 
L 37.525139 400.899583 
L 38.790186 400.834135 
L 40.055232 400.768425 
L 41.320279 400.702386 
L 42.585325 400.63595 
L 43.850372 400.569046 
L 45.115418 400.501602 
L 46.380465 400.433544 
L 51.440651 400.154317 
L 56.500836 399.863364 
L 61.561022 399.559971 
L 66.621208 399.243367 
L 71.681394 398.912721 
L 76.74158 398.567135 
L 81.801766 398.205639 
L 86.861952 397.827185 
L 91.922138 397.430638 
L 96.982323 397.01477 
L 104.572602 396.352806 
L 112.162881 395.641815 
L 119.75316 394.876133 
L 127.343439 394.04929 
L 134.933718 393.153894 
L 142.523996 392.181492 
L 150.114275 391.122425 
L 157.704554 389.965681 
L 165.294833 388.69875 
L 172.885112 387.307511 
L 177.945297 386.305232 
L 183.005483 385.239104 
L 188.065669 384.104829 
L 193.125855 382.898066 
L 198.186041 381.614541 
L 203.246227 380.250178 
L 208.306413 378.801278 
L 213.366599 377.264734 
L 218.426785 375.638295 
L 223.48697 373.920861 
L 226.017063 373.028932 
L 228.547156 372.118245 
L 231.077249 371.1931 
L 233.607342 370.258124 
L 236.137435 369.318175 
L 238.667528 368.378227 
L 241.197621 367.443251 
L 243.727714 366.518106 
L 246.257807 365.607419 
L 248.7879 364.71549 
L 253.848086 362.998056 
L 258.908272 361.371617 
L 263.968457 359.835073 
L 269.028643 358.386173 
L 274.088829 357.02181 
L 279.149015 355.738285 
L 284.209201 354.531522 
L 289.269387 353.397247 
L 294.329573 352.331119 
L 299.389759 351.32884 
L 306.980037 349.937601 
L 314.570316 348.67067 
L 322.160595 347.513926 
L 329.750874 346.454859 
L 337.341153 345.482457 
L 344.931431 344.587061 
L 352.52171 343.760218 
L 360.111989 342.994536 
L 367.702268 342.283545 
L 375.292547 341.621581 
L 380.352733 341.205713 
L 385.412918 340.809166 
L 390.473104 340.430712 
L 395.53329 340.069216 
L 400.593476 339.72363 
L 405.653662 339.392984 
L 410.713848 339.07638 
L 415.774034 338.772987 
L 420.83422 338.482034 
L 425.894405 338.202807 
L 427.159452 338.134749 
L 428.424498 338.067305 
L 429.689545 338.000401 
L 430.954591 337.933965 
L 432.219638 337.867926 
L 433.484684 337.802216 
L 434.749731 337.736768 
L 436.014777 337.671514 
L 437.279824 337.606391 
L 438.54487 337.541331 
" style="fill:none;stroke:#ffd700;stroke-linecap:square;stroke-width:1.3;"/>
   </g>
   <g id="text_51">
    <!-- q1 -->
    <g transform="translate(34.970857 324.670479)scale(0.08 -0.08)">
     <use xlink:href="#DejaVuSans-113"/>
     <use x="63.476562" xlink:href="#DejaVuSans-49"/>
    </g>
   </g>
   <g id="text_52">
    <!-- b1 -->
    <g transform="translate(129.849343 335.996285)scale(0.08 -0.08)">
     <use xlink:href="#DejaVuSans-98"/>
     <use x="63.476562" xlink:href="#DejaVuSans-49"/>
    </g>
   </g>
   <g id="text_53">
    <!-- q2 -->
    <g transform="translate(231.05306 324.670479)scale(0.08 -0.08)">
     <use xlink:href="#DejaVuSans-113"/>
     <use x="63.476562" xlink:href="#DejaVuSans-50"/>
    </g>
   </g>
   <g id="text_54">
    <!-- b1 -->
    <g transform="translate(332.256778 335.996285)scale(0.08 -0.08)">
     <use xlink:href="#DejaVuSans-98"/>
     <use x="63.476562" xlink:href="#DejaVuSans-49"/>
    </g>
   </g>
   <g id="text_55">
    <!-- q1 -->
    <g transform="translate(427.135263 324.670479)scale(0.08 -0.08)">
     <use xlink:href="#DejaVuSans-113"/>
     <use x="63.476562" xlink:href="#DejaVuSans-49"/>
    </g>
   </g>
  </g>
  <g id="legend_1">
   <g id="line2d_81">
    <path d="M 9 13.2 
L 29 13.2 
" style="fill:none;stroke:#dc143c;stroke-linecap:square;stroke-width:1.3;"/>
   </g>
   <g id="line2d_82"/>
   <g id="text_56">
    <!-- $\beta_x$/m -->
    <g transform="translate(37 16.7)scale(0.1 -0.1)">
     <defs>
      <path d="M 13.625 3.375 
L 8.9375 -20.796875 
L -0.09375 -20.796875 
L 14.5 54.34375 
Q 18.84375 76.609375 39.65625 76.609375 
Q 60.75 76.609375 57.171875 57.8125 
Q 54.734375 44.4375 45.21875 39.546875 
Q 58.015625 35.15625 55.515625 22.125 
Q 51.125 -1.078125 27.484375 -1.03125 
Q 17.140625 -0.984375 13.625 3.375 
z
M 15.921875 15.09375 
Q 19.671875 6.59375 29.296875 6.640625 
Q 43.359375 6.640625 46.34375 21.96875 
Q 49.03125 35.75 26.171875 34.671875 
L 27.78125 42.96875 
Q 45.453125 42.671875 48.53125 58.59375 
Q 50.640625 69.34375 39.203125 69.28125 
Q 26.421875 69.28125 23.484375 54.046875 
z
" id="DejaVuSans-Oblique-946"/>
      <path d="M 60.015625 54.6875 
L 34.90625 27.875 
L 50.296875 0 
L 39.984375 0 
L 28.421875 21.6875 
L 8.296875 0 
L -2.59375 0 
L 24.3125 28.8125 
L 10.015625 54.6875 
L 20.3125 54.6875 
L 30.8125 34.90625 
L 49.125 54.6875 
z
" id="DejaVuSans-Oblique-120"/>
     </defs>
     <use transform="translate(0 0.390625)" xlink:href="#DejaVuSans-Oblique-946"/>
     <use transform="translate(63.818359 -16.015625)scale(0.7)" xlink:href="#DejaVuSans-Oblique-120"/>
     <use transform="translate(107.978516 0.390625)" xlink:href="#DejaVuSans-47"/>
     <use transform="translate(141.669922 0.390625)" xlink:href="#DejaVuSans-109"/>
    </g>
   </g>
   <g id="line2d_83">
    <path d="M 81 13.2 
L 101 13.2 
" style="fill:none;stroke:#1e90ff;stroke-linecap:square;stroke-width:1.3;"/>
   </g>
   <g id="line2d_84"/>
   <g id="text_57">
    <!-- $\beta_y$/m -->
    <g transform="translate(109 16.7)scale(0.1 -0.1)">
     <defs>
      <path d="M 24.8125 -5.078125 
Q 18.5625 -15.578125 14.625 -18.1875 
Q 10.6875 -20.796875 4.59375 -20.796875 
L -2.484375 -20.796875 
L -0.984375 -13.28125 
L 4.203125 -13.28125 
Q 7.953125 -13.28125 10.59375 -11.234375 
Q 13.234375 -9.1875 16.5 -3.21875 
L 19.28125 2 
L 7.171875 54.6875 
L 16.703125 54.6875 
L 25.78125 12.796875 
L 50.875 54.6875 
L 60.296875 54.6875 
z
" id="DejaVuSans-Oblique-121"/>
     </defs>
     <use transform="translate(0 0.390625)" xlink:href="#DejaVuSans-Oblique-946"/>
     <use transform="translate(63.818359 -16.015625)scale(0.7)" xlink:href="#DejaVuSans-Oblique-121"/>
     <use transform="translate(107.978516 0.390625)" xlink:href="#DejaVuSans-47"/>
     <use transform="translate(141.669922 0.390625)" xlink:href="#DejaVuSans-109"/>
    </g>
   </g>
   <g id="line2d_85">
    <path d="M 153 13.2 
L 173 13.2 
" style="fill:none;stroke:#8b008b;stroke-linecap:square;stroke-width:1.3;"/>
   </g>
   <g id="line2d_86"/>
   <g id="text_58">
    <!-- $\alpha_x$ -->
    <g transform="translate(181 16.7)scale(0.1 -0.1)">
     <defs>
      <path d="M 40.921875 25.4375 
L 40.96875 36.71875 
Q 41.015625 48.25 32.328125 48.296875 
Q 25.828125 48.34375 21.78125 42.921875 
Q 16.703125 36.234375 14.984375 27.296875 
Q 12.890625 16.546875 15.53125 11.421875 
Q 18.265625 6.203125 24.171875 6.203125 
Q 30.71875 6.203125 36.234375 16.609375 
z
M 33.84375 55.90625 
Q 49.078125 56.15625 48.875 40.375 
Q 48.875 40.375 56.5 54.6875 
L 64.5 54.6875 
L 48.734375 25.046875 
L 48.578125 14.359375 
Q 48.578125 11.96875 49.90625 9.96875 
Q 51.421875 7.625 52.984375 7.625 
L 57.328125 7.625 
L 55.859375 0 
L 50.4375 0 
Q 45.84375 0 42.53125 4.109375 
Q 40.96875 6.15625 40.921875 10.453125 
Q 37.75 5.21875 32.28125 0.78125 
Q 29.6875 -1.265625 22.703125 -1.21875 
Q 11.28125 -1.125 7.125 6.203125 
Q 2.875 13.8125 5.515625 27.296875 
Q 8.34375 41.796875 15.765625 48.390625 
Q 24.125 55.765625 33.84375 55.90625 
z
" id="DejaVuSans-Oblique-945"/>
     </defs>
     <use transform="translate(0 0.84375)" xlink:href="#DejaVuSans-Oblique-945"/>
     <use transform="translate(65.917969 -15.5625)scale(0.7)" xlink:href="#DejaVuSans-Oblique-120"/>
    </g>
   </g>
   <g id="line2d_87">
    <path d="M 212.1 13.2 
L 232.1 13.2 
" style="fill:none;stroke:#000000;stroke-linecap:square;stroke-width:1.3;"/>
   </g>
   <g id="line2d_88"/>
   <g id="text_59">
    <!-- $\alpha_y$ -->
    <g transform="translate(240.1 16.7)scale(0.1 -0.1)">
     <use transform="translate(0 0.84375)" xlink:href="#DejaVuSans-Oblique-945"/>
     <use transform="translate(65.917969 -15.5625)scale(0.7)" xlink:href="#DejaVuSans-Oblique-121"/>
    </g>
   </g>
   <g id="line2d_89">
    <path d="M 271.2 13.2 
L 291.2 13.2 
" style="fill:none;stroke:#ffd700;stroke-linecap:square;stroke-width:1.3;"/>
   </g>
   <g id="line2d_90"/>
   <g id="text_60">
    <!-- $\psi_x$ -->
    <g transform="translate(299.2 16.7)scale(0.1 -0.1)">
     <defs>
      <path d="M 24.859375 -1.21875 
Q 13.921875 0.59375 9.625 5.328125 
Q 4.34375 11.140625 6.640625 23 
L 12.796875 54.6875 
L 21.875 54.6875 
L 15.765625 23.34375 
Q 14.0625 14.40625 17.484375 10.6875 
Q 20.515625 7.46875 26.421875 6.78125 
L 35.6875 54.6875 
L 44.625 54.6875 
L 35.359375 6.84375 
Q 41.890625 7.515625 45.75 10.75 
Q 50.734375 14.84375 52.390625 23.390625 
L 58.453125 54.6875 
L 67.53125 54.6875 
L 61.375 23.046875 
Q 58.984375 10.75 51.5625 5.375 
Q 44.875 0.53125 33.796875 -1.171875 
L 29.984375 -20.796875 
L 21.046875 -20.796875 
z
" id="DejaVuSans-Oblique-968"/>
     </defs>
     <use transform="translate(0 0.3125)" xlink:href="#DejaVuSans-Oblique-968"/>
     <use transform="translate(65.966797 -16.09375)scale(0.7)" xlink:href="#DejaVuSans-Oblique-120"/>
    </g>
   </g>
   <g id="line2d_91">
    <path d="M 330.3 13.2 
L 350.3 13.2 
" style="fill:none;stroke:#ff8c00;stroke-linecap:square;stroke-width:1.3;"/>
   </g>
   <g id="line2d_92"/>
   <g id="text_61">
    <!-- $\psi_y$ -->
    <g transform="translate(358.3 16.7)scale(0.1 -0.1)">
     <use transform="translate(0 0.3125)" xlink:href="#DejaVuSans-Oblique-968"/>
     <use transform="translate(65.966797 -16.09375)scale(0.7)" xlink:href="#DejaVuSans-Oblique-121"/>
    </g>
   </g>
  </g>
 </g>
 <defs>
  <clipPath id="p770123bde8">
   <rect height="76.443858" width="404.81487" x="33.73" y="43.485882"/>
  </clipPath>
  <clipPath id="p62c0831557">
   <rect height="76.443858" width="404.81487" x="33.73" y="185.805882"/>
  </clipPath>
  <clipPath id="pe9406768b4">
   <rect height="76.443858" width="404.81487" x="33.73" y="328.125882"/>
  </clipPath>
 </defs>
</svg>
