<?xml version="1.0" encoding="utf-8" standalone="no"?>
<!DOCTYPE svg PUBLIC "-//W3C//DTD SVG 1.1//EN"
  "http://www.w3.org/Graphics/SVG/1.1/DTD/svg11.dtd">
<svg height="360pt" version="1.1" viewBox="0 0 720 360" width="720pt" xmlns="http://www.w3.org/2000/svg" xmlns:xlink="http://www.w3.org/1999/xlink">
 <metadata>
  <rdf:RDF xmlns:cc="http://creativecommons.org/ns#" xmlns:dc="http://purl.org/dc/elements/1.1/" xmlns:rdf="http://www.w3.org/1999/02/22-rdf-syntax-ns#">
   <cc:Work>
    <dc:type rdf:resource="http://purl.org/dc/dcmitype/StillImage"/>
    <dc:date>2021-11-23T17:48:14.579942</dc:date>
    <dc:format>image/svg+xml</dc:format>
    <dc:creator>
     <cc:Agent>
      <dc:title>Matplotlib v3.4.3, https://matplotlib.org/</dc:title>
     </cc:Agent>
    </dc:creator>
   </cc:Work>
  </rdf:RDF>
 </metadata>
 <defs>
  <style type="text/css">*{stroke-linecap:butt;stroke-linejoin:round;}</style>
 </defs>
 <g id="figure_1">
  <g id="patch_1">
   <path d="M 0 360 
L 720 360 
L 720 0 
L 0 0 
z
" style="fill:#ffffff;"/>
  </g>
  <g id="axes_1">
   <g id="patch_2">
    <path d="M 58.445054 314.008 
L 364.392527 314.008 
L 364.392527 10.8 
L 58.445054 10.8 
z
" style="fill:#ffffff;"/>
   </g>
   <g id="matplotlib.axis_1">
    <g id="xtick_1">
     <g id="line2d_1">
      <path clip-path="url(#p1a12aaf195)" d="M 69.542322 314.008 
L 69.542322 10.8 
" style="fill:none;stroke:#b0b0b0;stroke-linecap:square;stroke-width:0.8;"/>
     </g>
     <g id="line2d_2">
      <defs>
       <path d="M 0 0 
L 0 3.5 
" id="mac1e413f5d" style="stroke:#000000;stroke-width:0.8;"/>
      </defs>
      <g>
       <use style="stroke:#000000;stroke-width:0.8;" x="69.542322" xlink:href="#mac1e413f5d" y="314.008"/>
      </g>
     </g>
     <g id="text_1">
      <!-- 0.0 -->
      <g transform="translate(61.59076 328.606437)scale(0.1 -0.1)">
       <defs>
        <path d="M 2034 4250 
Q 1547 4250 1301 3770 
Q 1056 3291 1056 2328 
Q 1056 1369 1301 889 
Q 1547 409 2034 409 
Q 2525 409 2770 889 
Q 3016 1369 3016 2328 
Q 3016 3291 2770 3770 
Q 2525 4250 2034 4250 
z
M 2034 4750 
Q 2819 4750 3233 4129 
Q 3647 3509 3647 2328 
Q 3647 1150 3233 529 
Q 2819 -91 2034 -91 
Q 1250 -91 836 529 
Q 422 1150 422 2328 
Q 422 3509 836 4129 
Q 1250 4750 2034 4750 
z
" id="DejaVuSans-30" transform="scale(0.015625)"/>
        <path d="M 684 794 
L 1344 794 
L 1344 0 
L 684 0 
L 684 794 
z
" id="DejaVuSans-2e" transform="scale(0.015625)"/>
       </defs>
       <use xlink:href="#DejaVuSans-30"/>
       <use x="63.623047" xlink:href="#DejaVuSans-2e"/>
       <use x="95.410156" xlink:href="#DejaVuSans-30"/>
      </g>
     </g>
    </g>
    <g id="xtick_2">
     <g id="line2d_3">
      <path clip-path="url(#p1a12aaf195)" d="M 125.731022 314.008 
L 125.731022 10.8 
" style="fill:none;stroke:#b0b0b0;stroke-linecap:square;stroke-width:0.8;"/>
     </g>
     <g id="line2d_4">
      <g>
       <use style="stroke:#000000;stroke-width:0.8;" x="125.731022" xlink:href="#mac1e413f5d" y="314.008"/>
      </g>
     </g>
     <g id="text_2">
      <!-- 0.2 -->
      <g transform="translate(117.77946 328.606437)scale(0.1 -0.1)">
       <defs>
        <path d="M 1228 531 
L 3431 531 
L 3431 0 
L 469 0 
L 469 531 
Q 828 903 1448 1529 
Q 2069 2156 2228 2338 
Q 2531 2678 2651 2914 
Q 2772 3150 2772 3378 
Q 2772 3750 2511 3984 
Q 2250 4219 1831 4219 
Q 1534 4219 1204 4116 
Q 875 4013 500 3803 
L 500 4441 
Q 881 4594 1212 4672 
Q 1544 4750 1819 4750 
Q 2544 4750 2975 4387 
Q 3406 4025 3406 3419 
Q 3406 3131 3298 2873 
Q 3191 2616 2906 2266 
Q 2828 2175 2409 1742 
Q 1991 1309 1228 531 
z
" id="DejaVuSans-32" transform="scale(0.015625)"/>
       </defs>
       <use xlink:href="#DejaVuSans-30"/>
       <use x="63.623047" xlink:href="#DejaVuSans-2e"/>
       <use x="95.410156" xlink:href="#DejaVuSans-32"/>
      </g>
     </g>
    </g>
    <g id="xtick_3">
     <g id="line2d_5">
      <path clip-path="url(#p1a12aaf195)" d="M 181.919723 314.008 
L 181.919723 10.8 
" style="fill:none;stroke:#b0b0b0;stroke-linecap:square;stroke-width:0.8;"/>
     </g>
     <g id="line2d_6">
      <g>
       <use style="stroke:#000000;stroke-width:0.8;" x="181.919723" xlink:href="#mac1e413f5d" y="314.008"/>
      </g>
     </g>
     <g id="text_3">
      <!-- 0.4 -->
      <g transform="translate(173.96816 328.606437)scale(0.1 -0.1)">
       <defs>
        <path d="M 2419 4116 
L 825 1625 
L 2419 1625 
L 2419 4116 
z
M 2253 4666 
L 3047 4666 
L 3047 1625 
L 3713 1625 
L 3713 1100 
L 3047 1100 
L 3047 0 
L 2419 0 
L 2419 1100 
L 313 1100 
L 313 1709 
L 2253 4666 
z
" id="DejaVuSans-34" transform="scale(0.015625)"/>
       </defs>
       <use xlink:href="#DejaVuSans-30"/>
       <use x="63.623047" xlink:href="#DejaVuSans-2e"/>
       <use x="95.410156" xlink:href="#DejaVuSans-34"/>
      </g>
     </g>
    </g>
    <g id="xtick_4">
     <g id="line2d_7">
      <path clip-path="url(#p1a12aaf195)" d="M 238.108423 314.008 
L 238.108423 10.8 
" style="fill:none;stroke:#b0b0b0;stroke-linecap:square;stroke-width:0.8;"/>
     </g>
     <g id="line2d_8">
      <g>
       <use style="stroke:#000000;stroke-width:0.8;" x="238.108423" xlink:href="#mac1e413f5d" y="314.008"/>
      </g>
     </g>
     <g id="text_4">
      <!-- 0.6 -->
      <g transform="translate(230.156861 328.606437)scale(0.1 -0.1)">
       <defs>
        <path d="M 2113 2584 
Q 1688 2584 1439 2293 
Q 1191 2003 1191 1497 
Q 1191 994 1439 701 
Q 1688 409 2113 409 
Q 2538 409 2786 701 
Q 3034 994 3034 1497 
Q 3034 2003 2786 2293 
Q 2538 2584 2113 2584 
z
M 3366 4563 
L 3366 3988 
Q 3128 4100 2886 4159 
Q 2644 4219 2406 4219 
Q 1781 4219 1451 3797 
Q 1122 3375 1075 2522 
Q 1259 2794 1537 2939 
Q 1816 3084 2150 3084 
Q 2853 3084 3261 2657 
Q 3669 2231 3669 1497 
Q 3669 778 3244 343 
Q 2819 -91 2113 -91 
Q 1303 -91 875 529 
Q 447 1150 447 2328 
Q 447 3434 972 4092 
Q 1497 4750 2381 4750 
Q 2619 4750 2861 4703 
Q 3103 4656 3366 4563 
z
" id="DejaVuSans-36" transform="scale(0.015625)"/>
       </defs>
       <use xlink:href="#DejaVuSans-30"/>
       <use x="63.623047" xlink:href="#DejaVuSans-2e"/>
       <use x="95.410156" xlink:href="#DejaVuSans-36"/>
      </g>
     </g>
    </g>
    <g id="xtick_5">
     <g id="line2d_9">
      <path clip-path="url(#p1a12aaf195)" d="M 294.297123 314.008 
L 294.297123 10.8 
" style="fill:none;stroke:#b0b0b0;stroke-linecap:square;stroke-width:0.8;"/>
     </g>
     <g id="line2d_10">
      <g>
       <use style="stroke:#000000;stroke-width:0.8;" x="294.297123" xlink:href="#mac1e413f5d" y="314.008"/>
      </g>
     </g>
     <g id="text_5">
      <!-- 0.8 -->
      <g transform="translate(286.345561 328.606437)scale(0.1 -0.1)">
       <defs>
        <path d="M 2034 2216 
Q 1584 2216 1326 1975 
Q 1069 1734 1069 1313 
Q 1069 891 1326 650 
Q 1584 409 2034 409 
Q 2484 409 2743 651 
Q 3003 894 3003 1313 
Q 3003 1734 2745 1975 
Q 2488 2216 2034 2216 
z
M 1403 2484 
Q 997 2584 770 2862 
Q 544 3141 544 3541 
Q 544 4100 942 4425 
Q 1341 4750 2034 4750 
Q 2731 4750 3128 4425 
Q 3525 4100 3525 3541 
Q 3525 3141 3298 2862 
Q 3072 2584 2669 2484 
Q 3125 2378 3379 2068 
Q 3634 1759 3634 1313 
Q 3634 634 3220 271 
Q 2806 -91 2034 -91 
Q 1263 -91 848 271 
Q 434 634 434 1313 
Q 434 1759 690 2068 
Q 947 2378 1403 2484 
z
M 1172 3481 
Q 1172 3119 1398 2916 
Q 1625 2713 2034 2713 
Q 2441 2713 2670 2916 
Q 2900 3119 2900 3481 
Q 2900 3844 2670 4047 
Q 2441 4250 2034 4250 
Q 1625 4250 1398 4047 
Q 1172 3844 1172 3481 
z
" id="DejaVuSans-38" transform="scale(0.015625)"/>
       </defs>
       <use xlink:href="#DejaVuSans-30"/>
       <use x="63.623047" xlink:href="#DejaVuSans-2e"/>
       <use x="95.410156" xlink:href="#DejaVuSans-38"/>
      </g>
     </g>
    </g>
    <g id="xtick_6">
     <g id="line2d_11">
      <path clip-path="url(#p1a12aaf195)" d="M 350.485824 314.008 
L 350.485824 10.8 
" style="fill:none;stroke:#b0b0b0;stroke-linecap:square;stroke-width:0.8;"/>
     </g>
     <g id="line2d_12">
      <g>
       <use style="stroke:#000000;stroke-width:0.8;" x="350.485824" xlink:href="#mac1e413f5d" y="314.008"/>
      </g>
     </g>
     <g id="text_6">
      <!-- 1.0 -->
      <g transform="translate(342.534261 328.606437)scale(0.1 -0.1)">
       <defs>
        <path d="M 794 531 
L 1825 531 
L 1825 4091 
L 703 3866 
L 703 4441 
L 1819 4666 
L 2450 4666 
L 2450 531 
L 3481 531 
L 3481 0 
L 794 0 
L 794 531 
z
" id="DejaVuSans-31" transform="scale(0.015625)"/>
       </defs>
       <use xlink:href="#DejaVuSans-31"/>
       <use x="63.623047" xlink:href="#DejaVuSans-2e"/>
       <use x="95.410156" xlink:href="#DejaVuSans-30"/>
      </g>
     </g>
    </g>
    <g id="text_7">
     <!-- $k$ / m$^{-2}$ -->
     <g transform="translate(193.41879 342.706437)scale(0.1 -0.1)">
      <defs>
       <path d="M 1172 4863 
L 1747 4863 
L 1197 2028 
L 3169 3500 
L 3916 3500 
L 1716 1825 
L 3322 0 
L 2625 0 
L 1131 1709 
L 800 0 
L 225 0 
L 1172 4863 
z
" id="DejaVuSans-Oblique-6b" transform="scale(0.015625)"/>
       <path id="DejaVuSans-20" transform="scale(0.015625)"/>
       <path d="M 1625 4666 
L 2156 4666 
L 531 -594 
L 0 -594 
L 1625 4666 
z
" id="DejaVuSans-2f" transform="scale(0.015625)"/>
       <path d="M 3328 2828 
Q 3544 3216 3844 3400 
Q 4144 3584 4550 3584 
Q 5097 3584 5394 3201 
Q 5691 2819 5691 2113 
L 5691 0 
L 5113 0 
L 5113 2094 
Q 5113 2597 4934 2840 
Q 4756 3084 4391 3084 
Q 3944 3084 3684 2787 
Q 3425 2491 3425 1978 
L 3425 0 
L 2847 0 
L 2847 2094 
Q 2847 2600 2669 2842 
Q 2491 3084 2119 3084 
Q 1678 3084 1418 2786 
Q 1159 2488 1159 1978 
L 1159 0 
L 581 0 
L 581 3500 
L 1159 3500 
L 1159 2956 
Q 1356 3278 1631 3431 
Q 1906 3584 2284 3584 
Q 2666 3584 2933 3390 
Q 3200 3197 3328 2828 
z
" id="DejaVuSans-6d" transform="scale(0.015625)"/>
       <path d="M 678 2272 
L 4684 2272 
L 4684 1741 
L 678 1741 
L 678 2272 
z
" id="DejaVuSans-2212" transform="scale(0.015625)"/>
      </defs>
      <use transform="translate(0 0.765625)" xlink:href="#DejaVuSans-Oblique-6b"/>
      <use transform="translate(57.910156 0.765625)" xlink:href="#DejaVuSans-20"/>
      <use transform="translate(89.697266 0.765625)" xlink:href="#DejaVuSans-2f"/>
      <use transform="translate(123.388672 0.765625)" xlink:href="#DejaVuSans-20"/>
      <use transform="translate(155.175781 0.765625)" xlink:href="#DejaVuSans-6d"/>
      <use transform="translate(253.544922 39.046875)scale(0.7)" xlink:href="#DejaVuSans-2212"/>
      <use transform="translate(312.197266 39.046875)scale(0.7)" xlink:href="#DejaVuSans-32"/>
     </g>
    </g>
   </g>
   <g id="matplotlib.axis_2">
    <g id="ytick_1">
     <g id="line2d_13">
      <path clip-path="url(#p1a12aaf195)" d="M 58.445054 311.714585 
L 364.392527 311.714585 
" style="fill:none;stroke:#b0b0b0;stroke-linecap:square;stroke-width:0.8;"/>
     </g>
     <g id="line2d_14">
      <defs>
       <path d="M 0 0 
L -3.5 0 
" id="m76fb293e97" style="stroke:#000000;stroke-width:0.8;"/>
      </defs>
      <g>
       <use style="stroke:#000000;stroke-width:0.8;" x="58.445054" xlink:href="#m76fb293e97" y="311.714585"/>
      </g>
     </g>
     <g id="text_8">
      <!-- $\mathdefault{10^{-7}}$ -->
      <g transform="translate(27.945054 315.513804)scale(0.1 -0.1)">
       <defs>
        <path d="M 525 4666 
L 3525 4666 
L 3525 4397 
L 1831 0 
L 1172 0 
L 2766 4134 
L 525 4134 
L 525 4666 
z
" id="DejaVuSans-37" transform="scale(0.015625)"/>
       </defs>
       <use transform="translate(0 0.684375)" xlink:href="#DejaVuSans-31"/>
       <use transform="translate(63.623047 0.684375)" xlink:href="#DejaVuSans-30"/>
       <use transform="translate(128.203125 38.965625)scale(0.7)" xlink:href="#DejaVuSans-2212"/>
       <use transform="translate(186.855469 38.965625)scale(0.7)" xlink:href="#DejaVuSans-37"/>
      </g>
     </g>
    </g>
    <g id="ytick_2">
     <g id="line2d_15">
      <path clip-path="url(#p1a12aaf195)" d="M 58.445054 266.070038 
L 364.392527 266.070038 
" style="fill:none;stroke:#b0b0b0;stroke-linecap:square;stroke-width:0.8;"/>
     </g>
     <g id="line2d_16">
      <g>
       <use style="stroke:#000000;stroke-width:0.8;" x="58.445054" xlink:href="#m76fb293e97" y="266.070038"/>
      </g>
     </g>
     <g id="text_9">
      <!-- $\mathdefault{10^{-6}}$ -->
      <g transform="translate(27.945054 269.869256)scale(0.1 -0.1)">
       <use transform="translate(0 0.765625)" xlink:href="#DejaVuSans-31"/>
       <use transform="translate(63.623047 0.765625)" xlink:href="#DejaVuSans-30"/>
       <use transform="translate(128.203125 39.046875)scale(0.7)" xlink:href="#DejaVuSans-2212"/>
       <use transform="translate(186.855469 39.046875)scale(0.7)" xlink:href="#DejaVuSans-36"/>
      </g>
     </g>
    </g>
    <g id="ytick_3">
     <g id="line2d_17">
      <path clip-path="url(#p1a12aaf195)" d="M 58.445054 220.42549 
L 364.392527 220.42549 
" style="fill:none;stroke:#b0b0b0;stroke-linecap:square;stroke-width:0.8;"/>
     </g>
     <g id="line2d_18">
      <g>
       <use style="stroke:#000000;stroke-width:0.8;" x="58.445054" xlink:href="#m76fb293e97" y="220.42549"/>
      </g>
     </g>
     <g id="text_10">
      <!-- $\mathdefault{10^{-5}}$ -->
      <g transform="translate(27.945054 224.224709)scale(0.1 -0.1)">
       <defs>
        <path d="M 691 4666 
L 3169 4666 
L 3169 4134 
L 1269 4134 
L 1269 2991 
Q 1406 3038 1543 3061 
Q 1681 3084 1819 3084 
Q 2600 3084 3056 2656 
Q 3513 2228 3513 1497 
Q 3513 744 3044 326 
Q 2575 -91 1722 -91 
Q 1428 -91 1123 -41 
Q 819 9 494 109 
L 494 744 
Q 775 591 1075 516 
Q 1375 441 1709 441 
Q 2250 441 2565 725 
Q 2881 1009 2881 1497 
Q 2881 1984 2565 2268 
Q 2250 2553 1709 2553 
Q 1456 2553 1204 2497 
Q 953 2441 691 2322 
L 691 4666 
z
" id="DejaVuSans-35" transform="scale(0.015625)"/>
       </defs>
       <use transform="translate(0 0.684375)" xlink:href="#DejaVuSans-31"/>
       <use transform="translate(63.623047 0.684375)" xlink:href="#DejaVuSans-30"/>
       <use transform="translate(128.203125 38.965625)scale(0.7)" xlink:href="#DejaVuSans-2212"/>
       <use transform="translate(186.855469 38.965625)scale(0.7)" xlink:href="#DejaVuSans-35"/>
      </g>
     </g>
    </g>
    <g id="ytick_4">
     <g id="line2d_19">
      <path clip-path="url(#p1a12aaf195)" d="M 58.445054 174.780943 
L 364.392527 174.780943 
" style="fill:none;stroke:#b0b0b0;stroke-linecap:square;stroke-width:0.8;"/>
     </g>
     <g id="line2d_20">
      <g>
       <use style="stroke:#000000;stroke-width:0.8;" x="58.445054" xlink:href="#m76fb293e97" y="174.780943"/>
      </g>
     </g>
     <g id="text_11">
      <!-- $\mathdefault{10^{-4}}$ -->
      <g transform="translate(27.945054 178.580161)scale(0.1 -0.1)">
       <use transform="translate(0 0.684375)" xlink:href="#DejaVuSans-31"/>
       <use transform="translate(63.623047 0.684375)" xlink:href="#DejaVuSans-30"/>
       <use transform="translate(128.203125 38.965625)scale(0.7)" xlink:href="#DejaVuSans-2212"/>
       <use transform="translate(186.855469 38.965625)scale(0.7)" xlink:href="#DejaVuSans-34"/>
      </g>
     </g>
    </g>
    <g id="ytick_5">
     <g id="line2d_21">
      <path clip-path="url(#p1a12aaf195)" d="M 58.445054 129.136395 
L 364.392527 129.136395 
" style="fill:none;stroke:#b0b0b0;stroke-linecap:square;stroke-width:0.8;"/>
     </g>
     <g id="line2d_22">
      <g>
       <use style="stroke:#000000;stroke-width:0.8;" x="58.445054" xlink:href="#m76fb293e97" y="129.136395"/>
      </g>
     </g>
     <g id="text_12">
      <!-- $\mathdefault{10^{-3}}$ -->
      <g transform="translate(27.945054 132.935614)scale(0.1 -0.1)">
       <defs>
        <path d="M 2597 2516 
Q 3050 2419 3304 2112 
Q 3559 1806 3559 1356 
Q 3559 666 3084 287 
Q 2609 -91 1734 -91 
Q 1441 -91 1130 -33 
Q 819 25 488 141 
L 488 750 
Q 750 597 1062 519 
Q 1375 441 1716 441 
Q 2309 441 2620 675 
Q 2931 909 2931 1356 
Q 2931 1769 2642 2001 
Q 2353 2234 1838 2234 
L 1294 2234 
L 1294 2753 
L 1863 2753 
Q 2328 2753 2575 2939 
Q 2822 3125 2822 3475 
Q 2822 3834 2567 4026 
Q 2313 4219 1838 4219 
Q 1578 4219 1281 4162 
Q 984 4106 628 3988 
L 628 4550 
Q 988 4650 1302 4700 
Q 1616 4750 1894 4750 
Q 2613 4750 3031 4423 
Q 3450 4097 3450 3541 
Q 3450 3153 3228 2886 
Q 3006 2619 2597 2516 
z
" id="DejaVuSans-33" transform="scale(0.015625)"/>
       </defs>
       <use transform="translate(0 0.765625)" xlink:href="#DejaVuSans-31"/>
       <use transform="translate(63.623047 0.765625)" xlink:href="#DejaVuSans-30"/>
       <use transform="translate(128.203125 39.046875)scale(0.7)" xlink:href="#DejaVuSans-2212"/>
       <use transform="translate(186.855469 39.046875)scale(0.7)" xlink:href="#DejaVuSans-33"/>
      </g>
     </g>
    </g>
    <g id="ytick_6">
     <g id="line2d_23">
      <path clip-path="url(#p1a12aaf195)" d="M 58.445054 83.491848 
L 364.392527 83.491848 
" style="fill:none;stroke:#b0b0b0;stroke-linecap:square;stroke-width:0.8;"/>
     </g>
     <g id="line2d_24">
      <g>
       <use style="stroke:#000000;stroke-width:0.8;" x="58.445054" xlink:href="#m76fb293e97" y="83.491848"/>
      </g>
     </g>
     <g id="text_13">
      <!-- $\mathdefault{10^{-2}}$ -->
      <g transform="translate(27.945054 87.291066)scale(0.1 -0.1)">
       <use transform="translate(0 0.765625)" xlink:href="#DejaVuSans-31"/>
       <use transform="translate(63.623047 0.765625)" xlink:href="#DejaVuSans-30"/>
       <use transform="translate(128.203125 39.046875)scale(0.7)" xlink:href="#DejaVuSans-2212"/>
       <use transform="translate(186.855469 39.046875)scale(0.7)" xlink:href="#DejaVuSans-32"/>
      </g>
     </g>
    </g>
    <g id="ytick_7">
     <g id="line2d_25">
      <path clip-path="url(#p1a12aaf195)" d="M 58.445054 37.8473 
L 364.392527 37.8473 
" style="fill:none;stroke:#b0b0b0;stroke-linecap:square;stroke-width:0.8;"/>
     </g>
     <g id="line2d_26">
      <g>
       <use style="stroke:#000000;stroke-width:0.8;" x="58.445054" xlink:href="#m76fb293e97" y="37.8473"/>
      </g>
     </g>
     <g id="text_14">
      <!-- $\mathdefault{10^{-1}}$ -->
      <g transform="translate(27.945054 41.646519)scale(0.1 -0.1)">
       <use transform="translate(0 0.684375)" xlink:href="#DejaVuSans-31"/>
       <use transform="translate(63.623047 0.684375)" xlink:href="#DejaVuSans-30"/>
       <use transform="translate(128.203125 38.965625)scale(0.7)" xlink:href="#DejaVuSans-2212"/>
       <use transform="translate(186.855469 38.965625)scale(0.7)" xlink:href="#DejaVuSans-31"/>
      </g>
     </g>
    </g>
    <g id="ytick_8">
     <g id="line2d_27">
      <defs>
       <path d="M 0 0 
L -2 0 
" id="m118bfc7e0d" style="stroke:#000000;stroke-width:0.6;"/>
      </defs>
      <g>
       <use style="stroke:#000000;stroke-width:0.6;" x="58.445054" xlink:href="#m118bfc7e0d" y="313.803165"/>
      </g>
     </g>
    </g>
    <g id="ytick_9">
     <g id="line2d_28">
      <g>
       <use style="stroke:#000000;stroke-width:0.6;" x="58.445054" xlink:href="#m118bfc7e0d" y="297.974207"/>
      </g>
     </g>
    </g>
    <g id="ytick_10">
     <g id="line2d_29">
      <g>
       <use style="stroke:#000000;stroke-width:0.6;" x="58.445054" xlink:href="#m118bfc7e0d" y="289.936601"/>
      </g>
     </g>
    </g>
    <g id="ytick_11">
     <g id="line2d_30">
      <g>
       <use style="stroke:#000000;stroke-width:0.6;" x="58.445054" xlink:href="#m118bfc7e0d" y="284.233829"/>
      </g>
     </g>
    </g>
    <g id="ytick_12">
     <g id="line2d_31">
      <g>
       <use style="stroke:#000000;stroke-width:0.6;" x="58.445054" xlink:href="#m118bfc7e0d" y="279.810415"/>
      </g>
     </g>
    </g>
    <g id="ytick_13">
     <g id="line2d_32">
      <g>
       <use style="stroke:#000000;stroke-width:0.6;" x="58.445054" xlink:href="#m118bfc7e0d" y="276.196223"/>
      </g>
     </g>
    </g>
    <g id="ytick_14">
     <g id="line2d_33">
      <g>
       <use style="stroke:#000000;stroke-width:0.6;" x="58.445054" xlink:href="#m118bfc7e0d" y="273.140467"/>
      </g>
     </g>
    </g>
    <g id="ytick_15">
     <g id="line2d_34">
      <g>
       <use style="stroke:#000000;stroke-width:0.6;" x="58.445054" xlink:href="#m118bfc7e0d" y="270.493451"/>
      </g>
     </g>
    </g>
    <g id="ytick_16">
     <g id="line2d_35">
      <g>
       <use style="stroke:#000000;stroke-width:0.6;" x="58.445054" xlink:href="#m118bfc7e0d" y="268.158618"/>
      </g>
     </g>
    </g>
    <g id="ytick_17">
     <g id="line2d_36">
      <g>
       <use style="stroke:#000000;stroke-width:0.6;" x="58.445054" xlink:href="#m118bfc7e0d" y="252.32966"/>
      </g>
     </g>
    </g>
    <g id="ytick_18">
     <g id="line2d_37">
      <g>
       <use style="stroke:#000000;stroke-width:0.6;" x="58.445054" xlink:href="#m118bfc7e0d" y="244.292054"/>
      </g>
     </g>
    </g>
    <g id="ytick_19">
     <g id="line2d_38">
      <g>
       <use style="stroke:#000000;stroke-width:0.6;" x="58.445054" xlink:href="#m118bfc7e0d" y="238.589282"/>
      </g>
     </g>
    </g>
    <g id="ytick_20">
     <g id="line2d_39">
      <g>
       <use style="stroke:#000000;stroke-width:0.6;" x="58.445054" xlink:href="#m118bfc7e0d" y="234.165868"/>
      </g>
     </g>
    </g>
    <g id="ytick_21">
     <g id="line2d_40">
      <g>
       <use style="stroke:#000000;stroke-width:0.6;" x="58.445054" xlink:href="#m118bfc7e0d" y="230.551676"/>
      </g>
     </g>
    </g>
    <g id="ytick_22">
     <g id="line2d_41">
      <g>
       <use style="stroke:#000000;stroke-width:0.6;" x="58.445054" xlink:href="#m118bfc7e0d" y="227.49592"/>
      </g>
     </g>
    </g>
    <g id="ytick_23">
     <g id="line2d_42">
      <g>
       <use style="stroke:#000000;stroke-width:0.6;" x="58.445054" xlink:href="#m118bfc7e0d" y="224.848904"/>
      </g>
     </g>
    </g>
    <g id="ytick_24">
     <g id="line2d_43">
      <g>
       <use style="stroke:#000000;stroke-width:0.6;" x="58.445054" xlink:href="#m118bfc7e0d" y="222.51407"/>
      </g>
     </g>
    </g>
    <g id="ytick_25">
     <g id="line2d_44">
      <g>
       <use style="stroke:#000000;stroke-width:0.6;" x="58.445054" xlink:href="#m118bfc7e0d" y="206.685112"/>
      </g>
     </g>
    </g>
    <g id="ytick_26">
     <g id="line2d_45">
      <g>
       <use style="stroke:#000000;stroke-width:0.6;" x="58.445054" xlink:href="#m118bfc7e0d" y="198.647506"/>
      </g>
     </g>
    </g>
    <g id="ytick_27">
     <g id="line2d_46">
      <g>
       <use style="stroke:#000000;stroke-width:0.6;" x="58.445054" xlink:href="#m118bfc7e0d" y="192.944734"/>
      </g>
     </g>
    </g>
    <g id="ytick_28">
     <g id="line2d_47">
      <g>
       <use style="stroke:#000000;stroke-width:0.6;" x="58.445054" xlink:href="#m118bfc7e0d" y="188.521321"/>
      </g>
     </g>
    </g>
    <g id="ytick_29">
     <g id="line2d_48">
      <g>
       <use style="stroke:#000000;stroke-width:0.6;" x="58.445054" xlink:href="#m118bfc7e0d" y="184.907128"/>
      </g>
     </g>
    </g>
    <g id="ytick_30">
     <g id="line2d_49">
      <g>
       <use style="stroke:#000000;stroke-width:0.6;" x="58.445054" xlink:href="#m118bfc7e0d" y="181.851373"/>
      </g>
     </g>
    </g>
    <g id="ytick_31">
     <g id="line2d_50">
      <g>
       <use style="stroke:#000000;stroke-width:0.6;" x="58.445054" xlink:href="#m118bfc7e0d" y="179.204356"/>
      </g>
     </g>
    </g>
    <g id="ytick_32">
     <g id="line2d_51">
      <g>
       <use style="stroke:#000000;stroke-width:0.6;" x="58.445054" xlink:href="#m118bfc7e0d" y="176.869523"/>
      </g>
     </g>
    </g>
    <g id="ytick_33">
     <g id="line2d_52">
      <g>
       <use style="stroke:#000000;stroke-width:0.6;" x="58.445054" xlink:href="#m118bfc7e0d" y="161.040565"/>
      </g>
     </g>
    </g>
    <g id="ytick_34">
     <g id="line2d_53">
      <g>
       <use style="stroke:#000000;stroke-width:0.6;" x="58.445054" xlink:href="#m118bfc7e0d" y="153.002959"/>
      </g>
     </g>
    </g>
    <g id="ytick_35">
     <g id="line2d_54">
      <g>
       <use style="stroke:#000000;stroke-width:0.6;" x="58.445054" xlink:href="#m118bfc7e0d" y="147.300187"/>
      </g>
     </g>
    </g>
    <g id="ytick_36">
     <g id="line2d_55">
      <g>
       <use style="stroke:#000000;stroke-width:0.6;" x="58.445054" xlink:href="#m118bfc7e0d" y="142.876773"/>
      </g>
     </g>
    </g>
    <g id="ytick_37">
     <g id="line2d_56">
      <g>
       <use style="stroke:#000000;stroke-width:0.6;" x="58.445054" xlink:href="#m118bfc7e0d" y="139.262581"/>
      </g>
     </g>
    </g>
    <g id="ytick_38">
     <g id="line2d_57">
      <g>
       <use style="stroke:#000000;stroke-width:0.6;" x="58.445054" xlink:href="#m118bfc7e0d" y="136.206825"/>
      </g>
     </g>
    </g>
    <g id="ytick_39">
     <g id="line2d_58">
      <g>
       <use style="stroke:#000000;stroke-width:0.6;" x="58.445054" xlink:href="#m118bfc7e0d" y="133.559809"/>
      </g>
     </g>
    </g>
    <g id="ytick_40">
     <g id="line2d_59">
      <g>
       <use style="stroke:#000000;stroke-width:0.6;" x="58.445054" xlink:href="#m118bfc7e0d" y="131.224975"/>
      </g>
     </g>
    </g>
    <g id="ytick_41">
     <g id="line2d_60">
      <g>
       <use style="stroke:#000000;stroke-width:0.6;" x="58.445054" xlink:href="#m118bfc7e0d" y="115.396017"/>
      </g>
     </g>
    </g>
    <g id="ytick_42">
     <g id="line2d_61">
      <g>
       <use style="stroke:#000000;stroke-width:0.6;" x="58.445054" xlink:href="#m118bfc7e0d" y="107.358411"/>
      </g>
     </g>
    </g>
    <g id="ytick_43">
     <g id="line2d_62">
      <g>
       <use style="stroke:#000000;stroke-width:0.6;" x="58.445054" xlink:href="#m118bfc7e0d" y="101.655639"/>
      </g>
     </g>
    </g>
    <g id="ytick_44">
     <g id="line2d_63">
      <g>
       <use style="stroke:#000000;stroke-width:0.6;" x="58.445054" xlink:href="#m118bfc7e0d" y="97.232226"/>
      </g>
     </g>
    </g>
    <g id="ytick_45">
     <g id="line2d_64">
      <g>
       <use style="stroke:#000000;stroke-width:0.6;" x="58.445054" xlink:href="#m118bfc7e0d" y="93.618034"/>
      </g>
     </g>
    </g>
    <g id="ytick_46">
     <g id="line2d_65">
      <g>
       <use style="stroke:#000000;stroke-width:0.6;" x="58.445054" xlink:href="#m118bfc7e0d" y="90.562278"/>
      </g>
     </g>
    </g>
    <g id="ytick_47">
     <g id="line2d_66">
      <g>
       <use style="stroke:#000000;stroke-width:0.6;" x="58.445054" xlink:href="#m118bfc7e0d" y="87.915261"/>
      </g>
     </g>
    </g>
    <g id="ytick_48">
     <g id="line2d_67">
      <g>
       <use style="stroke:#000000;stroke-width:0.6;" x="58.445054" xlink:href="#m118bfc7e0d" y="85.580428"/>
      </g>
     </g>
    </g>
    <g id="ytick_49">
     <g id="line2d_68">
      <g>
       <use style="stroke:#000000;stroke-width:0.6;" x="58.445054" xlink:href="#m118bfc7e0d" y="69.75147"/>
      </g>
     </g>
    </g>
    <g id="ytick_50">
     <g id="line2d_69">
      <g>
       <use style="stroke:#000000;stroke-width:0.6;" x="58.445054" xlink:href="#m118bfc7e0d" y="61.713864"/>
      </g>
     </g>
    </g>
    <g id="ytick_51">
     <g id="line2d_70">
      <g>
       <use style="stroke:#000000;stroke-width:0.6;" x="58.445054" xlink:href="#m118bfc7e0d" y="56.011092"/>
      </g>
     </g>
    </g>
    <g id="ytick_52">
     <g id="line2d_71">
      <g>
       <use style="stroke:#000000;stroke-width:0.6;" x="58.445054" xlink:href="#m118bfc7e0d" y="51.587678"/>
      </g>
     </g>
    </g>
    <g id="ytick_53">
     <g id="line2d_72">
      <g>
       <use style="stroke:#000000;stroke-width:0.6;" x="58.445054" xlink:href="#m118bfc7e0d" y="47.973486"/>
      </g>
     </g>
    </g>
    <g id="ytick_54">
     <g id="line2d_73">
      <g>
       <use style="stroke:#000000;stroke-width:0.6;" x="58.445054" xlink:href="#m118bfc7e0d" y="44.91773"/>
      </g>
     </g>
    </g>
    <g id="ytick_55">
     <g id="line2d_74">
      <g>
       <use style="stroke:#000000;stroke-width:0.6;" x="58.445054" xlink:href="#m118bfc7e0d" y="42.270714"/>
      </g>
     </g>
    </g>
    <g id="ytick_56">
     <g id="line2d_75">
      <g>
       <use style="stroke:#000000;stroke-width:0.6;" x="58.445054" xlink:href="#m118bfc7e0d" y="39.93588"/>
      </g>
     </g>
    </g>
    <g id="ytick_57">
     <g id="line2d_76">
      <g>
       <use style="stroke:#000000;stroke-width:0.6;" x="58.445054" xlink:href="#m118bfc7e0d" y="24.106922"/>
      </g>
     </g>
    </g>
    <g id="ytick_58">
     <g id="line2d_77">
      <g>
       <use style="stroke:#000000;stroke-width:0.6;" x="58.445054" xlink:href="#m118bfc7e0d" y="16.069317"/>
      </g>
     </g>
    </g>
    <g id="text_15">
     <!-- $\epsilon_\mathrm{x}$ / m rad -->
     <g transform="translate(21.865366 186.954)rotate(-90)scale(0.1 -0.1)">
      <defs>
       <path d="M 1263 1888 
Q 925 1963 778 2166 
Q 669 2309 669 2503 
Q 669 3034 1175 3344 
Q 1575 3588 2188 3588 
Q 2425 3588 2684 3550 
Q 2944 3513 3234 3438 
L 3134 2916 
Q 2847 3006 2606 3047 
Q 2359 3088 2138 3088 
Q 1766 3088 1522 2944 
Q 1228 2772 1228 2522 
Q 1228 2356 1381 2241 
Q 1563 2103 1925 2103 
L 2409 2103 
L 2319 1628 
L 1856 1628 
Q 1425 1628 1172 1469 
Q 828 1253 828 916 
Q 828 703 1013 563 
Q 1244 388 1716 388 
Q 2006 388 2284 444 
Q 2563 503 2806 619 
L 2700 84 
Q 2403 -3 2131 -47 
Q 1859 -91 1609 -91 
Q 866 -91 516 194 
Q 250 413 250 781 
Q 250 1278 600 1584 
Q 859 1813 1263 1888 
z
" id="DejaVuSans-Oblique-3b5" transform="scale(0.015625)"/>
       <path d="M 3513 3500 
L 2247 1797 
L 3578 0 
L 2900 0 
L 1881 1375 
L 863 0 
L 184 0 
L 1544 1831 
L 300 3500 
L 978 3500 
L 1906 2253 
L 2834 3500 
L 3513 3500 
z
" id="DejaVuSans-78" transform="scale(0.015625)"/>
       <path d="M 2631 2963 
Q 2534 3019 2420 3045 
Q 2306 3072 2169 3072 
Q 1681 3072 1420 2755 
Q 1159 2438 1159 1844 
L 1159 0 
L 581 0 
L 581 3500 
L 1159 3500 
L 1159 2956 
Q 1341 3275 1631 3429 
Q 1922 3584 2338 3584 
Q 2397 3584 2469 3576 
Q 2541 3569 2628 3553 
L 2631 2963 
z
" id="DejaVuSans-72" transform="scale(0.015625)"/>
       <path d="M 2194 1759 
Q 1497 1759 1228 1600 
Q 959 1441 959 1056 
Q 959 750 1161 570 
Q 1363 391 1709 391 
Q 2188 391 2477 730 
Q 2766 1069 2766 1631 
L 2766 1759 
L 2194 1759 
z
M 3341 1997 
L 3341 0 
L 2766 0 
L 2766 531 
Q 2569 213 2275 61 
Q 1981 -91 1556 -91 
Q 1019 -91 701 211 
Q 384 513 384 1019 
Q 384 1609 779 1909 
Q 1175 2209 1959 2209 
L 2766 2209 
L 2766 2266 
Q 2766 2663 2505 2880 
Q 2244 3097 1772 3097 
Q 1472 3097 1187 3025 
Q 903 2953 641 2809 
L 641 3341 
Q 956 3463 1253 3523 
Q 1550 3584 1831 3584 
Q 2591 3584 2966 3190 
Q 3341 2797 3341 1997 
z
" id="DejaVuSans-61" transform="scale(0.015625)"/>
       <path d="M 2906 2969 
L 2906 4863 
L 3481 4863 
L 3481 0 
L 2906 0 
L 2906 525 
Q 2725 213 2448 61 
Q 2172 -91 1784 -91 
Q 1150 -91 751 415 
Q 353 922 353 1747 
Q 353 2572 751 3078 
Q 1150 3584 1784 3584 
Q 2172 3584 2448 3432 
Q 2725 3281 2906 2969 
z
M 947 1747 
Q 947 1113 1208 752 
Q 1469 391 1925 391 
Q 2381 391 2643 752 
Q 2906 1113 2906 1747 
Q 2906 2381 2643 2742 
Q 2381 3103 1925 3103 
Q 1469 3103 1208 2742 
Q 947 2381 947 1747 
z
" id="DejaVuSans-64" transform="scale(0.015625)"/>
      </defs>
      <use transform="translate(0 0.015625)" xlink:href="#DejaVuSans-Oblique-3b5"/>
      <use transform="translate(54.052734 -16.390625)scale(0.7)" xlink:href="#DejaVuSans-78"/>
      <use transform="translate(98.212891 0.015625)" xlink:href="#DejaVuSans-20"/>
      <use transform="translate(130 0.015625)" xlink:href="#DejaVuSans-2f"/>
      <use transform="translate(163.691406 0.015625)" xlink:href="#DejaVuSans-20"/>
      <use transform="translate(195.478516 0.015625)" xlink:href="#DejaVuSans-6d"/>
      <use transform="translate(292.890625 0.015625)" xlink:href="#DejaVuSans-20"/>
      <use transform="translate(324.677734 0.015625)" xlink:href="#DejaVuSans-72"/>
      <use transform="translate(365.791016 0.015625)" xlink:href="#DejaVuSans-61"/>
      <use transform="translate(427.070312 0.015625)" xlink:href="#DejaVuSans-64"/>
     </g>
    </g>
   </g>
   <g id="line2d_78">
    <path clip-path="url(#p1a12aaf195)" d="M 72.351757 24.582182 
L 75.161192 65.745401 
L 77.970627 89.850153 
L 80.780062 106.95881 
L 83.589497 120.232682 
L 86.398932 131.080918 
L 89.208367 140.255442 
L 92.017802 148.205164 
L 94.827237 155.219671 
L 97.636672 161.496705 
L 100.446107 167.177315 
L 103.255542 172.365651 
L 106.064977 177.140808 
L 108.874412 181.564269 
L 111.683847 185.684777 
L 114.493282 189.541627 
L 117.302717 193.166958 
L 120.112152 196.587399 
L 122.921587 199.825252 
L 125.731022 202.899389 
L 128.540458 205.825917 
L 131.349893 208.618696 
L 134.159328 211.289736 
L 136.968763 213.849514 
L 139.778198 216.307224 
L 142.587633 218.670979 
L 145.397068 220.947975 
L 148.206503 223.14462 
L 151.015938 225.26665 
L 153.825373 227.31922 
L 156.634808 229.306974 
L 159.444243 231.234117 
L 162.253678 233.104467 
L 165.063113 234.921498 
L 167.872548 236.688385 
L 170.681983 238.408033 
L 173.491418 240.08311 
L 176.300853 241.716071 
L 179.110288 243.309178 
L 181.919723 244.864524 
L 184.729158 246.384047 
L 187.538593 247.869542 
L 190.348028 249.322682 
L 193.157463 250.74502 
L 195.966898 252.138008 
L 198.776333 253.503 
L 201.585768 254.841262 
L 204.395203 256.153982 
L 207.204638 257.44227 
L 210.014073 258.707172 
L 212.823508 259.949668 
L 215.632943 261.17068 
L 218.442378 262.371078 
L 221.251813 263.551679 
L 224.061248 264.713254 
L 226.870683 265.856529 
L 229.680118 266.982191 
L 232.489553 268.090884 
L 235.298988 269.183219 
L 238.108423 270.259769 
L 240.917858 271.321074 
L 243.727293 272.367643 
L 246.536728 273.399952 
L 249.346163 274.418449 
L 252.155598 275.423548 
L 254.965033 276.415639 
L 257.774468 277.395077 
L 260.583903 278.362192 
L 263.393338 279.317281 
L 266.202773 280.26061 
L 269.012208 281.192413 
L 271.821643 282.112889 
L 274.631078 283.022202 
L 277.440513 283.920473 
L 280.249948 284.807781 
L 283.059383 285.684157 
L 285.868818 286.549575 
L 288.678253 287.40395 
L 291.487688 288.247123 
L 294.297123 289.078854 
L 297.106558 289.898806 
L 299.915993 290.706527 
L 302.725428 291.501427 
L 305.534863 292.282754 
L 308.344298 293.04955 
L 311.153733 293.800613 
L 313.963168 294.534432 
L 316.772603 295.249107 
L 319.582038 295.942247 
L 322.391473 296.610824 
L 325.200909 297.250978 
L 328.010344 297.857746 
L 330.819779 298.424668 
L 333.629214 298.943215 
L 336.438649 299.401931 
L 339.248084 299.785086 
L 342.057519 300.0705 
L 344.866954 300.225818 
L 347.676389 300.20174 
L 350.485824 299.918649 
" style="fill:none;stroke:#1f77b4;stroke-linecap:square;stroke-width:1.5;"/>
   </g>
   <g id="patch_3">
    <path d="M 58.445054 314.008 
L 58.445054 10.8 
" style="fill:none;stroke:#000000;stroke-linecap:square;stroke-linejoin:miter;stroke-width:0.8;"/>
   </g>
   <g id="patch_4">
    <path d="M 364.392527 314.008 
L 364.392527 10.8 
" style="fill:none;stroke:#000000;stroke-linecap:square;stroke-linejoin:miter;stroke-width:0.8;"/>
   </g>
   <g id="patch_5">
    <path d="M 58.445054 314.008 
L 364.392527 314.008 
" style="fill:none;stroke:#000000;stroke-linecap:square;stroke-linejoin:miter;stroke-width:0.8;"/>
   </g>
   <g id="patch_6">
    <path d="M 58.445054 10.8 
L 364.392527 10.8 
" style="fill:none;stroke:#000000;stroke-linecap:square;stroke-linejoin:miter;stroke-width:0.8;"/>
   </g>
  </g>
  <g id="axes_2">
   <g id="patch_7">
    <path d="M 403.252527 314.008 
L 709.2 314.008 
L 709.2 10.8 
L 403.252527 10.8 
z
" style="fill:#ffffff;"/>
   </g>
   <g id="matplotlib.axis_3">
    <g id="xtick_7">
     <g id="line2d_79">
      <path clip-path="url(#pd88a46f30f)" d="M 414.349795 314.008 
L 414.349795 10.8 
" style="fill:none;stroke:#b0b0b0;stroke-linecap:square;stroke-width:0.8;"/>
     </g>
     <g id="line2d_80">
      <g>
       <use style="stroke:#000000;stroke-width:0.8;" x="414.349795" xlink:href="#mac1e413f5d" y="314.008"/>
      </g>
     </g>
     <g id="text_16">
      <!-- 0.0 -->
      <g transform="translate(406.398233 328.606437)scale(0.1 -0.1)">
       <use xlink:href="#DejaVuSans-30"/>
       <use x="63.623047" xlink:href="#DejaVuSans-2e"/>
       <use x="95.410156" xlink:href="#DejaVuSans-30"/>
      </g>
     </g>
    </g>
    <g id="xtick_8">
     <g id="line2d_81">
      <path clip-path="url(#pd88a46f30f)" d="M 470.538496 314.008 
L 470.538496 10.8 
" style="fill:none;stroke:#b0b0b0;stroke-linecap:square;stroke-width:0.8;"/>
     </g>
     <g id="line2d_82">
      <g>
       <use style="stroke:#000000;stroke-width:0.8;" x="470.538496" xlink:href="#mac1e413f5d" y="314.008"/>
      </g>
     </g>
     <g id="text_17">
      <!-- 0.2 -->
      <g transform="translate(462.586933 328.606437)scale(0.1 -0.1)">
       <use xlink:href="#DejaVuSans-30"/>
       <use x="63.623047" xlink:href="#DejaVuSans-2e"/>
       <use x="95.410156" xlink:href="#DejaVuSans-32"/>
      </g>
     </g>
    </g>
    <g id="xtick_9">
     <g id="line2d_83">
      <path clip-path="url(#pd88a46f30f)" d="M 526.727196 314.008 
L 526.727196 10.8 
" style="fill:none;stroke:#b0b0b0;stroke-linecap:square;stroke-width:0.8;"/>
     </g>
     <g id="line2d_84">
      <g>
       <use style="stroke:#000000;stroke-width:0.8;" x="526.727196" xlink:href="#mac1e413f5d" y="314.008"/>
      </g>
     </g>
     <g id="text_18">
      <!-- 0.4 -->
      <g transform="translate(518.775633 328.606437)scale(0.1 -0.1)">
       <use xlink:href="#DejaVuSans-30"/>
       <use x="63.623047" xlink:href="#DejaVuSans-2e"/>
       <use x="95.410156" xlink:href="#DejaVuSans-34"/>
      </g>
     </g>
    </g>
    <g id="xtick_10">
     <g id="line2d_85">
      <path clip-path="url(#pd88a46f30f)" d="M 582.915896 314.008 
L 582.915896 10.8 
" style="fill:none;stroke:#b0b0b0;stroke-linecap:square;stroke-width:0.8;"/>
     </g>
     <g id="line2d_86">
      <g>
       <use style="stroke:#000000;stroke-width:0.8;" x="582.915896" xlink:href="#mac1e413f5d" y="314.008"/>
      </g>
     </g>
     <g id="text_19">
      <!-- 0.6 -->
      <g transform="translate(574.964334 328.606437)scale(0.1 -0.1)">
       <use xlink:href="#DejaVuSans-30"/>
       <use x="63.623047" xlink:href="#DejaVuSans-2e"/>
       <use x="95.410156" xlink:href="#DejaVuSans-36"/>
      </g>
     </g>
    </g>
    <g id="xtick_11">
     <g id="line2d_87">
      <path clip-path="url(#pd88a46f30f)" d="M 639.104596 314.008 
L 639.104596 10.8 
" style="fill:none;stroke:#b0b0b0;stroke-linecap:square;stroke-width:0.8;"/>
     </g>
     <g id="line2d_88">
      <g>
       <use style="stroke:#000000;stroke-width:0.8;" x="639.104596" xlink:href="#mac1e413f5d" y="314.008"/>
      </g>
     </g>
     <g id="text_20">
      <!-- 0.8 -->
      <g transform="translate(631.153034 328.606437)scale(0.1 -0.1)">
       <use xlink:href="#DejaVuSans-30"/>
       <use x="63.623047" xlink:href="#DejaVuSans-2e"/>
       <use x="95.410156" xlink:href="#DejaVuSans-38"/>
      </g>
     </g>
    </g>
    <g id="xtick_12">
     <g id="line2d_89">
      <path clip-path="url(#pd88a46f30f)" d="M 695.293297 314.008 
L 695.293297 10.8 
" style="fill:none;stroke:#b0b0b0;stroke-linecap:square;stroke-width:0.8;"/>
     </g>
     <g id="line2d_90">
      <g>
       <use style="stroke:#000000;stroke-width:0.8;" x="695.293297" xlink:href="#mac1e413f5d" y="314.008"/>
      </g>
     </g>
     <g id="text_21">
      <!-- 1.0 -->
      <g transform="translate(687.341734 328.606437)scale(0.1 -0.1)">
       <use xlink:href="#DejaVuSans-31"/>
       <use x="63.623047" xlink:href="#DejaVuSans-2e"/>
       <use x="95.410156" xlink:href="#DejaVuSans-30"/>
      </g>
     </g>
    </g>
    <g id="text_22">
     <!-- $k$ / m$^{-2}$ -->
     <g transform="translate(538.226263 342.706437)scale(0.1 -0.1)">
      <use transform="translate(0 0.765625)" xlink:href="#DejaVuSans-Oblique-6b"/>
      <use transform="translate(57.910156 0.765625)" xlink:href="#DejaVuSans-20"/>
      <use transform="translate(89.697266 0.765625)" xlink:href="#DejaVuSans-2f"/>
      <use transform="translate(123.388672 0.765625)" xlink:href="#DejaVuSans-20"/>
      <use transform="translate(155.175781 0.765625)" xlink:href="#DejaVuSans-6d"/>
      <use transform="translate(253.544922 39.046875)scale(0.7)" xlink:href="#DejaVuSans-2212"/>
      <use transform="translate(312.197266 39.046875)scale(0.7)" xlink:href="#DejaVuSans-32"/>
     </g>
    </g>
   </g>
   <g id="matplotlib.axis_4">
    <g id="ytick_59">
     <g id="line2d_91">
      <path clip-path="url(#pd88a46f30f)" d="M 403.252527 43.609216 
L 709.2 43.609216 
" style="fill:none;stroke:#b0b0b0;stroke-linecap:square;stroke-width:0.8;"/>
     </g>
     <g id="line2d_92">
      <g>
       <use style="stroke:#000000;stroke-width:0.8;" x="403.252527" xlink:href="#m76fb293e97" y="43.609216"/>
      </g>
     </g>
     <g id="text_23">
      <!-- −60 -->
      <g transform="translate(375.147839 47.408434)scale(0.1 -0.1)">
       <use xlink:href="#DejaVuSans-2212"/>
       <use x="83.789062" xlink:href="#DejaVuSans-36"/>
       <use x="147.412109" xlink:href="#DejaVuSans-30"/>
      </g>
     </g>
    </g>
    <g id="ytick_60">
     <g id="line2d_93">
      <path clip-path="url(#pd88a46f30f)" d="M 403.252527 86.379528 
L 709.2 86.379528 
" style="fill:none;stroke:#b0b0b0;stroke-linecap:square;stroke-width:0.8;"/>
     </g>
     <g id="line2d_94">
      <g>
       <use style="stroke:#000000;stroke-width:0.8;" x="403.252527" xlink:href="#m76fb293e97" y="86.379528"/>
      </g>
     </g>
     <g id="text_24">
      <!-- −50 -->
      <g transform="translate(375.147839 90.178747)scale(0.1 -0.1)">
       <use xlink:href="#DejaVuSans-2212"/>
       <use x="83.789062" xlink:href="#DejaVuSans-35"/>
       <use x="147.412109" xlink:href="#DejaVuSans-30"/>
      </g>
     </g>
    </g>
    <g id="ytick_61">
     <g id="line2d_95">
      <path clip-path="url(#pd88a46f30f)" d="M 403.252527 129.149841 
L 709.2 129.149841 
" style="fill:none;stroke:#b0b0b0;stroke-linecap:square;stroke-width:0.8;"/>
     </g>
     <g id="line2d_96">
      <g>
       <use style="stroke:#000000;stroke-width:0.8;" x="403.252527" xlink:href="#m76fb293e97" y="129.149841"/>
      </g>
     </g>
     <g id="text_25">
      <!-- −40 -->
      <g transform="translate(375.147839 132.94906)scale(0.1 -0.1)">
       <use xlink:href="#DejaVuSans-2212"/>
       <use x="83.789062" xlink:href="#DejaVuSans-34"/>
       <use x="147.412109" xlink:href="#DejaVuSans-30"/>
      </g>
     </g>
    </g>
    <g id="ytick_62">
     <g id="line2d_97">
      <path clip-path="url(#pd88a46f30f)" d="M 403.252527 171.920154 
L 709.2 171.920154 
" style="fill:none;stroke:#b0b0b0;stroke-linecap:square;stroke-width:0.8;"/>
     </g>
     <g id="line2d_98">
      <g>
       <use style="stroke:#000000;stroke-width:0.8;" x="403.252527" xlink:href="#m76fb293e97" y="171.920154"/>
      </g>
     </g>
     <g id="text_26">
      <!-- −30 -->
      <g transform="translate(375.147839 175.719373)scale(0.1 -0.1)">
       <use xlink:href="#DejaVuSans-2212"/>
       <use x="83.789062" xlink:href="#DejaVuSans-33"/>
       <use x="147.412109" xlink:href="#DejaVuSans-30"/>
      </g>
     </g>
    </g>
    <g id="ytick_63">
     <g id="line2d_99">
      <path clip-path="url(#pd88a46f30f)" d="M 403.252527 214.690467 
L 709.2 214.690467 
" style="fill:none;stroke:#b0b0b0;stroke-linecap:square;stroke-width:0.8;"/>
     </g>
     <g id="line2d_100">
      <g>
       <use style="stroke:#000000;stroke-width:0.8;" x="403.252527" xlink:href="#m76fb293e97" y="214.690467"/>
      </g>
     </g>
     <g id="text_27">
      <!-- −20 -->
      <g transform="translate(375.147839 218.489686)scale(0.1 -0.1)">
       <use xlink:href="#DejaVuSans-2212"/>
       <use x="83.789062" xlink:href="#DejaVuSans-32"/>
       <use x="147.412109" xlink:href="#DejaVuSans-30"/>
      </g>
     </g>
    </g>
    <g id="ytick_64">
     <g id="line2d_101">
      <path clip-path="url(#pd88a46f30f)" d="M 403.252527 257.46078 
L 709.2 257.46078 
" style="fill:none;stroke:#b0b0b0;stroke-linecap:square;stroke-width:0.8;"/>
     </g>
     <g id="line2d_102">
      <g>
       <use style="stroke:#000000;stroke-width:0.8;" x="403.252527" xlink:href="#m76fb293e97" y="257.46078"/>
      </g>
     </g>
     <g id="text_28">
      <!-- −10 -->
      <g transform="translate(375.147839 261.259999)scale(0.1 -0.1)">
       <use xlink:href="#DejaVuSans-2212"/>
       <use x="83.789062" xlink:href="#DejaVuSans-31"/>
       <use x="147.412109" xlink:href="#DejaVuSans-30"/>
      </g>
     </g>
    </g>
    <g id="ytick_65">
     <g id="line2d_103">
      <path clip-path="url(#pd88a46f30f)" d="M 403.252527 300.231093 
L 709.2 300.231093 
" style="fill:none;stroke:#b0b0b0;stroke-linecap:square;stroke-width:0.8;"/>
     </g>
     <g id="line2d_104">
      <g>
       <use style="stroke:#000000;stroke-width:0.8;" x="403.252527" xlink:href="#m76fb293e97" y="300.231093"/>
      </g>
     </g>
     <g id="text_29">
      <!-- 0 -->
      <g transform="translate(389.890027 304.030311)scale(0.1 -0.1)">
       <use xlink:href="#DejaVuSans-30"/>
      </g>
     </g>
    </g>
   </g>
   <g id="line2d_105">
    <path clip-path="url(#pd88a46f30f)" d="M 417.15923 299.973499 
L 419.968665 299.146883 
L 422.7781 298.319865 
L 425.587535 297.492219 
L 428.39697 296.663716 
L 431.206405 295.834129 
L 434.01584 295.003227 
L 436.825275 294.170778 
L 439.63471 293.336547 
L 442.444145 292.500299 
L 445.25358 291.661794 
L 448.063015 290.820788 
L 450.87245 289.977035 
L 453.681885 289.130286 
L 456.49132 288.280285 
L 459.300755 287.426774 
L 462.110191 286.569487 
L 464.919626 285.708154 
L 467.729061 284.842499 
L 470.538496 283.97224 
L 473.347931 283.097086 
L 476.157366 282.21674 
L 478.966801 281.330896 
L 481.776236 280.439241 
L 484.585671 279.541449 
L 487.395106 278.637189 
L 490.204541 277.726114 
L 493.013976 276.807869 
L 495.823411 275.882086 
L 498.632846 274.948383 
L 501.442281 274.006366 
L 504.251716 273.055622 
L 507.061151 272.095727 
L 509.870586 271.126236 
L 512.680021 270.146687 
L 515.489456 269.156599 
L 518.298891 268.155469 
L 521.108326 267.142771 
L 523.917761 266.117957 
L 526.727196 265.080451 
L 529.536631 264.029651 
L 532.346066 262.964922 
L 535.155501 261.885602 
L 537.964936 260.790989 
L 540.774371 259.680348 
L 543.583806 258.552903 
L 546.393241 257.407834 
L 549.202676 256.244274 
L 552.012111 255.061307 
L 554.821546 253.857963 
L 557.630981 252.633211 
L 560.440416 251.385957 
L 563.249851 250.115037 
L 566.059286 248.819211 
L 568.868721 247.497157 
L 571.678156 246.147463 
L 574.487591 244.768616 
L 577.297026 243.358998 
L 580.106461 241.916871 
L 582.915896 240.440365 
L 585.725331 238.927469 
L 588.534766 237.376011 
L 591.344201 235.783644 
L 594.153636 234.147828 
L 596.963071 232.465803 
L 599.772506 230.734571 
L 602.581941 228.95086 
L 605.391376 227.111101 
L 608.200811 225.211379 
L 611.010246 223.247401 
L 613.819681 221.214435 
L 616.629116 219.10726 
L 619.438551 216.920091 
L 622.247986 214.646502 
L 625.057421 212.279327 
L 627.866856 209.81055 
L 630.676291 207.231164 
L 633.485726 204.53101 
L 636.295161 201.69858 
L 639.104596 198.720772 
L 641.914031 195.582595 
L 644.723466 192.266801 
L 647.532901 188.753424 
L 650.342336 185.019205 
L 653.151771 181.036846 
L 655.961206 176.774066 
L 658.770641 172.192356 
L 661.580077 167.245336 
L 664.389512 161.87655 
L 667.198947 156.016453 
L 670.008382 149.578211 
L 672.817817 142.451739 
L 675.627252 134.49499 
L 678.436687 125.520903 
L 681.246122 115.277164 
L 684.055557 103.413589 
L 686.864992 89.427041 
L 689.674427 72.562943 
L 692.483862 51.626119 
L 695.293297 24.582182 
" style="fill:none;stroke:#1f77b4;stroke-linecap:square;stroke-width:1.5;"/>
   </g>
   <g id="line2d_106">
    <path clip-path="url(#pd88a46f30f)" d="M 417.15923 300.225818 
L 419.968665 300.214226 
L 422.7781 300.196364 
L 425.587535 300.17231 
L 428.39697 300.14217 
L 431.206405 300.10607 
L 434.01584 300.064163 
L 436.825275 300.016618 
L 439.63471 299.963624 
L 442.444145 299.90538 
L 445.25358 299.842097 
L 448.063015 299.773991 
L 450.87245 299.701284 
L 453.681885 299.624197 
L 456.49132 299.542952 
L 459.300755 299.457763 
L 462.110191 299.368841 
L 464.919626 299.276389 
L 467.729061 299.180599 
L 470.538496 299.081654 
L 473.347931 298.979725 
L 476.157366 298.87497 
L 478.966801 298.767538 
L 481.776236 298.657562 
L 484.585671 298.545162 
L 487.395106 298.430447 
L 490.204541 298.313514 
L 493.013976 298.194445 
L 495.823411 298.073312 
L 498.632846 297.950175 
L 501.442281 297.825083 
L 504.251716 297.698072 
L 507.061151 297.569169 
L 509.870586 297.438392 
L 512.680021 297.305746 
L 515.489456 297.171231 
L 518.298891 297.034832 
L 521.108326 296.89653 
L 523.917761 296.756295 
L 526.727196 296.614087 
L 529.536631 296.469861 
L 532.346066 296.32356 
L 535.155501 296.17512 
L 537.964936 296.024468 
L 540.774371 295.871523 
L 543.583806 295.716194 
L 546.393241 295.558381 
L 549.202676 295.397976 
L 552.012111 295.234859 
L 554.821546 295.068899 
L 557.630981 294.899957 
L 560.440416 294.72788 
L 563.249851 294.552502 
L 566.059286 294.373645 
L 568.868721 294.191116 
L 571.678156 294.004705 
L 574.487591 293.814187 
L 577.297026 293.619317 
L 580.106461 293.419829 
L 582.915896 293.215435 
L 585.725331 293.005823 
L 588.534766 292.79065 
L 591.344201 292.569547 
L 594.153636 292.342107 
L 596.963071 292.107886 
L 599.772506 291.866396 
L 602.581941 291.617101 
L 605.391376 291.35941 
L 608.200811 291.092668 
L 611.010246 290.816151 
L 613.819681 290.529051 
L 616.629116 290.230465 
L 619.438551 289.919384 
L 622.247986 289.594669 
L 625.057421 289.255035 
L 627.866856 288.899022 
L 630.676291 288.524965 
L 633.485726 288.130952 
L 636.295161 287.714781 
L 639.104596 287.273893 
L 641.914031 286.805295 
L 644.723466 286.305466 
L 647.532901 285.770222 
L 650.342336 285.194552 
L 653.151771 284.572388 
L 655.961206 283.896303 
L 658.770641 283.157091 
L 661.580077 282.34317 
L 664.389512 281.439735 
L 667.198947 280.427497 
L 670.008382 279.280759 
L 672.817817 277.964385 
L 675.627252 276.428803 
L 678.436687 274.60132 
L 681.246122 272.370076 
L 684.055557 269.551823 
L 686.864992 265.819966 
L 689.674427 260.517755 
L 692.483862 252.04936 
L 695.293297 234.899905 
" style="fill:none;stroke:#ff7f0e;stroke-linecap:square;stroke-width:1.5;"/>
   </g>
   <g id="patch_8">
    <path d="M 403.252527 314.008 
L 403.252527 10.8 
" style="fill:none;stroke:#000000;stroke-linecap:square;stroke-linejoin:miter;stroke-width:0.8;"/>
   </g>
   <g id="patch_9">
    <path d="M 709.2 314.008 
L 709.2 10.8 
" style="fill:none;stroke:#000000;stroke-linecap:square;stroke-linejoin:miter;stroke-width:0.8;"/>
   </g>
   <g id="patch_10">
    <path d="M 403.252527 314.008 
L 709.2 314.008 
" style="fill:none;stroke:#000000;stroke-linecap:square;stroke-linejoin:miter;stroke-width:0.8;"/>
   </g>
   <g id="patch_11">
    <path d="M 403.252527 10.8 
L 709.2 10.8 
" style="fill:none;stroke:#000000;stroke-linecap:square;stroke-linejoin:miter;stroke-width:0.8;"/>
   </g>
   <g id="legend_1">
    <g id="patch_12">
     <path d="M 410.252527 49.2 
L 452.252527 49.2 
Q 454.252527 49.2 454.252527 47.2 
L 454.252527 17.8 
Q 454.252527 15.8 452.252527 15.8 
L 410.252527 15.8 
Q 408.252527 15.8 408.252527 17.8 
L 408.252527 47.2 
Q 408.252527 49.2 410.252527 49.2 
z
" style="fill:#ffffff;opacity:0.8;stroke:#cccccc;stroke-linejoin:miter;"/>
    </g>
    <g id="line2d_107">
     <path d="M 412.252527 23.9 
L 432.252527 23.9 
" style="fill:none;stroke:#1f77b4;stroke-linecap:square;stroke-width:1.5;"/>
    </g>
    <g id="line2d_108"/>
    <g id="text_30">
     <!-- $\xi_\mathrm{x}$ -->
     <g transform="translate(440.252527 27.4)scale(0.1 -0.1)">
      <defs>
       <path d="M 2016 397 
Q 2428 394 2628 159 
Q 2844 -88 2772 -463 
Q 2700 -822 2422 -1072 
Q 2119 -1344 1609 -1344 
Q 1656 -1109 1700 -872 
Q 1913 -888 2072 -750 
Q 2194 -641 2216 -525 
Q 2247 -359 2175 -222 
Q 2100 -91 1922 -91 
Q -25 -91 241 1275 
Q 422 2213 1516 2488 
Q 663 2600 822 3413 
Q 941 4028 1678 4284 
L 1028 4284 
L 1141 4863 
L 3606 4863 
L 3494 4284 
Q 1528 4284 1350 3375 
Q 1234 2778 2881 2750 
L 2778 2219 
Q 1009 2288 819 1275 
Q 659 428 2016 397 
z
" id="DejaVuSans-Oblique-3be" transform="scale(0.015625)"/>
      </defs>
      <use transform="translate(0 0.015625)" xlink:href="#DejaVuSans-Oblique-3be"/>
      <use transform="translate(55.761719 -16.390625)scale(0.7)" xlink:href="#DejaVuSans-78"/>
     </g>
    </g>
    <g id="line2d_109">
     <path d="M 412.252527 38.6 
L 432.252527 38.6 
" style="fill:none;stroke:#ff7f0e;stroke-linecap:square;stroke-width:1.5;"/>
    </g>
    <g id="line2d_110"/>
    <g id="text_31">
     <!-- $\xi_\mathrm{y}$ -->
     <g transform="translate(440.252527 42.1)scale(0.1 -0.1)">
      <defs>
       <path d="M 2059 -325 
Q 1816 -950 1584 -1140 
Q 1353 -1331 966 -1331 
L 506 -1331 
L 506 -850 
L 844 -850 
Q 1081 -850 1212 -737 
Q 1344 -625 1503 -206 
L 1606 56 
L 191 3500 
L 800 3500 
L 1894 763 
L 2988 3500 
L 3597 3500 
L 2059 -325 
z
" id="DejaVuSans-79" transform="scale(0.015625)"/>
      </defs>
      <use transform="translate(0 0.015625)" xlink:href="#DejaVuSans-Oblique-3be"/>
      <use transform="translate(55.761719 -16.390625)scale(0.7)" xlink:href="#DejaVuSans-79"/>
     </g>
    </g>
   </g>
  </g>
 </g>
 <defs>
  <clipPath id="p1a12aaf195">
   <rect height="303.208" width="305.947473" x="58.445054" y="10.8"/>
  </clipPath>
  <clipPath id="pd88a46f30f">
   <rect height="303.208" width="305.947473" x="403.252527" y="10.8"/>
  </clipPath>
 </defs>
</svg>
