<?xml version="1.0" encoding="utf-8" standalone="no"?>
<!DOCTYPE svg PUBLIC "-//W3C//DTD SVG 1.1//EN"
  "http://www.w3.org/Graphics/SVG/1.1/DTD/svg11.dtd">
<svg xmlns:xlink="http://www.w3.org/1999/xlink" width="460.8pt" height="460.8pt" viewBox="0 0 460.8 460.8" xmlns="http://www.w3.org/2000/svg" version="1.1">
 <metadata>
  <rdf:RDF xmlns:dc="http://purl.org/dc/elements/1.1/" xmlns:cc="http://creativecommons.org/ns#" xmlns:rdf="http://www.w3.org/1999/02/22-rdf-syntax-ns#">
   <cc:Work>
    <dc:type rdf:resource="http://purl.org/dc/dcmitype/StillImage"/>
    <dc:format>image/svg+xml</dc:format>
    <dc:creator>
     <cc:Agent>
      <dc:title>Matplotlib v3.5.0, https://matplotlib.org/</dc:title>
     </cc:Agent>
    </dc:creator>
   </cc:Work>
  </rdf:RDF>
 </metadata>
 <defs>
  <style type="text/css">*{stroke-linejoin: round; stroke-linecap: butt}</style>
 </defs>
 <g id="figure_1">
  <g id="patch_1">
   <path d="M 0 460.8 
L 460.8 460.8 
L 460.8 0 
L 0 0 
z
" style="fill: #ffffff"/>
  </g>
  <g id="axes_1">
   <g id="patch_2">
    <path d="M 30.49 192.4 
L 446.805 192.4 
L 446.805 25.68 
L 30.49 25.68 
z
" style="fill: #ffffff"/>
   </g>
   <g id="matplotlib.axis_1">
    <g id="xtick_1">
     <g id="line2d_1">
      <defs>
       <path id="m1b5c85cee3" d="M 0 0 
L 0 3.5 
" style="stroke: #000000; stroke-width: 0.8"/>
      </defs>
      <g>
       <use xlink:href="#m1b5c85cee3" x="30.49" y="192.4" style="stroke: #000000; stroke-width: 0.8"/>
      </g>
     </g>
     <g id="text_1">
      <!-- 0 -->
      <g transform="translate(27.30875 206.998438)scale(0.1 -0.1)">
       <defs>
        <path id="DejaVuSans-30" d="M 2034 4250 
Q 1547 4250 1301 3770 
Q 1056 3291 1056 2328 
Q 1056 1369 1301 889 
Q 1547 409 2034 409 
Q 2525 409 2770 889 
Q 3016 1369 3016 2328 
Q 3016 3291 2770 3770 
Q 2525 4250 2034 4250 
z
M 2034 4750 
Q 2819 4750 3233 4129 
Q 3647 3509 3647 2328 
Q 3647 1150 3233 529 
Q 2819 -91 2034 -91 
Q 1250 -91 836 529 
Q 422 1150 422 2328 
Q 422 3509 836 4129 
Q 1250 4750 2034 4750 
z
" transform="scale(0.015625)"/>
       </defs>
       <use xlink:href="#DejaVuSans-30"/>
      </g>
     </g>
    </g>
    <g id="xtick_2">
     <g id="line2d_2">
      <g>
       <use xlink:href="#m1b5c85cee3" x="82.529375" y="192.4" style="stroke: #000000; stroke-width: 0.8"/>
      </g>
     </g>
     <g id="text_2">
      <!-- 1 -->
      <g transform="translate(79.348125 206.998438)scale(0.1 -0.1)">
       <defs>
        <path id="DejaVuSans-31" d="M 794 531 
L 1825 531 
L 1825 4091 
L 703 3866 
L 703 4441 
L 1819 4666 
L 2450 4666 
L 2450 531 
L 3481 531 
L 3481 0 
L 794 0 
L 794 531 
z
" transform="scale(0.015625)"/>
       </defs>
       <use xlink:href="#DejaVuSans-31"/>
      </g>
     </g>
    </g>
    <g id="xtick_3">
     <g id="line2d_3">
      <g>
       <use xlink:href="#m1b5c85cee3" x="134.56875" y="192.4" style="stroke: #000000; stroke-width: 0.8"/>
      </g>
     </g>
     <g id="text_3">
      <!-- 2 -->
      <g transform="translate(131.3875 206.998438)scale(0.1 -0.1)">
       <defs>
        <path id="DejaVuSans-32" d="M 1228 531 
L 3431 531 
L 3431 0 
L 469 0 
L 469 531 
Q 828 903 1448 1529 
Q 2069 2156 2228 2338 
Q 2531 2678 2651 2914 
Q 2772 3150 2772 3378 
Q 2772 3750 2511 3984 
Q 2250 4219 1831 4219 
Q 1534 4219 1204 4116 
Q 875 4013 500 3803 
L 500 4441 
Q 881 4594 1212 4672 
Q 1544 4750 1819 4750 
Q 2544 4750 2975 4387 
Q 3406 4025 3406 3419 
Q 3406 3131 3298 2873 
Q 3191 2616 2906 2266 
Q 2828 2175 2409 1742 
Q 1991 1309 1228 531 
z
" transform="scale(0.015625)"/>
       </defs>
       <use xlink:href="#DejaVuSans-32"/>
      </g>
     </g>
    </g>
    <g id="xtick_4">
     <g id="line2d_4">
      <g>
       <use xlink:href="#m1b5c85cee3" x="186.608125" y="192.4" style="stroke: #000000; stroke-width: 0.8"/>
      </g>
     </g>
     <g id="text_4">
      <!-- 3 -->
      <g transform="translate(183.426875 206.998438)scale(0.1 -0.1)">
       <defs>
        <path id="DejaVuSans-33" d="M 2597 2516 
Q 3050 2419 3304 2112 
Q 3559 1806 3559 1356 
Q 3559 666 3084 287 
Q 2609 -91 1734 -91 
Q 1441 -91 1130 -33 
Q 819 25 488 141 
L 488 750 
Q 750 597 1062 519 
Q 1375 441 1716 441 
Q 2309 441 2620 675 
Q 2931 909 2931 1356 
Q 2931 1769 2642 2001 
Q 2353 2234 1838 2234 
L 1294 2234 
L 1294 2753 
L 1863 2753 
Q 2328 2753 2575 2939 
Q 2822 3125 2822 3475 
Q 2822 3834 2567 4026 
Q 2313 4219 1838 4219 
Q 1578 4219 1281 4162 
Q 984 4106 628 3988 
L 628 4550 
Q 988 4650 1302 4700 
Q 1616 4750 1894 4750 
Q 2613 4750 3031 4423 
Q 3450 4097 3450 3541 
Q 3450 3153 3228 2886 
Q 3006 2619 2597 2516 
z
" transform="scale(0.015625)"/>
       </defs>
       <use xlink:href="#DejaVuSans-33"/>
      </g>
     </g>
    </g>
    <g id="xtick_5">
     <g id="line2d_5">
      <g>
       <use xlink:href="#m1b5c85cee3" x="238.6475" y="192.4" style="stroke: #000000; stroke-width: 0.8"/>
      </g>
     </g>
     <g id="text_5">
      <!-- 4 -->
      <g transform="translate(235.46625 206.998438)scale(0.1 -0.1)">
       <defs>
        <path id="DejaVuSans-34" d="M 2419 4116 
L 825 1625 
L 2419 1625 
L 2419 4116 
z
M 2253 4666 
L 3047 4666 
L 3047 1625 
L 3713 1625 
L 3713 1100 
L 3047 1100 
L 3047 0 
L 2419 0 
L 2419 1100 
L 313 1100 
L 313 1709 
L 2253 4666 
z
" transform="scale(0.015625)"/>
       </defs>
       <use xlink:href="#DejaVuSans-34"/>
      </g>
     </g>
    </g>
    <g id="xtick_6">
     <g id="line2d_6">
      <g>
       <use xlink:href="#m1b5c85cee3" x="290.686875" y="192.4" style="stroke: #000000; stroke-width: 0.8"/>
      </g>
     </g>
     <g id="text_6">
      <!-- 5 -->
      <g transform="translate(287.505625 206.998438)scale(0.1 -0.1)">
       <defs>
        <path id="DejaVuSans-35" d="M 691 4666 
L 3169 4666 
L 3169 4134 
L 1269 4134 
L 1269 2991 
Q 1406 3038 1543 3061 
Q 1681 3084 1819 3084 
Q 2600 3084 3056 2656 
Q 3513 2228 3513 1497 
Q 3513 744 3044 326 
Q 2575 -91 1722 -91 
Q 1428 -91 1123 -41 
Q 819 9 494 109 
L 494 744 
Q 775 591 1075 516 
Q 1375 441 1709 441 
Q 2250 441 2565 725 
Q 2881 1009 2881 1497 
Q 2881 1984 2565 2268 
Q 2250 2553 1709 2553 
Q 1456 2553 1204 2497 
Q 953 2441 691 2322 
L 691 4666 
z
" transform="scale(0.015625)"/>
       </defs>
       <use xlink:href="#DejaVuSans-35"/>
      </g>
     </g>
    </g>
    <g id="xtick_7">
     <g id="line2d_7">
      <g>
       <use xlink:href="#m1b5c85cee3" x="342.72625" y="192.4" style="stroke: #000000; stroke-width: 0.8"/>
      </g>
     </g>
     <g id="text_7">
      <!-- 6 -->
      <g transform="translate(339.545 206.998438)scale(0.1 -0.1)">
       <defs>
        <path id="DejaVuSans-36" d="M 2113 2584 
Q 1688 2584 1439 2293 
Q 1191 2003 1191 1497 
Q 1191 994 1439 701 
Q 1688 409 2113 409 
Q 2538 409 2786 701 
Q 3034 994 3034 1497 
Q 3034 2003 2786 2293 
Q 2538 2584 2113 2584 
z
M 3366 4563 
L 3366 3988 
Q 3128 4100 2886 4159 
Q 2644 4219 2406 4219 
Q 1781 4219 1451 3797 
Q 1122 3375 1075 2522 
Q 1259 2794 1537 2939 
Q 1816 3084 2150 3084 
Q 2853 3084 3261 2657 
Q 3669 2231 3669 1497 
Q 3669 778 3244 343 
Q 2819 -91 2113 -91 
Q 1303 -91 875 529 
Q 447 1150 447 2328 
Q 447 3434 972 4092 
Q 1497 4750 2381 4750 
Q 2619 4750 2861 4703 
Q 3103 4656 3366 4563 
z
" transform="scale(0.015625)"/>
       </defs>
       <use xlink:href="#DejaVuSans-36"/>
      </g>
     </g>
    </g>
    <g id="xtick_8">
     <g id="line2d_8">
      <g>
       <use xlink:href="#m1b5c85cee3" x="394.765625" y="192.4" style="stroke: #000000; stroke-width: 0.8"/>
      </g>
     </g>
     <g id="text_8">
      <!-- 7 -->
      <g transform="translate(391.584375 206.998438)scale(0.1 -0.1)">
       <defs>
        <path id="DejaVuSans-37" d="M 525 4666 
L 3525 4666 
L 3525 4397 
L 1831 0 
L 1172 0 
L 2766 4134 
L 525 4134 
L 525 4666 
z
" transform="scale(0.015625)"/>
       </defs>
       <use xlink:href="#DejaVuSans-37"/>
      </g>
     </g>
    </g>
    <g id="xtick_9">
     <g id="line2d_9">
      <g>
       <use xlink:href="#m1b5c85cee3" x="446.805" y="192.4" style="stroke: #000000; stroke-width: 0.8"/>
      </g>
     </g>
     <g id="text_9">
      <!-- 8 -->
      <g transform="translate(443.62375 206.998438)scale(0.1 -0.1)">
       <defs>
        <path id="DejaVuSans-38" d="M 2034 2216 
Q 1584 2216 1326 1975 
Q 1069 1734 1069 1313 
Q 1069 891 1326 650 
Q 1584 409 2034 409 
Q 2484 409 2743 651 
Q 3003 894 3003 1313 
Q 3003 1734 2745 1975 
Q 2488 2216 2034 2216 
z
M 1403 2484 
Q 997 2584 770 2862 
Q 544 3141 544 3541 
Q 544 4100 942 4425 
Q 1341 4750 2034 4750 
Q 2731 4750 3128 4425 
Q 3525 4100 3525 3541 
Q 3525 3141 3298 2862 
Q 3072 2584 2669 2484 
Q 3125 2378 3379 2068 
Q 3634 1759 3634 1313 
Q 3634 634 3220 271 
Q 2806 -91 2034 -91 
Q 1263 -91 848 271 
Q 434 634 434 1313 
Q 434 1759 690 2068 
Q 947 2378 1403 2484 
z
M 1172 3481 
Q 1172 3119 1398 2916 
Q 1625 2713 2034 2713 
Q 2441 2713 2670 2916 
Q 2900 3119 2900 3481 
Q 2900 3844 2670 4047 
Q 2441 4250 2034 4250 
Q 1625 4250 1398 4047 
Q 1172 3844 1172 3481 
z
" transform="scale(0.015625)"/>
       </defs>
       <use xlink:href="#DejaVuSans-38"/>
      </g>
     </g>
    </g>
    <g id="text_10">
     <!-- Orbit Position $s$ / m -->
     <g transform="translate(190.9475 220.676563)scale(0.1 -0.1)">
      <defs>
       <path id="DejaVuSans-4f" d="M 2522 4238 
Q 1834 4238 1429 3725 
Q 1025 3213 1025 2328 
Q 1025 1447 1429 934 
Q 1834 422 2522 422 
Q 3209 422 3611 934 
Q 4013 1447 4013 2328 
Q 4013 3213 3611 3725 
Q 3209 4238 2522 4238 
z
M 2522 4750 
Q 3503 4750 4090 4092 
Q 4678 3434 4678 2328 
Q 4678 1225 4090 567 
Q 3503 -91 2522 -91 
Q 1538 -91 948 565 
Q 359 1222 359 2328 
Q 359 3434 948 4092 
Q 1538 4750 2522 4750 
z
" transform="scale(0.015625)"/>
       <path id="DejaVuSans-72" d="M 2631 2963 
Q 2534 3019 2420 3045 
Q 2306 3072 2169 3072 
Q 1681 3072 1420 2755 
Q 1159 2438 1159 1844 
L 1159 0 
L 581 0 
L 581 3500 
L 1159 3500 
L 1159 2956 
Q 1341 3275 1631 3429 
Q 1922 3584 2338 3584 
Q 2397 3584 2469 3576 
Q 2541 3569 2628 3553 
L 2631 2963 
z
" transform="scale(0.015625)"/>
       <path id="DejaVuSans-62" d="M 3116 1747 
Q 3116 2381 2855 2742 
Q 2594 3103 2138 3103 
Q 1681 3103 1420 2742 
Q 1159 2381 1159 1747 
Q 1159 1113 1420 752 
Q 1681 391 2138 391 
Q 2594 391 2855 752 
Q 3116 1113 3116 1747 
z
M 1159 2969 
Q 1341 3281 1617 3432 
Q 1894 3584 2278 3584 
Q 2916 3584 3314 3078 
Q 3713 2572 3713 1747 
Q 3713 922 3314 415 
Q 2916 -91 2278 -91 
Q 1894 -91 1617 61 
Q 1341 213 1159 525 
L 1159 0 
L 581 0 
L 581 4863 
L 1159 4863 
L 1159 2969 
z
" transform="scale(0.015625)"/>
       <path id="DejaVuSans-69" d="M 603 3500 
L 1178 3500 
L 1178 0 
L 603 0 
L 603 3500 
z
M 603 4863 
L 1178 4863 
L 1178 4134 
L 603 4134 
L 603 4863 
z
" transform="scale(0.015625)"/>
       <path id="DejaVuSans-74" d="M 1172 4494 
L 1172 3500 
L 2356 3500 
L 2356 3053 
L 1172 3053 
L 1172 1153 
Q 1172 725 1289 603 
Q 1406 481 1766 481 
L 2356 481 
L 2356 0 
L 1766 0 
Q 1100 0 847 248 
Q 594 497 594 1153 
L 594 3053 
L 172 3053 
L 172 3500 
L 594 3500 
L 594 4494 
L 1172 4494 
z
" transform="scale(0.015625)"/>
       <path id="DejaVuSans-20" transform="scale(0.015625)"/>
       <path id="DejaVuSans-50" d="M 1259 4147 
L 1259 2394 
L 2053 2394 
Q 2494 2394 2734 2622 
Q 2975 2850 2975 3272 
Q 2975 3691 2734 3919 
Q 2494 4147 2053 4147 
L 1259 4147 
z
M 628 4666 
L 2053 4666 
Q 2838 4666 3239 4311 
Q 3641 3956 3641 3272 
Q 3641 2581 3239 2228 
Q 2838 1875 2053 1875 
L 1259 1875 
L 1259 0 
L 628 0 
L 628 4666 
z
" transform="scale(0.015625)"/>
       <path id="DejaVuSans-6f" d="M 1959 3097 
Q 1497 3097 1228 2736 
Q 959 2375 959 1747 
Q 959 1119 1226 758 
Q 1494 397 1959 397 
Q 2419 397 2687 759 
Q 2956 1122 2956 1747 
Q 2956 2369 2687 2733 
Q 2419 3097 1959 3097 
z
M 1959 3584 
Q 2709 3584 3137 3096 
Q 3566 2609 3566 1747 
Q 3566 888 3137 398 
Q 2709 -91 1959 -91 
Q 1206 -91 779 398 
Q 353 888 353 1747 
Q 353 2609 779 3096 
Q 1206 3584 1959 3584 
z
" transform="scale(0.015625)"/>
       <path id="DejaVuSans-73" d="M 2834 3397 
L 2834 2853 
Q 2591 2978 2328 3040 
Q 2066 3103 1784 3103 
Q 1356 3103 1142 2972 
Q 928 2841 928 2578 
Q 928 2378 1081 2264 
Q 1234 2150 1697 2047 
L 1894 2003 
Q 2506 1872 2764 1633 
Q 3022 1394 3022 966 
Q 3022 478 2636 193 
Q 2250 -91 1575 -91 
Q 1294 -91 989 -36 
Q 684 19 347 128 
L 347 722 
Q 666 556 975 473 
Q 1284 391 1588 391 
Q 1994 391 2212 530 
Q 2431 669 2431 922 
Q 2431 1156 2273 1281 
Q 2116 1406 1581 1522 
L 1381 1569 
Q 847 1681 609 1914 
Q 372 2147 372 2553 
Q 372 3047 722 3315 
Q 1072 3584 1716 3584 
Q 2034 3584 2315 3537 
Q 2597 3491 2834 3397 
z
" transform="scale(0.015625)"/>
       <path id="DejaVuSans-6e" d="M 3513 2113 
L 3513 0 
L 2938 0 
L 2938 2094 
Q 2938 2591 2744 2837 
Q 2550 3084 2163 3084 
Q 1697 3084 1428 2787 
Q 1159 2491 1159 1978 
L 1159 0 
L 581 0 
L 581 3500 
L 1159 3500 
L 1159 2956 
Q 1366 3272 1645 3428 
Q 1925 3584 2291 3584 
Q 2894 3584 3203 3211 
Q 3513 2838 3513 2113 
z
" transform="scale(0.015625)"/>
       <path id="DejaVuSans-Oblique-73" d="M 3200 3397 
L 3091 2853 
Q 2863 2978 2609 3040 
Q 2356 3103 2088 3103 
Q 1634 3103 1373 2948 
Q 1113 2794 1113 2528 
Q 1113 2219 1719 2053 
Q 1766 2041 1788 2034 
L 1972 1978 
Q 2547 1819 2739 1644 
Q 2931 1469 2931 1166 
Q 2931 609 2489 259 
Q 2047 -91 1331 -91 
Q 1053 -91 747 -37 
Q 441 16 72 128 
L 184 722 
Q 500 559 806 475 
Q 1113 391 1394 391 
Q 1816 391 2080 572 
Q 2344 753 2344 1031 
Q 2344 1331 1650 1516 
L 1591 1531 
L 1394 1581 
Q 956 1697 753 1886 
Q 550 2075 550 2369 
Q 550 2928 970 3256 
Q 1391 3584 2113 3584 
Q 2397 3584 2667 3537 
Q 2938 3491 3200 3397 
z
" transform="scale(0.015625)"/>
       <path id="DejaVuSans-2f" d="M 1625 4666 
L 2156 4666 
L 531 -594 
L 0 -594 
L 1625 4666 
z
" transform="scale(0.015625)"/>
       <path id="DejaVuSans-6d" d="M 3328 2828 
Q 3544 3216 3844 3400 
Q 4144 3584 4550 3584 
Q 5097 3584 5394 3201 
Q 5691 2819 5691 2113 
L 5691 0 
L 5113 0 
L 5113 2094 
Q 5113 2597 4934 2840 
Q 4756 3084 4391 3084 
Q 3944 3084 3684 2787 
Q 3425 2491 3425 1978 
L 3425 0 
L 2847 0 
L 2847 2094 
Q 2847 2600 2669 2842 
Q 2491 3084 2119 3084 
Q 1678 3084 1418 2786 
Q 1159 2488 1159 1978 
L 1159 0 
L 581 0 
L 581 3500 
L 1159 3500 
L 1159 2956 
Q 1356 3278 1631 3431 
Q 1906 3584 2284 3584 
Q 2666 3584 2933 3390 
Q 3200 3197 3328 2828 
z
" transform="scale(0.015625)"/>
      </defs>
      <use xlink:href="#DejaVuSans-4f" transform="translate(0 0.015625)"/>
      <use xlink:href="#DejaVuSans-72" transform="translate(78.710938 0.015625)"/>
      <use xlink:href="#DejaVuSans-62" transform="translate(119.824219 0.015625)"/>
      <use xlink:href="#DejaVuSans-69" transform="translate(183.300781 0.015625)"/>
      <use xlink:href="#DejaVuSans-74" transform="translate(211.083984 0.015625)"/>
      <use xlink:href="#DejaVuSans-20" transform="translate(250.292969 0.015625)"/>
      <use xlink:href="#DejaVuSans-50" transform="translate(282.080078 0.015625)"/>
      <use xlink:href="#DejaVuSans-6f" transform="translate(342.382812 0.015625)"/>
      <use xlink:href="#DejaVuSans-73" transform="translate(403.564453 0.015625)"/>
      <use xlink:href="#DejaVuSans-69" transform="translate(455.664062 0.015625)"/>
      <use xlink:href="#DejaVuSans-74" transform="translate(483.447266 0.015625)"/>
      <use xlink:href="#DejaVuSans-69" transform="translate(522.65625 0.015625)"/>
      <use xlink:href="#DejaVuSans-6f" transform="translate(550.439453 0.015625)"/>
      <use xlink:href="#DejaVuSans-6e" transform="translate(611.621094 0.015625)"/>
      <use xlink:href="#DejaVuSans-20" transform="translate(675 0.015625)"/>
      <use xlink:href="#DejaVuSans-Oblique-73" transform="translate(706.787109 0.015625)"/>
      <use xlink:href="#DejaVuSans-20" transform="translate(758.886719 0.015625)"/>
      <use xlink:href="#DejaVuSans-2f" transform="translate(790.673828 0.015625)"/>
      <use xlink:href="#DejaVuSans-20" transform="translate(824.365234 0.015625)"/>
      <use xlink:href="#DejaVuSans-6d" transform="translate(856.152344 0.015625)"/>
     </g>
    </g>
   </g>
   <g id="matplotlib.axis_2">
    <g id="ytick_1">
     <g id="line2d_10">
      <defs>
       <path id="md612d8602d" d="M 0 0 
L -3.5 0 
" style="stroke: #000000; stroke-width: 0.8"/>
      </defs>
      <g>
       <use xlink:href="#md612d8602d" x="30.49" y="184.839002" style="stroke: #000000; stroke-width: 0.8"/>
      </g>
     </g>
     <g id="text_11">
      <!-- 0 -->
      <g transform="translate(17.1275 188.638221)scale(0.1 -0.1)">
       <use xlink:href="#DejaVuSans-30"/>
      </g>
     </g>
    </g>
    <g id="ytick_2">
     <g id="line2d_11">
      <g>
       <use xlink:href="#md612d8602d" x="30.49" y="147.034014" style="stroke: #000000; stroke-width: 0.8"/>
      </g>
     </g>
     <g id="text_12">
      <!-- 5 -->
      <g transform="translate(17.1275 150.833232)scale(0.1 -0.1)">
       <use xlink:href="#DejaVuSans-35"/>
      </g>
     </g>
    </g>
    <g id="ytick_3">
     <g id="line2d_12">
      <g>
       <use xlink:href="#md612d8602d" x="30.49" y="109.229025" style="stroke: #000000; stroke-width: 0.8"/>
      </g>
     </g>
     <g id="text_13">
      <!-- 10 -->
      <g transform="translate(10.765 113.028244)scale(0.1 -0.1)">
       <use xlink:href="#DejaVuSans-31"/>
       <use xlink:href="#DejaVuSans-30" x="63.623047"/>
      </g>
     </g>
    </g>
    <g id="ytick_4">
     <g id="line2d_13">
      <g>
       <use xlink:href="#md612d8602d" x="30.49" y="71.424036" style="stroke: #000000; stroke-width: 0.8"/>
      </g>
     </g>
     <g id="text_14">
      <!-- 15 -->
      <g transform="translate(10.765 75.223255)scale(0.1 -0.1)">
       <use xlink:href="#DejaVuSans-31"/>
       <use xlink:href="#DejaVuSans-35" x="63.623047"/>
      </g>
     </g>
    </g>
    <g id="ytick_5">
     <g id="line2d_14">
      <g>
       <use xlink:href="#md612d8602d" x="30.49" y="33.619048" style="stroke: #000000; stroke-width: 0.8"/>
      </g>
     </g>
     <g id="text_15">
      <!-- 20 -->
      <g transform="translate(10.765 37.418266)scale(0.1 -0.1)">
       <use xlink:href="#DejaVuSans-32"/>
       <use xlink:href="#DejaVuSans-30" x="63.623047"/>
      </g>
     </g>
    </g>
   </g>
   <g id="patch_3">
    <path d="M 30.49 192.4 
L 30.49 25.68 
" style="fill: none; stroke: #000000; stroke-width: 0.8; stroke-linejoin: miter; stroke-linecap: square"/>
   </g>
   <g id="patch_4">
    <path d="M 446.805 192.4 
L 446.805 25.68 
" style="fill: none; stroke: #000000; stroke-width: 0.8; stroke-linejoin: miter; stroke-linecap: square"/>
   </g>
   <g id="patch_5">
    <path d="M 30.49 192.4 
L 446.805 192.4 
" style="fill: none; stroke: #000000; stroke-width: 0.8; stroke-linejoin: miter; stroke-linecap: square"/>
   </g>
   <g id="patch_6">
    <path d="M 30.49 25.68 
L 446.805 25.68 
" style="fill: none; stroke: #000000; stroke-width: 0.8; stroke-linejoin: miter; stroke-linecap: square"/>
   </g>
   <g id="legend_1">
    <g id="patch_7">
     <path d="M 121.2475 64.256 
L 356.0475 64.256 
Q 358.0475 64.256 358.0475 62.256 
L 358.0475 47.456 
Q 358.0475 45.456 356.0475 45.456 
L 121.2475 45.456 
Q 119.2475 45.456 119.2475 47.456 
L 119.2475 62.256 
Q 119.2475 64.256 121.2475 64.256 
z
" style="fill: #ffffff; opacity: 0.8; stroke: #cccccc; stroke-linejoin: miter"/>
    </g>
    <g id="line2d_15">
     <path d="M 123.2475 53.656 
L 133.2475 53.656 
L 143.2475 53.656 
" style="fill: none; stroke: #ef4444; stroke-width: 1.3; stroke-linecap: square"/>
    </g>
    <g id="text_16">
     <!-- $\beta_x$ / m -->
     <g transform="translate(151.2475 57.156)scale(0.1 -0.1)">
      <defs>
       <path id="DejaVuSans-Oblique-3b2" d="M 872 216 
L 572 -1331 
L -6 -1331 
L 928 3478 
Q 1206 4903 2538 4903 
Q 3888 4903 3659 3700 
Q 3503 2844 2894 2531 
Q 3713 2250 3553 1416 
Q 3272 -69 1759 -66 
Q 1097 -63 872 216 
z
M 1019 966 
Q 1259 422 1875 425 
Q 2775 425 2966 1406 
Q 3138 2288 1675 2219 
L 1778 2750 
Q 2909 2731 3106 3750 
Q 3241 4438 2509 4434 
Q 1691 4434 1503 3459 
L 1019 966 
z
" transform="scale(0.015625)"/>
       <path id="DejaVuSans-Oblique-78" d="M 3841 3500 
L 2234 1784 
L 3219 0 
L 2559 0 
L 1819 1388 
L 531 0 
L -166 0 
L 1556 1844 
L 641 3500 
L 1300 3500 
L 1972 2234 
L 3144 3500 
L 3841 3500 
z
" transform="scale(0.015625)"/>
      </defs>
      <use xlink:href="#DejaVuSans-Oblique-3b2" transform="translate(0 0.390625)"/>
      <use xlink:href="#DejaVuSans-Oblique-78" transform="translate(63.818359 -16.015625)scale(0.7)"/>
      <use xlink:href="#DejaVuSans-20" transform="translate(107.978516 0.390625)"/>
      <use xlink:href="#DejaVuSans-2f" transform="translate(139.765625 0.390625)"/>
      <use xlink:href="#DejaVuSans-20" transform="translate(173.457031 0.390625)"/>
      <use xlink:href="#DejaVuSans-6d" transform="translate(205.244141 0.390625)"/>
     </g>
    </g>
    <g id="line2d_16">
     <path d="M 201.5475 53.656 
L 211.5475 53.656 
L 221.5475 53.656 
" style="fill: none; stroke: #3b82f6; stroke-width: 1.3; stroke-linecap: square"/>
    </g>
    <g id="text_17">
     <!-- $\beta_y$ / m -->
     <g transform="translate(229.5475 57.156)scale(0.1 -0.1)">
      <defs>
       <path id="DejaVuSans-Oblique-79" d="M 1588 -325 
Q 1188 -997 936 -1164 
Q 684 -1331 294 -1331 
L -159 -1331 
L -63 -850 
L 269 -850 
Q 509 -850 678 -719 
Q 847 -588 1056 -206 
L 1234 128 
L 459 3500 
L 1069 3500 
L 1650 819 
L 3256 3500 
L 3859 3500 
L 1588 -325 
z
" transform="scale(0.015625)"/>
      </defs>
      <use xlink:href="#DejaVuSans-Oblique-3b2" transform="translate(0 0.390625)"/>
      <use xlink:href="#DejaVuSans-Oblique-79" transform="translate(63.818359 -16.015625)scale(0.7)"/>
      <use xlink:href="#DejaVuSans-20" transform="translate(107.978516 0.390625)"/>
      <use xlink:href="#DejaVuSans-2f" transform="translate(139.765625 0.390625)"/>
      <use xlink:href="#DejaVuSans-20" transform="translate(173.457031 0.390625)"/>
      <use xlink:href="#DejaVuSans-6d" transform="translate(205.244141 0.390625)"/>
     </g>
    </g>
    <g id="line2d_17">
     <path d="M 279.8475 53.656 
L 289.8475 53.656 
L 299.8475 53.656 
" style="fill: none; stroke: #10b981; stroke-width: 1.3; stroke-linecap: square"/>
    </g>
    <g id="text_18">
     <!-- 10 $\eta_x$ / m -->
     <g transform="translate(307.8475 57.156)scale(0.1 -0.1)">
      <defs>
       <path id="DejaVuSans-Oblique-3b7" d="M 3703 2113 
L 3034 -1331 
L 2459 -1331 
L 3125 2094 
Q 3222 2591 3075 2838 
Q 2931 3084 2544 3084 
Q 2078 3084 1750 2788 
Q 1425 2491 1325 1978 
L 941 0 
L 363 0 
L 1044 3500 
L 1622 3500 
L 1516 2956 
Q 1781 3272 2094 3428 
Q 2403 3584 2769 3584 
Q 3372 3584 3609 3213 
Q 3844 2838 3703 2113 
z
" transform="scale(0.015625)"/>
      </defs>
      <use xlink:href="#DejaVuSans-31" transform="translate(0 0.78125)"/>
      <use xlink:href="#DejaVuSans-30" transform="translate(63.623047 0.78125)"/>
      <use xlink:href="#DejaVuSans-20" transform="translate(127.246094 0.78125)"/>
      <use xlink:href="#DejaVuSans-Oblique-3b7" transform="translate(159.033203 0.78125)"/>
      <use xlink:href="#DejaVuSans-Oblique-78" transform="translate(222.412109 -15.625)scale(0.7)"/>
      <use xlink:href="#DejaVuSans-20" transform="translate(266.572266 0.78125)"/>
      <use xlink:href="#DejaVuSans-2f" transform="translate(298.359375 0.78125)"/>
      <use xlink:href="#DejaVuSans-20" transform="translate(332.050781 0.78125)"/>
      <use xlink:href="#DejaVuSans-6d" transform="translate(363.837891 0.78125)"/>
     </g>
    </g>
   </g>
   <g id="line2d_18">
    <path d="M 30.49 184.839002 
L 31.790984 184.839002 
L 33.091969 184.839002 
L 34.392953 184.839002 
L 35.693938 184.839002 
L 36.994922 184.839002 
L 38.295906 184.839002 
L 39.596891 184.839002 
L 40.897875 184.839002 
L 42.198859 184.839002 
L 43.499844 184.839002 
L 61.713625 184.839002 
L 79.927406 184.839002 
L 98.141188 184.839002 
L 116.354969 184.839002 
L 134.56875 184.839002 
L 152.782531 184.839002 
L 170.996313 184.839002 
L 189.210094 184.839002 
L 207.423875 184.839002 
L 225.637656 184.839002 
L 228.239625 184.839002 
L 230.841594 184.839002 
L 233.443563 184.839002 
L 236.045531 184.839002 
L 238.6475 184.839002 
L 241.249469 184.839002 
L 243.851438 184.839002 
L 246.453406 184.839002 
L 249.055375 184.839002 
L 251.657344 184.839002 
L 269.871125 184.839002 
L 288.084906 184.839002 
L 306.298687 184.839002 
L 324.512469 184.839002 
L 342.72625 184.839002 
L 360.940031 184.839002 
L 379.153812 184.839002 
L 397.367594 184.839002 
L 415.581375 184.839002 
L 433.795156 184.839002 
L 435.096141 184.839002 
L 436.397125 184.839002 
L 437.698109 184.839002 
L 438.999094 184.839002 
L 440.300078 184.839002 
L 441.601062 184.839002 
L 442.902047 184.839002 
L 444.203031 184.839002 
L 445.504016 184.839002 
L 446.805 184.839002 
" clip-path="url(#p827e67a2c6)" style="fill: none; stroke: #10b981; stroke-width: 1.3; stroke-linecap: square"/>
   </g>
   <g id="line2d_19">
    <path d="M 30.49 170.229754 
L 31.790984 170.220002 
L 33.091969 170.190727 
L 34.392953 170.141869 
L 35.693938 170.073332 
L 36.994922 169.984978 
L 38.295906 169.87663 
L 39.596891 169.748072 
L 40.897875 169.599046 
L 42.198859 169.429255 
L 43.499844 169.238359 
L 61.713625 165.839817 
L 79.927406 161.288231 
L 98.141188 155.583602 
L 116.354969 148.725929 
L 134.56875 140.715211 
L 152.782531 131.55145 
L 170.996313 121.234646 
L 189.210094 109.764797 
L 207.423875 97.141904 
L 225.637656 83.365968 
L 228.239625 81.509402 
L 230.841594 80.049785 
L 233.443563 78.998786 
L 236.045531 78.364806 
L 238.6475 78.152915 
L 241.249469 78.364806 
L 243.851438 78.998786 
L 246.453406 80.049785 
L 249.055375 81.509402 
L 251.657344 83.365968 
L 269.871125 97.141904 
L 288.084906 109.764797 
L 306.298687 121.234646 
L 324.512469 131.55145 
L 342.72625 140.715211 
L 360.940031 148.725929 
L 379.153812 155.583602 
L 397.367594 161.288231 
L 415.581375 165.839817 
L 433.795156 169.238359 
L 435.096141 169.429255 
L 436.397125 169.599046 
L 437.698109 169.748072 
L 438.999094 169.87663 
L 440.300078 169.984978 
L 441.601062 170.073332 
L 442.902047 170.141869 
L 444.203031 170.190727 
L 445.504016 170.220002 
L 446.805 170.229754 
" clip-path="url(#p827e67a2c6)" style="fill: none; stroke: #3b82f6; stroke-width: 1.3; stroke-linecap: square"/>
   </g>
   <g id="line2d_20">
    <path d="M 30.49 78.152915 
L 31.790984 78.205914 
L 33.091969 78.364806 
L 34.392953 78.629273 
L 35.693938 78.998786 
L 36.994922 79.472606 
L 38.295906 80.049785 
L 39.596891 80.72917 
L 40.897875 81.509402 
L 42.198859 82.388921 
L 43.499844 83.365968 
L 61.713625 97.141904 
L 79.927406 109.764797 
L 98.141188 121.234646 
L 116.354969 131.55145 
L 134.56875 140.715211 
L 152.782531 148.725929 
L 170.996313 155.583602 
L 189.210094 161.288231 
L 207.423875 165.839817 
L 225.637656 169.238359 
L 228.239625 169.599046 
L 230.841594 169.87663 
L 233.443563 170.073332 
L 236.045531 170.190727 
L 238.6475 170.229754 
L 241.249469 170.190727 
L 243.851438 170.073332 
L 246.453406 169.87663 
L 249.055375 169.599046 
L 251.657344 169.238359 
L 269.871125 165.839817 
L 288.084906 161.288231 
L 306.298687 155.583602 
L 324.512469 148.725929 
L 342.72625 140.715211 
L 360.940031 131.55145 
L 379.153812 121.234646 
L 397.367594 109.764797 
L 415.581375 97.141904 
L 433.795156 83.365968 
L 435.096141 82.388921 
L 436.397125 81.509402 
L 437.698109 80.72917 
L 438.999094 80.049785 
L 440.300078 79.472606 
L 441.601062 78.998786 
L 442.902047 78.629273 
L 444.203031 78.364806 
L 445.504016 78.205914 
L 446.805 78.152915 
" clip-path="url(#p827e67a2c6)" style="fill: none; stroke: #ef4444; stroke-width: 1.3; stroke-linecap: square"/>
   </g>
   <g id="patch_8">
    <path d="M 30.49 29.649524 
L 43.499844 29.649524 
L 43.499844 21.710476 
L 30.49 21.710476 
z
" style="fill: #ef4444"/>
   </g>
   <g id="patch_9">
    <path d="M 225.637656 29.649524 
L 251.657344 29.649524 
L 251.657344 21.710476 
L 225.637656 21.710476 
z
" style="fill: #ef4444"/>
   </g>
   <g id="patch_10">
    <path d="M 433.795156 29.649524 
L 446.805 29.649524 
L 446.805 21.710476 
L 433.795156 21.710476 
z
" style="fill: #ef4444"/>
   </g>
   <g id="text_19">
    <!-- q1 -->
    <g transform="translate(31.910547 16.077202)scale(0.08 -0.08)">
     <defs>
      <path id="DejaVuSans-71" d="M 947 1747 
Q 947 1113 1208 752 
Q 1469 391 1925 391 
Q 2381 391 2643 752 
Q 2906 1113 2906 1747 
Q 2906 2381 2643 2742 
Q 2381 3103 1925 3103 
Q 1469 3103 1208 2742 
Q 947 2381 947 1747 
z
M 2906 525 
Q 2725 213 2448 61 
Q 2172 -91 1784 -91 
Q 1150 -91 751 415 
Q 353 922 353 1747 
Q 353 2572 751 3078 
Q 1150 3584 1784 3584 
Q 2172 3584 2448 3432 
Q 2725 3281 2906 2969 
L 2906 3500 
L 3481 3500 
L 3481 -1331 
L 2906 -1331 
L 2906 525 
z
" transform="scale(0.015625)"/>
     </defs>
     <use xlink:href="#DejaVuSans-71"/>
     <use xlink:href="#DejaVuSans-31" x="63.476562"/>
    </g>
   </g>
   <g id="text_20">
    <!-- q2 -->
    <g transform="translate(233.563125 39.697798)scale(0.08 -0.08)">
     <use xlink:href="#DejaVuSans-71"/>
     <use xlink:href="#DejaVuSans-32" x="63.476562"/>
    </g>
   </g>
   <g id="text_21">
    <!-- q1 -->
    <g transform="translate(435.215703 16.077202)scale(0.08 -0.08)">
     <use xlink:href="#DejaVuSans-71"/>
     <use xlink:href="#DejaVuSans-31" x="63.476562"/>
    </g>
   </g>
  </g>
  <g id="axes_2">
   <g id="patch_11">
    <path d="M 30.49 417.4 
L 446.805 417.4 
L 446.805 250.68 
L 30.49 250.68 
z
" style="fill: #ffffff"/>
   </g>
   <g id="matplotlib.axis_3">
    <g id="xtick_10">
     <g id="line2d_21">
      <g>
       <use xlink:href="#m1b5c85cee3" x="30.49" y="417.4" style="stroke: #000000; stroke-width: 0.8"/>
      </g>
     </g>
     <g id="text_22">
      <!-- 0 -->
      <g transform="translate(27.30875 431.998438)scale(0.1 -0.1)">
       <use xlink:href="#DejaVuSans-30"/>
      </g>
     </g>
    </g>
    <g id="xtick_11">
     <g id="line2d_22">
      <g>
       <use xlink:href="#m1b5c85cee3" x="82.529375" y="417.4" style="stroke: #000000; stroke-width: 0.8"/>
      </g>
     </g>
     <g id="text_23">
      <!-- 1 -->
      <g transform="translate(79.348125 431.998438)scale(0.1 -0.1)">
       <use xlink:href="#DejaVuSans-31"/>
      </g>
     </g>
    </g>
    <g id="xtick_12">
     <g id="line2d_23">
      <g>
       <use xlink:href="#m1b5c85cee3" x="134.56875" y="417.4" style="stroke: #000000; stroke-width: 0.8"/>
      </g>
     </g>
     <g id="text_24">
      <!-- 2 -->
      <g transform="translate(131.3875 431.998438)scale(0.1 -0.1)">
       <use xlink:href="#DejaVuSans-32"/>
      </g>
     </g>
    </g>
    <g id="xtick_13">
     <g id="line2d_24">
      <g>
       <use xlink:href="#m1b5c85cee3" x="186.608125" y="417.4" style="stroke: #000000; stroke-width: 0.8"/>
      </g>
     </g>
     <g id="text_25">
      <!-- 3 -->
      <g transform="translate(183.426875 431.998438)scale(0.1 -0.1)">
       <use xlink:href="#DejaVuSans-33"/>
      </g>
     </g>
    </g>
    <g id="xtick_14">
     <g id="line2d_25">
      <g>
       <use xlink:href="#m1b5c85cee3" x="238.6475" y="417.4" style="stroke: #000000; stroke-width: 0.8"/>
      </g>
     </g>
     <g id="text_26">
      <!-- 4 -->
      <g transform="translate(235.46625 431.998438)scale(0.1 -0.1)">
       <use xlink:href="#DejaVuSans-34"/>
      </g>
     </g>
    </g>
    <g id="xtick_15">
     <g id="line2d_26">
      <g>
       <use xlink:href="#m1b5c85cee3" x="290.686875" y="417.4" style="stroke: #000000; stroke-width: 0.8"/>
      </g>
     </g>
     <g id="text_27">
      <!-- 5 -->
      <g transform="translate(287.505625 431.998438)scale(0.1 -0.1)">
       <use xlink:href="#DejaVuSans-35"/>
      </g>
     </g>
    </g>
    <g id="xtick_16">
     <g id="line2d_27">
      <g>
       <use xlink:href="#m1b5c85cee3" x="342.72625" y="417.4" style="stroke: #000000; stroke-width: 0.8"/>
      </g>
     </g>
     <g id="text_28">
      <!-- 6 -->
      <g transform="translate(339.545 431.998438)scale(0.1 -0.1)">
       <use xlink:href="#DejaVuSans-36"/>
      </g>
     </g>
    </g>
    <g id="xtick_17">
     <g id="line2d_28">
      <g>
       <use xlink:href="#m1b5c85cee3" x="394.765625" y="417.4" style="stroke: #000000; stroke-width: 0.8"/>
      </g>
     </g>
     <g id="text_29">
      <!-- 7 -->
      <g transform="translate(391.584375 431.998438)scale(0.1 -0.1)">
       <use xlink:href="#DejaVuSans-37"/>
      </g>
     </g>
    </g>
    <g id="xtick_18">
     <g id="line2d_29">
      <g>
       <use xlink:href="#m1b5c85cee3" x="446.805" y="417.4" style="stroke: #000000; stroke-width: 0.8"/>
      </g>
     </g>
     <g id="text_30">
      <!-- 8 -->
      <g transform="translate(443.62375 431.998438)scale(0.1 -0.1)">
       <use xlink:href="#DejaVuSans-38"/>
      </g>
     </g>
    </g>
    <g id="text_31">
     <!-- Orbit Position $s$ / m -->
     <g transform="translate(190.9475 445.676562)scale(0.1 -0.1)">
      <use xlink:href="#DejaVuSans-4f" transform="translate(0 0.015625)"/>
      <use xlink:href="#DejaVuSans-72" transform="translate(78.710938 0.015625)"/>
      <use xlink:href="#DejaVuSans-62" transform="translate(119.824219 0.015625)"/>
      <use xlink:href="#DejaVuSans-69" transform="translate(183.300781 0.015625)"/>
      <use xlink:href="#DejaVuSans-74" transform="translate(211.083984 0.015625)"/>
      <use xlink:href="#DejaVuSans-20" transform="translate(250.292969 0.015625)"/>
      <use xlink:href="#DejaVuSans-50" transform="translate(282.080078 0.015625)"/>
      <use xlink:href="#DejaVuSans-6f" transform="translate(342.382812 0.015625)"/>
      <use xlink:href="#DejaVuSans-73" transform="translate(403.564453 0.015625)"/>
      <use xlink:href="#DejaVuSans-69" transform="translate(455.664062 0.015625)"/>
      <use xlink:href="#DejaVuSans-74" transform="translate(483.447266 0.015625)"/>
      <use xlink:href="#DejaVuSans-69" transform="translate(522.65625 0.015625)"/>
      <use xlink:href="#DejaVuSans-6f" transform="translate(550.439453 0.015625)"/>
      <use xlink:href="#DejaVuSans-6e" transform="translate(611.621094 0.015625)"/>
      <use xlink:href="#DejaVuSans-20" transform="translate(675 0.015625)"/>
      <use xlink:href="#DejaVuSans-Oblique-73" transform="translate(706.787109 0.015625)"/>
      <use xlink:href="#DejaVuSans-20" transform="translate(758.886719 0.015625)"/>
      <use xlink:href="#DejaVuSans-2f" transform="translate(790.673828 0.015625)"/>
      <use xlink:href="#DejaVuSans-20" transform="translate(824.365234 0.015625)"/>
      <use xlink:href="#DejaVuSans-6d" transform="translate(856.152344 0.015625)"/>
     </g>
    </g>
   </g>
   <g id="matplotlib.axis_4">
    <g id="ytick_6">
     <g id="line2d_30">
      <g>
       <use xlink:href="#md612d8602d" x="30.49" y="409.839002" style="stroke: #000000; stroke-width: 0.8"/>
      </g>
     </g>
     <g id="text_32">
      <!-- 0 -->
      <g transform="translate(17.1275 413.638221)scale(0.1 -0.1)">
       <use xlink:href="#DejaVuSans-30"/>
      </g>
     </g>
    </g>
    <g id="ytick_7">
     <g id="line2d_31">
      <g>
       <use xlink:href="#md612d8602d" x="30.49" y="372.034014" style="stroke: #000000; stroke-width: 0.8"/>
      </g>
     </g>
     <g id="text_33">
      <!-- 5 -->
      <g transform="translate(17.1275 375.833232)scale(0.1 -0.1)">
       <use xlink:href="#DejaVuSans-35"/>
      </g>
     </g>
    </g>
    <g id="ytick_8">
     <g id="line2d_32">
      <g>
       <use xlink:href="#md612d8602d" x="30.49" y="334.229025" style="stroke: #000000; stroke-width: 0.8"/>
      </g>
     </g>
     <g id="text_34">
      <!-- 10 -->
      <g transform="translate(10.765 338.028244)scale(0.1 -0.1)">
       <use xlink:href="#DejaVuSans-31"/>
       <use xlink:href="#DejaVuSans-30" x="63.623047"/>
      </g>
     </g>
    </g>
    <g id="ytick_9">
     <g id="line2d_33">
      <g>
       <use xlink:href="#md612d8602d" x="30.49" y="296.424036" style="stroke: #000000; stroke-width: 0.8"/>
      </g>
     </g>
     <g id="text_35">
      <!-- 15 -->
      <g transform="translate(10.765 300.223255)scale(0.1 -0.1)">
       <use xlink:href="#DejaVuSans-31"/>
       <use xlink:href="#DejaVuSans-35" x="63.623047"/>
      </g>
     </g>
    </g>
    <g id="ytick_10">
     <g id="line2d_34">
      <g>
       <use xlink:href="#md612d8602d" x="30.49" y="258.619048" style="stroke: #000000; stroke-width: 0.8"/>
      </g>
     </g>
     <g id="text_36">
      <!-- 20 -->
      <g transform="translate(10.765 262.418266)scale(0.1 -0.1)">
       <use xlink:href="#DejaVuSans-32"/>
       <use xlink:href="#DejaVuSans-30" x="63.623047"/>
      </g>
     </g>
    </g>
   </g>
   <g id="patch_12">
    <path d="M 30.49 417.4 
L 30.49 250.68 
" style="fill: none; stroke: #000000; stroke-width: 0.8; stroke-linejoin: miter; stroke-linecap: square"/>
   </g>
   <g id="patch_13">
    <path d="M 446.805 417.4 
L 446.805 250.68 
" style="fill: none; stroke: #000000; stroke-width: 0.8; stroke-linejoin: miter; stroke-linecap: square"/>
   </g>
   <g id="patch_14">
    <path d="M 30.49 417.4 
L 446.805 417.4 
" style="fill: none; stroke: #000000; stroke-width: 0.8; stroke-linejoin: miter; stroke-linecap: square"/>
   </g>
   <g id="patch_15">
    <path d="M 30.49 250.68 
L 446.805 250.68 
" style="fill: none; stroke: #000000; stroke-width: 0.8; stroke-linejoin: miter; stroke-linecap: square"/>
   </g>
   <g id="legend_2">
    <g id="patch_16">
     <path d="M 121.2475 289.256 
L 356.0475 289.256 
Q 358.0475 289.256 358.0475 287.256 
L 358.0475 272.456 
Q 358.0475 270.456 356.0475 270.456 
L 121.2475 270.456 
Q 119.2475 270.456 119.2475 272.456 
L 119.2475 287.256 
Q 119.2475 289.256 121.2475 289.256 
z
" style="fill: #ffffff; opacity: 0.8; stroke: #cccccc; stroke-linejoin: miter"/>
    </g>
    <g id="line2d_35">
     <path d="M 123.2475 278.656 
L 133.2475 278.656 
L 143.2475 278.656 
" style="fill: none; stroke: #ef4444; stroke-width: 1.3; stroke-linecap: square"/>
    </g>
    <g id="text_37">
     <!-- $\beta_x$ / m -->
     <g transform="translate(151.2475 282.156)scale(0.1 -0.1)">
      <use xlink:href="#DejaVuSans-Oblique-3b2" transform="translate(0 0.390625)"/>
      <use xlink:href="#DejaVuSans-Oblique-78" transform="translate(63.818359 -16.015625)scale(0.7)"/>
      <use xlink:href="#DejaVuSans-20" transform="translate(107.978516 0.390625)"/>
      <use xlink:href="#DejaVuSans-2f" transform="translate(139.765625 0.390625)"/>
      <use xlink:href="#DejaVuSans-20" transform="translate(173.457031 0.390625)"/>
      <use xlink:href="#DejaVuSans-6d" transform="translate(205.244141 0.390625)"/>
     </g>
    </g>
    <g id="line2d_36">
     <path d="M 201.5475 278.656 
L 211.5475 278.656 
L 221.5475 278.656 
" style="fill: none; stroke: #3b82f6; stroke-width: 1.3; stroke-linecap: square"/>
    </g>
    <g id="text_38">
     <!-- $\beta_y$ / m -->
     <g transform="translate(229.5475 282.156)scale(0.1 -0.1)">
      <use xlink:href="#DejaVuSans-Oblique-3b2" transform="translate(0 0.390625)"/>
      <use xlink:href="#DejaVuSans-Oblique-79" transform="translate(63.818359 -16.015625)scale(0.7)"/>
      <use xlink:href="#DejaVuSans-20" transform="translate(107.978516 0.390625)"/>
      <use xlink:href="#DejaVuSans-2f" transform="translate(139.765625 0.390625)"/>
      <use xlink:href="#DejaVuSans-20" transform="translate(173.457031 0.390625)"/>
      <use xlink:href="#DejaVuSans-6d" transform="translate(205.244141 0.390625)"/>
     </g>
    </g>
    <g id="line2d_37">
     <path d="M 279.8475 278.656 
L 289.8475 278.656 
L 299.8475 278.656 
" style="fill: none; stroke: #10b981; stroke-width: 1.3; stroke-linecap: square"/>
    </g>
    <g id="text_39">
     <!-- 10 $\eta_x$ / m -->
     <g transform="translate(307.8475 282.156)scale(0.1 -0.1)">
      <use xlink:href="#DejaVuSans-31" transform="translate(0 0.78125)"/>
      <use xlink:href="#DejaVuSans-30" transform="translate(63.623047 0.78125)"/>
      <use xlink:href="#DejaVuSans-20" transform="translate(127.246094 0.78125)"/>
      <use xlink:href="#DejaVuSans-Oblique-3b7" transform="translate(159.033203 0.78125)"/>
      <use xlink:href="#DejaVuSans-Oblique-78" transform="translate(222.412109 -15.625)scale(0.7)"/>
      <use xlink:href="#DejaVuSans-20" transform="translate(266.572266 0.78125)"/>
      <use xlink:href="#DejaVuSans-2f" transform="translate(298.359375 0.78125)"/>
      <use xlink:href="#DejaVuSans-20" transform="translate(332.050781 0.78125)"/>
      <use xlink:href="#DejaVuSans-6d" transform="translate(363.837891 0.78125)"/>
     </g>
    </g>
   </g>
   <g id="line2d_38">
    <path d="M 30.49 269.62836 
L 31.790984 269.663411 
L 33.091969 269.768547 
L 34.392953 269.943716 
L 35.693938 270.188829 
L 36.994922 270.503764 
L 38.295906 270.888364 
L 39.596891 271.342436 
L 40.897875 271.865754 
L 42.198859 272.458056 
L 43.499844 273.119045 
L 48.703781 275.899948 
L 53.907719 278.680851 
L 59.111656 281.461753 
L 64.315594 284.242656 
L 69.519531 287.023559 
L 74.723469 289.804462 
L 79.927406 292.585364 
L 85.131344 295.366267 
L 90.335281 298.14717 
L 95.539219 300.928073 
L 103.345125 304.798205 
L 111.151031 308.486149 
L 118.956937 311.990484 
L 126.762844 315.30986 
L 134.56875 318.442995 
L 142.374656 321.388683 
L 150.180562 324.145787 
L 157.986469 326.713245 
L 165.792375 329.090067 
L 173.598281 331.275337 
L 178.802219 332.566853 
L 184.006156 333.858369 
L 189.210094 335.149886 
L 194.414031 336.441402 
L 199.617969 337.732918 
L 204.821906 339.024434 
L 210.025844 340.315951 
L 215.229781 341.607467 
L 220.433719 342.898983 
L 225.637656 344.190499 
L 228.239625 344.770813 
L 230.841594 345.220969 
L 233.443562 345.541867 
L 236.045531 345.73415 
L 238.6475 345.798201 
L 241.249469 345.73415 
L 243.851437 345.541867 
L 246.453406 345.220969 
L 249.055375 344.770813 
L 251.657344 344.190499 
L 256.861281 342.898983 
L 262.065219 341.607467 
L 267.269156 340.315951 
L 272.473094 339.024434 
L 277.677031 337.732918 
L 282.880969 336.441402 
L 288.084906 335.149886 
L 293.288844 333.858369 
L 298.492781 332.566853 
L 303.696719 331.275337 
L 311.502625 329.090067 
L 319.308531 326.713245 
L 327.114437 324.145787 
L 334.920344 321.388683 
L 342.72625 318.442995 
L 350.532156 315.30986 
L 358.338062 311.990484 
L 366.143969 308.486149 
L 373.949875 304.798205 
L 381.755781 300.928073 
L 386.959719 298.14717 
L 392.163656 295.366267 
L 397.367594 292.585364 
L 402.571531 289.804462 
L 407.775469 287.023559 
L 412.979406 284.242656 
L 418.183344 281.461753 
L 423.387281 278.680851 
L 428.591219 275.899948 
L 433.795156 273.119045 
L 435.096141 272.458056 
L 436.397125 271.865754 
L 437.698109 271.342436 
L 438.999094 270.888364 
L 440.300078 270.503764 
L 441.601062 270.188829 
L 442.902047 269.943716 
L 444.203031 269.768547 
L 445.504016 269.663411 
L 446.805 269.62836 
" clip-path="url(#pd0e54b4438)" style="fill: none; stroke: #10b981; stroke-width: 1.3; stroke-linecap: square"/>
   </g>
   <g id="line2d_39">
    <path d="M 30.49 409.839002 
L 31.790984 409.839002 
L 33.091969 409.839002 
L 34.392953 409.839002 
L 35.693938 409.839002 
L 36.994922 409.839002 
L 38.295906 409.839002 
L 39.596891 409.839002 
L 40.897875 409.839002 
L 42.198859 409.839002 
L 43.499844 409.839002 
L 61.713625 409.839002 
L 79.927406 409.839002 
L 98.141188 409.839002 
L 116.354969 409.839002 
L 134.56875 409.839002 
L 152.782531 409.839002 
L 170.996313 409.839002 
L 189.210094 409.839002 
L 207.423875 409.839002 
L 225.637656 409.839002 
L 228.239625 409.839002 
L 230.841594 409.839002 
L 233.443563 409.839002 
L 236.045531 409.839002 
L 238.6475 409.839002 
L 241.249469 409.839002 
L 243.851438 409.839002 
L 246.453406 409.839002 
L 249.055375 409.839002 
L 251.657344 409.839002 
L 269.871125 409.839002 
L 288.084906 409.839002 
L 306.298687 409.839002 
L 324.512469 409.839002 
L 342.72625 409.839002 
L 360.940031 409.839002 
L 379.153812 409.839002 
L 397.367594 409.839002 
L 415.581375 409.839002 
L 433.795156 409.839002 
L 435.096141 409.839002 
L 436.397125 409.839002 
L 437.698109 409.839002 
L 438.999094 409.839002 
L 440.300078 409.839002 
L 441.601062 409.839002 
L 442.902047 409.839002 
L 444.203031 409.839002 
L 445.504016 409.839002 
L 446.805 409.839002 
" clip-path="url(#pd0e54b4438)" style="fill: none; stroke-dasharray: 11.1,4.8; stroke-dashoffset: 0; stroke: #10b981; stroke-opacity: 0.5; stroke-width: 3"/>
   </g>
   <g id="line2d_40">
    <path d="M 30.49 397.203663 
L 31.790984 397.194516 
L 33.091969 397.167056 
L 34.392953 397.12123 
L 35.693938 397.056944 
L 36.994922 396.974071 
L 38.295906 396.872445 
L 39.596891 396.751862 
L 40.897875 396.612082 
L 42.198859 396.452824 
L 43.499844 396.27377 
L 48.703781 395.464813 
L 53.907719 394.550489 
L 59.111656 393.530796 
L 64.315594 392.405734 
L 69.519531 391.175304 
L 74.723469 389.839506 
L 79.927406 388.398339 
L 85.131344 386.851804 
L 90.335281 385.1999 
L 95.539219 383.442628 
L 103.345125 380.7164 
L 111.151031 377.763397 
L 118.956937 374.583617 
L 126.762844 371.177062 
L 134.56875 367.543732 
L 142.374656 363.683625 
L 150.180562 359.596743 
L 157.986469 355.283085 
L 165.792375 350.742651 
L 173.598281 345.975442 
L 178.802219 342.840076 
L 184.006156 339.612099 
L 189.210094 336.29151 
L 194.414031 332.87831 
L 199.617969 329.372497 
L 204.821906 325.774073 
L 210.025844 322.083037 
L 215.229781 318.299389 
L 220.433719 314.42313 
L 225.637656 310.454258 
L 228.239625 308.636414 
L 230.841594 307.207239 
L 233.443562 306.178159 
L 236.045531 305.557402 
L 238.6475 305.34993 
L 241.249469 305.557402 
L 243.851437 306.178159 
L 246.453406 307.207239 
L 249.055375 308.636414 
L 251.657344 310.454258 
L 256.861281 314.42313 
L 262.065219 318.299389 
L 267.269156 322.083037 
L 272.473094 325.774073 
L 277.677031 329.372497 
L 282.880969 332.87831 
L 288.084906 336.29151 
L 293.288844 339.612099 
L 298.492781 342.840076 
L 303.696719 345.975442 
L 311.502625 350.742651 
L 319.308531 355.283085 
L 327.114437 359.596743 
L 334.920344 363.683625 
L 342.72625 367.543732 
L 350.532156 371.177062 
L 358.338062 374.583617 
L 366.143969 377.763397 
L 373.949875 380.7164 
L 381.755781 383.442628 
L 386.959719 385.1999 
L 392.163656 386.851804 
L 397.367594 388.398339 
L 402.571531 389.839506 
L 407.775469 391.175304 
L 412.979406 392.405734 
L 418.183344 393.530796 
L 423.387281 394.550489 
L 428.591219 395.464813 
L 433.795156 396.27377 
L 435.096141 396.452824 
L 436.397125 396.612082 
L 437.698109 396.751862 
L 438.999094 396.872445 
L 440.300078 396.974071 
L 441.601062 397.056944 
L 442.902047 397.12123 
L 444.203031 397.167056 
L 445.504016 397.194516 
L 446.805 397.203663 
" clip-path="url(#pd0e54b4438)" style="fill: none; stroke: #3b82f6; stroke-width: 1.3; stroke-linecap: square"/>
   </g>
   <g id="line2d_41">
    <path d="M 30.49 395.229754 
L 31.790984 395.220002 
L 33.091969 395.190727 
L 34.392953 395.141869 
L 35.693938 395.073332 
L 36.994922 394.984978 
L 38.295906 394.87663 
L 39.596891 394.748072 
L 40.897875 394.599046 
L 42.198859 394.429255 
L 43.499844 394.238359 
L 61.713625 390.839817 
L 79.927406 386.288231 
L 98.141188 380.583602 
L 116.354969 373.725929 
L 134.56875 365.715211 
L 152.782531 356.55145 
L 170.996313 346.234646 
L 189.210094 334.764797 
L 207.423875 322.141904 
L 225.637656 308.365968 
L 228.239625 306.509402 
L 230.841594 305.049785 
L 233.443563 303.998786 
L 236.045531 303.364806 
L 238.6475 303.152915 
L 241.249469 303.364806 
L 243.851438 303.998786 
L 246.453406 305.049785 
L 249.055375 306.509402 
L 251.657344 308.365968 
L 269.871125 322.141904 
L 288.084906 334.764797 
L 306.298687 346.234646 
L 324.512469 356.55145 
L 342.72625 365.715211 
L 360.940031 373.725929 
L 379.153812 380.583602 
L 397.367594 386.288231 
L 415.581375 390.839817 
L 433.795156 394.238359 
L 435.096141 394.429255 
L 436.397125 394.599046 
L 437.698109 394.748072 
L 438.999094 394.87663 
L 440.300078 394.984978 
L 441.601062 395.073332 
L 442.902047 395.141869 
L 444.203031 395.190727 
L 445.504016 395.220002 
L 446.805 395.229754 
" clip-path="url(#pd0e54b4438)" style="fill: none; stroke-dasharray: 11.1,4.8; stroke-dashoffset: 0; stroke: #3b82f6; stroke-opacity: 0.5; stroke-width: 3"/>
   </g>
   <g id="line2d_42">
    <path d="M 30.49 303.63484 
L 31.790984 303.687597 
L 33.091969 303.845762 
L 34.392953 304.109019 
L 35.693938 304.476842 
L 36.994922 304.948494 
L 38.295906 305.523034 
L 39.596891 306.199311 
L 40.897875 306.975974 
L 42.198859 307.851469 
L 43.499844 308.824047 
L 48.703781 312.859094 
L 53.907719 316.800348 
L 59.111656 320.64781 
L 64.315594 324.401478 
L 69.519531 328.061353 
L 74.723469 331.627434 
L 79.927406 335.099723 
L 85.131344 338.478219 
L 90.335281 341.762921 
L 95.539219 344.953831 
L 103.345125 349.346128 
L 111.151031 353.588422 
L 118.956937 357.674171 
L 126.762844 361.597076 
L 134.56875 365.351088 
L 142.374656 368.930419 
L 150.180562 372.329548 
L 157.986469 375.543236 
L 165.792375 378.566527 
L 173.598281 381.394759 
L 178.802219 383.094001 
L 184.006156 384.69945 
L 189.210094 386.211106 
L 194.414031 387.628969 
L 199.617969 388.953039 
L 204.821906 390.183316 
L 210.025844 391.319799 
L 215.229781 392.36249 
L 220.433719 393.311387 
L 225.637656 394.166491 
L 228.239625 394.528036 
L 230.841594 394.80628 
L 233.443562 395.003449 
L 236.045531 395.121123 
L 238.6475 395.160243 
L 241.249469 395.121123 
L 243.851437 395.003449 
L 246.453406 394.80628 
L 249.055375 394.528036 
L 251.657344 394.166491 
L 256.861281 393.311387 
L 262.065219 392.36249 
L 267.269156 391.319799 
L 272.473094 390.183316 
L 277.677031 388.953039 
L 282.880969 387.628969 
L 288.084906 386.211106 
L 293.288844 384.69945 
L 298.492781 383.094001 
L 303.696719 381.394759 
L 311.502625 378.566527 
L 319.308531 375.543236 
L 327.114437 372.329548 
L 334.920344 368.930419 
L 342.72625 365.351088 
L 350.532156 361.597076 
L 358.338062 357.674171 
L 366.143969 353.588422 
L 373.949875 349.346128 
L 381.755781 344.953831 
L 386.959719 341.762921 
L 392.163656 338.478219 
L 397.367594 335.099723 
L 402.571531 331.627434 
L 407.775469 328.061353 
L 412.979406 324.401478 
L 418.183344 320.64781 
L 423.387281 316.800348 
L 428.591219 312.859094 
L 433.795156 308.824047 
L 435.096141 307.851469 
L 436.397125 306.975974 
L 437.698109 306.199311 
L 438.999094 305.523034 
L 440.300078 304.948494 
L 441.601062 304.476842 
L 442.902047 304.109019 
L 444.203031 303.845762 
L 445.504016 303.687597 
L 446.805 303.63484 
" clip-path="url(#pd0e54b4438)" style="fill: none; stroke: #ef4444; stroke-width: 1.3; stroke-linecap: square"/>
   </g>
   <g id="patch_17">
    <path d="M 30.49 254.649524 
L 43.499844 254.649524 
L 43.499844 246.710476 
L 30.49 246.710476 
z
" style="fill: #ef4444"/>
   </g>
   <g id="patch_18">
    <path d="M 95.539219 254.649524 
L 173.598281 254.649524 
L 173.598281 246.710476 
L 95.539219 246.710476 
z
" style="fill: #fbbf24"/>
   </g>
   <g id="patch_19">
    <path d="M 225.637656 254.649524 
L 251.657344 254.649524 
L 251.657344 246.710476 
L 225.637656 246.710476 
z
" style="fill: #ef4444"/>
   </g>
   <g id="patch_20">
    <path d="M 303.696719 254.649524 
L 381.755781 254.649524 
L 381.755781 246.710476 
L 303.696719 246.710476 
z
" style="fill: #fbbf24"/>
   </g>
   <g id="patch_21">
    <path d="M 433.795156 254.649524 
L 446.805 254.649524 
L 446.805 246.710476 
L 433.795156 246.710476 
z
" style="fill: #ef4444"/>
   </g>
   <g id="line2d_43">
    <path d="M 30.49 303.152915 
L 31.790984 303.205914 
L 33.091969 303.364806 
L 34.392953 303.629273 
L 35.693938 303.998786 
L 36.994922 304.472606 
L 38.295906 305.049785 
L 39.596891 305.72917 
L 40.897875 306.509402 
L 42.198859 307.388921 
L 43.499844 308.365968 
L 61.713625 322.141904 
L 79.927406 334.764797 
L 98.141188 346.234646 
L 116.354969 356.55145 
L 134.56875 365.715211 
L 152.782531 373.725929 
L 170.996313 380.583602 
L 189.210094 386.288231 
L 207.423875 390.839817 
L 225.637656 394.238359 
L 228.239625 394.599046 
L 230.841594 394.87663 
L 233.443563 395.073332 
L 236.045531 395.190727 
L 238.6475 395.229754 
L 241.249469 395.190727 
L 243.851438 395.073332 
L 246.453406 394.87663 
L 249.055375 394.599046 
L 251.657344 394.238359 
L 269.871125 390.839817 
L 288.084906 386.288231 
L 306.298687 380.583602 
L 324.512469 373.725929 
L 342.72625 365.715211 
L 360.940031 356.55145 
L 379.153812 346.234646 
L 397.367594 334.764797 
L 415.581375 322.141904 
L 433.795156 308.365968 
L 435.096141 307.388921 
L 436.397125 306.509402 
L 437.698109 305.72917 
L 438.999094 305.049785 
L 440.300078 304.472606 
L 441.601062 303.998786 
L 442.902047 303.629273 
L 444.203031 303.364806 
L 445.504016 303.205914 
L 446.805 303.152915 
" clip-path="url(#pd0e54b4438)" style="fill: none; stroke-dasharray: 11.1,4.8; stroke-dashoffset: 0; stroke: #ef4444; stroke-opacity: 0.5; stroke-width: 3"/>
   </g>
   <g id="text_40">
    <!-- q1 -->
    <g transform="translate(31.910547 241.077202)scale(0.08 -0.08)">
     <use xlink:href="#DejaVuSans-71"/>
     <use xlink:href="#DejaVuSans-31" x="63.476562"/>
    </g>
   </g>
   <g id="text_41">
    <!-- b1 -->
    <g transform="translate(129.484375 264.697798)scale(0.08 -0.08)">
     <use xlink:href="#DejaVuSans-62"/>
     <use xlink:href="#DejaVuSans-31" x="63.476562"/>
    </g>
   </g>
   <g id="text_42">
    <!-- q2 -->
    <g transform="translate(233.563125 241.077202)scale(0.08 -0.08)">
     <use xlink:href="#DejaVuSans-71"/>
     <use xlink:href="#DejaVuSans-32" x="63.476562"/>
    </g>
   </g>
   <g id="text_43">
    <!-- b1 -->
    <g transform="translate(337.641875 264.697798)scale(0.08 -0.08)">
     <use xlink:href="#DejaVuSans-62"/>
     <use xlink:href="#DejaVuSans-31" x="63.476562"/>
    </g>
   </g>
   <g id="text_44">
    <!-- q1 -->
    <g transform="translate(435.215703 241.077202)scale(0.08 -0.08)">
     <use xlink:href="#DejaVuSans-71"/>
     <use xlink:href="#DejaVuSans-31" x="63.476562"/>
    </g>
   </g>
  </g>
 </g>
 <defs>
  <clipPath id="p827e67a2c6">
   <rect x="30.49" y="25.68" width="416.315" height="166.72"/>
  </clipPath>
  <clipPath id="pd0e54b4438">
   <rect x="30.49" y="250.68" width="416.315" height="166.72"/>
  </clipPath>
 </defs>
</svg>
