<?xml version="1.0" encoding="utf-8" standalone="no"?>
<!DOCTYPE svg PUBLIC "-//W3C//DTD SVG 1.1//EN"
  "http://www.w3.org/Graphics/SVG/1.1/DTD/svg11.dtd">
<!-- Created with matplotlib (https://matplotlib.org/) -->
<svg height="460.8pt" version="1.1" viewBox="0 0 460.8 460.8" width="460.8pt" xmlns="http://www.w3.org/2000/svg" xmlns:xlink="http://www.w3.org/1999/xlink">
 <metadata>
  <rdf:RDF xmlns:cc="http://creativecommons.org/ns#" xmlns:dc="http://purl.org/dc/elements/1.1/" xmlns:rdf="http://www.w3.org/1999/02/22-rdf-syntax-ns#">
   <cc:Work>
    <dc:type rdf:resource="http://purl.org/dc/dcmitype/StillImage"/>
    <dc:date>2020-10-02T01:55:41.534920</dc:date>
    <dc:format>image/svg+xml</dc:format>
    <dc:creator>
     <cc:Agent>
      <dc:title>Matplotlib v3.3.1, https://matplotlib.org/</dc:title>
     </cc:Agent>
    </dc:creator>
   </cc:Work>
  </rdf:RDF>
 </metadata>
 <defs>
  <style type="text/css">*{stroke-linecap:butt;stroke-linejoin:round;}</style>
 </defs>
 <g id="figure_1">
  <g id="patch_1">
   <path d="M 0 460.8 
L 460.8 460.8 
L 460.8 0 
L 0 0 
z
" style="fill:#ffffff;"/>
  </g>
  <g id="axes_1">
   <g id="patch_2">
    <path d="M 83.18 111.541863 
L 450 111.541863 
L 450 18.815294 
L 83.18 18.815294 
z
" style="fill:#ffffff;"/>
   </g>
   <g id="matplotlib.axis_1">
    <g id="xtick_1">
     <g id="line2d_1">
      <path clip-path="url(#p42e4109844)" d="M 99.853636 111.541863 
L 99.853636 18.815294 
" style="fill:none;stroke:#b0b0b0;stroke-dasharray:2.96,1.28;stroke-dashoffset:0;stroke-width:0.8;"/>
     </g>
     <g id="line2d_2">
      <defs>
       <path d="M 0 0 
L 0 3.5 
" id="m44da5ab208" style="stroke:#000000;stroke-width:0.8;"/>
      </defs>
      <g>
       <use style="stroke:#000000;stroke-width:0.8;" x="99.853636" xlink:href="#m44da5ab208" y="111.541863"/>
      </g>
     </g>
     <g id="text_1">
      <!-- 0 -->
      <g transform="translate(96.672386 126.1403)scale(0.1 -0.1)">
       <defs>
        <path d="M 31.78125 66.40625 
Q 24.171875 66.40625 20.328125 58.90625 
Q 16.5 51.421875 16.5 36.375 
Q 16.5 21.390625 20.328125 13.890625 
Q 24.171875 6.390625 31.78125 6.390625 
Q 39.453125 6.390625 43.28125 13.890625 
Q 47.125 21.390625 47.125 36.375 
Q 47.125 51.421875 43.28125 58.90625 
Q 39.453125 66.40625 31.78125 66.40625 
z
M 31.78125 74.21875 
Q 44.046875 74.21875 50.515625 64.515625 
Q 56.984375 54.828125 56.984375 36.375 
Q 56.984375 17.96875 50.515625 8.265625 
Q 44.046875 -1.421875 31.78125 -1.421875 
Q 19.53125 -1.421875 13.0625 8.265625 
Q 6.59375 17.96875 6.59375 36.375 
Q 6.59375 54.828125 13.0625 64.515625 
Q 19.53125 74.21875 31.78125 74.21875 
z
" id="DejaVuSans-48"/>
       </defs>
       <use xlink:href="#DejaVuSans-48"/>
      </g>
     </g>
    </g>
    <g id="xtick_2">
     <g id="line2d_3">
      <path clip-path="url(#p42e4109844)" d="M 183.221818 111.541863 
L 183.221818 18.815294 
" style="fill:none;stroke:#b0b0b0;stroke-dasharray:2.96,1.28;stroke-dashoffset:0;stroke-width:0.8;"/>
     </g>
     <g id="line2d_4">
      <g>
       <use style="stroke:#000000;stroke-width:0.8;" x="183.221818" xlink:href="#m44da5ab208" y="111.541863"/>
      </g>
     </g>
     <g id="text_2">
      <!-- 8 -->
      <g transform="translate(180.040568 126.1403)scale(0.1 -0.1)">
       <defs>
        <path d="M 31.78125 34.625 
Q 24.75 34.625 20.71875 30.859375 
Q 16.703125 27.09375 16.703125 20.515625 
Q 16.703125 13.921875 20.71875 10.15625 
Q 24.75 6.390625 31.78125 6.390625 
Q 38.8125 6.390625 42.859375 10.171875 
Q 46.921875 13.96875 46.921875 20.515625 
Q 46.921875 27.09375 42.890625 30.859375 
Q 38.875 34.625 31.78125 34.625 
z
M 21.921875 38.8125 
Q 15.578125 40.375 12.03125 44.71875 
Q 8.5 49.078125 8.5 55.328125 
Q 8.5 64.0625 14.71875 69.140625 
Q 20.953125 74.21875 31.78125 74.21875 
Q 42.671875 74.21875 48.875 69.140625 
Q 55.078125 64.0625 55.078125 55.328125 
Q 55.078125 49.078125 51.53125 44.71875 
Q 48 40.375 41.703125 38.8125 
Q 48.828125 37.15625 52.796875 32.3125 
Q 56.78125 27.484375 56.78125 20.515625 
Q 56.78125 9.90625 50.3125 4.234375 
Q 43.84375 -1.421875 31.78125 -1.421875 
Q 19.734375 -1.421875 13.25 4.234375 
Q 6.78125 9.90625 6.78125 20.515625 
Q 6.78125 27.484375 10.78125 32.3125 
Q 14.796875 37.15625 21.921875 38.8125 
z
M 18.3125 54.390625 
Q 18.3125 48.734375 21.84375 45.5625 
Q 25.390625 42.390625 31.78125 42.390625 
Q 38.140625 42.390625 41.71875 45.5625 
Q 45.3125 48.734375 45.3125 54.390625 
Q 45.3125 60.0625 41.71875 63.234375 
Q 38.140625 66.40625 31.78125 66.40625 
Q 25.390625 66.40625 21.84375 63.234375 
Q 18.3125 60.0625 18.3125 54.390625 
z
" id="DejaVuSans-56"/>
       </defs>
       <use xlink:href="#DejaVuSans-56"/>
      </g>
     </g>
    </g>
    <g id="xtick_3">
     <g id="line2d_5">
      <path clip-path="url(#p42e4109844)" d="M 266.59 111.541863 
L 266.59 18.815294 
" style="fill:none;stroke:#b0b0b0;stroke-dasharray:2.96,1.28;stroke-dashoffset:0;stroke-width:0.8;"/>
     </g>
     <g id="line2d_6">
      <g>
       <use style="stroke:#000000;stroke-width:0.8;" x="266.59" xlink:href="#m44da5ab208" y="111.541863"/>
      </g>
     </g>
     <g id="text_3">
      <!-- 16 -->
      <g transform="translate(260.2275 126.1403)scale(0.1 -0.1)">
       <defs>
        <path d="M 12.40625 8.296875 
L 28.515625 8.296875 
L 28.515625 63.921875 
L 10.984375 60.40625 
L 10.984375 69.390625 
L 28.421875 72.90625 
L 38.28125 72.90625 
L 38.28125 8.296875 
L 54.390625 8.296875 
L 54.390625 0 
L 12.40625 0 
z
" id="DejaVuSans-49"/>
        <path d="M 33.015625 40.375 
Q 26.375 40.375 22.484375 35.828125 
Q 18.609375 31.296875 18.609375 23.390625 
Q 18.609375 15.53125 22.484375 10.953125 
Q 26.375 6.390625 33.015625 6.390625 
Q 39.65625 6.390625 43.53125 10.953125 
Q 47.40625 15.53125 47.40625 23.390625 
Q 47.40625 31.296875 43.53125 35.828125 
Q 39.65625 40.375 33.015625 40.375 
z
M 52.59375 71.296875 
L 52.59375 62.3125 
Q 48.875 64.0625 45.09375 64.984375 
Q 41.3125 65.921875 37.59375 65.921875 
Q 27.828125 65.921875 22.671875 59.328125 
Q 17.53125 52.734375 16.796875 39.40625 
Q 19.671875 43.65625 24.015625 45.921875 
Q 28.375 48.1875 33.59375 48.1875 
Q 44.578125 48.1875 50.953125 41.515625 
Q 57.328125 34.859375 57.328125 23.390625 
Q 57.328125 12.15625 50.6875 5.359375 
Q 44.046875 -1.421875 33.015625 -1.421875 
Q 20.359375 -1.421875 13.671875 8.265625 
Q 6.984375 17.96875 6.984375 36.375 
Q 6.984375 53.65625 15.1875 63.9375 
Q 23.390625 74.21875 37.203125 74.21875 
Q 40.921875 74.21875 44.703125 73.484375 
Q 48.484375 72.75 52.59375 71.296875 
z
" id="DejaVuSans-54"/>
       </defs>
       <use xlink:href="#DejaVuSans-49"/>
       <use x="63.623047" xlink:href="#DejaVuSans-54"/>
      </g>
     </g>
    </g>
    <g id="xtick_4">
     <g id="line2d_7">
      <path clip-path="url(#p42e4109844)" d="M 349.958182 111.541863 
L 349.958182 18.815294 
" style="fill:none;stroke:#b0b0b0;stroke-dasharray:2.96,1.28;stroke-dashoffset:0;stroke-width:0.8;"/>
     </g>
     <g id="line2d_8">
      <g>
       <use style="stroke:#000000;stroke-width:0.8;" x="349.958182" xlink:href="#m44da5ab208" y="111.541863"/>
      </g>
     </g>
     <g id="text_4">
      <!-- 24 -->
      <g transform="translate(343.595682 126.1403)scale(0.1 -0.1)">
       <defs>
        <path d="M 19.1875 8.296875 
L 53.609375 8.296875 
L 53.609375 0 
L 7.328125 0 
L 7.328125 8.296875 
Q 12.9375 14.109375 22.625 23.890625 
Q 32.328125 33.6875 34.8125 36.53125 
Q 39.546875 41.84375 41.421875 45.53125 
Q 43.3125 49.21875 43.3125 52.78125 
Q 43.3125 58.59375 39.234375 62.25 
Q 35.15625 65.921875 28.609375 65.921875 
Q 23.96875 65.921875 18.8125 64.3125 
Q 13.671875 62.703125 7.8125 59.421875 
L 7.8125 69.390625 
Q 13.765625 71.78125 18.9375 73 
Q 24.125 74.21875 28.421875 74.21875 
Q 39.75 74.21875 46.484375 68.546875 
Q 53.21875 62.890625 53.21875 53.421875 
Q 53.21875 48.921875 51.53125 44.890625 
Q 49.859375 40.875 45.40625 35.40625 
Q 44.1875 33.984375 37.640625 27.21875 
Q 31.109375 20.453125 19.1875 8.296875 
z
" id="DejaVuSans-50"/>
        <path d="M 37.796875 64.3125 
L 12.890625 25.390625 
L 37.796875 25.390625 
z
M 35.203125 72.90625 
L 47.609375 72.90625 
L 47.609375 25.390625 
L 58.015625 25.390625 
L 58.015625 17.1875 
L 47.609375 17.1875 
L 47.609375 0 
L 37.796875 0 
L 37.796875 17.1875 
L 4.890625 17.1875 
L 4.890625 26.703125 
z
" id="DejaVuSans-52"/>
       </defs>
       <use xlink:href="#DejaVuSans-50"/>
       <use x="63.623047" xlink:href="#DejaVuSans-52"/>
      </g>
     </g>
    </g>
    <g id="xtick_5">
     <g id="line2d_9">
      <path clip-path="url(#p42e4109844)" d="M 433.326364 111.541863 
L 433.326364 18.815294 
" style="fill:none;stroke:#b0b0b0;stroke-dasharray:2.96,1.28;stroke-dashoffset:0;stroke-width:0.8;"/>
     </g>
     <g id="line2d_10">
      <g>
       <use style="stroke:#000000;stroke-width:0.8;" x="433.326364" xlink:href="#m44da5ab208" y="111.541863"/>
      </g>
     </g>
     <g id="text_5">
      <!-- 32 -->
      <g transform="translate(426.963864 126.1403)scale(0.1 -0.1)">
       <defs>
        <path d="M 40.578125 39.3125 
Q 47.65625 37.796875 51.625 33 
Q 55.609375 28.21875 55.609375 21.1875 
Q 55.609375 10.40625 48.1875 4.484375 
Q 40.765625 -1.421875 27.09375 -1.421875 
Q 22.515625 -1.421875 17.65625 -0.515625 
Q 12.796875 0.390625 7.625 2.203125 
L 7.625 11.71875 
Q 11.71875 9.328125 16.59375 8.109375 
Q 21.484375 6.890625 26.8125 6.890625 
Q 36.078125 6.890625 40.9375 10.546875 
Q 45.796875 14.203125 45.796875 21.1875 
Q 45.796875 27.640625 41.28125 31.265625 
Q 36.765625 34.90625 28.71875 34.90625 
L 20.21875 34.90625 
L 20.21875 43.015625 
L 29.109375 43.015625 
Q 36.375 43.015625 40.234375 45.921875 
Q 44.09375 48.828125 44.09375 54.296875 
Q 44.09375 59.90625 40.109375 62.90625 
Q 36.140625 65.921875 28.71875 65.921875 
Q 24.65625 65.921875 20.015625 65.03125 
Q 15.375 64.15625 9.8125 62.3125 
L 9.8125 71.09375 
Q 15.4375 72.65625 20.34375 73.4375 
Q 25.25 74.21875 29.59375 74.21875 
Q 40.828125 74.21875 47.359375 69.109375 
Q 53.90625 64.015625 53.90625 55.328125 
Q 53.90625 49.265625 50.4375 45.09375 
Q 46.96875 40.921875 40.578125 39.3125 
z
" id="DejaVuSans-51"/>
       </defs>
       <use xlink:href="#DejaVuSans-51"/>
       <use x="63.623047" xlink:href="#DejaVuSans-50"/>
      </g>
     </g>
    </g>
    <g id="text_6">
     <!-- Orbit position $s$ / m -->
     <g transform="translate(218.74 139.819988)scale(0.1 -0.1)">
      <defs>
       <path d="M 39.40625 66.21875 
Q 28.65625 66.21875 22.328125 58.203125 
Q 16.015625 50.203125 16.015625 36.375 
Q 16.015625 22.609375 22.328125 14.59375 
Q 28.65625 6.59375 39.40625 6.59375 
Q 50.140625 6.59375 56.421875 14.59375 
Q 62.703125 22.609375 62.703125 36.375 
Q 62.703125 50.203125 56.421875 58.203125 
Q 50.140625 66.21875 39.40625 66.21875 
z
M 39.40625 74.21875 
Q 54.734375 74.21875 63.90625 63.9375 
Q 73.09375 53.65625 73.09375 36.375 
Q 73.09375 19.140625 63.90625 8.859375 
Q 54.734375 -1.421875 39.40625 -1.421875 
Q 24.03125 -1.421875 14.8125 8.828125 
Q 5.609375 19.09375 5.609375 36.375 
Q 5.609375 53.65625 14.8125 63.9375 
Q 24.03125 74.21875 39.40625 74.21875 
z
" id="DejaVuSans-79"/>
       <path d="M 41.109375 46.296875 
Q 39.59375 47.171875 37.8125 47.578125 
Q 36.03125 48 33.890625 48 
Q 26.265625 48 22.1875 43.046875 
Q 18.109375 38.09375 18.109375 28.8125 
L 18.109375 0 
L 9.078125 0 
L 9.078125 54.6875 
L 18.109375 54.6875 
L 18.109375 46.1875 
Q 20.953125 51.171875 25.484375 53.578125 
Q 30.03125 56 36.53125 56 
Q 37.453125 56 38.578125 55.875 
Q 39.703125 55.765625 41.0625 55.515625 
z
" id="DejaVuSans-114"/>
       <path d="M 48.6875 27.296875 
Q 48.6875 37.203125 44.609375 42.84375 
Q 40.53125 48.484375 33.40625 48.484375 
Q 26.265625 48.484375 22.1875 42.84375 
Q 18.109375 37.203125 18.109375 27.296875 
Q 18.109375 17.390625 22.1875 11.75 
Q 26.265625 6.109375 33.40625 6.109375 
Q 40.53125 6.109375 44.609375 11.75 
Q 48.6875 17.390625 48.6875 27.296875 
z
M 18.109375 46.390625 
Q 20.953125 51.265625 25.265625 53.625 
Q 29.59375 56 35.59375 56 
Q 45.5625 56 51.78125 48.09375 
Q 58.015625 40.1875 58.015625 27.296875 
Q 58.015625 14.40625 51.78125 6.484375 
Q 45.5625 -1.421875 35.59375 -1.421875 
Q 29.59375 -1.421875 25.265625 0.953125 
Q 20.953125 3.328125 18.109375 8.203125 
L 18.109375 0 
L 9.078125 0 
L 9.078125 75.984375 
L 18.109375 75.984375 
z
" id="DejaVuSans-98"/>
       <path d="M 9.421875 54.6875 
L 18.40625 54.6875 
L 18.40625 0 
L 9.421875 0 
z
M 9.421875 75.984375 
L 18.40625 75.984375 
L 18.40625 64.59375 
L 9.421875 64.59375 
z
" id="DejaVuSans-105"/>
       <path d="M 18.3125 70.21875 
L 18.3125 54.6875 
L 36.8125 54.6875 
L 36.8125 47.703125 
L 18.3125 47.703125 
L 18.3125 18.015625 
Q 18.3125 11.328125 20.140625 9.421875 
Q 21.96875 7.515625 27.59375 7.515625 
L 36.8125 7.515625 
L 36.8125 0 
L 27.59375 0 
Q 17.1875 0 13.234375 3.875 
Q 9.28125 7.765625 9.28125 18.015625 
L 9.28125 47.703125 
L 2.6875 47.703125 
L 2.6875 54.6875 
L 9.28125 54.6875 
L 9.28125 70.21875 
z
" id="DejaVuSans-116"/>
       <path id="DejaVuSans-32"/>
       <path d="M 18.109375 8.203125 
L 18.109375 -20.796875 
L 9.078125 -20.796875 
L 9.078125 54.6875 
L 18.109375 54.6875 
L 18.109375 46.390625 
Q 20.953125 51.265625 25.265625 53.625 
Q 29.59375 56 35.59375 56 
Q 45.5625 56 51.78125 48.09375 
Q 58.015625 40.1875 58.015625 27.296875 
Q 58.015625 14.40625 51.78125 6.484375 
Q 45.5625 -1.421875 35.59375 -1.421875 
Q 29.59375 -1.421875 25.265625 0.953125 
Q 20.953125 3.328125 18.109375 8.203125 
z
M 48.6875 27.296875 
Q 48.6875 37.203125 44.609375 42.84375 
Q 40.53125 48.484375 33.40625 48.484375 
Q 26.265625 48.484375 22.1875 42.84375 
Q 18.109375 37.203125 18.109375 27.296875 
Q 18.109375 17.390625 22.1875 11.75 
Q 26.265625 6.109375 33.40625 6.109375 
Q 40.53125 6.109375 44.609375 11.75 
Q 48.6875 17.390625 48.6875 27.296875 
z
" id="DejaVuSans-112"/>
       <path d="M 30.609375 48.390625 
Q 23.390625 48.390625 19.1875 42.75 
Q 14.984375 37.109375 14.984375 27.296875 
Q 14.984375 17.484375 19.15625 11.84375 
Q 23.34375 6.203125 30.609375 6.203125 
Q 37.796875 6.203125 41.984375 11.859375 
Q 46.1875 17.53125 46.1875 27.296875 
Q 46.1875 37.015625 41.984375 42.703125 
Q 37.796875 48.390625 30.609375 48.390625 
z
M 30.609375 56 
Q 42.328125 56 49.015625 48.375 
Q 55.71875 40.765625 55.71875 27.296875 
Q 55.71875 13.875 49.015625 6.21875 
Q 42.328125 -1.421875 30.609375 -1.421875 
Q 18.84375 -1.421875 12.171875 6.21875 
Q 5.515625 13.875 5.515625 27.296875 
Q 5.515625 40.765625 12.171875 48.375 
Q 18.84375 56 30.609375 56 
z
" id="DejaVuSans-111"/>
       <path d="M 44.28125 53.078125 
L 44.28125 44.578125 
Q 40.484375 46.53125 36.375 47.5 
Q 32.28125 48.484375 27.875 48.484375 
Q 21.1875 48.484375 17.84375 46.4375 
Q 14.5 44.390625 14.5 40.28125 
Q 14.5 37.15625 16.890625 35.375 
Q 19.28125 33.59375 26.515625 31.984375 
L 29.59375 31.296875 
Q 39.15625 29.25 43.1875 25.515625 
Q 47.21875 21.78125 47.21875 15.09375 
Q 47.21875 7.46875 41.1875 3.015625 
Q 35.15625 -1.421875 24.609375 -1.421875 
Q 20.21875 -1.421875 15.453125 -0.5625 
Q 10.6875 0.296875 5.421875 2 
L 5.421875 11.28125 
Q 10.40625 8.6875 15.234375 7.390625 
Q 20.0625 6.109375 24.8125 6.109375 
Q 31.15625 6.109375 34.5625 8.28125 
Q 37.984375 10.453125 37.984375 14.40625 
Q 37.984375 18.0625 35.515625 20.015625 
Q 33.0625 21.96875 24.703125 23.78125 
L 21.578125 24.515625 
Q 13.234375 26.265625 9.515625 29.90625 
Q 5.8125 33.546875 5.8125 39.890625 
Q 5.8125 47.609375 11.28125 51.796875 
Q 16.75 56 26.8125 56 
Q 31.78125 56 36.171875 55.265625 
Q 40.578125 54.546875 44.28125 53.078125 
z
" id="DejaVuSans-115"/>
       <path d="M 54.890625 33.015625 
L 54.890625 0 
L 45.90625 0 
L 45.90625 32.71875 
Q 45.90625 40.484375 42.875 44.328125 
Q 39.84375 48.1875 33.796875 48.1875 
Q 26.515625 48.1875 22.3125 43.546875 
Q 18.109375 38.921875 18.109375 30.90625 
L 18.109375 0 
L 9.078125 0 
L 9.078125 54.6875 
L 18.109375 54.6875 
L 18.109375 46.1875 
Q 21.34375 51.125 25.703125 53.5625 
Q 30.078125 56 35.796875 56 
Q 45.21875 56 50.046875 50.171875 
Q 54.890625 44.34375 54.890625 33.015625 
z
" id="DejaVuSans-110"/>
       <path d="M 50 53.078125 
L 48.296875 44.578125 
Q 44.734375 46.53125 40.765625 47.5 
Q 36.8125 48.484375 32.625 48.484375 
Q 25.53125 48.484375 21.453125 46.0625 
Q 17.390625 43.65625 17.390625 39.5 
Q 17.390625 34.671875 26.859375 32.078125 
Q 27.59375 31.890625 27.9375 31.78125 
L 30.8125 30.90625 
Q 39.796875 28.421875 42.796875 25.6875 
Q 45.796875 22.953125 45.796875 18.21875 
Q 45.796875 9.515625 38.890625 4.046875 
Q 31.984375 -1.421875 20.796875 -1.421875 
Q 16.453125 -1.421875 11.671875 -0.578125 
Q 6.890625 0.25 1.125 2 
L 2.875 11.28125 
Q 7.8125 8.734375 12.59375 7.421875 
Q 17.390625 6.109375 21.78125 6.109375 
Q 28.375 6.109375 32.5 8.9375 
Q 36.625 11.765625 36.625 16.109375 
Q 36.625 20.796875 25.78125 23.6875 
L 24.859375 23.921875 
L 21.78125 24.703125 
Q 14.9375 26.515625 11.765625 29.46875 
Q 8.59375 32.421875 8.59375 37.015625 
Q 8.59375 45.75 15.15625 50.875 
Q 21.734375 56 33.015625 56 
Q 37.453125 56 41.671875 55.265625 
Q 45.90625 54.546875 50 53.078125 
z
" id="DejaVuSans-Oblique-115"/>
       <path d="M 25.390625 72.90625 
L 33.6875 72.90625 
L 8.296875 -9.28125 
L 0 -9.28125 
z
" id="DejaVuSans-47"/>
       <path d="M 52 44.1875 
Q 55.375 50.25 60.0625 53.125 
Q 64.75 56 71.09375 56 
Q 79.640625 56 84.28125 50.015625 
Q 88.921875 44.046875 88.921875 33.015625 
L 88.921875 0 
L 79.890625 0 
L 79.890625 32.71875 
Q 79.890625 40.578125 77.09375 44.375 
Q 74.3125 48.1875 68.609375 48.1875 
Q 61.625 48.1875 57.5625 43.546875 
Q 53.515625 38.921875 53.515625 30.90625 
L 53.515625 0 
L 44.484375 0 
L 44.484375 32.71875 
Q 44.484375 40.625 41.703125 44.40625 
Q 38.921875 48.1875 33.109375 48.1875 
Q 26.21875 48.1875 22.15625 43.53125 
Q 18.109375 38.875 18.109375 30.90625 
L 18.109375 0 
L 9.078125 0 
L 9.078125 54.6875 
L 18.109375 54.6875 
L 18.109375 46.1875 
Q 21.1875 51.21875 25.484375 53.609375 
Q 29.78125 56 35.6875 56 
Q 41.65625 56 45.828125 52.96875 
Q 50 49.953125 52 44.1875 
z
" id="DejaVuSans-109"/>
      </defs>
      <use transform="translate(0 0.015625)" xlink:href="#DejaVuSans-79"/>
      <use transform="translate(78.710938 0.015625)" xlink:href="#DejaVuSans-114"/>
      <use transform="translate(119.824219 0.015625)" xlink:href="#DejaVuSans-98"/>
      <use transform="translate(183.300781 0.015625)" xlink:href="#DejaVuSans-105"/>
      <use transform="translate(211.083984 0.015625)" xlink:href="#DejaVuSans-116"/>
      <use transform="translate(250.292969 0.015625)" xlink:href="#DejaVuSans-32"/>
      <use transform="translate(282.080078 0.015625)" xlink:href="#DejaVuSans-112"/>
      <use transform="translate(345.556641 0.015625)" xlink:href="#DejaVuSans-111"/>
      <use transform="translate(406.738281 0.015625)" xlink:href="#DejaVuSans-115"/>
      <use transform="translate(458.837891 0.015625)" xlink:href="#DejaVuSans-105"/>
      <use transform="translate(486.621094 0.015625)" xlink:href="#DejaVuSans-116"/>
      <use transform="translate(525.830078 0.015625)" xlink:href="#DejaVuSans-105"/>
      <use transform="translate(553.613281 0.015625)" xlink:href="#DejaVuSans-111"/>
      <use transform="translate(614.794922 0.015625)" xlink:href="#DejaVuSans-110"/>
      <use transform="translate(678.173828 0.015625)" xlink:href="#DejaVuSans-32"/>
      <use transform="translate(709.960938 0.015625)" xlink:href="#DejaVuSans-Oblique-115"/>
      <use transform="translate(762.060547 0.015625)" xlink:href="#DejaVuSans-32"/>
      <use transform="translate(793.847656 0.015625)" xlink:href="#DejaVuSans-47"/>
      <use transform="translate(827.539062 0.015625)" xlink:href="#DejaVuSans-32"/>
      <use transform="translate(859.326172 0.015625)" xlink:href="#DejaVuSans-109"/>
     </g>
    </g>
   </g>
   <g id="matplotlib.axis_2">
    <g id="ytick_1">
     <g id="line2d_11">
      <path clip-path="url(#p42e4109844)" d="M 83.18 107.327019 
L 450 107.327019 
" style="fill:none;stroke:#b0b0b0;stroke-dasharray:2.96,1.28;stroke-dashoffset:0;stroke-width:0.8;"/>
     </g>
     <g id="line2d_12">
      <defs>
       <path d="M 0 0 
L -3.5 0 
" id="m52f151ff5f" style="stroke:#000000;stroke-width:0.8;"/>
      </defs>
      <g>
       <use style="stroke:#000000;stroke-width:0.8;" x="83.18" xlink:href="#m52f151ff5f" y="107.327019"/>
      </g>
     </g>
     <g id="text_7">
      <!-- −0.0001 -->
      <g transform="translate(32.809688 111.126237)scale(0.1 -0.1)">
       <defs>
        <path d="M 10.59375 35.5 
L 73.1875 35.5 
L 73.1875 27.203125 
L 10.59375 27.203125 
z
" id="DejaVuSans-8722"/>
        <path d="M 10.6875 12.40625 
L 21 12.40625 
L 21 0 
L 10.6875 0 
z
" id="DejaVuSans-46"/>
       </defs>
       <use xlink:href="#DejaVuSans-8722"/>
       <use x="83.789062" xlink:href="#DejaVuSans-48"/>
       <use x="147.412109" xlink:href="#DejaVuSans-46"/>
       <use x="179.199219" xlink:href="#DejaVuSans-48"/>
       <use x="242.822266" xlink:href="#DejaVuSans-48"/>
       <use x="306.445312" xlink:href="#DejaVuSans-48"/>
       <use x="370.068359" xlink:href="#DejaVuSans-49"/>
      </g>
     </g>
    </g>
    <g id="ytick_2">
     <g id="line2d_13">
      <path clip-path="url(#p42e4109844)" d="M 83.18 65.178578 
L 450 65.178578 
" style="fill:none;stroke:#b0b0b0;stroke-dasharray:2.96,1.28;stroke-dashoffset:0;stroke-width:0.8;"/>
     </g>
     <g id="line2d_14">
      <g>
       <use style="stroke:#000000;stroke-width:0.8;" x="83.18" xlink:href="#m52f151ff5f" y="65.178578"/>
      </g>
     </g>
     <g id="text_8">
      <!-- 0.0000 -->
      <g transform="translate(41.189375 68.977797)scale(0.1 -0.1)">
       <use xlink:href="#DejaVuSans-48"/>
       <use x="63.623047" xlink:href="#DejaVuSans-46"/>
       <use x="95.410156" xlink:href="#DejaVuSans-48"/>
       <use x="159.033203" xlink:href="#DejaVuSans-48"/>
       <use x="222.65625" xlink:href="#DejaVuSans-48"/>
       <use x="286.279297" xlink:href="#DejaVuSans-48"/>
      </g>
     </g>
    </g>
    <g id="ytick_3">
     <g id="line2d_15">
      <path clip-path="url(#p42e4109844)" d="M 83.18 23.030138 
L 450 23.030138 
" style="fill:none;stroke:#b0b0b0;stroke-dasharray:2.96,1.28;stroke-dashoffset:0;stroke-width:0.8;"/>
     </g>
     <g id="line2d_16">
      <g>
       <use style="stroke:#000000;stroke-width:0.8;" x="83.18" xlink:href="#m52f151ff5f" y="23.030138"/>
      </g>
     </g>
     <g id="text_9">
      <!-- 0.0001 -->
      <g transform="translate(41.189375 26.829357)scale(0.1 -0.1)">
       <use xlink:href="#DejaVuSans-48"/>
       <use x="63.623047" xlink:href="#DejaVuSans-46"/>
       <use x="95.410156" xlink:href="#DejaVuSans-48"/>
       <use x="159.033203" xlink:href="#DejaVuSans-48"/>
       <use x="222.65625" xlink:href="#DejaVuSans-48"/>
       <use x="286.279297" xlink:href="#DejaVuSans-49"/>
      </g>
     </g>
    </g>
    <g id="text_10">
     <!-- $x(s)$ / m -->
     <g transform="translate(26.73 84.378578)rotate(-90)scale(0.1 -0.1)">
      <defs>
       <path d="M 60.015625 54.6875 
L 34.90625 27.875 
L 50.296875 0 
L 39.984375 0 
L 28.421875 21.6875 
L 8.296875 0 
L -2.59375 0 
L 24.3125 28.8125 
L 10.015625 54.6875 
L 20.3125 54.6875 
L 30.8125 34.90625 
L 49.125 54.6875 
z
" id="DejaVuSans-Oblique-120"/>
       <path d="M 31 75.875 
Q 24.46875 64.65625 21.28125 53.65625 
Q 18.109375 42.671875 18.109375 31.390625 
Q 18.109375 20.125 21.3125 9.0625 
Q 24.515625 -2 31 -13.1875 
L 23.1875 -13.1875 
Q 15.875 -1.703125 12.234375 9.375 
Q 8.59375 20.453125 8.59375 31.390625 
Q 8.59375 42.28125 12.203125 53.3125 
Q 15.828125 64.359375 23.1875 75.875 
z
" id="DejaVuSans-40"/>
       <path d="M 8.015625 75.875 
L 15.828125 75.875 
Q 23.140625 64.359375 26.78125 53.3125 
Q 30.421875 42.28125 30.421875 31.390625 
Q 30.421875 20.453125 26.78125 9.375 
Q 23.140625 -1.703125 15.828125 -13.1875 
L 8.015625 -13.1875 
Q 14.5 -2 17.703125 9.0625 
Q 20.90625 20.125 20.90625 31.390625 
Q 20.90625 42.671875 17.703125 53.65625 
Q 14.5 64.65625 8.015625 75.875 
z
" id="DejaVuSans-41"/>
      </defs>
      <use transform="translate(0 0.125)" xlink:href="#DejaVuSans-Oblique-120"/>
      <use transform="translate(59.179688 0.125)" xlink:href="#DejaVuSans-40"/>
      <use transform="translate(98.193359 0.125)" xlink:href="#DejaVuSans-Oblique-115"/>
      <use transform="translate(150.292969 0.125)" xlink:href="#DejaVuSans-41"/>
      <use transform="translate(189.306641 0.125)" xlink:href="#DejaVuSans-32"/>
      <use transform="translate(221.09375 0.125)" xlink:href="#DejaVuSans-47"/>
      <use transform="translate(254.785156 0.125)" xlink:href="#DejaVuSans-32"/>
      <use transform="translate(286.572266 0.125)" xlink:href="#DejaVuSans-109"/>
     </g>
    </g>
   </g>
   <g id="line2d_17">
    <path clip-path="url(#p42e4109844)" d="M 99.853636 23.030138 
L 100.635213 23.124335 
L 101.41679 23.406495 
L 102.458892 24.072734 
L 112.879915 32.234037 
L 125.385142 41.227173 
L 129.553551 44.027523 
L 133.72196 46.487343 
L 136.848267 48.080861 
L 139.453523 49.175187 
L 140.495625 49.425602 
L 141.537727 49.509069 
L 142.57983 49.425602 
L 143.621932 49.175187 
L 145.185085 48.551504 
L 148.311392 47.046197 
L 151.437699 45.298263 
L 154.564006 43.365953 
L 160.816619 39.01977 
L 171.237642 31.433689 
L 181.91919 23.291619 
L 182.700767 23.072012 
L 183.482344 23.040608 
L 184.26392 23.19755 
L 185.045497 23.542119 
L 185.827074 24.072734 
L 196.248097 32.234037 
L 208.753324 41.227173 
L 212.921733 44.027523 
L 217.090142 46.487343 
L 220.216449 48.080861 
L 222.821705 49.175187 
L 223.863807 49.425602 
L 224.905909 49.509069 
L 225.948011 49.425602 
L 226.990114 49.175187 
L 228.553267 48.551504 
L 231.679574 47.046197 
L 234.805881 45.298263 
L 237.932187 43.365953 
L 244.184801 39.01977 
L 254.605824 31.433689 
L 265.287372 23.291619 
L 266.068949 23.072012 
L 266.850526 23.040608 
L 267.632102 23.19755 
L 268.413679 23.542119 
L 269.195256 24.072734 
L 279.616278 32.234037 
L 292.121506 41.227173 
L 296.289915 44.027523 
L 300.458324 46.487343 
L 303.584631 48.080861 
L 306.189886 49.175187 
L 307.231989 49.425602 
L 308.274091 49.509069 
L 309.316193 49.425602 
L 310.358295 49.175187 
L 311.921449 48.551504 
L 315.047756 47.046197 
L 318.174063 45.298263 
L 321.300369 43.365953 
L 327.552983 39.01977 
L 337.974006 31.433689 
L 348.655554 23.291619 
L 349.437131 23.072012 
L 350.218707 23.040608 
L 351.000284 23.19755 
L 351.781861 23.542119 
L 352.563437 24.072734 
L 362.98446 32.234037 
L 375.489687 41.227173 
L 379.658097 44.027523 
L 383.826506 46.487343 
L 386.952812 48.080861 
L 389.558068 49.175187 
L 390.60017 49.425602 
L 391.642273 49.509069 
L 392.684375 49.425602 
L 393.726477 49.175187 
L 395.289631 48.551504 
L 398.415938 47.046197 
L 401.542244 45.298263 
L 404.668551 43.365953 
L 410.921165 39.01977 
L 421.342188 31.433689 
L 432.023736 23.291619 
L 432.805313 23.072012 
L 433.326364 23.030138 
L 433.326364 23.030138 
" style="fill:none;stroke:#000000;stroke-dasharray:5.55,2.4;stroke-dashoffset:0;stroke-width:1.5;"/>
   </g>
   <g id="line2d_18">
    <path clip-path="url(#p42e4109844)" d="M 99.853636 107.327019 
L 100.635213 107.232822 
L 101.41679 106.950662 
L 102.458892 106.284423 
L 112.879915 98.12312 
L 125.385142 89.129983 
L 129.553551 86.329634 
L 133.72196 83.869813 
L 136.848267 82.276296 
L 139.453523 81.18197 
L 140.495625 80.931554 
L 141.537727 80.848088 
L 142.57983 80.931554 
L 143.621932 81.18197 
L 145.185085 81.805653 
L 148.311392 83.31096 
L 151.437699 85.058894 
L 154.564006 86.991204 
L 160.816619 91.337387 
L 171.237642 98.923468 
L 181.91919 107.065538 
L 182.700767 107.285144 
L 183.482344 107.316549 
L 184.26392 107.159607 
L 185.045497 106.815038 
L 185.827074 106.284423 
L 196.248097 98.12312 
L 208.753324 89.129983 
L 212.921733 86.329634 
L 217.090142 83.869813 
L 220.216449 82.276296 
L 222.821705 81.18197 
L 223.863807 80.931554 
L 224.905909 80.848088 
L 225.948011 80.931554 
L 226.990114 81.18197 
L 228.553267 81.805653 
L 231.679574 83.31096 
L 234.805881 85.058894 
L 237.932187 86.991204 
L 244.184801 91.337387 
L 254.605824 98.923468 
L 265.287372 107.065538 
L 266.068949 107.285144 
L 266.850526 107.316549 
L 267.632102 107.159607 
L 268.413679 106.815038 
L 269.195256 106.284423 
L 279.616278 98.12312 
L 292.121506 89.129983 
L 296.289915 86.329634 
L 300.458324 83.869813 
L 303.584631 82.276296 
L 306.189886 81.18197 
L 307.231989 80.931554 
L 308.274091 80.848088 
L 309.316193 80.931554 
L 310.358295 81.18197 
L 311.921449 81.805653 
L 315.047756 83.31096 
L 318.174063 85.058894 
L 321.300369 86.991204 
L 327.552983 91.337387 
L 337.974006 98.923468 
L 348.655554 107.065538 
L 349.437131 107.285144 
L 350.218707 107.316549 
L 351.000284 107.159607 
L 351.781861 106.815038 
L 352.563437 106.284423 
L 362.98446 98.12312 
L 375.489687 89.129983 
L 379.658097 86.329634 
L 383.826506 83.869813 
L 386.952812 82.276296 
L 389.558068 81.18197 
L 390.60017 80.931554 
L 391.642273 80.848088 
L 392.684375 80.931554 
L 393.726477 81.18197 
L 395.289631 81.805653 
L 398.415938 83.31096 
L 401.542244 85.058894 
L 404.668551 86.991204 
L 410.921165 91.337387 
L 421.342188 98.923468 
L 432.023736 107.065538 
L 432.805313 107.285144 
L 433.326364 107.327019 
L 433.326364 107.327019 
" style="fill:none;stroke:#000000;stroke-dasharray:5.55,2.4;stroke-dashoffset:0;stroke-width:1.5;"/>
   </g>
   <g id="line2d_19">
    <path clip-path="url(#p42e4109844)" d="M 99.853636 23.030138 
L 100.635213 23.124937 
L 101.41679 23.408905 
L 102.458892 24.079466 
L 117.569375 36.065685 
L 125.385142 42.328065 
L 136.848267 51.585782 
L 140.495625 54.407964 
L 142.57983 55.642686 
L 144.142983 56.366152 
L 182.440241 71.978609 
L 184.524446 72.541272 
L 186.869176 72.923352 
L 223.863807 78.31124 
L 225.42696 78.887328 
L 226.990114 79.710544 
L 231.679574 82.81434 
L 264.505795 104.538337 
L 265.547898 104.916448 
L 266.329474 104.991617 
L 267.111051 104.887694 
L 267.892628 104.605147 
L 268.93473 103.95287 
L 272.321562 101.084041 
L 285.868892 89.713534 
L 297.332017 79.912722 
L 307.75304 71.169082 
L 310.358295 69.361081 
L 327.552983 58.466732 
L 348.395028 45.426431 
L 349.697656 44.921434 
L 351.000284 44.669388 
L 352.302912 44.67344 
L 357.773949 45.439341 
L 390.079119 49.916681 
L 391.642273 49.815986 
L 393.205426 49.438349 
L 394.247528 49.029581 
L 431.502685 32.24702 
L 432.544787 32.103071 
L 433.326364 32.168656 
L 433.326364 32.168656 
" style="fill:none;stroke:#1f77b4;stroke-linecap:square;stroke-width:1.5;"/>
   </g>
   <g id="patch_3">
    <path d="M 83.18 111.541863 
L 83.18 18.815294 
" style="fill:none;stroke:#000000;stroke-linecap:square;stroke-linejoin:miter;stroke-width:0.8;"/>
   </g>
   <g id="patch_4">
    <path d="M 450 111.541863 
L 450 18.815294 
" style="fill:none;stroke:#000000;stroke-linecap:square;stroke-linejoin:miter;stroke-width:0.8;"/>
   </g>
   <g id="patch_5">
    <path d="M 83.18 111.541863 
L 450 111.541863 
" style="fill:none;stroke:#000000;stroke-linecap:square;stroke-linejoin:miter;stroke-width:0.8;"/>
   </g>
   <g id="patch_6">
    <path d="M 83.18 18.815294 
L 450 18.815294 
" style="fill:none;stroke:#000000;stroke-linecap:square;stroke-linejoin:miter;stroke-width:0.8;"/>
   </g>
   <g id="patch_7">
    <path d="M 99.853636 20.264147 
L 102.458892 20.264147 
L 102.458892 17.366441 
L 99.853636 17.366441 
z
" style="fill:#dc143c;"/>
   </g>
   <g id="patch_8">
    <path d="M 112.879915 20.264147 
L 128.511449 20.264147 
L 128.511449 17.366441 
L 112.879915 17.366441 
z
" style="fill:#ffd700;"/>
   </g>
   <g id="patch_9">
    <path d="M 138.932472 20.264147 
L 144.142983 20.264147 
L 144.142983 17.366441 
L 138.932472 17.366441 
z
" style="fill:#dc143c;"/>
   </g>
   <g id="patch_10">
    <path d="M 154.564006 20.264147 
L 170.19554 20.264147 
L 170.19554 17.366441 
L 154.564006 17.366441 
z
" style="fill:#ffd700;"/>
   </g>
   <g id="patch_11">
    <path d="M 180.616562 20.264147 
L 185.827074 20.264147 
L 185.827074 17.366441 
L 180.616562 17.366441 
z
" style="fill:#dc143c;"/>
   </g>
   <g id="patch_12">
    <path d="M 196.248097 20.264147 
L 211.879631 20.264147 
L 211.879631 17.366441 
L 196.248097 17.366441 
z
" style="fill:#ffd700;"/>
   </g>
   <g id="patch_13">
    <path d="M 222.300653 20.264147 
L 227.511165 20.264147 
L 227.511165 17.366441 
L 222.300653 17.366441 
z
" style="fill:#dc143c;"/>
   </g>
   <g id="patch_14">
    <path d="M 237.932187 20.264147 
L 253.563722 20.264147 
L 253.563722 17.366441 
L 237.932187 17.366441 
z
" style="fill:#ffd700;"/>
   </g>
   <g id="patch_15">
    <path d="M 263.984744 20.264147 
L 269.195256 20.264147 
L 269.195256 17.366441 
L 263.984744 17.366441 
z
" style="fill:#dc143c;"/>
   </g>
   <g id="patch_16">
    <path d="M 279.616278 20.264147 
L 295.247812 20.264147 
L 295.247812 17.366441 
L 279.616278 17.366441 
z
" style="fill:#ffd700;"/>
   </g>
   <g id="patch_17">
    <path d="M 305.668835 20.264147 
L 310.879347 20.264147 
L 310.879347 17.366441 
L 305.668835 17.366441 
z
" style="fill:#dc143c;"/>
   </g>
   <g id="patch_18">
    <path d="M 321.300369 20.264147 
L 336.931903 20.264147 
L 336.931903 17.366441 
L 321.300369 17.366441 
z
" style="fill:#ffd700;"/>
   </g>
   <g id="patch_19">
    <path d="M 347.352926 20.264147 
L 352.563437 20.264147 
L 352.563437 17.366441 
L 347.352926 17.366441 
z
" style="fill:#dc143c;"/>
   </g>
   <g id="patch_20">
    <path d="M 362.98446 20.264147 
L 378.615994 20.264147 
L 378.615994 17.366441 
L 362.98446 17.366441 
z
" style="fill:#ffd700;"/>
   </g>
   <g id="patch_21">
    <path d="M 389.037017 20.264147 
L 394.247528 20.264147 
L 394.247528 17.366441 
L 389.037017 17.366441 
z
" style="fill:#dc143c;"/>
   </g>
   <g id="patch_22">
    <path d="M 404.668551 20.264147 
L 420.300085 20.264147 
L 420.300085 17.366441 
L 404.668551 17.366441 
z
" style="fill:#ffd700;"/>
   </g>
   <g id="patch_23">
    <path d="M 430.721108 20.264147 
L 433.326364 20.264147 
L 433.326364 17.366441 
L 430.721108 17.366441 
z
" style="fill:#dc143c;"/>
   </g>
   <g id="text_11">
    <!-- q1 -->
    <g transform="translate(96.071889 16.427118)scale(0.08 -0.08)">
     <defs>
      <path d="M 14.796875 27.296875 
Q 14.796875 17.390625 18.875 11.75 
Q 22.953125 6.109375 30.078125 6.109375 
Q 37.203125 6.109375 41.296875 11.75 
Q 45.40625 17.390625 45.40625 27.296875 
Q 45.40625 37.203125 41.296875 42.84375 
Q 37.203125 48.484375 30.078125 48.484375 
Q 22.953125 48.484375 18.875 42.84375 
Q 14.796875 37.203125 14.796875 27.296875 
z
M 45.40625 8.203125 
Q 42.578125 3.328125 38.25 0.953125 
Q 33.9375 -1.421875 27.875 -1.421875 
Q 17.96875 -1.421875 11.734375 6.484375 
Q 5.515625 14.40625 5.515625 27.296875 
Q 5.515625 40.1875 11.734375 48.09375 
Q 17.96875 56 27.875 56 
Q 33.9375 56 38.25 53.625 
Q 42.578125 51.265625 45.40625 46.390625 
L 45.40625 54.6875 
L 54.390625 54.6875 
L 54.390625 -20.796875 
L 45.40625 -20.796875 
z
" id="DejaVuSans-113"/>
     </defs>
     <use xlink:href="#DejaVuSans-113"/>
     <use x="63.476562" xlink:href="#DejaVuSans-49"/>
    </g>
   </g>
   <g id="text_12">
    <!-- b1 -->
    <g transform="translate(115.611307 28.516176)scale(0.08 -0.08)">
     <use xlink:href="#DejaVuSans-98"/>
     <use x="63.476562" xlink:href="#DejaVuSans-49"/>
    </g>
   </g>
   <g id="text_13">
    <!-- q2 -->
    <g transform="translate(136.453352 16.427118)scale(0.08 -0.08)">
     <use xlink:href="#DejaVuSans-113"/>
     <use x="63.476562" xlink:href="#DejaVuSans-50"/>
    </g>
   </g>
   <g id="text_14">
    <!-- b1 -->
    <g transform="translate(157.295398 28.516176)scale(0.08 -0.08)">
     <use xlink:href="#DejaVuSans-98"/>
     <use x="63.476562" xlink:href="#DejaVuSans-49"/>
    </g>
   </g>
   <g id="text_15">
    <!-- q1 -->
    <g transform="translate(178.137443 16.427118)scale(0.08 -0.08)">
     <use xlink:href="#DejaVuSans-113"/>
     <use x="63.476562" xlink:href="#DejaVuSans-49"/>
    </g>
   </g>
   <g id="text_16">
    <!-- b1 -->
    <g transform="translate(198.979489 28.516176)scale(0.08 -0.08)">
     <use xlink:href="#DejaVuSans-98"/>
     <use x="63.476562" xlink:href="#DejaVuSans-49"/>
    </g>
   </g>
   <g id="text_17">
    <!-- q2 -->
    <g transform="translate(219.821534 16.427118)scale(0.08 -0.08)">
     <use xlink:href="#DejaVuSans-113"/>
     <use x="63.476562" xlink:href="#DejaVuSans-50"/>
    </g>
   </g>
   <g id="text_18">
    <!-- b1 -->
    <g transform="translate(240.66358 28.516176)scale(0.08 -0.08)">
     <use xlink:href="#DejaVuSans-98"/>
     <use x="63.476562" xlink:href="#DejaVuSans-49"/>
    </g>
   </g>
   <g id="text_19">
    <!-- q1 -->
    <g transform="translate(261.505625 16.427118)scale(0.08 -0.08)">
     <use xlink:href="#DejaVuSans-113"/>
     <use x="63.476562" xlink:href="#DejaVuSans-49"/>
    </g>
   </g>
   <g id="text_20">
    <!-- b1 -->
    <g transform="translate(282.34767 28.516176)scale(0.08 -0.08)">
     <use xlink:href="#DejaVuSans-98"/>
     <use x="63.476562" xlink:href="#DejaVuSans-49"/>
    </g>
   </g>
   <g id="text_21">
    <!-- q2 -->
    <g transform="translate(303.189716 16.427118)scale(0.08 -0.08)">
     <use xlink:href="#DejaVuSans-113"/>
     <use x="63.476562" xlink:href="#DejaVuSans-50"/>
    </g>
   </g>
   <g id="text_22">
    <!-- b1 -->
    <g transform="translate(324.031761 28.516176)scale(0.08 -0.08)">
     <use xlink:href="#DejaVuSans-98"/>
     <use x="63.476562" xlink:href="#DejaVuSans-49"/>
    </g>
   </g>
   <g id="text_23">
    <!-- q1 -->
    <g transform="translate(344.873807 16.427118)scale(0.08 -0.08)">
     <use xlink:href="#DejaVuSans-113"/>
     <use x="63.476562" xlink:href="#DejaVuSans-49"/>
    </g>
   </g>
   <g id="text_24">
    <!-- b1 -->
    <g transform="translate(365.715852 28.516176)scale(0.08 -0.08)">
     <use xlink:href="#DejaVuSans-98"/>
     <use x="63.476562" xlink:href="#DejaVuSans-49"/>
    </g>
   </g>
   <g id="text_25">
    <!-- q2 -->
    <g transform="translate(386.557898 16.427118)scale(0.08 -0.08)">
     <use xlink:href="#DejaVuSans-113"/>
     <use x="63.476562" xlink:href="#DejaVuSans-50"/>
    </g>
   </g>
   <g id="text_26">
    <!-- b1 -->
    <g transform="translate(407.399943 28.516176)scale(0.08 -0.08)">
     <use xlink:href="#DejaVuSans-98"/>
     <use x="63.476562" xlink:href="#DejaVuSans-49"/>
    </g>
   </g>
   <g id="text_27">
    <!-- q1 -->
    <g transform="translate(426.939361 16.427118)scale(0.08 -0.08)">
     <use xlink:href="#DejaVuSans-113"/>
     <use x="63.476562" xlink:href="#DejaVuSans-49"/>
    </g>
   </g>
   <g id="text_28">
    <g clip-path="url(#p42e4109844)">
     <!-- fodo-cell -->
     <g style="opacity:0.5;" transform="translate(124.368977 31.164763)scale(0.08 -0.08)">
      <defs>
       <path d="M 47.796875 75.984375 
L 46.390625 68.5 
L 37.796875 68.5 
Q 32.90625 68.5 30.6875 66.578125 
Q 28.46875 64.65625 27.390625 59.515625 
L 26.421875 54.6875 
L 41.21875 54.6875 
L 39.890625 47.703125 
L 25.09375 47.703125 
L 15.828125 0 
L 6.78125 0 
L 16.109375 47.703125 
L 7.515625 47.703125 
L 8.796875 54.6875 
L 17.390625 54.6875 
L 18.109375 58.5 
Q 19.96875 68.171875 24.625 72.078125 
Q 29.296875 75.984375 39.3125 75.984375 
z
" id="DejaVuSans-Oblique-102"/>
       <path d="M 25.390625 -1.421875 
Q 15.765625 -1.421875 10.171875 4.515625 
Q 4.59375 10.453125 4.59375 20.703125 
Q 4.59375 26.65625 6.515625 32.828125 
Q 8.453125 39.015625 11.53125 43.21875 
Q 16.359375 49.75 22.3125 52.875 
Q 28.265625 56 35.796875 56 
Q 45.125 56 50.859375 50.1875 
Q 56.59375 44.390625 56.59375 35.015625 
Q 56.59375 28.515625 54.6875 22.0625 
Q 52.78125 15.625 49.703125 11.375 
Q 44.921875 4.828125 38.96875 1.703125 
Q 33.015625 -1.421875 25.390625 -1.421875 
z
M 13.921875 21 
Q 13.921875 13.578125 17.015625 9.890625 
Q 20.125 6.203125 26.421875 6.203125 
Q 35.453125 6.203125 41.375 14.078125 
Q 47.3125 21.96875 47.3125 34.078125 
Q 47.3125 41.15625 44.140625 44.765625 
Q 40.96875 48.390625 34.8125 48.390625 
Q 29.734375 48.390625 25.78125 46.015625 
Q 21.828125 43.65625 18.703125 38.8125 
Q 16.40625 35.203125 15.15625 30.5625 
Q 13.921875 25.921875 13.921875 21 
z
" id="DejaVuSans-Oblique-111"/>
       <path d="M 41.796875 8.203125 
Q 38.1875 3.46875 33.25 1.015625 
Q 28.328125 -1.421875 22.3125 -1.421875 
Q 14.109375 -1.421875 9.34375 4.171875 
Q 4.59375 9.765625 4.59375 19.484375 
Q 4.59375 27.59375 7.46875 34.9375 
Q 10.359375 42.28125 15.828125 48.09375 
Q 19.4375 51.953125 23.96875 53.96875 
Q 28.515625 56 33.5 56 
Q 38.765625 56 42.796875 53.453125 
Q 46.828125 50.921875 49.03125 46.1875 
L 54.890625 75.984375 
L 63.921875 75.984375 
L 49.125 0 
L 40.09375 0 
z
M 13.921875 21.09375 
Q 13.921875 14.015625 17.109375 10.0625 
Q 20.3125 6.109375 25.984375 6.109375 
Q 30.171875 6.109375 33.765625 8.125 
Q 37.359375 10.15625 40.09375 14.109375 
Q 42.96875 18.21875 44.625 23.578125 
Q 46.296875 28.953125 46.296875 34.1875 
Q 46.296875 40.96875 43.09375 44.765625 
Q 39.890625 48.578125 34.28125 48.578125 
Q 30.03125 48.578125 26.359375 46.578125 
Q 22.703125 44.578125 20.125 40.828125 
Q 17.28125 36.765625 15.59375 31.390625 
Q 13.921875 26.03125 13.921875 21.09375 
z
" id="DejaVuSans-Oblique-100"/>
       <path d="M 6.109375 31.390625 
L 32.421875 31.390625 
L 30.90625 23.390625 
L 4.5 23.390625 
z
" id="DejaVuSans-Oblique-45"/>
       <path d="M 53.609375 52.59375 
L 51.8125 43.703125 
Q 48.578125 46.046875 44.9375 47.21875 
Q 41.3125 48.390625 37.40625 48.390625 
Q 33.109375 48.390625 29.21875 46.875 
Q 25.34375 45.359375 22.703125 42.578125 
Q 18.5 38.328125 16.203125 32.609375 
Q 13.921875 26.90625 13.921875 20.796875 
Q 13.921875 13.421875 17.609375 9.8125 
Q 21.296875 6.203125 28.8125 6.203125 
Q 32.515625 6.203125 36.6875 7.328125 
Q 40.875 8.453125 45.40625 10.6875 
L 43.703125 1.8125 
Q 39.796875 0.203125 35.671875 -0.609375 
Q 31.546875 -1.421875 27.203125 -1.421875 
Q 16.3125 -1.421875 10.453125 4.015625 
Q 4.59375 9.46875 4.59375 19.578125 
Q 4.59375 28.078125 7.640625 35.234375 
Q 10.6875 42.390625 16.703125 48.09375 
Q 20.796875 52 26.3125 54 
Q 31.84375 56 38.375 56 
Q 42.1875 56 45.9375 55.140625 
Q 49.703125 54.296875 53.609375 52.59375 
z
" id="DejaVuSans-Oblique-99"/>
       <path d="M 48.09375 32.234375 
Q 48.25 33.015625 48.3125 33.84375 
Q 48.390625 34.671875 48.390625 35.5 
Q 48.390625 41.453125 44.890625 44.921875 
Q 41.40625 48.390625 35.40625 48.390625 
Q 28.71875 48.390625 23.578125 44.15625 
Q 18.453125 39.9375 15.828125 32.171875 
z
M 55.90625 25.203125 
L 14.109375 25.203125 
Q 13.8125 23.34375 13.71875 22.265625 
Q 13.625 21.1875 13.625 20.40625 
Q 13.625 13.625 17.796875 9.90625 
Q 21.96875 6.203125 29.59375 6.203125 
Q 35.453125 6.203125 40.671875 7.515625 
Q 45.90625 8.84375 50.390625 11.375 
L 48.6875 2.484375 
Q 43.84375 0.53125 38.6875 -0.4375 
Q 33.546875 -1.421875 28.21875 -1.421875 
Q 16.84375 -1.421875 10.71875 4.015625 
Q 4.59375 9.46875 4.59375 19.484375 
Q 4.59375 28.03125 7.640625 35.375 
Q 10.6875 42.71875 16.609375 48.484375 
Q 20.40625 52.09375 25.65625 54.046875 
Q 30.90625 56 36.8125 56 
Q 46.09375 56 51.578125 50.4375 
Q 57.078125 44.875 57.078125 35.5 
Q 57.078125 33.25 56.78125 30.6875 
Q 56.5 28.125 55.90625 25.203125 
z
" id="DejaVuSans-Oblique-101"/>
       <path d="M 18.3125 75.984375 
L 27.296875 75.984375 
L 12.5 0 
L 3.515625 0 
z
" id="DejaVuSans-Oblique-108"/>
      </defs>
      <use xlink:href="#DejaVuSans-Oblique-102"/>
      <use x="35.205078" xlink:href="#DejaVuSans-Oblique-111"/>
      <use x="96.386719" xlink:href="#DejaVuSans-Oblique-100"/>
      <use x="159.863281" xlink:href="#DejaVuSans-Oblique-111"/>
      <use x="221.044922" xlink:href="#DejaVuSans-Oblique-45"/>
      <use x="257.128906" xlink:href="#DejaVuSans-Oblique-99"/>
      <use x="312.109375" xlink:href="#DejaVuSans-Oblique-101"/>
      <use x="373.632812" xlink:href="#DejaVuSans-Oblique-108"/>
      <use x="401.416016" xlink:href="#DejaVuSans-Oblique-108"/>
     </g>
    </g>
   </g>
   <g id="text_29">
    <g clip-path="url(#p42e4109844)">
     <!-- fodo-cell -->
     <g style="opacity:0.5;" transform="translate(207.737159 31.164763)scale(0.08 -0.08)">
      <use xlink:href="#DejaVuSans-Oblique-102"/>
      <use x="35.205078" xlink:href="#DejaVuSans-Oblique-111"/>
      <use x="96.386719" xlink:href="#DejaVuSans-Oblique-100"/>
      <use x="159.863281" xlink:href="#DejaVuSans-Oblique-111"/>
      <use x="221.044922" xlink:href="#DejaVuSans-Oblique-45"/>
      <use x="257.128906" xlink:href="#DejaVuSans-Oblique-99"/>
      <use x="312.109375" xlink:href="#DejaVuSans-Oblique-101"/>
      <use x="373.632812" xlink:href="#DejaVuSans-Oblique-108"/>
      <use x="401.416016" xlink:href="#DejaVuSans-Oblique-108"/>
     </g>
    </g>
   </g>
   <g id="text_30">
    <g clip-path="url(#p42e4109844)">
     <!-- fodo-cell -->
     <g style="opacity:0.5;" transform="translate(291.105341 31.164763)scale(0.08 -0.08)">
      <use xlink:href="#DejaVuSans-Oblique-102"/>
      <use x="35.205078" xlink:href="#DejaVuSans-Oblique-111"/>
      <use x="96.386719" xlink:href="#DejaVuSans-Oblique-100"/>
      <use x="159.863281" xlink:href="#DejaVuSans-Oblique-111"/>
      <use x="221.044922" xlink:href="#DejaVuSans-Oblique-45"/>
      <use x="257.128906" xlink:href="#DejaVuSans-Oblique-99"/>
      <use x="312.109375" xlink:href="#DejaVuSans-Oblique-101"/>
      <use x="373.632812" xlink:href="#DejaVuSans-Oblique-108"/>
      <use x="401.416016" xlink:href="#DejaVuSans-Oblique-108"/>
     </g>
    </g>
   </g>
   <g id="text_31">
    <g clip-path="url(#p42e4109844)">
     <!-- fodo-cell -->
     <g style="opacity:0.5;" transform="translate(374.473523 31.164763)scale(0.08 -0.08)">
      <use xlink:href="#DejaVuSans-Oblique-102"/>
      <use x="35.205078" xlink:href="#DejaVuSans-Oblique-111"/>
      <use x="96.386719" xlink:href="#DejaVuSans-Oblique-100"/>
      <use x="159.863281" xlink:href="#DejaVuSans-Oblique-111"/>
      <use x="221.044922" xlink:href="#DejaVuSans-Oblique-45"/>
      <use x="257.128906" xlink:href="#DejaVuSans-Oblique-99"/>
      <use x="312.109375" xlink:href="#DejaVuSans-Oblique-101"/>
      <use x="373.632812" xlink:href="#DejaVuSans-Oblique-108"/>
      <use x="401.416016" xlink:href="#DejaVuSans-Oblique-108"/>
     </g>
    </g>
   </g>
  </g>
  <g id="axes_2">
   <g id="patch_24">
    <path d="M 83.18 260.028431 
L 450 260.028431 
L 450 167.301863 
L 83.18 167.301863 
z
" style="fill:#ffffff;"/>
   </g>
   <g id="matplotlib.axis_3">
    <g id="xtick_6">
     <g id="line2d_20">
      <path clip-path="url(#p6eefba3386)" d="M 99.853636 260.028431 
L 99.853636 167.301863 
" style="fill:none;stroke:#b0b0b0;stroke-dasharray:2.96,1.28;stroke-dashoffset:0;stroke-width:0.8;"/>
     </g>
     <g id="line2d_21">
      <g>
       <use style="stroke:#000000;stroke-width:0.8;" x="99.853636" xlink:href="#m44da5ab208" y="260.028431"/>
      </g>
     </g>
     <g id="text_32">
      <!-- 0 -->
      <g transform="translate(96.672386 274.626869)scale(0.1 -0.1)">
       <use xlink:href="#DejaVuSans-48"/>
      </g>
     </g>
    </g>
    <g id="xtick_7">
     <g id="line2d_22">
      <path clip-path="url(#p6eefba3386)" d="M 183.221818 260.028431 
L 183.221818 167.301863 
" style="fill:none;stroke:#b0b0b0;stroke-dasharray:2.96,1.28;stroke-dashoffset:0;stroke-width:0.8;"/>
     </g>
     <g id="line2d_23">
      <g>
       <use style="stroke:#000000;stroke-width:0.8;" x="183.221818" xlink:href="#m44da5ab208" y="260.028431"/>
      </g>
     </g>
     <g id="text_33">
      <!-- 8 -->
      <g transform="translate(180.040568 274.626869)scale(0.1 -0.1)">
       <use xlink:href="#DejaVuSans-56"/>
      </g>
     </g>
    </g>
    <g id="xtick_8">
     <g id="line2d_24">
      <path clip-path="url(#p6eefba3386)" d="M 266.59 260.028431 
L 266.59 167.301863 
" style="fill:none;stroke:#b0b0b0;stroke-dasharray:2.96,1.28;stroke-dashoffset:0;stroke-width:0.8;"/>
     </g>
     <g id="line2d_25">
      <g>
       <use style="stroke:#000000;stroke-width:0.8;" x="266.59" xlink:href="#m44da5ab208" y="260.028431"/>
      </g>
     </g>
     <g id="text_34">
      <!-- 16 -->
      <g transform="translate(260.2275 274.626869)scale(0.1 -0.1)">
       <use xlink:href="#DejaVuSans-49"/>
       <use x="63.623047" xlink:href="#DejaVuSans-54"/>
      </g>
     </g>
    </g>
    <g id="xtick_9">
     <g id="line2d_26">
      <path clip-path="url(#p6eefba3386)" d="M 349.958182 260.028431 
L 349.958182 167.301863 
" style="fill:none;stroke:#b0b0b0;stroke-dasharray:2.96,1.28;stroke-dashoffset:0;stroke-width:0.8;"/>
     </g>
     <g id="line2d_27">
      <g>
       <use style="stroke:#000000;stroke-width:0.8;" x="349.958182" xlink:href="#m44da5ab208" y="260.028431"/>
      </g>
     </g>
     <g id="text_35">
      <!-- 24 -->
      <g transform="translate(343.595682 274.626869)scale(0.1 -0.1)">
       <use xlink:href="#DejaVuSans-50"/>
       <use x="63.623047" xlink:href="#DejaVuSans-52"/>
      </g>
     </g>
    </g>
    <g id="xtick_10">
     <g id="line2d_28">
      <path clip-path="url(#p6eefba3386)" d="M 433.326364 260.028431 
L 433.326364 167.301863 
" style="fill:none;stroke:#b0b0b0;stroke-dasharray:2.96,1.28;stroke-dashoffset:0;stroke-width:0.8;"/>
     </g>
     <g id="line2d_29">
      <g>
       <use style="stroke:#000000;stroke-width:0.8;" x="433.326364" xlink:href="#m44da5ab208" y="260.028431"/>
      </g>
     </g>
     <g id="text_36">
      <!-- 32 -->
      <g transform="translate(426.963864 274.626869)scale(0.1 -0.1)">
       <use xlink:href="#DejaVuSans-51"/>
       <use x="63.623047" xlink:href="#DejaVuSans-50"/>
      </g>
     </g>
    </g>
    <g id="text_37">
     <!-- Orbit position $s$ / m -->
     <g transform="translate(218.74 288.306556)scale(0.1 -0.1)">
      <use transform="translate(0 0.015625)" xlink:href="#DejaVuSans-79"/>
      <use transform="translate(78.710938 0.015625)" xlink:href="#DejaVuSans-114"/>
      <use transform="translate(119.824219 0.015625)" xlink:href="#DejaVuSans-98"/>
      <use transform="translate(183.300781 0.015625)" xlink:href="#DejaVuSans-105"/>
      <use transform="translate(211.083984 0.015625)" xlink:href="#DejaVuSans-116"/>
      <use transform="translate(250.292969 0.015625)" xlink:href="#DejaVuSans-32"/>
      <use transform="translate(282.080078 0.015625)" xlink:href="#DejaVuSans-112"/>
      <use transform="translate(345.556641 0.015625)" xlink:href="#DejaVuSans-111"/>
      <use transform="translate(406.738281 0.015625)" xlink:href="#DejaVuSans-115"/>
      <use transform="translate(458.837891 0.015625)" xlink:href="#DejaVuSans-105"/>
      <use transform="translate(486.621094 0.015625)" xlink:href="#DejaVuSans-116"/>
      <use transform="translate(525.830078 0.015625)" xlink:href="#DejaVuSans-105"/>
      <use transform="translate(553.613281 0.015625)" xlink:href="#DejaVuSans-111"/>
      <use transform="translate(614.794922 0.015625)" xlink:href="#DejaVuSans-110"/>
      <use transform="translate(678.173828 0.015625)" xlink:href="#DejaVuSans-32"/>
      <use transform="translate(709.960938 0.015625)" xlink:href="#DejaVuSans-Oblique-115"/>
      <use transform="translate(762.060547 0.015625)" xlink:href="#DejaVuSans-32"/>
      <use transform="translate(793.847656 0.015625)" xlink:href="#DejaVuSans-47"/>
      <use transform="translate(827.539062 0.015625)" xlink:href="#DejaVuSans-32"/>
      <use transform="translate(859.326172 0.015625)" xlink:href="#DejaVuSans-109"/>
     </g>
    </g>
   </g>
   <g id="matplotlib.axis_4">
    <g id="ytick_4">
     <g id="line2d_30">
      <path clip-path="url(#p6eefba3386)" d="M 83.18 260.028431 
L 450 260.028431 
" style="fill:none;stroke:#b0b0b0;stroke-dasharray:2.96,1.28;stroke-dashoffset:0;stroke-width:0.8;"/>
     </g>
     <g id="line2d_31">
      <g>
       <use style="stroke:#000000;stroke-width:0.8;" x="83.18" xlink:href="#m52f151ff5f" y="260.028431"/>
      </g>
     </g>
     <g id="text_38">
      <!-- −4 -->
      <g transform="translate(61.437813 263.82765)scale(0.1 -0.1)">
       <use xlink:href="#DejaVuSans-8722"/>
       <use x="83.789062" xlink:href="#DejaVuSans-52"/>
      </g>
     </g>
    </g>
    <g id="ytick_5">
     <g id="line2d_32">
      <path clip-path="url(#p6eefba3386)" d="M 83.18 236.846789 
L 450 236.846789 
" style="fill:none;stroke:#b0b0b0;stroke-dasharray:2.96,1.28;stroke-dashoffset:0;stroke-width:0.8;"/>
     </g>
     <g id="line2d_33">
      <g>
       <use style="stroke:#000000;stroke-width:0.8;" x="83.18" xlink:href="#m52f151ff5f" y="236.846789"/>
      </g>
     </g>
     <g id="text_39">
      <!-- −2 -->
      <g transform="translate(61.437813 240.646008)scale(0.1 -0.1)">
       <use xlink:href="#DejaVuSans-8722"/>
       <use x="83.789062" xlink:href="#DejaVuSans-50"/>
      </g>
     </g>
    </g>
    <g id="ytick_6">
     <g id="line2d_34">
      <path clip-path="url(#p6eefba3386)" d="M 83.18 213.665147 
L 450 213.665147 
" style="fill:none;stroke:#b0b0b0;stroke-dasharray:2.96,1.28;stroke-dashoffset:0;stroke-width:0.8;"/>
     </g>
     <g id="line2d_35">
      <g>
       <use style="stroke:#000000;stroke-width:0.8;" x="83.18" xlink:href="#m52f151ff5f" y="213.665147"/>
      </g>
     </g>
     <g id="text_40">
      <!-- 0 -->
      <g transform="translate(69.8175 217.464366)scale(0.1 -0.1)">
       <use xlink:href="#DejaVuSans-48"/>
      </g>
     </g>
    </g>
    <g id="ytick_7">
     <g id="line2d_36">
      <path clip-path="url(#p6eefba3386)" d="M 83.18 190.483505 
L 450 190.483505 
" style="fill:none;stroke:#b0b0b0;stroke-dasharray:2.96,1.28;stroke-dashoffset:0;stroke-width:0.8;"/>
     </g>
     <g id="line2d_37">
      <g>
       <use style="stroke:#000000;stroke-width:0.8;" x="83.18" xlink:href="#m52f151ff5f" y="190.483505"/>
      </g>
     </g>
     <g id="text_41">
      <!-- 2 -->
      <g transform="translate(69.8175 194.282724)scale(0.1 -0.1)">
       <use xlink:href="#DejaVuSans-50"/>
      </g>
     </g>
    </g>
    <g id="ytick_8">
     <g id="line2d_38">
      <path clip-path="url(#p6eefba3386)" d="M 83.18 167.301863 
L 450 167.301863 
" style="fill:none;stroke:#b0b0b0;stroke-dasharray:2.96,1.28;stroke-dashoffset:0;stroke-width:0.8;"/>
     </g>
     <g id="line2d_39">
      <g>
       <use style="stroke:#000000;stroke-width:0.8;" x="83.18" xlink:href="#m52f151ff5f" y="167.301863"/>
      </g>
     </g>
     <g id="text_42">
      <!-- 4 -->
      <g transform="translate(69.8175 171.101081)scale(0.1 -0.1)">
       <use xlink:href="#DejaVuSans-52"/>
      </g>
     </g>
    </g>
    <g id="text_43">
     <!-- $x(s) / \sqrt{\beta(s)}$ -->
     <g transform="translate(55.337813 239.465147)rotate(-90)scale(0.1 -0.1)">
      <defs>
       <path d="M 108.90625 155.203125 
L 52.703125 -29.5 
L 48.5 -29.5 
L 25.40625 45.59375 
Q 24.296875 49.203125 22.890625 50.796875 
Q 21.5 52.40625 19.203125 52.40625 
Q 15.796875 52.40625 12.40625 49.703125 
L 11.203125 51.703125 
L 27.59375 64.296875 
L 30.09375 64.296875 
L 52.796875 -9.40625 
L 53.203125 -9.40625 
L 103.203125 155.203125 
z
" id="STIXSizeOneSym-Regular-8730"/>
       <path d="M 13.625 3.375 
L 8.9375 -20.796875 
L -0.09375 -20.796875 
L 14.5 54.34375 
Q 18.84375 76.609375 39.65625 76.609375 
Q 60.75 76.609375 57.171875 57.8125 
Q 54.734375 44.4375 45.21875 39.546875 
Q 58.015625 35.15625 55.515625 22.125 
Q 51.125 -1.078125 27.484375 -1.03125 
Q 17.140625 -0.984375 13.625 3.375 
z
M 15.921875 15.09375 
Q 19.671875 6.59375 29.296875 6.640625 
Q 43.359375 6.640625 46.34375 21.96875 
Q 49.03125 35.75 26.171875 34.671875 
L 27.78125 42.96875 
Q 45.453125 42.671875 48.53125 58.59375 
Q 50.640625 69.34375 39.203125 69.28125 
Q 26.421875 69.28125 23.484375 54.046875 
z
" id="DejaVuSans-Oblique-946"/>
      </defs>
      <use transform="translate(0 0.171875)" xlink:href="#DejaVuSans-Oblique-120"/>
      <use transform="translate(59.179688 0.171875)" xlink:href="#DejaVuSans-40"/>
      <use transform="translate(98.193359 0.171875)" xlink:href="#DejaVuSans-Oblique-115"/>
      <use transform="translate(150.292969 0.171875)" xlink:href="#DejaVuSans-41"/>
      <use transform="translate(189.306641 0.171875)" xlink:href="#DejaVuSans-47"/>
      <use transform="translate(222.998047 -0.078125)scale(0.696557)" xlink:href="#STIXSizeOneSym-Regular-8730"/>
      <use transform="translate(309.1082 0.140625)" xlink:href="#DejaVuSans-Oblique-946"/>
      <use transform="translate(372.926559 0.140625)" xlink:href="#DejaVuSans-40"/>
      <use transform="translate(411.940231 0.140625)" xlink:href="#DejaVuSans-Oblique-115"/>
      <use transform="translate(464.039841 0.140625)" xlink:href="#DejaVuSans-41"/>
      <path d="M 296.6082 101.5 
L 296.6082 107.75 
L 515.553513 107.75 
L 515.553513 101.5 
L 296.6082 101.5 
z
"/>
     </g>
    </g>
    <g id="text_44">
     <!-- 1e−5 -->
     <g transform="translate(83.18 164.301863)scale(0.1 -0.1)">
      <defs>
       <path d="M 56.203125 29.59375 
L 56.203125 25.203125 
L 14.890625 25.203125 
Q 15.484375 15.921875 20.484375 11.0625 
Q 25.484375 6.203125 34.421875 6.203125 
Q 39.59375 6.203125 44.453125 7.46875 
Q 49.3125 8.734375 54.109375 11.28125 
L 54.109375 2.78125 
Q 49.265625 0.734375 44.1875 -0.34375 
Q 39.109375 -1.421875 33.890625 -1.421875 
Q 20.796875 -1.421875 13.15625 6.1875 
Q 5.515625 13.8125 5.515625 26.8125 
Q 5.515625 40.234375 12.765625 48.109375 
Q 20.015625 56 32.328125 56 
Q 43.359375 56 49.78125 48.890625 
Q 56.203125 41.796875 56.203125 29.59375 
z
M 47.21875 32.234375 
Q 47.125 39.59375 43.09375 43.984375 
Q 39.0625 48.390625 32.421875 48.390625 
Q 24.90625 48.390625 20.390625 44.140625 
Q 15.875 39.890625 15.1875 32.171875 
z
" id="DejaVuSans-101"/>
       <path d="M 10.796875 72.90625 
L 49.515625 72.90625 
L 49.515625 64.59375 
L 19.828125 64.59375 
L 19.828125 46.734375 
Q 21.96875 47.46875 24.109375 47.828125 
Q 26.265625 48.1875 28.421875 48.1875 
Q 40.625 48.1875 47.75 41.5 
Q 54.890625 34.8125 54.890625 23.390625 
Q 54.890625 11.625 47.5625 5.09375 
Q 40.234375 -1.421875 26.90625 -1.421875 
Q 22.3125 -1.421875 17.546875 -0.640625 
Q 12.796875 0.140625 7.71875 1.703125 
L 7.71875 11.625 
Q 12.109375 9.234375 16.796875 8.0625 
Q 21.484375 6.890625 26.703125 6.890625 
Q 35.15625 6.890625 40.078125 11.328125 
Q 45.015625 15.765625 45.015625 23.390625 
Q 45.015625 31 40.078125 35.4375 
Q 35.15625 39.890625 26.703125 39.890625 
Q 22.75 39.890625 18.8125 39.015625 
Q 14.890625 38.140625 10.796875 36.28125 
z
" id="DejaVuSans-53"/>
      </defs>
      <use xlink:href="#DejaVuSans-49"/>
      <use x="63.623047" xlink:href="#DejaVuSans-101"/>
      <use x="125.146484" xlink:href="#DejaVuSans-8722"/>
      <use x="208.935547" xlink:href="#DejaVuSans-53"/>
     </g>
    </g>
   </g>
   <g id="line2d_40">
    <path clip-path="url(#p6eefba3386)" d="M 83.18 182.738489 
L 450 182.738489 
" style="fill:none;stroke:#000000;stroke-dasharray:5.55,2.4;stroke-dashoffset:0;stroke-width:1.5;"/>
   </g>
   <g id="line2d_41">
    <path clip-path="url(#p6eefba3386)" d="M 83.18 244.591805 
L 450 244.591805 
" style="fill:none;stroke:#000000;stroke-dasharray:5.55,2.4;stroke-dashoffset:0;stroke-width:1.5;"/>
   </g>
   <g id="line2d_42">
    <path clip-path="url(#p6eefba3386)" d="M 99.853636 182.738489 
L 109.753608 182.835067 
L 116.006222 183.081952 
L 120.695682 183.465134 
L 123.821989 183.88168 
L 126.948295 184.498641 
L 129.553551 185.233741 
L 131.637756 186.017333 
L 133.72196 187.024839 
L 135.806165 188.311522 
L 137.890369 189.937204 
L 139.974574 191.955259 
L 142.058778 194.320153 
L 147.26929 200.436878 
L 150.395597 203.646467 
L 153.521903 206.413046 
L 156.127159 208.394893 
L 159.253466 210.424224 
L 162.379773 212.136611 
L 165.50608 213.59236 
L 168.632386 214.840894 
L 173.321847 216.404975 
L 177.490256 217.5442 
L 182.961293 218.774726 
L 188.953381 220.104721 
L 193.12179 221.220802 
L 197.81125 222.730349 
L 200.937557 223.916598 
L 204.063864 225.27876 
L 207.19017 226.852044 
L 210.316477 228.675346 
L 213.963835 231.162742 
L 217.090142 233.601144 
L 221.258551 237.183975 
L 224.905909 240.289873 
L 226.990114 241.748264 
L 228.553267 242.600945 
L 230.637472 243.436257 
L 232.721676 243.99207 
L 234.805881 244.33431 
L 237.932187 244.565146 
L 241.058494 244.576805 
L 245.747955 244.375604 
L 256.690028 243.580281 
L 276.489972 241.972071 
L 281.179432 241.304662 
L 285.868892 240.376458 
L 288.995199 239.54595 
L 292.121506 238.473457 
L 295.247812 237.067217 
L 297.332017 235.886392 
L 299.416222 234.464287 
L 301.500426 232.753225 
L 303.584631 230.704238 
L 305.668835 228.274704 
L 307.75304 225.472783 
L 312.963551 218.241096 
L 315.047756 215.730303 
L 317.13196 213.491557 
L 319.216165 211.512749 
L 321.300369 209.771529 
L 324.426676 207.554218 
L 327.552983 205.729963 
L 330.67929 204.214449 
L 333.805597 202.941497 
L 337.974006 201.535767 
L 342.142415 200.392577 
L 347.352926 199.242163 
L 358.816051 196.91287 
L 362.98446 195.824286 
L 367.67392 194.378251 
L 372.363381 192.650958 
L 377.052841 190.588908 
L 381.742301 188.190645 
L 389.037017 184.350054 
L 391.121222 183.511003 
L 392.684375 183.071675 
L 394.247528 182.819171 
L 396.331733 182.74422 
L 398.415938 182.895883 
L 401.542244 183.394793 
L 406.231705 184.427566 
L 415.610625 186.538073 
L 422.38429 187.823737 
L 429.679006 188.957062 
L 433.326364 189.443929 
L 433.326364 189.443929 
" style="fill:none;stroke:#1f77b4;stroke-linecap:square;stroke-width:1.5;"/>
   </g>
   <g id="patch_25">
    <path d="M 83.18 260.028431 
L 83.18 167.301863 
" style="fill:none;stroke:#000000;stroke-linecap:square;stroke-linejoin:miter;stroke-width:0.8;"/>
   </g>
   <g id="patch_26">
    <path d="M 450 260.028431 
L 450 167.301863 
" style="fill:none;stroke:#000000;stroke-linecap:square;stroke-linejoin:miter;stroke-width:0.8;"/>
   </g>
   <g id="patch_27">
    <path d="M 83.18 260.028431 
L 450 260.028431 
" style="fill:none;stroke:#000000;stroke-linecap:square;stroke-linejoin:miter;stroke-width:0.8;"/>
   </g>
   <g id="patch_28">
    <path d="M 83.18 167.301863 
L 450 167.301863 
" style="fill:none;stroke:#000000;stroke-linecap:square;stroke-linejoin:miter;stroke-width:0.8;"/>
   </g>
   <g id="patch_29">
    <path d="M 99.853636 261.477284 
L 102.458892 261.477284 
L 102.458892 258.579579 
L 99.853636 258.579579 
z
" style="fill:#dc143c;"/>
   </g>
   <g id="patch_30">
    <path d="M 112.879915 261.477284 
L 128.511449 261.477284 
L 128.511449 258.579579 
L 112.879915 258.579579 
z
" style="fill:#ffd700;"/>
   </g>
   <g id="patch_31">
    <path d="M 138.932472 261.477284 
L 144.142983 261.477284 
L 144.142983 258.579579 
L 138.932472 258.579579 
z
" style="fill:#dc143c;"/>
   </g>
   <g id="patch_32">
    <path d="M 154.564006 261.477284 
L 170.19554 261.477284 
L 170.19554 258.579579 
L 154.564006 258.579579 
z
" style="fill:#ffd700;"/>
   </g>
   <g id="patch_33">
    <path d="M 180.616562 261.477284 
L 185.827074 261.477284 
L 185.827074 258.579579 
L 180.616562 258.579579 
z
" style="fill:#dc143c;"/>
   </g>
   <g id="patch_34">
    <path d="M 196.248097 261.477284 
L 211.879631 261.477284 
L 211.879631 258.579579 
L 196.248097 258.579579 
z
" style="fill:#ffd700;"/>
   </g>
   <g id="patch_35">
    <path d="M 222.300653 261.477284 
L 227.511165 261.477284 
L 227.511165 258.579579 
L 222.300653 258.579579 
z
" style="fill:#dc143c;"/>
   </g>
   <g id="patch_36">
    <path d="M 237.932187 261.477284 
L 253.563722 261.477284 
L 253.563722 258.579579 
L 237.932187 258.579579 
z
" style="fill:#ffd700;"/>
   </g>
   <g id="patch_37">
    <path d="M 263.984744 261.477284 
L 269.195256 261.477284 
L 269.195256 258.579579 
L 263.984744 258.579579 
z
" style="fill:#dc143c;"/>
   </g>
   <g id="patch_38">
    <path d="M 279.616278 261.477284 
L 295.247812 261.477284 
L 295.247812 258.579579 
L 279.616278 258.579579 
z
" style="fill:#ffd700;"/>
   </g>
   <g id="patch_39">
    <path d="M 305.668835 261.477284 
L 310.879347 261.477284 
L 310.879347 258.579579 
L 305.668835 258.579579 
z
" style="fill:#dc143c;"/>
   </g>
   <g id="patch_40">
    <path d="M 321.300369 261.477284 
L 336.931903 261.477284 
L 336.931903 258.579579 
L 321.300369 258.579579 
z
" style="fill:#ffd700;"/>
   </g>
   <g id="patch_41">
    <path d="M 347.352926 261.477284 
L 352.563437 261.477284 
L 352.563437 258.579579 
L 347.352926 258.579579 
z
" style="fill:#dc143c;"/>
   </g>
   <g id="patch_42">
    <path d="M 362.98446 261.477284 
L 378.615994 261.477284 
L 378.615994 258.579579 
L 362.98446 258.579579 
z
" style="fill:#ffd700;"/>
   </g>
   <g id="patch_43">
    <path d="M 389.037017 261.477284 
L 394.247528 261.477284 
L 394.247528 258.579579 
L 389.037017 258.579579 
z
" style="fill:#dc143c;"/>
   </g>
   <g id="patch_44">
    <path d="M 404.668551 261.477284 
L 420.300085 261.477284 
L 420.300085 258.579579 
L 404.668551 258.579579 
z
" style="fill:#ffd700;"/>
   </g>
   <g id="patch_45">
    <path d="M 430.721108 261.477284 
L 433.326364 261.477284 
L 433.326364 258.579579 
L 430.721108 258.579579 
z
" style="fill:#dc143c;"/>
   </g>
   <g id="text_45">
    <!-- q1 -->
    <g transform="translate(96.071889 257.640255)scale(0.08 -0.08)">
     <use xlink:href="#DejaVuSans-113"/>
     <use x="63.476562" xlink:href="#DejaVuSans-49"/>
    </g>
   </g>
   <g id="text_46">
    <!-- b1 -->
    <g transform="translate(115.611307 269.729313)scale(0.08 -0.08)">
     <use xlink:href="#DejaVuSans-98"/>
     <use x="63.476562" xlink:href="#DejaVuSans-49"/>
    </g>
   </g>
   <g id="text_47">
    <!-- q2 -->
    <g transform="translate(136.453352 257.640255)scale(0.08 -0.08)">
     <use xlink:href="#DejaVuSans-113"/>
     <use x="63.476562" xlink:href="#DejaVuSans-50"/>
    </g>
   </g>
   <g id="text_48">
    <!-- b1 -->
    <g transform="translate(157.295398 269.729313)scale(0.08 -0.08)">
     <use xlink:href="#DejaVuSans-98"/>
     <use x="63.476562" xlink:href="#DejaVuSans-49"/>
    </g>
   </g>
   <g id="text_49">
    <!-- q1 -->
    <g transform="translate(178.137443 257.640255)scale(0.08 -0.08)">
     <use xlink:href="#DejaVuSans-113"/>
     <use x="63.476562" xlink:href="#DejaVuSans-49"/>
    </g>
   </g>
   <g id="text_50">
    <!-- b1 -->
    <g transform="translate(198.979489 269.729313)scale(0.08 -0.08)">
     <use xlink:href="#DejaVuSans-98"/>
     <use x="63.476562" xlink:href="#DejaVuSans-49"/>
    </g>
   </g>
   <g id="text_51">
    <!-- q2 -->
    <g transform="translate(219.821534 257.640255)scale(0.08 -0.08)">
     <use xlink:href="#DejaVuSans-113"/>
     <use x="63.476562" xlink:href="#DejaVuSans-50"/>
    </g>
   </g>
   <g id="text_52">
    <!-- b1 -->
    <g transform="translate(240.66358 269.729313)scale(0.08 -0.08)">
     <use xlink:href="#DejaVuSans-98"/>
     <use x="63.476562" xlink:href="#DejaVuSans-49"/>
    </g>
   </g>
   <g id="text_53">
    <!-- q1 -->
    <g transform="translate(261.505625 257.640255)scale(0.08 -0.08)">
     <use xlink:href="#DejaVuSans-113"/>
     <use x="63.476562" xlink:href="#DejaVuSans-49"/>
    </g>
   </g>
   <g id="text_54">
    <!-- b1 -->
    <g transform="translate(282.34767 269.729313)scale(0.08 -0.08)">
     <use xlink:href="#DejaVuSans-98"/>
     <use x="63.476562" xlink:href="#DejaVuSans-49"/>
    </g>
   </g>
   <g id="text_55">
    <!-- q2 -->
    <g transform="translate(303.189716 257.640255)scale(0.08 -0.08)">
     <use xlink:href="#DejaVuSans-113"/>
     <use x="63.476562" xlink:href="#DejaVuSans-50"/>
    </g>
   </g>
   <g id="text_56">
    <!-- b1 -->
    <g transform="translate(324.031761 269.729313)scale(0.08 -0.08)">
     <use xlink:href="#DejaVuSans-98"/>
     <use x="63.476562" xlink:href="#DejaVuSans-49"/>
    </g>
   </g>
   <g id="text_57">
    <!-- q1 -->
    <g transform="translate(344.873807 257.640255)scale(0.08 -0.08)">
     <use xlink:href="#DejaVuSans-113"/>
     <use x="63.476562" xlink:href="#DejaVuSans-49"/>
    </g>
   </g>
   <g id="text_58">
    <!-- b1 -->
    <g transform="translate(365.715852 269.729313)scale(0.08 -0.08)">
     <use xlink:href="#DejaVuSans-98"/>
     <use x="63.476562" xlink:href="#DejaVuSans-49"/>
    </g>
   </g>
   <g id="text_59">
    <!-- q2 -->
    <g transform="translate(386.557898 257.640255)scale(0.08 -0.08)">
     <use xlink:href="#DejaVuSans-113"/>
     <use x="63.476562" xlink:href="#DejaVuSans-50"/>
    </g>
   </g>
   <g id="text_60">
    <!-- b1 -->
    <g transform="translate(407.399943 269.729313)scale(0.08 -0.08)">
     <use xlink:href="#DejaVuSans-98"/>
     <use x="63.476562" xlink:href="#DejaVuSans-49"/>
    </g>
   </g>
   <g id="text_61">
    <!-- q1 -->
    <g transform="translate(426.939361 257.640255)scale(0.08 -0.08)">
     <use xlink:href="#DejaVuSans-113"/>
     <use x="63.476562" xlink:href="#DejaVuSans-49"/>
    </g>
   </g>
  </g>
  <g id="axes_3">
   <g id="patch_46">
    <path d="M 83.18 408.515 
L 450 408.515 
L 450 315.788431 
L 83.18 315.788431 
z
" style="fill:#ffffff;"/>
   </g>
   <g id="matplotlib.axis_5">
    <g id="xtick_11">
     <g id="line2d_43">
      <g>
       <use style="stroke:#000000;stroke-width:0.8;" x="99.853636" xlink:href="#m44da5ab208" y="408.515"/>
      </g>
     </g>
     <g id="text_62">
      <!-- $0$ -->
      <g transform="translate(96.653636 423.113438)scale(0.1 -0.1)">
       <use transform="translate(0 0.78125)" xlink:href="#DejaVuSans-48"/>
      </g>
     </g>
    </g>
    <g id="xtick_12">
     <g id="line2d_44">
      <g>
       <use style="stroke:#000000;stroke-width:0.8;" x="175.15477" xlink:href="#m44da5ab208" y="408.515"/>
      </g>
     </g>
     <g id="text_63">
      <!-- $\frac{\pi}{2}$ -->
      <g transform="translate(172.25477 423.915)scale(0.1 -0.1)">
       <defs>
        <path d="M 9.125 54.6875 
L 61.53125 54.6875 
L 59.765625 45.703125 
L 52.875 45.703125 
L 46.34375 12.109375 
Q 45.65625 8.59375 46.578125 7.03125 
Q 47.46875 5.515625 50.140625 5.515625 
Q 50.875 5.515625 51.953125 5.671875 
Q 53.078125 5.765625 53.421875 5.8125 
L 52.15625 -0.6875 
Q 50.34375 -1.3125 48.484375 -1.609375 
Q 46.578125 -1.90625 44.78125 -1.90625 
Q 38.921875 -1.90625 37.3125 1.265625 
Q 35.6875 4.5 37.359375 13.09375 
L 43.703125 45.703125 
L 23.53125 45.703125 
L 14.65625 0 
L 5.46875 0 
L 14.359375 45.703125 
L 7.375 45.703125 
z
" id="DejaVuSans-Oblique-960"/>
       </defs>
       <use transform="translate(1 45.71875)scale(0.7)" xlink:href="#DejaVuSans-Oblique-960"/>
       <use transform="translate(0 -38.81875)scale(0.7)" xlink:href="#DejaVuSans-50"/>
       <path d="M 0 19.384375 
L 0 25.634375 
L 44.536133 25.634375 
L 44.536133 19.384375 
L 0 19.384375 
z
"/>
      </g>
     </g>
    </g>
    <g id="xtick_13">
     <g id="line2d_45">
      <g>
       <use style="stroke:#000000;stroke-width:0.8;" x="250.455904" xlink:href="#m44da5ab208" y="408.515"/>
      </g>
     </g>
     <g id="text_64">
      <!-- $\pi$ -->
      <g transform="translate(247.405904 423.113438)scale(0.1 -0.1)">
       <use transform="translate(0 0.3125)" xlink:href="#DejaVuSans-Oblique-960"/>
      </g>
     </g>
    </g>
    <g id="xtick_14">
     <g id="line2d_46">
      <g>
       <use style="stroke:#000000;stroke-width:0.8;" x="325.757038" xlink:href="#m44da5ab208" y="408.515"/>
      </g>
     </g>
     <g id="text_65">
      <!-- $\frac{3\pi}{2}$ -->
      <g transform="translate(320.757038 425.315)scale(0.1 -0.1)">
       <use transform="translate(0 46.046875)scale(0.7)" xlink:href="#DejaVuSans-51"/>
       <use transform="translate(44.536133 46.046875)scale(0.7)" xlink:href="#DejaVuSans-Oblique-960"/>
       <use transform="translate(21 -38.490625)scale(0.7)" xlink:href="#DejaVuSans-50"/>
       <path d="M 0 19.7125 
L 0 25.9625 
L 86.679688 25.9625 
L 86.679688 19.7125 
L 0 19.7125 
z
"/>
      </g>
     </g>
    </g>
    <g id="xtick_15">
     <g id="line2d_47">
      <g>
       <use style="stroke:#000000;stroke-width:0.8;" x="401.058172" xlink:href="#m44da5ab208" y="408.515"/>
      </g>
     </g>
     <g id="text_66">
      <!-- $2\pi$ -->
      <g transform="translate(394.858172 423.113438)scale(0.1 -0.1)">
       <use transform="translate(0 0.78125)" xlink:href="#DejaVuSans-50"/>
       <use transform="translate(63.623047 0.78125)" xlink:href="#DejaVuSans-Oblique-960"/>
      </g>
     </g>
    </g>
    <g id="text_67">
     <!-- Betatron phase $\psi_x(s) / Q_x$ -->
     <g transform="translate(206.69 440.915)scale(0.1 -0.1)">
      <defs>
       <path d="M 19.671875 34.8125 
L 19.671875 8.109375 
L 35.5 8.109375 
Q 43.453125 8.109375 47.28125 11.40625 
Q 51.125 14.703125 51.125 21.484375 
Q 51.125 28.328125 47.28125 31.5625 
Q 43.453125 34.8125 35.5 34.8125 
z
M 19.671875 64.796875 
L 19.671875 42.828125 
L 34.28125 42.828125 
Q 41.5 42.828125 45.03125 45.53125 
Q 48.578125 48.25 48.578125 53.8125 
Q 48.578125 59.328125 45.03125 62.0625 
Q 41.5 64.796875 34.28125 64.796875 
z
M 9.8125 72.90625 
L 35.015625 72.90625 
Q 46.296875 72.90625 52.390625 68.21875 
Q 58.5 63.53125 58.5 54.890625 
Q 58.5 48.1875 55.375 44.234375 
Q 52.25 40.28125 46.1875 39.3125 
Q 53.46875 37.75 57.5 32.78125 
Q 61.53125 27.828125 61.53125 20.40625 
Q 61.53125 10.640625 54.890625 5.3125 
Q 48.25 0 35.984375 0 
L 9.8125 0 
z
" id="DejaVuSans-66"/>
       <path d="M 34.28125 27.484375 
Q 23.390625 27.484375 19.1875 25 
Q 14.984375 22.515625 14.984375 16.5 
Q 14.984375 11.71875 18.140625 8.90625 
Q 21.296875 6.109375 26.703125 6.109375 
Q 34.1875 6.109375 38.703125 11.40625 
Q 43.21875 16.703125 43.21875 25.484375 
L 43.21875 27.484375 
z
M 52.203125 31.203125 
L 52.203125 0 
L 43.21875 0 
L 43.21875 8.296875 
Q 40.140625 3.328125 35.546875 0.953125 
Q 30.953125 -1.421875 24.3125 -1.421875 
Q 15.921875 -1.421875 10.953125 3.296875 
Q 6 8.015625 6 15.921875 
Q 6 25.140625 12.171875 29.828125 
Q 18.359375 34.515625 30.609375 34.515625 
L 43.21875 34.515625 
L 43.21875 35.40625 
Q 43.21875 41.609375 39.140625 45 
Q 35.0625 48.390625 27.6875 48.390625 
Q 23 48.390625 18.546875 47.265625 
Q 14.109375 46.140625 10.015625 43.890625 
L 10.015625 52.203125 
Q 14.9375 54.109375 19.578125 55.046875 
Q 24.21875 56 28.609375 56 
Q 40.484375 56 46.34375 49.84375 
Q 52.203125 43.703125 52.203125 31.203125 
z
" id="DejaVuSans-97"/>
       <path d="M 54.890625 33.015625 
L 54.890625 0 
L 45.90625 0 
L 45.90625 32.71875 
Q 45.90625 40.484375 42.875 44.328125 
Q 39.84375 48.1875 33.796875 48.1875 
Q 26.515625 48.1875 22.3125 43.546875 
Q 18.109375 38.921875 18.109375 30.90625 
L 18.109375 0 
L 9.078125 0 
L 9.078125 75.984375 
L 18.109375 75.984375 
L 18.109375 46.1875 
Q 21.34375 51.125 25.703125 53.5625 
Q 30.078125 56 35.796875 56 
Q 45.21875 56 50.046875 50.171875 
Q 54.890625 44.34375 54.890625 33.015625 
z
" id="DejaVuSans-104"/>
       <path d="M 24.859375 -1.21875 
Q 13.921875 0.59375 9.625 5.328125 
Q 4.34375 11.140625 6.640625 23 
L 12.796875 54.6875 
L 21.875 54.6875 
L 15.765625 23.34375 
Q 14.0625 14.40625 17.484375 10.6875 
Q 20.515625 7.46875 26.421875 6.78125 
L 35.6875 54.6875 
L 44.625 54.6875 
L 35.359375 6.84375 
Q 41.890625 7.515625 45.75 10.75 
Q 50.734375 14.84375 52.390625 23.390625 
L 58.453125 54.6875 
L 67.53125 54.6875 
L 61.375 23.046875 
Q 58.984375 10.75 51.5625 5.375 
Q 44.875 0.53125 33.796875 -1.171875 
L 29.984375 -20.796875 
L 21.046875 -20.796875 
z
" id="DejaVuSans-Oblique-968"/>
       <path d="M 36.078125 -1.3125 
Q 35.546875 -1.375 34.953125 -1.390625 
Q 34.375 -1.421875 33.203125 -1.421875 
Q 19.53125 -1.421875 11.8125 6.421875 
Q 4.109375 14.265625 4.109375 28.078125 
Q 4.109375 36.234375 7.0625 44.4375 
Q 10.015625 52.640625 15.28125 59.1875 
Q 21.390625 66.703125 29.03125 70.453125 
Q 36.671875 74.21875 45.90625 74.21875 
Q 59.28125 74.21875 66.984375 66.328125 
Q 74.703125 58.453125 74.703125 44.828125 
Q 74.703125 30.125 66.640625 17.921875 
Q 58.59375 5.71875 45.609375 0.6875 
L 55.515625 -12.890625 
L 44.484375 -12.890625 
z
M 45.609375 66.21875 
Q 37.5 66.21875 31.296875 62.28125 
Q 25.09375 58.34375 20.515625 50.296875 
Q 17.578125 45.171875 16.03125 39.40625 
Q 14.5 33.640625 14.5 27.78125 
Q 14.5 17.625 19.359375 12.109375 
Q 24.21875 6.59375 33.109375 6.59375 
Q 41.109375 6.59375 47.375 10.5625 
Q 53.65625 14.546875 58.109375 22.40625 
Q 61.078125 27.6875 62.640625 33.46875 
Q 64.203125 39.265625 64.203125 45.015625 
Q 64.203125 55.125 59.3125 60.671875 
Q 54.4375 66.21875 45.609375 66.21875 
z
" id="DejaVuSans-Oblique-81"/>
      </defs>
      <use transform="translate(0 0.015625)" xlink:href="#DejaVuSans-66"/>
      <use transform="translate(68.603516 0.015625)" xlink:href="#DejaVuSans-101"/>
      <use transform="translate(130.126953 0.015625)" xlink:href="#DejaVuSans-116"/>
      <use transform="translate(169.335938 0.015625)" xlink:href="#DejaVuSans-97"/>
      <use transform="translate(230.615234 0.015625)" xlink:href="#DejaVuSans-116"/>
      <use transform="translate(269.824219 0.015625)" xlink:href="#DejaVuSans-114"/>
      <use transform="translate(310.9375 0.015625)" xlink:href="#DejaVuSans-111"/>
      <use transform="translate(372.119141 0.015625)" xlink:href="#DejaVuSans-110"/>
      <use transform="translate(435.498047 0.015625)" xlink:href="#DejaVuSans-32"/>
      <use transform="translate(467.285156 0.015625)" xlink:href="#DejaVuSans-112"/>
      <use transform="translate(530.761719 0.015625)" xlink:href="#DejaVuSans-104"/>
      <use transform="translate(594.140625 0.015625)" xlink:href="#DejaVuSans-97"/>
      <use transform="translate(655.419922 0.015625)" xlink:href="#DejaVuSans-115"/>
      <use transform="translate(707.519531 0.015625)" xlink:href="#DejaVuSans-101"/>
      <use transform="translate(769.042969 0.015625)" xlink:href="#DejaVuSans-32"/>
      <use transform="translate(800.830078 0.015625)" xlink:href="#DejaVuSans-Oblique-968"/>
      <use transform="translate(866.796875 -16.390625)scale(0.7)" xlink:href="#DejaVuSans-Oblique-120"/>
      <use transform="translate(910.957031 0.015625)" xlink:href="#DejaVuSans-40"/>
      <use transform="translate(949.970703 0.015625)" xlink:href="#DejaVuSans-Oblique-115"/>
      <use transform="translate(1002.070312 0.015625)" xlink:href="#DejaVuSans-41"/>
      <use transform="translate(1041.083984 0.015625)" xlink:href="#DejaVuSans-47"/>
      <use transform="translate(1074.775391 0.015625)" xlink:href="#DejaVuSans-Oblique-81"/>
      <use transform="translate(1153.486328 -16.390625)scale(0.7)" xlink:href="#DejaVuSans-Oblique-120"/>
     </g>
    </g>
   </g>
   <g id="matplotlib.axis_6">
    <g id="ytick_9">
     <g id="line2d_48">
      <g>
       <use style="stroke:#000000;stroke-width:0.8;" x="83.18" xlink:href="#m52f151ff5f" y="393.745075"/>
      </g>
     </g>
     <g id="text_68">
      <!-- −2 -->
      <g transform="translate(61.437813 397.544294)scale(0.1 -0.1)">
       <use xlink:href="#DejaVuSans-8722"/>
       <use x="83.789062" xlink:href="#DejaVuSans-50"/>
      </g>
     </g>
    </g>
    <g id="ytick_10">
     <g id="line2d_49">
      <g>
       <use style="stroke:#000000;stroke-width:0.8;" x="83.18" xlink:href="#m52f151ff5f" y="362.151844"/>
      </g>
     </g>
     <g id="text_69">
      <!-- 0 -->
      <g transform="translate(69.8175 365.951063)scale(0.1 -0.1)">
       <use xlink:href="#DejaVuSans-48"/>
      </g>
     </g>
    </g>
    <g id="ytick_11">
     <g id="line2d_50">
      <g>
       <use style="stroke:#000000;stroke-width:0.8;" x="83.18" xlink:href="#m52f151ff5f" y="330.558613"/>
      </g>
     </g>
     <g id="text_70">
      <!-- 2 -->
      <g transform="translate(69.8175 334.357832)scale(0.1 -0.1)">
       <use xlink:href="#DejaVuSans-50"/>
      </g>
     </g>
    </g>
    <g id="text_71">
     <!-- $x(s) / \sqrt{\beta(s)}$ -->
     <g transform="translate(55.337813 387.951716)rotate(-90)scale(0.1 -0.1)">
      <use transform="translate(0 0.171875)" xlink:href="#DejaVuSans-Oblique-120"/>
      <use transform="translate(59.179688 0.171875)" xlink:href="#DejaVuSans-40"/>
      <use transform="translate(98.193359 0.171875)" xlink:href="#DejaVuSans-Oblique-115"/>
      <use transform="translate(150.292969 0.171875)" xlink:href="#DejaVuSans-41"/>
      <use transform="translate(189.306641 0.171875)" xlink:href="#DejaVuSans-47"/>
      <use transform="translate(222.998047 -0.078125)scale(0.696557)" xlink:href="#STIXSizeOneSym-Regular-8730"/>
      <use transform="translate(309.1082 0.140625)" xlink:href="#DejaVuSans-Oblique-946"/>
      <use transform="translate(372.926559 0.140625)" xlink:href="#DejaVuSans-40"/>
      <use transform="translate(411.940231 0.140625)" xlink:href="#DejaVuSans-Oblique-115"/>
      <use transform="translate(464.039841 0.140625)" xlink:href="#DejaVuSans-41"/>
      <path d="M 296.6082 101.5 
L 296.6082 107.75 
L 515.553513 107.75 
L 515.553513 101.5 
L 296.6082 101.5 
z
"/>
     </g>
    </g>
    <g id="text_72">
     <!-- 1e−5 -->
     <g transform="translate(83.18 312.788431)scale(0.1 -0.1)">
      <use xlink:href="#DejaVuSans-49"/>
      <use x="63.623047" xlink:href="#DejaVuSans-101"/>
      <use x="125.146484" xlink:href="#DejaVuSans-8722"/>
      <use x="208.935547" xlink:href="#DejaVuSans-53"/>
     </g>
    </g>
   </g>
   <g id="line2d_51">
    <path clip-path="url(#p4e270e28bd)" d="M 99.853636 320.003275 
L 103.169654 320.104036 
L 106.074357 320.35746 
L 109.096052 320.783572 
L 112.935443 321.561279 
L 116.114762 322.402108 
L 120.65304 323.904064 
L 123.723957 325.115781 
L 127.197392 326.669131 
L 131.113625 328.643457 
L 135.500036 331.119765 
L 140.304725 334.13067 
L 145.21079 337.495423 
L 149.828306 340.898039 
L 155.878062 345.647624 
L 162.422414 351.07772 
L 171.529269 358.950314 
L 188.574191 373.774935 
L 194.914367 379.012387 
L 201.307937 383.99504 
L 207.092139 388.173785 
L 212.466206 391.7189 
L 216.61533 394.204611 
L 221.232846 396.688778 
L 224.905909 398.437501 
L 228.578972 399.973121 
L 230.9436 400.844657 
L 235.330011 402.210016 
L 239.246244 403.146022 
L 242.719679 403.747567 
L 245.790596 404.097748 
L 248.503881 404.264081 
L 251.990805 404.279971 
L 256.173025 404.005762 
L 259.43662 403.570766 
L 263.273983 402.814126 
L 267.105047 401.798873 
L 270.380219 400.730093 
L 273.74338 399.445764 
L 277.006975 398.024563 
L 281.189195 395.961989 
L 285.990884 393.278119 
L 290.460321 390.498068 
L 295.834388 386.831468 
L 299.983512 383.785813 
L 305.814611 379.235664 
L 311.947154 374.178122 
L 320.713794 366.630762 
L 339.541207 350.258203 
L 346.642165 344.423976 
L 352.387134 339.980228 
L 357.111562 336.562149 
L 361.650731 333.512538 
L 366.219307 330.702263 
L 370.757586 328.191909 
L 375.5122 325.887458 
L 379.20257 324.343206 
L 383.351694 322.874569 
L 387.96921 321.585879 
L 391.642273 320.828835 
L 395.315336 320.314478 
L 397.679964 320.113233 
L 402.066375 320.011085 
L 405.982608 320.21778 
L 409.456043 320.635124 
L 412.52696 321.18553 
L 415.240245 321.811654 
L 418.727169 322.804898 
L 422.909389 324.269721 
L 427.105643 326.028805 
L 431.312725 328.070574 
L 433.326364 329.141821 
L 433.326364 329.141821 
" style="fill:none;stroke:#1f77b4;stroke-linecap:square;stroke-width:1.5;"/>
   </g>
   <g id="patch_47">
    <path d="M 83.18 408.515 
L 83.18 315.788431 
" style="fill:none;stroke:#000000;stroke-linecap:square;stroke-linejoin:miter;stroke-width:0.8;"/>
   </g>
   <g id="patch_48">
    <path d="M 450 408.515 
L 450 315.788431 
" style="fill:none;stroke:#000000;stroke-linecap:square;stroke-linejoin:miter;stroke-width:0.8;"/>
   </g>
   <g id="patch_49">
    <path d="M 83.18 408.515 
L 450 408.515 
" style="fill:none;stroke:#000000;stroke-linecap:square;stroke-linejoin:miter;stroke-width:0.8;"/>
   </g>
   <g id="patch_50">
    <path d="M 83.18 315.788431 
L 450 315.788431 
" style="fill:none;stroke:#000000;stroke-linecap:square;stroke-linejoin:miter;stroke-width:0.8;"/>
   </g>
  </g>
 </g>
 <defs>
  <clipPath id="p42e4109844">
   <rect height="92.726569" width="366.82" x="83.18" y="18.815294"/>
  </clipPath>
  <clipPath id="p6eefba3386">
   <rect height="92.726569" width="366.82" x="83.18" y="167.301863"/>
  </clipPath>
  <clipPath id="p4e270e28bd">
   <rect height="92.726569" width="366.82" x="83.18" y="315.788431"/>
  </clipPath>
 </defs>
</svg>
