<?xml version="1.0" encoding="utf-8" standalone="no"?>
<!DOCTYPE svg PUBLIC "-//W3C//DTD SVG 1.1//EN"
  "http://www.w3.org/Graphics/SVG/1.1/DTD/svg11.dtd">
<!-- Created with matplotlib (https://matplotlib.org/) -->
<svg height="345.6pt" version="1.1" viewBox="0 0 460.8 345.6" width="460.8pt" xmlns="http://www.w3.org/2000/svg" xmlns:xlink="http://www.w3.org/1999/xlink">
 <metadata>
  <rdf:RDF xmlns:cc="http://creativecommons.org/ns#" xmlns:dc="http://purl.org/dc/elements/1.1/" xmlns:rdf="http://www.w3.org/1999/02/22-rdf-syntax-ns#">
   <cc:Work>
    <dc:type rdf:resource="http://purl.org/dc/dcmitype/StillImage"/>
    <dc:date>2020-09-28T00:14:15.018631</dc:date>
    <dc:format>image/svg+xml</dc:format>
    <dc:creator>
     <cc:Agent>
      <dc:title>Matplotlib v3.3.1, https://matplotlib.org/</dc:title>
     </cc:Agent>
    </dc:creator>
   </cc:Work>
  </rdf:RDF>
 </metadata>
 <defs>
  <style type="text/css">*{stroke-linecap:butt;stroke-linejoin:round;}</style>
 </defs>
 <g id="figure_1">
  <g id="patch_1">
   <path d="M 0 345.6 
L 460.8 345.6 
L 460.8 0 
L 0 0 
z
" style="fill:#ffffff;"/>
  </g>
  <g id="axes_1">
   <g id="patch_2">
    <path d="M 30.58 130.60974 
L 438.54487 130.60974 
L 438.54487 38.115 
L 30.58 38.115 
z
" style="fill:#ffffff;"/>
   </g>
   <g id="line2d_1">
    <path clip-path="url(#peaf0115fe2)" d="M 30.58 127.05225 
L 31.85489 127.05225 
L 33.12978 127.05225 
L 34.404671 127.05225 
L 35.679561 127.05225 
L 36.954451 127.05225 
L 38.229341 127.05225 
L 39.504232 127.05225 
L 40.779122 127.05225 
L 42.054012 127.05225 
L 43.328902 127.05225 
L 61.177365 127.05225 
L 79.025828 127.05225 
L 96.874291 127.05225 
L 114.722754 127.05225 
L 132.571218 127.05225 
L 150.419681 127.05225 
L 168.268144 127.05225 
L 186.116607 127.05225 
L 203.96507 127.05225 
L 221.813533 127.05225 
L 224.363313 127.05225 
L 226.913094 127.05225 
L 229.462874 127.05225 
L 232.012655 127.05225 
L 234.562435 127.05225 
L 237.112216 127.05225 
L 239.661996 127.05225 
L 242.211776 127.05225 
L 244.761557 127.05225 
L 247.311337 127.05225 
L 265.1598 127.05225 
L 283.008263 127.05225 
L 300.856726 127.05225 
L 318.70519 127.05225 
L 336.553653 127.05225 
L 354.402116 127.05225 
L 372.250579 127.05225 
L 390.099042 127.05225 
L 407.947505 127.05225 
L 425.795968 127.05225 
L 427.070858 127.05225 
L 428.345748 127.05225 
L 429.620639 127.05225 
L 430.895529 127.05225 
L 432.170419 127.05225 
L 433.445309 127.05225 
L 434.720199 127.05225 
L 435.99509 127.05225 
L 437.26998 127.05225 
L 438.54487 127.05225 
" style="fill:none;stroke:#3cb371;stroke-linecap:square;stroke-width:1.3;"/>
   </g>
   <g id="line2d_2">
    <path clip-path="url(#peaf0115fe2)" d="M 30.58 120.178521 
L 31.85489 120.173932 
L 33.12978 120.160158 
L 34.404671 120.13717 
L 35.679561 120.104923 
L 36.954451 120.063352 
L 38.229341 120.012374 
L 39.504232 119.951887 
L 40.779122 119.881769 
L 42.054012 119.801882 
L 43.328902 119.712064 
L 61.177365 118.113032 
L 79.025828 115.971486 
L 96.874291 113.287427 
L 114.722754 110.060855 
L 132.571218 106.29177 
L 150.419681 101.980171 
L 168.268144 97.126059 
L 186.116607 91.729434 
L 203.96507 85.790295 
L 221.813533 79.308643 
L 224.363313 78.435119 
L 226.913094 77.748361 
L 229.462874 77.25386 
L 232.012655 76.95557 
L 234.562435 76.855874 
L 237.112216 76.95557 
L 239.661996 77.25386 
L 242.211776 77.748361 
L 244.761557 78.435119 
L 247.311337 79.308643 
L 265.1598 85.790295 
L 283.008263 91.729434 
L 300.856726 97.126059 
L 318.70519 101.980171 
L 336.553653 106.29177 
L 354.402116 110.060855 
L 372.250579 113.287427 
L 390.099042 115.971486 
L 407.947505 118.113032 
L 425.795968 119.712064 
L 427.070858 119.801882 
L 428.345748 119.881769 
L 429.620639 119.951887 
L 430.895529 120.012374 
L 432.170419 120.063352 
L 433.445309 120.104923 
L 434.720199 120.13717 
L 435.99509 120.160158 
L 437.26998 120.173932 
L 438.54487 120.178521 
" style="fill:none;stroke:#1e90ff;stroke-linecap:square;stroke-width:1.3;"/>
   </g>
   <g id="matplotlib.axis_1">
    <g id="xtick_1">
     <g id="line2d_3">
      <path clip-path="url(#peaf0115fe2)" d="M 30.58 130.60974 
L 30.58 38.115 
" style="fill:none;stroke:#b0b0b0;stroke-dasharray:2.96,1.28;stroke-dashoffset:0;stroke-width:0.8;"/>
     </g>
     <g id="line2d_4">
      <defs>
       <path d="M 0 0 
L 0 3.5 
" id="m26ace49e5f" style="stroke:#000000;stroke-width:0.8;"/>
      </defs>
      <g>
       <use style="stroke:#000000;stroke-width:0.8;" x="30.58" xlink:href="#m26ace49e5f" y="130.60974"/>
      </g>
     </g>
     <g id="text_1">
      <!-- 0.00 -->
      <g transform="translate(24.659086 158.726821)rotate(-45)scale(0.1 -0.1)">
       <defs>
        <path d="M 31.78125 66.40625 
Q 24.171875 66.40625 20.328125 58.90625 
Q 16.5 51.421875 16.5 36.375 
Q 16.5 21.390625 20.328125 13.890625 
Q 24.171875 6.390625 31.78125 6.390625 
Q 39.453125 6.390625 43.28125 13.890625 
Q 47.125 21.390625 47.125 36.375 
Q 47.125 51.421875 43.28125 58.90625 
Q 39.453125 66.40625 31.78125 66.40625 
z
M 31.78125 74.21875 
Q 44.046875 74.21875 50.515625 64.515625 
Q 56.984375 54.828125 56.984375 36.375 
Q 56.984375 17.96875 50.515625 8.265625 
Q 44.046875 -1.421875 31.78125 -1.421875 
Q 19.53125 -1.421875 13.0625 8.265625 
Q 6.59375 17.96875 6.59375 36.375 
Q 6.59375 54.828125 13.0625 64.515625 
Q 19.53125 74.21875 31.78125 74.21875 
z
" id="DejaVuSans-48"/>
        <path d="M 10.6875 12.40625 
L 21 12.40625 
L 21 0 
L 10.6875 0 
z
" id="DejaVuSans-46"/>
       </defs>
       <use xlink:href="#DejaVuSans-48"/>
       <use x="63.623047" xlink:href="#DejaVuSans-46"/>
       <use x="95.410156" xlink:href="#DejaVuSans-48"/>
       <use x="159.033203" xlink:href="#DejaVuSans-48"/>
      </g>
     </g>
    </g>
    <g id="xtick_2">
     <g id="line2d_5">
      <path clip-path="url(#peaf0115fe2)" d="M 43.328902 130.60974 
L 43.328902 38.115 
" style="fill:none;stroke:#b0b0b0;stroke-dasharray:2.96,1.28;stroke-dashoffset:0;stroke-width:0.8;"/>
     </g>
     <g id="line2d_6">
      <g>
       <use style="stroke:#000000;stroke-width:0.8;" x="43.328902" xlink:href="#m26ace49e5f" y="130.60974"/>
      </g>
     </g>
     <g id="text_2">
      <!-- 0.25 -->
      <g transform="translate(37.407988 158.726821)rotate(-45)scale(0.1 -0.1)">
       <defs>
        <path d="M 19.1875 8.296875 
L 53.609375 8.296875 
L 53.609375 0 
L 7.328125 0 
L 7.328125 8.296875 
Q 12.9375 14.109375 22.625 23.890625 
Q 32.328125 33.6875 34.8125 36.53125 
Q 39.546875 41.84375 41.421875 45.53125 
Q 43.3125 49.21875 43.3125 52.78125 
Q 43.3125 58.59375 39.234375 62.25 
Q 35.15625 65.921875 28.609375 65.921875 
Q 23.96875 65.921875 18.8125 64.3125 
Q 13.671875 62.703125 7.8125 59.421875 
L 7.8125 69.390625 
Q 13.765625 71.78125 18.9375 73 
Q 24.125 74.21875 28.421875 74.21875 
Q 39.75 74.21875 46.484375 68.546875 
Q 53.21875 62.890625 53.21875 53.421875 
Q 53.21875 48.921875 51.53125 44.890625 
Q 49.859375 40.875 45.40625 35.40625 
Q 44.1875 33.984375 37.640625 27.21875 
Q 31.109375 20.453125 19.1875 8.296875 
z
" id="DejaVuSans-50"/>
        <path d="M 10.796875 72.90625 
L 49.515625 72.90625 
L 49.515625 64.59375 
L 19.828125 64.59375 
L 19.828125 46.734375 
Q 21.96875 47.46875 24.109375 47.828125 
Q 26.265625 48.1875 28.421875 48.1875 
Q 40.625 48.1875 47.75 41.5 
Q 54.890625 34.8125 54.890625 23.390625 
Q 54.890625 11.625 47.5625 5.09375 
Q 40.234375 -1.421875 26.90625 -1.421875 
Q 22.3125 -1.421875 17.546875 -0.640625 
Q 12.796875 0.140625 7.71875 1.703125 
L 7.71875 11.625 
Q 12.109375 9.234375 16.796875 8.0625 
Q 21.484375 6.890625 26.703125 6.890625 
Q 35.15625 6.890625 40.078125 11.328125 
Q 45.015625 15.765625 45.015625 23.390625 
Q 45.015625 31 40.078125 35.4375 
Q 35.15625 39.890625 26.703125 39.890625 
Q 22.75 39.890625 18.8125 39.015625 
Q 14.890625 38.140625 10.796875 36.28125 
z
" id="DejaVuSans-53"/>
       </defs>
       <use xlink:href="#DejaVuSans-48"/>
       <use x="63.623047" xlink:href="#DejaVuSans-46"/>
       <use x="95.410156" xlink:href="#DejaVuSans-50"/>
       <use x="159.033203" xlink:href="#DejaVuSans-53"/>
      </g>
     </g>
    </g>
    <g id="xtick_3">
     <g id="line2d_7">
      <path clip-path="url(#peaf0115fe2)" d="M 221.813533 130.60974 
L 221.813533 38.115 
" style="fill:none;stroke:#b0b0b0;stroke-dasharray:2.96,1.28;stroke-dashoffset:0;stroke-width:0.8;"/>
     </g>
     <g id="line2d_8">
      <g>
       <use style="stroke:#000000;stroke-width:0.8;" x="221.813533" xlink:href="#m26ace49e5f" y="130.60974"/>
      </g>
     </g>
     <g id="text_3">
      <!-- 3.75 -->
      <g transform="translate(215.892618 158.726821)rotate(-45)scale(0.1 -0.1)">
       <defs>
        <path d="M 40.578125 39.3125 
Q 47.65625 37.796875 51.625 33 
Q 55.609375 28.21875 55.609375 21.1875 
Q 55.609375 10.40625 48.1875 4.484375 
Q 40.765625 -1.421875 27.09375 -1.421875 
Q 22.515625 -1.421875 17.65625 -0.515625 
Q 12.796875 0.390625 7.625 2.203125 
L 7.625 11.71875 
Q 11.71875 9.328125 16.59375 8.109375 
Q 21.484375 6.890625 26.8125 6.890625 
Q 36.078125 6.890625 40.9375 10.546875 
Q 45.796875 14.203125 45.796875 21.1875 
Q 45.796875 27.640625 41.28125 31.265625 
Q 36.765625 34.90625 28.71875 34.90625 
L 20.21875 34.90625 
L 20.21875 43.015625 
L 29.109375 43.015625 
Q 36.375 43.015625 40.234375 45.921875 
Q 44.09375 48.828125 44.09375 54.296875 
Q 44.09375 59.90625 40.109375 62.90625 
Q 36.140625 65.921875 28.71875 65.921875 
Q 24.65625 65.921875 20.015625 65.03125 
Q 15.375 64.15625 9.8125 62.3125 
L 9.8125 71.09375 
Q 15.4375 72.65625 20.34375 73.4375 
Q 25.25 74.21875 29.59375 74.21875 
Q 40.828125 74.21875 47.359375 69.109375 
Q 53.90625 64.015625 53.90625 55.328125 
Q 53.90625 49.265625 50.4375 45.09375 
Q 46.96875 40.921875 40.578125 39.3125 
z
" id="DejaVuSans-51"/>
        <path d="M 8.203125 72.90625 
L 55.078125 72.90625 
L 55.078125 68.703125 
L 28.609375 0 
L 18.3125 0 
L 43.21875 64.59375 
L 8.203125 64.59375 
z
" id="DejaVuSans-55"/>
       </defs>
       <use xlink:href="#DejaVuSans-51"/>
       <use x="63.623047" xlink:href="#DejaVuSans-46"/>
       <use x="95.410156" xlink:href="#DejaVuSans-55"/>
       <use x="159.033203" xlink:href="#DejaVuSans-53"/>
      </g>
     </g>
    </g>
    <g id="xtick_4">
     <g id="line2d_9">
      <path clip-path="url(#peaf0115fe2)" d="M 247.311337 130.60974 
L 247.311337 38.115 
" style="fill:none;stroke:#b0b0b0;stroke-dasharray:2.96,1.28;stroke-dashoffset:0;stroke-width:0.8;"/>
     </g>
     <g id="line2d_10">
      <g>
       <use style="stroke:#000000;stroke-width:0.8;" x="247.311337" xlink:href="#m26ace49e5f" y="130.60974"/>
      </g>
     </g>
     <g id="text_4">
      <!-- 4.25 -->
      <g transform="translate(241.390423 158.726821)rotate(-45)scale(0.1 -0.1)">
       <defs>
        <path d="M 37.796875 64.3125 
L 12.890625 25.390625 
L 37.796875 25.390625 
z
M 35.203125 72.90625 
L 47.609375 72.90625 
L 47.609375 25.390625 
L 58.015625 25.390625 
L 58.015625 17.1875 
L 47.609375 17.1875 
L 47.609375 0 
L 37.796875 0 
L 37.796875 17.1875 
L 4.890625 17.1875 
L 4.890625 26.703125 
z
" id="DejaVuSans-52"/>
       </defs>
       <use xlink:href="#DejaVuSans-52"/>
       <use x="63.623047" xlink:href="#DejaVuSans-46"/>
       <use x="95.410156" xlink:href="#DejaVuSans-50"/>
       <use x="159.033203" xlink:href="#DejaVuSans-53"/>
      </g>
     </g>
    </g>
    <g id="xtick_5">
     <g id="line2d_11">
      <path clip-path="url(#peaf0115fe2)" d="M 425.795968 130.60974 
L 425.795968 38.115 
" style="fill:none;stroke:#b0b0b0;stroke-dasharray:2.96,1.28;stroke-dashoffset:0;stroke-width:0.8;"/>
     </g>
     <g id="line2d_12">
      <g>
       <use style="stroke:#000000;stroke-width:0.8;" x="425.795968" xlink:href="#m26ace49e5f" y="130.60974"/>
      </g>
     </g>
     <g id="text_5">
      <!-- 7.75 -->
      <g transform="translate(419.875054 158.726821)rotate(-45)scale(0.1 -0.1)">
       <use xlink:href="#DejaVuSans-55"/>
       <use x="63.623047" xlink:href="#DejaVuSans-46"/>
       <use x="95.410156" xlink:href="#DejaVuSans-55"/>
       <use x="159.033203" xlink:href="#DejaVuSans-53"/>
      </g>
     </g>
    </g>
    <g id="xtick_6">
     <g id="line2d_13">
      <path clip-path="url(#peaf0115fe2)" d="M 438.54487 130.60974 
L 438.54487 38.115 
" style="fill:none;stroke:#b0b0b0;stroke-dasharray:2.96,1.28;stroke-dashoffset:0;stroke-width:0.8;"/>
     </g>
     <g id="line2d_14">
      <g>
       <use style="stroke:#000000;stroke-width:0.8;" x="438.54487" xlink:href="#m26ace49e5f" y="130.60974"/>
      </g>
     </g>
     <g id="text_6">
      <!-- 8.00 -->
      <g transform="translate(432.623956 158.726821)rotate(-45)scale(0.1 -0.1)">
       <defs>
        <path d="M 31.78125 34.625 
Q 24.75 34.625 20.71875 30.859375 
Q 16.703125 27.09375 16.703125 20.515625 
Q 16.703125 13.921875 20.71875 10.15625 
Q 24.75 6.390625 31.78125 6.390625 
Q 38.8125 6.390625 42.859375 10.171875 
Q 46.921875 13.96875 46.921875 20.515625 
Q 46.921875 27.09375 42.890625 30.859375 
Q 38.875 34.625 31.78125 34.625 
z
M 21.921875 38.8125 
Q 15.578125 40.375 12.03125 44.71875 
Q 8.5 49.078125 8.5 55.328125 
Q 8.5 64.0625 14.71875 69.140625 
Q 20.953125 74.21875 31.78125 74.21875 
Q 42.671875 74.21875 48.875 69.140625 
Q 55.078125 64.0625 55.078125 55.328125 
Q 55.078125 49.078125 51.53125 44.71875 
Q 48 40.375 41.703125 38.8125 
Q 48.828125 37.15625 52.796875 32.3125 
Q 56.78125 27.484375 56.78125 20.515625 
Q 56.78125 9.90625 50.3125 4.234375 
Q 43.84375 -1.421875 31.78125 -1.421875 
Q 19.734375 -1.421875 13.25 4.234375 
Q 6.78125 9.90625 6.78125 20.515625 
Q 6.78125 27.484375 10.78125 32.3125 
Q 14.796875 37.15625 21.921875 38.8125 
z
M 18.3125 54.390625 
Q 18.3125 48.734375 21.84375 45.5625 
Q 25.390625 42.390625 31.78125 42.390625 
Q 38.140625 42.390625 41.71875 45.5625 
Q 45.3125 48.734375 45.3125 54.390625 
Q 45.3125 60.0625 41.71875 63.234375 
Q 38.140625 66.40625 31.78125 66.40625 
Q 25.390625 66.40625 21.84375 63.234375 
Q 18.3125 60.0625 18.3125 54.390625 
z
" id="DejaVuSans-56"/>
       </defs>
       <use xlink:href="#DejaVuSans-56"/>
       <use x="63.623047" xlink:href="#DejaVuSans-46"/>
       <use x="95.410156" xlink:href="#DejaVuSans-48"/>
       <use x="159.033203" xlink:href="#DejaVuSans-48"/>
      </g>
     </g>
    </g>
    <g id="text_7">
     <!-- Orbit Position $s$ / m -->
     <g transform="translate(186.862435 171.79582)scale(0.1 -0.1)">
      <defs>
       <path d="M 39.40625 66.21875 
Q 28.65625 66.21875 22.328125 58.203125 
Q 16.015625 50.203125 16.015625 36.375 
Q 16.015625 22.609375 22.328125 14.59375 
Q 28.65625 6.59375 39.40625 6.59375 
Q 50.140625 6.59375 56.421875 14.59375 
Q 62.703125 22.609375 62.703125 36.375 
Q 62.703125 50.203125 56.421875 58.203125 
Q 50.140625 66.21875 39.40625 66.21875 
z
M 39.40625 74.21875 
Q 54.734375 74.21875 63.90625 63.9375 
Q 73.09375 53.65625 73.09375 36.375 
Q 73.09375 19.140625 63.90625 8.859375 
Q 54.734375 -1.421875 39.40625 -1.421875 
Q 24.03125 -1.421875 14.8125 8.828125 
Q 5.609375 19.09375 5.609375 36.375 
Q 5.609375 53.65625 14.8125 63.9375 
Q 24.03125 74.21875 39.40625 74.21875 
z
" id="DejaVuSans-79"/>
       <path d="M 41.109375 46.296875 
Q 39.59375 47.171875 37.8125 47.578125 
Q 36.03125 48 33.890625 48 
Q 26.265625 48 22.1875 43.046875 
Q 18.109375 38.09375 18.109375 28.8125 
L 18.109375 0 
L 9.078125 0 
L 9.078125 54.6875 
L 18.109375 54.6875 
L 18.109375 46.1875 
Q 20.953125 51.171875 25.484375 53.578125 
Q 30.03125 56 36.53125 56 
Q 37.453125 56 38.578125 55.875 
Q 39.703125 55.765625 41.0625 55.515625 
z
" id="DejaVuSans-114"/>
       <path d="M 48.6875 27.296875 
Q 48.6875 37.203125 44.609375 42.84375 
Q 40.53125 48.484375 33.40625 48.484375 
Q 26.265625 48.484375 22.1875 42.84375 
Q 18.109375 37.203125 18.109375 27.296875 
Q 18.109375 17.390625 22.1875 11.75 
Q 26.265625 6.109375 33.40625 6.109375 
Q 40.53125 6.109375 44.609375 11.75 
Q 48.6875 17.390625 48.6875 27.296875 
z
M 18.109375 46.390625 
Q 20.953125 51.265625 25.265625 53.625 
Q 29.59375 56 35.59375 56 
Q 45.5625 56 51.78125 48.09375 
Q 58.015625 40.1875 58.015625 27.296875 
Q 58.015625 14.40625 51.78125 6.484375 
Q 45.5625 -1.421875 35.59375 -1.421875 
Q 29.59375 -1.421875 25.265625 0.953125 
Q 20.953125 3.328125 18.109375 8.203125 
L 18.109375 0 
L 9.078125 0 
L 9.078125 75.984375 
L 18.109375 75.984375 
z
" id="DejaVuSans-98"/>
       <path d="M 9.421875 54.6875 
L 18.40625 54.6875 
L 18.40625 0 
L 9.421875 0 
z
M 9.421875 75.984375 
L 18.40625 75.984375 
L 18.40625 64.59375 
L 9.421875 64.59375 
z
" id="DejaVuSans-105"/>
       <path d="M 18.3125 70.21875 
L 18.3125 54.6875 
L 36.8125 54.6875 
L 36.8125 47.703125 
L 18.3125 47.703125 
L 18.3125 18.015625 
Q 18.3125 11.328125 20.140625 9.421875 
Q 21.96875 7.515625 27.59375 7.515625 
L 36.8125 7.515625 
L 36.8125 0 
L 27.59375 0 
Q 17.1875 0 13.234375 3.875 
Q 9.28125 7.765625 9.28125 18.015625 
L 9.28125 47.703125 
L 2.6875 47.703125 
L 2.6875 54.6875 
L 9.28125 54.6875 
L 9.28125 70.21875 
z
" id="DejaVuSans-116"/>
       <path id="DejaVuSans-32"/>
       <path d="M 19.671875 64.796875 
L 19.671875 37.40625 
L 32.078125 37.40625 
Q 38.96875 37.40625 42.71875 40.96875 
Q 46.484375 44.53125 46.484375 51.125 
Q 46.484375 57.671875 42.71875 61.234375 
Q 38.96875 64.796875 32.078125 64.796875 
z
M 9.8125 72.90625 
L 32.078125 72.90625 
Q 44.34375 72.90625 50.609375 67.359375 
Q 56.890625 61.8125 56.890625 51.125 
Q 56.890625 40.328125 50.609375 34.8125 
Q 44.34375 29.296875 32.078125 29.296875 
L 19.671875 29.296875 
L 19.671875 0 
L 9.8125 0 
z
" id="DejaVuSans-80"/>
       <path d="M 30.609375 48.390625 
Q 23.390625 48.390625 19.1875 42.75 
Q 14.984375 37.109375 14.984375 27.296875 
Q 14.984375 17.484375 19.15625 11.84375 
Q 23.34375 6.203125 30.609375 6.203125 
Q 37.796875 6.203125 41.984375 11.859375 
Q 46.1875 17.53125 46.1875 27.296875 
Q 46.1875 37.015625 41.984375 42.703125 
Q 37.796875 48.390625 30.609375 48.390625 
z
M 30.609375 56 
Q 42.328125 56 49.015625 48.375 
Q 55.71875 40.765625 55.71875 27.296875 
Q 55.71875 13.875 49.015625 6.21875 
Q 42.328125 -1.421875 30.609375 -1.421875 
Q 18.84375 -1.421875 12.171875 6.21875 
Q 5.515625 13.875 5.515625 27.296875 
Q 5.515625 40.765625 12.171875 48.375 
Q 18.84375 56 30.609375 56 
z
" id="DejaVuSans-111"/>
       <path d="M 44.28125 53.078125 
L 44.28125 44.578125 
Q 40.484375 46.53125 36.375 47.5 
Q 32.28125 48.484375 27.875 48.484375 
Q 21.1875 48.484375 17.84375 46.4375 
Q 14.5 44.390625 14.5 40.28125 
Q 14.5 37.15625 16.890625 35.375 
Q 19.28125 33.59375 26.515625 31.984375 
L 29.59375 31.296875 
Q 39.15625 29.25 43.1875 25.515625 
Q 47.21875 21.78125 47.21875 15.09375 
Q 47.21875 7.46875 41.1875 3.015625 
Q 35.15625 -1.421875 24.609375 -1.421875 
Q 20.21875 -1.421875 15.453125 -0.5625 
Q 10.6875 0.296875 5.421875 2 
L 5.421875 11.28125 
Q 10.40625 8.6875 15.234375 7.390625 
Q 20.0625 6.109375 24.8125 6.109375 
Q 31.15625 6.109375 34.5625 8.28125 
Q 37.984375 10.453125 37.984375 14.40625 
Q 37.984375 18.0625 35.515625 20.015625 
Q 33.0625 21.96875 24.703125 23.78125 
L 21.578125 24.515625 
Q 13.234375 26.265625 9.515625 29.90625 
Q 5.8125 33.546875 5.8125 39.890625 
Q 5.8125 47.609375 11.28125 51.796875 
Q 16.75 56 26.8125 56 
Q 31.78125 56 36.171875 55.265625 
Q 40.578125 54.546875 44.28125 53.078125 
z
" id="DejaVuSans-115"/>
       <path d="M 54.890625 33.015625 
L 54.890625 0 
L 45.90625 0 
L 45.90625 32.71875 
Q 45.90625 40.484375 42.875 44.328125 
Q 39.84375 48.1875 33.796875 48.1875 
Q 26.515625 48.1875 22.3125 43.546875 
Q 18.109375 38.921875 18.109375 30.90625 
L 18.109375 0 
L 9.078125 0 
L 9.078125 54.6875 
L 18.109375 54.6875 
L 18.109375 46.1875 
Q 21.34375 51.125 25.703125 53.5625 
Q 30.078125 56 35.796875 56 
Q 45.21875 56 50.046875 50.171875 
Q 54.890625 44.34375 54.890625 33.015625 
z
" id="DejaVuSans-110"/>
       <path d="M 50 53.078125 
L 48.296875 44.578125 
Q 44.734375 46.53125 40.765625 47.5 
Q 36.8125 48.484375 32.625 48.484375 
Q 25.53125 48.484375 21.453125 46.0625 
Q 17.390625 43.65625 17.390625 39.5 
Q 17.390625 34.671875 26.859375 32.078125 
Q 27.59375 31.890625 27.9375 31.78125 
L 30.8125 30.90625 
Q 39.796875 28.421875 42.796875 25.6875 
Q 45.796875 22.953125 45.796875 18.21875 
Q 45.796875 9.515625 38.890625 4.046875 
Q 31.984375 -1.421875 20.796875 -1.421875 
Q 16.453125 -1.421875 11.671875 -0.578125 
Q 6.890625 0.25 1.125 2 
L 2.875 11.28125 
Q 7.8125 8.734375 12.59375 7.421875 
Q 17.390625 6.109375 21.78125 6.109375 
Q 28.375 6.109375 32.5 8.9375 
Q 36.625 11.765625 36.625 16.109375 
Q 36.625 20.796875 25.78125 23.6875 
L 24.859375 23.921875 
L 21.78125 24.703125 
Q 14.9375 26.515625 11.765625 29.46875 
Q 8.59375 32.421875 8.59375 37.015625 
Q 8.59375 45.75 15.15625 50.875 
Q 21.734375 56 33.015625 56 
Q 37.453125 56 41.671875 55.265625 
Q 45.90625 54.546875 50 53.078125 
z
" id="DejaVuSans-Oblique-115"/>
       <path d="M 25.390625 72.90625 
L 33.6875 72.90625 
L 8.296875 -9.28125 
L 0 -9.28125 
z
" id="DejaVuSans-47"/>
       <path d="M 52 44.1875 
Q 55.375 50.25 60.0625 53.125 
Q 64.75 56 71.09375 56 
Q 79.640625 56 84.28125 50.015625 
Q 88.921875 44.046875 88.921875 33.015625 
L 88.921875 0 
L 79.890625 0 
L 79.890625 32.71875 
Q 79.890625 40.578125 77.09375 44.375 
Q 74.3125 48.1875 68.609375 48.1875 
Q 61.625 48.1875 57.5625 43.546875 
Q 53.515625 38.921875 53.515625 30.90625 
L 53.515625 0 
L 44.484375 0 
L 44.484375 32.71875 
Q 44.484375 40.625 41.703125 44.40625 
Q 38.921875 48.1875 33.109375 48.1875 
Q 26.21875 48.1875 22.15625 43.53125 
Q 18.109375 38.875 18.109375 30.90625 
L 18.109375 0 
L 9.078125 0 
L 9.078125 54.6875 
L 18.109375 54.6875 
L 18.109375 46.1875 
Q 21.1875 51.21875 25.484375 53.609375 
Q 29.78125 56 35.6875 56 
Q 41.65625 56 45.828125 52.96875 
Q 50 49.953125 52 44.1875 
z
" id="DejaVuSans-109"/>
      </defs>
      <use transform="translate(0 0.015625)" xlink:href="#DejaVuSans-79"/>
      <use transform="translate(78.710938 0.015625)" xlink:href="#DejaVuSans-114"/>
      <use transform="translate(119.824219 0.015625)" xlink:href="#DejaVuSans-98"/>
      <use transform="translate(183.300781 0.015625)" xlink:href="#DejaVuSans-105"/>
      <use transform="translate(211.083984 0.015625)" xlink:href="#DejaVuSans-116"/>
      <use transform="translate(250.292969 0.015625)" xlink:href="#DejaVuSans-32"/>
      <use transform="translate(282.080078 0.015625)" xlink:href="#DejaVuSans-80"/>
      <use transform="translate(342.382812 0.015625)" xlink:href="#DejaVuSans-111"/>
      <use transform="translate(403.564453 0.015625)" xlink:href="#DejaVuSans-115"/>
      <use transform="translate(455.664062 0.015625)" xlink:href="#DejaVuSans-105"/>
      <use transform="translate(483.447266 0.015625)" xlink:href="#DejaVuSans-116"/>
      <use transform="translate(522.65625 0.015625)" xlink:href="#DejaVuSans-105"/>
      <use transform="translate(550.439453 0.015625)" xlink:href="#DejaVuSans-111"/>
      <use transform="translate(611.621094 0.015625)" xlink:href="#DejaVuSans-110"/>
      <use transform="translate(675 0.015625)" xlink:href="#DejaVuSans-32"/>
      <use transform="translate(706.787109 0.015625)" xlink:href="#DejaVuSans-Oblique-115"/>
      <use transform="translate(758.886719 0.015625)" xlink:href="#DejaVuSans-32"/>
      <use transform="translate(790.673828 0.015625)" xlink:href="#DejaVuSans-47"/>
      <use transform="translate(824.365234 0.015625)" xlink:href="#DejaVuSans-32"/>
      <use transform="translate(856.152344 0.015625)" xlink:href="#DejaVuSans-109"/>
     </g>
    </g>
   </g>
   <g id="matplotlib.axis_2">
    <g id="ytick_1">
     <g id="line2d_15">
      <path clip-path="url(#peaf0115fe2)" d="M 30.58 127.05225 
L 438.54487 127.05225 
" style="fill:none;stroke:#b0b0b0;stroke-dasharray:2.96,1.28;stroke-dashoffset:0;stroke-width:0.8;"/>
     </g>
     <g id="line2d_16">
      <defs>
       <path d="M 0 0 
L -3.5 0 
" id="m6825c3bce0" style="stroke:#000000;stroke-width:0.8;"/>
      </defs>
      <g>
       <use style="stroke:#000000;stroke-width:0.8;" x="30.58" xlink:href="#m6825c3bce0" y="127.05225"/>
      </g>
     </g>
     <g id="text_8">
      <!-- 0 -->
      <g transform="translate(17.2175 130.851469)scale(0.1 -0.1)">
       <use xlink:href="#DejaVuSans-48"/>
      </g>
     </g>
    </g>
    <g id="ytick_2">
     <g id="line2d_17">
      <path clip-path="url(#peaf0115fe2)" d="M 30.58 91.47735 
L 438.54487 91.47735 
" style="fill:none;stroke:#b0b0b0;stroke-dasharray:2.96,1.28;stroke-dashoffset:0;stroke-width:0.8;"/>
     </g>
     <g id="line2d_18">
      <g>
       <use style="stroke:#000000;stroke-width:0.8;" x="30.58" xlink:href="#m6825c3bce0" y="91.47735"/>
      </g>
     </g>
     <g id="text_9">
      <!-- 10 -->
      <g transform="translate(10.855 95.276569)scale(0.1 -0.1)">
       <defs>
        <path d="M 12.40625 8.296875 
L 28.515625 8.296875 
L 28.515625 63.921875 
L 10.984375 60.40625 
L 10.984375 69.390625 
L 28.421875 72.90625 
L 38.28125 72.90625 
L 38.28125 8.296875 
L 54.390625 8.296875 
L 54.390625 0 
L 12.40625 0 
z
" id="DejaVuSans-49"/>
       </defs>
       <use xlink:href="#DejaVuSans-49"/>
       <use x="63.623047" xlink:href="#DejaVuSans-48"/>
      </g>
     </g>
    </g>
    <g id="ytick_3">
     <g id="line2d_19">
      <path clip-path="url(#peaf0115fe2)" d="M 30.58 55.90245 
L 438.54487 55.90245 
" style="fill:none;stroke:#b0b0b0;stroke-dasharray:2.96,1.28;stroke-dashoffset:0;stroke-width:0.8;"/>
     </g>
     <g id="line2d_20">
      <g>
       <use style="stroke:#000000;stroke-width:0.8;" x="30.58" xlink:href="#m6825c3bce0" y="55.90245"/>
      </g>
     </g>
     <g id="text_10">
      <!-- 20 -->
      <g transform="translate(10.855 59.701669)scale(0.1 -0.1)">
       <use xlink:href="#DejaVuSans-50"/>
       <use x="63.623047" xlink:href="#DejaVuSans-48"/>
      </g>
     </g>
    </g>
   </g>
   <g id="line2d_21">
    <path clip-path="url(#peaf0115fe2)" d="M 30.58 76.855874 
L 31.85489 76.88081 
L 33.12978 76.95557 
L 34.404671 77.080003 
L 35.679561 77.25386 
L 36.954451 77.476795 
L 38.229341 77.748361 
L 39.504232 78.068016 
L 40.779122 78.435119 
L 42.054012 78.848937 
L 43.328902 79.308643 
L 61.177365 85.790295 
L 79.025828 91.729434 
L 96.874291 97.126059 
L 114.722754 101.980171 
L 132.571218 106.29177 
L 150.419681 110.060855 
L 168.268144 113.287427 
L 186.116607 115.971486 
L 203.96507 118.113032 
L 221.813533 119.712064 
L 224.363313 119.881769 
L 226.913094 120.012374 
L 229.462874 120.104923 
L 232.012655 120.160158 
L 234.562435 120.178521 
L 237.112216 120.160158 
L 239.661996 120.104923 
L 242.211776 120.012374 
L 244.761557 119.881769 
L 247.311337 119.712064 
L 265.1598 118.113032 
L 283.008263 115.971486 
L 300.856726 113.287427 
L 318.70519 110.060855 
L 336.553653 106.29177 
L 354.402116 101.980171 
L 372.250579 97.126059 
L 390.099042 91.729434 
L 407.947505 85.790295 
L 425.795968 79.308643 
L 427.070858 78.848937 
L 428.345748 78.435119 
L 429.620639 78.068016 
L 430.895529 77.748361 
L 432.170419 77.476795 
L 433.445309 77.25386 
L 434.720199 77.080003 
L 435.99509 76.95557 
L 437.26998 76.88081 
L 438.54487 76.855874 
" style="fill:none;stroke:#dc143c;stroke-linecap:square;stroke-width:1.3;"/>
   </g>
   <g id="patch_3">
    <path d="M 30.58 130.60974 
L 30.58 38.115 
" style="fill:none;stroke:#000000;stroke-linecap:square;stroke-linejoin:miter;stroke-width:0.8;"/>
   </g>
   <g id="patch_4">
    <path d="M 438.54487 130.60974 
L 438.54487 38.115 
" style="fill:none;stroke:#000000;stroke-linecap:square;stroke-linejoin:miter;stroke-width:0.8;"/>
   </g>
   <g id="patch_5">
    <path d="M 30.58 130.60974 
L 438.54487 130.60974 
" style="fill:none;stroke:#000000;stroke-linecap:square;stroke-linejoin:miter;stroke-width:0.8;"/>
   </g>
   <g id="patch_6">
    <path d="M 30.58 38.115 
L 438.54487 38.115 
" style="fill:none;stroke:#000000;stroke-linecap:square;stroke-linejoin:miter;stroke-width:0.8;"/>
   </g>
   <g id="patch_7">
    <path d="M 30.58 39.56023 
L 43.328902 39.56023 
L 43.328902 36.66977 
L 30.58 36.66977 
z
" style="fill:#dc143c;"/>
   </g>
   <g id="patch_8">
    <path d="M 221.813533 39.56023 
L 247.311337 39.56023 
L 247.311337 36.66977 
L 221.813533 36.66977 
z
" style="fill:#dc143c;"/>
   </g>
   <g id="patch_9">
    <path d="M 425.795968 39.56023 
L 438.54487 39.56023 
L 438.54487 36.66977 
L 425.795968 36.66977 
z
" style="fill:#dc143c;"/>
   </g>
   <g id="text_11">
    <!-- q1 -->
    <g transform="translate(31.870076 34.283405)scale(0.08 -0.08)">
     <defs>
      <path d="M 14.796875 27.296875 
Q 14.796875 17.390625 18.875 11.75 
Q 22.953125 6.109375 30.078125 6.109375 
Q 37.203125 6.109375 41.296875 11.75 
Q 45.40625 17.390625 45.40625 27.296875 
Q 45.40625 37.203125 41.296875 42.84375 
Q 37.203125 48.484375 30.078125 48.484375 
Q 22.953125 48.484375 18.875 42.84375 
Q 14.796875 37.203125 14.796875 27.296875 
z
M 45.40625 8.203125 
Q 42.578125 3.328125 38.25 0.953125 
Q 33.9375 -1.421875 27.875 -1.421875 
Q 17.96875 -1.421875 11.734375 6.484375 
Q 5.515625 14.40625 5.515625 27.296875 
Q 5.515625 40.1875 11.734375 48.09375 
Q 17.96875 56 27.875 56 
Q 33.9375 56 38.25 53.625 
Q 42.578125 51.265625 45.40625 46.390625 
L 45.40625 54.6875 
L 54.390625 54.6875 
L 54.390625 -20.796875 
L 45.40625 -20.796875 
z
" id="DejaVuSans-113"/>
     </defs>
     <use xlink:href="#DejaVuSans-113"/>
     <use x="63.476562" xlink:href="#DejaVuSans-49"/>
    </g>
   </g>
   <g id="text_12">
    <!-- q2 -->
    <g transform="translate(229.47806 34.283405)scale(0.08 -0.08)">
     <use xlink:href="#DejaVuSans-113"/>
     <use x="63.476562" xlink:href="#DejaVuSans-50"/>
    </g>
   </g>
   <g id="text_13">
    <!-- q1 -->
    <g transform="translate(427.086044 34.283405)scale(0.08 -0.08)">
     <use xlink:href="#DejaVuSans-113"/>
     <use x="63.476562" xlink:href="#DejaVuSans-49"/>
    </g>
   </g>
  </g>
  <g id="axes_2">
   <g id="patch_10">
    <path d="M 30.58 289.36974 
L 438.54487 289.36974 
L 438.54487 196.875 
L 30.58 196.875 
z
" style="fill:#ffffff;"/>
   </g>
   <g id="line2d_22">
    <path clip-path="url(#pe6620c0ba9)" d="M 30.58 252.954344 
L 31.85489 252.962559 
L 33.12978 252.987197 
L 34.404671 253.028247 
L 35.679561 253.085688 
L 36.954451 253.159493 
L 38.229341 253.249622 
L 39.504232 253.356033 
L 40.779122 253.478671 
L 42.054012 253.617474 
L 43.328902 253.772375 
L 48.428463 254.424071 
L 53.528024 255.075766 
L 58.627585 255.727462 
L 63.727146 256.379157 
L 68.826707 257.030852 
L 73.926267 257.682548 
L 79.025828 258.334243 
L 84.125389 258.985939 
L 89.22495 259.637634 
L 94.324511 260.28933 
L 101.973852 261.229584 
L 109.623194 262.119819 
L 117.272535 262.95995 
L 124.921876 263.749896 
L 132.571218 264.48958 
L 140.220559 265.178931 
L 147.8699 265.817883 
L 155.519241 266.406374 
L 163.168583 266.944347 
L 170.817924 267.431751 
L 175.917485 267.73391 
L 181.017046 268.036069 
L 186.116607 268.338228 
L 191.216168 268.640387 
L 196.315728 268.942546 
L 201.415289 269.244705 
L 206.51485 269.546864 
L 211.614411 269.849023 
L 216.713972 270.151182 
L 221.813533 270.453341 
L 224.363313 270.589109 
L 226.913094 270.694426 
L 229.462874 270.769502 
L 232.012655 270.814488 
L 234.562435 270.829473 
L 237.112216 270.814488 
L 239.661996 270.769502 
L 242.211776 270.694426 
L 244.761557 270.589109 
L 247.311337 270.453341 
L 252.410898 270.151182 
L 257.510459 269.849023 
L 262.61002 269.546864 
L 267.709581 269.244705 
L 272.809142 268.942546 
L 277.908703 268.640387 
L 283.008263 268.338228 
L 288.107824 268.036069 
L 293.207385 267.73391 
L 298.306946 267.431751 
L 305.956287 266.944347 
L 313.605629 266.406374 
L 321.25497 265.817883 
L 328.904311 265.178931 
L 336.553653 264.48958 
L 344.202994 263.749896 
L 351.852335 262.95995 
L 359.501677 262.119819 
L 367.151018 261.229584 
L 374.800359 260.28933 
L 379.89992 259.637634 
L 384.999481 258.985939 
L 390.099042 258.334243 
L 395.198603 257.682548 
L 400.298164 257.030852 
L 405.397724 256.379157 
L 410.497285 255.727462 
L 415.596846 255.075766 
L 420.696407 254.424071 
L 425.795968 253.772375 
L 427.070858 253.617474 
L 428.345748 253.478671 
L 429.620639 253.356033 
L 430.895529 253.249622 
L 432.170419 253.159493 
L 433.445309 253.085688 
L 434.720199 253.028247 
L 435.99509 252.987197 
L 437.26998 252.962559 
L 438.54487 252.954344 
" style="fill:none;stroke:#3cb371;stroke-linecap:square;stroke-width:1.3;"/>
   </g>
   <g id="line2d_23">
    <path clip-path="url(#pe6620c0ba9)" d="M 30.58 279.183305 
L 31.85489 279.178797 
L 33.12978 279.165262 
L 34.404671 279.142675 
L 35.679561 279.11099 
L 36.954451 279.070142 
L 38.229341 279.020052 
L 39.504232 278.960618 
L 40.779122 278.891722 
L 42.054012 278.813226 
L 43.328902 278.724972 
L 48.428463 278.329457 
L 53.528024 277.888425 
L 58.627585 277.401876 
L 63.727146 276.869811 
L 68.826707 276.292229 
L 73.926267 275.66913 
L 79.025828 275.000515 
L 84.125389 274.286384 
L 89.22495 273.526735 
L 94.324511 272.72157 
L 101.973852 271.441703 
L 109.623194 270.060615 
L 117.272535 268.578306 
L 124.921876 266.994777 
L 132.571218 265.310028 
L 140.220559 263.524058 
L 147.8699 261.636868 
L 155.519241 259.648457 
L 163.168583 257.558825 
L 170.817924 255.367973 
L 175.917485 253.871227 
L 181.017046 252.330448 
L 186.116607 250.745637 
L 191.216168 249.116794 
L 196.315728 247.443919 
L 201.415289 245.727011 
L 206.51485 243.966072 
L 211.614411 242.1611 
L 216.713972 240.312095 
L 221.813533 238.419059 
L 224.363313 237.552032 
L 226.913094 236.870382 
L 229.462874 236.379558 
L 232.012655 236.083486 
L 234.562435 235.984532 
L 237.112216 236.083486 
L 239.661996 236.379558 
L 242.211776 236.870382 
L 244.761557 237.552032 
L 247.311337 238.419059 
L 252.410898 240.312095 
L 257.510459 242.1611 
L 262.61002 243.966072 
L 267.709581 245.727011 
L 272.809142 247.443919 
L 277.908703 249.116794 
L 283.008263 250.745637 
L 288.107824 252.330448 
L 293.207385 253.871227 
L 298.306946 255.367973 
L 305.956287 257.558825 
L 313.605629 259.648457 
L 321.25497 261.636868 
L 328.904311 263.524058 
L 336.553653 265.310028 
L 344.202994 266.994777 
L 351.852335 268.578306 
L 359.501677 270.060615 
L 367.151018 271.441703 
L 374.800359 272.72157 
L 379.89992 273.526735 
L 384.999481 274.286384 
L 390.099042 275.000515 
L 395.198603 275.66913 
L 400.298164 276.292229 
L 405.397724 276.869811 
L 410.497285 277.401876 
L 415.596846 277.888425 
L 420.696407 278.329457 
L 425.795968 278.724972 
L 427.070858 278.813226 
L 428.345748 278.891722 
L 429.620639 278.960618 
L 430.895529 279.020052 
L 432.170419 279.070142 
L 433.445309 279.11099 
L 434.720199 279.142675 
L 435.99509 279.165262 
L 437.26998 279.178797 
L 438.54487 279.183305 
" style="fill:none;stroke:#1e90ff;stroke-linecap:square;stroke-width:1.3;"/>
   </g>
   <g id="matplotlib.axis_3">
    <g id="xtick_7">
     <g id="line2d_24">
      <path clip-path="url(#pe6620c0ba9)" d="M 30.58 289.36974 
L 30.58 196.875 
" style="fill:none;stroke:#b0b0b0;stroke-dasharray:2.96,1.28;stroke-dashoffset:0;stroke-width:0.8;"/>
     </g>
     <g id="line2d_25">
      <g>
       <use style="stroke:#000000;stroke-width:0.8;" x="30.58" xlink:href="#m26ace49e5f" y="289.36974"/>
      </g>
     </g>
     <g id="text_14">
      <!-- 0.00 -->
      <g transform="translate(24.659086 317.486821)rotate(-45)scale(0.1 -0.1)">
       <use xlink:href="#DejaVuSans-48"/>
       <use x="63.623047" xlink:href="#DejaVuSans-46"/>
       <use x="95.410156" xlink:href="#DejaVuSans-48"/>
       <use x="159.033203" xlink:href="#DejaVuSans-48"/>
      </g>
     </g>
    </g>
    <g id="xtick_8">
     <g id="line2d_26">
      <path clip-path="url(#pe6620c0ba9)" d="M 43.328902 289.36974 
L 43.328902 196.875 
" style="fill:none;stroke:#b0b0b0;stroke-dasharray:2.96,1.28;stroke-dashoffset:0;stroke-width:0.8;"/>
     </g>
     <g id="line2d_27">
      <g>
       <use style="stroke:#000000;stroke-width:0.8;" x="43.328902" xlink:href="#m26ace49e5f" y="289.36974"/>
      </g>
     </g>
     <g id="text_15">
      <!-- 0.25 -->
      <g transform="translate(37.407988 317.486821)rotate(-45)scale(0.1 -0.1)">
       <use xlink:href="#DejaVuSans-48"/>
       <use x="63.623047" xlink:href="#DejaVuSans-46"/>
       <use x="95.410156" xlink:href="#DejaVuSans-50"/>
       <use x="159.033203" xlink:href="#DejaVuSans-53"/>
      </g>
     </g>
    </g>
    <g id="xtick_9">
     <g id="line2d_28">
      <path clip-path="url(#pe6620c0ba9)" d="M 94.324511 289.36974 
L 94.324511 196.875 
" style="fill:none;stroke:#b0b0b0;stroke-dasharray:2.96,1.28;stroke-dashoffset:0;stroke-width:0.8;"/>
     </g>
     <g id="line2d_29">
      <g>
       <use style="stroke:#000000;stroke-width:0.8;" x="94.324511" xlink:href="#m26ace49e5f" y="289.36974"/>
      </g>
     </g>
     <g id="text_16">
      <!-- 1.25 -->
      <g transform="translate(88.403597 317.486821)rotate(-45)scale(0.1 -0.1)">
       <use xlink:href="#DejaVuSans-49"/>
       <use x="63.623047" xlink:href="#DejaVuSans-46"/>
       <use x="95.410156" xlink:href="#DejaVuSans-50"/>
       <use x="159.033203" xlink:href="#DejaVuSans-53"/>
      </g>
     </g>
    </g>
    <g id="xtick_10">
     <g id="line2d_30">
      <path clip-path="url(#pe6620c0ba9)" d="M 170.817924 289.36974 
L 170.817924 196.875 
" style="fill:none;stroke:#b0b0b0;stroke-dasharray:2.96,1.28;stroke-dashoffset:0;stroke-width:0.8;"/>
     </g>
     <g id="line2d_31">
      <g>
       <use style="stroke:#000000;stroke-width:0.8;" x="170.817924" xlink:href="#m26ace49e5f" y="289.36974"/>
      </g>
     </g>
     <g id="text_17">
      <!-- 2.75 -->
      <g transform="translate(164.89701 317.486821)rotate(-45)scale(0.1 -0.1)">
       <use xlink:href="#DejaVuSans-50"/>
       <use x="63.623047" xlink:href="#DejaVuSans-46"/>
       <use x="95.410156" xlink:href="#DejaVuSans-55"/>
       <use x="159.033203" xlink:href="#DejaVuSans-53"/>
      </g>
     </g>
    </g>
    <g id="xtick_11">
     <g id="line2d_32">
      <path clip-path="url(#pe6620c0ba9)" d="M 221.813533 289.36974 
L 221.813533 196.875 
" style="fill:none;stroke:#b0b0b0;stroke-dasharray:2.96,1.28;stroke-dashoffset:0;stroke-width:0.8;"/>
     </g>
     <g id="line2d_33">
      <g>
       <use style="stroke:#000000;stroke-width:0.8;" x="221.813533" xlink:href="#m26ace49e5f" y="289.36974"/>
      </g>
     </g>
     <g id="text_18">
      <!-- 3.75 -->
      <g transform="translate(215.892618 317.486821)rotate(-45)scale(0.1 -0.1)">
       <use xlink:href="#DejaVuSans-51"/>
       <use x="63.623047" xlink:href="#DejaVuSans-46"/>
       <use x="95.410156" xlink:href="#DejaVuSans-55"/>
       <use x="159.033203" xlink:href="#DejaVuSans-53"/>
      </g>
     </g>
    </g>
    <g id="xtick_12">
     <g id="line2d_34">
      <path clip-path="url(#pe6620c0ba9)" d="M 247.311337 289.36974 
L 247.311337 196.875 
" style="fill:none;stroke:#b0b0b0;stroke-dasharray:2.96,1.28;stroke-dashoffset:0;stroke-width:0.8;"/>
     </g>
     <g id="line2d_35">
      <g>
       <use style="stroke:#000000;stroke-width:0.8;" x="247.311337" xlink:href="#m26ace49e5f" y="289.36974"/>
      </g>
     </g>
     <g id="text_19">
      <!-- 4.25 -->
      <g transform="translate(241.390423 317.486821)rotate(-45)scale(0.1 -0.1)">
       <use xlink:href="#DejaVuSans-52"/>
       <use x="63.623047" xlink:href="#DejaVuSans-46"/>
       <use x="95.410156" xlink:href="#DejaVuSans-50"/>
       <use x="159.033203" xlink:href="#DejaVuSans-53"/>
      </g>
     </g>
    </g>
    <g id="xtick_13">
     <g id="line2d_36">
      <path clip-path="url(#pe6620c0ba9)" d="M 298.306946 289.36974 
L 298.306946 196.875 
" style="fill:none;stroke:#b0b0b0;stroke-dasharray:2.96,1.28;stroke-dashoffset:0;stroke-width:0.8;"/>
     </g>
     <g id="line2d_37">
      <g>
       <use style="stroke:#000000;stroke-width:0.8;" x="298.306946" xlink:href="#m26ace49e5f" y="289.36974"/>
      </g>
     </g>
     <g id="text_20">
      <!-- 5.25 -->
      <g transform="translate(292.386032 317.486821)rotate(-45)scale(0.1 -0.1)">
       <use xlink:href="#DejaVuSans-53"/>
       <use x="63.623047" xlink:href="#DejaVuSans-46"/>
       <use x="95.410156" xlink:href="#DejaVuSans-50"/>
       <use x="159.033203" xlink:href="#DejaVuSans-53"/>
      </g>
     </g>
    </g>
    <g id="xtick_14">
     <g id="line2d_38">
      <path clip-path="url(#pe6620c0ba9)" d="M 374.800359 289.36974 
L 374.800359 196.875 
" style="fill:none;stroke:#b0b0b0;stroke-dasharray:2.96,1.28;stroke-dashoffset:0;stroke-width:0.8;"/>
     </g>
     <g id="line2d_39">
      <g>
       <use style="stroke:#000000;stroke-width:0.8;" x="374.800359" xlink:href="#m26ace49e5f" y="289.36974"/>
      </g>
     </g>
     <g id="text_21">
      <!-- 6.75 -->
      <g transform="translate(368.879445 317.486821)rotate(-45)scale(0.1 -0.1)">
       <defs>
        <path d="M 33.015625 40.375 
Q 26.375 40.375 22.484375 35.828125 
Q 18.609375 31.296875 18.609375 23.390625 
Q 18.609375 15.53125 22.484375 10.953125 
Q 26.375 6.390625 33.015625 6.390625 
Q 39.65625 6.390625 43.53125 10.953125 
Q 47.40625 15.53125 47.40625 23.390625 
Q 47.40625 31.296875 43.53125 35.828125 
Q 39.65625 40.375 33.015625 40.375 
z
M 52.59375 71.296875 
L 52.59375 62.3125 
Q 48.875 64.0625 45.09375 64.984375 
Q 41.3125 65.921875 37.59375 65.921875 
Q 27.828125 65.921875 22.671875 59.328125 
Q 17.53125 52.734375 16.796875 39.40625 
Q 19.671875 43.65625 24.015625 45.921875 
Q 28.375 48.1875 33.59375 48.1875 
Q 44.578125 48.1875 50.953125 41.515625 
Q 57.328125 34.859375 57.328125 23.390625 
Q 57.328125 12.15625 50.6875 5.359375 
Q 44.046875 -1.421875 33.015625 -1.421875 
Q 20.359375 -1.421875 13.671875 8.265625 
Q 6.984375 17.96875 6.984375 36.375 
Q 6.984375 53.65625 15.1875 63.9375 
Q 23.390625 74.21875 37.203125 74.21875 
Q 40.921875 74.21875 44.703125 73.484375 
Q 48.484375 72.75 52.59375 71.296875 
z
" id="DejaVuSans-54"/>
       </defs>
       <use xlink:href="#DejaVuSans-54"/>
       <use x="63.623047" xlink:href="#DejaVuSans-46"/>
       <use x="95.410156" xlink:href="#DejaVuSans-55"/>
       <use x="159.033203" xlink:href="#DejaVuSans-53"/>
      </g>
     </g>
    </g>
    <g id="xtick_15">
     <g id="line2d_40">
      <path clip-path="url(#pe6620c0ba9)" d="M 425.795968 289.36974 
L 425.795968 196.875 
" style="fill:none;stroke:#b0b0b0;stroke-dasharray:2.96,1.28;stroke-dashoffset:0;stroke-width:0.8;"/>
     </g>
     <g id="line2d_41">
      <g>
       <use style="stroke:#000000;stroke-width:0.8;" x="425.795968" xlink:href="#m26ace49e5f" y="289.36974"/>
      </g>
     </g>
     <g id="text_22">
      <!-- 7.75 -->
      <g transform="translate(419.875054 317.486821)rotate(-45)scale(0.1 -0.1)">
       <use xlink:href="#DejaVuSans-55"/>
       <use x="63.623047" xlink:href="#DejaVuSans-46"/>
       <use x="95.410156" xlink:href="#DejaVuSans-55"/>
       <use x="159.033203" xlink:href="#DejaVuSans-53"/>
      </g>
     </g>
    </g>
    <g id="xtick_16">
     <g id="line2d_42">
      <path clip-path="url(#pe6620c0ba9)" d="M 438.54487 289.36974 
L 438.54487 196.875 
" style="fill:none;stroke:#b0b0b0;stroke-dasharray:2.96,1.28;stroke-dashoffset:0;stroke-width:0.8;"/>
     </g>
     <g id="line2d_43">
      <g>
       <use style="stroke:#000000;stroke-width:0.8;" x="438.54487" xlink:href="#m26ace49e5f" y="289.36974"/>
      </g>
     </g>
     <g id="text_23">
      <!-- 8.00 -->
      <g transform="translate(432.623956 317.486821)rotate(-45)scale(0.1 -0.1)">
       <use xlink:href="#DejaVuSans-56"/>
       <use x="63.623047" xlink:href="#DejaVuSans-46"/>
       <use x="95.410156" xlink:href="#DejaVuSans-48"/>
       <use x="159.033203" xlink:href="#DejaVuSans-48"/>
      </g>
     </g>
    </g>
    <g id="text_24">
     <!-- Orbit Position $s$ / m -->
     <g transform="translate(186.862435 330.55582)scale(0.1 -0.1)">
      <use transform="translate(0 0.015625)" xlink:href="#DejaVuSans-79"/>
      <use transform="translate(78.710938 0.015625)" xlink:href="#DejaVuSans-114"/>
      <use transform="translate(119.824219 0.015625)" xlink:href="#DejaVuSans-98"/>
      <use transform="translate(183.300781 0.015625)" xlink:href="#DejaVuSans-105"/>
      <use transform="translate(211.083984 0.015625)" xlink:href="#DejaVuSans-116"/>
      <use transform="translate(250.292969 0.015625)" xlink:href="#DejaVuSans-32"/>
      <use transform="translate(282.080078 0.015625)" xlink:href="#DejaVuSans-80"/>
      <use transform="translate(342.382812 0.015625)" xlink:href="#DejaVuSans-111"/>
      <use transform="translate(403.564453 0.015625)" xlink:href="#DejaVuSans-115"/>
      <use transform="translate(455.664062 0.015625)" xlink:href="#DejaVuSans-105"/>
      <use transform="translate(483.447266 0.015625)" xlink:href="#DejaVuSans-116"/>
      <use transform="translate(522.65625 0.015625)" xlink:href="#DejaVuSans-105"/>
      <use transform="translate(550.439453 0.015625)" xlink:href="#DejaVuSans-111"/>
      <use transform="translate(611.621094 0.015625)" xlink:href="#DejaVuSans-110"/>
      <use transform="translate(675 0.015625)" xlink:href="#DejaVuSans-32"/>
      <use transform="translate(706.787109 0.015625)" xlink:href="#DejaVuSans-Oblique-115"/>
      <use transform="translate(758.886719 0.015625)" xlink:href="#DejaVuSans-32"/>
      <use transform="translate(790.673828 0.015625)" xlink:href="#DejaVuSans-47"/>
      <use transform="translate(824.365234 0.015625)" xlink:href="#DejaVuSans-32"/>
      <use transform="translate(856.152344 0.015625)" xlink:href="#DejaVuSans-109"/>
     </g>
    </g>
   </g>
   <g id="matplotlib.axis_4">
    <g id="ytick_4">
     <g id="line2d_44">
      <path clip-path="url(#pe6620c0ba9)" d="M 30.58 285.81225 
L 438.54487 285.81225 
" style="fill:none;stroke:#b0b0b0;stroke-dasharray:2.96,1.28;stroke-dashoffset:0;stroke-width:0.8;"/>
     </g>
     <g id="line2d_45">
      <g>
       <use style="stroke:#000000;stroke-width:0.8;" x="30.58" xlink:href="#m6825c3bce0" y="285.81225"/>
      </g>
     </g>
     <g id="text_25">
      <!-- 0 -->
      <g transform="translate(17.2175 289.611469)scale(0.1 -0.1)">
       <use xlink:href="#DejaVuSans-48"/>
      </g>
     </g>
    </g>
    <g id="ytick_5">
     <g id="line2d_46">
      <path clip-path="url(#pe6620c0ba9)" d="M 30.58 250.23735 
L 438.54487 250.23735 
" style="fill:none;stroke:#b0b0b0;stroke-dasharray:2.96,1.28;stroke-dashoffset:0;stroke-width:0.8;"/>
     </g>
     <g id="line2d_47">
      <g>
       <use style="stroke:#000000;stroke-width:0.8;" x="30.58" xlink:href="#m6825c3bce0" y="250.23735"/>
      </g>
     </g>
     <g id="text_26">
      <!-- 10 -->
      <g transform="translate(10.855 254.036569)scale(0.1 -0.1)">
       <use xlink:href="#DejaVuSans-49"/>
       <use x="63.623047" xlink:href="#DejaVuSans-48"/>
      </g>
     </g>
    </g>
    <g id="ytick_6">
     <g id="line2d_48">
      <path clip-path="url(#pe6620c0ba9)" d="M 30.58 214.66245 
L 438.54487 214.66245 
" style="fill:none;stroke:#b0b0b0;stroke-dasharray:2.96,1.28;stroke-dashoffset:0;stroke-width:0.8;"/>
     </g>
     <g id="line2d_49">
      <g>
       <use style="stroke:#000000;stroke-width:0.8;" x="30.58" xlink:href="#m6825c3bce0" y="214.66245"/>
      </g>
     </g>
     <g id="text_27">
      <!-- 20 -->
      <g transform="translate(10.855 218.461669)scale(0.1 -0.1)">
       <use xlink:href="#DejaVuSans-50"/>
       <use x="63.623047" xlink:href="#DejaVuSans-48"/>
      </g>
     </g>
    </g>
   </g>
   <g id="line2d_50">
    <path clip-path="url(#pe6620c0ba9)" d="M 30.58 235.672897 
L 31.85489 235.697804 
L 33.12978 235.772478 
L 34.404671 235.896768 
L 35.679561 236.070426 
L 36.954451 236.293104 
L 38.229341 236.564358 
L 39.504232 236.883644 
L 40.779122 237.250325 
L 42.054012 237.663668 
L 43.328902 238.122845 
L 48.428463 240.027904 
L 53.528024 241.888716 
L 58.627585 243.70528 
L 63.727146 245.477597 
L 68.826707 247.205667 
L 73.926267 248.889489 
L 79.025828 250.529064 
L 84.125389 252.124392 
L 89.22495 253.675472 
L 94.324511 255.182305 
L 101.973852 257.333924 
L 109.623194 259.393198 
L 117.272535 261.359333 
L 124.921876 263.231572 
L 132.571218 265.009193 
L 140.220559 266.691509 
L 147.8699 268.277873 
L 155.519241 269.767674 
L 163.168583 271.160336 
L 170.817924 272.455323 
L 175.917485 273.255263 
L 181.017046 274.010956 
L 186.116607 274.722401 
L 191.216168 275.389599 
L 196.315728 276.01255 
L 201.415289 276.591253 
L 206.51485 277.125709 
L 211.614411 277.615917 
L 216.713972 278.061878 
L 221.813533 278.463592 
L 224.363313 278.633398 
L 226.913094 278.764081 
L 229.462874 278.856685 
L 232.012655 278.911953 
L 234.562435 278.930326 
L 237.112216 278.911953 
L 239.661996 278.856685 
L 242.211776 278.764081 
L 244.761557 278.633398 
L 247.311337 278.463592 
L 252.410898 278.061878 
L 257.510459 277.615917 
L 262.61002 277.125709 
L 267.709581 276.591253 
L 272.809142 276.01255 
L 277.908703 275.389599 
L 283.008263 274.722401 
L 288.107824 274.010956 
L 293.207385 273.255263 
L 298.306946 272.455323 
L 305.956287 271.160336 
L 313.605629 269.767674 
L 321.25497 268.277873 
L 328.904311 266.691509 
L 336.553653 265.009193 
L 344.202994 263.231572 
L 351.852335 261.359333 
L 359.501677 259.393198 
L 367.151018 257.333924 
L 374.800359 255.182305 
L 379.89992 253.675472 
L 384.999481 252.124392 
L 390.099042 250.529064 
L 395.198603 248.889489 
L 400.298164 247.205667 
L 405.397724 245.477597 
L 410.497285 243.70528 
L 415.596846 241.888716 
L 420.696407 240.027904 
L 425.795968 238.122845 
L 427.070858 237.663668 
L 428.345748 237.250325 
L 429.620639 236.883644 
L 430.895529 236.564358 
L 432.170419 236.293104 
L 433.445309 236.070426 
L 434.720199 235.896768 
L 435.99509 235.772478 
L 437.26998 235.697804 
L 438.54487 235.672897 
" style="fill:none;stroke:#dc143c;stroke-linecap:square;stroke-width:1.3;"/>
   </g>
   <g id="patch_11">
    <path d="M 30.58 289.36974 
L 30.58 196.875 
" style="fill:none;stroke:#000000;stroke-linecap:square;stroke-linejoin:miter;stroke-width:0.8;"/>
   </g>
   <g id="patch_12">
    <path d="M 438.54487 289.36974 
L 438.54487 196.875 
" style="fill:none;stroke:#000000;stroke-linecap:square;stroke-linejoin:miter;stroke-width:0.8;"/>
   </g>
   <g id="patch_13">
    <path d="M 30.58 289.36974 
L 438.54487 289.36974 
" style="fill:none;stroke:#000000;stroke-linecap:square;stroke-linejoin:miter;stroke-width:0.8;"/>
   </g>
   <g id="patch_14">
    <path d="M 30.58 196.875 
L 438.54487 196.875 
" style="fill:none;stroke:#000000;stroke-linecap:square;stroke-linejoin:miter;stroke-width:0.8;"/>
   </g>
   <g id="patch_15">
    <path d="M 30.58 198.32023 
L 43.328902 198.32023 
L 43.328902 195.42977 
L 30.58 195.42977 
z
" style="fill:#dc143c;"/>
   </g>
   <g id="patch_16">
    <path d="M 94.324511 198.32023 
L 170.817924 198.32023 
L 170.817924 195.42977 
L 94.324511 195.42977 
z
" style="fill:#ffd700;"/>
   </g>
   <g id="patch_17">
    <path d="M 221.813533 198.32023 
L 247.311337 198.32023 
L 247.311337 195.42977 
L 221.813533 195.42977 
z
" style="fill:#dc143c;"/>
   </g>
   <g id="patch_18">
    <path d="M 298.306946 198.32023 
L 374.800359 198.32023 
L 374.800359 195.42977 
L 298.306946 195.42977 
z
" style="fill:#ffd700;"/>
   </g>
   <g id="patch_19">
    <path d="M 425.795968 198.32023 
L 438.54487 198.32023 
L 438.54487 195.42977 
L 425.795968 195.42977 
z
" style="fill:#dc143c;"/>
   </g>
   <g id="text_28">
    <!-- q1 -->
    <g transform="translate(31.870076 193.043405)scale(0.08 -0.08)">
     <use xlink:href="#DejaVuSans-113"/>
     <use x="63.476562" xlink:href="#DejaVuSans-49"/>
    </g>
   </g>
   <g id="text_29">
    <!-- b1 -->
    <g transform="translate(127.486843 205.121595)scale(0.08 -0.08)">
     <use xlink:href="#DejaVuSans-98"/>
     <use x="63.476562" xlink:href="#DejaVuSans-49"/>
    </g>
   </g>
   <g id="text_30">
    <!-- q2 -->
    <g transform="translate(229.47806 193.043405)scale(0.08 -0.08)">
     <use xlink:href="#DejaVuSans-113"/>
     <use x="63.476562" xlink:href="#DejaVuSans-50"/>
    </g>
   </g>
   <g id="text_31">
    <!-- b1 -->
    <g transform="translate(331.469278 205.121595)scale(0.08 -0.08)">
     <use xlink:href="#DejaVuSans-98"/>
     <use x="63.476562" xlink:href="#DejaVuSans-49"/>
    </g>
   </g>
   <g id="text_32">
    <!-- q1 -->
    <g transform="translate(427.086044 193.043405)scale(0.08 -0.08)">
     <use xlink:href="#DejaVuSans-113"/>
     <use x="63.476562" xlink:href="#DejaVuSans-49"/>
    </g>
   </g>
  </g>
  <g id="legend_1">
   <g id="line2d_51">
    <path d="M 9 13.2 
L 29 13.2 
" style="fill:none;stroke:#dc143c;stroke-linecap:square;stroke-width:1.3;"/>
   </g>
   <g id="line2d_52"/>
   <g id="text_33">
    <!-- $\beta_x$/m -->
    <g transform="translate(37 16.7)scale(0.1 -0.1)">
     <defs>
      <path d="M 13.625 3.375 
L 8.9375 -20.796875 
L -0.09375 -20.796875 
L 14.5 54.34375 
Q 18.84375 76.609375 39.65625 76.609375 
Q 60.75 76.609375 57.171875 57.8125 
Q 54.734375 44.4375 45.21875 39.546875 
Q 58.015625 35.15625 55.515625 22.125 
Q 51.125 -1.078125 27.484375 -1.03125 
Q 17.140625 -0.984375 13.625 3.375 
z
M 15.921875 15.09375 
Q 19.671875 6.59375 29.296875 6.640625 
Q 43.359375 6.640625 46.34375 21.96875 
Q 49.03125 35.75 26.171875 34.671875 
L 27.78125 42.96875 
Q 45.453125 42.671875 48.53125 58.59375 
Q 50.640625 69.34375 39.203125 69.28125 
Q 26.421875 69.28125 23.484375 54.046875 
z
" id="DejaVuSans-Oblique-946"/>
      <path d="M 60.015625 54.6875 
L 34.90625 27.875 
L 50.296875 0 
L 39.984375 0 
L 28.421875 21.6875 
L 8.296875 0 
L -2.59375 0 
L 24.3125 28.8125 
L 10.015625 54.6875 
L 20.3125 54.6875 
L 30.8125 34.90625 
L 49.125 54.6875 
z
" id="DejaVuSans-Oblique-120"/>
     </defs>
     <use transform="translate(0 0.390625)" xlink:href="#DejaVuSans-Oblique-946"/>
     <use transform="translate(63.818359 -16.015625)scale(0.7)" xlink:href="#DejaVuSans-Oblique-120"/>
     <use transform="translate(107.978516 0.390625)" xlink:href="#DejaVuSans-47"/>
     <use transform="translate(141.669922 0.390625)" xlink:href="#DejaVuSans-109"/>
    </g>
   </g>
   <g id="line2d_53">
    <path d="M 81 13.2 
L 101 13.2 
" style="fill:none;stroke:#1e90ff;stroke-linecap:square;stroke-width:1.3;"/>
   </g>
   <g id="line2d_54"/>
   <g id="text_34">
    <!-- $\beta_y$/m -->
    <g transform="translate(109 16.7)scale(0.1 -0.1)">
     <defs>
      <path d="M 24.8125 -5.078125 
Q 18.5625 -15.578125 14.625 -18.1875 
Q 10.6875 -20.796875 4.59375 -20.796875 
L -2.484375 -20.796875 
L -0.984375 -13.28125 
L 4.203125 -13.28125 
Q 7.953125 -13.28125 10.59375 -11.234375 
Q 13.234375 -9.1875 16.5 -3.21875 
L 19.28125 2 
L 7.171875 54.6875 
L 16.703125 54.6875 
L 25.78125 12.796875 
L 50.875 54.6875 
L 60.296875 54.6875 
z
" id="DejaVuSans-Oblique-121"/>
     </defs>
     <use transform="translate(0 0.390625)" xlink:href="#DejaVuSans-Oblique-946"/>
     <use transform="translate(63.818359 -16.015625)scale(0.7)" xlink:href="#DejaVuSans-Oblique-121"/>
     <use transform="translate(107.978516 0.390625)" xlink:href="#DejaVuSans-47"/>
     <use transform="translate(141.669922 0.390625)" xlink:href="#DejaVuSans-109"/>
    </g>
   </g>
   <g id="line2d_55">
    <path d="M 153 13.2 
L 173 13.2 
" style="fill:none;stroke:#3cb371;stroke-linecap:square;stroke-width:1.3;"/>
   </g>
   <g id="line2d_56"/>
   <g id="text_35">
    <!-- 10$\eta_x$/m -->
    <g transform="translate(181 16.7)scale(0.1 -0.1)">
     <defs>
      <path d="M 57.859375 33.015625 
L 47.40625 -20.796875 
L 38.421875 -20.796875 
L 48.828125 32.71875 
Q 50.34375 40.484375 48.046875 44.34375 
Q 45.796875 48.1875 39.75 48.1875 
Q 32.46875 48.1875 27.34375 43.5625 
Q 22.265625 38.921875 20.703125 30.90625 
L 14.703125 0 
L 5.671875 0 
L 16.3125 54.6875 
L 25.34375 54.6875 
L 23.6875 46.1875 
Q 27.828125 51.125 32.71875 53.5625 
Q 37.546875 56 43.265625 56 
Q 52.6875 56 56.390625 50.203125 
Q 60.0625 44.34375 57.859375 33.015625 
z
" id="DejaVuSans-Oblique-951"/>
     </defs>
     <use transform="translate(0 0.78125)" xlink:href="#DejaVuSans-49"/>
     <use transform="translate(63.623047 0.78125)" xlink:href="#DejaVuSans-48"/>
     <use transform="translate(127.246094 0.78125)" xlink:href="#DejaVuSans-Oblique-951"/>
     <use transform="translate(190.625 -15.625)scale(0.7)" xlink:href="#DejaVuSans-Oblique-120"/>
     <use transform="translate(234.785156 0.78125)" xlink:href="#DejaVuSans-47"/>
     <use transform="translate(268.476562 0.78125)" xlink:href="#DejaVuSans-109"/>
    </g>
   </g>
  </g>
 </g>
 <defs>
  <clipPath id="peaf0115fe2">
   <rect height="92.49474" width="407.96487" x="30.58" y="38.115"/>
  </clipPath>
  <clipPath id="pe6620c0ba9">
   <rect height="92.49474" width="407.96487" x="30.58" y="196.875"/>
  </clipPath>
 </defs>
</svg>
