<?xml version="1.0" encoding="utf-8" standalone="no"?>
<!DOCTYPE svg PUBLIC "-//W3C//DTD SVG 1.1//EN"
  "http://www.w3.org/Graphics/SVG/1.1/DTD/svg11.dtd">
<!-- Created with matplotlib (https://matplotlib.org/) -->
<svg height="460.8pt" version="1.1" viewBox="0 0 460.8 460.8" width="460.8pt" xmlns="http://www.w3.org/2000/svg" xmlns:xlink="http://www.w3.org/1999/xlink">
 <metadata>
  <rdf:RDF xmlns:cc="http://creativecommons.org/ns#" xmlns:dc="http://purl.org/dc/elements/1.1/" xmlns:rdf="http://www.w3.org/1999/02/22-rdf-syntax-ns#">
   <cc:Work>
    <dc:type rdf:resource="http://purl.org/dc/dcmitype/StillImage"/>
    <dc:date>2020-10-02T00:57:43.087557</dc:date>
    <dc:format>image/svg+xml</dc:format>
    <dc:creator>
     <cc:Agent>
      <dc:title>Matplotlib v3.3.1, https://matplotlib.org/</dc:title>
     </cc:Agent>
    </dc:creator>
   </cc:Work>
  </rdf:RDF>
 </metadata>
 <defs>
  <style type="text/css">*{stroke-linecap:butt;stroke-linejoin:round;}</style>
 </defs>
 <g id="figure_1">
  <g id="patch_1">
   <path d="M 0 460.8 
L 460.8 460.8 
L 460.8 0 
L 0 0 
z
" style="fill:#ffffff;"/>
  </g>
  <g id="axes_1">
   <g id="patch_2">
    <path d="M 30.58 191.08974 
L 438.54487 191.08974 
L 438.54487 44.82 
L 30.58 44.82 
z
" style="fill:#ffffff;"/>
   </g>
   <g id="matplotlib.axis_1">
    <g id="xtick_1">
     <g id="line2d_1">
      <path clip-path="url(#p1ea47ceb5d)" d="M 30.58 191.08974 
L 30.58 44.82 
" style="fill:none;stroke:#b0b0b0;stroke-dasharray:2.96,1.28;stroke-dashoffset:0;stroke-width:0.8;"/>
     </g>
     <g id="line2d_2">
      <defs>
       <path d="M 0 0 
L 0 3.5 
" id="m322db4d4c9" style="stroke:#000000;stroke-width:0.8;"/>
      </defs>
      <g>
       <use style="stroke:#000000;stroke-width:0.8;" x="30.58" xlink:href="#m322db4d4c9" y="191.08974"/>
      </g>
     </g>
     <g id="text_1">
      <!-- 0.00 -->
      <g transform="translate(24.659086 219.206821)rotate(-45)scale(0.1 -0.1)">
       <defs>
        <path d="M 31.78125 66.40625 
Q 24.171875 66.40625 20.328125 58.90625 
Q 16.5 51.421875 16.5 36.375 
Q 16.5 21.390625 20.328125 13.890625 
Q 24.171875 6.390625 31.78125 6.390625 
Q 39.453125 6.390625 43.28125 13.890625 
Q 47.125 21.390625 47.125 36.375 
Q 47.125 51.421875 43.28125 58.90625 
Q 39.453125 66.40625 31.78125 66.40625 
z
M 31.78125 74.21875 
Q 44.046875 74.21875 50.515625 64.515625 
Q 56.984375 54.828125 56.984375 36.375 
Q 56.984375 17.96875 50.515625 8.265625 
Q 44.046875 -1.421875 31.78125 -1.421875 
Q 19.53125 -1.421875 13.0625 8.265625 
Q 6.59375 17.96875 6.59375 36.375 
Q 6.59375 54.828125 13.0625 64.515625 
Q 19.53125 74.21875 31.78125 74.21875 
z
" id="DejaVuSans-48"/>
        <path d="M 10.6875 12.40625 
L 21 12.40625 
L 21 0 
L 10.6875 0 
z
" id="DejaVuSans-46"/>
       </defs>
       <use xlink:href="#DejaVuSans-48"/>
       <use x="63.623047" xlink:href="#DejaVuSans-46"/>
       <use x="95.410156" xlink:href="#DejaVuSans-48"/>
       <use x="159.033203" xlink:href="#DejaVuSans-48"/>
      </g>
     </g>
    </g>
    <g id="xtick_2">
     <g id="line2d_3">
      <path clip-path="url(#p1ea47ceb5d)" d="M 43.328902 191.08974 
L 43.328902 44.82 
" style="fill:none;stroke:#b0b0b0;stroke-dasharray:2.96,1.28;stroke-dashoffset:0;stroke-width:0.8;"/>
     </g>
     <g id="line2d_4">
      <g>
       <use style="stroke:#000000;stroke-width:0.8;" x="43.328902" xlink:href="#m322db4d4c9" y="191.08974"/>
      </g>
     </g>
     <g id="text_2">
      <!-- 0.25 -->
      <g transform="translate(37.407988 219.206821)rotate(-45)scale(0.1 -0.1)">
       <defs>
        <path d="M 19.1875 8.296875 
L 53.609375 8.296875 
L 53.609375 0 
L 7.328125 0 
L 7.328125 8.296875 
Q 12.9375 14.109375 22.625 23.890625 
Q 32.328125 33.6875 34.8125 36.53125 
Q 39.546875 41.84375 41.421875 45.53125 
Q 43.3125 49.21875 43.3125 52.78125 
Q 43.3125 58.59375 39.234375 62.25 
Q 35.15625 65.921875 28.609375 65.921875 
Q 23.96875 65.921875 18.8125 64.3125 
Q 13.671875 62.703125 7.8125 59.421875 
L 7.8125 69.390625 
Q 13.765625 71.78125 18.9375 73 
Q 24.125 74.21875 28.421875 74.21875 
Q 39.75 74.21875 46.484375 68.546875 
Q 53.21875 62.890625 53.21875 53.421875 
Q 53.21875 48.921875 51.53125 44.890625 
Q 49.859375 40.875 45.40625 35.40625 
Q 44.1875 33.984375 37.640625 27.21875 
Q 31.109375 20.453125 19.1875 8.296875 
z
" id="DejaVuSans-50"/>
        <path d="M 10.796875 72.90625 
L 49.515625 72.90625 
L 49.515625 64.59375 
L 19.828125 64.59375 
L 19.828125 46.734375 
Q 21.96875 47.46875 24.109375 47.828125 
Q 26.265625 48.1875 28.421875 48.1875 
Q 40.625 48.1875 47.75 41.5 
Q 54.890625 34.8125 54.890625 23.390625 
Q 54.890625 11.625 47.5625 5.09375 
Q 40.234375 -1.421875 26.90625 -1.421875 
Q 22.3125 -1.421875 17.546875 -0.640625 
Q 12.796875 0.140625 7.71875 1.703125 
L 7.71875 11.625 
Q 12.109375 9.234375 16.796875 8.0625 
Q 21.484375 6.890625 26.703125 6.890625 
Q 35.15625 6.890625 40.078125 11.328125 
Q 45.015625 15.765625 45.015625 23.390625 
Q 45.015625 31 40.078125 35.4375 
Q 35.15625 39.890625 26.703125 39.890625 
Q 22.75 39.890625 18.8125 39.015625 
Q 14.890625 38.140625 10.796875 36.28125 
z
" id="DejaVuSans-53"/>
       </defs>
       <use xlink:href="#DejaVuSans-48"/>
       <use x="63.623047" xlink:href="#DejaVuSans-46"/>
       <use x="95.410156" xlink:href="#DejaVuSans-50"/>
       <use x="159.033203" xlink:href="#DejaVuSans-53"/>
      </g>
     </g>
    </g>
    <g id="xtick_3">
     <g id="line2d_5">
      <path clip-path="url(#p1ea47ceb5d)" d="M 221.813533 191.08974 
L 221.813533 44.82 
" style="fill:none;stroke:#b0b0b0;stroke-dasharray:2.96,1.28;stroke-dashoffset:0;stroke-width:0.8;"/>
     </g>
     <g id="line2d_6">
      <g>
       <use style="stroke:#000000;stroke-width:0.8;" x="221.813533" xlink:href="#m322db4d4c9" y="191.08974"/>
      </g>
     </g>
     <g id="text_3">
      <!-- 3.75 -->
      <g transform="translate(215.892618 219.206821)rotate(-45)scale(0.1 -0.1)">
       <defs>
        <path d="M 40.578125 39.3125 
Q 47.65625 37.796875 51.625 33 
Q 55.609375 28.21875 55.609375 21.1875 
Q 55.609375 10.40625 48.1875 4.484375 
Q 40.765625 -1.421875 27.09375 -1.421875 
Q 22.515625 -1.421875 17.65625 -0.515625 
Q 12.796875 0.390625 7.625 2.203125 
L 7.625 11.71875 
Q 11.71875 9.328125 16.59375 8.109375 
Q 21.484375 6.890625 26.8125 6.890625 
Q 36.078125 6.890625 40.9375 10.546875 
Q 45.796875 14.203125 45.796875 21.1875 
Q 45.796875 27.640625 41.28125 31.265625 
Q 36.765625 34.90625 28.71875 34.90625 
L 20.21875 34.90625 
L 20.21875 43.015625 
L 29.109375 43.015625 
Q 36.375 43.015625 40.234375 45.921875 
Q 44.09375 48.828125 44.09375 54.296875 
Q 44.09375 59.90625 40.109375 62.90625 
Q 36.140625 65.921875 28.71875 65.921875 
Q 24.65625 65.921875 20.015625 65.03125 
Q 15.375 64.15625 9.8125 62.3125 
L 9.8125 71.09375 
Q 15.4375 72.65625 20.34375 73.4375 
Q 25.25 74.21875 29.59375 74.21875 
Q 40.828125 74.21875 47.359375 69.109375 
Q 53.90625 64.015625 53.90625 55.328125 
Q 53.90625 49.265625 50.4375 45.09375 
Q 46.96875 40.921875 40.578125 39.3125 
z
" id="DejaVuSans-51"/>
        <path d="M 8.203125 72.90625 
L 55.078125 72.90625 
L 55.078125 68.703125 
L 28.609375 0 
L 18.3125 0 
L 43.21875 64.59375 
L 8.203125 64.59375 
z
" id="DejaVuSans-55"/>
       </defs>
       <use xlink:href="#DejaVuSans-51"/>
       <use x="63.623047" xlink:href="#DejaVuSans-46"/>
       <use x="95.410156" xlink:href="#DejaVuSans-55"/>
       <use x="159.033203" xlink:href="#DejaVuSans-53"/>
      </g>
     </g>
    </g>
    <g id="xtick_4">
     <g id="line2d_7">
      <path clip-path="url(#p1ea47ceb5d)" d="M 247.311337 191.08974 
L 247.311337 44.82 
" style="fill:none;stroke:#b0b0b0;stroke-dasharray:2.96,1.28;stroke-dashoffset:0;stroke-width:0.8;"/>
     </g>
     <g id="line2d_8">
      <g>
       <use style="stroke:#000000;stroke-width:0.8;" x="247.311337" xlink:href="#m322db4d4c9" y="191.08974"/>
      </g>
     </g>
     <g id="text_4">
      <!-- 4.25 -->
      <g transform="translate(241.390423 219.206821)rotate(-45)scale(0.1 -0.1)">
       <defs>
        <path d="M 37.796875 64.3125 
L 12.890625 25.390625 
L 37.796875 25.390625 
z
M 35.203125 72.90625 
L 47.609375 72.90625 
L 47.609375 25.390625 
L 58.015625 25.390625 
L 58.015625 17.1875 
L 47.609375 17.1875 
L 47.609375 0 
L 37.796875 0 
L 37.796875 17.1875 
L 4.890625 17.1875 
L 4.890625 26.703125 
z
" id="DejaVuSans-52"/>
       </defs>
       <use xlink:href="#DejaVuSans-52"/>
       <use x="63.623047" xlink:href="#DejaVuSans-46"/>
       <use x="95.410156" xlink:href="#DejaVuSans-50"/>
       <use x="159.033203" xlink:href="#DejaVuSans-53"/>
      </g>
     </g>
    </g>
    <g id="xtick_5">
     <g id="line2d_9">
      <path clip-path="url(#p1ea47ceb5d)" d="M 425.795968 191.08974 
L 425.795968 44.82 
" style="fill:none;stroke:#b0b0b0;stroke-dasharray:2.96,1.28;stroke-dashoffset:0;stroke-width:0.8;"/>
     </g>
     <g id="line2d_10">
      <g>
       <use style="stroke:#000000;stroke-width:0.8;" x="425.795968" xlink:href="#m322db4d4c9" y="191.08974"/>
      </g>
     </g>
     <g id="text_5">
      <!-- 7.75 -->
      <g transform="translate(419.875054 219.206821)rotate(-45)scale(0.1 -0.1)">
       <use xlink:href="#DejaVuSans-55"/>
       <use x="63.623047" xlink:href="#DejaVuSans-46"/>
       <use x="95.410156" xlink:href="#DejaVuSans-55"/>
       <use x="159.033203" xlink:href="#DejaVuSans-53"/>
      </g>
     </g>
    </g>
    <g id="xtick_6">
     <g id="line2d_11">
      <path clip-path="url(#p1ea47ceb5d)" d="M 438.54487 191.08974 
L 438.54487 44.82 
" style="fill:none;stroke:#b0b0b0;stroke-dasharray:2.96,1.28;stroke-dashoffset:0;stroke-width:0.8;"/>
     </g>
     <g id="line2d_12">
      <g>
       <use style="stroke:#000000;stroke-width:0.8;" x="438.54487" xlink:href="#m322db4d4c9" y="191.08974"/>
      </g>
     </g>
     <g id="text_6">
      <!-- 8.00 -->
      <g transform="translate(432.623956 219.206821)rotate(-45)scale(0.1 -0.1)">
       <defs>
        <path d="M 31.78125 34.625 
Q 24.75 34.625 20.71875 30.859375 
Q 16.703125 27.09375 16.703125 20.515625 
Q 16.703125 13.921875 20.71875 10.15625 
Q 24.75 6.390625 31.78125 6.390625 
Q 38.8125 6.390625 42.859375 10.171875 
Q 46.921875 13.96875 46.921875 20.515625 
Q 46.921875 27.09375 42.890625 30.859375 
Q 38.875 34.625 31.78125 34.625 
z
M 21.921875 38.8125 
Q 15.578125 40.375 12.03125 44.71875 
Q 8.5 49.078125 8.5 55.328125 
Q 8.5 64.0625 14.71875 69.140625 
Q 20.953125 74.21875 31.78125 74.21875 
Q 42.671875 74.21875 48.875 69.140625 
Q 55.078125 64.0625 55.078125 55.328125 
Q 55.078125 49.078125 51.53125 44.71875 
Q 48 40.375 41.703125 38.8125 
Q 48.828125 37.15625 52.796875 32.3125 
Q 56.78125 27.484375 56.78125 20.515625 
Q 56.78125 9.90625 50.3125 4.234375 
Q 43.84375 -1.421875 31.78125 -1.421875 
Q 19.734375 -1.421875 13.25 4.234375 
Q 6.78125 9.90625 6.78125 20.515625 
Q 6.78125 27.484375 10.78125 32.3125 
Q 14.796875 37.15625 21.921875 38.8125 
z
M 18.3125 54.390625 
Q 18.3125 48.734375 21.84375 45.5625 
Q 25.390625 42.390625 31.78125 42.390625 
Q 38.140625 42.390625 41.71875 45.5625 
Q 45.3125 48.734375 45.3125 54.390625 
Q 45.3125 60.0625 41.71875 63.234375 
Q 38.140625 66.40625 31.78125 66.40625 
Q 25.390625 66.40625 21.84375 63.234375 
Q 18.3125 60.0625 18.3125 54.390625 
z
" id="DejaVuSans-56"/>
       </defs>
       <use xlink:href="#DejaVuSans-56"/>
       <use x="63.623047" xlink:href="#DejaVuSans-46"/>
       <use x="95.410156" xlink:href="#DejaVuSans-48"/>
       <use x="159.033203" xlink:href="#DejaVuSans-48"/>
      </g>
     </g>
    </g>
    <g id="text_7">
     <!-- Orbit Position $s$ / m -->
     <g transform="translate(186.862435 232.27582)scale(0.1 -0.1)">
      <defs>
       <path d="M 39.40625 66.21875 
Q 28.65625 66.21875 22.328125 58.203125 
Q 16.015625 50.203125 16.015625 36.375 
Q 16.015625 22.609375 22.328125 14.59375 
Q 28.65625 6.59375 39.40625 6.59375 
Q 50.140625 6.59375 56.421875 14.59375 
Q 62.703125 22.609375 62.703125 36.375 
Q 62.703125 50.203125 56.421875 58.203125 
Q 50.140625 66.21875 39.40625 66.21875 
z
M 39.40625 74.21875 
Q 54.734375 74.21875 63.90625 63.9375 
Q 73.09375 53.65625 73.09375 36.375 
Q 73.09375 19.140625 63.90625 8.859375 
Q 54.734375 -1.421875 39.40625 -1.421875 
Q 24.03125 -1.421875 14.8125 8.828125 
Q 5.609375 19.09375 5.609375 36.375 
Q 5.609375 53.65625 14.8125 63.9375 
Q 24.03125 74.21875 39.40625 74.21875 
z
" id="DejaVuSans-79"/>
       <path d="M 41.109375 46.296875 
Q 39.59375 47.171875 37.8125 47.578125 
Q 36.03125 48 33.890625 48 
Q 26.265625 48 22.1875 43.046875 
Q 18.109375 38.09375 18.109375 28.8125 
L 18.109375 0 
L 9.078125 0 
L 9.078125 54.6875 
L 18.109375 54.6875 
L 18.109375 46.1875 
Q 20.953125 51.171875 25.484375 53.578125 
Q 30.03125 56 36.53125 56 
Q 37.453125 56 38.578125 55.875 
Q 39.703125 55.765625 41.0625 55.515625 
z
" id="DejaVuSans-114"/>
       <path d="M 48.6875 27.296875 
Q 48.6875 37.203125 44.609375 42.84375 
Q 40.53125 48.484375 33.40625 48.484375 
Q 26.265625 48.484375 22.1875 42.84375 
Q 18.109375 37.203125 18.109375 27.296875 
Q 18.109375 17.390625 22.1875 11.75 
Q 26.265625 6.109375 33.40625 6.109375 
Q 40.53125 6.109375 44.609375 11.75 
Q 48.6875 17.390625 48.6875 27.296875 
z
M 18.109375 46.390625 
Q 20.953125 51.265625 25.265625 53.625 
Q 29.59375 56 35.59375 56 
Q 45.5625 56 51.78125 48.09375 
Q 58.015625 40.1875 58.015625 27.296875 
Q 58.015625 14.40625 51.78125 6.484375 
Q 45.5625 -1.421875 35.59375 -1.421875 
Q 29.59375 -1.421875 25.265625 0.953125 
Q 20.953125 3.328125 18.109375 8.203125 
L 18.109375 0 
L 9.078125 0 
L 9.078125 75.984375 
L 18.109375 75.984375 
z
" id="DejaVuSans-98"/>
       <path d="M 9.421875 54.6875 
L 18.40625 54.6875 
L 18.40625 0 
L 9.421875 0 
z
M 9.421875 75.984375 
L 18.40625 75.984375 
L 18.40625 64.59375 
L 9.421875 64.59375 
z
" id="DejaVuSans-105"/>
       <path d="M 18.3125 70.21875 
L 18.3125 54.6875 
L 36.8125 54.6875 
L 36.8125 47.703125 
L 18.3125 47.703125 
L 18.3125 18.015625 
Q 18.3125 11.328125 20.140625 9.421875 
Q 21.96875 7.515625 27.59375 7.515625 
L 36.8125 7.515625 
L 36.8125 0 
L 27.59375 0 
Q 17.1875 0 13.234375 3.875 
Q 9.28125 7.765625 9.28125 18.015625 
L 9.28125 47.703125 
L 2.6875 47.703125 
L 2.6875 54.6875 
L 9.28125 54.6875 
L 9.28125 70.21875 
z
" id="DejaVuSans-116"/>
       <path id="DejaVuSans-32"/>
       <path d="M 19.671875 64.796875 
L 19.671875 37.40625 
L 32.078125 37.40625 
Q 38.96875 37.40625 42.71875 40.96875 
Q 46.484375 44.53125 46.484375 51.125 
Q 46.484375 57.671875 42.71875 61.234375 
Q 38.96875 64.796875 32.078125 64.796875 
z
M 9.8125 72.90625 
L 32.078125 72.90625 
Q 44.34375 72.90625 50.609375 67.359375 
Q 56.890625 61.8125 56.890625 51.125 
Q 56.890625 40.328125 50.609375 34.8125 
Q 44.34375 29.296875 32.078125 29.296875 
L 19.671875 29.296875 
L 19.671875 0 
L 9.8125 0 
z
" id="DejaVuSans-80"/>
       <path d="M 30.609375 48.390625 
Q 23.390625 48.390625 19.1875 42.75 
Q 14.984375 37.109375 14.984375 27.296875 
Q 14.984375 17.484375 19.15625 11.84375 
Q 23.34375 6.203125 30.609375 6.203125 
Q 37.796875 6.203125 41.984375 11.859375 
Q 46.1875 17.53125 46.1875 27.296875 
Q 46.1875 37.015625 41.984375 42.703125 
Q 37.796875 48.390625 30.609375 48.390625 
z
M 30.609375 56 
Q 42.328125 56 49.015625 48.375 
Q 55.71875 40.765625 55.71875 27.296875 
Q 55.71875 13.875 49.015625 6.21875 
Q 42.328125 -1.421875 30.609375 -1.421875 
Q 18.84375 -1.421875 12.171875 6.21875 
Q 5.515625 13.875 5.515625 27.296875 
Q 5.515625 40.765625 12.171875 48.375 
Q 18.84375 56 30.609375 56 
z
" id="DejaVuSans-111"/>
       <path d="M 44.28125 53.078125 
L 44.28125 44.578125 
Q 40.484375 46.53125 36.375 47.5 
Q 32.28125 48.484375 27.875 48.484375 
Q 21.1875 48.484375 17.84375 46.4375 
Q 14.5 44.390625 14.5 40.28125 
Q 14.5 37.15625 16.890625 35.375 
Q 19.28125 33.59375 26.515625 31.984375 
L 29.59375 31.296875 
Q 39.15625 29.25 43.1875 25.515625 
Q 47.21875 21.78125 47.21875 15.09375 
Q 47.21875 7.46875 41.1875 3.015625 
Q 35.15625 -1.421875 24.609375 -1.421875 
Q 20.21875 -1.421875 15.453125 -0.5625 
Q 10.6875 0.296875 5.421875 2 
L 5.421875 11.28125 
Q 10.40625 8.6875 15.234375 7.390625 
Q 20.0625 6.109375 24.8125 6.109375 
Q 31.15625 6.109375 34.5625 8.28125 
Q 37.984375 10.453125 37.984375 14.40625 
Q 37.984375 18.0625 35.515625 20.015625 
Q 33.0625 21.96875 24.703125 23.78125 
L 21.578125 24.515625 
Q 13.234375 26.265625 9.515625 29.90625 
Q 5.8125 33.546875 5.8125 39.890625 
Q 5.8125 47.609375 11.28125 51.796875 
Q 16.75 56 26.8125 56 
Q 31.78125 56 36.171875 55.265625 
Q 40.578125 54.546875 44.28125 53.078125 
z
" id="DejaVuSans-115"/>
       <path d="M 54.890625 33.015625 
L 54.890625 0 
L 45.90625 0 
L 45.90625 32.71875 
Q 45.90625 40.484375 42.875 44.328125 
Q 39.84375 48.1875 33.796875 48.1875 
Q 26.515625 48.1875 22.3125 43.546875 
Q 18.109375 38.921875 18.109375 30.90625 
L 18.109375 0 
L 9.078125 0 
L 9.078125 54.6875 
L 18.109375 54.6875 
L 18.109375 46.1875 
Q 21.34375 51.125 25.703125 53.5625 
Q 30.078125 56 35.796875 56 
Q 45.21875 56 50.046875 50.171875 
Q 54.890625 44.34375 54.890625 33.015625 
z
" id="DejaVuSans-110"/>
       <path d="M 50 53.078125 
L 48.296875 44.578125 
Q 44.734375 46.53125 40.765625 47.5 
Q 36.8125 48.484375 32.625 48.484375 
Q 25.53125 48.484375 21.453125 46.0625 
Q 17.390625 43.65625 17.390625 39.5 
Q 17.390625 34.671875 26.859375 32.078125 
Q 27.59375 31.890625 27.9375 31.78125 
L 30.8125 30.90625 
Q 39.796875 28.421875 42.796875 25.6875 
Q 45.796875 22.953125 45.796875 18.21875 
Q 45.796875 9.515625 38.890625 4.046875 
Q 31.984375 -1.421875 20.796875 -1.421875 
Q 16.453125 -1.421875 11.671875 -0.578125 
Q 6.890625 0.25 1.125 2 
L 2.875 11.28125 
Q 7.8125 8.734375 12.59375 7.421875 
Q 17.390625 6.109375 21.78125 6.109375 
Q 28.375 6.109375 32.5 8.9375 
Q 36.625 11.765625 36.625 16.109375 
Q 36.625 20.796875 25.78125 23.6875 
L 24.859375 23.921875 
L 21.78125 24.703125 
Q 14.9375 26.515625 11.765625 29.46875 
Q 8.59375 32.421875 8.59375 37.015625 
Q 8.59375 45.75 15.15625 50.875 
Q 21.734375 56 33.015625 56 
Q 37.453125 56 41.671875 55.265625 
Q 45.90625 54.546875 50 53.078125 
z
" id="DejaVuSans-Oblique-115"/>
       <path d="M 25.390625 72.90625 
L 33.6875 72.90625 
L 8.296875 -9.28125 
L 0 -9.28125 
z
" id="DejaVuSans-47"/>
       <path d="M 52 44.1875 
Q 55.375 50.25 60.0625 53.125 
Q 64.75 56 71.09375 56 
Q 79.640625 56 84.28125 50.015625 
Q 88.921875 44.046875 88.921875 33.015625 
L 88.921875 0 
L 79.890625 0 
L 79.890625 32.71875 
Q 79.890625 40.578125 77.09375 44.375 
Q 74.3125 48.1875 68.609375 48.1875 
Q 61.625 48.1875 57.5625 43.546875 
Q 53.515625 38.921875 53.515625 30.90625 
L 53.515625 0 
L 44.484375 0 
L 44.484375 32.71875 
Q 44.484375 40.625 41.703125 44.40625 
Q 38.921875 48.1875 33.109375 48.1875 
Q 26.21875 48.1875 22.15625 43.53125 
Q 18.109375 38.875 18.109375 30.90625 
L 18.109375 0 
L 9.078125 0 
L 9.078125 54.6875 
L 18.109375 54.6875 
L 18.109375 46.1875 
Q 21.1875 51.21875 25.484375 53.609375 
Q 29.78125 56 35.6875 56 
Q 41.65625 56 45.828125 52.96875 
Q 50 49.953125 52 44.1875 
z
" id="DejaVuSans-109"/>
      </defs>
      <use transform="translate(0 0.015625)" xlink:href="#DejaVuSans-79"/>
      <use transform="translate(78.710938 0.015625)" xlink:href="#DejaVuSans-114"/>
      <use transform="translate(119.824219 0.015625)" xlink:href="#DejaVuSans-98"/>
      <use transform="translate(183.300781 0.015625)" xlink:href="#DejaVuSans-105"/>
      <use transform="translate(211.083984 0.015625)" xlink:href="#DejaVuSans-116"/>
      <use transform="translate(250.292969 0.015625)" xlink:href="#DejaVuSans-32"/>
      <use transform="translate(282.080078 0.015625)" xlink:href="#DejaVuSans-80"/>
      <use transform="translate(342.382812 0.015625)" xlink:href="#DejaVuSans-111"/>
      <use transform="translate(403.564453 0.015625)" xlink:href="#DejaVuSans-115"/>
      <use transform="translate(455.664062 0.015625)" xlink:href="#DejaVuSans-105"/>
      <use transform="translate(483.447266 0.015625)" xlink:href="#DejaVuSans-116"/>
      <use transform="translate(522.65625 0.015625)" xlink:href="#DejaVuSans-105"/>
      <use transform="translate(550.439453 0.015625)" xlink:href="#DejaVuSans-111"/>
      <use transform="translate(611.621094 0.015625)" xlink:href="#DejaVuSans-110"/>
      <use transform="translate(675 0.015625)" xlink:href="#DejaVuSans-32"/>
      <use transform="translate(706.787109 0.015625)" xlink:href="#DejaVuSans-Oblique-115"/>
      <use transform="translate(758.886719 0.015625)" xlink:href="#DejaVuSans-32"/>
      <use transform="translate(790.673828 0.015625)" xlink:href="#DejaVuSans-47"/>
      <use transform="translate(824.365234 0.015625)" xlink:href="#DejaVuSans-32"/>
      <use transform="translate(856.152344 0.015625)" xlink:href="#DejaVuSans-109"/>
     </g>
    </g>
   </g>
   <g id="matplotlib.axis_2">
    <g id="ytick_1">
     <g id="line2d_13">
      <path clip-path="url(#p1ea47ceb5d)" d="M 30.58 184.124515 
L 438.54487 184.124515 
" style="fill:none;stroke:#b0b0b0;stroke-dasharray:2.96,1.28;stroke-dashoffset:0;stroke-width:0.8;"/>
     </g>
     <g id="line2d_14">
      <defs>
       <path d="M 0 0 
L -3.5 0 
" id="m24f7376fa8" style="stroke:#000000;stroke-width:0.8;"/>
      </defs>
      <g>
       <use style="stroke:#000000;stroke-width:0.8;" x="30.58" xlink:href="#m24f7376fa8" y="184.124515"/>
      </g>
     </g>
     <g id="text_8">
      <!-- 0 -->
      <g transform="translate(17.2175 187.923733)scale(0.1 -0.1)">
       <use xlink:href="#DejaVuSans-48"/>
      </g>
     </g>
    </g>
    <g id="ytick_2">
     <g id="line2d_15">
      <path clip-path="url(#p1ea47ceb5d)" d="M 30.58 149.298386 
L 438.54487 149.298386 
" style="fill:none;stroke:#b0b0b0;stroke-dasharray:2.96,1.28;stroke-dashoffset:0;stroke-width:0.8;"/>
     </g>
     <g id="line2d_16">
      <g>
       <use style="stroke:#000000;stroke-width:0.8;" x="30.58" xlink:href="#m24f7376fa8" y="149.298386"/>
      </g>
     </g>
     <g id="text_9">
      <!-- 5 -->
      <g transform="translate(17.2175 153.097605)scale(0.1 -0.1)">
       <use xlink:href="#DejaVuSans-53"/>
      </g>
     </g>
    </g>
    <g id="ytick_3">
     <g id="line2d_17">
      <path clip-path="url(#p1ea47ceb5d)" d="M 30.58 114.472257 
L 438.54487 114.472257 
" style="fill:none;stroke:#b0b0b0;stroke-dasharray:2.96,1.28;stroke-dashoffset:0;stroke-width:0.8;"/>
     </g>
     <g id="line2d_18">
      <g>
       <use style="stroke:#000000;stroke-width:0.8;" x="30.58" xlink:href="#m24f7376fa8" y="114.472257"/>
      </g>
     </g>
     <g id="text_10">
      <!-- 10 -->
      <g transform="translate(10.855 118.271476)scale(0.1 -0.1)">
       <defs>
        <path d="M 12.40625 8.296875 
L 28.515625 8.296875 
L 28.515625 63.921875 
L 10.984375 60.40625 
L 10.984375 69.390625 
L 28.421875 72.90625 
L 38.28125 72.90625 
L 38.28125 8.296875 
L 54.390625 8.296875 
L 54.390625 0 
L 12.40625 0 
z
" id="DejaVuSans-49"/>
       </defs>
       <use xlink:href="#DejaVuSans-49"/>
       <use x="63.623047" xlink:href="#DejaVuSans-48"/>
      </g>
     </g>
    </g>
    <g id="ytick_4">
     <g id="line2d_19">
      <path clip-path="url(#p1ea47ceb5d)" d="M 30.58 79.646129 
L 438.54487 79.646129 
" style="fill:none;stroke:#b0b0b0;stroke-dasharray:2.96,1.28;stroke-dashoffset:0;stroke-width:0.8;"/>
     </g>
     <g id="line2d_20">
      <g>
       <use style="stroke:#000000;stroke-width:0.8;" x="30.58" xlink:href="#m24f7376fa8" y="79.646129"/>
      </g>
     </g>
     <g id="text_11">
      <!-- 15 -->
      <g transform="translate(10.855 83.445347)scale(0.1 -0.1)">
       <use xlink:href="#DejaVuSans-49"/>
       <use x="63.623047" xlink:href="#DejaVuSans-53"/>
      </g>
     </g>
    </g>
    <g id="ytick_5">
     <g id="line2d_21">
      <path clip-path="url(#p1ea47ceb5d)" d="M 30.58 44.82 
L 438.54487 44.82 
" style="fill:none;stroke:#b0b0b0;stroke-dasharray:2.96,1.28;stroke-dashoffset:0;stroke-width:0.8;"/>
     </g>
     <g id="line2d_22">
      <g>
       <use style="stroke:#000000;stroke-width:0.8;" x="30.58" xlink:href="#m24f7376fa8" y="44.82"/>
      </g>
     </g>
     <g id="text_12">
      <!-- 20 -->
      <g transform="translate(10.855 48.619219)scale(0.1 -0.1)">
       <use xlink:href="#DejaVuSans-50"/>
       <use x="63.623047" xlink:href="#DejaVuSans-48"/>
      </g>
     </g>
    </g>
   </g>
   <g id="patch_3">
    <path d="M 30.58 191.08974 
L 30.58 44.82 
" style="fill:none;stroke:#000000;stroke-linecap:square;stroke-linejoin:miter;stroke-width:0.8;"/>
   </g>
   <g id="patch_4">
    <path d="M 438.54487 191.08974 
L 438.54487 44.82 
" style="fill:none;stroke:#000000;stroke-linecap:square;stroke-linejoin:miter;stroke-width:0.8;"/>
   </g>
   <g id="patch_5">
    <path d="M 30.58 191.08974 
L 438.54487 191.08974 
" style="fill:none;stroke:#000000;stroke-linecap:square;stroke-linejoin:miter;stroke-width:0.8;"/>
   </g>
   <g id="patch_6">
    <path d="M 30.58 44.82 
L 438.54487 44.82 
" style="fill:none;stroke:#000000;stroke-linecap:square;stroke-linejoin:miter;stroke-width:0.8;"/>
   </g>
   <g id="line2d_23">
    <path clip-path="url(#p1ea47ceb5d)" d="M 30.58 184.124515 
L 31.85489 184.124515 
L 33.12978 184.124515 
L 34.404671 184.124515 
L 35.679561 184.124515 
L 36.954451 184.124515 
L 38.229341 184.124515 
L 39.504232 184.124515 
L 40.779122 184.124515 
L 42.054012 184.124515 
L 43.328902 184.124515 
L 61.177365 184.124515 
L 79.025828 184.124515 
L 96.874291 184.124515 
L 114.722754 184.124515 
L 132.571218 184.124515 
L 150.419681 184.124515 
L 168.268144 184.124515 
L 186.116607 184.124515 
L 203.96507 184.124515 
L 221.813533 184.124515 
L 224.363313 184.124515 
L 226.913094 184.124515 
L 229.462874 184.124515 
L 232.012655 184.124515 
L 234.562435 184.124515 
L 237.112216 184.124515 
L 239.661996 184.124515 
L 242.211776 184.124515 
L 244.761557 184.124515 
L 247.311337 184.124515 
L 265.1598 184.124515 
L 283.008263 184.124515 
L 300.856726 184.124515 
L 318.70519 184.124515 
L 336.553653 184.124515 
L 354.402116 184.124515 
L 372.250579 184.124515 
L 390.099042 184.124515 
L 407.947505 184.124515 
L 425.795968 184.124515 
L 427.070858 184.124515 
L 428.345748 184.124515 
L 429.620639 184.124515 
L 430.895529 184.124515 
L 432.170419 184.124515 
L 433.445309 184.124515 
L 434.720199 184.124515 
L 435.99509 184.124515 
L 437.26998 184.124515 
L 438.54487 184.124515 
" style="fill:none;stroke:#3cb371;stroke-linecap:square;stroke-width:1.3;"/>
   </g>
   <g id="line2d_24">
    <path clip-path="url(#p1ea47ceb5d)" d="M 30.58 170.666409 
L 31.85489 170.657425 
L 33.12978 170.630456 
L 34.404671 170.585448 
L 35.679561 170.522312 
L 36.954451 170.440919 
L 38.229341 170.341109 
L 39.504232 170.222681 
L 40.779122 170.085397 
L 42.054012 169.928985 
L 43.328902 169.75313 
L 61.177365 166.622378 
L 79.025828 162.429437 
L 96.874291 157.174306 
L 114.722754 150.856986 
L 132.571218 143.477476 
L 150.419681 135.035778 
L 168.268144 125.53189 
L 186.116607 114.965813 
L 203.96507 103.337546 
L 221.813533 90.647091 
L 224.363313 88.936814 
L 226.913094 87.592208 
L 229.462874 86.624022 
L 232.012655 86.039997 
L 234.562435 85.844802 
L 237.112216 86.039997 
L 239.661996 86.624022 
L 242.211776 87.592208 
L 244.761557 88.936814 
L 247.311337 90.647091 
L 265.1598 103.337546 
L 283.008263 114.965813 
L 300.856726 125.53189 
L 318.70519 135.035778 
L 336.553653 143.477476 
L 354.402116 150.856986 
L 372.250579 157.174306 
L 390.099042 162.429437 
L 407.947505 166.622378 
L 425.795968 169.75313 
L 427.070858 169.928985 
L 428.345748 170.085397 
L 429.620639 170.222681 
L 430.895529 170.341109 
L 432.170419 170.440919 
L 433.445309 170.522312 
L 434.720199 170.585448 
L 435.99509 170.630456 
L 437.26998 170.657425 
L 438.54487 170.666409 
" style="fill:none;stroke:#1e90ff;stroke-linecap:square;stroke-width:1.3;"/>
   </g>
   <g id="patch_7">
    <path d="M 30.58 47.105465 
L 43.328902 47.105465 
L 43.328902 42.534535 
L 30.58 42.534535 
z
" style="fill:#dc143c;"/>
   </g>
   <g id="patch_8">
    <path d="M 221.813533 47.105465 
L 247.311337 47.105465 
L 247.311337 42.534535 
L 221.813533 42.534535 
z
" style="fill:#dc143c;"/>
   </g>
   <g id="patch_9">
    <path d="M 425.795968 47.105465 
L 438.54487 47.105465 
L 438.54487 42.534535 
L 425.795968 42.534535 
z
" style="fill:#dc143c;"/>
   </g>
   <g id="line2d_25">
    <path clip-path="url(#p1ea47ceb5d)" d="M 30.58 85.844802 
L 31.85489 85.893626 
L 33.12978 86.039997 
L 34.404671 86.283625 
L 35.679561 86.624022 
L 36.954451 87.060508 
L 38.229341 87.592208 
L 39.504232 88.218061 
L 40.779122 88.936814 
L 42.054012 89.747031 
L 43.328902 90.647091 
L 61.177365 103.337546 
L 79.025828 114.965813 
L 96.874291 125.53189 
L 114.722754 135.035778 
L 132.571218 143.477476 
L 150.419681 150.856986 
L 168.268144 157.174306 
L 186.116607 162.429437 
L 203.96507 166.622378 
L 221.813533 169.75313 
L 224.363313 170.085397 
L 226.913094 170.341109 
L 229.462874 170.522312 
L 232.012655 170.630456 
L 234.562435 170.666409 
L 237.112216 170.630456 
L 239.661996 170.522312 
L 242.211776 170.341109 
L 244.761557 170.085397 
L 247.311337 169.75313 
L 265.1598 166.622378 
L 283.008263 162.429437 
L 300.856726 157.174306 
L 318.70519 150.856986 
L 336.553653 143.477476 
L 354.402116 135.035778 
L 372.250579 125.53189 
L 390.099042 114.965813 
L 407.947505 103.337546 
L 425.795968 90.647091 
L 427.070858 89.747031 
L 428.345748 88.936814 
L 429.620639 88.218061 
L 430.895529 87.592208 
L 432.170419 87.060508 
L 433.445309 86.624022 
L 434.720199 86.283625 
L 435.99509 86.039997 
L 437.26998 85.893626 
L 438.54487 85.844802 
" style="fill:none;stroke:#dc143c;stroke-linecap:square;stroke-width:1.3;"/>
   </g>
   <g id="text_13">
    <!-- q1 -->
    <g transform="translate(31.870076 39.728053)scale(0.08 -0.08)">
     <defs>
      <path d="M 14.796875 27.296875 
Q 14.796875 17.390625 18.875 11.75 
Q 22.953125 6.109375 30.078125 6.109375 
Q 37.203125 6.109375 41.296875 11.75 
Q 45.40625 17.390625 45.40625 27.296875 
Q 45.40625 37.203125 41.296875 42.84375 
Q 37.203125 48.484375 30.078125 48.484375 
Q 22.953125 48.484375 18.875 42.84375 
Q 14.796875 37.203125 14.796875 27.296875 
z
M 45.40625 8.203125 
Q 42.578125 3.328125 38.25 0.953125 
Q 33.9375 -1.421875 27.875 -1.421875 
Q 17.96875 -1.421875 11.734375 6.484375 
Q 5.515625 14.40625 5.515625 27.296875 
Q 5.515625 40.1875 11.734375 48.09375 
Q 17.96875 56 27.875 56 
Q 33.9375 56 38.25 53.625 
Q 42.578125 51.265625 45.40625 46.390625 
L 45.40625 54.6875 
L 54.390625 54.6875 
L 54.390625 -20.796875 
L 45.40625 -20.796875 
z
" id="DejaVuSans-113"/>
     </defs>
     <use xlink:href="#DejaVuSans-113"/>
     <use x="63.476562" xlink:href="#DejaVuSans-49"/>
    </g>
   </g>
   <g id="text_14">
    <!-- q2 -->
    <g transform="translate(229.47806 39.728053)scale(0.08 -0.08)">
     <use xlink:href="#DejaVuSans-113"/>
     <use x="63.476562" xlink:href="#DejaVuSans-50"/>
    </g>
   </g>
   <g id="text_15">
    <!-- q1 -->
    <g transform="translate(427.086044 39.728053)scale(0.08 -0.08)">
     <use xlink:href="#DejaVuSans-113"/>
     <use x="63.476562" xlink:href="#DejaVuSans-49"/>
    </g>
   </g>
  </g>
  <g id="axes_2">
   <g id="patch_10">
    <path d="M 30.58 404.56974 
L 438.54487 404.56974 
L 438.54487 258.3 
L 30.58 258.3 
z
" style="fill:#ffffff;"/>
   </g>
   <g id="matplotlib.axis_3">
    <g id="xtick_7">
     <g id="line2d_26">
      <path clip-path="url(#p206ce70815)" d="M 30.58 404.56974 
L 30.58 258.3 
" style="fill:none;stroke:#b0b0b0;stroke-dasharray:2.96,1.28;stroke-dashoffset:0;stroke-width:0.8;"/>
     </g>
     <g id="line2d_27">
      <g>
       <use style="stroke:#000000;stroke-width:0.8;" x="30.58" xlink:href="#m322db4d4c9" y="404.56974"/>
      </g>
     </g>
     <g id="text_16">
      <!-- 0.00 -->
      <g transform="translate(24.659086 432.686821)rotate(-45)scale(0.1 -0.1)">
       <use xlink:href="#DejaVuSans-48"/>
       <use x="63.623047" xlink:href="#DejaVuSans-46"/>
       <use x="95.410156" xlink:href="#DejaVuSans-48"/>
       <use x="159.033203" xlink:href="#DejaVuSans-48"/>
      </g>
     </g>
    </g>
    <g id="xtick_8">
     <g id="line2d_28">
      <path clip-path="url(#p206ce70815)" d="M 43.328902 404.56974 
L 43.328902 258.3 
" style="fill:none;stroke:#b0b0b0;stroke-dasharray:2.96,1.28;stroke-dashoffset:0;stroke-width:0.8;"/>
     </g>
     <g id="line2d_29">
      <g>
       <use style="stroke:#000000;stroke-width:0.8;" x="43.328902" xlink:href="#m322db4d4c9" y="404.56974"/>
      </g>
     </g>
     <g id="text_17">
      <!-- 0.25 -->
      <g transform="translate(37.407988 432.686821)rotate(-45)scale(0.1 -0.1)">
       <use xlink:href="#DejaVuSans-48"/>
       <use x="63.623047" xlink:href="#DejaVuSans-46"/>
       <use x="95.410156" xlink:href="#DejaVuSans-50"/>
       <use x="159.033203" xlink:href="#DejaVuSans-53"/>
      </g>
     </g>
    </g>
    <g id="xtick_9">
     <g id="line2d_30">
      <path clip-path="url(#p206ce70815)" d="M 94.324511 404.56974 
L 94.324511 258.3 
" style="fill:none;stroke:#b0b0b0;stroke-dasharray:2.96,1.28;stroke-dashoffset:0;stroke-width:0.8;"/>
     </g>
     <g id="line2d_31">
      <g>
       <use style="stroke:#000000;stroke-width:0.8;" x="94.324511" xlink:href="#m322db4d4c9" y="404.56974"/>
      </g>
     </g>
     <g id="text_18">
      <!-- 1.25 -->
      <g transform="translate(88.403597 432.686821)rotate(-45)scale(0.1 -0.1)">
       <use xlink:href="#DejaVuSans-49"/>
       <use x="63.623047" xlink:href="#DejaVuSans-46"/>
       <use x="95.410156" xlink:href="#DejaVuSans-50"/>
       <use x="159.033203" xlink:href="#DejaVuSans-53"/>
      </g>
     </g>
    </g>
    <g id="xtick_10">
     <g id="line2d_32">
      <path clip-path="url(#p206ce70815)" d="M 170.817924 404.56974 
L 170.817924 258.3 
" style="fill:none;stroke:#b0b0b0;stroke-dasharray:2.96,1.28;stroke-dashoffset:0;stroke-width:0.8;"/>
     </g>
     <g id="line2d_33">
      <g>
       <use style="stroke:#000000;stroke-width:0.8;" x="170.817924" xlink:href="#m322db4d4c9" y="404.56974"/>
      </g>
     </g>
     <g id="text_19">
      <!-- 2.75 -->
      <g transform="translate(164.89701 432.686821)rotate(-45)scale(0.1 -0.1)">
       <use xlink:href="#DejaVuSans-50"/>
       <use x="63.623047" xlink:href="#DejaVuSans-46"/>
       <use x="95.410156" xlink:href="#DejaVuSans-55"/>
       <use x="159.033203" xlink:href="#DejaVuSans-53"/>
      </g>
     </g>
    </g>
    <g id="xtick_11">
     <g id="line2d_34">
      <path clip-path="url(#p206ce70815)" d="M 221.813533 404.56974 
L 221.813533 258.3 
" style="fill:none;stroke:#b0b0b0;stroke-dasharray:2.96,1.28;stroke-dashoffset:0;stroke-width:0.8;"/>
     </g>
     <g id="line2d_35">
      <g>
       <use style="stroke:#000000;stroke-width:0.8;" x="221.813533" xlink:href="#m322db4d4c9" y="404.56974"/>
      </g>
     </g>
     <g id="text_20">
      <!-- 3.75 -->
      <g transform="translate(215.892618 432.686821)rotate(-45)scale(0.1 -0.1)">
       <use xlink:href="#DejaVuSans-51"/>
       <use x="63.623047" xlink:href="#DejaVuSans-46"/>
       <use x="95.410156" xlink:href="#DejaVuSans-55"/>
       <use x="159.033203" xlink:href="#DejaVuSans-53"/>
      </g>
     </g>
    </g>
    <g id="xtick_12">
     <g id="line2d_36">
      <path clip-path="url(#p206ce70815)" d="M 247.311337 404.56974 
L 247.311337 258.3 
" style="fill:none;stroke:#b0b0b0;stroke-dasharray:2.96,1.28;stroke-dashoffset:0;stroke-width:0.8;"/>
     </g>
     <g id="line2d_37">
      <g>
       <use style="stroke:#000000;stroke-width:0.8;" x="247.311337" xlink:href="#m322db4d4c9" y="404.56974"/>
      </g>
     </g>
     <g id="text_21">
      <!-- 4.25 -->
      <g transform="translate(241.390423 432.686821)rotate(-45)scale(0.1 -0.1)">
       <use xlink:href="#DejaVuSans-52"/>
       <use x="63.623047" xlink:href="#DejaVuSans-46"/>
       <use x="95.410156" xlink:href="#DejaVuSans-50"/>
       <use x="159.033203" xlink:href="#DejaVuSans-53"/>
      </g>
     </g>
    </g>
    <g id="xtick_13">
     <g id="line2d_38">
      <path clip-path="url(#p206ce70815)" d="M 298.306946 404.56974 
L 298.306946 258.3 
" style="fill:none;stroke:#b0b0b0;stroke-dasharray:2.96,1.28;stroke-dashoffset:0;stroke-width:0.8;"/>
     </g>
     <g id="line2d_39">
      <g>
       <use style="stroke:#000000;stroke-width:0.8;" x="298.306946" xlink:href="#m322db4d4c9" y="404.56974"/>
      </g>
     </g>
     <g id="text_22">
      <!-- 5.25 -->
      <g transform="translate(292.386032 432.686821)rotate(-45)scale(0.1 -0.1)">
       <use xlink:href="#DejaVuSans-53"/>
       <use x="63.623047" xlink:href="#DejaVuSans-46"/>
       <use x="95.410156" xlink:href="#DejaVuSans-50"/>
       <use x="159.033203" xlink:href="#DejaVuSans-53"/>
      </g>
     </g>
    </g>
    <g id="xtick_14">
     <g id="line2d_40">
      <path clip-path="url(#p206ce70815)" d="M 374.800359 404.56974 
L 374.800359 258.3 
" style="fill:none;stroke:#b0b0b0;stroke-dasharray:2.96,1.28;stroke-dashoffset:0;stroke-width:0.8;"/>
     </g>
     <g id="line2d_41">
      <g>
       <use style="stroke:#000000;stroke-width:0.8;" x="374.800359" xlink:href="#m322db4d4c9" y="404.56974"/>
      </g>
     </g>
     <g id="text_23">
      <!-- 6.75 -->
      <g transform="translate(368.879445 432.686821)rotate(-45)scale(0.1 -0.1)">
       <defs>
        <path d="M 33.015625 40.375 
Q 26.375 40.375 22.484375 35.828125 
Q 18.609375 31.296875 18.609375 23.390625 
Q 18.609375 15.53125 22.484375 10.953125 
Q 26.375 6.390625 33.015625 6.390625 
Q 39.65625 6.390625 43.53125 10.953125 
Q 47.40625 15.53125 47.40625 23.390625 
Q 47.40625 31.296875 43.53125 35.828125 
Q 39.65625 40.375 33.015625 40.375 
z
M 52.59375 71.296875 
L 52.59375 62.3125 
Q 48.875 64.0625 45.09375 64.984375 
Q 41.3125 65.921875 37.59375 65.921875 
Q 27.828125 65.921875 22.671875 59.328125 
Q 17.53125 52.734375 16.796875 39.40625 
Q 19.671875 43.65625 24.015625 45.921875 
Q 28.375 48.1875 33.59375 48.1875 
Q 44.578125 48.1875 50.953125 41.515625 
Q 57.328125 34.859375 57.328125 23.390625 
Q 57.328125 12.15625 50.6875 5.359375 
Q 44.046875 -1.421875 33.015625 -1.421875 
Q 20.359375 -1.421875 13.671875 8.265625 
Q 6.984375 17.96875 6.984375 36.375 
Q 6.984375 53.65625 15.1875 63.9375 
Q 23.390625 74.21875 37.203125 74.21875 
Q 40.921875 74.21875 44.703125 73.484375 
Q 48.484375 72.75 52.59375 71.296875 
z
" id="DejaVuSans-54"/>
       </defs>
       <use xlink:href="#DejaVuSans-54"/>
       <use x="63.623047" xlink:href="#DejaVuSans-46"/>
       <use x="95.410156" xlink:href="#DejaVuSans-55"/>
       <use x="159.033203" xlink:href="#DejaVuSans-53"/>
      </g>
     </g>
    </g>
    <g id="xtick_15">
     <g id="line2d_42">
      <path clip-path="url(#p206ce70815)" d="M 425.795968 404.56974 
L 425.795968 258.3 
" style="fill:none;stroke:#b0b0b0;stroke-dasharray:2.96,1.28;stroke-dashoffset:0;stroke-width:0.8;"/>
     </g>
     <g id="line2d_43">
      <g>
       <use style="stroke:#000000;stroke-width:0.8;" x="425.795968" xlink:href="#m322db4d4c9" y="404.56974"/>
      </g>
     </g>
     <g id="text_24">
      <!-- 7.75 -->
      <g transform="translate(419.875054 432.686821)rotate(-45)scale(0.1 -0.1)">
       <use xlink:href="#DejaVuSans-55"/>
       <use x="63.623047" xlink:href="#DejaVuSans-46"/>
       <use x="95.410156" xlink:href="#DejaVuSans-55"/>
       <use x="159.033203" xlink:href="#DejaVuSans-53"/>
      </g>
     </g>
    </g>
    <g id="xtick_16">
     <g id="line2d_44">
      <path clip-path="url(#p206ce70815)" d="M 438.54487 404.56974 
L 438.54487 258.3 
" style="fill:none;stroke:#b0b0b0;stroke-dasharray:2.96,1.28;stroke-dashoffset:0;stroke-width:0.8;"/>
     </g>
     <g id="line2d_45">
      <g>
       <use style="stroke:#000000;stroke-width:0.8;" x="438.54487" xlink:href="#m322db4d4c9" y="404.56974"/>
      </g>
     </g>
     <g id="text_25">
      <!-- 8.00 -->
      <g transform="translate(432.623956 432.686821)rotate(-45)scale(0.1 -0.1)">
       <use xlink:href="#DejaVuSans-56"/>
       <use x="63.623047" xlink:href="#DejaVuSans-46"/>
       <use x="95.410156" xlink:href="#DejaVuSans-48"/>
       <use x="159.033203" xlink:href="#DejaVuSans-48"/>
      </g>
     </g>
    </g>
    <g id="text_26">
     <!-- Orbit Position $s$ / m -->
     <g transform="translate(186.862435 445.75582)scale(0.1 -0.1)">
      <use transform="translate(0 0.015625)" xlink:href="#DejaVuSans-79"/>
      <use transform="translate(78.710938 0.015625)" xlink:href="#DejaVuSans-114"/>
      <use transform="translate(119.824219 0.015625)" xlink:href="#DejaVuSans-98"/>
      <use transform="translate(183.300781 0.015625)" xlink:href="#DejaVuSans-105"/>
      <use transform="translate(211.083984 0.015625)" xlink:href="#DejaVuSans-116"/>
      <use transform="translate(250.292969 0.015625)" xlink:href="#DejaVuSans-32"/>
      <use transform="translate(282.080078 0.015625)" xlink:href="#DejaVuSans-80"/>
      <use transform="translate(342.382812 0.015625)" xlink:href="#DejaVuSans-111"/>
      <use transform="translate(403.564453 0.015625)" xlink:href="#DejaVuSans-115"/>
      <use transform="translate(455.664062 0.015625)" xlink:href="#DejaVuSans-105"/>
      <use transform="translate(483.447266 0.015625)" xlink:href="#DejaVuSans-116"/>
      <use transform="translate(522.65625 0.015625)" xlink:href="#DejaVuSans-105"/>
      <use transform="translate(550.439453 0.015625)" xlink:href="#DejaVuSans-111"/>
      <use transform="translate(611.621094 0.015625)" xlink:href="#DejaVuSans-110"/>
      <use transform="translate(675 0.015625)" xlink:href="#DejaVuSans-32"/>
      <use transform="translate(706.787109 0.015625)" xlink:href="#DejaVuSans-Oblique-115"/>
      <use transform="translate(758.886719 0.015625)" xlink:href="#DejaVuSans-32"/>
      <use transform="translate(790.673828 0.015625)" xlink:href="#DejaVuSans-47"/>
      <use transform="translate(824.365234 0.015625)" xlink:href="#DejaVuSans-32"/>
      <use transform="translate(856.152344 0.015625)" xlink:href="#DejaVuSans-109"/>
     </g>
    </g>
   </g>
   <g id="matplotlib.axis_4">
    <g id="ytick_6">
     <g id="line2d_46">
      <path clip-path="url(#p206ce70815)" d="M 30.58 397.604515 
L 438.54487 397.604515 
" style="fill:none;stroke:#b0b0b0;stroke-dasharray:2.96,1.28;stroke-dashoffset:0;stroke-width:0.8;"/>
     </g>
     <g id="line2d_47">
      <g>
       <use style="stroke:#000000;stroke-width:0.8;" x="30.58" xlink:href="#m24f7376fa8" y="397.604515"/>
      </g>
     </g>
     <g id="text_27">
      <!-- 0 -->
      <g transform="translate(17.2175 401.403733)scale(0.1 -0.1)">
       <use xlink:href="#DejaVuSans-48"/>
      </g>
     </g>
    </g>
    <g id="ytick_7">
     <g id="line2d_48">
      <path clip-path="url(#p206ce70815)" d="M 30.58 362.778386 
L 438.54487 362.778386 
" style="fill:none;stroke:#b0b0b0;stroke-dasharray:2.96,1.28;stroke-dashoffset:0;stroke-width:0.8;"/>
     </g>
     <g id="line2d_49">
      <g>
       <use style="stroke:#000000;stroke-width:0.8;" x="30.58" xlink:href="#m24f7376fa8" y="362.778386"/>
      </g>
     </g>
     <g id="text_28">
      <!-- 5 -->
      <g transform="translate(17.2175 366.577605)scale(0.1 -0.1)">
       <use xlink:href="#DejaVuSans-53"/>
      </g>
     </g>
    </g>
    <g id="ytick_8">
     <g id="line2d_50">
      <path clip-path="url(#p206ce70815)" d="M 30.58 327.952257 
L 438.54487 327.952257 
" style="fill:none;stroke:#b0b0b0;stroke-dasharray:2.96,1.28;stroke-dashoffset:0;stroke-width:0.8;"/>
     </g>
     <g id="line2d_51">
      <g>
       <use style="stroke:#000000;stroke-width:0.8;" x="30.58" xlink:href="#m24f7376fa8" y="327.952257"/>
      </g>
     </g>
     <g id="text_29">
      <!-- 10 -->
      <g transform="translate(10.855 331.751476)scale(0.1 -0.1)">
       <use xlink:href="#DejaVuSans-49"/>
       <use x="63.623047" xlink:href="#DejaVuSans-48"/>
      </g>
     </g>
    </g>
    <g id="ytick_9">
     <g id="line2d_52">
      <path clip-path="url(#p206ce70815)" d="M 30.58 293.126129 
L 438.54487 293.126129 
" style="fill:none;stroke:#b0b0b0;stroke-dasharray:2.96,1.28;stroke-dashoffset:0;stroke-width:0.8;"/>
     </g>
     <g id="line2d_53">
      <g>
       <use style="stroke:#000000;stroke-width:0.8;" x="30.58" xlink:href="#m24f7376fa8" y="293.126129"/>
      </g>
     </g>
     <g id="text_30">
      <!-- 15 -->
      <g transform="translate(10.855 296.925347)scale(0.1 -0.1)">
       <use xlink:href="#DejaVuSans-49"/>
       <use x="63.623047" xlink:href="#DejaVuSans-53"/>
      </g>
     </g>
    </g>
    <g id="ytick_10">
     <g id="line2d_54">
      <path clip-path="url(#p206ce70815)" d="M 30.58 258.3 
L 438.54487 258.3 
" style="fill:none;stroke:#b0b0b0;stroke-dasharray:2.96,1.28;stroke-dashoffset:0;stroke-width:0.8;"/>
     </g>
     <g id="line2d_55">
      <g>
       <use style="stroke:#000000;stroke-width:0.8;" x="30.58" xlink:href="#m24f7376fa8" y="258.3"/>
      </g>
     </g>
     <g id="text_31">
      <!-- 20 -->
      <g transform="translate(10.855 262.099219)scale(0.1 -0.1)">
       <use xlink:href="#DejaVuSans-50"/>
       <use x="63.623047" xlink:href="#DejaVuSans-48"/>
      </g>
     </g>
    </g>
   </g>
   <g id="patch_11">
    <path d="M 30.58 404.56974 
L 30.58 258.3 
" style="fill:none;stroke:#000000;stroke-linecap:square;stroke-linejoin:miter;stroke-width:0.8;"/>
   </g>
   <g id="patch_12">
    <path d="M 438.54487 404.56974 
L 438.54487 258.3 
" style="fill:none;stroke:#000000;stroke-linecap:square;stroke-linejoin:miter;stroke-width:0.8;"/>
   </g>
   <g id="patch_13">
    <path d="M 30.58 404.56974 
L 438.54487 404.56974 
" style="fill:none;stroke:#000000;stroke-linecap:square;stroke-linejoin:miter;stroke-width:0.8;"/>
   </g>
   <g id="patch_14">
    <path d="M 30.58 258.3 
L 438.54487 258.3 
" style="fill:none;stroke:#000000;stroke-linecap:square;stroke-linejoin:miter;stroke-width:0.8;"/>
   </g>
   <g id="line2d_56">
    <path clip-path="url(#p206ce70815)" d="M 30.58 268.441829 
L 31.85489 268.474118 
L 33.12978 268.57097 
L 34.404671 268.732336 
L 35.679561 268.958135 
L 36.954451 269.248255 
L 38.229341 269.60255 
L 39.504232 270.020844 
L 40.779122 270.502927 
L 42.054012 271.048558 
L 43.328902 271.657464 
L 48.428463 274.219244 
L 53.528024 276.781025 
L 58.627585 279.342805 
L 63.727146 281.904585 
L 68.826707 284.466366 
L 73.926267 287.028146 
L 79.025828 289.589926 
L 84.125389 292.151707 
L 89.22495 294.713487 
L 94.324511 297.275268 
L 101.973852 300.840451 
L 109.623194 304.237802 
L 117.272535 307.466012 
L 124.921876 310.523836 
L 132.571218 313.410094 
L 140.220559 316.123675 
L 147.8699 318.663532 
L 155.519241 321.028687 
L 163.168583 323.218226 
L 170.817924 325.231307 
L 175.917485 326.421057 
L 181.017046 327.610808 
L 186.116607 328.800558 
L 191.216168 329.990309 
L 196.315728 331.18006 
L 201.415289 332.36981 
L 206.51485 333.559561 
L 211.614411 334.749312 
L 216.713972 335.939062 
L 221.813533 337.128813 
L 224.363313 337.663401 
L 226.913094 338.078086 
L 229.462874 338.373699 
L 232.012655 338.550831 
L 234.562435 338.609835 
L 237.112216 338.550831 
L 239.661996 338.373699 
L 242.211776 338.078086 
L 244.761557 337.663401 
L 247.311337 337.128813 
L 252.410898 335.939062 
L 257.510459 334.749312 
L 262.61002 333.559561 
L 267.709581 332.36981 
L 272.809142 331.18006 
L 277.908703 329.990309 
L 283.008263 328.800558 
L 288.107824 327.610808 
L 293.207385 326.421057 
L 298.306946 325.231307 
L 305.956287 323.218226 
L 313.605629 321.028687 
L 321.25497 318.663532 
L 328.904311 316.123675 
L 336.553653 313.410094 
L 344.202994 310.523836 
L 351.852335 307.466012 
L 359.501677 304.237802 
L 367.151018 300.840451 
L 374.800359 297.275268 
L 379.89992 294.713487 
L 384.999481 292.151707 
L 390.099042 289.589926 
L 395.198603 287.028146 
L 400.298164 284.466366 
L 405.397724 281.904585 
L 410.497285 279.342805 
L 415.596846 276.781025 
L 420.696407 274.219244 
L 425.795968 271.657464 
L 427.070858 271.048558 
L 428.345748 270.502927 
L 429.620639 270.020844 
L 430.895529 269.60255 
L 432.170419 269.248255 
L 433.445309 268.958135 
L 434.720199 268.732336 
L 435.99509 268.57097 
L 437.26998 268.474118 
L 438.54487 268.441829 
" style="fill:none;stroke:#3cb371;stroke-linecap:square;stroke-width:1.3;"/>
   </g>
   <g id="line2d_57">
    <path clip-path="url(#p206ce70815)" d="M 30.58 385.964782 
L 31.85489 385.956356 
L 33.12978 385.93106 
L 34.404671 385.888844 
L 35.679561 385.829624 
L 36.954451 385.753281 
L 38.229341 385.659663 
L 39.504232 385.548581 
L 40.779122 385.419815 
L 42.054012 385.273105 
L 43.328902 385.10816 
L 48.428463 384.362946 
L 53.528024 383.520666 
L 58.627585 382.58132 
L 63.727146 381.544908 
L 68.826707 380.411431 
L 73.926267 379.180887 
L 79.025828 377.853278 
L 84.125389 376.428602 
L 89.22495 374.906861 
L 94.324511 373.288054 
L 101.973852 370.77664 
L 109.623194 368.05632 
L 117.272535 365.127093 
L 124.921876 361.988958 
L 132.571218 358.641918 
L 140.220559 355.08597 
L 147.8699 351.321115 
L 155.519241 347.347354 
L 163.168583 343.164685 
L 170.817924 338.77311 
L 175.917485 335.884797 
L 181.017046 332.91117 
L 186.116607 329.852228 
L 191.216168 326.707972 
L 196.315728 323.478402 
L 201.415289 320.163517 
L 206.51485 316.763317 
L 211.614411 313.277804 
L 216.713972 309.706976 
L 221.813533 306.050833 
L 224.363313 304.376227 
L 226.913094 303.059664 
L 229.462874 302.111671 
L 232.012655 301.539827 
L 234.562435 301.348702 
L 237.112216 301.539827 
L 239.661996 302.111671 
L 242.211776 303.059664 
L 244.761557 304.376227 
L 247.311337 306.050833 
L 252.410898 309.706976 
L 257.510459 313.277804 
L 262.61002 316.763317 
L 267.709581 320.163517 
L 272.809142 323.478402 
L 277.908703 326.707972 
L 283.008263 329.852228 
L 288.107824 332.91117 
L 293.207385 335.884797 
L 298.306946 338.77311 
L 305.956287 343.164685 
L 313.605629 347.347354 
L 321.25497 351.321115 
L 328.904311 355.08597 
L 336.553653 358.641918 
L 344.202994 361.988958 
L 351.852335 365.127093 
L 359.501677 368.05632 
L 367.151018 370.77664 
L 374.800359 373.288054 
L 379.89992 374.906861 
L 384.999481 376.428602 
L 390.099042 377.853278 
L 395.198603 379.180887 
L 400.298164 380.411431 
L 405.397724 381.544908 
L 410.497285 382.58132 
L 415.596846 383.520666 
L 420.696407 384.362946 
L 425.795968 385.10816 
L 427.070858 385.273105 
L 428.345748 385.419815 
L 429.620639 385.548581 
L 430.895529 385.659663 
L 432.170419 385.753281 
L 433.445309 385.829624 
L 434.720199 385.888844 
L 435.99509 385.93106 
L 437.26998 385.956356 
L 438.54487 385.964782 
" style="fill:none;stroke:#1e90ff;stroke-linecap:square;stroke-width:1.3;"/>
   </g>
   <g id="patch_15">
    <path d="M 30.58 260.585465 
L 43.328902 260.585465 
L 43.328902 256.014535 
L 30.58 256.014535 
z
" style="fill:#dc143c;"/>
   </g>
   <g id="patch_16">
    <path d="M 94.324511 260.585465 
L 170.817924 260.585465 
L 170.817924 256.014535 
L 94.324511 256.014535 
z
" style="fill:#ffd700;"/>
   </g>
   <g id="patch_17">
    <path d="M 221.813533 260.585465 
L 247.311337 260.585465 
L 247.311337 256.014535 
L 221.813533 256.014535 
z
" style="fill:#dc143c;"/>
   </g>
   <g id="patch_18">
    <path d="M 298.306946 260.585465 
L 374.800359 260.585465 
L 374.800359 256.014535 
L 298.306946 256.014535 
z
" style="fill:#ffd700;"/>
   </g>
   <g id="patch_19">
    <path d="M 425.795968 260.585465 
L 438.54487 260.585465 
L 438.54487 256.014535 
L 425.795968 256.014535 
z
" style="fill:#dc143c;"/>
   </g>
   <g id="line2d_58">
    <path clip-path="url(#p206ce70815)" d="M 30.58 299.768754 
L 31.85489 299.817354 
L 33.12978 299.963057 
L 34.404671 300.20557 
L 35.679561 300.54441 
L 36.954451 300.978898 
L 38.229341 301.508167 
L 39.504232 302.131156 
L 40.779122 302.846622 
L 42.054012 303.653132 
L 43.328902 304.549075 
L 48.428463 308.266179 
L 53.528024 311.896881 
L 58.627585 315.441179 
L 63.727146 318.899076 
L 68.826707 322.270569 
L 73.926267 325.55566 
L 79.025828 328.754348 
L 84.125389 331.866634 
L 89.22495 334.892517 
L 94.324511 337.831997 
L 101.973852 341.878202 
L 109.623194 345.786222 
L 117.272535 349.550033 
L 124.921876 353.163831 
L 132.571218 356.622044 
L 140.220559 359.91934 
L 147.8699 363.050634 
L 155.519241 366.011098 
L 163.168583 368.796167 
L 170.817924 371.401547 
L 175.917485 372.966897 
L 181.017046 374.445844 
L 186.116607 375.838388 
L 191.216168 377.14453 
L 196.315728 378.364269 
L 201.415289 379.497606 
L 206.51485 380.54454 
L 211.614411 381.505071 
L 216.713972 382.3792 
L 221.813533 383.166926 
L 224.363313 383.499983 
L 226.913094 383.756302 
L 229.462874 383.937935 
L 232.012655 384.046337 
L 234.562435 384.082375 
L 237.112216 384.046337 
L 239.661996 383.937935 
L 242.211776 383.756302 
L 244.761557 383.499983 
L 247.311337 383.166926 
L 252.410898 382.3792 
L 257.510459 381.505071 
L 262.61002 380.54454 
L 267.709581 379.497606 
L 272.809142 378.364269 
L 277.908703 377.14453 
L 283.008263 375.838388 
L 288.107824 374.445844 
L 293.207385 372.966897 
L 298.306946 371.401547 
L 305.956287 368.796167 
L 313.605629 366.011098 
L 321.25497 363.050634 
L 328.904311 359.91934 
L 336.553653 356.622044 
L 344.202994 353.163831 
L 351.852335 349.550033 
L 359.501677 345.786222 
L 367.151018 341.878202 
L 374.800359 337.831997 
L 379.89992 334.892517 
L 384.999481 331.866634 
L 390.099042 328.754348 
L 395.198603 325.55566 
L 400.298164 322.270569 
L 405.397724 318.899076 
L 410.497285 315.441179 
L 415.596846 311.896881 
L 420.696407 308.266179 
L 425.795968 304.549075 
L 427.070858 303.653132 
L 428.345748 302.846622 
L 429.620639 302.131156 
L 430.895529 301.508167 
L 432.170419 300.978898 
L 433.445309 300.54441 
L 434.720199 300.20557 
L 435.99509 299.963057 
L 437.26998 299.817354 
L 438.54487 299.768754 
" style="fill:none;stroke:#dc143c;stroke-linecap:square;stroke-width:1.3;"/>
   </g>
   <g id="text_32">
    <!-- q1 -->
    <g transform="translate(31.870076 253.208053)scale(0.08 -0.08)">
     <use xlink:href="#DejaVuSans-113"/>
     <use x="63.476562" xlink:href="#DejaVuSans-49"/>
    </g>
   </g>
   <g id="text_33">
    <!-- b1 -->
    <g transform="translate(127.486843 267.806947)scale(0.08 -0.08)">
     <use xlink:href="#DejaVuSans-98"/>
     <use x="63.476562" xlink:href="#DejaVuSans-49"/>
    </g>
   </g>
   <g id="text_34">
    <!-- q2 -->
    <g transform="translate(229.47806 253.208053)scale(0.08 -0.08)">
     <use xlink:href="#DejaVuSans-113"/>
     <use x="63.476562" xlink:href="#DejaVuSans-50"/>
    </g>
   </g>
   <g id="text_35">
    <!-- b1 -->
    <g transform="translate(331.469278 267.806947)scale(0.08 -0.08)">
     <use xlink:href="#DejaVuSans-98"/>
     <use x="63.476562" xlink:href="#DejaVuSans-49"/>
    </g>
   </g>
   <g id="text_36">
    <!-- q1 -->
    <g transform="translate(427.086044 253.208053)scale(0.08 -0.08)">
     <use xlink:href="#DejaVuSans-113"/>
     <use x="63.476562" xlink:href="#DejaVuSans-49"/>
    </g>
   </g>
  </g>
  <g id="legend_1">
   <g id="line2d_59">
    <path d="M 9 13.2 
L 29 13.2 
" style="fill:none;stroke:#dc143c;stroke-linecap:square;stroke-width:1.3;"/>
   </g>
   <g id="line2d_60"/>
   <g id="text_37">
    <!-- $\beta_x$/m -->
    <g transform="translate(37 16.7)scale(0.1 -0.1)">
     <defs>
      <path d="M 13.625 3.375 
L 8.9375 -20.796875 
L -0.09375 -20.796875 
L 14.5 54.34375 
Q 18.84375 76.609375 39.65625 76.609375 
Q 60.75 76.609375 57.171875 57.8125 
Q 54.734375 44.4375 45.21875 39.546875 
Q 58.015625 35.15625 55.515625 22.125 
Q 51.125 -1.078125 27.484375 -1.03125 
Q 17.140625 -0.984375 13.625 3.375 
z
M 15.921875 15.09375 
Q 19.671875 6.59375 29.296875 6.640625 
Q 43.359375 6.640625 46.34375 21.96875 
Q 49.03125 35.75 26.171875 34.671875 
L 27.78125 42.96875 
Q 45.453125 42.671875 48.53125 58.59375 
Q 50.640625 69.34375 39.203125 69.28125 
Q 26.421875 69.28125 23.484375 54.046875 
z
" id="DejaVuSans-Oblique-946"/>
      <path d="M 60.015625 54.6875 
L 34.90625 27.875 
L 50.296875 0 
L 39.984375 0 
L 28.421875 21.6875 
L 8.296875 0 
L -2.59375 0 
L 24.3125 28.8125 
L 10.015625 54.6875 
L 20.3125 54.6875 
L 30.8125 34.90625 
L 49.125 54.6875 
z
" id="DejaVuSans-Oblique-120"/>
     </defs>
     <use transform="translate(0 0.390625)" xlink:href="#DejaVuSans-Oblique-946"/>
     <use transform="translate(63.818359 -16.015625)scale(0.7)" xlink:href="#DejaVuSans-Oblique-120"/>
     <use transform="translate(107.978516 0.390625)" xlink:href="#DejaVuSans-47"/>
     <use transform="translate(141.669922 0.390625)" xlink:href="#DejaVuSans-109"/>
    </g>
   </g>
   <g id="line2d_61">
    <path d="M 81 13.2 
L 101 13.2 
" style="fill:none;stroke:#1e90ff;stroke-linecap:square;stroke-width:1.3;"/>
   </g>
   <g id="line2d_62"/>
   <g id="text_38">
    <!-- $\beta_y$/m -->
    <g transform="translate(109 16.7)scale(0.1 -0.1)">
     <defs>
      <path d="M 24.8125 -5.078125 
Q 18.5625 -15.578125 14.625 -18.1875 
Q 10.6875 -20.796875 4.59375 -20.796875 
L -2.484375 -20.796875 
L -0.984375 -13.28125 
L 4.203125 -13.28125 
Q 7.953125 -13.28125 10.59375 -11.234375 
Q 13.234375 -9.1875 16.5 -3.21875 
L 19.28125 2 
L 7.171875 54.6875 
L 16.703125 54.6875 
L 25.78125 12.796875 
L 50.875 54.6875 
L 60.296875 54.6875 
z
" id="DejaVuSans-Oblique-121"/>
     </defs>
     <use transform="translate(0 0.390625)" xlink:href="#DejaVuSans-Oblique-946"/>
     <use transform="translate(63.818359 -16.015625)scale(0.7)" xlink:href="#DejaVuSans-Oblique-121"/>
     <use transform="translate(107.978516 0.390625)" xlink:href="#DejaVuSans-47"/>
     <use transform="translate(141.669922 0.390625)" xlink:href="#DejaVuSans-109"/>
    </g>
   </g>
   <g id="line2d_63">
    <path d="M 153 13.2 
L 173 13.2 
" style="fill:none;stroke:#3cb371;stroke-linecap:square;stroke-width:1.3;"/>
   </g>
   <g id="line2d_64"/>
   <g id="text_39">
    <!-- 10$\eta_x$/m -->
    <g transform="translate(181 16.7)scale(0.1 -0.1)">
     <defs>
      <path d="M 57.859375 33.015625 
L 47.40625 -20.796875 
L 38.421875 -20.796875 
L 48.828125 32.71875 
Q 50.34375 40.484375 48.046875 44.34375 
Q 45.796875 48.1875 39.75 48.1875 
Q 32.46875 48.1875 27.34375 43.5625 
Q 22.265625 38.921875 20.703125 30.90625 
L 14.703125 0 
L 5.671875 0 
L 16.3125 54.6875 
L 25.34375 54.6875 
L 23.6875 46.1875 
Q 27.828125 51.125 32.71875 53.5625 
Q 37.546875 56 43.265625 56 
Q 52.6875 56 56.390625 50.203125 
Q 60.0625 44.34375 57.859375 33.015625 
z
" id="DejaVuSans-Oblique-951"/>
     </defs>
     <use transform="translate(0 0.78125)" xlink:href="#DejaVuSans-49"/>
     <use transform="translate(63.623047 0.78125)" xlink:href="#DejaVuSans-48"/>
     <use transform="translate(127.246094 0.78125)" xlink:href="#DejaVuSans-Oblique-951"/>
     <use transform="translate(190.625 -15.625)scale(0.7)" xlink:href="#DejaVuSans-Oblique-120"/>
     <use transform="translate(234.785156 0.78125)" xlink:href="#DejaVuSans-47"/>
     <use transform="translate(268.476562 0.78125)" xlink:href="#DejaVuSans-109"/>
    </g>
   </g>
  </g>
 </g>
 <defs>
  <clipPath id="p1ea47ceb5d">
   <rect height="146.26974" width="407.96487" x="30.58" y="44.82"/>
  </clipPath>
  <clipPath id="p206ce70815">
   <rect height="146.26974" width="407.96487" x="30.58" y="258.3"/>
  </clipPath>
 </defs>
</svg>
