<?xml version="1.0" encoding="utf-8" standalone="no"?>
<!DOCTYPE svg PUBLIC "-//W3C//DTD SVG 1.1//EN"
  "http://www.w3.org/Graphics/SVG/1.1/DTD/svg11.dtd">
<svg xmlns:xlink="http://www.w3.org/1999/xlink" width="460.8pt" height="345.6pt" viewBox="0 0 460.8 345.6" xmlns="http://www.w3.org/2000/svg" version="1.1">
 <metadata>
  <rdf:RDF xmlns:dc="http://purl.org/dc/elements/1.1/" xmlns:cc="http://creativecommons.org/ns#" xmlns:rdf="http://www.w3.org/1999/02/22-rdf-syntax-ns#">
   <cc:Work>
    <dc:type rdf:resource="http://purl.org/dc/dcmitype/StillImage"/>
    <dc:format>image/svg+xml</dc:format>
    <dc:creator>
     <cc:Agent>
      <dc:title>Matplotlib v3.5.0, https://matplotlib.org/</dc:title>
     </cc:Agent>
    </dc:creator>
   </cc:Work>
  </rdf:RDF>
 </metadata>
 <defs>
  <style type="text/css">*{stroke-linejoin: round; stroke-linecap: butt}</style>
 </defs>
 <g id="figure_1">
  <g id="patch_1">
   <path d="M 0 345.6 
L 460.8 345.6 
L 460.8 0 
L 0 0 
z
" style="fill: #ffffff"/>
  </g>
  <g id="axes_1">
   <g id="patch_2">
    <path d="M 30.49 300.76 
L 450 300.76 
L 450 32.4112 
L 30.49 32.4112 
z
" style="fill: #ffffff"/>
   </g>
   <g id="matplotlib.axis_1">
    <g id="xtick_1">
     <g id="line2d_1">
      <path d="M 66.89376 300.76 
L 66.89376 32.4112 
" clip-path="url(#p3b82695503)" style="fill: none; stroke-dasharray: 3.7,1.6; stroke-dashoffset: 0; stroke: #d1d5db"/>
     </g>
     <g id="line2d_2">
      <defs>
       <path id="m1b5c85cee3" d="M 0 0 
L 0 3.5 
" style="stroke: #000000; stroke-width: 0.8"/>
      </defs>
      <g>
       <use xlink:href="#m1b5c85cee3" x="66.89376" y="300.76" style="stroke: #000000; stroke-width: 0.8"/>
      </g>
     </g>
     <g id="text_1">
      <!-- 0 -->
      <g transform="translate(63.71251 315.358437)scale(0.1 -0.1)">
       <defs>
        <path id="DejaVuSans-30" d="M 2034 4250 
Q 1547 4250 1301 3770 
Q 1056 3291 1056 2328 
Q 1056 1369 1301 889 
Q 1547 409 2034 409 
Q 2525 409 2770 889 
Q 3016 1369 3016 2328 
Q 3016 3291 2770 3770 
Q 2525 4250 2034 4250 
z
M 2034 4750 
Q 2819 4750 3233 4129 
Q 3647 3509 3647 2328 
Q 3647 1150 3233 529 
Q 2819 -91 2034 -91 
Q 1250 -91 836 529 
Q 422 1150 422 2328 
Q 422 3509 836 4129 
Q 1250 4750 2034 4750 
z
" transform="scale(0.015625)"/>
       </defs>
       <use xlink:href="#DejaVuSans-30"/>
      </g>
     </g>
    </g>
    <g id="xtick_2">
     <g id="line2d_3">
      <path d="M 110.23157 300.76 
L 110.23157 32.4112 
" clip-path="url(#p3b82695503)" style="fill: none; stroke-dasharray: 3.7,1.6; stroke-dashoffset: 0; stroke: #d1d5db"/>
     </g>
     <g id="line2d_4">
      <g>
       <use xlink:href="#m1b5c85cee3" x="110.23157" y="300.76" style="stroke: #000000; stroke-width: 0.8"/>
      </g>
     </g>
     <g id="text_2">
      <!-- 6 -->
      <g transform="translate(107.05032 315.358437)scale(0.1 -0.1)">
       <defs>
        <path id="DejaVuSans-36" d="M 2113 2584 
Q 1688 2584 1439 2293 
Q 1191 2003 1191 1497 
Q 1191 994 1439 701 
Q 1688 409 2113 409 
Q 2538 409 2786 701 
Q 3034 994 3034 1497 
Q 3034 2003 2786 2293 
Q 2538 2584 2113 2584 
z
M 3366 4563 
L 3366 3988 
Q 3128 4100 2886 4159 
Q 2644 4219 2406 4219 
Q 1781 4219 1451 3797 
Q 1122 3375 1075 2522 
Q 1259 2794 1537 2939 
Q 1816 3084 2150 3084 
Q 2853 3084 3261 2657 
Q 3669 2231 3669 1497 
Q 3669 778 3244 343 
Q 2819 -91 2113 -91 
Q 1303 -91 875 529 
Q 447 1150 447 2328 
Q 447 3434 972 4092 
Q 1497 4750 2381 4750 
Q 2619 4750 2861 4703 
Q 3103 4656 3366 4563 
z
" transform="scale(0.015625)"/>
       </defs>
       <use xlink:href="#DejaVuSans-36"/>
      </g>
     </g>
    </g>
    <g id="xtick_3">
     <g id="line2d_5">
      <path d="M 153.56938 300.76 
L 153.56938 32.4112 
" clip-path="url(#p3b82695503)" style="fill: none; stroke-dasharray: 3.7,1.6; stroke-dashoffset: 0; stroke: #d1d5db"/>
     </g>
     <g id="line2d_6">
      <g>
       <use xlink:href="#m1b5c85cee3" x="153.56938" y="300.76" style="stroke: #000000; stroke-width: 0.8"/>
      </g>
     </g>
     <g id="text_3">
      <!-- 12 -->
      <g transform="translate(147.20688 315.358437)scale(0.1 -0.1)">
       <defs>
        <path id="DejaVuSans-31" d="M 794 531 
L 1825 531 
L 1825 4091 
L 703 3866 
L 703 4441 
L 1819 4666 
L 2450 4666 
L 2450 531 
L 3481 531 
L 3481 0 
L 794 0 
L 794 531 
z
" transform="scale(0.015625)"/>
        <path id="DejaVuSans-32" d="M 1228 531 
L 3431 531 
L 3431 0 
L 469 0 
L 469 531 
Q 828 903 1448 1529 
Q 2069 2156 2228 2338 
Q 2531 2678 2651 2914 
Q 2772 3150 2772 3378 
Q 2772 3750 2511 3984 
Q 2250 4219 1831 4219 
Q 1534 4219 1204 4116 
Q 875 4013 500 3803 
L 500 4441 
Q 881 4594 1212 4672 
Q 1544 4750 1819 4750 
Q 2544 4750 2975 4387 
Q 3406 4025 3406 3419 
Q 3406 3131 3298 2873 
Q 3191 2616 2906 2266 
Q 2828 2175 2409 1742 
Q 1991 1309 1228 531 
z
" transform="scale(0.015625)"/>
       </defs>
       <use xlink:href="#DejaVuSans-31"/>
       <use xlink:href="#DejaVuSans-32" x="63.623047"/>
      </g>
     </g>
    </g>
    <g id="xtick_4">
     <g id="line2d_7">
      <path d="M 196.90719 300.76 
L 196.90719 32.4112 
" clip-path="url(#p3b82695503)" style="fill: none; stroke-dasharray: 3.7,1.6; stroke-dashoffset: 0; stroke: #d1d5db"/>
     </g>
     <g id="line2d_8">
      <g>
       <use xlink:href="#m1b5c85cee3" x="196.90719" y="300.76" style="stroke: #000000; stroke-width: 0.8"/>
      </g>
     </g>
     <g id="text_4">
      <!-- 18 -->
      <g transform="translate(190.54469 315.358437)scale(0.1 -0.1)">
       <defs>
        <path id="DejaVuSans-38" d="M 2034 2216 
Q 1584 2216 1326 1975 
Q 1069 1734 1069 1313 
Q 1069 891 1326 650 
Q 1584 409 2034 409 
Q 2484 409 2743 651 
Q 3003 894 3003 1313 
Q 3003 1734 2745 1975 
Q 2488 2216 2034 2216 
z
M 1403 2484 
Q 997 2584 770 2862 
Q 544 3141 544 3541 
Q 544 4100 942 4425 
Q 1341 4750 2034 4750 
Q 2731 4750 3128 4425 
Q 3525 4100 3525 3541 
Q 3525 3141 3298 2862 
Q 3072 2584 2669 2484 
Q 3125 2378 3379 2068 
Q 3634 1759 3634 1313 
Q 3634 634 3220 271 
Q 2806 -91 2034 -91 
Q 1263 -91 848 271 
Q 434 634 434 1313 
Q 434 1759 690 2068 
Q 947 2378 1403 2484 
z
M 1172 3481 
Q 1172 3119 1398 2916 
Q 1625 2713 2034 2713 
Q 2441 2713 2670 2916 
Q 2900 3119 2900 3481 
Q 2900 3844 2670 4047 
Q 2441 4250 2034 4250 
Q 1625 4250 1398 4047 
Q 1172 3844 1172 3481 
z
" transform="scale(0.015625)"/>
       </defs>
       <use xlink:href="#DejaVuSans-31"/>
       <use xlink:href="#DejaVuSans-38" x="63.623047"/>
      </g>
     </g>
    </g>
    <g id="xtick_5">
     <g id="line2d_9">
      <path d="M 240.245 300.76 
L 240.245 32.4112 
" clip-path="url(#p3b82695503)" style="fill: none; stroke-dasharray: 3.7,1.6; stroke-dashoffset: 0; stroke: #d1d5db"/>
     </g>
     <g id="line2d_10">
      <g>
       <use xlink:href="#m1b5c85cee3" x="240.245" y="300.76" style="stroke: #000000; stroke-width: 0.8"/>
      </g>
     </g>
     <g id="text_5">
      <!-- 24 -->
      <g transform="translate(233.8825 315.358437)scale(0.1 -0.1)">
       <defs>
        <path id="DejaVuSans-34" d="M 2419 4116 
L 825 1625 
L 2419 1625 
L 2419 4116 
z
M 2253 4666 
L 3047 4666 
L 3047 1625 
L 3713 1625 
L 3713 1100 
L 3047 1100 
L 3047 0 
L 2419 0 
L 2419 1100 
L 313 1100 
L 313 1709 
L 2253 4666 
z
" transform="scale(0.015625)"/>
       </defs>
       <use xlink:href="#DejaVuSans-32"/>
       <use xlink:href="#DejaVuSans-34" x="63.623047"/>
      </g>
     </g>
    </g>
    <g id="xtick_6">
     <g id="line2d_11">
      <path d="M 283.58281 300.76 
L 283.58281 32.4112 
" clip-path="url(#p3b82695503)" style="fill: none; stroke-dasharray: 3.7,1.6; stroke-dashoffset: 0; stroke: #d1d5db"/>
     </g>
     <g id="line2d_12">
      <g>
       <use xlink:href="#m1b5c85cee3" x="283.58281" y="300.76" style="stroke: #000000; stroke-width: 0.8"/>
      </g>
     </g>
     <g id="text_6">
      <!-- 30 -->
      <g transform="translate(277.22031 315.358437)scale(0.1 -0.1)">
       <defs>
        <path id="DejaVuSans-33" d="M 2597 2516 
Q 3050 2419 3304 2112 
Q 3559 1806 3559 1356 
Q 3559 666 3084 287 
Q 2609 -91 1734 -91 
Q 1441 -91 1130 -33 
Q 819 25 488 141 
L 488 750 
Q 750 597 1062 519 
Q 1375 441 1716 441 
Q 2309 441 2620 675 
Q 2931 909 2931 1356 
Q 2931 1769 2642 2001 
Q 2353 2234 1838 2234 
L 1294 2234 
L 1294 2753 
L 1863 2753 
Q 2328 2753 2575 2939 
Q 2822 3125 2822 3475 
Q 2822 3834 2567 4026 
Q 2313 4219 1838 4219 
Q 1578 4219 1281 4162 
Q 984 4106 628 3988 
L 628 4550 
Q 988 4650 1302 4700 
Q 1616 4750 1894 4750 
Q 2613 4750 3031 4423 
Q 3450 4097 3450 3541 
Q 3450 3153 3228 2886 
Q 3006 2619 2597 2516 
z
" transform="scale(0.015625)"/>
       </defs>
       <use xlink:href="#DejaVuSans-33"/>
       <use xlink:href="#DejaVuSans-30" x="63.623047"/>
      </g>
     </g>
    </g>
    <g id="xtick_7">
     <g id="line2d_13">
      <path d="M 326.92062 300.76 
L 326.92062 32.4112 
" clip-path="url(#p3b82695503)" style="fill: none; stroke-dasharray: 3.7,1.6; stroke-dashoffset: 0; stroke: #d1d5db"/>
     </g>
     <g id="line2d_14">
      <g>
       <use xlink:href="#m1b5c85cee3" x="326.92062" y="300.76" style="stroke: #000000; stroke-width: 0.8"/>
      </g>
     </g>
     <g id="text_7">
      <!-- 36 -->
      <g transform="translate(320.55812 315.358437)scale(0.1 -0.1)">
       <use xlink:href="#DejaVuSans-33"/>
       <use xlink:href="#DejaVuSans-36" x="63.623047"/>
      </g>
     </g>
    </g>
    <g id="xtick_8">
     <g id="line2d_15">
      <path d="M 370.25843 300.76 
L 370.25843 32.4112 
" clip-path="url(#p3b82695503)" style="fill: none; stroke-dasharray: 3.7,1.6; stroke-dashoffset: 0; stroke: #d1d5db"/>
     </g>
     <g id="line2d_16">
      <g>
       <use xlink:href="#m1b5c85cee3" x="370.25843" y="300.76" style="stroke: #000000; stroke-width: 0.8"/>
      </g>
     </g>
     <g id="text_8">
      <!-- 42 -->
      <g transform="translate(363.89593 315.358437)scale(0.1 -0.1)">
       <use xlink:href="#DejaVuSans-34"/>
       <use xlink:href="#DejaVuSans-32" x="63.623047"/>
      </g>
     </g>
    </g>
    <g id="xtick_9">
     <g id="line2d_17">
      <path d="M 413.59624 300.76 
L 413.59624 32.4112 
" clip-path="url(#p3b82695503)" style="fill: none; stroke-dasharray: 3.7,1.6; stroke-dashoffset: 0; stroke: #d1d5db"/>
     </g>
     <g id="line2d_18">
      <g>
       <use xlink:href="#m1b5c85cee3" x="413.59624" y="300.76" style="stroke: #000000; stroke-width: 0.8"/>
      </g>
     </g>
     <g id="text_9">
      <!-- 48 -->
      <g transform="translate(407.23374 315.358437)scale(0.1 -0.1)">
       <use xlink:href="#DejaVuSans-34"/>
       <use xlink:href="#DejaVuSans-38" x="63.623047"/>
      </g>
     </g>
    </g>
    <g id="text_10">
     <!-- orbit position $s$ / m -->
     <g transform="translate(193.245 329.038125)scale(0.1 -0.1)">
      <defs>
       <path id="DejaVuSans-6f" d="M 1959 3097 
Q 1497 3097 1228 2736 
Q 959 2375 959 1747 
Q 959 1119 1226 758 
Q 1494 397 1959 397 
Q 2419 397 2687 759 
Q 2956 1122 2956 1747 
Q 2956 2369 2687 2733 
Q 2419 3097 1959 3097 
z
M 1959 3584 
Q 2709 3584 3137 3096 
Q 3566 2609 3566 1747 
Q 3566 888 3137 398 
Q 2709 -91 1959 -91 
Q 1206 -91 779 398 
Q 353 888 353 1747 
Q 353 2609 779 3096 
Q 1206 3584 1959 3584 
z
" transform="scale(0.015625)"/>
       <path id="DejaVuSans-72" d="M 2631 2963 
Q 2534 3019 2420 3045 
Q 2306 3072 2169 3072 
Q 1681 3072 1420 2755 
Q 1159 2438 1159 1844 
L 1159 0 
L 581 0 
L 581 3500 
L 1159 3500 
L 1159 2956 
Q 1341 3275 1631 3429 
Q 1922 3584 2338 3584 
Q 2397 3584 2469 3576 
Q 2541 3569 2628 3553 
L 2631 2963 
z
" transform="scale(0.015625)"/>
       <path id="DejaVuSans-62" d="M 3116 1747 
Q 3116 2381 2855 2742 
Q 2594 3103 2138 3103 
Q 1681 3103 1420 2742 
Q 1159 2381 1159 1747 
Q 1159 1113 1420 752 
Q 1681 391 2138 391 
Q 2594 391 2855 752 
Q 3116 1113 3116 1747 
z
M 1159 2969 
Q 1341 3281 1617 3432 
Q 1894 3584 2278 3584 
Q 2916 3584 3314 3078 
Q 3713 2572 3713 1747 
Q 3713 922 3314 415 
Q 2916 -91 2278 -91 
Q 1894 -91 1617 61 
Q 1341 213 1159 525 
L 1159 0 
L 581 0 
L 581 4863 
L 1159 4863 
L 1159 2969 
z
" transform="scale(0.015625)"/>
       <path id="DejaVuSans-69" d="M 603 3500 
L 1178 3500 
L 1178 0 
L 603 0 
L 603 3500 
z
M 603 4863 
L 1178 4863 
L 1178 4134 
L 603 4134 
L 603 4863 
z
" transform="scale(0.015625)"/>
       <path id="DejaVuSans-74" d="M 1172 4494 
L 1172 3500 
L 2356 3500 
L 2356 3053 
L 1172 3053 
L 1172 1153 
Q 1172 725 1289 603 
Q 1406 481 1766 481 
L 2356 481 
L 2356 0 
L 1766 0 
Q 1100 0 847 248 
Q 594 497 594 1153 
L 594 3053 
L 172 3053 
L 172 3500 
L 594 3500 
L 594 4494 
L 1172 4494 
z
" transform="scale(0.015625)"/>
       <path id="DejaVuSans-20" transform="scale(0.015625)"/>
       <path id="DejaVuSans-70" d="M 1159 525 
L 1159 -1331 
L 581 -1331 
L 581 3500 
L 1159 3500 
L 1159 2969 
Q 1341 3281 1617 3432 
Q 1894 3584 2278 3584 
Q 2916 3584 3314 3078 
Q 3713 2572 3713 1747 
Q 3713 922 3314 415 
Q 2916 -91 2278 -91 
Q 1894 -91 1617 61 
Q 1341 213 1159 525 
z
M 3116 1747 
Q 3116 2381 2855 2742 
Q 2594 3103 2138 3103 
Q 1681 3103 1420 2742 
Q 1159 2381 1159 1747 
Q 1159 1113 1420 752 
Q 1681 391 2138 391 
Q 2594 391 2855 752 
Q 3116 1113 3116 1747 
z
" transform="scale(0.015625)"/>
       <path id="DejaVuSans-73" d="M 2834 3397 
L 2834 2853 
Q 2591 2978 2328 3040 
Q 2066 3103 1784 3103 
Q 1356 3103 1142 2972 
Q 928 2841 928 2578 
Q 928 2378 1081 2264 
Q 1234 2150 1697 2047 
L 1894 2003 
Q 2506 1872 2764 1633 
Q 3022 1394 3022 966 
Q 3022 478 2636 193 
Q 2250 -91 1575 -91 
Q 1294 -91 989 -36 
Q 684 19 347 128 
L 347 722 
Q 666 556 975 473 
Q 1284 391 1588 391 
Q 1994 391 2212 530 
Q 2431 669 2431 922 
Q 2431 1156 2273 1281 
Q 2116 1406 1581 1522 
L 1381 1569 
Q 847 1681 609 1914 
Q 372 2147 372 2553 
Q 372 3047 722 3315 
Q 1072 3584 1716 3584 
Q 2034 3584 2315 3537 
Q 2597 3491 2834 3397 
z
" transform="scale(0.015625)"/>
       <path id="DejaVuSans-6e" d="M 3513 2113 
L 3513 0 
L 2938 0 
L 2938 2094 
Q 2938 2591 2744 2837 
Q 2550 3084 2163 3084 
Q 1697 3084 1428 2787 
Q 1159 2491 1159 1978 
L 1159 0 
L 581 0 
L 581 3500 
L 1159 3500 
L 1159 2956 
Q 1366 3272 1645 3428 
Q 1925 3584 2291 3584 
Q 2894 3584 3203 3211 
Q 3513 2838 3513 2113 
z
" transform="scale(0.015625)"/>
       <path id="DejaVuSans-Oblique-73" d="M 3200 3397 
L 3091 2853 
Q 2863 2978 2609 3040 
Q 2356 3103 2088 3103 
Q 1634 3103 1373 2948 
Q 1113 2794 1113 2528 
Q 1113 2219 1719 2053 
Q 1766 2041 1788 2034 
L 1972 1978 
Q 2547 1819 2739 1644 
Q 2931 1469 2931 1166 
Q 2931 609 2489 259 
Q 2047 -91 1331 -91 
Q 1053 -91 747 -37 
Q 441 16 72 128 
L 184 722 
Q 500 559 806 475 
Q 1113 391 1394 391 
Q 1816 391 2080 572 
Q 2344 753 2344 1031 
Q 2344 1331 1650 1516 
L 1591 1531 
L 1394 1581 
Q 956 1697 753 1886 
Q 550 2075 550 2369 
Q 550 2928 970 3256 
Q 1391 3584 2113 3584 
Q 2397 3584 2667 3537 
Q 2938 3491 3200 3397 
z
" transform="scale(0.015625)"/>
       <path id="DejaVuSans-2f" d="M 1625 4666 
L 2156 4666 
L 531 -594 
L 0 -594 
L 1625 4666 
z
" transform="scale(0.015625)"/>
       <path id="DejaVuSans-6d" d="M 3328 2828 
Q 3544 3216 3844 3400 
Q 4144 3584 4550 3584 
Q 5097 3584 5394 3201 
Q 5691 2819 5691 2113 
L 5691 0 
L 5113 0 
L 5113 2094 
Q 5113 2597 4934 2840 
Q 4756 3084 4391 3084 
Q 3944 3084 3684 2787 
Q 3425 2491 3425 1978 
L 3425 0 
L 2847 0 
L 2847 2094 
Q 2847 2600 2669 2842 
Q 2491 3084 2119 3084 
Q 1678 3084 1418 2786 
Q 1159 2488 1159 1978 
L 1159 0 
L 581 0 
L 581 3500 
L 1159 3500 
L 1159 2956 
Q 1356 3278 1631 3431 
Q 1906 3584 2284 3584 
Q 2666 3584 2933 3390 
Q 3200 3197 3328 2828 
z
" transform="scale(0.015625)"/>
      </defs>
      <use xlink:href="#DejaVuSans-6f" transform="translate(0 0.015625)"/>
      <use xlink:href="#DejaVuSans-72" transform="translate(61.181641 0.015625)"/>
      <use xlink:href="#DejaVuSans-62" transform="translate(102.294922 0.015625)"/>
      <use xlink:href="#DejaVuSans-69" transform="translate(165.771484 0.015625)"/>
      <use xlink:href="#DejaVuSans-74" transform="translate(193.554688 0.015625)"/>
      <use xlink:href="#DejaVuSans-20" transform="translate(232.763672 0.015625)"/>
      <use xlink:href="#DejaVuSans-70" transform="translate(264.550781 0.015625)"/>
      <use xlink:href="#DejaVuSans-6f" transform="translate(328.027344 0.015625)"/>
      <use xlink:href="#DejaVuSans-73" transform="translate(389.208984 0.015625)"/>
      <use xlink:href="#DejaVuSans-69" transform="translate(441.308594 0.015625)"/>
      <use xlink:href="#DejaVuSans-74" transform="translate(469.091797 0.015625)"/>
      <use xlink:href="#DejaVuSans-69" transform="translate(508.300781 0.015625)"/>
      <use xlink:href="#DejaVuSans-6f" transform="translate(536.083984 0.015625)"/>
      <use xlink:href="#DejaVuSans-6e" transform="translate(597.265625 0.015625)"/>
      <use xlink:href="#DejaVuSans-20" transform="translate(660.644531 0.015625)"/>
      <use xlink:href="#DejaVuSans-Oblique-73" transform="translate(692.431641 0.015625)"/>
      <use xlink:href="#DejaVuSans-20" transform="translate(744.53125 0.015625)"/>
      <use xlink:href="#DejaVuSans-2f" transform="translate(776.318359 0.015625)"/>
      <use xlink:href="#DejaVuSans-20" transform="translate(810.009766 0.015625)"/>
      <use xlink:href="#DejaVuSans-6d" transform="translate(841.796875 0.015625)"/>
     </g>
    </g>
   </g>
   <g id="matplotlib.axis_2">
    <g id="ytick_1">
     <g id="line2d_19">
      <path d="M 30.49 266.983623 
L 450 266.983623 
" clip-path="url(#p3b82695503)" style="fill: none; stroke-dasharray: 3.7,1.6; stroke-dashoffset: 0; stroke: #d1d5db"/>
     </g>
     <g id="line2d_20">
      <defs>
       <path id="md612d8602d" d="M 0 0 
L -3.5 0 
" style="stroke: #000000; stroke-width: 0.8"/>
      </defs>
      <g>
       <use xlink:href="#md612d8602d" x="30.49" y="266.983623" style="stroke: #000000; stroke-width: 0.8"/>
      </g>
     </g>
     <g id="text_11">
      <!-- 0 -->
      <g transform="translate(17.1275 270.782841)scale(0.1 -0.1)">
       <use xlink:href="#DejaVuSans-30"/>
      </g>
     </g>
    </g>
    <g id="ytick_2">
     <g id="line2d_21">
      <path d="M 30.49 221.198183 
L 450 221.198183 
" clip-path="url(#p3b82695503)" style="fill: none; stroke-dasharray: 3.7,1.6; stroke-dashoffset: 0; stroke: #d1d5db"/>
     </g>
     <g id="line2d_22">
      <g>
       <use xlink:href="#md612d8602d" x="30.49" y="221.198183" style="stroke: #000000; stroke-width: 0.8"/>
      </g>
     </g>
     <g id="text_12">
      <!-- 2 -->
      <g transform="translate(17.1275 224.997402)scale(0.1 -0.1)">
       <use xlink:href="#DejaVuSans-32"/>
      </g>
     </g>
    </g>
    <g id="ytick_3">
     <g id="line2d_23">
      <path d="M 30.49 175.412743 
L 450 175.412743 
" clip-path="url(#p3b82695503)" style="fill: none; stroke-dasharray: 3.7,1.6; stroke-dashoffset: 0; stroke: #d1d5db"/>
     </g>
     <g id="line2d_24">
      <g>
       <use xlink:href="#md612d8602d" x="30.49" y="175.412743" style="stroke: #000000; stroke-width: 0.8"/>
      </g>
     </g>
     <g id="text_13">
      <!-- 4 -->
      <g transform="translate(17.1275 179.211962)scale(0.1 -0.1)">
       <use xlink:href="#DejaVuSans-34"/>
      </g>
     </g>
    </g>
    <g id="ytick_4">
     <g id="line2d_25">
      <path d="M 30.49 129.627304 
L 450 129.627304 
" clip-path="url(#p3b82695503)" style="fill: none; stroke-dasharray: 3.7,1.6; stroke-dashoffset: 0; stroke: #d1d5db"/>
     </g>
     <g id="line2d_26">
      <g>
       <use xlink:href="#md612d8602d" x="30.49" y="129.627304" style="stroke: #000000; stroke-width: 0.8"/>
      </g>
     </g>
     <g id="text_14">
      <!-- 6 -->
      <g transform="translate(17.1275 133.426523)scale(0.1 -0.1)">
       <use xlink:href="#DejaVuSans-36"/>
      </g>
     </g>
    </g>
    <g id="ytick_5">
     <g id="line2d_27">
      <path d="M 30.49 83.841864 
L 450 83.841864 
" clip-path="url(#p3b82695503)" style="fill: none; stroke-dasharray: 3.7,1.6; stroke-dashoffset: 0; stroke: #d1d5db"/>
     </g>
     <g id="line2d_28">
      <g>
       <use xlink:href="#md612d8602d" x="30.49" y="83.841864" style="stroke: #000000; stroke-width: 0.8"/>
      </g>
     </g>
     <g id="text_15">
      <!-- 8 -->
      <g transform="translate(17.1275 87.641083)scale(0.1 -0.1)">
       <use xlink:href="#DejaVuSans-38"/>
      </g>
     </g>
    </g>
    <g id="ytick_6">
     <g id="line2d_29">
      <path d="M 30.49 38.056425 
L 450 38.056425 
" clip-path="url(#p3b82695503)" style="fill: none; stroke-dasharray: 3.7,1.6; stroke-dashoffset: 0; stroke: #d1d5db"/>
     </g>
     <g id="line2d_30">
      <g>
       <use xlink:href="#md612d8602d" x="30.49" y="38.056425" style="stroke: #000000; stroke-width: 0.8"/>
      </g>
     </g>
     <g id="text_16">
      <!-- 10 -->
      <g transform="translate(10.765 41.855643)scale(0.1 -0.1)">
       <use xlink:href="#DejaVuSans-31"/>
       <use xlink:href="#DejaVuSans-30" x="63.623047"/>
      </g>
     </g>
    </g>
   </g>
   <g id="line2d_31">
    <path d="M 66.89376 42.232193 
L 67.03822 42.339123 
L 67.327138 43.193339 
L 67.616057 44.895214 
L 68.049435 49.007059 
L 68.735617 58.407413 
L 71.119197 90.409249 
L 72.310987 105.188184 
L 76.644768 146.72823 
L 79.895103 175.531769 
L 82.061994 192.715443 
L 83.542702 202.878331 
L 85.131755 211.331507 
L 86.323545 216.720958 
L 87.40699 220.824357 
L 87.984828 222.091373 
L 88.273747 222.405109 
L 88.562665 222.50942 
L 88.851584 222.405109 
L 89.140503 222.091373 
L 89.71834 220.824357 
L 90.404522 218.336407 
L 91.596312 213.218508 
L 92.788102 207.285953 
L 93.979892 200.538743 
L 96.146782 184.362619 
L 98.313673 166.277339 
L 101.564008 136.554077 
L 104.814344 105.188184 
L 106.80066 80.10404 
L 109.509273 44.895214 
L 109.942652 42.659711 
L 110.23157 42.232193 
L 110.37603 42.339123 
L 110.664948 43.193339 
L 110.953867 44.895214 
L 111.387245 49.007059 
L 112.073427 58.407413 
L 114.457007 90.409249 
L 115.648796 105.188184 
L 119.982577 146.72823 
L 123.232913 175.531769 
L 125.399804 192.715443 
L 126.880512 202.878331 
L 128.469565 211.331507 
L 129.661355 216.720958 
L 130.7448 220.824357 
L 131.322638 222.091373 
L 131.611556 222.405109 
L 131.900475 222.50942 
L 132.189394 222.405109 
L 132.478313 222.091373 
L 133.05615 220.824357 
L 133.742332 218.336407 
L 134.934122 213.218508 
L 136.125912 207.285953 
L 137.317701 200.538743 
L 139.484592 184.362619 
L 141.651482 166.277339 
L 144.901818 136.554077 
L 148.152154 105.188184 
L 150.13847 80.10404 
L 152.847083 44.895214 
L 153.280461 42.659711 
L 153.56938 42.232193 
L 153.71384 42.339123 
L 154.002758 43.193339 
L 154.291677 44.895214 
L 154.725055 49.007059 
L 155.411237 58.407413 
L 157.794817 90.409249 
L 158.986606 105.188184 
L 163.320387 146.72823 
L 166.570723 175.531769 
L 168.737614 192.715443 
L 170.218322 202.878331 
L 171.807375 211.331507 
L 172.999165 216.720958 
L 174.08261 220.824357 
L 174.660448 222.091373 
L 174.949366 222.405109 
L 175.238285 222.50942 
L 175.527204 222.405109 
L 175.816123 222.091373 
L 176.39396 220.824357 
L 177.080142 218.336407 
L 178.271932 213.218508 
L 179.463722 207.285953 
L 180.655511 200.538743 
L 182.822402 184.362619 
L 184.989292 166.277339 
L 188.239628 136.554077 
L 191.489964 105.188184 
L 193.47628 80.10404 
L 196.184893 44.895214 
L 196.618271 42.659711 
L 196.90719 42.232193 
L 197.051649 42.339123 
L 197.340568 43.193339 
L 197.629487 44.895214 
L 198.062865 49.007059 
L 198.749047 58.407413 
L 201.132627 90.409249 
L 202.324416 105.188184 
L 206.658197 146.72823 
L 209.908533 175.531769 
L 212.075424 192.715443 
L 213.556132 202.878331 
L 215.145185 211.331507 
L 216.336975 216.720958 
L 217.42042 220.824357 
L 217.998258 222.091373 
L 218.287176 222.405109 
L 218.576095 222.50942 
L 218.865014 222.405109 
L 219.153933 222.091373 
L 219.73177 220.824357 
L 220.417952 218.336407 
L 221.609742 213.218508 
L 222.801532 207.285953 
L 223.993321 200.538743 
L 226.160212 184.362619 
L 228.327102 166.277339 
L 231.577438 136.554077 
L 234.827774 105.188184 
L 236.81409 80.10404 
L 239.522703 44.895214 
L 239.956081 42.659711 
L 240.245 42.232193 
L 240.389459 42.339123 
L 240.678378 43.193339 
L 240.967297 44.895214 
L 241.400675 49.007059 
L 242.086857 58.407413 
L 244.470436 90.409249 
L 245.662226 105.188184 
L 249.996007 146.72823 
L 253.246343 175.531769 
L 255.413233 192.715443 
L 256.893942 202.878331 
L 258.482995 211.331507 
L 259.674785 216.720958 
L 260.75823 220.824357 
L 261.336067 222.091373 
L 261.624986 222.405109 
L 261.913905 222.50942 
L 262.202824 222.405109 
L 262.491742 222.091373 
L 263.06958 220.824357 
L 263.755762 218.336407 
L 264.947552 213.218508 
L 266.139341 207.285953 
L 267.331131 200.538743 
L 269.498022 184.362619 
L 271.664912 166.277339 
L 274.915248 136.554077 
L 278.165584 105.188184 
L 280.1519 80.10404 
L 282.860513 44.895214 
L 283.293891 42.659711 
L 283.58281 42.232193 
L 283.727269 42.339123 
L 284.016188 43.193339 
L 284.305107 44.895214 
L 284.738485 49.007059 
L 285.424667 58.407413 
L 287.808246 90.409249 
L 289.000036 105.188184 
L 293.333817 146.72823 
L 296.584153 175.531769 
L 298.751043 192.715443 
L 300.231752 202.878331 
L 301.820805 211.331507 
L 303.012595 216.720958 
L 304.09604 220.824357 
L 304.673877 222.091373 
L 304.962796 222.405109 
L 305.251715 222.50942 
L 305.540634 222.405109 
L 305.829552 222.091373 
L 306.40739 220.824357 
L 307.093572 218.336407 
L 308.285362 213.218508 
L 309.477151 207.285953 
L 310.668941 200.538743 
L 312.835832 184.362619 
L 315.002722 166.277339 
L 318.253058 136.554077 
L 321.503394 105.188184 
L 323.48971 80.10404 
L 326.198323 44.895214 
L 326.631701 42.659711 
L 326.92062 42.232193 
L 327.065079 42.339123 
L 327.353998 43.193339 
L 327.642917 44.895214 
L 328.076295 49.007059 
L 328.762477 58.407413 
L 331.146056 90.409249 
L 332.337846 105.188184 
L 336.671627 146.72823 
L 339.921963 175.531769 
L 342.088853 192.715443 
L 343.569562 202.878331 
L 345.158615 211.331507 
L 346.350405 216.720958 
L 347.43385 220.824357 
L 348.011687 222.091373 
L 348.300606 222.405109 
L 348.589525 222.50942 
L 348.878444 222.405109 
L 349.167362 222.091373 
L 349.7452 220.824357 
L 350.431382 218.336407 
L 351.623171 213.218508 
L 352.814961 207.285953 
L 354.006751 200.538743 
L 356.173642 184.362619 
L 358.340532 166.277339 
L 361.590868 136.554077 
L 364.841204 105.188184 
L 366.82752 80.10404 
L 369.536133 44.895214 
L 369.969511 42.659711 
L 370.25843 42.232193 
L 370.402889 42.339123 
L 370.691808 43.193339 
L 370.980727 44.895214 
L 371.414105 49.007059 
L 372.100287 58.407413 
L 374.483866 90.409249 
L 375.675656 105.188184 
L 380.009437 146.72823 
L 383.259773 175.531769 
L 385.426663 192.715443 
L 386.907372 202.878331 
L 388.496425 211.331507 
L 389.688215 216.720958 
L 390.77166 220.824357 
L 391.349497 222.091373 
L 391.638416 222.405109 
L 391.927335 222.50942 
L 392.216253 222.405109 
L 392.505172 222.091373 
L 393.08301 220.824357 
L 393.769192 218.336407 
L 394.960981 213.218508 
L 396.152771 207.285953 
L 397.344561 200.538743 
L 399.511451 184.362619 
L 401.678342 166.277339 
L 404.928678 136.554077 
L 408.179013 105.188184 
L 410.16533 80.10404 
L 412.873943 44.895214 
L 413.307321 42.659711 
L 413.59624 42.232193 
L 413.59624 42.232193 
" clip-path="url(#p3b82695503)" style="fill: none; stroke: #1f77b4; stroke-width: 1.5; stroke-linecap: square"/>
   </g>
   <g id="line2d_32">
    <path d="M 66.89376 238.652043 
L 67.182679 238.567996 
L 67.616057 238.124981 
L 68.049435 237.294331 
L 68.735617 235.262472 
L 69.927407 230.730282 
L 71.119197 225.051465 
L 72.310987 218.226022 
L 73.394432 211.837357 
L 74.477877 204.600197 
L 75.561322 196.514541 
L 77.728213 177.797746 
L 79.895103 155.68697 
L 82.061994 130.182213 
L 83.939966 107.116452 
L 86.323545 77.925715 
L 87.695909 61.278903 
L 87.984828 59.306506 
L 88.273747 58.11698 
L 88.562665 57.719455 
L 88.851584 58.11698 
L 89.140503 59.306506 
L 89.429421 61.278903 
L 90.007259 67.505862 
L 92.390838 97.73101 
L 98.313673 167.166605 
L 100.480563 187.580391 
L 102.647454 204.600197 
L 103.730899 211.837357 
L 106.403397 227.071807 
L 107.595187 232.368415 
L 108.786977 236.518396 
L 109.364814 237.891739 
L 109.798192 238.462786 
L 110.23157 238.652043 
L 110.520489 238.567996 
L 110.953867 238.124981 
L 111.387245 237.294331 
L 112.073427 235.262472 
L 113.265217 230.730282 
L 114.457007 225.051465 
L 115.648796 218.226022 
L 116.732242 211.837357 
L 117.815687 204.600197 
L 118.899132 196.514541 
L 121.066023 177.797746 
L 123.232913 155.68697 
L 125.399804 130.182213 
L 127.277775 107.116452 
L 129.661355 77.925715 
L 131.033719 61.278903 
L 131.322638 59.306506 
L 131.611556 58.11698 
L 131.900475 57.719455 
L 132.189394 58.11698 
L 132.478313 59.306506 
L 132.767231 61.278903 
L 133.345069 67.505862 
L 135.728648 97.73101 
L 141.651482 167.166605 
L 143.818373 187.580391 
L 145.985263 204.600197 
L 147.068709 211.837357 
L 149.741207 227.071807 
L 150.932997 232.368415 
L 152.124787 236.518396 
L 152.702624 237.891739 
L 153.136002 238.462786 
L 153.56938 238.652043 
L 153.858299 238.567996 
L 154.291677 238.124981 
L 154.725055 237.294331 
L 155.411237 235.262472 
L 156.603027 230.730282 
L 157.794817 225.051465 
L 158.986606 218.226022 
L 160.070052 211.837357 
L 161.153497 204.600197 
L 162.236942 196.514541 
L 164.403833 177.797746 
L 166.570723 155.68697 
L 168.737614 130.182213 
L 170.615585 107.116452 
L 172.999165 77.925715 
L 174.371529 61.278903 
L 174.660448 59.306506 
L 174.949366 58.11698 
L 175.238285 57.719455 
L 175.527204 58.11698 
L 175.816123 59.306506 
L 176.105041 61.278903 
L 176.682879 67.505862 
L 179.066458 97.73101 
L 184.989292 167.166605 
L 187.156183 187.580391 
L 189.323073 204.600197 
L 190.406519 211.837357 
L 193.079017 227.071807 
L 194.270807 232.368415 
L 195.462596 236.518396 
L 196.040434 237.891739 
L 196.473812 238.462786 
L 196.90719 238.652043 
L 197.196109 238.567996 
L 197.629487 238.124981 
L 198.062865 237.294331 
L 198.749047 235.262472 
L 199.940837 230.730282 
L 201.132627 225.051465 
L 202.324416 218.226022 
L 203.407862 211.837357 
L 204.491307 204.600197 
L 205.574752 196.514541 
L 207.741643 177.797746 
L 209.908533 155.68697 
L 212.075424 130.182213 
L 213.953395 107.116452 
L 216.336975 77.925715 
L 217.709339 61.278903 
L 217.998258 59.306506 
L 218.287176 58.11698 
L 218.576095 57.719455 
L 218.865014 58.11698 
L 219.153933 59.306506 
L 219.442851 61.278903 
L 220.020689 67.505862 
L 222.404268 97.73101 
L 228.327102 167.166605 
L 230.493993 187.580391 
L 232.660883 204.600197 
L 233.744329 211.837357 
L 236.416827 227.071807 
L 237.608617 232.368415 
L 238.800406 236.518396 
L 239.378244 237.891739 
L 239.811622 238.462786 
L 240.245 238.652043 
L 240.533919 238.567996 
L 240.967297 238.124981 
L 241.400675 237.294331 
L 242.086857 235.262472 
L 243.278647 230.730282 
L 244.470436 225.051465 
L 245.662226 218.226022 
L 246.745671 211.837357 
L 247.829117 204.600197 
L 248.912562 196.514541 
L 251.079452 177.797746 
L 253.246343 155.68697 
L 255.413233 130.182213 
L 257.291205 107.116452 
L 259.674785 77.925715 
L 261.047149 61.278903 
L 261.336067 59.306506 
L 261.624986 58.11698 
L 261.913905 57.719455 
L 262.202824 58.11698 
L 262.491742 59.306506 
L 262.780661 61.278903 
L 263.358499 67.505862 
L 265.742078 97.73101 
L 271.664912 167.166605 
L 273.831803 187.580391 
L 275.998693 204.600197 
L 277.082138 211.837357 
L 279.754637 227.071807 
L 280.946426 232.368415 
L 282.138216 236.518396 
L 282.716054 237.891739 
L 283.149432 238.462786 
L 283.58281 238.652043 
L 283.871729 238.567996 
L 284.305107 238.124981 
L 284.738485 237.294331 
L 285.424667 235.262472 
L 286.616457 230.730282 
L 287.808246 225.051465 
L 289.000036 218.226022 
L 290.083481 211.837357 
L 291.166927 204.600197 
L 292.250372 196.514541 
L 294.417262 177.797746 
L 296.584153 155.68697 
L 298.751043 130.182213 
L 300.629015 107.116452 
L 303.012595 77.925715 
L 304.384959 61.278903 
L 304.673877 59.306506 
L 304.962796 58.11698 
L 305.251715 57.719455 
L 305.540634 58.11698 
L 305.829552 59.306506 
L 306.118471 61.278903 
L 306.696309 67.505862 
L 309.079888 97.73101 
L 315.002722 167.166605 
L 317.169613 187.580391 
L 319.336503 204.600197 
L 320.419948 211.837357 
L 323.092447 227.071807 
L 324.284236 232.368415 
L 325.476026 236.518396 
L 326.053864 237.891739 
L 326.487242 238.462786 
L 326.92062 238.652043 
L 327.209539 238.567996 
L 327.642917 238.124981 
L 328.076295 237.294331 
L 328.762477 235.262472 
L 329.954267 230.730282 
L 331.146056 225.051465 
L 332.337846 218.226022 
L 333.421291 211.837357 
L 334.504737 204.600197 
L 335.588182 196.514541 
L 337.755072 177.797746 
L 339.921963 155.68697 
L 342.088853 130.182213 
L 343.966825 107.116452 
L 346.350405 77.925715 
L 347.722769 61.278903 
L 348.011687 59.306506 
L 348.300606 58.11698 
L 348.589525 57.719455 
L 348.878444 58.11698 
L 349.167362 59.306506 
L 349.456281 61.278903 
L 350.034118 67.505862 
L 352.417698 97.73101 
L 358.340532 167.166605 
L 360.507423 187.580391 
L 362.674313 204.600197 
L 363.757758 211.837357 
L 366.430257 227.071807 
L 367.622046 232.368415 
L 368.813836 236.518396 
L 369.391674 237.891739 
L 369.825052 238.462786 
L 370.25843 238.652043 
L 370.547348 238.567996 
L 370.980727 238.124981 
L 371.414105 237.294331 
L 372.100287 235.262472 
L 373.292076 230.730282 
L 374.483866 225.051465 
L 375.675656 218.226022 
L 376.759101 211.837357 
L 377.842546 204.600197 
L 378.925992 196.514541 
L 381.092882 177.797746 
L 383.259773 155.68697 
L 385.426663 130.182213 
L 387.304635 107.116452 
L 389.688215 77.925715 
L 391.060579 61.278903 
L 391.349497 59.306506 
L 391.638416 58.11698 
L 391.927335 57.719455 
L 392.216253 58.11698 
L 392.505172 59.306506 
L 392.794091 61.278903 
L 393.371928 67.505862 
L 395.755508 97.73101 
L 401.678342 167.166605 
L 403.845232 187.580391 
L 406.012123 204.600197 
L 407.095568 211.837357 
L 409.768066 227.071807 
L 410.959856 232.368415 
L 412.151646 236.518396 
L 412.729483 237.891739 
L 413.162862 238.462786 
L 413.59624 238.652043 
L 413.59624 238.652043 
" clip-path="url(#p3b82695503)" style="fill: none; stroke: #ff7f0e; stroke-width: 1.5; stroke-linecap: square"/>
   </g>
   <g id="line2d_33">
    <path d="M 66.89376 188.720915 
L 67.182679 188.796036 
L 67.616057 189.190022 
L 68.049435 189.919956 
L 68.735617 191.616542 
L 72.310987 200.839949 
L 76.644768 209.653484 
L 79.895103 215.78826 
L 83.145439 221.420522 
L 87.695909 227.267815 
L 88.273747 227.5707 
L 88.851584 227.5707 
L 89.429421 227.267815 
L 90.007259 226.659718 
L 93.979892 221.420522 
L 97.230227 215.78826 
L 100.480563 209.653484 
L 104.814344 200.839949 
L 109.364814 189.396132 
L 109.798192 188.889902 
L 110.23157 188.720915 
L 110.520489 188.796036 
L 110.953867 189.190022 
L 111.387245 189.919956 
L 112.073427 191.616542 
L 115.648796 200.839949 
L 119.982577 209.653484 
L 123.232913 215.78826 
L 126.483249 221.420522 
L 131.033719 227.267815 
L 131.611556 227.5707 
L 132.189394 227.5707 
L 132.767231 227.267815 
L 133.345069 226.659718 
L 137.317701 221.420522 
L 140.568037 215.78826 
L 143.818373 209.653484 
L 148.152154 200.839949 
L 152.702624 189.396132 
L 153.136002 188.889902 
L 153.56938 188.720915 
L 153.858299 188.796036 
L 154.291677 189.190022 
L 154.725055 189.919956 
L 155.411237 191.616542 
L 158.986606 200.839949 
L 163.320387 209.653484 
L 166.570723 215.78826 
L 169.821059 221.420522 
L 174.371529 227.267815 
L 174.949366 227.5707 
L 175.527204 227.5707 
L 176.105041 227.267815 
L 176.682879 226.659718 
L 180.655511 221.420522 
L 183.905847 215.78826 
L 187.156183 209.653484 
L 191.489964 200.839949 
L 196.040434 189.396132 
L 196.473812 188.889902 
L 196.90719 188.720915 
L 197.196109 188.796036 
L 197.629487 189.190022 
L 198.062865 189.919956 
L 198.749047 191.616542 
L 202.324416 200.839949 
L 206.658197 209.653484 
L 209.908533 215.78826 
L 213.158869 221.420522 
L 217.709339 227.267815 
L 218.287176 227.5707 
L 218.865014 227.5707 
L 219.442851 227.267815 
L 220.020689 226.659718 
L 223.993321 221.420522 
L 227.243657 215.78826 
L 230.493993 209.653484 
L 234.827774 200.839949 
L 239.378244 189.396132 
L 239.811622 188.889902 
L 240.245 188.720915 
L 240.533919 188.796036 
L 240.967297 189.190022 
L 241.400675 189.919956 
L 242.086857 191.616542 
L 245.662226 200.839949 
L 249.996007 209.653484 
L 253.246343 215.78826 
L 256.496679 221.420522 
L 261.047149 227.267815 
L 261.624986 227.5707 
L 262.202824 227.5707 
L 262.780661 227.267815 
L 263.358499 226.659718 
L 267.331131 221.420522 
L 270.581467 215.78826 
L 273.831803 209.653484 
L 278.165584 200.839949 
L 282.716054 189.396132 
L 283.149432 188.889902 
L 283.58281 188.720915 
L 283.871729 188.796036 
L 284.305107 189.190022 
L 284.738485 189.919956 
L 285.424667 191.616542 
L 289.000036 200.839949 
L 293.333817 209.653484 
L 296.584153 215.78826 
L 299.834489 221.420522 
L 304.384959 227.267815 
L 304.962796 227.5707 
L 305.540634 227.5707 
L 306.118471 227.267815 
L 306.696309 226.659718 
L 310.668941 221.420522 
L 313.919277 215.78826 
L 317.169613 209.653484 
L 321.503394 200.839949 
L 326.053864 189.396132 
L 326.487242 188.889902 
L 326.92062 188.720915 
L 327.209539 188.796036 
L 327.642917 189.190022 
L 328.076295 189.919956 
L 328.762477 191.616542 
L 332.337846 200.839949 
L 336.671627 209.653484 
L 339.921963 215.78826 
L 343.172299 221.420522 
L 347.722769 227.267815 
L 348.300606 227.5707 
L 348.878444 227.5707 
L 349.456281 227.267815 
L 350.034118 226.659718 
L 354.006751 221.420522 
L 357.257087 215.78826 
L 360.507423 209.653484 
L 364.841204 200.839949 
L 369.391674 189.396132 
L 369.825052 188.889902 
L 370.25843 188.720915 
L 370.547348 188.796036 
L 370.980727 189.190022 
L 371.414105 189.919956 
L 372.100287 191.616542 
L 375.675656 200.839949 
L 380.009437 209.653484 
L 383.259773 215.78826 
L 386.510108 221.420522 
L 391.060579 227.267815 
L 391.638416 227.5707 
L 392.216253 227.5707 
L 392.794091 227.267815 
L 393.371928 226.659718 
L 397.344561 221.420522 
L 400.594897 215.78826 
L 403.845232 209.653484 
L 408.179013 200.839949 
L 412.729483 189.396132 
L 413.162862 188.889902 
L 413.59624 188.720915 
L 413.59624 188.720915 
" clip-path="url(#p3b82695503)" style="fill: none; stroke: #2ca02c; stroke-width: 1.5; stroke-linecap: square"/>
   </g>
   <g id="LineCollection_1">
    <path d="M 49.558636 259.276128 
L 430.931364 259.276128 
" clip-path="url(#p3b82695503)" style="fill: none; stroke: #000000"/>
   </g>
   <g id="patch_3">
    <path d="M 30.49 300.76 
L 30.49 32.4112 
" style="fill: none; stroke: #000000; stroke-width: 0.8; stroke-linejoin: miter; stroke-linecap: square"/>
   </g>
   <g id="patch_4">
    <path d="M 450 300.76 
L 450 32.4112 
" style="fill: none; stroke: #000000; stroke-width: 0.8; stroke-linejoin: miter; stroke-linecap: square"/>
   </g>
   <g id="patch_5">
    <path d="M 30.49 300.76 
L 450 300.76 
" style="fill: none; stroke: #000000; stroke-width: 0.8; stroke-linejoin: miter; stroke-linecap: square"/>
   </g>
   <g id="patch_6">
    <path d="M 30.49 32.4112 
L 450 32.4112 
" style="fill: none; stroke: #000000; stroke-width: 0.8; stroke-linejoin: miter; stroke-linecap: square"/>
   </g>
   <g id="legend_1">
    <g id="line2d_34">
     <path d="M 132.795 18.77632 
L 142.795 18.77632 
L 152.795 18.77632 
" style="fill: none; stroke: #1f77b4; stroke-width: 1.5; stroke-linecap: square"/>
    </g>
    <g id="text_17">
     <!-- $\beta_\mathrm{x}$ / m -->
     <g transform="translate(160.795 22.27632)scale(0.1 -0.1)">
      <defs>
       <path id="DejaVuSans-Oblique-3b2" d="M 872 216 
L 572 -1331 
L -6 -1331 
L 928 3478 
Q 1206 4903 2538 4903 
Q 3888 4903 3659 3700 
Q 3503 2844 2894 2531 
Q 3713 2250 3553 1416 
Q 3272 -69 1759 -66 
Q 1097 -63 872 216 
z
M 1019 966 
Q 1259 422 1875 425 
Q 2775 425 2966 1406 
Q 3138 2288 1675 2219 
L 1778 2750 
Q 2909 2731 3106 3750 
Q 3241 4438 2509 4434 
Q 1691 4434 1503 3459 
L 1019 966 
z
" transform="scale(0.015625)"/>
       <path id="DejaVuSans-78" d="M 3513 3500 
L 2247 1797 
L 3578 0 
L 2900 0 
L 1881 1375 
L 863 0 
L 184 0 
L 1544 1831 
L 300 3500 
L 978 3500 
L 1906 2253 
L 2834 3500 
L 3513 3500 
z
" transform="scale(0.015625)"/>
      </defs>
      <use xlink:href="#DejaVuSans-Oblique-3b2" transform="translate(0 0.390625)"/>
      <use xlink:href="#DejaVuSans-78" transform="translate(63.818359 -16.015625)scale(0.7)"/>
      <use xlink:href="#DejaVuSans-20" transform="translate(107.978516 0.390625)"/>
      <use xlink:href="#DejaVuSans-2f" transform="translate(139.765625 0.390625)"/>
      <use xlink:href="#DejaVuSans-20" transform="translate(173.457031 0.390625)"/>
      <use xlink:href="#DejaVuSans-6d" transform="translate(205.244141 0.390625)"/>
     </g>
    </g>
    <g id="line2d_35">
     <path d="M 211.095 18.77632 
L 221.095 18.77632 
L 231.095 18.77632 
" style="fill: none; stroke: #ff7f0e; stroke-width: 1.5; stroke-linecap: square"/>
    </g>
    <g id="text_18">
     <!-- $\beta_\mathrm{x}$ / m -->
     <g transform="translate(239.095 22.27632)scale(0.1 -0.1)">
      <use xlink:href="#DejaVuSans-Oblique-3b2" transform="translate(0 0.390625)"/>
      <use xlink:href="#DejaVuSans-78" transform="translate(63.818359 -16.015625)scale(0.7)"/>
      <use xlink:href="#DejaVuSans-20" transform="translate(107.978516 0.390625)"/>
      <use xlink:href="#DejaVuSans-2f" transform="translate(139.765625 0.390625)"/>
      <use xlink:href="#DejaVuSans-20" transform="translate(173.457031 0.390625)"/>
      <use xlink:href="#DejaVuSans-6d" transform="translate(205.244141 0.390625)"/>
     </g>
    </g>
    <g id="line2d_36">
     <path d="M 289.395 18.77632 
L 299.395 18.77632 
L 309.395 18.77632 
" style="fill: none; stroke: #2ca02c; stroke-width: 1.5; stroke-linecap: square"/>
    </g>
    <g id="text_19">
     <!-- $\eta_\mathrm{x}$ / m -->
     <g transform="translate(317.395 22.27632)scale(0.1 -0.1)">
      <defs>
       <path id="DejaVuSans-Oblique-3b7" d="M 3703 2113 
L 3034 -1331 
L 2459 -1331 
L 3125 2094 
Q 3222 2591 3075 2838 
Q 2931 3084 2544 3084 
Q 2078 3084 1750 2788 
Q 1425 2491 1325 1978 
L 941 0 
L 363 0 
L 1044 3500 
L 1622 3500 
L 1516 2956 
Q 1781 3272 2094 3428 
Q 2403 3584 2769 3584 
Q 3372 3584 3609 3213 
Q 3844 2838 3703 2113 
z
" transform="scale(0.015625)"/>
      </defs>
      <use xlink:href="#DejaVuSans-Oblique-3b7" transform="translate(0 0.09375)"/>
      <use xlink:href="#DejaVuSans-78" transform="translate(63.378906 -16.3125)scale(0.7)"/>
      <use xlink:href="#DejaVuSans-20" transform="translate(107.539062 0.09375)"/>
      <use xlink:href="#DejaVuSans-2f" transform="translate(139.326172 0.09375)"/>
      <use xlink:href="#DejaVuSans-20" transform="translate(173.017578 0.09375)"/>
      <use xlink:href="#DejaVuSans-6d" transform="translate(204.804688 0.09375)"/>
     </g>
    </g>
   </g>
   <g id="patch_7">
    <path d="M 66.89376 264.677673 
L 68.338354 264.677673 
L 68.338354 253.874582 
L 66.89376 253.874582 
z
" style="fill: #ef4444"/>
   </g>
   <g id="patch_8">
    <path d="M 72.310987 264.677673 
L 83.145439 264.677673 
L 83.145439 253.874582 
L 72.310987 253.874582 
z
" style="fill: #fbbf24"/>
   </g>
   <g id="patch_9">
    <path d="M 87.118072 264.677673 
L 90.007259 264.677673 
L 90.007259 253.874582 
L 87.118072 253.874582 
z
" style="fill: #ef4444"/>
   </g>
   <g id="patch_10">
    <path d="M 93.979892 264.677673 
L 104.814344 264.677673 
L 104.814344 253.874582 
L 93.979892 253.874582 
z
" style="fill: #fbbf24"/>
   </g>
   <g id="patch_11">
    <path d="M 108.786977 264.677673 
L 111.676164 264.677673 
L 111.676164 253.874582 
L 108.786977 253.874582 
z
" style="fill: #ef4444"/>
   </g>
   <g id="patch_12">
    <path d="M 115.648796 264.677673 
L 126.483249 264.677673 
L 126.483249 253.874582 
L 115.648796 253.874582 
z
" style="fill: #fbbf24"/>
   </g>
   <g id="patch_13">
    <path d="M 130.455882 264.677673 
L 133.345069 264.677673 
L 133.345069 253.874582 
L 130.455882 253.874582 
z
" style="fill: #ef4444"/>
   </g>
   <g id="patch_14">
    <path d="M 137.317701 264.677673 
L 148.152154 264.677673 
L 148.152154 253.874582 
L 137.317701 253.874582 
z
" style="fill: #fbbf24"/>
   </g>
   <g id="patch_15">
    <path d="M 152.124787 264.677673 
L 155.013974 264.677673 
L 155.013974 253.874582 
L 152.124787 253.874582 
z
" style="fill: #ef4444"/>
   </g>
   <g id="patch_16">
    <path d="M 158.986606 264.677673 
L 169.821059 264.677673 
L 169.821059 253.874582 
L 158.986606 253.874582 
z
" style="fill: #fbbf24"/>
   </g>
   <g id="patch_17">
    <path d="M 173.793691 264.677673 
L 176.682879 264.677673 
L 176.682879 253.874582 
L 173.793691 253.874582 
z
" style="fill: #ef4444"/>
   </g>
   <g id="patch_18">
    <path d="M 180.655511 264.677673 
L 191.489964 264.677673 
L 191.489964 253.874582 
L 180.655511 253.874582 
z
" style="fill: #fbbf24"/>
   </g>
   <g id="patch_19">
    <path d="M 195.462596 264.677673 
L 198.351784 264.677673 
L 198.351784 253.874582 
L 195.462596 253.874582 
z
" style="fill: #ef4444"/>
   </g>
   <g id="patch_20">
    <path d="M 202.324416 264.677673 
L 213.158869 264.677673 
L 213.158869 253.874582 
L 202.324416 253.874582 
z
" style="fill: #fbbf24"/>
   </g>
   <g id="patch_21">
    <path d="M 217.131501 264.677673 
L 220.020689 264.677673 
L 220.020689 253.874582 
L 217.131501 253.874582 
z
" style="fill: #ef4444"/>
   </g>
   <g id="patch_22">
    <path d="M 223.993321 264.677673 
L 234.827774 264.677673 
L 234.827774 253.874582 
L 223.993321 253.874582 
z
" style="fill: #fbbf24"/>
   </g>
   <g id="patch_23">
    <path d="M 238.800406 264.677673 
L 241.689594 264.677673 
L 241.689594 253.874582 
L 238.800406 253.874582 
z
" style="fill: #ef4444"/>
   </g>
   <g id="patch_24">
    <path d="M 245.662226 264.677673 
L 256.496679 264.677673 
L 256.496679 253.874582 
L 245.662226 253.874582 
z
" style="fill: #fbbf24"/>
   </g>
   <g id="patch_25">
    <path d="M 260.469311 264.677673 
L 263.358499 264.677673 
L 263.358499 253.874582 
L 260.469311 253.874582 
z
" style="fill: #ef4444"/>
   </g>
   <g id="patch_26">
    <path d="M 267.331131 264.677673 
L 278.165584 264.677673 
L 278.165584 253.874582 
L 267.331131 253.874582 
z
" style="fill: #fbbf24"/>
   </g>
   <g id="patch_27">
    <path d="M 282.138216 264.677673 
L 285.027404 264.677673 
L 285.027404 253.874582 
L 282.138216 253.874582 
z
" style="fill: #ef4444"/>
   </g>
   <g id="patch_28">
    <path d="M 289.000036 264.677673 
L 299.834489 264.677673 
L 299.834489 253.874582 
L 289.000036 253.874582 
z
" style="fill: #fbbf24"/>
   </g>
   <g id="patch_29">
    <path d="M 303.807121 264.677673 
L 306.696309 264.677673 
L 306.696309 253.874582 
L 303.807121 253.874582 
z
" style="fill: #ef4444"/>
   </g>
   <g id="patch_30">
    <path d="M 310.668941 264.677673 
L 321.503394 264.677673 
L 321.503394 253.874582 
L 310.668941 253.874582 
z
" style="fill: #fbbf24"/>
   </g>
   <g id="patch_31">
    <path d="M 325.476026 264.677673 
L 328.365213 264.677673 
L 328.365213 253.874582 
L 325.476026 253.874582 
z
" style="fill: #ef4444"/>
   </g>
   <g id="patch_32">
    <path d="M 332.337846 264.677673 
L 343.172299 264.677673 
L 343.172299 253.874582 
L 332.337846 253.874582 
z
" style="fill: #fbbf24"/>
   </g>
   <g id="patch_33">
    <path d="M 347.144931 264.677673 
L 350.034118 264.677673 
L 350.034118 253.874582 
L 347.144931 253.874582 
z
" style="fill: #ef4444"/>
   </g>
   <g id="patch_34">
    <path d="M 354.006751 264.677673 
L 364.841204 264.677673 
L 364.841204 253.874582 
L 354.006751 253.874582 
z
" style="fill: #fbbf24"/>
   </g>
   <g id="patch_35">
    <path d="M 368.813836 264.677673 
L 371.703023 264.677673 
L 371.703023 253.874582 
L 368.813836 253.874582 
z
" style="fill: #ef4444"/>
   </g>
   <g id="patch_36">
    <path d="M 375.675656 264.677673 
L 386.510108 264.677673 
L 386.510108 253.874582 
L 375.675656 253.874582 
z
" style="fill: #fbbf24"/>
   </g>
   <g id="patch_37">
    <path d="M 390.482741 264.677673 
L 393.371928 264.677673 
L 393.371928 253.874582 
L 390.482741 253.874582 
z
" style="fill: #ef4444"/>
   </g>
   <g id="patch_38">
    <path d="M 397.344561 264.677673 
L 408.179013 264.677673 
L 408.179013 253.874582 
L 397.344561 253.874582 
z
" style="fill: #fbbf24"/>
   </g>
   <g id="patch_39">
    <path d="M 412.151646 264.677673 
L 413.59624 264.677673 
L 413.59624 253.874582 
L 412.151646 253.874582 
z
" style="fill: #ef4444"/>
   </g>
   <g id="text_20">
    <!-- q1 -->
    <g transform="translate(62.531682 246.809286)scale(0.08 -0.08)">
     <defs>
      <path id="DejaVuSans-71" d="M 947 1747 
Q 947 1113 1208 752 
Q 1469 391 1925 391 
Q 2381 391 2643 752 
Q 2906 1113 2906 1747 
Q 2906 2381 2643 2742 
Q 2381 3103 1925 3103 
Q 1469 3103 1208 2742 
Q 947 2381 947 1747 
z
M 2906 525 
Q 2725 213 2448 61 
Q 2172 -91 1784 -91 
Q 1150 -91 751 415 
Q 353 922 353 1747 
Q 353 2572 751 3078 
Q 1150 3584 1784 3584 
Q 2172 3584 2448 3432 
Q 2725 3281 2906 2969 
L 2906 3500 
L 3481 3500 
L 3481 -1331 
L 2906 -1331 
L 2906 525 
z
" transform="scale(0.015625)"/>
     </defs>
     <use xlink:href="#DejaVuSans-71"/>
     <use xlink:href="#DejaVuSans-31" x="63.476562"/>
    </g>
   </g>
   <g id="text_21">
    <!-- b1 -->
    <g transform="translate(72.643838 276.157969)scale(0.08 -0.08)">
     <use xlink:href="#DejaVuSans-62"/>
     <use xlink:href="#DejaVuSans-31" x="63.476562"/>
    </g>
   </g>
   <g id="text_22">
    <!-- q2 -->
    <g transform="translate(83.47829 246.809286)scale(0.08 -0.08)">
     <use xlink:href="#DejaVuSans-71"/>
     <use xlink:href="#DejaVuSans-32" x="63.476562"/>
    </g>
   </g>
   <g id="text_23">
    <!-- b1 -->
    <g transform="translate(94.312743 276.157969)scale(0.08 -0.08)">
     <use xlink:href="#DejaVuSans-62"/>
     <use xlink:href="#DejaVuSans-31" x="63.476562"/>
    </g>
   </g>
   <g id="text_24">
    <!-- q1 -->
    <g transform="translate(105.147195 246.809286)scale(0.08 -0.08)">
     <use xlink:href="#DejaVuSans-71"/>
     <use xlink:href="#DejaVuSans-31" x="63.476562"/>
    </g>
   </g>
   <g id="text_25">
    <!-- b1 -->
    <g transform="translate(115.981648 276.157969)scale(0.08 -0.08)">
     <use xlink:href="#DejaVuSans-62"/>
     <use xlink:href="#DejaVuSans-31" x="63.476562"/>
    </g>
   </g>
   <g id="text_26">
    <!-- q2 -->
    <g transform="translate(126.8161 246.809286)scale(0.08 -0.08)">
     <use xlink:href="#DejaVuSans-71"/>
     <use xlink:href="#DejaVuSans-32" x="63.476562"/>
    </g>
   </g>
   <g id="text_27">
    <!-- b1 -->
    <g transform="translate(137.650553 276.157969)scale(0.08 -0.08)">
     <use xlink:href="#DejaVuSans-62"/>
     <use xlink:href="#DejaVuSans-31" x="63.476562"/>
    </g>
   </g>
   <g id="text_28">
    <!-- q1 -->
    <g transform="translate(148.485005 246.809286)scale(0.08 -0.08)">
     <use xlink:href="#DejaVuSans-71"/>
     <use xlink:href="#DejaVuSans-31" x="63.476562"/>
    </g>
   </g>
   <g id="text_29">
    <!-- b1 -->
    <g transform="translate(159.319458 276.157969)scale(0.08 -0.08)">
     <use xlink:href="#DejaVuSans-62"/>
     <use xlink:href="#DejaVuSans-31" x="63.476562"/>
    </g>
   </g>
   <g id="text_30">
    <!-- q2 -->
    <g transform="translate(170.15391 246.809286)scale(0.08 -0.08)">
     <use xlink:href="#DejaVuSans-71"/>
     <use xlink:href="#DejaVuSans-32" x="63.476562"/>
    </g>
   </g>
   <g id="text_31">
    <!-- b1 -->
    <g transform="translate(180.988363 276.157969)scale(0.08 -0.08)">
     <use xlink:href="#DejaVuSans-62"/>
     <use xlink:href="#DejaVuSans-31" x="63.476562"/>
    </g>
   </g>
   <g id="text_32">
    <!-- q1 -->
    <g transform="translate(191.822815 246.809286)scale(0.08 -0.08)">
     <use xlink:href="#DejaVuSans-71"/>
     <use xlink:href="#DejaVuSans-31" x="63.476562"/>
    </g>
   </g>
   <g id="text_33">
    <!-- b1 -->
    <g transform="translate(202.657268 276.157969)scale(0.08 -0.08)">
     <use xlink:href="#DejaVuSans-62"/>
     <use xlink:href="#DejaVuSans-31" x="63.476562"/>
    </g>
   </g>
   <g id="text_34">
    <!-- q2 -->
    <g transform="translate(213.49172 246.809286)scale(0.08 -0.08)">
     <use xlink:href="#DejaVuSans-71"/>
     <use xlink:href="#DejaVuSans-32" x="63.476562"/>
    </g>
   </g>
   <g id="text_35">
    <!-- b1 -->
    <g transform="translate(224.326173 276.157969)scale(0.08 -0.08)">
     <use xlink:href="#DejaVuSans-62"/>
     <use xlink:href="#DejaVuSans-31" x="63.476562"/>
    </g>
   </g>
   <g id="text_36">
    <!-- q1 -->
    <g transform="translate(235.160625 246.809286)scale(0.08 -0.08)">
     <use xlink:href="#DejaVuSans-71"/>
     <use xlink:href="#DejaVuSans-31" x="63.476562"/>
    </g>
   </g>
   <g id="text_37">
    <!-- b1 -->
    <g transform="translate(245.995077 276.157969)scale(0.08 -0.08)">
     <use xlink:href="#DejaVuSans-62"/>
     <use xlink:href="#DejaVuSans-31" x="63.476562"/>
    </g>
   </g>
   <g id="text_38">
    <!-- q2 -->
    <g transform="translate(256.82953 246.809286)scale(0.08 -0.08)">
     <use xlink:href="#DejaVuSans-71"/>
     <use xlink:href="#DejaVuSans-32" x="63.476562"/>
    </g>
   </g>
   <g id="text_39">
    <!-- b1 -->
    <g transform="translate(267.663982 276.157969)scale(0.08 -0.08)">
     <use xlink:href="#DejaVuSans-62"/>
     <use xlink:href="#DejaVuSans-31" x="63.476562"/>
    </g>
   </g>
   <g id="text_40">
    <!-- q1 -->
    <g transform="translate(278.498435 246.809286)scale(0.08 -0.08)">
     <use xlink:href="#DejaVuSans-71"/>
     <use xlink:href="#DejaVuSans-31" x="63.476562"/>
    </g>
   </g>
   <g id="text_41">
    <!-- b1 -->
    <g transform="translate(289.332887 276.157969)scale(0.08 -0.08)">
     <use xlink:href="#DejaVuSans-62"/>
     <use xlink:href="#DejaVuSans-31" x="63.476562"/>
    </g>
   </g>
   <g id="text_42">
    <!-- q2 -->
    <g transform="translate(300.16734 246.809286)scale(0.08 -0.08)">
     <use xlink:href="#DejaVuSans-71"/>
     <use xlink:href="#DejaVuSans-32" x="63.476562"/>
    </g>
   </g>
   <g id="text_43">
    <!-- b1 -->
    <g transform="translate(311.001792 276.157969)scale(0.08 -0.08)">
     <use xlink:href="#DejaVuSans-62"/>
     <use xlink:href="#DejaVuSans-31" x="63.476562"/>
    </g>
   </g>
   <g id="text_44">
    <!-- q1 -->
    <g transform="translate(321.836245 246.809286)scale(0.08 -0.08)">
     <use xlink:href="#DejaVuSans-71"/>
     <use xlink:href="#DejaVuSans-31" x="63.476562"/>
    </g>
   </g>
   <g id="text_45">
    <!-- b1 -->
    <g transform="translate(332.670697 276.157969)scale(0.08 -0.08)">
     <use xlink:href="#DejaVuSans-62"/>
     <use xlink:href="#DejaVuSans-31" x="63.476562"/>
    </g>
   </g>
   <g id="text_46">
    <!-- q2 -->
    <g transform="translate(343.50515 246.809286)scale(0.08 -0.08)">
     <use xlink:href="#DejaVuSans-71"/>
     <use xlink:href="#DejaVuSans-32" x="63.476562"/>
    </g>
   </g>
   <g id="text_47">
    <!-- b1 -->
    <g transform="translate(354.339602 276.157969)scale(0.08 -0.08)">
     <use xlink:href="#DejaVuSans-62"/>
     <use xlink:href="#DejaVuSans-31" x="63.476562"/>
    </g>
   </g>
   <g id="text_48">
    <!-- q1 -->
    <g transform="translate(365.174055 246.809286)scale(0.08 -0.08)">
     <use xlink:href="#DejaVuSans-71"/>
     <use xlink:href="#DejaVuSans-31" x="63.476562"/>
    </g>
   </g>
   <g id="text_49">
    <!-- b1 -->
    <g transform="translate(376.008507 276.157969)scale(0.08 -0.08)">
     <use xlink:href="#DejaVuSans-62"/>
     <use xlink:href="#DejaVuSans-31" x="63.476562"/>
    </g>
   </g>
   <g id="text_50">
    <!-- q2 -->
    <g transform="translate(386.84296 246.809286)scale(0.08 -0.08)">
     <use xlink:href="#DejaVuSans-71"/>
     <use xlink:href="#DejaVuSans-32" x="63.476562"/>
    </g>
   </g>
   <g id="text_51">
    <!-- b1 -->
    <g transform="translate(397.677412 276.157969)scale(0.08 -0.08)">
     <use xlink:href="#DejaVuSans-62"/>
     <use xlink:href="#DejaVuSans-31" x="63.476562"/>
    </g>
   </g>
   <g id="text_52">
    <!-- q1 -->
    <g transform="translate(407.789568 246.809286)scale(0.08 -0.08)">
     <use xlink:href="#DejaVuSans-71"/>
     <use xlink:href="#DejaVuSans-31" x="63.476562"/>
    </g>
   </g>
   <g id="text_53">
    <g clip-path="url(#p3b82695503)">
     <!-- FODO -->
     <g transform="translate(73.965009 290.267582)scale(0.1 -0.1)">
      <defs>
       <path id="DejaVuSans-Oblique-46" d="M 1081 4666 
L 3756 4666 
L 3653 4134 
L 1606 4134 
L 1338 2759 
L 3188 2759 
L 3084 2228 
L 1234 2228 
L 800 0 
L 172 0 
L 1081 4666 
z
" transform="scale(0.015625)"/>
       <path id="DejaVuSans-Oblique-4f" d="M 2919 4238 
Q 2400 4238 2003 3986 
Q 1606 3734 1313 3219 
Q 1125 2891 1026 2522 
Q 928 2153 928 1778 
Q 928 1128 1239 775 
Q 1550 422 2119 422 
Q 2631 422 3032 676 
Q 3434 931 3719 1434 
Q 3909 1772 4009 2142 
Q 4109 2513 4109 2881 
Q 4109 3528 3796 3883 
Q 3484 4238 2919 4238 
z
M 2100 -91 
Q 1241 -91 748 418 
Q 256 928 256 1813 
Q 256 2319 448 2847 
Q 641 3375 978 3788 
Q 1375 4272 1862 4511 
Q 2350 4750 2938 4750 
Q 3794 4750 4287 4245 
Q 4781 3741 4781 2869 
Q 4781 2331 4593 1812 
Q 4406 1294 4056 872 
Q 3656 384 3173 146 
Q 2691 -91 2100 -91 
z
" transform="scale(0.015625)"/>
       <path id="DejaVuSans-Oblique-44" d="M 1081 4666 
L 2438 4666 
Q 3519 4666 4070 4208 
Q 4622 3750 4622 2847 
Q 4622 2250 4412 1698 
Q 4203 1147 3834 769 
Q 3463 381 2891 190 
Q 2319 0 1538 0 
L 172 0 
L 1081 4666 
z
M 1613 4147 
L 909 519 
L 1734 519 
Q 2794 519 3375 1128 
Q 3956 1738 3956 2847 
Q 3956 3519 3581 3833 
Q 3206 4147 2406 4147 
L 1613 4147 
z
" transform="scale(0.015625)"/>
      </defs>
      <use xlink:href="#DejaVuSans-Oblique-46"/>
      <use xlink:href="#DejaVuSans-Oblique-4f" x="57.519531"/>
      <use xlink:href="#DejaVuSans-Oblique-44" x="136.230469"/>
      <use xlink:href="#DejaVuSans-Oblique-4f" x="213.232422"/>
     </g>
    </g>
   </g>
   <g id="text_54">
    <g clip-path="url(#p3b82695503)">
     <!-- FODO -->
     <g transform="translate(117.302819 290.267582)scale(0.1 -0.1)">
      <use xlink:href="#DejaVuSans-Oblique-46"/>
      <use xlink:href="#DejaVuSans-Oblique-4f" x="57.519531"/>
      <use xlink:href="#DejaVuSans-Oblique-44" x="136.230469"/>
      <use xlink:href="#DejaVuSans-Oblique-4f" x="213.232422"/>
     </g>
    </g>
   </g>
   <g id="text_55">
    <g clip-path="url(#p3b82695503)">
     <!-- FODO -->
     <g transform="translate(160.640629 290.267582)scale(0.1 -0.1)">
      <use xlink:href="#DejaVuSans-Oblique-46"/>
      <use xlink:href="#DejaVuSans-Oblique-4f" x="57.519531"/>
      <use xlink:href="#DejaVuSans-Oblique-44" x="136.230469"/>
      <use xlink:href="#DejaVuSans-Oblique-4f" x="213.232422"/>
     </g>
    </g>
   </g>
   <g id="text_56">
    <g clip-path="url(#p3b82695503)">
     <!-- FODO -->
     <g transform="translate(203.978439 290.267582)scale(0.1 -0.1)">
      <use xlink:href="#DejaVuSans-Oblique-46"/>
      <use xlink:href="#DejaVuSans-Oblique-4f" x="57.519531"/>
      <use xlink:href="#DejaVuSans-Oblique-44" x="136.230469"/>
      <use xlink:href="#DejaVuSans-Oblique-4f" x="213.232422"/>
     </g>
    </g>
   </g>
   <g id="text_57">
    <g clip-path="url(#p3b82695503)">
     <!-- FODO -->
     <g transform="translate(247.316249 290.267582)scale(0.1 -0.1)">
      <use xlink:href="#DejaVuSans-Oblique-46"/>
      <use xlink:href="#DejaVuSans-Oblique-4f" x="57.519531"/>
      <use xlink:href="#DejaVuSans-Oblique-44" x="136.230469"/>
      <use xlink:href="#DejaVuSans-Oblique-4f" x="213.232422"/>
     </g>
    </g>
   </g>
   <g id="text_58">
    <g clip-path="url(#p3b82695503)">
     <!-- FODO -->
     <g transform="translate(290.654059 290.267582)scale(0.1 -0.1)">
      <use xlink:href="#DejaVuSans-Oblique-46"/>
      <use xlink:href="#DejaVuSans-Oblique-4f" x="57.519531"/>
      <use xlink:href="#DejaVuSans-Oblique-44" x="136.230469"/>
      <use xlink:href="#DejaVuSans-Oblique-4f" x="213.232422"/>
     </g>
    </g>
   </g>
   <g id="text_59">
    <g clip-path="url(#p3b82695503)">
     <!-- FODO -->
     <g transform="translate(333.991869 290.267582)scale(0.1 -0.1)">
      <use xlink:href="#DejaVuSans-Oblique-46"/>
      <use xlink:href="#DejaVuSans-Oblique-4f" x="57.519531"/>
      <use xlink:href="#DejaVuSans-Oblique-44" x="136.230469"/>
      <use xlink:href="#DejaVuSans-Oblique-4f" x="213.232422"/>
     </g>
    </g>
   </g>
   <g id="text_60">
    <g clip-path="url(#p3b82695503)">
     <!-- FODO -->
     <g transform="translate(377.329678 290.267582)scale(0.1 -0.1)">
      <use xlink:href="#DejaVuSans-Oblique-46"/>
      <use xlink:href="#DejaVuSans-Oblique-4f" x="57.519531"/>
      <use xlink:href="#DejaVuSans-Oblique-44" x="136.230469"/>
      <use xlink:href="#DejaVuSans-Oblique-4f" x="213.232422"/>
     </g>
    </g>
   </g>
  </g>
 </g>
 <defs>
  <clipPath id="p3b82695503">
   <rect x="30.49" y="32.4112" width="419.51" height="268.3488"/>
  </clipPath>
 </defs>
</svg>
