<?xml version="1.0" encoding="utf-8" standalone="no"?>
<!DOCTYPE svg PUBLIC "-//W3C//DTD SVG 1.1//EN"
  "http://www.w3.org/Graphics/SVG/1.1/DTD/svg11.dtd">
<svg height="460.8pt" version="1.1" viewBox="0 0 460.8 460.8" width="460.8pt" xmlns="http://www.w3.org/2000/svg" xmlns:xlink="http://www.w3.org/1999/xlink">
 <metadata>
  <rdf:RDF xmlns:cc="http://creativecommons.org/ns#" xmlns:dc="http://purl.org/dc/elements/1.1/" xmlns:rdf="http://www.w3.org/1999/02/22-rdf-syntax-ns#">
   <cc:Work>
    <dc:type rdf:resource="http://purl.org/dc/dcmitype/StillImage"/>
    <dc:date>2021-11-23T17:33:20.111848</dc:date>
    <dc:format>image/svg+xml</dc:format>
    <dc:creator>
     <cc:Agent>
      <dc:title>Matplotlib v3.4.3, https://matplotlib.org/</dc:title>
     </cc:Agent>
    </dc:creator>
   </cc:Work>
  </rdf:RDF>
 </metadata>
 <defs>
  <style type="text/css">*{stroke-linecap:butt;stroke-linejoin:round;}</style>
 </defs>
 <g id="figure_1">
  <g id="patch_1">
   <path d="M 0 460.8 
L 460.8 460.8 
L 460.8 0 
L 0 0 
z
" style="fill:#ffffff;"/>
  </g>
  <g id="axes_1">
   <g id="patch_2">
    <path d="M 80.59 113.478333 
L 445.379619 113.478333 
L 445.379619 22.969412 
L 80.59 22.969412 
z
" style="fill:#ffffff;"/>
   </g>
   <g id="matplotlib.axis_1">
    <g id="xtick_1">
     <g id="line2d_1">
      <defs>
       <path d="M 0 0 
L 0 3.5 
" id="mac1e413f5d" style="stroke:#000000;stroke-width:0.8;"/>
      </defs>
      <g>
       <use style="stroke:#000000;stroke-width:0.8;" x="80.59" xlink:href="#mac1e413f5d" y="113.478333"/>
      </g>
     </g>
     <g id="text_1">
      <!-- 0 -->
      <g transform="translate(77.40875 128.076771)scale(0.1 -0.1)">
       <defs>
        <path d="M 2034 4250 
Q 1547 4250 1301 3770 
Q 1056 3291 1056 2328 
Q 1056 1369 1301 889 
Q 1547 409 2034 409 
Q 2525 409 2770 889 
Q 3016 1369 3016 2328 
Q 3016 3291 2770 3770 
Q 2525 4250 2034 4250 
z
M 2034 4750 
Q 2819 4750 3233 4129 
Q 3647 3509 3647 2328 
Q 3647 1150 3233 529 
Q 2819 -91 2034 -91 
Q 1250 -91 836 529 
Q 422 1150 422 2328 
Q 422 3509 836 4129 
Q 1250 4750 2034 4750 
z
" id="DejaVuSans-30" transform="scale(0.015625)"/>
       </defs>
       <use xlink:href="#DejaVuSans-30"/>
      </g>
     </g>
    </g>
    <g id="xtick_2">
     <g id="line2d_2">
      <g>
       <use style="stroke:#000000;stroke-width:0.8;" x="137.588378" xlink:href="#mac1e413f5d" y="113.478333"/>
      </g>
     </g>
     <g id="text_2">
      <!-- 5 -->
      <g transform="translate(134.407128 128.076771)scale(0.1 -0.1)">
       <defs>
        <path d="M 691 4666 
L 3169 4666 
L 3169 4134 
L 1269 4134 
L 1269 2991 
Q 1406 3038 1543 3061 
Q 1681 3084 1819 3084 
Q 2600 3084 3056 2656 
Q 3513 2228 3513 1497 
Q 3513 744 3044 326 
Q 2575 -91 1722 -91 
Q 1428 -91 1123 -41 
Q 819 9 494 109 
L 494 744 
Q 775 591 1075 516 
Q 1375 441 1709 441 
Q 2250 441 2565 725 
Q 2881 1009 2881 1497 
Q 2881 1984 2565 2268 
Q 2250 2553 1709 2553 
Q 1456 2553 1204 2497 
Q 953 2441 691 2322 
L 691 4666 
z
" id="DejaVuSans-35" transform="scale(0.015625)"/>
       </defs>
       <use xlink:href="#DejaVuSans-35"/>
      </g>
     </g>
    </g>
    <g id="xtick_3">
     <g id="line2d_3">
      <g>
       <use style="stroke:#000000;stroke-width:0.8;" x="194.586756" xlink:href="#mac1e413f5d" y="113.478333"/>
      </g>
     </g>
     <g id="text_3">
      <!-- 10 -->
      <g transform="translate(188.224256 128.076771)scale(0.1 -0.1)">
       <defs>
        <path d="M 794 531 
L 1825 531 
L 1825 4091 
L 703 3866 
L 703 4441 
L 1819 4666 
L 2450 4666 
L 2450 531 
L 3481 531 
L 3481 0 
L 794 0 
L 794 531 
z
" id="DejaVuSans-31" transform="scale(0.015625)"/>
       </defs>
       <use xlink:href="#DejaVuSans-31"/>
       <use x="63.623047" xlink:href="#DejaVuSans-30"/>
      </g>
     </g>
    </g>
    <g id="xtick_4">
     <g id="line2d_4">
      <g>
       <use style="stroke:#000000;stroke-width:0.8;" x="251.585134" xlink:href="#mac1e413f5d" y="113.478333"/>
      </g>
     </g>
     <g id="text_4">
      <!-- 15 -->
      <g transform="translate(245.222634 128.076771)scale(0.1 -0.1)">
       <use xlink:href="#DejaVuSans-31"/>
       <use x="63.623047" xlink:href="#DejaVuSans-35"/>
      </g>
     </g>
    </g>
    <g id="xtick_5">
     <g id="line2d_5">
      <g>
       <use style="stroke:#000000;stroke-width:0.8;" x="308.583512" xlink:href="#mac1e413f5d" y="113.478333"/>
      </g>
     </g>
     <g id="text_5">
      <!-- 20 -->
      <g transform="translate(302.221012 128.076771)scale(0.1 -0.1)">
       <defs>
        <path d="M 1228 531 
L 3431 531 
L 3431 0 
L 469 0 
L 469 531 
Q 828 903 1448 1529 
Q 2069 2156 2228 2338 
Q 2531 2678 2651 2914 
Q 2772 3150 2772 3378 
Q 2772 3750 2511 3984 
Q 2250 4219 1831 4219 
Q 1534 4219 1204 4116 
Q 875 4013 500 3803 
L 500 4441 
Q 881 4594 1212 4672 
Q 1544 4750 1819 4750 
Q 2544 4750 2975 4387 
Q 3406 4025 3406 3419 
Q 3406 3131 3298 2873 
Q 3191 2616 2906 2266 
Q 2828 2175 2409 1742 
Q 1991 1309 1228 531 
z
" id="DejaVuSans-32" transform="scale(0.015625)"/>
       </defs>
       <use xlink:href="#DejaVuSans-32"/>
       <use x="63.623047" xlink:href="#DejaVuSans-30"/>
      </g>
     </g>
    </g>
    <g id="xtick_6">
     <g id="line2d_6">
      <g>
       <use style="stroke:#000000;stroke-width:0.8;" x="365.58189" xlink:href="#mac1e413f5d" y="113.478333"/>
      </g>
     </g>
     <g id="text_6">
      <!-- 25 -->
      <g transform="translate(359.21939 128.076771)scale(0.1 -0.1)">
       <use xlink:href="#DejaVuSans-32"/>
       <use x="63.623047" xlink:href="#DejaVuSans-35"/>
      </g>
     </g>
    </g>
    <g id="xtick_7">
     <g id="line2d_7">
      <g>
       <use style="stroke:#000000;stroke-width:0.8;" x="422.580268" xlink:href="#mac1e413f5d" y="113.478333"/>
      </g>
     </g>
     <g id="text_7">
      <!-- 30 -->
      <g transform="translate(416.217768 128.076771)scale(0.1 -0.1)">
       <defs>
        <path d="M 2597 2516 
Q 3050 2419 3304 2112 
Q 3559 1806 3559 1356 
Q 3559 666 3084 287 
Q 2609 -91 1734 -91 
Q 1441 -91 1130 -33 
Q 819 25 488 141 
L 488 750 
Q 750 597 1062 519 
Q 1375 441 1716 441 
Q 2309 441 2620 675 
Q 2931 909 2931 1356 
Q 2931 1769 2642 2001 
Q 2353 2234 1838 2234 
L 1294 2234 
L 1294 2753 
L 1863 2753 
Q 2328 2753 2575 2939 
Q 2822 3125 2822 3475 
Q 2822 3834 2567 4026 
Q 2313 4219 1838 4219 
Q 1578 4219 1281 4162 
Q 984 4106 628 3988 
L 628 4550 
Q 988 4650 1302 4700 
Q 1616 4750 1894 4750 
Q 2613 4750 3031 4423 
Q 3450 4097 3450 3541 
Q 3450 3153 3228 2886 
Q 3006 2619 2597 2516 
z
" id="DejaVuSans-33" transform="scale(0.015625)"/>
       </defs>
       <use xlink:href="#DejaVuSans-33"/>
       <use x="63.623047" xlink:href="#DejaVuSans-30"/>
      </g>
     </g>
    </g>
    <g id="text_8">
     <!-- Orbit position $s$ / m -->
     <g transform="translate(215.13481 141.756458)scale(0.1 -0.1)">
      <defs>
       <path d="M 2522 4238 
Q 1834 4238 1429 3725 
Q 1025 3213 1025 2328 
Q 1025 1447 1429 934 
Q 1834 422 2522 422 
Q 3209 422 3611 934 
Q 4013 1447 4013 2328 
Q 4013 3213 3611 3725 
Q 3209 4238 2522 4238 
z
M 2522 4750 
Q 3503 4750 4090 4092 
Q 4678 3434 4678 2328 
Q 4678 1225 4090 567 
Q 3503 -91 2522 -91 
Q 1538 -91 948 565 
Q 359 1222 359 2328 
Q 359 3434 948 4092 
Q 1538 4750 2522 4750 
z
" id="DejaVuSans-4f" transform="scale(0.015625)"/>
       <path d="M 2631 2963 
Q 2534 3019 2420 3045 
Q 2306 3072 2169 3072 
Q 1681 3072 1420 2755 
Q 1159 2438 1159 1844 
L 1159 0 
L 581 0 
L 581 3500 
L 1159 3500 
L 1159 2956 
Q 1341 3275 1631 3429 
Q 1922 3584 2338 3584 
Q 2397 3584 2469 3576 
Q 2541 3569 2628 3553 
L 2631 2963 
z
" id="DejaVuSans-72" transform="scale(0.015625)"/>
       <path d="M 3116 1747 
Q 3116 2381 2855 2742 
Q 2594 3103 2138 3103 
Q 1681 3103 1420 2742 
Q 1159 2381 1159 1747 
Q 1159 1113 1420 752 
Q 1681 391 2138 391 
Q 2594 391 2855 752 
Q 3116 1113 3116 1747 
z
M 1159 2969 
Q 1341 3281 1617 3432 
Q 1894 3584 2278 3584 
Q 2916 3584 3314 3078 
Q 3713 2572 3713 1747 
Q 3713 922 3314 415 
Q 2916 -91 2278 -91 
Q 1894 -91 1617 61 
Q 1341 213 1159 525 
L 1159 0 
L 581 0 
L 581 4863 
L 1159 4863 
L 1159 2969 
z
" id="DejaVuSans-62" transform="scale(0.015625)"/>
       <path d="M 603 3500 
L 1178 3500 
L 1178 0 
L 603 0 
L 603 3500 
z
M 603 4863 
L 1178 4863 
L 1178 4134 
L 603 4134 
L 603 4863 
z
" id="DejaVuSans-69" transform="scale(0.015625)"/>
       <path d="M 1172 4494 
L 1172 3500 
L 2356 3500 
L 2356 3053 
L 1172 3053 
L 1172 1153 
Q 1172 725 1289 603 
Q 1406 481 1766 481 
L 2356 481 
L 2356 0 
L 1766 0 
Q 1100 0 847 248 
Q 594 497 594 1153 
L 594 3053 
L 172 3053 
L 172 3500 
L 594 3500 
L 594 4494 
L 1172 4494 
z
" id="DejaVuSans-74" transform="scale(0.015625)"/>
       <path id="DejaVuSans-20" transform="scale(0.015625)"/>
       <path d="M 1159 525 
L 1159 -1331 
L 581 -1331 
L 581 3500 
L 1159 3500 
L 1159 2969 
Q 1341 3281 1617 3432 
Q 1894 3584 2278 3584 
Q 2916 3584 3314 3078 
Q 3713 2572 3713 1747 
Q 3713 922 3314 415 
Q 2916 -91 2278 -91 
Q 1894 -91 1617 61 
Q 1341 213 1159 525 
z
M 3116 1747 
Q 3116 2381 2855 2742 
Q 2594 3103 2138 3103 
Q 1681 3103 1420 2742 
Q 1159 2381 1159 1747 
Q 1159 1113 1420 752 
Q 1681 391 2138 391 
Q 2594 391 2855 752 
Q 3116 1113 3116 1747 
z
" id="DejaVuSans-70" transform="scale(0.015625)"/>
       <path d="M 1959 3097 
Q 1497 3097 1228 2736 
Q 959 2375 959 1747 
Q 959 1119 1226 758 
Q 1494 397 1959 397 
Q 2419 397 2687 759 
Q 2956 1122 2956 1747 
Q 2956 2369 2687 2733 
Q 2419 3097 1959 3097 
z
M 1959 3584 
Q 2709 3584 3137 3096 
Q 3566 2609 3566 1747 
Q 3566 888 3137 398 
Q 2709 -91 1959 -91 
Q 1206 -91 779 398 
Q 353 888 353 1747 
Q 353 2609 779 3096 
Q 1206 3584 1959 3584 
z
" id="DejaVuSans-6f" transform="scale(0.015625)"/>
       <path d="M 2834 3397 
L 2834 2853 
Q 2591 2978 2328 3040 
Q 2066 3103 1784 3103 
Q 1356 3103 1142 2972 
Q 928 2841 928 2578 
Q 928 2378 1081 2264 
Q 1234 2150 1697 2047 
L 1894 2003 
Q 2506 1872 2764 1633 
Q 3022 1394 3022 966 
Q 3022 478 2636 193 
Q 2250 -91 1575 -91 
Q 1294 -91 989 -36 
Q 684 19 347 128 
L 347 722 
Q 666 556 975 473 
Q 1284 391 1588 391 
Q 1994 391 2212 530 
Q 2431 669 2431 922 
Q 2431 1156 2273 1281 
Q 2116 1406 1581 1522 
L 1381 1569 
Q 847 1681 609 1914 
Q 372 2147 372 2553 
Q 372 3047 722 3315 
Q 1072 3584 1716 3584 
Q 2034 3584 2315 3537 
Q 2597 3491 2834 3397 
z
" id="DejaVuSans-73" transform="scale(0.015625)"/>
       <path d="M 3513 2113 
L 3513 0 
L 2938 0 
L 2938 2094 
Q 2938 2591 2744 2837 
Q 2550 3084 2163 3084 
Q 1697 3084 1428 2787 
Q 1159 2491 1159 1978 
L 1159 0 
L 581 0 
L 581 3500 
L 1159 3500 
L 1159 2956 
Q 1366 3272 1645 3428 
Q 1925 3584 2291 3584 
Q 2894 3584 3203 3211 
Q 3513 2838 3513 2113 
z
" id="DejaVuSans-6e" transform="scale(0.015625)"/>
       <path d="M 3200 3397 
L 3091 2853 
Q 2863 2978 2609 3040 
Q 2356 3103 2088 3103 
Q 1634 3103 1373 2948 
Q 1113 2794 1113 2528 
Q 1113 2219 1719 2053 
Q 1766 2041 1788 2034 
L 1972 1978 
Q 2547 1819 2739 1644 
Q 2931 1469 2931 1166 
Q 2931 609 2489 259 
Q 2047 -91 1331 -91 
Q 1053 -91 747 -37 
Q 441 16 72 128 
L 184 722 
Q 500 559 806 475 
Q 1113 391 1394 391 
Q 1816 391 2080 572 
Q 2344 753 2344 1031 
Q 2344 1331 1650 1516 
L 1591 1531 
L 1394 1581 
Q 956 1697 753 1886 
Q 550 2075 550 2369 
Q 550 2928 970 3256 
Q 1391 3584 2113 3584 
Q 2397 3584 2667 3537 
Q 2938 3491 3200 3397 
z
" id="DejaVuSans-Oblique-73" transform="scale(0.015625)"/>
       <path d="M 1625 4666 
L 2156 4666 
L 531 -594 
L 0 -594 
L 1625 4666 
z
" id="DejaVuSans-2f" transform="scale(0.015625)"/>
       <path d="M 3328 2828 
Q 3544 3216 3844 3400 
Q 4144 3584 4550 3584 
Q 5097 3584 5394 3201 
Q 5691 2819 5691 2113 
L 5691 0 
L 5113 0 
L 5113 2094 
Q 5113 2597 4934 2840 
Q 4756 3084 4391 3084 
Q 3944 3084 3684 2787 
Q 3425 2491 3425 1978 
L 3425 0 
L 2847 0 
L 2847 2094 
Q 2847 2600 2669 2842 
Q 2491 3084 2119 3084 
Q 1678 3084 1418 2786 
Q 1159 2488 1159 1978 
L 1159 0 
L 581 0 
L 581 3500 
L 1159 3500 
L 1159 2956 
Q 1356 3278 1631 3431 
Q 1906 3584 2284 3584 
Q 2666 3584 2933 3390 
Q 3200 3197 3328 2828 
z
" id="DejaVuSans-6d" transform="scale(0.015625)"/>
      </defs>
      <use transform="translate(0 0.015625)" xlink:href="#DejaVuSans-4f"/>
      <use transform="translate(78.710938 0.015625)" xlink:href="#DejaVuSans-72"/>
      <use transform="translate(119.824219 0.015625)" xlink:href="#DejaVuSans-62"/>
      <use transform="translate(183.300781 0.015625)" xlink:href="#DejaVuSans-69"/>
      <use transform="translate(211.083984 0.015625)" xlink:href="#DejaVuSans-74"/>
      <use transform="translate(250.292969 0.015625)" xlink:href="#DejaVuSans-20"/>
      <use transform="translate(282.080078 0.015625)" xlink:href="#DejaVuSans-70"/>
      <use transform="translate(345.556641 0.015625)" xlink:href="#DejaVuSans-6f"/>
      <use transform="translate(406.738281 0.015625)" xlink:href="#DejaVuSans-73"/>
      <use transform="translate(458.837891 0.015625)" xlink:href="#DejaVuSans-69"/>
      <use transform="translate(486.621094 0.015625)" xlink:href="#DejaVuSans-74"/>
      <use transform="translate(525.830078 0.015625)" xlink:href="#DejaVuSans-69"/>
      <use transform="translate(553.613281 0.015625)" xlink:href="#DejaVuSans-6f"/>
      <use transform="translate(614.794922 0.015625)" xlink:href="#DejaVuSans-6e"/>
      <use transform="translate(678.173828 0.015625)" xlink:href="#DejaVuSans-20"/>
      <use transform="translate(709.960938 0.015625)" xlink:href="#DejaVuSans-Oblique-73"/>
      <use transform="translate(762.060547 0.015625)" xlink:href="#DejaVuSans-20"/>
      <use transform="translate(793.847656 0.015625)" xlink:href="#DejaVuSans-2f"/>
      <use transform="translate(827.539062 0.015625)" xlink:href="#DejaVuSans-20"/>
      <use transform="translate(859.326172 0.015625)" xlink:href="#DejaVuSans-6d"/>
     </g>
    </g>
   </g>
   <g id="matplotlib.axis_2">
    <g id="ytick_1">
     <g id="line2d_8">
      <defs>
       <path d="M 0 0 
L -3.5 0 
" id="m76fb293e97" style="stroke:#000000;stroke-width:0.8;"/>
      </defs>
      <g>
       <use style="stroke:#000000;stroke-width:0.8;" x="80.59" xlink:href="#m76fb293e97" y="109.560198"/>
      </g>
     </g>
     <g id="text_9">
      <!-- −0.001 -->
      <g transform="translate(36.582188 113.359417)scale(0.1 -0.1)">
       <defs>
        <path d="M 678 2272 
L 4684 2272 
L 4684 1741 
L 678 1741 
L 678 2272 
z
" id="DejaVuSans-2212" transform="scale(0.015625)"/>
        <path d="M 684 794 
L 1344 794 
L 1344 0 
L 684 0 
L 684 794 
z
" id="DejaVuSans-2e" transform="scale(0.015625)"/>
       </defs>
       <use xlink:href="#DejaVuSans-2212"/>
       <use x="83.789062" xlink:href="#DejaVuSans-30"/>
       <use x="147.412109" xlink:href="#DejaVuSans-2e"/>
       <use x="179.199219" xlink:href="#DejaVuSans-30"/>
       <use x="242.822266" xlink:href="#DejaVuSans-30"/>
       <use x="306.445312" xlink:href="#DejaVuSans-31"/>
      </g>
     </g>
    </g>
    <g id="ytick_2">
     <g id="line2d_9">
      <g>
       <use style="stroke:#000000;stroke-width:0.8;" x="80.59" xlink:href="#m76fb293e97" y="70.378847"/>
      </g>
     </g>
     <g id="text_10">
      <!-- 0.000 -->
      <g transform="translate(44.961875 74.178066)scale(0.1 -0.1)">
       <use xlink:href="#DejaVuSans-30"/>
       <use x="63.623047" xlink:href="#DejaVuSans-2e"/>
       <use x="95.410156" xlink:href="#DejaVuSans-30"/>
       <use x="159.033203" xlink:href="#DejaVuSans-30"/>
       <use x="222.65625" xlink:href="#DejaVuSans-30"/>
      </g>
     </g>
    </g>
    <g id="ytick_3">
     <g id="line2d_10">
      <g>
       <use style="stroke:#000000;stroke-width:0.8;" x="80.59" xlink:href="#m76fb293e97" y="31.197496"/>
      </g>
     </g>
     <g id="text_11">
      <!-- 0.001 -->
      <g transform="translate(44.961875 34.996714)scale(0.1 -0.1)">
       <use xlink:href="#DejaVuSans-30"/>
       <use x="63.623047" xlink:href="#DejaVuSans-2e"/>
       <use x="95.410156" xlink:href="#DejaVuSans-30"/>
       <use x="159.033203" xlink:href="#DejaVuSans-30"/>
       <use x="222.65625" xlink:href="#DejaVuSans-31"/>
      </g>
     </g>
    </g>
    <g id="text_12">
     <!-- $x(s)$ / m -->
     <g transform="translate(30.5025 87.423873)rotate(-90)scale(0.1 -0.1)">
      <defs>
       <path d="M 3841 3500 
L 2234 1784 
L 3219 0 
L 2559 0 
L 1819 1388 
L 531 0 
L -166 0 
L 1556 1844 
L 641 3500 
L 1300 3500 
L 1972 2234 
L 3144 3500 
L 3841 3500 
z
" id="DejaVuSans-Oblique-78" transform="scale(0.015625)"/>
       <path d="M 1984 4856 
Q 1566 4138 1362 3434 
Q 1159 2731 1159 2009 
Q 1159 1288 1364 580 
Q 1569 -128 1984 -844 
L 1484 -844 
Q 1016 -109 783 600 
Q 550 1309 550 2009 
Q 550 2706 781 3412 
Q 1013 4119 1484 4856 
L 1984 4856 
z
" id="DejaVuSans-28" transform="scale(0.015625)"/>
       <path d="M 513 4856 
L 1013 4856 
Q 1481 4119 1714 3412 
Q 1947 2706 1947 2009 
Q 1947 1309 1714 600 
Q 1481 -109 1013 -844 
L 513 -844 
Q 928 -128 1133 580 
Q 1338 1288 1338 2009 
Q 1338 2731 1133 3434 
Q 928 4138 513 4856 
z
" id="DejaVuSans-29" transform="scale(0.015625)"/>
      </defs>
      <use transform="translate(0 0.125)" xlink:href="#DejaVuSans-Oblique-78"/>
      <use transform="translate(59.179688 0.125)" xlink:href="#DejaVuSans-28"/>
      <use transform="translate(98.193359 0.125)" xlink:href="#DejaVuSans-Oblique-73"/>
      <use transform="translate(150.292969 0.125)" xlink:href="#DejaVuSans-29"/>
      <use transform="translate(189.306641 0.125)" xlink:href="#DejaVuSans-20"/>
      <use transform="translate(221.09375 0.125)" xlink:href="#DejaVuSans-2f"/>
      <use transform="translate(254.785156 0.125)" xlink:href="#DejaVuSans-20"/>
      <use transform="translate(286.572266 0.125)" xlink:href="#DejaVuSans-6d"/>
     </g>
    </g>
   </g>
   <g id="line2d_11">
    <path clip-path="url(#p8adfdb28fd)" d="M 80.59 31.197496 
L 81.444976 31.285062 
L 82.299951 31.547358 
L 83.439919 32.166696 
L 94.839595 39.753475 
L 110.229157 49.117549 
L 114.219043 51.316015 
L 118.778913 53.522916 
L 122.198816 54.922255 
L 124.478751 55.637829 
L 125.618719 55.793013 
L 126.758686 55.793013 
L 127.898654 55.637829 
L 129.038621 55.327411 
L 132.458524 54.017472 
L 135.878427 52.461106 
L 140.438297 50.101747 
L 147.278102 46.061518 
L 158.677778 39.009468 
L 170.362445 31.440569 
L 171.217421 31.236422 
L 172.072397 31.207228 
L 172.927372 31.353122 
L 174.06734 31.818734 
L 174.637324 32.166696 
L 186.036999 39.753475 
L 201.426561 49.117549 
L 205.416448 51.316015 
L 209.976318 53.522916 
L 213.396221 54.922255 
L 215.676156 55.637829 
L 216.816123 55.793013 
L 217.956091 55.793013 
L 219.096059 55.637829 
L 220.236026 55.327411 
L 223.655929 54.017472 
L 227.075832 52.461106 
L 231.635702 50.101747 
L 238.475507 46.061518 
L 249.875183 39.009468 
L 261.55985 31.440569 
L 262.414826 31.236422 
L 263.269802 31.207228 
L 264.124777 31.353122 
L 265.264745 31.818734 
L 265.834729 32.166696 
L 277.234404 39.753475 
L 292.623966 49.117549 
L 296.613853 51.316015 
L 301.173723 53.522916 
L 304.593626 54.922255 
L 306.873561 55.637829 
L 308.013528 55.793013 
L 309.153496 55.793013 
L 310.293463 55.637829 
L 311.433431 55.327411 
L 314.853334 54.017472 
L 318.273236 52.461106 
L 322.833107 50.101747 
L 329.672912 46.061518 
L 341.072588 39.009468 
L 352.757255 31.440569 
L 353.612231 31.236422 
L 354.467206 31.207228 
L 355.322182 31.353122 
L 356.46215 31.818734 
L 357.032133 32.166696 
L 368.431809 39.753475 
L 383.821371 49.117549 
L 387.811258 51.316015 
L 392.371128 53.522916 
L 395.791031 54.922255 
L 398.070966 55.637829 
L 399.210933 55.793013 
L 400.350901 55.793013 
L 401.490868 55.637829 
L 402.630836 55.327411 
L 406.050739 54.017472 
L 409.470641 52.461106 
L 414.030511 50.101747 
L 420.870317 46.061518 
L 432.269992 39.009468 
L 443.95466 31.440569 
L 444.809636 31.236422 
L 445.379619 31.197496 
L 445.379619 31.197496 
" style="fill:none;stroke:#000000;stroke-dasharray:5.55,2.4;stroke-dashoffset:0;stroke-width:1.5;"/>
   </g>
   <g id="line2d_12">
    <path clip-path="url(#p8adfdb28fd)" d="M 80.59 109.560198 
L 81.444976 109.472632 
L 82.299951 109.210335 
L 83.439919 108.590997 
L 94.839595 101.004219 
L 110.229157 91.640145 
L 114.219043 89.441678 
L 118.778913 87.234778 
L 122.198816 85.835439 
L 124.478751 85.119864 
L 125.618719 84.964681 
L 126.758686 84.964681 
L 127.898654 85.119864 
L 129.038621 85.430283 
L 132.458524 86.740222 
L 135.878427 88.296588 
L 140.438297 90.655947 
L 147.278102 94.696176 
L 158.677778 101.748225 
L 170.362445 109.317124 
L 171.217421 109.521272 
L 172.072397 109.550465 
L 172.927372 109.404572 
L 174.06734 108.93896 
L 174.637324 108.590997 
L 186.036999 101.004219 
L 201.426561 91.640145 
L 205.416448 89.441678 
L 209.976318 87.234778 
L 213.396221 85.835439 
L 215.676156 85.119864 
L 216.816123 84.964681 
L 217.956091 84.964681 
L 219.096059 85.119864 
L 220.236026 85.430283 
L 223.655929 86.740222 
L 227.075832 88.296588 
L 231.635702 90.655947 
L 238.475507 94.696176 
L 249.875183 101.748225 
L 261.55985 109.317124 
L 262.414826 109.521272 
L 263.269802 109.550465 
L 264.124777 109.404572 
L 265.264745 108.93896 
L 265.834729 108.590997 
L 277.234404 101.004219 
L 292.623966 91.640145 
L 296.613853 89.441678 
L 301.173723 87.234778 
L 304.593626 85.835439 
L 306.873561 85.119864 
L 308.013528 84.964681 
L 309.153496 84.964681 
L 310.293463 85.119864 
L 311.433431 85.430283 
L 314.853334 86.740222 
L 318.273236 88.296588 
L 322.833107 90.655947 
L 329.672912 94.696176 
L 341.072588 101.748225 
L 352.757255 109.317124 
L 353.612231 109.521272 
L 354.467206 109.550465 
L 355.322182 109.404572 
L 356.46215 108.93896 
L 357.032133 108.590997 
L 368.431809 101.004219 
L 383.821371 91.640145 
L 387.811258 89.441678 
L 392.371128 87.234778 
L 395.791031 85.835439 
L 398.070966 85.119864 
L 399.210933 84.964681 
L 400.350901 84.964681 
L 401.490868 85.119864 
L 402.630836 85.430283 
L 406.050739 86.740222 
L 409.470641 88.296588 
L 414.030511 90.655947 
L 420.870317 94.696176 
L 432.269992 101.748225 
L 443.95466 109.317124 
L 444.809636 109.521272 
L 445.379619 109.560198 
L 445.379619 109.560198 
" style="fill:none;stroke:#000000;stroke-dasharray:5.55,2.4;stroke-dashoffset:0;stroke-width:1.5;"/>
   </g>
   <g id="line2d_13">
    <path clip-path="url(#p8adfdb28fd)" d="M 80.59 31.197496 
L 81.444976 31.285621 
L 82.299951 31.549599 
L 83.439919 32.172955 
L 99.969449 43.31539 
L 108.519205 49.136922 
L 121.058848 57.742931 
L 125.048735 60.366442 
L 127.32867 61.514245 
L 129.038621 62.186781 
L 170.932429 76.700181 
L 173.212364 77.223235 
L 175.777291 77.578418 
L 216.24614 82.58702 
L 217.956091 83.122553 
L 219.666042 83.887817 
L 224.795896 86.773118 
L 260.704875 106.967829 
L 261.844842 107.319323 
L 262.98481 107.375489 
L 264.124777 107.13588 
L 265.264745 106.602411 
L 266.974696 105.403381 
L 284.07421 93.186635 
L 297.75382 83.252424 
L 308.013528 75.947642 
L 310.863447 74.266917 
L 331.382863 63.22299 
L 352.757255 51.904714 
L 354.182215 51.48192 
L 355.607174 51.295092 
L 357.032133 51.346562 
L 398.070966 56.191328 
L 399.780917 56.097722 
L 401.490868 55.746669 
L 402.630836 55.366677 
L 443.384676 39.765544 
L 444.524644 39.631729 
L 445.379619 39.692697 
L 445.379619 39.692697 
" style="fill:none;stroke:#1f77b4;stroke-linecap:square;stroke-width:1.5;"/>
   </g>
   <g id="patch_3">
    <path d="M 80.59 113.478333 
L 80.59 22.969412 
" style="fill:none;stroke:#000000;stroke-linecap:square;stroke-linejoin:miter;stroke-width:0.8;"/>
   </g>
   <g id="patch_4">
    <path d="M 445.379619 113.478333 
L 445.379619 22.969412 
" style="fill:none;stroke:#000000;stroke-linecap:square;stroke-linejoin:miter;stroke-width:0.8;"/>
   </g>
   <g id="patch_5">
    <path d="M 80.59 113.478333 
L 445.379619 113.478333 
" style="fill:none;stroke:#000000;stroke-linecap:square;stroke-linejoin:miter;stroke-width:0.8;"/>
   </g>
   <g id="patch_6">
    <path d="M 80.59 22.969412 
L 445.379619 22.969412 
" style="fill:none;stroke:#000000;stroke-linecap:square;stroke-linejoin:miter;stroke-width:0.8;"/>
   </g>
   <g id="patch_7">
    <path d="M 80.59 25.124386 
L 83.439919 25.124386 
L 83.439919 20.814437 
L 80.59 20.814437 
z
" style="fill:#ef4444;"/>
   </g>
   <g id="patch_8">
    <path d="M 94.839595 25.124386 
L 111.939108 25.124386 
L 111.939108 20.814437 
L 94.839595 20.814437 
z
" style="fill:#fbbf24;"/>
   </g>
   <g id="patch_9">
    <path d="M 123.338784 25.124386 
L 129.038621 25.124386 
L 129.038621 20.814437 
L 123.338784 20.814437 
z
" style="fill:#ef4444;"/>
   </g>
   <g id="patch_10">
    <path d="M 140.438297 25.124386 
L 157.53781 25.124386 
L 157.53781 20.814437 
L 140.438297 20.814437 
z
" style="fill:#fbbf24;"/>
   </g>
   <g id="patch_11">
    <path d="M 168.937486 25.124386 
L 174.637324 25.124386 
L 174.637324 20.814437 
L 168.937486 20.814437 
z
" style="fill:#ef4444;"/>
   </g>
   <g id="patch_12">
    <path d="M 186.036999 25.124386 
L 203.136513 25.124386 
L 203.136513 20.814437 
L 186.036999 20.814437 
z
" style="fill:#fbbf24;"/>
   </g>
   <g id="patch_13">
    <path d="M 214.536188 25.124386 
L 220.236026 25.124386 
L 220.236026 20.814437 
L 214.536188 20.814437 
z
" style="fill:#ef4444;"/>
   </g>
   <g id="patch_14">
    <path d="M 231.635702 25.124386 
L 248.735215 25.124386 
L 248.735215 20.814437 
L 231.635702 20.814437 
z
" style="fill:#fbbf24;"/>
   </g>
   <g id="patch_15">
    <path d="M 260.134891 25.124386 
L 265.834729 25.124386 
L 265.834729 20.814437 
L 260.134891 20.814437 
z
" style="fill:#ef4444;"/>
   </g>
   <g id="patch_16">
    <path d="M 277.234404 25.124386 
L 294.333918 25.124386 
L 294.333918 20.814437 
L 277.234404 20.814437 
z
" style="fill:#fbbf24;"/>
   </g>
   <g id="patch_17">
    <path d="M 305.733593 25.124386 
L 311.433431 25.124386 
L 311.433431 20.814437 
L 305.733593 20.814437 
z
" style="fill:#ef4444;"/>
   </g>
   <g id="patch_18">
    <path d="M 322.833107 25.124386 
L 339.93262 25.124386 
L 339.93262 20.814437 
L 322.833107 20.814437 
z
" style="fill:#fbbf24;"/>
   </g>
   <g id="patch_19">
    <path d="M 351.332296 25.124386 
L 357.032133 25.124386 
L 357.032133 20.814437 
L 351.332296 20.814437 
z
" style="fill:#ef4444;"/>
   </g>
   <g id="patch_20">
    <path d="M 368.431809 25.124386 
L 385.531322 25.124386 
L 385.531322 20.814437 
L 368.431809 20.814437 
z
" style="fill:#fbbf24;"/>
   </g>
   <g id="patch_21">
    <path d="M 396.930998 25.124386 
L 402.630836 25.124386 
L 402.630836 20.814437 
L 396.930998 20.814437 
z
" style="fill:#ef4444;"/>
   </g>
   <g id="patch_22">
    <path d="M 414.030511 25.124386 
L 431.130025 25.124386 
L 431.130025 20.814437 
L 414.030511 20.814437 
z
" style="fill:#fbbf24;"/>
   </g>
   <g id="patch_23">
    <path d="M 442.5297 25.124386 
L 445.379619 25.124386 
L 445.379619 20.814437 
L 442.5297 20.814437 
z
" style="fill:#ef4444;"/>
   </g>
   <g id="text_13">
    <!-- q1 -->
    <g transform="translate(76.930584 16.995713)scale(0.08 -0.08)">
     <defs>
      <path d="M 947 1747 
Q 947 1113 1208 752 
Q 1469 391 1925 391 
Q 2381 391 2643 752 
Q 2906 1113 2906 1747 
Q 2906 2381 2643 2742 
Q 2381 3103 1925 3103 
Q 1469 3103 1208 2742 
Q 947 2381 947 1747 
z
M 2906 525 
Q 2725 213 2448 61 
Q 2172 -91 1784 -91 
Q 1150 -91 751 415 
Q 353 922 353 1747 
Q 353 2572 751 3078 
Q 1150 3584 1784 3584 
Q 2172 3584 2448 3432 
Q 2725 3281 2906 2969 
L 2906 3500 
L 3481 3500 
L 3481 -1331 
L 2906 -1331 
L 2906 525 
z
" id="DejaVuSans-71" transform="scale(0.015625)"/>
     </defs>
     <use xlink:href="#DejaVuSans-71"/>
     <use x="63.476562" xlink:href="#DejaVuSans-31"/>
    </g>
   </g>
   <g id="text_14">
    <!-- b1 -->
    <g transform="translate(98.304976 33.35811)scale(0.08 -0.08)">
     <use xlink:href="#DejaVuSans-62"/>
     <use x="63.476562" xlink:href="#DejaVuSans-31"/>
    </g>
   </g>
   <g id="text_15">
    <!-- q2 -->
    <g transform="translate(121.104327 16.995713)scale(0.08 -0.08)">
     <use xlink:href="#DejaVuSans-71"/>
     <use x="63.476562" xlink:href="#DejaVuSans-32"/>
    </g>
   </g>
   <g id="text_16">
    <!-- b1 -->
    <g transform="translate(143.903679 33.35811)scale(0.08 -0.08)">
     <use xlink:href="#DejaVuSans-62"/>
     <use x="63.476562" xlink:href="#DejaVuSans-31"/>
    </g>
   </g>
   <g id="text_17">
    <!-- q1 -->
    <g transform="translate(166.70303 16.995713)scale(0.08 -0.08)">
     <use xlink:href="#DejaVuSans-71"/>
     <use x="63.476562" xlink:href="#DejaVuSans-31"/>
    </g>
   </g>
   <g id="text_18">
    <!-- b1 -->
    <g transform="translate(189.502381 33.35811)scale(0.08 -0.08)">
     <use xlink:href="#DejaVuSans-62"/>
     <use x="63.476562" xlink:href="#DejaVuSans-31"/>
    </g>
   </g>
   <g id="text_19">
    <!-- q2 -->
    <g transform="translate(212.301732 16.995713)scale(0.08 -0.08)">
     <use xlink:href="#DejaVuSans-71"/>
     <use x="63.476562" xlink:href="#DejaVuSans-32"/>
    </g>
   </g>
   <g id="text_20">
    <!-- b1 -->
    <g transform="translate(235.101083 33.35811)scale(0.08 -0.08)">
     <use xlink:href="#DejaVuSans-62"/>
     <use x="63.476562" xlink:href="#DejaVuSans-31"/>
    </g>
   </g>
   <g id="text_21">
    <!-- q1 -->
    <g transform="translate(257.900435 16.995713)scale(0.08 -0.08)">
     <use xlink:href="#DejaVuSans-71"/>
     <use x="63.476562" xlink:href="#DejaVuSans-31"/>
    </g>
   </g>
   <g id="text_22">
    <!-- b1 -->
    <g transform="translate(280.699786 33.35811)scale(0.08 -0.08)">
     <use xlink:href="#DejaVuSans-62"/>
     <use x="63.476562" xlink:href="#DejaVuSans-31"/>
    </g>
   </g>
   <g id="text_23">
    <!-- q2 -->
    <g transform="translate(303.499137 16.995713)scale(0.08 -0.08)">
     <use xlink:href="#DejaVuSans-71"/>
     <use x="63.476562" xlink:href="#DejaVuSans-32"/>
    </g>
   </g>
   <g id="text_24">
    <!-- b1 -->
    <g transform="translate(326.298488 33.35811)scale(0.08 -0.08)">
     <use xlink:href="#DejaVuSans-62"/>
     <use x="63.476562" xlink:href="#DejaVuSans-31"/>
    </g>
   </g>
   <g id="text_25">
    <!-- q1 -->
    <g transform="translate(349.09784 16.995713)scale(0.08 -0.08)">
     <use xlink:href="#DejaVuSans-71"/>
     <use x="63.476562" xlink:href="#DejaVuSans-31"/>
    </g>
   </g>
   <g id="text_26">
    <!-- b1 -->
    <g transform="translate(371.897191 33.35811)scale(0.08 -0.08)">
     <use xlink:href="#DejaVuSans-62"/>
     <use x="63.476562" xlink:href="#DejaVuSans-31"/>
    </g>
   </g>
   <g id="text_27">
    <!-- q2 -->
    <g transform="translate(394.696542 16.995713)scale(0.08 -0.08)">
     <use xlink:href="#DejaVuSans-71"/>
     <use x="63.476562" xlink:href="#DejaVuSans-32"/>
    </g>
   </g>
   <g id="text_28">
    <!-- b1 -->
    <g transform="translate(417.495893 33.35811)scale(0.08 -0.08)">
     <use xlink:href="#DejaVuSans-62"/>
     <use x="63.476562" xlink:href="#DejaVuSans-31"/>
    </g>
   </g>
   <g id="text_29">
    <!-- q1 -->
    <g transform="translate(438.870285 16.995713)scale(0.08 -0.08)">
     <use xlink:href="#DejaVuSans-71"/>
     <use x="63.476562" xlink:href="#DejaVuSans-31"/>
    </g>
   </g>
  </g>
  <g id="axes_2">
   <g id="patch_24">
    <path d="M 80.59 260.996667 
L 445.379619 260.996667 
L 445.379619 170.487745 
L 80.59 170.487745 
z
" style="fill:#ffffff;"/>
   </g>
   <g id="matplotlib.axis_3">
    <g id="xtick_8">
     <g id="line2d_14">
      <g>
       <use style="stroke:#000000;stroke-width:0.8;" x="80.59" xlink:href="#mac1e413f5d" y="260.996667"/>
      </g>
     </g>
     <g id="text_30">
      <!-- 0 -->
      <g transform="translate(77.40875 275.595104)scale(0.1 -0.1)">
       <use xlink:href="#DejaVuSans-30"/>
      </g>
     </g>
    </g>
    <g id="xtick_9">
     <g id="line2d_15">
      <g>
       <use style="stroke:#000000;stroke-width:0.8;" x="137.588378" xlink:href="#mac1e413f5d" y="260.996667"/>
      </g>
     </g>
     <g id="text_31">
      <!-- 5 -->
      <g transform="translate(134.407128 275.595104)scale(0.1 -0.1)">
       <use xlink:href="#DejaVuSans-35"/>
      </g>
     </g>
    </g>
    <g id="xtick_10">
     <g id="line2d_16">
      <g>
       <use style="stroke:#000000;stroke-width:0.8;" x="194.586756" xlink:href="#mac1e413f5d" y="260.996667"/>
      </g>
     </g>
     <g id="text_32">
      <!-- 10 -->
      <g transform="translate(188.224256 275.595104)scale(0.1 -0.1)">
       <use xlink:href="#DejaVuSans-31"/>
       <use x="63.623047" xlink:href="#DejaVuSans-30"/>
      </g>
     </g>
    </g>
    <g id="xtick_11">
     <g id="line2d_17">
      <g>
       <use style="stroke:#000000;stroke-width:0.8;" x="251.585134" xlink:href="#mac1e413f5d" y="260.996667"/>
      </g>
     </g>
     <g id="text_33">
      <!-- 15 -->
      <g transform="translate(245.222634 275.595104)scale(0.1 -0.1)">
       <use xlink:href="#DejaVuSans-31"/>
       <use x="63.623047" xlink:href="#DejaVuSans-35"/>
      </g>
     </g>
    </g>
    <g id="xtick_12">
     <g id="line2d_18">
      <g>
       <use style="stroke:#000000;stroke-width:0.8;" x="308.583512" xlink:href="#mac1e413f5d" y="260.996667"/>
      </g>
     </g>
     <g id="text_34">
      <!-- 20 -->
      <g transform="translate(302.221012 275.595104)scale(0.1 -0.1)">
       <use xlink:href="#DejaVuSans-32"/>
       <use x="63.623047" xlink:href="#DejaVuSans-30"/>
      </g>
     </g>
    </g>
    <g id="xtick_13">
     <g id="line2d_19">
      <g>
       <use style="stroke:#000000;stroke-width:0.8;" x="365.58189" xlink:href="#mac1e413f5d" y="260.996667"/>
      </g>
     </g>
     <g id="text_35">
      <!-- 25 -->
      <g transform="translate(359.21939 275.595104)scale(0.1 -0.1)">
       <use xlink:href="#DejaVuSans-32"/>
       <use x="63.623047" xlink:href="#DejaVuSans-35"/>
      </g>
     </g>
    </g>
    <g id="xtick_14">
     <g id="line2d_20">
      <g>
       <use style="stroke:#000000;stroke-width:0.8;" x="422.580268" xlink:href="#mac1e413f5d" y="260.996667"/>
      </g>
     </g>
     <g id="text_36">
      <!-- 30 -->
      <g transform="translate(416.217768 275.595104)scale(0.1 -0.1)">
       <use xlink:href="#DejaVuSans-33"/>
       <use x="63.623047" xlink:href="#DejaVuSans-30"/>
      </g>
     </g>
    </g>
    <g id="text_37">
     <!-- Orbit position $s$ / m -->
     <g transform="translate(215.13481 289.274792)scale(0.1 -0.1)">
      <use transform="translate(0 0.015625)" xlink:href="#DejaVuSans-4f"/>
      <use transform="translate(78.710938 0.015625)" xlink:href="#DejaVuSans-72"/>
      <use transform="translate(119.824219 0.015625)" xlink:href="#DejaVuSans-62"/>
      <use transform="translate(183.300781 0.015625)" xlink:href="#DejaVuSans-69"/>
      <use transform="translate(211.083984 0.015625)" xlink:href="#DejaVuSans-74"/>
      <use transform="translate(250.292969 0.015625)" xlink:href="#DejaVuSans-20"/>
      <use transform="translate(282.080078 0.015625)" xlink:href="#DejaVuSans-70"/>
      <use transform="translate(345.556641 0.015625)" xlink:href="#DejaVuSans-6f"/>
      <use transform="translate(406.738281 0.015625)" xlink:href="#DejaVuSans-73"/>
      <use transform="translate(458.837891 0.015625)" xlink:href="#DejaVuSans-69"/>
      <use transform="translate(486.621094 0.015625)" xlink:href="#DejaVuSans-74"/>
      <use transform="translate(525.830078 0.015625)" xlink:href="#DejaVuSans-69"/>
      <use transform="translate(553.613281 0.015625)" xlink:href="#DejaVuSans-6f"/>
      <use transform="translate(614.794922 0.015625)" xlink:href="#DejaVuSans-6e"/>
      <use transform="translate(678.173828 0.015625)" xlink:href="#DejaVuSans-20"/>
      <use transform="translate(709.960938 0.015625)" xlink:href="#DejaVuSans-Oblique-73"/>
      <use transform="translate(762.060547 0.015625)" xlink:href="#DejaVuSans-20"/>
      <use transform="translate(793.847656 0.015625)" xlink:href="#DejaVuSans-2f"/>
      <use transform="translate(827.539062 0.015625)" xlink:href="#DejaVuSans-20"/>
      <use transform="translate(859.326172 0.015625)" xlink:href="#DejaVuSans-6d"/>
     </g>
    </g>
   </g>
   <g id="matplotlib.axis_4">
    <g id="ytick_4">
     <g id="line2d_21">
      <g>
       <use style="stroke:#000000;stroke-width:0.8;" x="80.59" xlink:href="#m76fb293e97" y="244.834359"/>
      </g>
     </g>
     <g id="text_38">
      <!-- −0.00025 -->
      <g transform="translate(23.857188 248.633578)scale(0.1 -0.1)">
       <use xlink:href="#DejaVuSans-2212"/>
       <use x="83.789062" xlink:href="#DejaVuSans-30"/>
       <use x="147.412109" xlink:href="#DejaVuSans-2e"/>
       <use x="179.199219" xlink:href="#DejaVuSans-30"/>
       <use x="242.822266" xlink:href="#DejaVuSans-30"/>
       <use x="306.445312" xlink:href="#DejaVuSans-30"/>
       <use x="370.068359" xlink:href="#DejaVuSans-32"/>
       <use x="433.691406" xlink:href="#DejaVuSans-35"/>
      </g>
     </g>
    </g>
    <g id="ytick_5">
     <g id="line2d_22">
      <g>
       <use style="stroke:#000000;stroke-width:0.8;" x="80.59" xlink:href="#m76fb293e97" y="217.89718"/>
      </g>
     </g>
     <g id="text_39">
      <!-- 0.00000 -->
      <g transform="translate(32.236875 221.696399)scale(0.1 -0.1)">
       <use xlink:href="#DejaVuSans-30"/>
       <use x="63.623047" xlink:href="#DejaVuSans-2e"/>
       <use x="95.410156" xlink:href="#DejaVuSans-30"/>
       <use x="159.033203" xlink:href="#DejaVuSans-30"/>
       <use x="222.65625" xlink:href="#DejaVuSans-30"/>
       <use x="286.279297" xlink:href="#DejaVuSans-30"/>
       <use x="349.902344" xlink:href="#DejaVuSans-30"/>
      </g>
     </g>
    </g>
    <g id="ytick_6">
     <g id="line2d_23">
      <g>
       <use style="stroke:#000000;stroke-width:0.8;" x="80.59" xlink:href="#m76fb293e97" y="190.960001"/>
      </g>
     </g>
     <g id="text_40">
      <!-- 0.00025 -->
      <g transform="translate(32.236875 194.75922)scale(0.1 -0.1)">
       <use xlink:href="#DejaVuSans-30"/>
       <use x="63.623047" xlink:href="#DejaVuSans-2e"/>
       <use x="95.410156" xlink:href="#DejaVuSans-30"/>
       <use x="159.033203" xlink:href="#DejaVuSans-30"/>
       <use x="222.65625" xlink:href="#DejaVuSans-30"/>
       <use x="286.279297" xlink:href="#DejaVuSans-32"/>
       <use x="349.902344" xlink:href="#DejaVuSans-35"/>
      </g>
     </g>
    </g>
    <g id="text_41">
     <!-- $x(s) / \sqrt{\beta(s)}$ -->
     <g transform="translate(17.757188 241.542206)rotate(-90)scale(0.1 -0.1)">
      <defs>
       <path d="M 6970 9933 
L 3373 -1888 
L 3104 -1888 
L 1626 2918 
Q 1555 3149 1465 3251 
Q 1376 3354 1229 3354 
Q 1011 3354 794 3181 
L 717 3309 
L 1766 4115 
L 1926 4115 
L 3379 -602 
L 3405 -602 
L 6605 9933 
L 6970 9933 
z
" id="STIXSizeOneSym-Regular-221a" transform="scale(0.015625)"/>
       <path d="M 872 216 
L 572 -1331 
L -6 -1331 
L 928 3478 
Q 1206 4903 2538 4903 
Q 3888 4903 3659 3700 
Q 3503 2844 2894 2531 
Q 3713 2250 3553 1416 
Q 3272 -69 1759 -66 
Q 1097 -63 872 216 
z
M 1019 966 
Q 1259 422 1875 425 
Q 2775 425 2966 1406 
Q 3138 2288 1675 2219 
L 1778 2750 
Q 2909 2731 3106 3750 
Q 3241 4438 2509 4434 
Q 1691 4434 1503 3459 
L 1019 966 
z
" id="DejaVuSans-Oblique-3b2" transform="scale(0.015625)"/>
      </defs>
      <use transform="translate(0 0.5)" xlink:href="#DejaVuSans-Oblique-78"/>
      <use transform="translate(59.179688 0.5)" xlink:href="#DejaVuSans-28"/>
      <use transform="translate(98.193359 0.5)" xlink:href="#DejaVuSans-Oblique-73"/>
      <use transform="translate(150.292969 0.5)" xlink:href="#DejaVuSans-29"/>
      <use transform="translate(189.306641 0.5)" xlink:href="#DejaVuSans-2f"/>
      <use transform="translate(222.998047 0.359375)scale(0.696557)" xlink:href="#STIXSizeOneSym-Regular-221a"/>
      <use transform="translate(309.09166 0.140625)" xlink:href="#DejaVuSans-Oblique-3b2"/>
      <use transform="translate(372.910019 0.140625)" xlink:href="#DejaVuSans-28"/>
      <use transform="translate(411.923691 0.140625)" xlink:href="#DejaVuSans-Oblique-73"/>
      <use transform="translate(464.0233 0.140625)" xlink:href="#DejaVuSans-29"/>
      <path d="M 296.59166 102.5 
L 296.59166 108.75 
L 515.536972 108.75 
L 515.536972 102.5 
L 296.59166 102.5 
z
"/>
     </g>
    </g>
   </g>
   <g id="line2d_24">
    <path clip-path="url(#p6602f8a043)" d="M 80.59 189.147641 
L 445.379619 189.147641 
" style="fill:none;stroke:#000000;stroke-dasharray:5.55,2.4;stroke-dashoffset:0;stroke-width:1.5;"/>
   </g>
   <g id="line2d_25">
    <path clip-path="url(#p6602f8a043)" d="M 80.59 246.64672 
L 445.379619 246.64672 
" style="fill:none;stroke:#000000;stroke-dasharray:5.55,2.4;stroke-dashoffset:0;stroke-width:1.5;"/>
   </g>
   <g id="line2d_26">
    <path clip-path="url(#p6602f8a043)" d="M 80.59 189.147641 
L 91.419692 189.23742 
L 98.259497 189.466925 
L 103.389351 189.823132 
L 106.809254 190.210355 
L 110.229157 190.783885 
L 113.079075 191.467236 
L 115.359011 192.195666 
L 117.638946 193.132248 
L 119.918881 194.328354 
L 122.198816 195.839594 
L 124.478751 197.715585 
L 126.758686 199.914 
L 132.458524 205.600131 
L 135.878427 208.583777 
L 139.298329 211.155599 
L 142.148248 212.997932 
L 145.568151 214.884406 
L 148.988054 216.476247 
L 152.407956 217.829517 
L 155.827859 218.990159 
L 160.957713 220.444135 
L 165.517583 221.503163 
L 171.787405 222.697531 
L 178.057226 223.883433 
L 183.757064 225.2092 
L 187.746951 226.324226 
L 192.876805 228.037726 
L 196.296707 229.397757 
L 199.71661 230.971901 
L 203.136513 232.796425 
L 206.556415 234.89061 
L 209.976318 237.237046 
L 218.526075 243.365477 
L 220.236026 244.289549 
L 222.515961 245.22086 
L 224.795896 245.85931 
L 227.075832 246.269624 
L 230.495734 246.578426 
L 233.345653 246.646544 
L 238.475507 246.525861 
L 247.025264 246.040138 
L 273.814502 244.211405 
L 278.944356 243.590979 
L 284.07421 242.728117 
L 287.494112 241.956074 
L 290.914015 240.95908 
L 294.333918 239.651834 
L 296.613853 238.554135 
L 298.893788 237.23214 
L 301.173723 235.64153 
L 303.453658 233.736784 
L 305.733593 231.47828 
L 308.013528 228.873603 
L 313.713366 222.151 
L 315.993301 219.816958 
L 318.273236 217.735811 
L 320.553172 215.896302 
L 322.833107 214.277658 
L 326.253009 212.216437 
L 329.672912 210.520602 
L 333.092815 209.111775 
L 336.512717 207.928434 
L 341.072588 206.621662 
L 345.632458 205.558948 
L 351.332296 204.489519 
L 363.871939 202.324199 
L 368.431809 201.312248 
L 373.561663 199.968008 
L 378.691517 198.362309 
L 383.821371 196.44542 
L 388.951225 194.215985 
L 396.930998 190.645758 
L 399.210933 189.865772 
L 401.490868 189.359912 
L 403.770803 189.156807 
L 406.050739 189.201624 
L 409.470641 189.578625 
L 414.030511 190.381136 
L 427.710122 192.974324 
L 435.689895 194.199533 
L 444.239652 195.254013 
L 445.379619 195.381043 
L 445.379619 195.381043 
" style="fill:none;stroke:#1f77b4;stroke-linecap:square;stroke-width:1.5;"/>
   </g>
   <g id="patch_25">
    <path d="M 80.59 260.996667 
L 80.59 170.487745 
" style="fill:none;stroke:#000000;stroke-linecap:square;stroke-linejoin:miter;stroke-width:0.8;"/>
   </g>
   <g id="patch_26">
    <path d="M 445.379619 260.996667 
L 445.379619 170.487745 
" style="fill:none;stroke:#000000;stroke-linecap:square;stroke-linejoin:miter;stroke-width:0.8;"/>
   </g>
   <g id="patch_27">
    <path d="M 80.59 260.996667 
L 445.379619 260.996667 
" style="fill:none;stroke:#000000;stroke-linecap:square;stroke-linejoin:miter;stroke-width:0.8;"/>
   </g>
   <g id="patch_28">
    <path d="M 80.59 170.487745 
L 445.379619 170.487745 
" style="fill:none;stroke:#000000;stroke-linecap:square;stroke-linejoin:miter;stroke-width:0.8;"/>
   </g>
   <g id="patch_29">
    <path d="M 80.59 172.642719 
L 83.439919 172.642719 
L 83.439919 168.332771 
L 80.59 168.332771 
z
" style="fill:#ef4444;"/>
   </g>
   <g id="patch_30">
    <path d="M 94.839595 172.642719 
L 111.939108 172.642719 
L 111.939108 168.332771 
L 94.839595 168.332771 
z
" style="fill:#fbbf24;"/>
   </g>
   <g id="patch_31">
    <path d="M 123.338784 172.642719 
L 129.038621 172.642719 
L 129.038621 168.332771 
L 123.338784 168.332771 
z
" style="fill:#ef4444;"/>
   </g>
   <g id="patch_32">
    <path d="M 140.438297 172.642719 
L 157.53781 172.642719 
L 157.53781 168.332771 
L 140.438297 168.332771 
z
" style="fill:#fbbf24;"/>
   </g>
   <g id="patch_33">
    <path d="M 168.937486 172.642719 
L 174.637324 172.642719 
L 174.637324 168.332771 
L 168.937486 168.332771 
z
" style="fill:#ef4444;"/>
   </g>
   <g id="patch_34">
    <path d="M 186.036999 172.642719 
L 203.136513 172.642719 
L 203.136513 168.332771 
L 186.036999 168.332771 
z
" style="fill:#fbbf24;"/>
   </g>
   <g id="patch_35">
    <path d="M 214.536188 172.642719 
L 220.236026 172.642719 
L 220.236026 168.332771 
L 214.536188 168.332771 
z
" style="fill:#ef4444;"/>
   </g>
   <g id="patch_36">
    <path d="M 231.635702 172.642719 
L 248.735215 172.642719 
L 248.735215 168.332771 
L 231.635702 168.332771 
z
" style="fill:#fbbf24;"/>
   </g>
   <g id="patch_37">
    <path d="M 260.134891 172.642719 
L 265.834729 172.642719 
L 265.834729 168.332771 
L 260.134891 168.332771 
z
" style="fill:#ef4444;"/>
   </g>
   <g id="patch_38">
    <path d="M 277.234404 172.642719 
L 294.333918 172.642719 
L 294.333918 168.332771 
L 277.234404 168.332771 
z
" style="fill:#fbbf24;"/>
   </g>
   <g id="patch_39">
    <path d="M 305.733593 172.642719 
L 311.433431 172.642719 
L 311.433431 168.332771 
L 305.733593 168.332771 
z
" style="fill:#ef4444;"/>
   </g>
   <g id="patch_40">
    <path d="M 322.833107 172.642719 
L 339.93262 172.642719 
L 339.93262 168.332771 
L 322.833107 168.332771 
z
" style="fill:#fbbf24;"/>
   </g>
   <g id="patch_41">
    <path d="M 351.332296 172.642719 
L 357.032133 172.642719 
L 357.032133 168.332771 
L 351.332296 168.332771 
z
" style="fill:#ef4444;"/>
   </g>
   <g id="patch_42">
    <path d="M 368.431809 172.642719 
L 385.531322 172.642719 
L 385.531322 168.332771 
L 368.431809 168.332771 
z
" style="fill:#fbbf24;"/>
   </g>
   <g id="patch_43">
    <path d="M 396.930998 172.642719 
L 402.630836 172.642719 
L 402.630836 168.332771 
L 396.930998 168.332771 
z
" style="fill:#ef4444;"/>
   </g>
   <g id="patch_44">
    <path d="M 414.030511 172.642719 
L 431.130025 172.642719 
L 431.130025 168.332771 
L 414.030511 168.332771 
z
" style="fill:#fbbf24;"/>
   </g>
   <g id="patch_45">
    <path d="M 442.5297 172.642719 
L 445.379619 172.642719 
L 445.379619 168.332771 
L 442.5297 168.332771 
z
" style="fill:#ef4444;"/>
   </g>
   <g id="text_42">
    <!-- q1 -->
    <g transform="translate(76.930584 164.514046)scale(0.08 -0.08)">
     <use xlink:href="#DejaVuSans-71"/>
     <use x="63.476562" xlink:href="#DejaVuSans-31"/>
    </g>
   </g>
   <g id="text_43">
    <!-- b1 -->
    <g transform="translate(98.304976 180.876444)scale(0.08 -0.08)">
     <use xlink:href="#DejaVuSans-62"/>
     <use x="63.476562" xlink:href="#DejaVuSans-31"/>
    </g>
   </g>
   <g id="text_44">
    <!-- q2 -->
    <g transform="translate(121.104327 164.514046)scale(0.08 -0.08)">
     <use xlink:href="#DejaVuSans-71"/>
     <use x="63.476562" xlink:href="#DejaVuSans-32"/>
    </g>
   </g>
   <g id="text_45">
    <!-- b1 -->
    <g transform="translate(143.903679 180.876444)scale(0.08 -0.08)">
     <use xlink:href="#DejaVuSans-62"/>
     <use x="63.476562" xlink:href="#DejaVuSans-31"/>
    </g>
   </g>
   <g id="text_46">
    <!-- q1 -->
    <g transform="translate(166.70303 164.514046)scale(0.08 -0.08)">
     <use xlink:href="#DejaVuSans-71"/>
     <use x="63.476562" xlink:href="#DejaVuSans-31"/>
    </g>
   </g>
   <g id="text_47">
    <!-- b1 -->
    <g transform="translate(189.502381 180.876444)scale(0.08 -0.08)">
     <use xlink:href="#DejaVuSans-62"/>
     <use x="63.476562" xlink:href="#DejaVuSans-31"/>
    </g>
   </g>
   <g id="text_48">
    <!-- q2 -->
    <g transform="translate(212.301732 164.514046)scale(0.08 -0.08)">
     <use xlink:href="#DejaVuSans-71"/>
     <use x="63.476562" xlink:href="#DejaVuSans-32"/>
    </g>
   </g>
   <g id="text_49">
    <!-- b1 -->
    <g transform="translate(235.101083 180.876444)scale(0.08 -0.08)">
     <use xlink:href="#DejaVuSans-62"/>
     <use x="63.476562" xlink:href="#DejaVuSans-31"/>
    </g>
   </g>
   <g id="text_50">
    <!-- q1 -->
    <g transform="translate(257.900435 164.514046)scale(0.08 -0.08)">
     <use xlink:href="#DejaVuSans-71"/>
     <use x="63.476562" xlink:href="#DejaVuSans-31"/>
    </g>
   </g>
   <g id="text_51">
    <!-- b1 -->
    <g transform="translate(280.699786 180.876444)scale(0.08 -0.08)">
     <use xlink:href="#DejaVuSans-62"/>
     <use x="63.476562" xlink:href="#DejaVuSans-31"/>
    </g>
   </g>
   <g id="text_52">
    <!-- q2 -->
    <g transform="translate(303.499137 164.514046)scale(0.08 -0.08)">
     <use xlink:href="#DejaVuSans-71"/>
     <use x="63.476562" xlink:href="#DejaVuSans-32"/>
    </g>
   </g>
   <g id="text_53">
    <!-- b1 -->
    <g transform="translate(326.298488 180.876444)scale(0.08 -0.08)">
     <use xlink:href="#DejaVuSans-62"/>
     <use x="63.476562" xlink:href="#DejaVuSans-31"/>
    </g>
   </g>
   <g id="text_54">
    <!-- q1 -->
    <g transform="translate(349.09784 164.514046)scale(0.08 -0.08)">
     <use xlink:href="#DejaVuSans-71"/>
     <use x="63.476562" xlink:href="#DejaVuSans-31"/>
    </g>
   </g>
   <g id="text_55">
    <!-- b1 -->
    <g transform="translate(371.897191 180.876444)scale(0.08 -0.08)">
     <use xlink:href="#DejaVuSans-62"/>
     <use x="63.476562" xlink:href="#DejaVuSans-31"/>
    </g>
   </g>
   <g id="text_56">
    <!-- q2 -->
    <g transform="translate(394.696542 164.514046)scale(0.08 -0.08)">
     <use xlink:href="#DejaVuSans-71"/>
     <use x="63.476562" xlink:href="#DejaVuSans-32"/>
    </g>
   </g>
   <g id="text_57">
    <!-- b1 -->
    <g transform="translate(417.495893 180.876444)scale(0.08 -0.08)">
     <use xlink:href="#DejaVuSans-62"/>
     <use x="63.476562" xlink:href="#DejaVuSans-31"/>
    </g>
   </g>
   <g id="text_58">
    <!-- q1 -->
    <g transform="translate(438.870285 164.514046)scale(0.08 -0.08)">
     <use xlink:href="#DejaVuSans-71"/>
     <use x="63.476562" xlink:href="#DejaVuSans-31"/>
    </g>
   </g>
  </g>
  <g id="axes_3">
   <g id="patch_46">
    <path d="M 80.59 408.515 
L 445.379619 408.515 
L 445.379619 318.006078 
L 80.59 318.006078 
z
" style="fill:#ffffff;"/>
   </g>
   <g id="matplotlib.axis_5">
    <g id="xtick_15">
     <g id="line2d_27">
      <g>
       <use style="stroke:#000000;stroke-width:0.8;" x="80.59" xlink:href="#mac1e413f5d" y="408.515"/>
      </g>
     </g>
     <g id="text_59">
      <!-- $0$ -->
      <g transform="translate(77.39 423.113438)scale(0.1 -0.1)">
       <use transform="translate(0 0.78125)" xlink:href="#DejaVuSans-30"/>
      </g>
     </g>
    </g>
    <g id="xtick_16">
     <g id="line2d_28">
      <g>
       <use style="stroke:#000000;stroke-width:0.8;" x="162.962769" xlink:href="#mac1e413f5d" y="408.515"/>
      </g>
     </g>
     <g id="text_60">
      <!-- $\frac{\pi}{2}$ -->
      <g transform="translate(160.062769 423.915)scale(0.1 -0.1)">
       <defs>
        <path d="M 584 3500 
L 3938 3500 
L 3825 2925 
L 3384 2925 
L 2966 775 
Q 2922 550 2981 450 
Q 3038 353 3209 353 
Q 3256 353 3325 363 
Q 3397 369 3419 372 
L 3338 -44 
Q 3222 -84 3103 -103 
Q 2981 -122 2866 -122 
Q 2491 -122 2388 81 
Q 2284 288 2391 838 
L 2797 2925 
L 1506 2925 
L 938 0 
L 350 0 
L 919 2925 
L 472 2925 
L 584 3500 
z
" id="DejaVuSans-Oblique-3c0" transform="scale(0.015625)"/>
       </defs>
       <use transform="translate(1 45.71875)scale(0.7)" xlink:href="#DejaVuSans-Oblique-3c0"/>
       <use transform="translate(0 -38.81875)scale(0.7)" xlink:href="#DejaVuSans-32"/>
       <path d="M 0 19.384375 
L 0 25.634375 
L 44.536133 25.634375 
L 44.536133 19.384375 
L 0 19.384375 
z
"/>
      </g>
     </g>
    </g>
    <g id="xtick_17">
     <g id="line2d_29">
      <g>
       <use style="stroke:#000000;stroke-width:0.8;" x="245.335538" xlink:href="#mac1e413f5d" y="408.515"/>
      </g>
     </g>
     <g id="text_61">
      <!-- $\pi$ -->
      <g transform="translate(242.285538 423.113438)scale(0.1 -0.1)">
       <use transform="translate(0 0.3125)" xlink:href="#DejaVuSans-Oblique-3c0"/>
      </g>
     </g>
    </g>
    <g id="xtick_18">
     <g id="line2d_30">
      <g>
       <use style="stroke:#000000;stroke-width:0.8;" x="327.708308" xlink:href="#mac1e413f5d" y="408.515"/>
      </g>
     </g>
     <g id="text_62">
      <!-- $\frac{3\pi}{2}$ -->
      <g transform="translate(322.708308 425.315)scale(0.1 -0.1)">
       <use transform="translate(0 46.046875)scale(0.7)" xlink:href="#DejaVuSans-33"/>
       <use transform="translate(44.536133 46.046875)scale(0.7)" xlink:href="#DejaVuSans-Oblique-3c0"/>
       <use transform="translate(21 -38.490625)scale(0.7)" xlink:href="#DejaVuSans-32"/>
       <path d="M 0 19.7125 
L 0 25.9625 
L 86.679688 25.9625 
L 86.679688 19.7125 
L 0 19.7125 
z
"/>
      </g>
     </g>
    </g>
    <g id="xtick_19">
     <g id="line2d_31">
      <g>
       <use style="stroke:#000000;stroke-width:0.8;" x="410.081077" xlink:href="#mac1e413f5d" y="408.515"/>
      </g>
     </g>
     <g id="text_63">
      <!-- $2\pi$ -->
      <g transform="translate(403.881077 423.113438)scale(0.1 -0.1)">
       <use transform="translate(0 0.78125)" xlink:href="#DejaVuSans-32"/>
       <use transform="translate(63.623047 0.78125)" xlink:href="#DejaVuSans-Oblique-3c0"/>
      </g>
     </g>
    </g>
    <g id="text_64">
     <!-- Betatron phase $\psi_x(s)$ -->
     <g transform="translate(210.88481 440.915)scale(0.1 -0.1)">
      <defs>
       <path d="M 1259 2228 
L 1259 519 
L 2272 519 
Q 2781 519 3026 730 
Q 3272 941 3272 1375 
Q 3272 1813 3026 2020 
Q 2781 2228 2272 2228 
L 1259 2228 
z
M 1259 4147 
L 1259 2741 
L 2194 2741 
Q 2656 2741 2882 2914 
Q 3109 3088 3109 3444 
Q 3109 3797 2882 3972 
Q 2656 4147 2194 4147 
L 1259 4147 
z
M 628 4666 
L 2241 4666 
Q 2963 4666 3353 4366 
Q 3744 4066 3744 3513 
Q 3744 3084 3544 2831 
Q 3344 2578 2956 2516 
Q 3422 2416 3680 2098 
Q 3938 1781 3938 1306 
Q 3938 681 3513 340 
Q 3088 0 2303 0 
L 628 0 
L 628 4666 
z
" id="DejaVuSans-42" transform="scale(0.015625)"/>
       <path d="M 3597 1894 
L 3597 1613 
L 953 1613 
Q 991 1019 1311 708 
Q 1631 397 2203 397 
Q 2534 397 2845 478 
Q 3156 559 3463 722 
L 3463 178 
Q 3153 47 2828 -22 
Q 2503 -91 2169 -91 
Q 1331 -91 842 396 
Q 353 884 353 1716 
Q 353 2575 817 3079 
Q 1281 3584 2069 3584 
Q 2775 3584 3186 3129 
Q 3597 2675 3597 1894 
z
M 3022 2063 
Q 3016 2534 2758 2815 
Q 2500 3097 2075 3097 
Q 1594 3097 1305 2825 
Q 1016 2553 972 2059 
L 3022 2063 
z
" id="DejaVuSans-65" transform="scale(0.015625)"/>
       <path d="M 2194 1759 
Q 1497 1759 1228 1600 
Q 959 1441 959 1056 
Q 959 750 1161 570 
Q 1363 391 1709 391 
Q 2188 391 2477 730 
Q 2766 1069 2766 1631 
L 2766 1759 
L 2194 1759 
z
M 3341 1997 
L 3341 0 
L 2766 0 
L 2766 531 
Q 2569 213 2275 61 
Q 1981 -91 1556 -91 
Q 1019 -91 701 211 
Q 384 513 384 1019 
Q 384 1609 779 1909 
Q 1175 2209 1959 2209 
L 2766 2209 
L 2766 2266 
Q 2766 2663 2505 2880 
Q 2244 3097 1772 3097 
Q 1472 3097 1187 3025 
Q 903 2953 641 2809 
L 641 3341 
Q 956 3463 1253 3523 
Q 1550 3584 1831 3584 
Q 2591 3584 2966 3190 
Q 3341 2797 3341 1997 
z
" id="DejaVuSans-61" transform="scale(0.015625)"/>
       <path d="M 3513 2113 
L 3513 0 
L 2938 0 
L 2938 2094 
Q 2938 2591 2744 2837 
Q 2550 3084 2163 3084 
Q 1697 3084 1428 2787 
Q 1159 2491 1159 1978 
L 1159 0 
L 581 0 
L 581 4863 
L 1159 4863 
L 1159 2956 
Q 1366 3272 1645 3428 
Q 1925 3584 2291 3584 
Q 2894 3584 3203 3211 
Q 3513 2838 3513 2113 
z
" id="DejaVuSans-68" transform="scale(0.015625)"/>
       <path d="M 1591 -78 
Q 891 38 616 341 
Q 278 713 425 1472 
L 819 3500 
L 1400 3500 
L 1009 1494 
Q 900 922 1119 684 
Q 1313 478 1691 434 
L 2284 3500 
L 2856 3500 
L 2263 438 
Q 2681 481 2928 688 
Q 3247 950 3353 1497 
L 3741 3500 
L 4322 3500 
L 3928 1475 
Q 3775 688 3300 344 
Q 2872 34 2163 -75 
L 1919 -1331 
L 1347 -1331 
L 1591 -78 
z
" id="DejaVuSans-Oblique-3c8" transform="scale(0.015625)"/>
      </defs>
      <use transform="translate(0 0.015625)" xlink:href="#DejaVuSans-42"/>
      <use transform="translate(68.603516 0.015625)" xlink:href="#DejaVuSans-65"/>
      <use transform="translate(130.126953 0.015625)" xlink:href="#DejaVuSans-74"/>
      <use transform="translate(169.335938 0.015625)" xlink:href="#DejaVuSans-61"/>
      <use transform="translate(230.615234 0.015625)" xlink:href="#DejaVuSans-74"/>
      <use transform="translate(269.824219 0.015625)" xlink:href="#DejaVuSans-72"/>
      <use transform="translate(310.9375 0.015625)" xlink:href="#DejaVuSans-6f"/>
      <use transform="translate(372.119141 0.015625)" xlink:href="#DejaVuSans-6e"/>
      <use transform="translate(435.498047 0.015625)" xlink:href="#DejaVuSans-20"/>
      <use transform="translate(467.285156 0.015625)" xlink:href="#DejaVuSans-70"/>
      <use transform="translate(530.761719 0.015625)" xlink:href="#DejaVuSans-68"/>
      <use transform="translate(594.140625 0.015625)" xlink:href="#DejaVuSans-61"/>
      <use transform="translate(655.419922 0.015625)" xlink:href="#DejaVuSans-73"/>
      <use transform="translate(707.519531 0.015625)" xlink:href="#DejaVuSans-65"/>
      <use transform="translate(769.042969 0.015625)" xlink:href="#DejaVuSans-20"/>
      <use transform="translate(800.830078 0.015625)" xlink:href="#DejaVuSans-Oblique-3c8"/>
      <use transform="translate(866.796875 -16.390625)scale(0.7)" xlink:href="#DejaVuSans-Oblique-78"/>
      <use transform="translate(910.957031 0.015625)" xlink:href="#DejaVuSans-28"/>
      <use transform="translate(949.970703 0.015625)" xlink:href="#DejaVuSans-Oblique-73"/>
      <use transform="translate(1002.070312 0.015625)" xlink:href="#DejaVuSans-29"/>
     </g>
    </g>
   </g>
   <g id="matplotlib.axis_6">
    <g id="ytick_7">
     <g id="line2d_32">
      <g>
       <use style="stroke:#000000;stroke-width:0.8;" x="80.59" xlink:href="#m76fb293e97" y="392.352693"/>
      </g>
     </g>
     <g id="text_65">
      <!-- −0.00025 -->
      <g transform="translate(23.857188 396.151911)scale(0.1 -0.1)">
       <use xlink:href="#DejaVuSans-2212"/>
       <use x="83.789062" xlink:href="#DejaVuSans-30"/>
       <use x="147.412109" xlink:href="#DejaVuSans-2e"/>
       <use x="179.199219" xlink:href="#DejaVuSans-30"/>
       <use x="242.822266" xlink:href="#DejaVuSans-30"/>
       <use x="306.445312" xlink:href="#DejaVuSans-30"/>
       <use x="370.068359" xlink:href="#DejaVuSans-32"/>
       <use x="433.691406" xlink:href="#DejaVuSans-35"/>
      </g>
     </g>
    </g>
    <g id="ytick_8">
     <g id="line2d_33">
      <g>
       <use style="stroke:#000000;stroke-width:0.8;" x="80.59" xlink:href="#m76fb293e97" y="365.415514"/>
      </g>
     </g>
     <g id="text_66">
      <!-- 0.00000 -->
      <g transform="translate(32.236875 369.214732)scale(0.1 -0.1)">
       <use xlink:href="#DejaVuSans-30"/>
       <use x="63.623047" xlink:href="#DejaVuSans-2e"/>
       <use x="95.410156" xlink:href="#DejaVuSans-30"/>
       <use x="159.033203" xlink:href="#DejaVuSans-30"/>
       <use x="222.65625" xlink:href="#DejaVuSans-30"/>
       <use x="286.279297" xlink:href="#DejaVuSans-30"/>
       <use x="349.902344" xlink:href="#DejaVuSans-30"/>
      </g>
     </g>
    </g>
    <g id="ytick_9">
     <g id="line2d_34">
      <g>
       <use style="stroke:#000000;stroke-width:0.8;" x="80.59" xlink:href="#m76fb293e97" y="338.478335"/>
      </g>
     </g>
     <g id="text_67">
      <!-- 0.00025 -->
      <g transform="translate(32.236875 342.277553)scale(0.1 -0.1)">
       <use xlink:href="#DejaVuSans-30"/>
       <use x="63.623047" xlink:href="#DejaVuSans-2e"/>
       <use x="95.410156" xlink:href="#DejaVuSans-30"/>
       <use x="159.033203" xlink:href="#DejaVuSans-30"/>
       <use x="222.65625" xlink:href="#DejaVuSans-30"/>
       <use x="286.279297" xlink:href="#DejaVuSans-32"/>
       <use x="349.902344" xlink:href="#DejaVuSans-35"/>
      </g>
     </g>
    </g>
    <g id="text_68">
     <!-- $x(s) / \sqrt{\beta(s)}$ -->
     <g transform="translate(17.757188 389.060539)rotate(-90)scale(0.1 -0.1)">
      <use transform="translate(0 0.5)" xlink:href="#DejaVuSans-Oblique-78"/>
      <use transform="translate(59.179688 0.5)" xlink:href="#DejaVuSans-28"/>
      <use transform="translate(98.193359 0.5)" xlink:href="#DejaVuSans-Oblique-73"/>
      <use transform="translate(150.292969 0.5)" xlink:href="#DejaVuSans-29"/>
      <use transform="translate(189.306641 0.5)" xlink:href="#DejaVuSans-2f"/>
      <use transform="translate(222.998047 0.359375)scale(0.696557)" xlink:href="#STIXSizeOneSym-Regular-221a"/>
      <use transform="translate(309.09166 0.140625)" xlink:href="#DejaVuSans-Oblique-3b2"/>
      <use transform="translate(372.910019 0.140625)" xlink:href="#DejaVuSans-28"/>
      <use transform="translate(411.923691 0.140625)" xlink:href="#DejaVuSans-Oblique-73"/>
      <use transform="translate(464.0233 0.140625)" xlink:href="#DejaVuSans-29"/>
      <path d="M 296.59166 102.5 
L 296.59166 108.75 
L 515.536972 108.75 
L 515.536972 102.5 
L 296.59166 102.5 
z
"/>
     </g>
    </g>
   </g>
   <g id="line2d_35">
    <path clip-path="url(#p87088cd0c1)" d="M 80.59 336.665974 
L 84.736163 336.755753 
L 89.513893 337.080944 
L 93.380613 337.516085 
L 98.37823 338.302218 
L 103.342705 339.326702 
L 108.543832 340.650581 
L 112.58077 341.846687 
L 117.119544 343.357927 
L 123.498249 345.758897 
L 128.879156 348.012293 
L 135.257861 350.918293 
L 141.875758 354.157985 
L 150.564557 358.673932 
L 163.96224 365.949759 
L 178.592322 373.84256 
L 186.097742 377.674103 
L 193.010253 380.983184 
L 199.741237 383.948093 
L 205.983063 386.426499 
L 212.061296 388.555049 
L 217.386107 390.165961 
L 222.710919 391.521686 
L 226.455266 392.314342 
L 230.99404 393.090851 
L 235.030978 393.607537 
L 240.232105 394.026815 
L 245.196579 394.164878 
L 250.194197 394.044194 
L 255.159645 393.667361 
L 260.327751 393.006522 
L 265.187552 392.140635 
L 269.789727 391.109312 
L 274.380058 389.884295 
L 278.955036 388.477414 
L 284.207658 386.646746 
L 289.096826 384.750473 
L 294.975579 382.249486 
L 301.978813 378.996613 
L 309.932307 375.01052 
L 319.986556 369.669333 
L 346.35705 355.446767 
L 354.556575 351.370365 
L 360.987132 348.408208 
L 366.972827 345.880643 
L 371.970445 343.963754 
L 376.934919 342.251442 
L 382.136046 340.679576 
L 386.172984 339.626241 
L 390.711758 338.624484 
L 395.762911 337.745468 
L 401.129712 337.092733 
L 406.385616 336.740977 
L 411.183961 336.671301 
L 415.467973 336.812288 
L 420.999267 337.276077 
L 425.595008 337.899469 
L 431.069282 338.916271 
L 436.455727 340.198081 
L 441.75219 341.717867 
L 445.379619 342.899377 
L 445.379619 342.899377 
" style="fill:none;stroke:#1f77b4;stroke-linecap:square;stroke-width:1.5;"/>
   </g>
   <g id="line2d_36">
    <path clip-path="url(#p87088cd0c1)" d="M 80.59 336.665974 
L 445.379619 336.665974 
" style="fill:none;stroke:#000000;stroke-dasharray:5.55,2.4;stroke-dashoffset:0;stroke-width:1.5;"/>
   </g>
   <g id="line2d_37">
    <path clip-path="url(#p87088cd0c1)" d="M 80.59 394.165053 
L 445.379619 394.165053 
" style="fill:none;stroke:#000000;stroke-dasharray:5.55,2.4;stroke-dashoffset:0;stroke-width:1.5;"/>
   </g>
   <g id="patch_47">
    <path d="M 80.59 408.515 
L 80.59 318.006078 
" style="fill:none;stroke:#000000;stroke-linecap:square;stroke-linejoin:miter;stroke-width:0.8;"/>
   </g>
   <g id="patch_48">
    <path d="M 445.379619 408.515 
L 445.379619 318.006078 
" style="fill:none;stroke:#000000;stroke-linecap:square;stroke-linejoin:miter;stroke-width:0.8;"/>
   </g>
   <g id="patch_49">
    <path d="M 80.59 408.515 
L 445.379619 408.515 
" style="fill:none;stroke:#000000;stroke-linecap:square;stroke-linejoin:miter;stroke-width:0.8;"/>
   </g>
   <g id="patch_50">
    <path d="M 80.59 318.006078 
L 445.379619 318.006078 
" style="fill:none;stroke:#000000;stroke-linecap:square;stroke-linejoin:miter;stroke-width:0.8;"/>
   </g>
   <g id="patch_51">
    <path d="M 80.59 320.161053 
L 81.539195 320.161053 
L 81.539195 315.851104 
L 80.59 315.851104 
z
" style="fill:#ef4444;"/>
   </g>
   <g id="patch_52">
    <path d="M 86.445021 320.161053 
L 100.374611 320.161053 
L 100.374611 315.851104 
L 86.445021 315.851104 
z
" style="fill:#fbbf24;"/>
   </g>
   <g id="patch_53">
    <path d="M 119.584003 320.161053 
L 132.793402 320.161053 
L 132.793402 315.851104 
L 119.584003 315.851104 
z
" style="fill:#ef4444;"/>
   </g>
   <g id="patch_54">
    <path d="M 152.002793 320.161053 
L 165.932384 320.161053 
L 165.932384 315.851104 
L 152.002793 315.851104 
z
" style="fill:#fbbf24;"/>
   </g>
   <g id="patch_55">
    <path d="M 170.838209 320.161053 
L 172.7366 320.161053 
L 172.7366 315.851104 
L 170.838209 315.851104 
z
" style="fill:#ef4444;"/>
   </g>
   <g id="patch_56">
    <path d="M 177.642426 320.161053 
L 191.572016 320.161053 
L 191.572016 315.851104 
L 177.642426 315.851104 
z
" style="fill:#fbbf24;"/>
   </g>
   <g id="patch_57">
    <path d="M 210.781408 320.161053 
L 223.990806 320.161053 
L 223.990806 315.851104 
L 210.781408 315.851104 
z
" style="fill:#ef4444;"/>
   </g>
   <g id="patch_58">
    <path d="M 243.200198 320.161053 
L 257.129789 320.161053 
L 257.129789 315.851104 
L 243.200198 315.851104 
z
" style="fill:#fbbf24;"/>
   </g>
   <g id="patch_59">
    <path d="M 262.035614 320.161053 
L 263.934005 320.161053 
L 263.934005 315.851104 
L 262.035614 315.851104 
z
" style="fill:#ef4444;"/>
   </g>
   <g id="patch_60">
    <path d="M 268.839831 320.161053 
L 282.769421 320.161053 
L 282.769421 315.851104 
L 268.839831 315.851104 
z
" style="fill:#fbbf24;"/>
   </g>
   <g id="patch_61">
    <path d="M 301.978813 320.161053 
L 315.188211 320.161053 
L 315.188211 315.851104 
L 301.978813 315.851104 
z
" style="fill:#ef4444;"/>
   </g>
   <g id="patch_62">
    <path d="M 334.397603 320.161053 
L 348.327193 320.161053 
L 348.327193 315.851104 
L 334.397603 315.851104 
z
" style="fill:#fbbf24;"/>
   </g>
   <g id="patch_63">
    <path d="M 353.233019 320.161053 
L 355.13141 320.161053 
L 355.13141 315.851104 
L 353.233019 315.851104 
z
" style="fill:#ef4444;"/>
   </g>
   <g id="patch_64">
    <path d="M 360.037236 320.161053 
L 373.966826 320.161053 
L 373.966826 315.851104 
L 360.037236 315.851104 
z
" style="fill:#fbbf24;"/>
   </g>
   <g id="patch_65">
    <path d="M 393.176218 320.161053 
L 406.385616 320.161053 
L 406.385616 315.851104 
L 393.176218 315.851104 
z
" style="fill:#ef4444;"/>
   </g>
   <g id="patch_66">
    <path d="M 425.595008 320.161053 
L 439.524598 320.161053 
L 439.524598 315.851104 
L 425.595008 315.851104 
z
" style="fill:#fbbf24;"/>
   </g>
   <g id="patch_67">
    <path d="M 444.430424 320.161053 
L 445.379619 320.161053 
L 445.379619 315.851104 
L 444.430424 315.851104 
z
" style="fill:#ef4444;"/>
   </g>
   <g id="text_69">
    <!-- q1 -->
    <g transform="translate(75.980223 312.03238)scale(0.08 -0.08)">
     <use xlink:href="#DejaVuSans-71"/>
     <use x="63.476562" xlink:href="#DejaVuSans-31"/>
    </g>
   </g>
   <g id="text_70">
    <!-- b1 -->
    <g transform="translate(88.325441 328.394777)scale(0.08 -0.08)">
     <use xlink:href="#DejaVuSans-62"/>
     <use x="63.476562" xlink:href="#DejaVuSans-31"/>
    </g>
   </g>
   <g id="text_71">
    <!-- q2 -->
    <g transform="translate(121.104327 312.03238)scale(0.08 -0.08)">
     <use xlink:href="#DejaVuSans-71"/>
     <use x="63.476562" xlink:href="#DejaVuSans-32"/>
    </g>
   </g>
   <g id="text_72">
    <!-- b1 -->
    <g transform="translate(153.883214 328.394777)scale(0.08 -0.08)">
     <use xlink:href="#DejaVuSans-62"/>
     <use x="63.476562" xlink:href="#DejaVuSans-31"/>
    </g>
   </g>
   <g id="text_73">
    <!-- q1 -->
    <g transform="translate(166.70303 312.03238)scale(0.08 -0.08)">
     <use xlink:href="#DejaVuSans-71"/>
     <use x="63.476562" xlink:href="#DejaVuSans-31"/>
    </g>
   </g>
   <g id="text_74">
    <!-- b1 -->
    <g transform="translate(179.522846 328.394777)scale(0.08 -0.08)">
     <use xlink:href="#DejaVuSans-62"/>
     <use x="63.476562" xlink:href="#DejaVuSans-31"/>
    </g>
   </g>
   <g id="text_75">
    <!-- q2 -->
    <g transform="translate(212.301732 312.03238)scale(0.08 -0.08)">
     <use xlink:href="#DejaVuSans-71"/>
     <use x="63.476562" xlink:href="#DejaVuSans-32"/>
    </g>
   </g>
   <g id="text_76">
    <!-- b1 -->
    <g transform="translate(245.080618 328.394777)scale(0.08 -0.08)">
     <use xlink:href="#DejaVuSans-62"/>
     <use x="63.476562" xlink:href="#DejaVuSans-31"/>
    </g>
   </g>
   <g id="text_77">
    <!-- q1 -->
    <g transform="translate(257.900435 312.03238)scale(0.08 -0.08)">
     <use xlink:href="#DejaVuSans-71"/>
     <use x="63.476562" xlink:href="#DejaVuSans-31"/>
    </g>
   </g>
   <g id="text_78">
    <!-- b1 -->
    <g transform="translate(270.720251 328.394777)scale(0.08 -0.08)">
     <use xlink:href="#DejaVuSans-62"/>
     <use x="63.476562" xlink:href="#DejaVuSans-31"/>
    </g>
   </g>
   <g id="text_79">
    <!-- q2 -->
    <g transform="translate(303.499137 312.03238)scale(0.08 -0.08)">
     <use xlink:href="#DejaVuSans-71"/>
     <use x="63.476562" xlink:href="#DejaVuSans-32"/>
    </g>
   </g>
   <g id="text_80">
    <!-- b1 -->
    <g transform="translate(336.278023 328.394777)scale(0.08 -0.08)">
     <use xlink:href="#DejaVuSans-62"/>
     <use x="63.476562" xlink:href="#DejaVuSans-31"/>
    </g>
   </g>
   <g id="text_81">
    <!-- q1 -->
    <g transform="translate(349.09784 312.03238)scale(0.08 -0.08)">
     <use xlink:href="#DejaVuSans-71"/>
     <use x="63.476562" xlink:href="#DejaVuSans-31"/>
    </g>
   </g>
   <g id="text_82">
    <!-- b1 -->
    <g transform="translate(361.917656 328.394777)scale(0.08 -0.08)">
     <use xlink:href="#DejaVuSans-62"/>
     <use x="63.476562" xlink:href="#DejaVuSans-31"/>
    </g>
   </g>
   <g id="text_83">
    <!-- q2 -->
    <g transform="translate(394.696542 312.03238)scale(0.08 -0.08)">
     <use xlink:href="#DejaVuSans-71"/>
     <use x="63.476562" xlink:href="#DejaVuSans-32"/>
    </g>
   </g>
   <g id="text_84">
    <!-- b1 -->
    <g transform="translate(427.475428 328.394777)scale(0.08 -0.08)">
     <use xlink:href="#DejaVuSans-62"/>
     <use x="63.476562" xlink:href="#DejaVuSans-31"/>
    </g>
   </g>
   <g id="text_85">
    <!-- q1 -->
    <g transform="translate(439.820647 312.03238)scale(0.08 -0.08)">
     <use xlink:href="#DejaVuSans-71"/>
     <use x="63.476562" xlink:href="#DejaVuSans-31"/>
    </g>
   </g>
  </g>
 </g>
 <defs>
  <clipPath id="p8adfdb28fd">
   <rect height="90.508922" width="364.789619" x="80.59" y="22.969412"/>
  </clipPath>
  <clipPath id="p6602f8a043">
   <rect height="90.508922" width="364.789619" x="80.59" y="170.487745"/>
  </clipPath>
  <clipPath id="p87088cd0c1">
   <rect height="90.508922" width="364.789619" x="80.59" y="318.006078"/>
  </clipPath>
 </defs>
</svg>
