<?xml version="1.0" encoding="utf-8" standalone="no"?>
<!DOCTYPE svg PUBLIC "-//W3C//DTD SVG 1.1//EN"
  "http://www.w3.org/Graphics/SVG/1.1/DTD/svg11.dtd">
<!-- Created with matplotlib (https://matplotlib.org/) -->
<svg height="460.8pt" version="1.1" viewBox="0 0 460.8 460.8" width="460.8pt" xmlns="http://www.w3.org/2000/svg" xmlns:xlink="http://www.w3.org/1999/xlink">
 <metadata>
  <rdf:RDF xmlns:cc="http://creativecommons.org/ns#" xmlns:dc="http://purl.org/dc/elements/1.1/" xmlns:rdf="http://www.w3.org/1999/02/22-rdf-syntax-ns#">
   <cc:Work>
    <dc:type rdf:resource="http://purl.org/dc/dcmitype/StillImage"/>
    <dc:date>2020-10-06T02:00:07.382661</dc:date>
    <dc:format>image/svg+xml</dc:format>
    <dc:creator>
     <cc:Agent>
      <dc:title>Matplotlib v3.3.1, https://matplotlib.org/</dc:title>
     </cc:Agent>
    </dc:creator>
   </cc:Work>
  </rdf:RDF>
 </metadata>
 <defs>
  <style type="text/css">*{stroke-linecap:butt;stroke-linejoin:round;}</style>
 </defs>
 <g id="figure_1">
  <g id="patch_1">
   <path d="M 0 460.8 
L 460.8 460.8 
L 460.8 0 
L 0 0 
z
" style="fill:#ffffff;"/>
  </g>
  <g id="axes_1">
   <g id="patch_2">
    <path d="M 30.58 191.08974 
L 438.54487 191.08974 
L 438.54487 42.3 
L 30.58 42.3 
z
" style="fill:#ffffff;"/>
   </g>
   <g id="matplotlib.axis_1">
    <g id="xtick_1">
     <g id="line2d_1">
      <path clip-path="url(#pab3a1d39c9)" d="M 30.58 191.08974 
L 30.58 42.3 
" style="fill:none;stroke:#b0b0b0;stroke-dasharray:2.96,1.28;stroke-dashoffset:0;stroke-width:0.8;"/>
     </g>
     <g id="line2d_2">
      <defs>
       <path d="M 0 0 
L 0 3.5 
" id="m08e1909134" style="stroke:#000000;stroke-width:0.8;"/>
      </defs>
      <g>
       <use style="stroke:#000000;stroke-width:0.8;" x="30.58" xlink:href="#m08e1909134" y="191.08974"/>
      </g>
     </g>
     <g id="text_1">
      <!-- 0.00 -->
      <g transform="translate(24.659086 219.206821)rotate(-45)scale(0.1 -0.1)">
       <defs>
        <path d="M 31.78125 66.40625 
Q 24.171875 66.40625 20.328125 58.90625 
Q 16.5 51.421875 16.5 36.375 
Q 16.5 21.390625 20.328125 13.890625 
Q 24.171875 6.390625 31.78125 6.390625 
Q 39.453125 6.390625 43.28125 13.890625 
Q 47.125 21.390625 47.125 36.375 
Q 47.125 51.421875 43.28125 58.90625 
Q 39.453125 66.40625 31.78125 66.40625 
z
M 31.78125 74.21875 
Q 44.046875 74.21875 50.515625 64.515625 
Q 56.984375 54.828125 56.984375 36.375 
Q 56.984375 17.96875 50.515625 8.265625 
Q 44.046875 -1.421875 31.78125 -1.421875 
Q 19.53125 -1.421875 13.0625 8.265625 
Q 6.59375 17.96875 6.59375 36.375 
Q 6.59375 54.828125 13.0625 64.515625 
Q 19.53125 74.21875 31.78125 74.21875 
z
" id="DejaVuSans-48"/>
        <path d="M 10.6875 12.40625 
L 21 12.40625 
L 21 0 
L 10.6875 0 
z
" id="DejaVuSans-46"/>
       </defs>
       <use xlink:href="#DejaVuSans-48"/>
       <use x="63.623047" xlink:href="#DejaVuSans-46"/>
       <use x="95.410156" xlink:href="#DejaVuSans-48"/>
       <use x="159.033203" xlink:href="#DejaVuSans-48"/>
      </g>
     </g>
    </g>
    <g id="xtick_2">
     <g id="line2d_3">
      <path clip-path="url(#pab3a1d39c9)" d="M 43.328902 191.08974 
L 43.328902 42.3 
" style="fill:none;stroke:#b0b0b0;stroke-dasharray:2.96,1.28;stroke-dashoffset:0;stroke-width:0.8;"/>
     </g>
     <g id="line2d_4">
      <g>
       <use style="stroke:#000000;stroke-width:0.8;" x="43.328902" xlink:href="#m08e1909134" y="191.08974"/>
      </g>
     </g>
     <g id="text_2">
      <!-- 0.25 -->
      <g transform="translate(37.407988 219.206821)rotate(-45)scale(0.1 -0.1)">
       <defs>
        <path d="M 19.1875 8.296875 
L 53.609375 8.296875 
L 53.609375 0 
L 7.328125 0 
L 7.328125 8.296875 
Q 12.9375 14.109375 22.625 23.890625 
Q 32.328125 33.6875 34.8125 36.53125 
Q 39.546875 41.84375 41.421875 45.53125 
Q 43.3125 49.21875 43.3125 52.78125 
Q 43.3125 58.59375 39.234375 62.25 
Q 35.15625 65.921875 28.609375 65.921875 
Q 23.96875 65.921875 18.8125 64.3125 
Q 13.671875 62.703125 7.8125 59.421875 
L 7.8125 69.390625 
Q 13.765625 71.78125 18.9375 73 
Q 24.125 74.21875 28.421875 74.21875 
Q 39.75 74.21875 46.484375 68.546875 
Q 53.21875 62.890625 53.21875 53.421875 
Q 53.21875 48.921875 51.53125 44.890625 
Q 49.859375 40.875 45.40625 35.40625 
Q 44.1875 33.984375 37.640625 27.21875 
Q 31.109375 20.453125 19.1875 8.296875 
z
" id="DejaVuSans-50"/>
        <path d="M 10.796875 72.90625 
L 49.515625 72.90625 
L 49.515625 64.59375 
L 19.828125 64.59375 
L 19.828125 46.734375 
Q 21.96875 47.46875 24.109375 47.828125 
Q 26.265625 48.1875 28.421875 48.1875 
Q 40.625 48.1875 47.75 41.5 
Q 54.890625 34.8125 54.890625 23.390625 
Q 54.890625 11.625 47.5625 5.09375 
Q 40.234375 -1.421875 26.90625 -1.421875 
Q 22.3125 -1.421875 17.546875 -0.640625 
Q 12.796875 0.140625 7.71875 1.703125 
L 7.71875 11.625 
Q 12.109375 9.234375 16.796875 8.0625 
Q 21.484375 6.890625 26.703125 6.890625 
Q 35.15625 6.890625 40.078125 11.328125 
Q 45.015625 15.765625 45.015625 23.390625 
Q 45.015625 31 40.078125 35.4375 
Q 35.15625 39.890625 26.703125 39.890625 
Q 22.75 39.890625 18.8125 39.015625 
Q 14.890625 38.140625 10.796875 36.28125 
z
" id="DejaVuSans-53"/>
       </defs>
       <use xlink:href="#DejaVuSans-48"/>
       <use x="63.623047" xlink:href="#DejaVuSans-46"/>
       <use x="95.410156" xlink:href="#DejaVuSans-50"/>
       <use x="159.033203" xlink:href="#DejaVuSans-53"/>
      </g>
     </g>
    </g>
    <g id="xtick_3">
     <g id="line2d_5">
      <path clip-path="url(#pab3a1d39c9)" d="M 221.813533 191.08974 
L 221.813533 42.3 
" style="fill:none;stroke:#b0b0b0;stroke-dasharray:2.96,1.28;stroke-dashoffset:0;stroke-width:0.8;"/>
     </g>
     <g id="line2d_6">
      <g>
       <use style="stroke:#000000;stroke-width:0.8;" x="221.813533" xlink:href="#m08e1909134" y="191.08974"/>
      </g>
     </g>
     <g id="text_3">
      <!-- 3.75 -->
      <g transform="translate(215.892618 219.206821)rotate(-45)scale(0.1 -0.1)">
       <defs>
        <path d="M 40.578125 39.3125 
Q 47.65625 37.796875 51.625 33 
Q 55.609375 28.21875 55.609375 21.1875 
Q 55.609375 10.40625 48.1875 4.484375 
Q 40.765625 -1.421875 27.09375 -1.421875 
Q 22.515625 -1.421875 17.65625 -0.515625 
Q 12.796875 0.390625 7.625 2.203125 
L 7.625 11.71875 
Q 11.71875 9.328125 16.59375 8.109375 
Q 21.484375 6.890625 26.8125 6.890625 
Q 36.078125 6.890625 40.9375 10.546875 
Q 45.796875 14.203125 45.796875 21.1875 
Q 45.796875 27.640625 41.28125 31.265625 
Q 36.765625 34.90625 28.71875 34.90625 
L 20.21875 34.90625 
L 20.21875 43.015625 
L 29.109375 43.015625 
Q 36.375 43.015625 40.234375 45.921875 
Q 44.09375 48.828125 44.09375 54.296875 
Q 44.09375 59.90625 40.109375 62.90625 
Q 36.140625 65.921875 28.71875 65.921875 
Q 24.65625 65.921875 20.015625 65.03125 
Q 15.375 64.15625 9.8125 62.3125 
L 9.8125 71.09375 
Q 15.4375 72.65625 20.34375 73.4375 
Q 25.25 74.21875 29.59375 74.21875 
Q 40.828125 74.21875 47.359375 69.109375 
Q 53.90625 64.015625 53.90625 55.328125 
Q 53.90625 49.265625 50.4375 45.09375 
Q 46.96875 40.921875 40.578125 39.3125 
z
" id="DejaVuSans-51"/>
        <path d="M 8.203125 72.90625 
L 55.078125 72.90625 
L 55.078125 68.703125 
L 28.609375 0 
L 18.3125 0 
L 43.21875 64.59375 
L 8.203125 64.59375 
z
" id="DejaVuSans-55"/>
       </defs>
       <use xlink:href="#DejaVuSans-51"/>
       <use x="63.623047" xlink:href="#DejaVuSans-46"/>
       <use x="95.410156" xlink:href="#DejaVuSans-55"/>
       <use x="159.033203" xlink:href="#DejaVuSans-53"/>
      </g>
     </g>
    </g>
    <g id="xtick_4">
     <g id="line2d_7">
      <path clip-path="url(#pab3a1d39c9)" d="M 247.311337 191.08974 
L 247.311337 42.3 
" style="fill:none;stroke:#b0b0b0;stroke-dasharray:2.96,1.28;stroke-dashoffset:0;stroke-width:0.8;"/>
     </g>
     <g id="line2d_8">
      <g>
       <use style="stroke:#000000;stroke-width:0.8;" x="247.311337" xlink:href="#m08e1909134" y="191.08974"/>
      </g>
     </g>
     <g id="text_4">
      <!-- 4.25 -->
      <g transform="translate(241.390423 219.206821)rotate(-45)scale(0.1 -0.1)">
       <defs>
        <path d="M 37.796875 64.3125 
L 12.890625 25.390625 
L 37.796875 25.390625 
z
M 35.203125 72.90625 
L 47.609375 72.90625 
L 47.609375 25.390625 
L 58.015625 25.390625 
L 58.015625 17.1875 
L 47.609375 17.1875 
L 47.609375 0 
L 37.796875 0 
L 37.796875 17.1875 
L 4.890625 17.1875 
L 4.890625 26.703125 
z
" id="DejaVuSans-52"/>
       </defs>
       <use xlink:href="#DejaVuSans-52"/>
       <use x="63.623047" xlink:href="#DejaVuSans-46"/>
       <use x="95.410156" xlink:href="#DejaVuSans-50"/>
       <use x="159.033203" xlink:href="#DejaVuSans-53"/>
      </g>
     </g>
    </g>
    <g id="xtick_5">
     <g id="line2d_9">
      <path clip-path="url(#pab3a1d39c9)" d="M 425.795968 191.08974 
L 425.795968 42.3 
" style="fill:none;stroke:#b0b0b0;stroke-dasharray:2.96,1.28;stroke-dashoffset:0;stroke-width:0.8;"/>
     </g>
     <g id="line2d_10">
      <g>
       <use style="stroke:#000000;stroke-width:0.8;" x="425.795968" xlink:href="#m08e1909134" y="191.08974"/>
      </g>
     </g>
     <g id="text_5">
      <!-- 7.75 -->
      <g transform="translate(419.875054 219.206821)rotate(-45)scale(0.1 -0.1)">
       <use xlink:href="#DejaVuSans-55"/>
       <use x="63.623047" xlink:href="#DejaVuSans-46"/>
       <use x="95.410156" xlink:href="#DejaVuSans-55"/>
       <use x="159.033203" xlink:href="#DejaVuSans-53"/>
      </g>
     </g>
    </g>
    <g id="xtick_6">
     <g id="line2d_11">
      <path clip-path="url(#pab3a1d39c9)" d="M 438.54487 191.08974 
L 438.54487 42.3 
" style="fill:none;stroke:#b0b0b0;stroke-dasharray:2.96,1.28;stroke-dashoffset:0;stroke-width:0.8;"/>
     </g>
     <g id="line2d_12">
      <g>
       <use style="stroke:#000000;stroke-width:0.8;" x="438.54487" xlink:href="#m08e1909134" y="191.08974"/>
      </g>
     </g>
     <g id="text_6">
      <!-- 8.00 -->
      <g transform="translate(432.623956 219.206821)rotate(-45)scale(0.1 -0.1)">
       <defs>
        <path d="M 31.78125 34.625 
Q 24.75 34.625 20.71875 30.859375 
Q 16.703125 27.09375 16.703125 20.515625 
Q 16.703125 13.921875 20.71875 10.15625 
Q 24.75 6.390625 31.78125 6.390625 
Q 38.8125 6.390625 42.859375 10.171875 
Q 46.921875 13.96875 46.921875 20.515625 
Q 46.921875 27.09375 42.890625 30.859375 
Q 38.875 34.625 31.78125 34.625 
z
M 21.921875 38.8125 
Q 15.578125 40.375 12.03125 44.71875 
Q 8.5 49.078125 8.5 55.328125 
Q 8.5 64.0625 14.71875 69.140625 
Q 20.953125 74.21875 31.78125 74.21875 
Q 42.671875 74.21875 48.875 69.140625 
Q 55.078125 64.0625 55.078125 55.328125 
Q 55.078125 49.078125 51.53125 44.71875 
Q 48 40.375 41.703125 38.8125 
Q 48.828125 37.15625 52.796875 32.3125 
Q 56.78125 27.484375 56.78125 20.515625 
Q 56.78125 9.90625 50.3125 4.234375 
Q 43.84375 -1.421875 31.78125 -1.421875 
Q 19.734375 -1.421875 13.25 4.234375 
Q 6.78125 9.90625 6.78125 20.515625 
Q 6.78125 27.484375 10.78125 32.3125 
Q 14.796875 37.15625 21.921875 38.8125 
z
M 18.3125 54.390625 
Q 18.3125 48.734375 21.84375 45.5625 
Q 25.390625 42.390625 31.78125 42.390625 
Q 38.140625 42.390625 41.71875 45.5625 
Q 45.3125 48.734375 45.3125 54.390625 
Q 45.3125 60.0625 41.71875 63.234375 
Q 38.140625 66.40625 31.78125 66.40625 
Q 25.390625 66.40625 21.84375 63.234375 
Q 18.3125 60.0625 18.3125 54.390625 
z
" id="DejaVuSans-56"/>
       </defs>
       <use xlink:href="#DejaVuSans-56"/>
       <use x="63.623047" xlink:href="#DejaVuSans-46"/>
       <use x="95.410156" xlink:href="#DejaVuSans-48"/>
       <use x="159.033203" xlink:href="#DejaVuSans-48"/>
      </g>
     </g>
    </g>
    <g id="text_7">
     <!-- Orbit Position $s$ / m -->
     <g transform="translate(186.862435 232.27582)scale(0.1 -0.1)">
      <defs>
       <path d="M 39.40625 66.21875 
Q 28.65625 66.21875 22.328125 58.203125 
Q 16.015625 50.203125 16.015625 36.375 
Q 16.015625 22.609375 22.328125 14.59375 
Q 28.65625 6.59375 39.40625 6.59375 
Q 50.140625 6.59375 56.421875 14.59375 
Q 62.703125 22.609375 62.703125 36.375 
Q 62.703125 50.203125 56.421875 58.203125 
Q 50.140625 66.21875 39.40625 66.21875 
z
M 39.40625 74.21875 
Q 54.734375 74.21875 63.90625 63.9375 
Q 73.09375 53.65625 73.09375 36.375 
Q 73.09375 19.140625 63.90625 8.859375 
Q 54.734375 -1.421875 39.40625 -1.421875 
Q 24.03125 -1.421875 14.8125 8.828125 
Q 5.609375 19.09375 5.609375 36.375 
Q 5.609375 53.65625 14.8125 63.9375 
Q 24.03125 74.21875 39.40625 74.21875 
z
" id="DejaVuSans-79"/>
       <path d="M 41.109375 46.296875 
Q 39.59375 47.171875 37.8125 47.578125 
Q 36.03125 48 33.890625 48 
Q 26.265625 48 22.1875 43.046875 
Q 18.109375 38.09375 18.109375 28.8125 
L 18.109375 0 
L 9.078125 0 
L 9.078125 54.6875 
L 18.109375 54.6875 
L 18.109375 46.1875 
Q 20.953125 51.171875 25.484375 53.578125 
Q 30.03125 56 36.53125 56 
Q 37.453125 56 38.578125 55.875 
Q 39.703125 55.765625 41.0625 55.515625 
z
" id="DejaVuSans-114"/>
       <path d="M 48.6875 27.296875 
Q 48.6875 37.203125 44.609375 42.84375 
Q 40.53125 48.484375 33.40625 48.484375 
Q 26.265625 48.484375 22.1875 42.84375 
Q 18.109375 37.203125 18.109375 27.296875 
Q 18.109375 17.390625 22.1875 11.75 
Q 26.265625 6.109375 33.40625 6.109375 
Q 40.53125 6.109375 44.609375 11.75 
Q 48.6875 17.390625 48.6875 27.296875 
z
M 18.109375 46.390625 
Q 20.953125 51.265625 25.265625 53.625 
Q 29.59375 56 35.59375 56 
Q 45.5625 56 51.78125 48.09375 
Q 58.015625 40.1875 58.015625 27.296875 
Q 58.015625 14.40625 51.78125 6.484375 
Q 45.5625 -1.421875 35.59375 -1.421875 
Q 29.59375 -1.421875 25.265625 0.953125 
Q 20.953125 3.328125 18.109375 8.203125 
L 18.109375 0 
L 9.078125 0 
L 9.078125 75.984375 
L 18.109375 75.984375 
z
" id="DejaVuSans-98"/>
       <path d="M 9.421875 54.6875 
L 18.40625 54.6875 
L 18.40625 0 
L 9.421875 0 
z
M 9.421875 75.984375 
L 18.40625 75.984375 
L 18.40625 64.59375 
L 9.421875 64.59375 
z
" id="DejaVuSans-105"/>
       <path d="M 18.3125 70.21875 
L 18.3125 54.6875 
L 36.8125 54.6875 
L 36.8125 47.703125 
L 18.3125 47.703125 
L 18.3125 18.015625 
Q 18.3125 11.328125 20.140625 9.421875 
Q 21.96875 7.515625 27.59375 7.515625 
L 36.8125 7.515625 
L 36.8125 0 
L 27.59375 0 
Q 17.1875 0 13.234375 3.875 
Q 9.28125 7.765625 9.28125 18.015625 
L 9.28125 47.703125 
L 2.6875 47.703125 
L 2.6875 54.6875 
L 9.28125 54.6875 
L 9.28125 70.21875 
z
" id="DejaVuSans-116"/>
       <path id="DejaVuSans-32"/>
       <path d="M 19.671875 64.796875 
L 19.671875 37.40625 
L 32.078125 37.40625 
Q 38.96875 37.40625 42.71875 40.96875 
Q 46.484375 44.53125 46.484375 51.125 
Q 46.484375 57.671875 42.71875 61.234375 
Q 38.96875 64.796875 32.078125 64.796875 
z
M 9.8125 72.90625 
L 32.078125 72.90625 
Q 44.34375 72.90625 50.609375 67.359375 
Q 56.890625 61.8125 56.890625 51.125 
Q 56.890625 40.328125 50.609375 34.8125 
Q 44.34375 29.296875 32.078125 29.296875 
L 19.671875 29.296875 
L 19.671875 0 
L 9.8125 0 
z
" id="DejaVuSans-80"/>
       <path d="M 30.609375 48.390625 
Q 23.390625 48.390625 19.1875 42.75 
Q 14.984375 37.109375 14.984375 27.296875 
Q 14.984375 17.484375 19.15625 11.84375 
Q 23.34375 6.203125 30.609375 6.203125 
Q 37.796875 6.203125 41.984375 11.859375 
Q 46.1875 17.53125 46.1875 27.296875 
Q 46.1875 37.015625 41.984375 42.703125 
Q 37.796875 48.390625 30.609375 48.390625 
z
M 30.609375 56 
Q 42.328125 56 49.015625 48.375 
Q 55.71875 40.765625 55.71875 27.296875 
Q 55.71875 13.875 49.015625 6.21875 
Q 42.328125 -1.421875 30.609375 -1.421875 
Q 18.84375 -1.421875 12.171875 6.21875 
Q 5.515625 13.875 5.515625 27.296875 
Q 5.515625 40.765625 12.171875 48.375 
Q 18.84375 56 30.609375 56 
z
" id="DejaVuSans-111"/>
       <path d="M 44.28125 53.078125 
L 44.28125 44.578125 
Q 40.484375 46.53125 36.375 47.5 
Q 32.28125 48.484375 27.875 48.484375 
Q 21.1875 48.484375 17.84375 46.4375 
Q 14.5 44.390625 14.5 40.28125 
Q 14.5 37.15625 16.890625 35.375 
Q 19.28125 33.59375 26.515625 31.984375 
L 29.59375 31.296875 
Q 39.15625 29.25 43.1875 25.515625 
Q 47.21875 21.78125 47.21875 15.09375 
Q 47.21875 7.46875 41.1875 3.015625 
Q 35.15625 -1.421875 24.609375 -1.421875 
Q 20.21875 -1.421875 15.453125 -0.5625 
Q 10.6875 0.296875 5.421875 2 
L 5.421875 11.28125 
Q 10.40625 8.6875 15.234375 7.390625 
Q 20.0625 6.109375 24.8125 6.109375 
Q 31.15625 6.109375 34.5625 8.28125 
Q 37.984375 10.453125 37.984375 14.40625 
Q 37.984375 18.0625 35.515625 20.015625 
Q 33.0625 21.96875 24.703125 23.78125 
L 21.578125 24.515625 
Q 13.234375 26.265625 9.515625 29.90625 
Q 5.8125 33.546875 5.8125 39.890625 
Q 5.8125 47.609375 11.28125 51.796875 
Q 16.75 56 26.8125 56 
Q 31.78125 56 36.171875 55.265625 
Q 40.578125 54.546875 44.28125 53.078125 
z
" id="DejaVuSans-115"/>
       <path d="M 54.890625 33.015625 
L 54.890625 0 
L 45.90625 0 
L 45.90625 32.71875 
Q 45.90625 40.484375 42.875 44.328125 
Q 39.84375 48.1875 33.796875 48.1875 
Q 26.515625 48.1875 22.3125 43.546875 
Q 18.109375 38.921875 18.109375 30.90625 
L 18.109375 0 
L 9.078125 0 
L 9.078125 54.6875 
L 18.109375 54.6875 
L 18.109375 46.1875 
Q 21.34375 51.125 25.703125 53.5625 
Q 30.078125 56 35.796875 56 
Q 45.21875 56 50.046875 50.171875 
Q 54.890625 44.34375 54.890625 33.015625 
z
" id="DejaVuSans-110"/>
       <path d="M 50 53.078125 
L 48.296875 44.578125 
Q 44.734375 46.53125 40.765625 47.5 
Q 36.8125 48.484375 32.625 48.484375 
Q 25.53125 48.484375 21.453125 46.0625 
Q 17.390625 43.65625 17.390625 39.5 
Q 17.390625 34.671875 26.859375 32.078125 
Q 27.59375 31.890625 27.9375 31.78125 
L 30.8125 30.90625 
Q 39.796875 28.421875 42.796875 25.6875 
Q 45.796875 22.953125 45.796875 18.21875 
Q 45.796875 9.515625 38.890625 4.046875 
Q 31.984375 -1.421875 20.796875 -1.421875 
Q 16.453125 -1.421875 11.671875 -0.578125 
Q 6.890625 0.25 1.125 2 
L 2.875 11.28125 
Q 7.8125 8.734375 12.59375 7.421875 
Q 17.390625 6.109375 21.78125 6.109375 
Q 28.375 6.109375 32.5 8.9375 
Q 36.625 11.765625 36.625 16.109375 
Q 36.625 20.796875 25.78125 23.6875 
L 24.859375 23.921875 
L 21.78125 24.703125 
Q 14.9375 26.515625 11.765625 29.46875 
Q 8.59375 32.421875 8.59375 37.015625 
Q 8.59375 45.75 15.15625 50.875 
Q 21.734375 56 33.015625 56 
Q 37.453125 56 41.671875 55.265625 
Q 45.90625 54.546875 50 53.078125 
z
" id="DejaVuSans-Oblique-115"/>
       <path d="M 25.390625 72.90625 
L 33.6875 72.90625 
L 8.296875 -9.28125 
L 0 -9.28125 
z
" id="DejaVuSans-47"/>
       <path d="M 52 44.1875 
Q 55.375 50.25 60.0625 53.125 
Q 64.75 56 71.09375 56 
Q 79.640625 56 84.28125 50.015625 
Q 88.921875 44.046875 88.921875 33.015625 
L 88.921875 0 
L 79.890625 0 
L 79.890625 32.71875 
Q 79.890625 40.578125 77.09375 44.375 
Q 74.3125 48.1875 68.609375 48.1875 
Q 61.625 48.1875 57.5625 43.546875 
Q 53.515625 38.921875 53.515625 30.90625 
L 53.515625 0 
L 44.484375 0 
L 44.484375 32.71875 
Q 44.484375 40.625 41.703125 44.40625 
Q 38.921875 48.1875 33.109375 48.1875 
Q 26.21875 48.1875 22.15625 43.53125 
Q 18.109375 38.875 18.109375 30.90625 
L 18.109375 0 
L 9.078125 0 
L 9.078125 54.6875 
L 18.109375 54.6875 
L 18.109375 46.1875 
Q 21.1875 51.21875 25.484375 53.609375 
Q 29.78125 56 35.6875 56 
Q 41.65625 56 45.828125 52.96875 
Q 50 49.953125 52 44.1875 
z
" id="DejaVuSans-109"/>
      </defs>
      <use transform="translate(0 0.015625)" xlink:href="#DejaVuSans-79"/>
      <use transform="translate(78.710938 0.015625)" xlink:href="#DejaVuSans-114"/>
      <use transform="translate(119.824219 0.015625)" xlink:href="#DejaVuSans-98"/>
      <use transform="translate(183.300781 0.015625)" xlink:href="#DejaVuSans-105"/>
      <use transform="translate(211.083984 0.015625)" xlink:href="#DejaVuSans-116"/>
      <use transform="translate(250.292969 0.015625)" xlink:href="#DejaVuSans-32"/>
      <use transform="translate(282.080078 0.015625)" xlink:href="#DejaVuSans-80"/>
      <use transform="translate(342.382812 0.015625)" xlink:href="#DejaVuSans-111"/>
      <use transform="translate(403.564453 0.015625)" xlink:href="#DejaVuSans-115"/>
      <use transform="translate(455.664062 0.015625)" xlink:href="#DejaVuSans-105"/>
      <use transform="translate(483.447266 0.015625)" xlink:href="#DejaVuSans-116"/>
      <use transform="translate(522.65625 0.015625)" xlink:href="#DejaVuSans-105"/>
      <use transform="translate(550.439453 0.015625)" xlink:href="#DejaVuSans-111"/>
      <use transform="translate(611.621094 0.015625)" xlink:href="#DejaVuSans-110"/>
      <use transform="translate(675 0.015625)" xlink:href="#DejaVuSans-32"/>
      <use transform="translate(706.787109 0.015625)" xlink:href="#DejaVuSans-Oblique-115"/>
      <use transform="translate(758.886719 0.015625)" xlink:href="#DejaVuSans-32"/>
      <use transform="translate(790.673828 0.015625)" xlink:href="#DejaVuSans-47"/>
      <use transform="translate(824.365234 0.015625)" xlink:href="#DejaVuSans-32"/>
      <use transform="translate(856.152344 0.015625)" xlink:href="#DejaVuSans-109"/>
     </g>
    </g>
   </g>
   <g id="matplotlib.axis_2">
    <g id="ytick_1">
     <g id="line2d_13">
      <path clip-path="url(#pab3a1d39c9)" d="M 30.58 184.004515 
L 438.54487 184.004515 
" style="fill:none;stroke:#b0b0b0;stroke-dasharray:2.96,1.28;stroke-dashoffset:0;stroke-width:0.8;"/>
     </g>
     <g id="line2d_14">
      <defs>
       <path d="M 0 0 
L -3.5 0 
" id="m7d15c261d1" style="stroke:#000000;stroke-width:0.8;"/>
      </defs>
      <g>
       <use style="stroke:#000000;stroke-width:0.8;" x="30.58" xlink:href="#m7d15c261d1" y="184.004515"/>
      </g>
     </g>
     <g id="text_8">
      <!-- 0 -->
      <g transform="translate(17.2175 187.803733)scale(0.1 -0.1)">
       <use xlink:href="#DejaVuSans-48"/>
      </g>
     </g>
    </g>
    <g id="ytick_2">
     <g id="line2d_15">
      <path clip-path="url(#pab3a1d39c9)" d="M 30.58 148.578386 
L 438.54487 148.578386 
" style="fill:none;stroke:#b0b0b0;stroke-dasharray:2.96,1.28;stroke-dashoffset:0;stroke-width:0.8;"/>
     </g>
     <g id="line2d_16">
      <g>
       <use style="stroke:#000000;stroke-width:0.8;" x="30.58" xlink:href="#m7d15c261d1" y="148.578386"/>
      </g>
     </g>
     <g id="text_9">
      <!-- 5 -->
      <g transform="translate(17.2175 152.377605)scale(0.1 -0.1)">
       <use xlink:href="#DejaVuSans-53"/>
      </g>
     </g>
    </g>
    <g id="ytick_3">
     <g id="line2d_17">
      <path clip-path="url(#pab3a1d39c9)" d="M 30.58 113.152257 
L 438.54487 113.152257 
" style="fill:none;stroke:#b0b0b0;stroke-dasharray:2.96,1.28;stroke-dashoffset:0;stroke-width:0.8;"/>
     </g>
     <g id="line2d_18">
      <g>
       <use style="stroke:#000000;stroke-width:0.8;" x="30.58" xlink:href="#m7d15c261d1" y="113.152257"/>
      </g>
     </g>
     <g id="text_10">
      <!-- 10 -->
      <g transform="translate(10.855 116.951476)scale(0.1 -0.1)">
       <defs>
        <path d="M 12.40625 8.296875 
L 28.515625 8.296875 
L 28.515625 63.921875 
L 10.984375 60.40625 
L 10.984375 69.390625 
L 28.421875 72.90625 
L 38.28125 72.90625 
L 38.28125 8.296875 
L 54.390625 8.296875 
L 54.390625 0 
L 12.40625 0 
z
" id="DejaVuSans-49"/>
       </defs>
       <use xlink:href="#DejaVuSans-49"/>
       <use x="63.623047" xlink:href="#DejaVuSans-48"/>
      </g>
     </g>
    </g>
    <g id="ytick_4">
     <g id="line2d_19">
      <path clip-path="url(#pab3a1d39c9)" d="M 30.58 77.726129 
L 438.54487 77.726129 
" style="fill:none;stroke:#b0b0b0;stroke-dasharray:2.96,1.28;stroke-dashoffset:0;stroke-width:0.8;"/>
     </g>
     <g id="line2d_20">
      <g>
       <use style="stroke:#000000;stroke-width:0.8;" x="30.58" xlink:href="#m7d15c261d1" y="77.726129"/>
      </g>
     </g>
     <g id="text_11">
      <!-- 15 -->
      <g transform="translate(10.855 81.525347)scale(0.1 -0.1)">
       <use xlink:href="#DejaVuSans-49"/>
       <use x="63.623047" xlink:href="#DejaVuSans-53"/>
      </g>
     </g>
    </g>
    <g id="ytick_5">
     <g id="line2d_21">
      <path clip-path="url(#pab3a1d39c9)" d="M 30.58 42.3 
L 438.54487 42.3 
" style="fill:none;stroke:#b0b0b0;stroke-dasharray:2.96,1.28;stroke-dashoffset:0;stroke-width:0.8;"/>
     </g>
     <g id="line2d_22">
      <g>
       <use style="stroke:#000000;stroke-width:0.8;" x="30.58" xlink:href="#m7d15c261d1" y="42.3"/>
      </g>
     </g>
     <g id="text_12">
      <!-- 20 -->
      <g transform="translate(10.855 46.099219)scale(0.1 -0.1)">
       <use xlink:href="#DejaVuSans-50"/>
       <use x="63.623047" xlink:href="#DejaVuSans-48"/>
      </g>
     </g>
    </g>
   </g>
   <g id="patch_3">
    <path d="M 30.58 191.08974 
L 30.58 42.3 
" style="fill:none;stroke:#000000;stroke-linecap:square;stroke-linejoin:miter;stroke-width:0.8;"/>
   </g>
   <g id="patch_4">
    <path d="M 438.54487 191.08974 
L 438.54487 42.3 
" style="fill:none;stroke:#000000;stroke-linecap:square;stroke-linejoin:miter;stroke-width:0.8;"/>
   </g>
   <g id="patch_5">
    <path d="M 30.58 191.08974 
L 438.54487 191.08974 
" style="fill:none;stroke:#000000;stroke-linecap:square;stroke-linejoin:miter;stroke-width:0.8;"/>
   </g>
   <g id="patch_6">
    <path d="M 30.58 42.3 
L 438.54487 42.3 
" style="fill:none;stroke:#000000;stroke-linecap:square;stroke-linejoin:miter;stroke-width:0.8;"/>
   </g>
   <g id="line2d_23">
    <path clip-path="url(#pab3a1d39c9)" d="M 30.58 184.004515 
L 31.85489 184.004515 
L 33.12978 184.004515 
L 34.404671 184.004515 
L 35.679561 184.004515 
L 36.954451 184.004515 
L 38.229341 184.004515 
L 39.504232 184.004515 
L 40.779122 184.004515 
L 42.054012 184.004515 
L 43.328902 184.004515 
L 61.177365 184.004515 
L 79.025828 184.004515 
L 96.874291 184.004515 
L 114.722754 184.004515 
L 132.571218 184.004515 
L 150.419681 184.004515 
L 168.268144 184.004515 
L 186.116607 184.004515 
L 203.96507 184.004515 
L 221.813533 184.004515 
L 224.363313 184.004515 
L 226.913094 184.004515 
L 229.462874 184.004515 
L 232.012655 184.004515 
L 234.562435 184.004515 
L 237.112216 184.004515 
L 239.661996 184.004515 
L 242.211776 184.004515 
L 244.761557 184.004515 
L 247.311337 184.004515 
L 265.1598 184.004515 
L 283.008263 184.004515 
L 300.856726 184.004515 
L 318.70519 184.004515 
L 336.553653 184.004515 
L 354.402116 184.004515 
L 372.250579 184.004515 
L 390.099042 184.004515 
L 407.947505 184.004515 
L 425.795968 184.004515 
L 427.070858 184.004515 
L 428.345748 184.004515 
L 429.620639 184.004515 
L 430.895529 184.004515 
L 432.170419 184.004515 
L 433.445309 184.004515 
L 434.720199 184.004515 
L 435.99509 184.004515 
L 437.26998 184.004515 
L 438.54487 184.004515 
" style="fill:none;stroke:#3cb371;stroke-linecap:square;stroke-width:1.3;"/>
   </g>
   <g id="line2d_24">
    <path clip-path="url(#pab3a1d39c9)" d="M 30.58 170.314546 
L 31.85489 170.305408 
L 33.12978 170.277975 
L 34.404671 170.232191 
L 35.679561 170.167967 
L 36.954451 170.085172 
L 38.229341 169.983642 
L 39.504232 169.863174 
L 40.779122 169.723525 
L 42.054012 169.564418 
L 43.328902 169.385534 
L 61.177365 166.200843 
L 79.025828 161.935664 
L 96.874291 156.589996 
L 114.722754 150.163838 
L 132.571218 142.657191 
L 150.419681 134.070055 
L 168.268144 124.40243 
L 186.116607 113.654316 
L 203.96507 101.825713 
L 221.813533 88.91662 
L 224.363313 87.176878 
L 226.913094 85.809107 
L 229.462874 84.824241 
L 232.012655 84.230154 
L 234.562435 84.031596 
L 237.112216 84.230154 
L 239.661996 84.824241 
L 242.211776 85.809107 
L 244.761557 87.176878 
L 247.311337 88.91662 
L 265.1598 101.825713 
L 283.008263 113.654316 
L 300.856726 124.40243 
L 318.70519 134.070055 
L 336.553653 142.657191 
L 354.402116 150.163838 
L 372.250579 156.589996 
L 390.099042 161.935664 
L 407.947505 166.200843 
L 425.795968 169.385534 
L 427.070858 169.564418 
L 428.345748 169.723525 
L 429.620639 169.863174 
L 430.895529 169.983642 
L 432.170419 170.085172 
L 433.445309 170.167967 
L 434.720199 170.232191 
L 435.99509 170.277975 
L 437.26998 170.305408 
L 438.54487 170.314546 
" style="fill:none;stroke:#1e90ff;stroke-linecap:square;stroke-width:1.3;"/>
   </g>
   <g id="patch_7">
    <path d="M 30.58 44.62484 
L 43.328902 44.62484 
L 43.328902 39.97516 
L 30.58 39.97516 
z
" style="fill:#dc143c;"/>
   </g>
   <g id="patch_8">
    <path d="M 221.813533 44.62484 
L 247.311337 44.62484 
L 247.311337 39.97516 
L 221.813533 39.97516 
z
" style="fill:#dc143c;"/>
   </g>
   <g id="patch_9">
    <path d="M 425.795968 44.62484 
L 438.54487 44.62484 
L 438.54487 39.97516 
L 425.795968 39.97516 
z
" style="fill:#dc143c;"/>
   </g>
   <g id="line2d_25">
    <path clip-path="url(#pab3a1d39c9)" d="M 30.58 84.031596 
L 31.85489 84.08126 
L 33.12978 84.230154 
L 34.404671 84.477979 
L 35.679561 84.824241 
L 36.954451 85.268246 
L 38.229341 85.809107 
L 39.504232 86.445742 
L 40.779122 87.176878 
L 42.054012 88.001054 
L 43.328902 88.91662 
L 61.177365 101.825713 
L 79.025828 113.654316 
L 96.874291 124.40243 
L 114.722754 134.070055 
L 132.571218 142.657191 
L 150.419681 150.163838 
L 168.268144 156.589996 
L 186.116607 161.935664 
L 203.96507 166.200843 
L 221.813533 169.385534 
L 224.363313 169.723525 
L 226.913094 169.983642 
L 229.462874 170.167967 
L 232.012655 170.277975 
L 234.562435 170.314546 
L 237.112216 170.277975 
L 239.661996 170.167967 
L 242.211776 169.983642 
L 244.761557 169.723525 
L 247.311337 169.385534 
L 265.1598 166.200843 
L 283.008263 161.935664 
L 300.856726 156.589996 
L 318.70519 150.163838 
L 336.553653 142.657191 
L 354.402116 134.070055 
L 372.250579 124.40243 
L 390.099042 113.654316 
L 407.947505 101.825713 
L 425.795968 88.91662 
L 427.070858 88.001054 
L 428.345748 87.176878 
L 429.620639 86.445742 
L 430.895529 85.809107 
L 432.170419 85.268246 
L 433.445309 84.824241 
L 434.720199 84.477979 
L 435.99509 84.230154 
L 437.26998 84.08126 
L 438.54487 84.031596 
" style="fill:none;stroke:#dc143c;stroke-linecap:square;stroke-width:1.3;"/>
   </g>
   <g id="text_13">
    <!-- q1 -->
    <g transform="translate(31.870076 39.47383)scale(0.08 -0.08)">
     <defs>
      <path d="M 14.796875 27.296875 
Q 14.796875 17.390625 18.875 11.75 
Q 22.953125 6.109375 30.078125 6.109375 
Q 37.203125 6.109375 41.296875 11.75 
Q 45.40625 17.390625 45.40625 27.296875 
Q 45.40625 37.203125 41.296875 42.84375 
Q 37.203125 48.484375 30.078125 48.484375 
Q 22.953125 48.484375 18.875 42.84375 
Q 14.796875 37.203125 14.796875 27.296875 
z
M 45.40625 8.203125 
Q 42.578125 3.328125 38.25 0.953125 
Q 33.9375 -1.421875 27.875 -1.421875 
Q 17.96875 -1.421875 11.734375 6.484375 
Q 5.515625 14.40625 5.515625 27.296875 
Q 5.515625 40.1875 11.734375 48.09375 
Q 17.96875 56 27.875 56 
Q 33.9375 56 38.25 53.625 
Q 42.578125 51.265625 45.40625 46.390625 
L 45.40625 54.6875 
L 54.390625 54.6875 
L 54.390625 -20.796875 
L 45.40625 -20.796875 
z
" id="DejaVuSans-113"/>
     </defs>
     <use xlink:href="#DejaVuSans-113"/>
     <use x="63.476562" xlink:href="#DejaVuSans-49"/>
    </g>
   </g>
   <g id="text_14">
    <!-- q2 -->
    <g transform="translate(229.47806 39.47383)scale(0.08 -0.08)">
     <use xlink:href="#DejaVuSans-113"/>
     <use x="63.476562" xlink:href="#DejaVuSans-50"/>
    </g>
   </g>
   <g id="text_15">
    <!-- q1 -->
    <g transform="translate(427.086044 39.47383)scale(0.08 -0.08)">
     <use xlink:href="#DejaVuSans-113"/>
     <use x="63.476562" xlink:href="#DejaVuSans-49"/>
    </g>
   </g>
  </g>
  <g id="axes_2">
   <g id="patch_10">
    <path d="M 30.58 404.56974 
L 438.54487 404.56974 
L 438.54487 255.78 
L 30.58 255.78 
z
" style="fill:#ffffff;"/>
   </g>
   <g id="matplotlib.axis_3">
    <g id="xtick_7">
     <g id="line2d_26">
      <path clip-path="url(#pc4833454a1)" d="M 30.58 404.56974 
L 30.58 255.78 
" style="fill:none;stroke:#b0b0b0;stroke-dasharray:2.96,1.28;stroke-dashoffset:0;stroke-width:0.8;"/>
     </g>
     <g id="line2d_27">
      <g>
       <use style="stroke:#000000;stroke-width:0.8;" x="30.58" xlink:href="#m08e1909134" y="404.56974"/>
      </g>
     </g>
     <g id="text_16">
      <!-- 0.00 -->
      <g transform="translate(24.659086 432.686821)rotate(-45)scale(0.1 -0.1)">
       <use xlink:href="#DejaVuSans-48"/>
       <use x="63.623047" xlink:href="#DejaVuSans-46"/>
       <use x="95.410156" xlink:href="#DejaVuSans-48"/>
       <use x="159.033203" xlink:href="#DejaVuSans-48"/>
      </g>
     </g>
    </g>
    <g id="xtick_8">
     <g id="line2d_28">
      <path clip-path="url(#pc4833454a1)" d="M 43.328902 404.56974 
L 43.328902 255.78 
" style="fill:none;stroke:#b0b0b0;stroke-dasharray:2.96,1.28;stroke-dashoffset:0;stroke-width:0.8;"/>
     </g>
     <g id="line2d_29">
      <g>
       <use style="stroke:#000000;stroke-width:0.8;" x="43.328902" xlink:href="#m08e1909134" y="404.56974"/>
      </g>
     </g>
     <g id="text_17">
      <!-- 0.25 -->
      <g transform="translate(37.407988 432.686821)rotate(-45)scale(0.1 -0.1)">
       <use xlink:href="#DejaVuSans-48"/>
       <use x="63.623047" xlink:href="#DejaVuSans-46"/>
       <use x="95.410156" xlink:href="#DejaVuSans-50"/>
       <use x="159.033203" xlink:href="#DejaVuSans-53"/>
      </g>
     </g>
    </g>
    <g id="xtick_9">
     <g id="line2d_30">
      <path clip-path="url(#pc4833454a1)" d="M 94.324511 404.56974 
L 94.324511 255.78 
" style="fill:none;stroke:#b0b0b0;stroke-dasharray:2.96,1.28;stroke-dashoffset:0;stroke-width:0.8;"/>
     </g>
     <g id="line2d_31">
      <g>
       <use style="stroke:#000000;stroke-width:0.8;" x="94.324511" xlink:href="#m08e1909134" y="404.56974"/>
      </g>
     </g>
     <g id="text_18">
      <!-- 1.25 -->
      <g transform="translate(88.403597 432.686821)rotate(-45)scale(0.1 -0.1)">
       <use xlink:href="#DejaVuSans-49"/>
       <use x="63.623047" xlink:href="#DejaVuSans-46"/>
       <use x="95.410156" xlink:href="#DejaVuSans-50"/>
       <use x="159.033203" xlink:href="#DejaVuSans-53"/>
      </g>
     </g>
    </g>
    <g id="xtick_10">
     <g id="line2d_32">
      <path clip-path="url(#pc4833454a1)" d="M 170.817924 404.56974 
L 170.817924 255.78 
" style="fill:none;stroke:#b0b0b0;stroke-dasharray:2.96,1.28;stroke-dashoffset:0;stroke-width:0.8;"/>
     </g>
     <g id="line2d_33">
      <g>
       <use style="stroke:#000000;stroke-width:0.8;" x="170.817924" xlink:href="#m08e1909134" y="404.56974"/>
      </g>
     </g>
     <g id="text_19">
      <!-- 2.75 -->
      <g transform="translate(164.89701 432.686821)rotate(-45)scale(0.1 -0.1)">
       <use xlink:href="#DejaVuSans-50"/>
       <use x="63.623047" xlink:href="#DejaVuSans-46"/>
       <use x="95.410156" xlink:href="#DejaVuSans-55"/>
       <use x="159.033203" xlink:href="#DejaVuSans-53"/>
      </g>
     </g>
    </g>
    <g id="xtick_11">
     <g id="line2d_34">
      <path clip-path="url(#pc4833454a1)" d="M 221.813533 404.56974 
L 221.813533 255.78 
" style="fill:none;stroke:#b0b0b0;stroke-dasharray:2.96,1.28;stroke-dashoffset:0;stroke-width:0.8;"/>
     </g>
     <g id="line2d_35">
      <g>
       <use style="stroke:#000000;stroke-width:0.8;" x="221.813533" xlink:href="#m08e1909134" y="404.56974"/>
      </g>
     </g>
     <g id="text_20">
      <!-- 3.75 -->
      <g transform="translate(215.892618 432.686821)rotate(-45)scale(0.1 -0.1)">
       <use xlink:href="#DejaVuSans-51"/>
       <use x="63.623047" xlink:href="#DejaVuSans-46"/>
       <use x="95.410156" xlink:href="#DejaVuSans-55"/>
       <use x="159.033203" xlink:href="#DejaVuSans-53"/>
      </g>
     </g>
    </g>
    <g id="xtick_12">
     <g id="line2d_36">
      <path clip-path="url(#pc4833454a1)" d="M 247.311337 404.56974 
L 247.311337 255.78 
" style="fill:none;stroke:#b0b0b0;stroke-dasharray:2.96,1.28;stroke-dashoffset:0;stroke-width:0.8;"/>
     </g>
     <g id="line2d_37">
      <g>
       <use style="stroke:#000000;stroke-width:0.8;" x="247.311337" xlink:href="#m08e1909134" y="404.56974"/>
      </g>
     </g>
     <g id="text_21">
      <!-- 4.25 -->
      <g transform="translate(241.390423 432.686821)rotate(-45)scale(0.1 -0.1)">
       <use xlink:href="#DejaVuSans-52"/>
       <use x="63.623047" xlink:href="#DejaVuSans-46"/>
       <use x="95.410156" xlink:href="#DejaVuSans-50"/>
       <use x="159.033203" xlink:href="#DejaVuSans-53"/>
      </g>
     </g>
    </g>
    <g id="xtick_13">
     <g id="line2d_38">
      <path clip-path="url(#pc4833454a1)" d="M 298.306946 404.56974 
L 298.306946 255.78 
" style="fill:none;stroke:#b0b0b0;stroke-dasharray:2.96,1.28;stroke-dashoffset:0;stroke-width:0.8;"/>
     </g>
     <g id="line2d_39">
      <g>
       <use style="stroke:#000000;stroke-width:0.8;" x="298.306946" xlink:href="#m08e1909134" y="404.56974"/>
      </g>
     </g>
     <g id="text_22">
      <!-- 5.25 -->
      <g transform="translate(292.386032 432.686821)rotate(-45)scale(0.1 -0.1)">
       <use xlink:href="#DejaVuSans-53"/>
       <use x="63.623047" xlink:href="#DejaVuSans-46"/>
       <use x="95.410156" xlink:href="#DejaVuSans-50"/>
       <use x="159.033203" xlink:href="#DejaVuSans-53"/>
      </g>
     </g>
    </g>
    <g id="xtick_14">
     <g id="line2d_40">
      <path clip-path="url(#pc4833454a1)" d="M 374.800359 404.56974 
L 374.800359 255.78 
" style="fill:none;stroke:#b0b0b0;stroke-dasharray:2.96,1.28;stroke-dashoffset:0;stroke-width:0.8;"/>
     </g>
     <g id="line2d_41">
      <g>
       <use style="stroke:#000000;stroke-width:0.8;" x="374.800359" xlink:href="#m08e1909134" y="404.56974"/>
      </g>
     </g>
     <g id="text_23">
      <!-- 6.75 -->
      <g transform="translate(368.879445 432.686821)rotate(-45)scale(0.1 -0.1)">
       <defs>
        <path d="M 33.015625 40.375 
Q 26.375 40.375 22.484375 35.828125 
Q 18.609375 31.296875 18.609375 23.390625 
Q 18.609375 15.53125 22.484375 10.953125 
Q 26.375 6.390625 33.015625 6.390625 
Q 39.65625 6.390625 43.53125 10.953125 
Q 47.40625 15.53125 47.40625 23.390625 
Q 47.40625 31.296875 43.53125 35.828125 
Q 39.65625 40.375 33.015625 40.375 
z
M 52.59375 71.296875 
L 52.59375 62.3125 
Q 48.875 64.0625 45.09375 64.984375 
Q 41.3125 65.921875 37.59375 65.921875 
Q 27.828125 65.921875 22.671875 59.328125 
Q 17.53125 52.734375 16.796875 39.40625 
Q 19.671875 43.65625 24.015625 45.921875 
Q 28.375 48.1875 33.59375 48.1875 
Q 44.578125 48.1875 50.953125 41.515625 
Q 57.328125 34.859375 57.328125 23.390625 
Q 57.328125 12.15625 50.6875 5.359375 
Q 44.046875 -1.421875 33.015625 -1.421875 
Q 20.359375 -1.421875 13.671875 8.265625 
Q 6.984375 17.96875 6.984375 36.375 
Q 6.984375 53.65625 15.1875 63.9375 
Q 23.390625 74.21875 37.203125 74.21875 
Q 40.921875 74.21875 44.703125 73.484375 
Q 48.484375 72.75 52.59375 71.296875 
z
" id="DejaVuSans-54"/>
       </defs>
       <use xlink:href="#DejaVuSans-54"/>
       <use x="63.623047" xlink:href="#DejaVuSans-46"/>
       <use x="95.410156" xlink:href="#DejaVuSans-55"/>
       <use x="159.033203" xlink:href="#DejaVuSans-53"/>
      </g>
     </g>
    </g>
    <g id="xtick_15">
     <g id="line2d_42">
      <path clip-path="url(#pc4833454a1)" d="M 425.795968 404.56974 
L 425.795968 255.78 
" style="fill:none;stroke:#b0b0b0;stroke-dasharray:2.96,1.28;stroke-dashoffset:0;stroke-width:0.8;"/>
     </g>
     <g id="line2d_43">
      <g>
       <use style="stroke:#000000;stroke-width:0.8;" x="425.795968" xlink:href="#m08e1909134" y="404.56974"/>
      </g>
     </g>
     <g id="text_24">
      <!-- 7.75 -->
      <g transform="translate(419.875054 432.686821)rotate(-45)scale(0.1 -0.1)">
       <use xlink:href="#DejaVuSans-55"/>
       <use x="63.623047" xlink:href="#DejaVuSans-46"/>
       <use x="95.410156" xlink:href="#DejaVuSans-55"/>
       <use x="159.033203" xlink:href="#DejaVuSans-53"/>
      </g>
     </g>
    </g>
    <g id="xtick_16">
     <g id="line2d_44">
      <path clip-path="url(#pc4833454a1)" d="M 438.54487 404.56974 
L 438.54487 255.78 
" style="fill:none;stroke:#b0b0b0;stroke-dasharray:2.96,1.28;stroke-dashoffset:0;stroke-width:0.8;"/>
     </g>
     <g id="line2d_45">
      <g>
       <use style="stroke:#000000;stroke-width:0.8;" x="438.54487" xlink:href="#m08e1909134" y="404.56974"/>
      </g>
     </g>
     <g id="text_25">
      <!-- 8.00 -->
      <g transform="translate(432.623956 432.686821)rotate(-45)scale(0.1 -0.1)">
       <use xlink:href="#DejaVuSans-56"/>
       <use x="63.623047" xlink:href="#DejaVuSans-46"/>
       <use x="95.410156" xlink:href="#DejaVuSans-48"/>
       <use x="159.033203" xlink:href="#DejaVuSans-48"/>
      </g>
     </g>
    </g>
    <g id="text_26">
     <!-- Orbit Position $s$ / m -->
     <g transform="translate(186.862435 445.75582)scale(0.1 -0.1)">
      <use transform="translate(0 0.015625)" xlink:href="#DejaVuSans-79"/>
      <use transform="translate(78.710938 0.015625)" xlink:href="#DejaVuSans-114"/>
      <use transform="translate(119.824219 0.015625)" xlink:href="#DejaVuSans-98"/>
      <use transform="translate(183.300781 0.015625)" xlink:href="#DejaVuSans-105"/>
      <use transform="translate(211.083984 0.015625)" xlink:href="#DejaVuSans-116"/>
      <use transform="translate(250.292969 0.015625)" xlink:href="#DejaVuSans-32"/>
      <use transform="translate(282.080078 0.015625)" xlink:href="#DejaVuSans-80"/>
      <use transform="translate(342.382812 0.015625)" xlink:href="#DejaVuSans-111"/>
      <use transform="translate(403.564453 0.015625)" xlink:href="#DejaVuSans-115"/>
      <use transform="translate(455.664062 0.015625)" xlink:href="#DejaVuSans-105"/>
      <use transform="translate(483.447266 0.015625)" xlink:href="#DejaVuSans-116"/>
      <use transform="translate(522.65625 0.015625)" xlink:href="#DejaVuSans-105"/>
      <use transform="translate(550.439453 0.015625)" xlink:href="#DejaVuSans-111"/>
      <use transform="translate(611.621094 0.015625)" xlink:href="#DejaVuSans-110"/>
      <use transform="translate(675 0.015625)" xlink:href="#DejaVuSans-32"/>
      <use transform="translate(706.787109 0.015625)" xlink:href="#DejaVuSans-Oblique-115"/>
      <use transform="translate(758.886719 0.015625)" xlink:href="#DejaVuSans-32"/>
      <use transform="translate(790.673828 0.015625)" xlink:href="#DejaVuSans-47"/>
      <use transform="translate(824.365234 0.015625)" xlink:href="#DejaVuSans-32"/>
      <use transform="translate(856.152344 0.015625)" xlink:href="#DejaVuSans-109"/>
     </g>
    </g>
   </g>
   <g id="matplotlib.axis_4">
    <g id="ytick_6">
     <g id="line2d_46">
      <path clip-path="url(#pc4833454a1)" d="M 30.58 397.484515 
L 438.54487 397.484515 
" style="fill:none;stroke:#b0b0b0;stroke-dasharray:2.96,1.28;stroke-dashoffset:0;stroke-width:0.8;"/>
     </g>
     <g id="line2d_47">
      <g>
       <use style="stroke:#000000;stroke-width:0.8;" x="30.58" xlink:href="#m7d15c261d1" y="397.484515"/>
      </g>
     </g>
     <g id="text_27">
      <!-- 0 -->
      <g transform="translate(17.2175 401.283733)scale(0.1 -0.1)">
       <use xlink:href="#DejaVuSans-48"/>
      </g>
     </g>
    </g>
    <g id="ytick_7">
     <g id="line2d_48">
      <path clip-path="url(#pc4833454a1)" d="M 30.58 362.058386 
L 438.54487 362.058386 
" style="fill:none;stroke:#b0b0b0;stroke-dasharray:2.96,1.28;stroke-dashoffset:0;stroke-width:0.8;"/>
     </g>
     <g id="line2d_49">
      <g>
       <use style="stroke:#000000;stroke-width:0.8;" x="30.58" xlink:href="#m7d15c261d1" y="362.058386"/>
      </g>
     </g>
     <g id="text_28">
      <!-- 5 -->
      <g transform="translate(17.2175 365.857605)scale(0.1 -0.1)">
       <use xlink:href="#DejaVuSans-53"/>
      </g>
     </g>
    </g>
    <g id="ytick_8">
     <g id="line2d_50">
      <path clip-path="url(#pc4833454a1)" d="M 30.58 326.632257 
L 438.54487 326.632257 
" style="fill:none;stroke:#b0b0b0;stroke-dasharray:2.96,1.28;stroke-dashoffset:0;stroke-width:0.8;"/>
     </g>
     <g id="line2d_51">
      <g>
       <use style="stroke:#000000;stroke-width:0.8;" x="30.58" xlink:href="#m7d15c261d1" y="326.632257"/>
      </g>
     </g>
     <g id="text_29">
      <!-- 10 -->
      <g transform="translate(10.855 330.431476)scale(0.1 -0.1)">
       <use xlink:href="#DejaVuSans-49"/>
       <use x="63.623047" xlink:href="#DejaVuSans-48"/>
      </g>
     </g>
    </g>
    <g id="ytick_9">
     <g id="line2d_52">
      <path clip-path="url(#pc4833454a1)" d="M 30.58 291.206129 
L 438.54487 291.206129 
" style="fill:none;stroke:#b0b0b0;stroke-dasharray:2.96,1.28;stroke-dashoffset:0;stroke-width:0.8;"/>
     </g>
     <g id="line2d_53">
      <g>
       <use style="stroke:#000000;stroke-width:0.8;" x="30.58" xlink:href="#m7d15c261d1" y="291.206129"/>
      </g>
     </g>
     <g id="text_30">
      <!-- 15 -->
      <g transform="translate(10.855 295.005347)scale(0.1 -0.1)">
       <use xlink:href="#DejaVuSans-49"/>
       <use x="63.623047" xlink:href="#DejaVuSans-53"/>
      </g>
     </g>
    </g>
    <g id="ytick_10">
     <g id="line2d_54">
      <path clip-path="url(#pc4833454a1)" d="M 30.58 255.78 
L 438.54487 255.78 
" style="fill:none;stroke:#b0b0b0;stroke-dasharray:2.96,1.28;stroke-dashoffset:0;stroke-width:0.8;"/>
     </g>
     <g id="line2d_55">
      <g>
       <use style="stroke:#000000;stroke-width:0.8;" x="30.58" xlink:href="#m7d15c261d1" y="255.78"/>
      </g>
     </g>
     <g id="text_31">
      <!-- 20 -->
      <g transform="translate(10.855 259.579219)scale(0.1 -0.1)">
       <use xlink:href="#DejaVuSans-50"/>
       <use x="63.623047" xlink:href="#DejaVuSans-48"/>
      </g>
     </g>
    </g>
   </g>
   <g id="patch_11">
    <path d="M 30.58 404.56974 
L 30.58 255.78 
" style="fill:none;stroke:#000000;stroke-linecap:square;stroke-linejoin:miter;stroke-width:0.8;"/>
   </g>
   <g id="patch_12">
    <path d="M 438.54487 404.56974 
L 438.54487 255.78 
" style="fill:none;stroke:#000000;stroke-linecap:square;stroke-linejoin:miter;stroke-width:0.8;"/>
   </g>
   <g id="patch_13">
    <path d="M 30.58 404.56974 
L 438.54487 404.56974 
" style="fill:none;stroke:#000000;stroke-linecap:square;stroke-linejoin:miter;stroke-width:0.8;"/>
   </g>
   <g id="patch_14">
    <path d="M 30.58 255.78 
L 438.54487 255.78 
" style="fill:none;stroke:#000000;stroke-linecap:square;stroke-linejoin:miter;stroke-width:0.8;"/>
   </g>
   <g id="line2d_56">
    <path clip-path="url(#pc4833454a1)" d="M 30.58 266.096557 
L 31.85489 266.129402 
L 33.12978 266.227923 
L 34.404671 266.392069 
L 35.679561 266.621758 
L 36.954451 266.916877 
L 38.229341 267.277276 
L 39.504232 267.702776 
L 40.779122 268.193164 
L 42.054012 268.748196 
L 43.328902 269.367592 
L 48.428463 271.973508 
L 53.528024 274.579424 
L 58.627585 277.18534 
L 63.727146 279.791256 
L 68.826707 282.397172 
L 73.926267 285.003087 
L 79.025828 287.609003 
L 84.125389 290.214919 
L 89.22495 292.820835 
L 94.324511 295.426751 
L 101.973852 299.053357 
L 109.623194 302.509239 
L 117.272535 305.793066 
L 124.921876 308.903571 
L 132.571218 311.839555 
L 140.220559 314.599887 
L 147.8699 317.183502 
L 155.519241 319.589404 
L 163.168583 321.816666 
L 170.817924 323.864429 
L 175.917485 325.074677 
L 181.017046 326.284925 
L 186.116607 327.495173 
L 191.216168 328.705422 
L 196.315728 329.91567 
L 201.415289 331.125918 
L 206.51485 332.336166 
L 211.614411 333.546414 
L 216.713972 334.756662 
L 221.813533 335.966911 
L 224.363313 336.510709 
L 226.913094 336.932539 
L 229.462874 337.233245 
L 232.012655 337.413428 
L 234.562435 337.473449 
L 237.112216 337.413428 
L 239.661996 337.233245 
L 242.211776 336.932539 
L 244.761557 336.510709 
L 247.311337 335.966911 
L 252.410898 334.756662 
L 257.510459 333.546414 
L 262.61002 332.336166 
L 267.709581 331.125918 
L 272.809142 329.91567 
L 277.908703 328.705422 
L 283.008263 327.495173 
L 288.107824 326.284925 
L 293.207385 325.074677 
L 298.306946 323.864429 
L 305.956287 321.816666 
L 313.605629 319.589404 
L 321.25497 317.183502 
L 328.904311 314.599887 
L 336.553653 311.839555 
L 344.202994 308.903571 
L 351.852335 305.793066 
L 359.501677 302.509239 
L 367.151018 299.053357 
L 374.800359 295.426751 
L 379.89992 292.820835 
L 384.999481 290.214919 
L 390.099042 287.609003 
L 395.198603 285.003087 
L 400.298164 282.397172 
L 405.397724 279.791256 
L 410.497285 277.18534 
L 415.596846 274.579424 
L 420.696407 271.973508 
L 425.795968 269.367592 
L 427.070858 268.748196 
L 428.345748 268.193164 
L 429.620639 267.702776 
L 430.895529 267.277276 
L 432.170419 266.916877 
L 433.445309 266.621758 
L 434.720199 266.392069 
L 435.99509 266.227923 
L 437.26998 266.129402 
L 438.54487 266.096557 
" style="fill:none;stroke:#3cb371;stroke-linecap:square;stroke-width:1.3;"/>
   </g>
   <g id="line2d_57">
    <path clip-path="url(#pc4833454a1)" d="M 30.58 385.644247 
L 31.85489 385.635676 
L 33.12978 385.609945 
L 34.404671 385.567002 
L 35.679561 385.506761 
L 36.954451 385.429103 
L 38.229341 385.333871 
L 39.504232 385.220876 
L 40.779122 385.089891 
L 42.054012 384.940654 
L 43.328902 384.772867 
L 48.428463 384.014814 
L 53.528024 383.158023 
L 58.627585 382.202494 
L 63.727146 381.148226 
L 68.826707 379.99522 
L 73.926267 378.743477 
L 79.025828 377.392994 
L 84.125389 375.943774 
L 89.22495 374.395816 
L 94.324511 372.749119 
L 101.973852 370.194438 
L 109.623194 367.42725 
L 117.272535 364.447557 
L 124.921876 361.255358 
L 132.571218 357.850653 
L 140.220559 354.233441 
L 147.8699 350.403724 
L 155.519241 346.361501 
L 163.168583 342.106772 
L 170.817924 337.639536 
L 175.917485 334.701462 
L 181.017046 331.676604 
L 186.116607 328.564962 
L 191.216168 325.366535 
L 196.315728 322.081324 
L 201.415289 318.709329 
L 206.51485 315.250549 
L 211.614411 311.704986 
L 216.713972 308.072638 
L 221.813533 304.353506 
L 224.363313 302.650048 
L 226.913094 301.310803 
L 229.462874 300.346478 
L 232.012655 299.764782 
L 234.562435 299.570365 
L 237.112216 299.764782 
L 239.661996 300.346478 
L 242.211776 301.310803 
L 244.761557 302.650048 
L 247.311337 304.353506 
L 252.410898 308.072638 
L 257.510459 311.704986 
L 262.61002 315.250549 
L 267.709581 318.709329 
L 272.809142 322.081324 
L 277.908703 325.366535 
L 283.008263 328.564962 
L 288.107824 331.676604 
L 293.207385 334.701462 
L 298.306946 337.639536 
L 305.956287 342.106772 
L 313.605629 346.361501 
L 321.25497 350.403724 
L 328.904311 354.233441 
L 336.553653 357.850653 
L 344.202994 361.255358 
L 351.852335 364.447557 
L 359.501677 367.42725 
L 367.151018 370.194438 
L 374.800359 372.749119 
L 379.89992 374.395816 
L 384.999481 375.943774 
L 390.099042 377.392994 
L 395.198603 378.743477 
L 400.298164 379.99522 
L 405.397724 381.148226 
L 410.497285 382.202494 
L 415.596846 383.158023 
L 420.696407 384.014814 
L 425.795968 384.772867 
L 427.070858 384.940654 
L 428.345748 385.089891 
L 429.620639 385.220876 
L 430.895529 385.333871 
L 432.170419 385.429103 
L 433.445309 385.506761 
L 434.720199 385.567002 
L 435.99509 385.609945 
L 437.26998 385.635676 
L 438.54487 385.644247 
" style="fill:none;stroke:#1e90ff;stroke-linecap:square;stroke-width:1.3;"/>
   </g>
   <g id="patch_15">
    <path d="M 30.58 258.10484 
L 43.328902 258.10484 
L 43.328902 253.45516 
L 30.58 253.45516 
z
" style="fill:#dc143c;"/>
   </g>
   <g id="patch_16">
    <path d="M 94.324511 258.10484 
L 170.817924 258.10484 
L 170.817924 253.45516 
L 94.324511 253.45516 
z
" style="fill:#ffd700;"/>
   </g>
   <g id="patch_17">
    <path d="M 221.813533 258.10484 
L 247.311337 258.10484 
L 247.311337 253.45516 
L 221.813533 253.45516 
z
" style="fill:#dc143c;"/>
   </g>
   <g id="patch_18">
    <path d="M 298.306946 258.10484 
L 374.800359 258.10484 
L 374.800359 253.45516 
L 298.306946 253.45516 
z
" style="fill:#ffd700;"/>
   </g>
   <g id="patch_19">
    <path d="M 425.795968 258.10484 
L 438.54487 258.10484 
L 438.54487 253.45516 
L 425.795968 253.45516 
z
" style="fill:#dc143c;"/>
   </g>
   <g id="line2d_58">
    <path clip-path="url(#pc4833454a1)" d="M 30.58 297.963196 
L 31.85489 298.012634 
L 33.12978 298.160846 
L 34.404671 298.407538 
L 35.679561 298.752215 
L 36.954451 299.194189 
L 38.229341 299.732576 
L 39.504232 300.366299 
L 40.779122 301.094091 
L 42.054012 301.914496 
L 43.328902 302.825875 
L 48.428463 306.607019 
L 53.528024 310.300271 
L 58.627585 313.905633 
L 63.727146 317.423103 
L 68.826707 320.852683 
L 73.926267 324.194371 
L 79.025828 327.448167 
L 84.125389 330.614073 
L 89.22495 333.692087 
L 94.324511 336.68221 
L 101.973852 340.798124 
L 109.623194 344.773474 
L 117.272535 348.602129 
L 124.921876 352.278188 
L 132.571218 355.79598 
L 140.220559 359.150083 
L 147.8699 362.335324 
L 155.519241 365.346792 
L 163.168583 368.179844 
L 170.817924 370.830111 
L 175.917485 372.422429 
L 181.017046 373.926856 
L 186.116607 375.343392 
L 191.216168 376.672037 
L 196.315728 377.91279 
L 201.415289 379.065652 
L 206.51485 380.130623 
L 211.614411 381.107703 
L 216.713972 381.996891 
L 221.813533 382.798188 
L 224.363313 383.136983 
L 226.913094 383.397719 
L 229.462874 383.582481 
L 232.012655 383.69275 
L 234.562435 383.729409 
L 237.112216 383.69275 
L 239.661996 383.582481 
L 242.211776 383.397719 
L 244.761557 383.136983 
L 247.311337 382.798188 
L 252.410898 381.996891 
L 257.510459 381.107703 
L 262.61002 380.130623 
L 267.709581 379.065652 
L 272.809142 377.91279 
L 277.908703 376.672037 
L 283.008263 375.343392 
L 288.107824 373.926856 
L 293.207385 372.422429 
L 298.306946 370.830111 
L 305.956287 368.179844 
L 313.605629 365.346792 
L 321.25497 362.335324 
L 328.904311 359.150083 
L 336.553653 355.79598 
L 344.202994 352.278188 
L 351.852335 348.602129 
L 359.501677 344.773474 
L 367.151018 340.798124 
L 374.800359 336.68221 
L 379.89992 333.692087 
L 384.999481 330.614073 
L 390.099042 327.448167 
L 395.198603 324.194371 
L 400.298164 320.852683 
L 405.397724 317.423103 
L 410.497285 313.905633 
L 415.596846 310.300271 
L 420.696407 306.607019 
L 425.795968 302.825875 
L 427.070858 301.914496 
L 428.345748 301.094091 
L 429.620639 300.366299 
L 430.895529 299.732576 
L 432.170419 299.194189 
L 433.445309 298.752215 
L 434.720199 298.407538 
L 435.99509 298.160846 
L 437.26998 298.012634 
L 438.54487 297.963196 
" style="fill:none;stroke:#dc143c;stroke-linecap:square;stroke-width:1.3;"/>
   </g>
   <g id="text_32">
    <!-- q1 -->
    <g transform="translate(31.870076 252.95383)scale(0.08 -0.08)">
     <use xlink:href="#DejaVuSans-113"/>
     <use x="63.476562" xlink:href="#DejaVuSans-49"/>
    </g>
   </g>
   <g id="text_33">
    <!-- b1 -->
    <g transform="translate(127.486843 267.670849)scale(0.08 -0.08)">
     <use xlink:href="#DejaVuSans-98"/>
     <use x="63.476562" xlink:href="#DejaVuSans-49"/>
    </g>
   </g>
   <g id="text_34">
    <!-- q2 -->
    <g transform="translate(229.47806 252.95383)scale(0.08 -0.08)">
     <use xlink:href="#DejaVuSans-113"/>
     <use x="63.476562" xlink:href="#DejaVuSans-50"/>
    </g>
   </g>
   <g id="text_35">
    <!-- b1 -->
    <g transform="translate(331.469278 267.670849)scale(0.08 -0.08)">
     <use xlink:href="#DejaVuSans-98"/>
     <use x="63.476562" xlink:href="#DejaVuSans-49"/>
    </g>
   </g>
   <g id="text_36">
    <!-- q1 -->
    <g transform="translate(427.086044 252.95383)scale(0.08 -0.08)">
     <use xlink:href="#DejaVuSans-113"/>
     <use x="63.476562" xlink:href="#DejaVuSans-49"/>
    </g>
   </g>
  </g>
  <g id="legend_1">
   <g id="line2d_59">
    <path d="M 9 13.2 
L 29 13.2 
" style="fill:none;stroke:#dc143c;stroke-linecap:square;stroke-width:1.3;"/>
   </g>
   <g id="line2d_60"/>
   <g id="text_37">
    <!-- $\beta_x$/m -->
    <g transform="translate(37 16.7)scale(0.1 -0.1)">
     <defs>
      <path d="M 13.625 3.375 
L 8.9375 -20.796875 
L -0.09375 -20.796875 
L 14.5 54.34375 
Q 18.84375 76.609375 39.65625 76.609375 
Q 60.75 76.609375 57.171875 57.8125 
Q 54.734375 44.4375 45.21875 39.546875 
Q 58.015625 35.15625 55.515625 22.125 
Q 51.125 -1.078125 27.484375 -1.03125 
Q 17.140625 -0.984375 13.625 3.375 
z
M 15.921875 15.09375 
Q 19.671875 6.59375 29.296875 6.640625 
Q 43.359375 6.640625 46.34375 21.96875 
Q 49.03125 35.75 26.171875 34.671875 
L 27.78125 42.96875 
Q 45.453125 42.671875 48.53125 58.59375 
Q 50.640625 69.34375 39.203125 69.28125 
Q 26.421875 69.28125 23.484375 54.046875 
z
" id="DejaVuSans-Oblique-946"/>
      <path d="M 60.015625 54.6875 
L 34.90625 27.875 
L 50.296875 0 
L 39.984375 0 
L 28.421875 21.6875 
L 8.296875 0 
L -2.59375 0 
L 24.3125 28.8125 
L 10.015625 54.6875 
L 20.3125 54.6875 
L 30.8125 34.90625 
L 49.125 54.6875 
z
" id="DejaVuSans-Oblique-120"/>
     </defs>
     <use transform="translate(0 0.390625)" xlink:href="#DejaVuSans-Oblique-946"/>
     <use transform="translate(63.818359 -16.015625)scale(0.7)" xlink:href="#DejaVuSans-Oblique-120"/>
     <use transform="translate(107.978516 0.390625)" xlink:href="#DejaVuSans-47"/>
     <use transform="translate(141.669922 0.390625)" xlink:href="#DejaVuSans-109"/>
    </g>
   </g>
   <g id="line2d_61">
    <path d="M 81 13.2 
L 101 13.2 
" style="fill:none;stroke:#1e90ff;stroke-linecap:square;stroke-width:1.3;"/>
   </g>
   <g id="line2d_62"/>
   <g id="text_38">
    <!-- $\beta_y$/m -->
    <g transform="translate(109 16.7)scale(0.1 -0.1)">
     <defs>
      <path d="M 24.8125 -5.078125 
Q 18.5625 -15.578125 14.625 -18.1875 
Q 10.6875 -20.796875 4.59375 -20.796875 
L -2.484375 -20.796875 
L -0.984375 -13.28125 
L 4.203125 -13.28125 
Q 7.953125 -13.28125 10.59375 -11.234375 
Q 13.234375 -9.1875 16.5 -3.21875 
L 19.28125 2 
L 7.171875 54.6875 
L 16.703125 54.6875 
L 25.78125 12.796875 
L 50.875 54.6875 
L 60.296875 54.6875 
z
" id="DejaVuSans-Oblique-121"/>
     </defs>
     <use transform="translate(0 0.390625)" xlink:href="#DejaVuSans-Oblique-946"/>
     <use transform="translate(63.818359 -16.015625)scale(0.7)" xlink:href="#DejaVuSans-Oblique-121"/>
     <use transform="translate(107.978516 0.390625)" xlink:href="#DejaVuSans-47"/>
     <use transform="translate(141.669922 0.390625)" xlink:href="#DejaVuSans-109"/>
    </g>
   </g>
   <g id="line2d_63">
    <path d="M 153 13.2 
L 173 13.2 
" style="fill:none;stroke:#3cb371;stroke-linecap:square;stroke-width:1.3;"/>
   </g>
   <g id="line2d_64"/>
   <g id="text_39">
    <!-- 10$\eta_x$/m -->
    <g transform="translate(181 16.7)scale(0.1 -0.1)">
     <defs>
      <path d="M 57.859375 33.015625 
L 47.40625 -20.796875 
L 38.421875 -20.796875 
L 48.828125 32.71875 
Q 50.34375 40.484375 48.046875 44.34375 
Q 45.796875 48.1875 39.75 48.1875 
Q 32.46875 48.1875 27.34375 43.5625 
Q 22.265625 38.921875 20.703125 30.90625 
L 14.703125 0 
L 5.671875 0 
L 16.3125 54.6875 
L 25.34375 54.6875 
L 23.6875 46.1875 
Q 27.828125 51.125 32.71875 53.5625 
Q 37.546875 56 43.265625 56 
Q 52.6875 56 56.390625 50.203125 
Q 60.0625 44.34375 57.859375 33.015625 
z
" id="DejaVuSans-Oblique-951"/>
     </defs>
     <use transform="translate(0 0.78125)" xlink:href="#DejaVuSans-49"/>
     <use transform="translate(63.623047 0.78125)" xlink:href="#DejaVuSans-48"/>
     <use transform="translate(127.246094 0.78125)" xlink:href="#DejaVuSans-Oblique-951"/>
     <use transform="translate(190.625 -15.625)scale(0.7)" xlink:href="#DejaVuSans-Oblique-120"/>
     <use transform="translate(234.785156 0.78125)" xlink:href="#DejaVuSans-47"/>
     <use transform="translate(268.476562 0.78125)" xlink:href="#DejaVuSans-109"/>
    </g>
   </g>
  </g>
 </g>
 <defs>
  <clipPath id="pab3a1d39c9">
   <rect height="148.78974" width="407.96487" x="30.58" y="42.3"/>
  </clipPath>
  <clipPath id="pc4833454a1">
   <rect height="148.78974" width="407.96487" x="30.58" y="255.78"/>
  </clipPath>
 </defs>
</svg>
