<svg width="1000" height="550" viewBox="0 0 1000 550" fill="none" xmlns="http://www.w3.org/2000/svg">
<path d="M249.89 359.068C254.99 359.068 258.36 360.539 259.732 366.124L260 366.124L260 373L257.286 373C257.286 366.244 254.93 364.052 248.31 364.052L169.911 364.052C159.712 364.052 155 360.299 155 350L159.533 350C159.533 356.726 162.724 359.068 169.911 359.068L249.89 359.068Z" fill="black"/>
<path d="M270.11 359.068C265.01 359.068 261.64 360.539 260.268 366.124L260 366.124L260 373L262.714 373C262.714 366.244 265.07 364.052 271.69 364.052L350.089 364.052C360.288 364.052 365 360.299 365 350L360.467 350C360.467 356.726 357.276 359.068 350.089 359.068L270.11 359.068Z" fill="black"/>
<path d="M238.463 413H243.999V403.719H248.038L252.999 413H259.109L253.548 402.824C256.527 401.546 258.176 398.95 258.176 395.371C258.176 390.168 254.737 386.818 248.793 386.818H238.463V413ZM243.999 399.27V391.344H247.732C250.928 391.344 252.474 392.763 252.474 395.371C252.474 397.966 250.928 399.27 247.757 399.27H243.999Z" fill="black"/>
<path d="M261.571 418L262.888 414.293H268.181L269.498 418H271.159L266.353 404.909H264.716L259.909 418H261.571ZM263.387 412.886L265.483 406.98H265.586L267.682 412.886H263.387ZM277.238 418C281.227 418 283.477 415.52 283.477 411.429C283.477 407.364 281.227 404.909 277.417 404.909H273.199V418H277.238ZM274.784 416.594V406.315H277.315C280.383 406.315 281.943 408.259 281.943 411.429C281.943 414.625 280.383 416.594 277.136 416.594H274.784Z" fill="black"/>
<path d="M729.89 359.068C734.99 359.068 738.36 360.539 739.732 366.124L740 366.124L740 373L737.286 373C737.286 366.244 734.93 364.052 728.31 364.052L649.911 364.052C639.712 364.052 635 360.299 635 350L639.533 350C639.533 356.726 642.724 359.068 649.911 359.068L729.89 359.068Z" fill="black"/>
<path d="M750.11 359.068C745.01 359.068 741.64 360.539 740.268 366.124L740 366.124L740 373L742.714 373C742.714 366.244 745.07 364.052 751.69 364.052L830.089 364.052C840.288 364.052 845 360.299 845 350L840.467 350C840.467 356.726 837.276 359.068 830.089 359.068L750.11 359.068Z" fill="black"/>
<path d="M718.463 413H723.999V403.719H728.038L732.999 413H739.109L733.548 402.824C736.527 401.546 738.176 398.95 738.176 395.371C738.176 390.168 734.737 386.818 728.793 386.818H718.463V413ZM723.999 399.27V391.344H727.732C730.928 391.344 732.474 392.763 732.474 395.371C732.474 397.966 730.928 399.27 727.757 399.27H723.999Z" fill="black"/>
<path d="M742.044 418H750.047V416.594H743.629V412.145H749.536V410.739H743.629V406.315H749.945V404.909H742.044V418ZM752.802 418H754.387V412.145H761.367V418H762.953V404.909H761.367V410.739H754.387V404.909H752.802V418Z" fill="black"/>
<path d="M609.89 287.068C614.99 287.068 618.36 288.539 619.732 294.124L620 294.124L620 301L617.286 301C617.286 294.244 614.93 292.052 608.31 292.052L529.911 292.052C519.712 292.052 515 288.299 515 278L519.533 278C519.533 284.726 522.724 287.068 529.911 287.068L609.89 287.068Z" fill="black"/>
<path d="M630.11 287.068C625.01 287.068 621.64 288.539 620.268 294.124L620 294.124L620 301L622.714 301C622.714 294.244 625.07 292.052 631.69 292.052L710.089 292.052C720.288 292.052 725 288.299 725 278L720.467 278C720.467 284.726 717.276 287.068 710.089 287.068L630.11 287.068Z" fill="black"/>
<path d="M849.89 287.068C854.99 287.068 858.36 288.539 859.732 294.124L860 294.124L860 301L857.286 301C857.286 294.244 854.93 292.052 848.31 292.052L769.911 292.052C759.712 292.052 755 288.299 755 278L759.533 278C759.533 284.726 762.724 287.068 769.911 287.068L849.89 287.068Z" fill="black"/>
<path d="M870.11 287.068C865.01 287.068 861.64 288.539 860.268 294.124L860 294.124L860 301L862.714 301C862.714 294.244 865.07 292.052 871.69 292.052L950.089 292.052C960.288 292.052 965 288.299 965 278L960.467 278C960.467 284.726 957.276 287.068 950.089 287.068L870.11 287.068Z" fill="black"/>
<path d="M129.89 287.068C134.99 287.068 138.36 288.539 139.732 294.124L140 294.124L140 301L137.286 301C137.286 294.244 134.93 292.052 128.31 292.052L49.911 292.052C39.7119 292.052 35 288.299 35 278L39.5329 278C39.5329 284.726 42.7239 287.068 49.911 287.068L129.89 287.068Z" fill="black"/>
<path d="M150.11 287.068C145.01 287.068 141.64 288.539 140.268 294.124L140 294.124L140 301L142.714 301C142.714 294.244 145.07 292.052 151.69 292.052L230.089 292.052C240.288 292.052 245 288.299 245 278L240.467 278C240.467 284.726 237.276 287.068 230.089 287.068L150.11 287.068Z" fill="black"/>
<path d="M369.89 287.068C374.99 287.068 378.36 288.539 379.732 294.124L380 294.124L380 301L377.286 301C377.286 294.244 374.93 292.052 368.31 292.052L289.911 292.052C279.712 292.052 275 288.299 275 278L279.533 278C279.533 284.726 282.724 287.068 289.911 287.068L369.89 287.068Z" fill="black"/>
<path d="M390.11 287.068C385.01 287.068 381.64 288.539 380.268 294.124L380 294.124L380 301L382.714 301C382.714 294.244 385.07 292.052 391.69 292.052L470.089 292.052C480.288 292.052 485 288.299 485 278L480.467 278C480.467 284.726 477.276 287.068 470.089 287.068L390.11 287.068Z" fill="black"/>
<path d="M118.463 341H123.999V331.719H128.038L132.999 341H139.109L133.548 330.824C136.527 329.546 138.176 326.95 138.176 323.371C138.176 318.168 134.737 314.818 128.793 314.818H118.463V341ZM123.999 327.27V319.344H127.732C130.928 319.344 132.474 320.763 132.474 323.371C132.474 325.966 130.928 327.27 127.757 327.27H123.999Z" fill="black"/>
<path d="M142.187 346L143.503 342.293H148.796L150.113 346H151.775L146.968 332.909H145.331L140.525 346H142.187ZM144.002 340.886L146.099 334.98H146.201L148.297 340.886H144.002ZM153.814 346H158.544C161.638 346 162.916 344.492 162.916 342.523C162.916 340.452 161.484 339.327 160.282 339.25V339.122C161.407 338.815 162.405 338.074 162.405 336.386C162.405 334.469 161.126 332.909 158.39 332.909H153.814V346ZM155.399 344.594V340.043H158.621C160.334 340.043 161.407 341.193 161.407 342.523C161.407 343.673 160.615 344.594 158.544 344.594H155.399ZM155.399 338.662V334.315H158.39C160.129 334.315 160.896 335.236 160.896 336.386C160.896 337.767 159.771 338.662 158.339 338.662H155.399Z" fill="black"/>
<path d="M358.463 341H363.999V331.719H368.038L372.999 341H379.109L373.548 330.824C376.527 329.546 378.176 326.95 378.176 323.371C378.176 318.168 374.737 314.818 368.793 314.818H358.463V341ZM363.999 327.27V319.344H367.732C370.928 319.344 372.474 320.763 372.474 323.371C372.474 325.966 370.928 327.27 367.757 327.27H363.999Z" fill="black"/>
<path d="M391.603 337C391.117 334.315 388.969 332.73 386.336 332.73C382.986 332.73 380.557 335.313 380.557 339.455C380.557 343.597 382.986 346.179 386.336 346.179C388.969 346.179 391.117 344.594 391.603 341.909H390.017C389.634 343.725 388.074 344.696 386.336 344.696C383.958 344.696 382.091 342.855 382.091 339.455C382.091 336.054 383.958 334.213 386.336 334.213C388.074 334.213 389.634 335.185 390.017 337H391.603ZM398.204 346C402.193 346 404.443 343.52 404.443 339.429C404.443 335.364 402.193 332.909 398.383 332.909H394.164V346H398.204ZM395.75 344.594V334.315H398.281C401.349 334.315 402.909 336.259 402.909 339.429C402.909 342.625 401.349 344.594 398.102 344.594H395.75Z" fill="black"/>
<path d="M598.463 341H603.999V331.719H608.038L612.999 341H619.109L613.548 330.824C616.527 329.546 618.176 326.95 618.176 323.371C618.176 318.168 614.737 314.818 608.793 314.818H598.463V341ZM603.999 327.27V319.344H607.732C610.928 319.344 612.474 320.763 612.474 323.371C612.474 325.966 610.928 327.27 607.757 327.27H603.999Z" fill="black"/>
<path d="M622.924 346H630.927V344.594H624.509V340.145H630.416V338.739H624.509V334.315H630.825V332.909H622.924V346ZM633.682 346H635.267V340.145H640.943V338.739H635.267V334.315H641.531V332.909H633.682V346Z" fill="black"/>
<path d="M838.463 341H843.999V331.719H848.038L852.999 341H859.109L853.548 330.824C856.527 329.546 858.176 326.95 858.176 323.371C858.176 318.168 854.737 314.818 848.793 314.818H838.463V341ZM843.999 327.27V319.344H847.732C850.928 319.344 852.474 320.763 852.474 323.371C852.474 325.966 850.928 327.27 847.757 327.27H843.999Z" fill="black"/>
<path d="M869.684 337H871.32C870.834 334.469 868.712 332.73 865.951 332.73C862.595 332.73 860.223 335.313 860.223 339.455C860.223 343.597 862.576 346.179 866.053 346.179C869.172 346.179 871.397 344.102 871.397 340.861V339.455H866.411V340.861H869.862C869.818 343.213 868.271 344.696 866.053 344.696C863.624 344.696 861.757 342.855 861.757 339.455C861.757 336.054 863.624 334.213 865.951 334.213C867.843 334.213 869.127 335.281 869.684 337ZM874.112 346H875.697V340.145H882.677V346H884.262V332.909H882.677V338.739H875.697V332.909H874.112V346Z" fill="black"/>
<path d="M129.89 287.068C134.99 287.068 138.36 288.539 139.732 294.124L140 294.124L140 301L137.286 301C137.286 294.244 134.93 292.052 128.31 292.052L49.911 292.052C39.7119 292.052 35 288.299 35 278L39.5329 278C39.5329 284.726 42.7239 287.068 49.911 287.068L129.89 287.068Z" fill="black"/>
<path d="M150.11 287.068C145.01 287.068 141.64 288.539 140.268 294.124L140 294.124L140 301L142.714 301C142.714 294.244 145.07 292.052 151.69 292.052L230.089 292.052C240.288 292.052 245 288.299 245 278L240.467 278C240.467 284.726 237.276 287.068 230.089 287.068L150.11 287.068Z" fill="black"/>
<path d="M369.89 287.068C374.99 287.068 378.36 288.539 379.732 294.124L380 294.124L380 301L377.286 301C377.286 294.244 374.93 292.052 368.31 292.052L289.911 292.052C279.712 292.052 275 288.299 275 278L279.533 278C279.533 284.726 282.724 287.068 289.911 287.068L369.89 287.068Z" fill="black"/>
<path d="M390.11 287.068C385.01 287.068 381.64 288.539 380.268 294.124L380 294.124L380 301L382.714 301C382.714 294.244 385.07 292.052 391.69 292.052L470.089 292.052C480.288 292.052 485 288.299 485 278L480.467 278C480.467 284.726 477.276 287.068 470.089 287.068L390.11 287.068Z" fill="black"/>
<path d="M118.463 341H123.999V331.719H128.038L132.999 341H139.109L133.548 330.824C136.527 329.546 138.176 326.95 138.176 323.371C138.176 318.168 134.737 314.818 128.793 314.818H118.463V341ZM123.999 327.27V319.344H127.732C130.928 319.344 132.474 320.763 132.474 323.371C132.474 325.966 130.928 327.27 127.757 327.27H123.999Z" fill="black"/>
<path d="M142.187 346L143.503 342.293H148.796L150.113 346H151.775L146.968 332.909H145.331L140.525 346H142.187ZM144.002 340.886L146.099 334.98H146.201L148.297 340.886H144.002ZM153.814 346H158.544C161.638 346 162.916 344.492 162.916 342.523C162.916 340.452 161.484 339.327 160.282 339.25V339.122C161.407 338.815 162.405 338.074 162.405 336.386C162.405 334.469 161.126 332.909 158.39 332.909H153.814V346ZM155.399 344.594V340.043H158.621C160.334 340.043 161.407 341.193 161.407 342.523C161.407 343.673 160.615 344.594 158.544 344.594H155.399ZM155.399 338.662V334.315H158.39C160.129 334.315 160.896 335.236 160.896 336.386C160.896 337.767 159.771 338.662 158.339 338.662H155.399Z" fill="black"/>
<path d="M358.463 341H363.999V331.719H368.038L372.999 341H379.109L373.548 330.824C376.527 329.546 378.176 326.95 378.176 323.371C378.176 318.168 374.737 314.818 368.793 314.818H358.463V341ZM363.999 327.27V319.344H367.732C370.928 319.344 372.474 320.763 372.474 323.371C372.474 325.966 370.928 327.27 367.757 327.27H363.999Z" fill="black"/>
<path d="M391.603 337C391.117 334.315 388.969 332.73 386.336 332.73C382.986 332.73 380.557 335.313 380.557 339.455C380.557 343.597 382.986 346.179 386.336 346.179C388.969 346.179 391.117 344.594 391.603 341.909H390.017C389.634 343.725 388.074 344.696 386.336 344.696C383.958 344.696 382.091 342.855 382.091 339.455C382.091 336.054 383.958 334.213 386.336 334.213C388.074 334.213 389.634 335.185 390.017 337H391.603ZM398.204 346C402.193 346 404.443 343.52 404.443 339.429C404.443 335.364 402.193 332.909 398.383 332.909H394.164V346H398.204ZM395.75 344.594V334.315H398.281C401.349 334.315 402.909 336.259 402.909 339.429C402.909 342.625 401.349 344.594 398.102 344.594H395.75Z" fill="black"/>
<path d="M489.89 431.068C494.99 431.068 498.36 432.539 499.732 438.124L500 438.124L500 445L497.286 445C497.286 438.244 494.93 436.052 488.31 436.052L304.911 436.052C294.712 436.052 290 432.299 290 422L294.533 422C294.533 428.726 297.724 431.068 304.911 431.068L489.89 431.068Z" fill="black"/>
<path d="M510.11 431.068C505.01 431.068 501.64 432.539 500.268 438.124L500 438.124L500 445L502.714 445C502.714 438.244 505.07 436.052 511.69 436.052L695.089 436.052C705.288 436.052 710 432.299 710 422L705.467 422C705.467 428.726 702.276 431.068 695.089 431.068L510.11 431.068Z" fill="black"/>
<path d="M441.463 482H446.999V472.719H451.038L455.999 482H462.109L456.548 471.824C459.527 470.546 461.176 467.95 461.176 464.371C461.176 459.168 457.737 455.818 451.793 455.818H441.463V482ZM446.999 468.27V460.344H450.732C453.928 460.344 455.474 461.763 455.474 464.371C455.474 466.966 453.928 468.27 450.757 468.27H446.999Z" fill="black"/>
<path d="M464.378 487L465.695 483.293H470.987L472.304 487H473.966L469.159 473.909H467.523L462.716 487H464.378ZM466.193 481.886L468.29 475.98H468.392L470.489 481.886H466.193ZM476.005 487H477.59V481.145H484.57V487H486.156V473.909H484.57V479.739H477.59V473.909H476.005V487Z" fill="black"/>
<path d="M518.463 482H523.999V472.719H528.038L532.999 482H539.109L533.548 471.824C536.527 470.546 538.176 467.95 538.176 464.371C538.176 459.168 534.737 455.818 528.793 455.818H518.463V482ZM523.999 468.27V460.344H527.732C530.928 460.344 532.474 461.763 532.474 464.371C532.474 466.966 530.928 468.27 527.757 468.27H523.999Z" fill="black"/>
<path d="M558.545 473.909H556.985L555.272 484.213H555.144L549.698 473.909H548.164L545.991 487H547.576L549.289 476.722H549.417L554.837 487H556.371L558.545 473.909Z" fill="black"/>
<path d="M491.123 474.938H506.873V472.176H491.123V474.938ZM491.123 467.369H506.873V464.608H491.123V467.369Z" fill="black"/>
<path d="M93.3629 256.977H98.8942V273H100.488V256.977H106.019V255.545H93.3629V256.977ZM110.809 264.818C110.809 262.534 112.343 261.128 114.44 261.128C116.468 261.128 117.763 262.457 117.763 264.614V273H119.289V264.52C119.289 261.401 117.482 259.739 114.823 259.739C112.846 259.739 111.559 260.608 110.945 261.963H110.809V255.545H109.292V273H110.809V264.818ZM123.284 273H124.801V264.545C124.801 262.602 126.293 261.196 128.338 261.196C128.739 261.196 129.114 261.264 129.25 261.281V259.739C129.045 259.73 128.696 259.713 128.449 259.713C126.804 259.713 125.398 260.599 124.869 261.92H124.759V259.909H123.284V273ZM136.733 273.273C139.358 273.273 141.122 271.849 141.719 270.205L140.278 269.736C139.776 270.912 138.591 271.884 136.733 271.884C134.057 271.884 132.361 269.932 132.293 266.906H142.043V266.156C142.043 261.784 139.341 259.73 136.503 259.73C133.111 259.73 130.767 262.568 130.767 266.531C130.767 270.503 133.068 273.273 136.733 273.273ZM132.301 265.568C132.463 263.131 134.108 261.111 136.503 261.111C138.847 261.111 140.491 263.045 140.491 265.568H132.301ZM149.042 273.298C151.224 273.298 152.553 272.088 153.099 270.929H153.192V273H154.71V264.111C154.71 260.599 152.067 259.73 150.065 259.73C148.062 259.73 145.999 260.523 145.113 262.662L146.553 263.182C147.031 262.057 148.215 261.094 150.107 261.094C152.093 261.094 153.192 262.185 153.192 263.974V264.281C153.192 265.27 151.965 265.287 149.766 265.56C146.809 265.926 144.738 266.753 144.738 269.344C144.738 271.866 146.664 273.298 149.042 273.298ZM149.246 271.909C147.533 271.909 146.255 270.997 146.255 269.412C146.255 267.827 147.55 267.162 149.766 266.889C150.84 266.761 152.749 266.523 153.192 266.088V267.98C153.192 270.128 151.667 271.909 149.246 271.909ZM163.458 273.273C165.836 273.273 166.944 271.764 167.481 270.571H167.66V273H169.143V255.545H167.617V262.406H167.481C166.961 261.23 165.879 259.73 163.484 259.73C160.254 259.73 158.072 262.457 158.072 266.489C158.072 270.554 160.245 273.273 163.458 273.273ZM163.637 271.884C161.029 271.884 159.597 269.514 159.597 266.463C159.597 263.446 161.012 261.111 163.637 261.111C166.194 261.111 167.643 263.327 167.643 266.463C167.643 269.625 166.177 271.884 163.637 271.884ZM185.54 255.545H183.879L179.754 258.281V259.935L183.844 257.216H183.947V273H185.54V255.545Z" fill="black"/>
<path d="M213.363 327.977H218.894V344H220.488V327.977H226.019V326.545H213.363V327.977ZM230.809 335.818C230.809 333.534 232.343 332.128 234.44 332.128C236.468 332.128 237.763 333.457 237.763 335.614V344H239.289V335.52C239.289 332.401 237.482 330.739 234.823 330.739C232.846 330.739 231.559 331.608 230.945 332.963H230.809V326.545H229.292V344H230.809V335.818ZM243.284 344H244.801V335.545C244.801 333.602 246.293 332.196 248.338 332.196C248.739 332.196 249.114 332.264 249.25 332.281V330.739C249.045 330.73 248.696 330.713 248.449 330.713C246.804 330.713 245.398 331.599 244.869 332.92H244.759V330.909H243.284V344ZM256.733 344.273C259.358 344.273 261.122 342.849 261.719 341.205L260.278 340.736C259.776 341.912 258.591 342.884 256.733 342.884C254.057 342.884 252.361 340.932 252.293 337.906H262.043V337.156C262.043 332.784 259.341 330.73 256.503 330.73C253.111 330.73 250.767 333.568 250.767 337.531C250.767 341.503 253.068 344.273 256.733 344.273ZM252.301 336.568C252.463 334.131 254.108 332.111 256.503 332.111C258.847 332.111 260.491 334.045 260.491 336.568H252.301ZM269.042 344.298C271.224 344.298 272.553 343.088 273.099 341.929H273.192V344H274.71V335.111C274.71 331.599 272.067 330.73 270.065 330.73C268.062 330.73 265.999 331.523 265.113 333.662L266.553 334.182C267.031 333.057 268.215 332.094 270.107 332.094C272.093 332.094 273.192 333.185 273.192 334.974V335.281C273.192 336.27 271.965 336.287 269.766 336.56C266.809 336.926 264.738 337.753 264.738 340.344C264.738 342.866 266.664 344.298 269.042 344.298ZM269.246 342.909C267.533 342.909 266.255 341.997 266.255 340.412C266.255 338.827 267.55 338.162 269.766 337.889C270.84 337.761 272.749 337.523 273.192 337.088V338.98C273.192 341.128 271.667 342.909 269.246 342.909ZM283.458 344.273C285.836 344.273 286.944 342.764 287.481 341.571H287.66V344H289.143V326.545H287.617V333.406H287.481C286.961 332.23 285.879 330.73 283.484 330.73C280.254 330.73 278.072 333.457 278.072 337.489C278.072 341.554 280.245 344.273 283.458 344.273ZM283.637 342.884C281.029 342.884 279.597 340.514 279.597 337.463C279.597 334.446 281.012 332.111 283.637 332.111C286.194 332.111 287.643 334.327 287.643 337.463C287.643 340.625 286.177 342.884 283.637 342.884ZM305.54 326.545H303.879L299.754 329.281V330.935L303.844 328.216H303.947V344H305.54V326.545Z" fill="black"/>
<path d="M452.363 399.977H457.894V416H459.488V399.977H465.019V398.545H452.363V399.977ZM469.809 407.818C469.809 405.534 471.343 404.128 473.44 404.128C475.468 404.128 476.763 405.457 476.763 407.614V416H478.289V407.52C478.289 404.401 476.482 402.739 473.823 402.739C471.846 402.739 470.559 403.608 469.945 404.963H469.809V398.545H468.292V416H469.809V407.818ZM482.284 416H483.801V407.545C483.801 405.602 485.293 404.196 487.338 404.196C487.739 404.196 488.114 404.264 488.25 404.281V402.739C488.045 402.73 487.696 402.713 487.449 402.713C485.804 402.713 484.398 403.599 483.869 404.92H483.759V402.909H482.284V416ZM495.733 416.273C498.358 416.273 500.122 414.849 500.719 413.205L499.278 412.736C498.776 413.912 497.591 414.884 495.733 414.884C493.057 414.884 491.361 412.932 491.293 409.906H501.043V409.156C501.043 404.784 498.341 402.73 495.503 402.73C492.111 402.73 489.767 405.568 489.767 409.531C489.767 413.503 492.068 416.273 495.733 416.273ZM491.301 408.568C491.463 406.131 493.108 404.111 495.503 404.111C497.847 404.111 499.491 406.045 499.491 408.568H491.301ZM508.042 416.298C510.224 416.298 511.553 415.088 512.099 413.929H512.192V416H513.71V407.111C513.71 403.599 511.067 402.73 509.065 402.73C507.062 402.73 504.999 403.523 504.113 405.662L505.553 406.182C506.031 405.057 507.215 404.094 509.107 404.094C511.093 404.094 512.192 405.185 512.192 406.974V407.281C512.192 408.27 510.965 408.287 508.766 408.56C505.809 408.926 503.738 409.753 503.738 412.344C503.738 414.866 505.664 416.298 508.042 416.298ZM508.246 414.909C506.533 414.909 505.255 413.997 505.255 412.412C505.255 410.827 506.55 410.162 508.766 409.889C509.84 409.761 511.749 409.523 512.192 409.088V410.98C512.192 413.128 510.667 414.909 508.246 414.909ZM522.458 416.273C524.836 416.273 525.944 414.764 526.481 413.571H526.66V416H528.143V398.545H526.617V405.406H526.481C525.961 404.23 524.879 402.73 522.484 402.73C519.254 402.73 517.072 405.457 517.072 409.489C517.072 413.554 519.245 416.273 522.458 416.273ZM522.637 414.884C520.029 414.884 518.597 412.514 518.597 409.463C518.597 406.446 520.012 404.111 522.637 404.111C525.194 404.111 526.643 406.327 526.643 409.463C526.643 412.625 525.177 414.884 522.637 414.884ZM544.54 398.545H542.879L538.754 401.281V402.935L542.844 400.216H542.947V416H544.54V398.545Z" fill="black"/>
<path d="M331.382 256.977H336.914V273H338.507V256.977H344.039V255.545H331.382V256.977ZM348.828 264.818C348.828 262.534 350.363 261.128 352.459 261.128C354.488 261.128 355.783 262.457 355.783 264.614V273H357.309V264.52C357.309 261.401 355.502 259.739 352.843 259.739C350.865 259.739 349.578 260.608 348.965 261.963H348.828V255.545H347.311V273H348.828V264.818ZM361.304 273H362.821V264.545C362.821 262.602 364.312 261.196 366.358 261.196C366.758 261.196 367.133 261.264 367.27 261.281V259.739C367.065 259.73 366.716 259.713 366.468 259.713C364.824 259.713 363.417 260.599 362.889 261.92H362.778V259.909H361.304V273ZM374.752 273.273C377.377 273.273 379.142 271.849 379.738 270.205L378.298 269.736C377.795 270.912 376.61 271.884 374.752 271.884C372.076 271.884 370.38 269.932 370.312 266.906H380.062V266.156C380.062 261.784 377.36 259.73 374.522 259.73C371.13 259.73 368.787 262.568 368.787 266.531C368.787 270.503 371.088 273.273 374.752 273.273ZM370.321 265.568C370.483 263.131 372.127 261.111 374.522 261.111C376.866 261.111 378.511 263.045 378.511 265.568H370.321ZM387.061 273.298C389.243 273.298 390.573 272.088 391.118 270.929H391.212V273H392.729V264.111C392.729 260.599 390.087 259.73 388.084 259.73C386.081 259.73 384.019 260.523 383.132 262.662L384.573 263.182C385.05 262.057 386.235 261.094 388.127 261.094C390.113 261.094 391.212 262.185 391.212 263.974V264.281C391.212 265.27 389.985 265.287 387.786 265.56C384.828 265.926 382.757 266.753 382.757 269.344C382.757 271.866 384.684 273.298 387.061 273.298ZM387.266 271.909C385.553 271.909 384.275 270.997 384.275 269.412C384.275 267.827 385.57 267.162 387.786 266.889C388.86 266.761 390.769 266.523 391.212 266.088V267.98C391.212 270.128 389.686 271.909 387.266 271.909ZM401.478 273.273C403.855 273.273 404.963 271.764 405.5 270.571H405.679V273H407.162V255.545H405.637V262.406H405.5C404.98 261.23 403.898 259.73 401.503 259.73C398.273 259.73 396.091 262.457 396.091 266.489C396.091 270.554 398.265 273.273 401.478 273.273ZM401.657 271.884C399.049 271.884 397.617 269.514 397.617 266.463C397.617 263.446 399.032 261.111 401.657 261.111C404.213 261.111 405.662 263.327 405.662 266.463C405.662 269.625 404.196 271.884 401.657 271.884ZM418.174 273H429.023V271.568H420.39V271.457L424.719 266.625C427.617 263.42 428.478 261.972 428.478 260.037C428.478 257.378 426.381 255.307 423.458 255.307C420.509 255.307 418.319 257.386 418.319 260.276H419.844C419.844 258.205 421.259 256.713 423.415 256.713C425.444 256.713 426.978 258.043 426.978 260.037C426.978 261.69 426.1 262.918 423.875 265.423L418.174 271.832V273Z" fill="black"/>
<path d="M570.66 256.977H576.191V273H577.785V256.977H583.316V255.545H570.66V256.977ZM588.106 264.818C588.106 262.534 589.64 261.128 591.737 261.128C593.765 261.128 595.06 262.457 595.06 264.614V273H596.586V264.52C596.586 261.401 594.779 259.739 592.12 259.739C590.143 259.739 588.856 260.608 588.242 261.963H588.106V255.545H586.589V273H588.106V264.818ZM600.581 273H602.098V264.545C602.098 262.602 603.589 261.196 605.635 261.196C606.036 261.196 606.411 261.264 606.547 261.281V259.739C606.342 259.73 605.993 259.713 605.746 259.713C604.101 259.713 602.695 260.599 602.166 261.92H602.055V259.909H600.581V273ZM614.03 273.273C616.655 273.273 618.419 271.849 619.016 270.205L617.575 269.736C617.072 270.912 615.888 271.884 614.03 271.884C611.354 271.884 609.658 269.932 609.589 266.906H619.339V266.156C619.339 261.784 616.638 259.73 613.8 259.73C610.408 259.73 608.064 262.568 608.064 266.531C608.064 270.503 610.365 273.273 614.03 273.273ZM609.598 265.568C609.76 263.131 611.405 261.111 613.8 261.111C616.143 261.111 617.788 263.045 617.788 265.568H609.598ZM626.339 273.298C628.521 273.298 629.85 272.088 630.396 270.929H630.489V273H632.006V264.111C632.006 260.599 629.364 259.73 627.362 259.73C625.359 259.73 623.296 260.523 622.41 262.662L623.85 263.182C624.327 262.057 625.512 261.094 627.404 261.094C629.39 261.094 630.489 262.185 630.489 263.974V264.281C630.489 265.27 629.262 265.287 627.063 265.56C624.106 265.926 622.035 266.753 622.035 269.344C622.035 271.866 623.961 273.298 626.339 273.298ZM626.543 271.909C624.83 271.909 623.552 270.997 623.552 269.412C623.552 267.827 624.847 267.162 627.063 266.889C628.137 266.761 630.046 266.523 630.489 266.088V267.98C630.489 270.128 628.964 271.909 626.543 271.909ZM640.755 273.273C643.133 273.273 644.241 271.764 644.778 270.571H644.957V273H646.44V255.545H644.914V262.406H644.778C644.258 261.23 643.175 259.73 640.781 259.73C637.55 259.73 635.369 262.457 635.369 266.489C635.369 270.554 637.542 273.273 640.755 273.273ZM640.934 271.884C638.326 271.884 636.894 269.514 636.894 266.463C636.894 263.446 638.309 261.111 640.934 261.111C643.491 261.111 644.94 263.327 644.94 266.463C644.94 269.625 643.474 271.884 640.934 271.884ZM663.119 273.239C666.391 273.239 668.778 271.125 668.778 268.33C668.778 266.114 667.414 264.486 665.19 264.043V263.932C667.022 263.386 668.181 261.903 668.181 259.909C668.181 257.412 666.221 255.307 663.153 255.307C660.229 255.307 657.894 257.182 657.826 259.909H659.369C659.42 257.957 661.107 256.713 663.136 256.713C665.241 256.713 666.63 258.051 666.63 259.977C666.63 262.014 665.002 263.318 662.744 263.318H661.721V264.75H662.744C665.505 264.75 667.21 266.207 667.21 268.33C667.21 270.341 665.513 271.807 663.102 271.807C660.877 271.807 659.138 270.545 659.053 268.636H657.442C657.528 271.355 659.88 273.239 663.119 273.239Z" fill="black"/>
<path d="M690.66 330.977H696.191V347H697.785V330.977H703.316V329.545H690.66V330.977ZM708.106 338.818C708.106 336.534 709.64 335.128 711.737 335.128C713.765 335.128 715.06 336.457 715.06 338.614V347H716.586V338.52C716.586 335.401 714.779 333.739 712.12 333.739C710.143 333.739 708.856 334.608 708.242 335.963H708.106V329.545H706.589V347H708.106V338.818ZM720.581 347H722.098V338.545C722.098 336.602 723.589 335.196 725.635 335.196C726.036 335.196 726.411 335.264 726.547 335.281V333.739C726.342 333.73 725.993 333.713 725.746 333.713C724.101 333.713 722.695 334.599 722.166 335.92H722.055V333.909H720.581V347ZM734.03 347.273C736.655 347.273 738.419 345.849 739.016 344.205L737.575 343.736C737.072 344.912 735.888 345.884 734.03 345.884C731.354 345.884 729.658 343.932 729.589 340.906H739.339V340.156C739.339 335.784 736.638 333.73 733.8 333.73C730.408 333.73 728.064 336.568 728.064 340.531C728.064 344.503 730.365 347.273 734.03 347.273ZM729.598 339.568C729.76 337.131 731.405 335.111 733.8 335.111C736.143 335.111 737.788 337.045 737.788 339.568H729.598ZM746.339 347.298C748.521 347.298 749.85 346.088 750.396 344.929H750.489V347H752.006V338.111C752.006 334.599 749.364 333.73 747.362 333.73C745.359 333.73 743.296 334.523 742.41 336.662L743.85 337.182C744.327 336.057 745.512 335.094 747.404 335.094C749.39 335.094 750.489 336.185 750.489 337.974V338.281C750.489 339.27 749.262 339.287 747.063 339.56C744.106 339.926 742.035 340.753 742.035 343.344C742.035 345.866 743.961 347.298 746.339 347.298ZM746.543 345.909C744.83 345.909 743.552 344.997 743.552 343.412C743.552 341.827 744.847 341.162 747.063 340.889C748.137 340.761 750.046 340.523 750.489 340.088V341.98C750.489 344.128 748.964 345.909 746.543 345.909ZM760.755 347.273C763.133 347.273 764.241 345.764 764.778 344.571H764.957V347H766.44V329.545H764.914V336.406H764.778C764.258 335.23 763.175 333.73 760.781 333.73C757.55 333.73 755.369 336.457 755.369 340.489C755.369 344.554 757.542 347.273 760.755 347.273ZM760.934 345.884C758.326 345.884 756.894 343.514 756.894 340.463C756.894 337.446 758.309 335.111 760.934 335.111C763.491 335.111 764.94 337.327 764.94 340.463C764.94 343.625 763.474 345.884 760.934 345.884ZM783.119 347.239C786.391 347.239 788.778 345.125 788.778 342.33C788.778 340.114 787.414 338.486 785.19 338.043V337.932C787.022 337.386 788.181 335.903 788.181 333.909C788.181 331.412 786.221 329.307 783.153 329.307C780.229 329.307 777.894 331.182 777.826 333.909H779.369C779.42 331.957 781.107 330.713 783.136 330.713C785.241 330.713 786.63 332.051 786.63 333.977C786.63 336.014 785.002 337.318 782.744 337.318H781.721V338.75H782.744C785.505 338.75 787.21 340.207 787.21 342.33C787.21 344.341 785.513 345.807 783.102 345.807C780.877 345.807 779.138 344.545 779.053 342.636H777.442C777.528 345.355 779.88 347.239 783.119 347.239Z" fill="black"/>
<path d="M809.695 256.977H815.226V273H816.82V256.977H822.351V255.545H809.695V256.977ZM827.141 264.818C827.141 262.534 828.675 261.128 830.772 261.128C832.8 261.128 834.096 262.457 834.096 264.614V273H835.621V264.52C835.621 261.401 833.814 259.739 831.155 259.739C829.178 259.739 827.891 260.608 827.277 261.963H827.141V255.545H825.624V273H827.141V264.818ZM839.616 273H841.133V264.545C841.133 262.602 842.625 261.196 844.67 261.196C845.071 261.196 845.446 261.264 845.582 261.281V259.739C845.377 259.73 845.028 259.713 844.781 259.713C843.136 259.713 841.73 260.599 841.201 261.92H841.091V259.909H839.616V273ZM853.065 273.273C855.69 273.273 857.454 271.849 858.051 270.205L856.61 269.736C856.108 270.912 854.923 271.884 853.065 271.884C850.389 271.884 848.693 269.932 848.625 266.906H858.375V266.156C858.375 261.784 855.673 259.73 852.835 259.73C849.443 259.73 847.099 262.568 847.099 266.531C847.099 270.503 849.4 273.273 853.065 273.273ZM848.633 265.568C848.795 263.131 850.44 261.111 852.835 261.111C855.179 261.111 856.824 263.045 856.824 265.568H848.633ZM865.374 273.298C867.556 273.298 868.885 272.088 869.431 270.929H869.525V273H871.042V264.111C871.042 260.599 868.4 259.73 866.397 259.73C864.394 259.73 862.331 260.523 861.445 262.662L862.885 263.182C863.363 262.057 864.547 261.094 866.439 261.094C868.425 261.094 869.525 262.185 869.525 263.974V264.281C869.525 265.27 868.297 265.287 866.098 265.56C863.141 265.926 861.07 266.753 861.07 269.344C861.07 271.866 862.996 273.298 865.374 273.298ZM865.578 271.909C863.865 271.909 862.587 270.997 862.587 269.412C862.587 267.827 863.882 267.162 866.098 266.889C867.172 266.761 869.081 266.523 869.525 266.088V267.98C869.525 270.128 867.999 271.909 865.578 271.909ZM879.79 273.273C882.168 273.273 883.276 271.764 883.813 270.571H883.992V273H885.475V255.545H883.949V262.406H883.813C883.293 261.23 882.211 259.73 879.816 259.73C876.586 259.73 874.404 262.457 874.404 266.489C874.404 270.554 876.577 273.273 879.79 273.273ZM879.969 271.884C877.361 271.884 875.929 269.514 875.929 266.463C875.929 263.446 877.344 261.111 879.969 261.111C882.526 261.111 883.975 263.327 883.975 266.463C883.975 269.625 882.509 271.884 879.969 271.884ZM896.069 269.25H904.216V273H905.733V269.25H908.051V267.818H905.733V255.545H903.85L896.069 267.955V269.25ZM904.216 267.818H897.85V267.707L904.097 257.719H904.216V267.818Z" fill="black"/>
<rect x="877.5" y="176.5" width="85" height="55" rx="9.5" stroke="black" stroke-width="5"/>
<path d="M910.188 217.5H912.579V205.47H927.434V217.5H929.825V191.318H927.434V203.323H912.579V191.318H910.188V217.5Z" fill="black"/>
<rect x="757.5" y="176.5" width="85" height="55" rx="9.5" stroke="black" stroke-width="5"/>
<path d="M808.376 199.5H810.83C809.986 194.885 806.062 190.96 800.334 190.96C793.699 190.96 789.084 196.202 789.084 204.409C789.084 212.604 793.648 217.858 800.501 217.858C806.624 217.858 811.009 213.678 811.009 206.966V204.818H801.063V206.966H808.682C808.618 212.323 805.256 215.608 800.501 215.608C795.208 215.608 791.398 211.44 791.398 204.409C791.398 197.352 795.233 193.21 800.334 193.21C804.655 193.21 807.43 196.023 808.376 199.5Z" fill="black"/>
<rect x="637.5" y="176.5" width="85" height="55" rx="9.5" stroke="black" stroke-width="5"/>
<path d="M672.93 217.5H675.321V205.47H686.891V203.323H675.321V193.466H688.08V191.318H672.93V217.5Z" fill="black"/>
<rect x="517.5" y="176.5" width="85" height="55" rx="9.5" stroke="black" stroke-width="5"/>
<path d="M553.04 217.5H568.483V215.352H555.43V205.47H567.422V203.323H555.43V193.466H568.227V191.318H553.04V217.5Z" fill="black"/>
<rect x="397.5" y="176.5" width="85" height="55" rx="9.5" stroke="black" stroke-width="5"/>
<path d="M438.228 217.5C446.103 217.5 450.59 212.578 450.603 204.345C450.603 196.202 446.18 191.318 438.688 191.318H430.557V217.5H438.228ZM432.948 215.352V193.466H438.547C444.901 193.466 448.276 197.57 448.289 204.345C448.289 211.185 444.837 215.352 438.087 215.352H432.948Z" fill="black"/>
<rect x="277.5" y="176.5" width="85" height="55" rx="9.5" stroke="black" stroke-width="5"/>
<path d="M330.547 199.5C329.691 194.68 325.753 190.96 320.18 190.96C313.57 190.96 308.866 196.215 308.866 204.409C308.866 212.604 313.57 217.858 320.18 217.858C325.753 217.858 329.691 214.125 330.547 209.318H328.144C327.415 212.911 324.283 215.608 320.18 215.608C315.219 215.608 311.18 211.683 311.18 204.409C311.18 197.161 315.219 193.21 320.18 193.21C324.283 193.21 327.415 195.921 328.144 199.5H330.547Z" fill="black"/>
<rect x="157.5" y="176.5" width="85" height="55" rx="9.5" stroke="black" stroke-width="5"/>
<path d="M192.573 217.5H201.893C207.518 217.5 210.113 214.598 210.113 210.635C210.113 206.659 207.479 204.269 204.935 204.09V203.885C207.275 203.259 209.09 201.443 209.09 198.171C209.09 194.233 206.52 191.318 201.407 191.318H192.573V217.5ZM194.964 215.352V205.266H201.995C205.51 205.266 207.824 207.644 207.824 210.635C207.824 213.345 205.932 215.352 201.893 215.352H194.964ZM194.964 203.144V193.466H201.407C204.986 193.466 206.802 195.396 206.802 198.171C206.802 201.047 204.718 203.144 201.624 203.144H194.964Z" fill="black"/>
<rect x="37.5" y="176.5" width="85" height="55" rx="9.5" stroke="black" stroke-width="5"/>
<path d="M71.4531 217.5L74.2528 209.612H85.2472L88.0469 217.5H90.5526L81.0284 191.318H78.4716L68.9474 217.5H71.4531ZM75.0199 207.465L79.6605 194.425H79.8395L84.4801 207.465H75.0199Z" fill="black"/>
<path d="M90.1097 138.932C85.0101 138.932 81.6402 137.461 80.2684 131.876L80 131.876L80 125L82.7138 125C82.7138 131.756 85.0697 133.948 91.6902 133.948L110.089 133.948C120.288 133.948 125 137.701 125 148L120.467 148C120.467 141.274 117.276 138.932 110.089 138.932L90.1097 138.932Z" fill="black"/>
<path d="M69.8903 138.932C74.9899 138.932 78.3598 137.461 79.7316 131.876L80 131.876L80 125L77.2862 125C77.2862 131.756 74.9303 133.948 68.3098 133.948L49.911 133.948C39.7119 133.948 35 137.701 35 148L39.5329 148C39.5329 141.274 42.7239 138.932 49.911 138.932L69.8903 138.932Z" fill="black"/>
<path d="M210.11 138.932C205.01 138.932 201.64 137.461 200.268 131.876L200 131.876L200 125L202.714 125C202.714 131.756 205.07 133.948 211.69 133.948L230.089 133.948C240.288 133.948 245 137.701 245 148L240.467 148C240.467 141.274 237.276 138.932 230.089 138.932L210.11 138.932Z" fill="black"/>
<path d="M189.89 139C194.99 139 198.36 137.522 199.732 131.909L200 131.909L200 125L197.286 125C197.286 131.789 194.93 133.991 188.31 133.991L100 133.991L100 139L189.89 139Z" fill="black"/>
<path d="M309.89 139C314.99 139 318.36 137.522 319.732 131.909L320 131.909L320 125L317.286 125C317.286 131.789 314.93 133.991 308.31 133.991L220 133.991L220 139L309.89 139Z" fill="black"/>
<path d="M429.89 139C434.99 139 438.36 137.522 439.732 131.909L440 131.909L440 125L437.286 125C437.286 131.789 434.93 133.991 428.31 133.991L340 133.991L340 139L429.89 139Z" fill="black"/>
<path d="M549.89 139C554.99 139 558.36 137.522 559.732 131.91L560 131.909L560 125L557.286 125C557.286 131.789 554.93 133.991 548.31 133.991L460 133.991L460 139L549.89 139Z" fill="black"/>
<path d="M669.89 139C674.99 139 678.36 137.522 679.732 131.91L680 131.909L680 125L677.286 125C677.286 131.789 674.93 133.991 668.31 133.991L580 133.991L580 139L669.89 139Z" fill="black"/>
<path d="M789.89 139C794.99 139 798.36 137.522 799.732 131.91L800 131.909L800 125L797.286 125C797.286 131.789 794.93 133.991 788.31 133.991L700 133.991L700 139L789.89 139Z" fill="black"/>
<path d="M909.89 139C914.99 139 918.36 137.522 919.732 131.91L920 131.91L920 125L917.286 125C917.286 131.789 914.93 133.991 908.31 133.991L820 133.991L820 139L909.89 139Z" fill="black"/>
<path d="M450.11 138.932C445.01 138.932 441.64 137.461 440.268 131.876L440 131.876L440 125L442.714 125C442.714 131.756 445.07 133.948 451.69 133.948L470.089 133.948C480.288 133.948 485 137.701 485 148L480.467 148C480.467 141.274 477.276 138.932 470.089 138.932L450.11 138.932Z" fill="black"/>
<path d="M570.11 138.932C565.01 138.932 561.64 137.461 560.268 131.876L560 131.876L560 125L562.714 125C562.714 131.756 565.07 133.948 571.69 133.948L590.089 133.948C600.288 133.948 605 137.701 605 148L600.467 148C600.467 141.274 597.276 138.932 590.089 138.932L570.11 138.932Z" fill="black"/>
<path d="M690.11 138.932C685.01 138.932 681.64 137.461 680.268 131.876L680 131.876L680 125L682.714 125C682.714 131.756 685.07 133.948 691.69 133.948L710.089 133.948C720.288 133.948 725 137.701 725 148L720.467 148C720.467 141.274 717.276 138.932 710.089 138.932L690.11 138.932Z" fill="black"/>
<path d="M810.11 138.932C805.01 138.932 801.64 137.461 800.268 131.876L800 131.876L800 125L802.714 125C802.714 131.756 805.07 133.948 811.69 133.948L830.089 133.948C840.288 133.948 845 137.701 845 148L840.467 148C840.467 141.274 837.276 138.932 830.089 138.932L810.11 138.932Z" fill="black"/>
<path d="M930.11 138.932C925.01 138.932 921.64 137.461 920.268 131.876L920 131.876L920 125L922.714 125C922.714 131.756 925.07 133.948 931.69 133.948L950.089 133.948C960.288 133.948 965 137.701 965 148L960.467 148C960.467 141.274 957.276 138.932 950.089 138.932L930.11 138.932Z" fill="black"/>
<path d="M330.11 138.932C325.01 138.932 321.64 137.461 320.268 131.876L320 131.876L320 125L322.714 125C322.714 131.756 325.07 133.948 331.69 133.948L350.089 133.948C360.288 133.948 365 137.701 365 148L360.467 148C360.467 141.274 357.276 138.932 350.089 138.932L330.11 138.932Z" fill="black"/>
<path d="M544.463 105H549.999V95.7188H554.038L558.999 105H565.109L559.548 94.8239C562.527 93.5455 564.176 90.9503 564.176 87.3707C564.176 82.1676 560.737 78.8182 554.793 78.8182H544.463V105ZM549.999 91.2699V83.3438H553.732C556.928 83.3438 558.474 84.7628 558.474 87.3707C558.474 89.9659 556.928 91.2699 553.757 91.2699H549.999Z" fill="black"/>
<path d="M572.47 110.179C574.963 110.179 576.791 108.338 576.791 105.832C576.791 103.295 575.027 101.435 572.624 101.435C571.742 101.435 570.885 101.748 570.348 102.176H570.272L570.732 98.3153H576.203V96.9091H569.402L568.61 103.352L570.093 103.531C570.636 103.141 571.563 102.86 572.368 102.866C574.036 102.879 575.257 104.145 575.257 105.858C575.257 107.539 574.081 108.773 572.47 108.773C571.128 108.773 570.061 107.91 569.939 106.727H568.405C568.501 108.722 570.22 110.179 572.47 110.179Z" fill="black"/>
<path d="M664.463 105H669.999V95.7188H674.038L678.999 105H685.109L679.548 94.8239C682.527 93.5455 684.176 90.9503 684.176 87.3707C684.176 82.1676 680.737 78.8182 674.793 78.8182H664.463V105ZM669.999 91.2699V83.3438H673.732C676.928 83.3438 678.474 84.7628 678.474 87.3707C678.474 89.9659 676.928 91.2699 673.757 91.2699H669.999Z" fill="black"/>
<path d="M692.085 110.179C694.732 110.211 696.458 108.217 696.458 105.781C696.458 103.25 694.585 101.435 692.341 101.435C690.992 101.435 689.835 102.093 689.12 103.173H689.017C689.024 99.9837 690.264 98.1364 692.29 98.1364C693.671 98.1364 694.502 99.0057 694.796 100.182H696.355C696.036 98.1491 694.489 96.7301 692.29 96.7301C689.343 96.7301 687.534 99.3381 687.534 103.966C687.534 108.805 689.938 110.153 692.085 110.179ZM692.085 108.773C690.443 108.773 689.241 107.373 689.247 105.807C689.254 104.241 690.513 102.841 692.137 102.841C693.741 102.841 694.924 104.158 694.924 105.781C694.924 107.443 693.69 108.773 692.085 108.773Z" fill="black"/>
<path d="M784.463 105H789.999V95.7188H794.038L798.999 105H805.109L799.548 94.8239C802.527 93.5455 804.176 90.9503 804.176 87.3707C804.176 82.1676 800.737 78.8182 794.793 78.8182H784.463V105ZM789.999 91.2699V83.3438H793.732C796.928 83.3438 798.474 84.7628 798.474 87.3707C798.474 89.9659 796.928 91.2699 793.757 91.2699H789.999Z" fill="black"/>
<path d="M809.123 110H810.785L816.614 98.392V96.9091H808.228V98.3153H814.978V98.4176L809.123 110Z" fill="black"/>
<path d="M864.463 105H869.999V95.7188H874.038L878.999 105H885.109L879.548 94.8239C882.527 93.5455 884.176 90.9503 884.176 87.3707C884.176 82.1676 880.737 78.8182 874.793 78.8182H864.463V105ZM869.999 91.2699V83.3438H873.732C876.928 83.3438 878.474 84.7628 878.474 87.3707C878.474 89.9659 876.928 91.2699 873.757 91.2699H869.999Z" fill="black"/>
<path d="M892.002 110.179C894.617 110.179 896.438 108.651 896.451 106.523C896.438 104.867 895.333 103.461 893.92 103.199V103.122C895.147 102.803 895.953 101.601 895.965 100.207C895.953 98.2131 894.278 96.7301 892.002 96.7301C889.701 96.7301 888.027 98.2131 888.039 100.207C888.027 101.601 888.832 102.803 890.085 103.122V103.199C888.647 103.461 887.541 104.867 887.554 106.523C887.541 108.651 889.362 110.179 892.002 110.179ZM892.002 108.773C890.206 108.773 889.1 107.852 889.113 106.446C889.1 104.969 890.321 103.915 892.002 103.915C893.658 103.915 894.879 104.969 894.892 106.446C894.879 107.852 893.773 108.773 892.002 108.773ZM892.002 102.56C890.571 102.56 889.561 101.665 889.573 100.31C889.561 98.9801 890.532 98.1108 892.002 98.1108C893.447 98.1108 894.419 98.9801 894.431 100.31C894.419 101.665 893.409 102.56 892.002 102.56Z" fill="black"/>
<path d="M930.463 105H935.999V95.7188H940.038L944.999 105H951.109L945.548 94.8239C948.527 93.5455 950.176 90.9503 950.176 87.3707C950.176 82.1676 946.737 78.8182 940.793 78.8182H930.463V105ZM935.999 91.2699V83.3438H939.732C942.928 83.3438 944.474 84.7628 944.474 87.3707C944.474 89.9659 942.928 91.2699 939.757 91.2699H935.999Z" fill="black"/>
<path d="M964.545 96.9091H962.985L961.272 107.213H961.144L955.698 96.9091H954.164L951.991 110H953.576L955.289 99.7216H955.417L960.837 110H962.371L964.545 96.9091Z" fill="black"/>
<path d="M905.123 100.938H920.873V98.1761H905.123V100.938ZM905.123 93.3693H920.873V90.608H905.123V93.3693Z" fill="black"/>
<path d="M425.463 105H430.999V95.7188H435.038L439.999 105H446.109L440.548 94.8239C443.527 93.5455 445.176 90.9503 445.176 87.3707C445.176 82.1676 441.737 78.8182 435.793 78.8182H425.463V105ZM430.999 91.2699V83.3438H434.732C437.928 83.3438 439.474 84.7628 439.474 87.3707C439.474 89.9659 437.928 91.2699 434.757 91.2699H430.999Z" fill="black"/>
<path d="M448.274 107.315H454.436V110H455.944V107.315H457.734V105.909H455.944V96.9091H454.027L448.274 106.011V107.315ZM454.436 105.909H449.987V105.807L454.334 98.929H454.436V105.909Z" fill="black"/>
<path d="M184.463 105H189.999V95.7188H194.038L198.999 105H205.109L199.548 94.8239C202.527 93.5455 204.176 90.9503 204.176 87.3707C204.176 82.1676 200.737 78.8182 194.793 78.8182H184.463V105ZM189.999 91.2699V83.3438H193.732C196.928 83.3438 198.474 84.7628 198.474 87.3707C198.474 89.9659 196.928 91.2699 193.757 91.2699H189.999Z" fill="black"/>
<path d="M208.406 110H216.664V108.594H210.579V108.491L213.52 105.347C215.77 102.937 216.434 101.812 216.434 100.361C216.434 98.3409 214.798 96.7301 212.497 96.7301C210.202 96.7301 208.457 98.2898 208.457 100.591H209.966C209.966 99.1016 210.931 98.1108 212.446 98.1108C213.865 98.1108 214.951 98.9801 214.951 100.361C214.951 101.569 214.242 102.464 212.727 104.119L208.406 108.849V110Z" fill="black"/>
<path d="M304.463 105H309.999V95.7188H314.038L318.999 105H325.109L319.548 94.8239C322.527 93.5455 324.176 90.9503 324.176 87.3707C324.176 82.1676 320.737 78.8182 314.793 78.8182H304.463V105ZM309.999 91.2699V83.3438H313.732C316.928 83.3438 318.474 84.7628 318.474 87.3707C318.474 89.9659 316.928 91.2699 313.757 91.2699H309.999Z" fill="black"/>
<path d="M332.048 110.179C334.586 110.179 336.471 108.587 336.471 106.446C336.471 104.784 335.487 103.576 333.838 103.301V103.199C335.161 102.796 335.985 101.71 335.985 100.233C335.985 98.3793 334.522 96.7301 332.099 96.7301C329.836 96.7301 327.957 98.1236 327.88 100.182H329.414C329.472 98.8778 330.712 98.1108 332.074 98.1108C333.518 98.1108 334.451 98.9865 334.451 100.31C334.451 101.69 333.371 102.585 331.818 102.585H330.77V103.991H331.818C333.806 103.991 334.912 105.001 334.912 106.446C334.912 107.833 333.703 108.773 332.022 108.773C330.507 108.773 329.306 107.993 329.21 106.727H327.599C327.695 108.786 329.51 110.179 332.048 110.179Z" fill="black"/>
<path d="M65.4631 105H70.9986V95.7188H75.0384L79.9986 105H86.1094L80.5483 94.8239C83.527 93.5455 85.1761 90.9503 85.1761 87.3707C85.1761 82.1676 81.7372 78.8182 75.7926 78.8182H65.4631V105ZM70.9986 91.2699V83.3438H74.7315C77.9276 83.3438 79.4744 84.7628 79.4744 87.3707C79.4744 89.9659 77.9276 91.2699 74.7571 91.2699H70.9986Z" fill="black"/>
<path d="M95.2738 96.9091H93.6886L90.4158 99.0824V100.693L93.6119 98.571H93.6886V110H95.2738V96.9091Z" fill="black"/>
<path d="M398.416 30.3693C397.99 28.1534 396.217 26.7386 393.149 26.7386C389.996 26.7386 387.848 28.2898 387.857 30.7102C387.848 32.6193 389.024 33.8807 391.538 34.4006L393.771 34.8693C394.973 35.1335 395.536 35.6193 395.536 36.3608C395.536 37.2557 394.564 37.929 393.098 37.929C391.683 37.929 390.763 37.3153 390.499 36.1392L387.49 36.429C387.874 38.8324 389.893 40.2557 393.107 40.2557C396.379 40.2557 398.689 38.5597 398.697 36.0795C398.689 34.2131 397.487 33.071 395.016 32.5341L392.783 32.0568C391.453 31.7585 390.925 31.2983 390.933 30.5398C390.925 29.6534 391.905 29.0398 393.192 29.0398C394.615 29.0398 395.365 29.8153 395.604 30.6761L398.416 30.3693ZM407.037 40.2557C410.088 40.2557 412.185 38.7642 412.73 36.4886L409.849 36.1648C409.432 37.2727 408.409 37.8523 407.08 37.8523C405.085 37.8523 403.764 36.5398 403.739 34.2983H412.858V33.3523C412.858 28.7585 410.097 26.7386 406.875 26.7386C403.125 26.7386 400.679 29.4915 400.679 33.5312C400.679 37.6392 403.091 40.2557 407.037 40.2557ZM403.747 32.2188C403.841 30.5483 405.077 29.142 406.918 29.142C408.69 29.142 409.884 30.4375 409.901 32.2188H403.747ZM415.468 40H418.553V32.304C418.553 30.642 419.806 29.4659 421.502 29.4659C422.022 29.4659 422.67 29.5597 422.934 29.6449V26.8068C422.653 26.7557 422.167 26.7216 421.826 26.7216C420.326 26.7216 419.073 27.5739 418.596 29.0909H418.46V26.9091H415.468V40ZM424.984 40H428.069V26.9091H424.984V40ZM426.535 25.0511C427.515 25.0511 428.316 24.3011 428.316 23.3807C428.316 22.4517 427.515 21.7017 426.535 21.7017C425.546 21.7017 424.745 22.4517 424.745 23.3807C424.745 24.3011 425.546 25.0511 426.535 25.0511ZM435.009 40.2642C437.062 40.2642 438.29 39.3011 438.852 38.2017H438.955V40H441.92V31.2386C441.92 27.7784 439.099 26.7386 436.602 26.7386C433.849 26.7386 431.736 27.9659 431.054 30.3523L433.935 30.7614C434.241 29.8665 435.111 29.0994 436.619 29.0994C438.051 29.0994 438.835 29.8324 438.835 31.1193V31.1705C438.835 32.0568 437.906 32.0994 435.597 32.3466C433.057 32.6193 430.628 33.3778 430.628 36.3267C430.628 38.9006 432.511 40.2642 435.009 40.2642ZM435.81 37.9972C434.523 37.9972 433.602 37.4091 433.602 36.2756C433.602 35.0909 434.634 34.5966 436.014 34.4006C436.824 34.2898 438.443 34.0852 438.844 33.7614V35.304C438.844 36.7614 437.668 37.9972 435.81 37.9972ZM448.108 22.5455H445.023V40H448.108V22.5455ZM461.001 40.2642C463.055 40.2642 464.282 39.3011 464.844 38.2017H464.947V40H467.913V31.2386C467.913 27.7784 465.092 26.7386 462.594 26.7386C459.842 26.7386 457.728 27.9659 457.046 30.3523L459.927 30.7614C460.234 29.8665 461.103 29.0994 462.612 29.0994C464.043 29.0994 464.827 29.8324 464.827 31.1193V31.1705C464.827 32.0568 463.898 32.0994 461.589 32.3466C459.049 32.6193 456.62 33.3778 456.62 36.3267C456.62 38.9006 458.504 40.2642 461.001 40.2642ZM461.802 37.9972C460.515 37.9972 459.594 37.4091 459.594 36.2756C459.594 35.0909 460.626 34.5966 462.006 34.4006C462.816 34.2898 464.435 34.0852 464.836 33.7614V35.304C464.836 36.7614 463.66 37.9972 461.802 37.9972ZM476.725 40.2557C480.015 40.2557 482.112 38.304 482.333 35.5256H479.384C479.12 36.9318 478.106 37.7415 476.751 37.7415C474.825 37.7415 473.58 36.1307 473.58 33.4545C473.58 30.8125 474.85 29.2273 476.751 29.2273C478.234 29.2273 479.146 30.1818 479.384 31.4432H482.333C482.12 28.6051 479.904 26.7386 476.708 26.7386C472.873 26.7386 470.452 29.5085 470.452 33.5057C470.452 37.4688 472.813 40.2557 476.725 40.2557ZM490.577 40.2557C493.866 40.2557 495.963 38.304 496.185 35.5256H493.236C492.972 36.9318 491.957 37.7415 490.602 37.7415C488.676 37.7415 487.432 36.1307 487.432 33.4545C487.432 30.8125 488.702 29.2273 490.602 29.2273C492.085 29.2273 492.997 30.1818 493.236 31.4432H496.185C495.972 28.6051 493.756 26.7386 490.56 26.7386C486.724 26.7386 484.304 29.5085 484.304 33.5057C484.304 37.4688 486.665 40.2557 490.577 40.2557ZM507.062 34.4943C507.062 36.4886 505.638 37.4773 504.275 37.4773C502.792 37.4773 501.803 36.429 501.803 34.767V26.9091H498.718V35.2443C498.718 38.3892 500.508 40.1705 503.082 40.1705C505.042 40.1705 506.423 39.1392 507.019 37.6733H507.156V40H510.147V26.9091H507.062V34.4943ZM513.32 40H516.405V32.0398C516.405 30.429 517.479 29.3381 518.808 29.3381C520.112 29.3381 521.007 30.2159 521.007 31.5625V40H524.033V31.8352C524.033 30.3608 524.911 29.3381 526.402 29.3381C527.646 29.3381 528.635 30.071 528.635 31.6903V40H531.729V31.2131C531.729 28.2898 530.041 26.7386 527.638 26.7386C525.737 26.7386 524.288 27.6761 523.709 29.1335H523.572C523.07 27.6506 521.8 26.7386 520.036 26.7386C518.28 26.7386 516.967 27.642 516.422 29.1335H516.268V26.9091H513.32V40ZM543.202 34.4943C543.202 36.4886 541.779 37.4773 540.415 37.4773C538.933 37.4773 537.944 36.429 537.944 34.767V26.9091H534.859V35.2443C534.859 38.3892 536.648 40.1705 539.222 40.1705C541.183 40.1705 542.563 39.1392 543.16 37.6733H543.296V40H546.288V26.9091H543.202V34.4943ZM552.545 22.5455H549.46V40H552.545V22.5455ZM559.485 40.2642C561.539 40.2642 562.766 39.3011 563.329 38.2017H563.431V40H566.397V31.2386C566.397 27.7784 563.576 26.7386 561.079 26.7386C558.326 26.7386 556.212 27.9659 555.531 30.3523L558.411 30.7614C558.718 29.8665 559.587 29.0994 561.096 29.0994C562.528 29.0994 563.312 29.8324 563.312 31.1193V31.1705C563.312 32.0568 562.383 32.0994 560.073 32.3466C557.533 32.6193 555.104 33.3778 555.104 36.3267C555.104 38.9006 556.988 40.2642 559.485 40.2642ZM560.286 37.9972C558.999 37.9972 558.079 37.4091 558.079 36.2756C558.079 35.0909 559.11 34.5966 560.491 34.4006C561.3 34.2898 562.92 34.0852 563.32 33.7614V35.304C563.32 36.7614 562.144 37.9972 560.286 37.9972ZM576.036 26.9091H573.454V23.7727H570.369V26.9091H568.511V29.2955H570.369V36.5739C570.352 39.0369 572.141 40.2472 574.46 40.179C575.337 40.1534 575.942 39.983 576.275 39.8722L575.755 37.4602C575.585 37.5028 575.235 37.5795 574.852 37.5795C574.076 37.5795 573.454 37.3068 573.454 36.0625V29.2955H576.036V26.9091ZM578.616 40H581.702V26.9091H578.616V40ZM580.168 25.0511C581.148 25.0511 581.949 24.3011 581.949 23.3807C581.949 22.4517 581.148 21.7017 580.168 21.7017C579.179 21.7017 578.378 22.4517 578.378 23.3807C578.378 24.3011 579.179 25.0511 580.168 25.0511ZM590.585 40.2557C594.42 40.2557 596.857 37.554 596.857 33.5057C596.857 29.4489 594.42 26.7386 590.585 26.7386C586.749 26.7386 584.312 29.4489 584.312 33.5057C584.312 37.554 586.749 40.2557 590.585 40.2557ZM590.602 37.7841C588.479 37.7841 587.44 35.892 587.44 33.4972C587.44 31.1023 588.479 29.1847 590.602 29.1847C592.69 29.1847 593.729 31.1023 593.729 33.4972C593.729 35.892 592.69 37.7841 590.602 37.7841ZM602.561 32.3295C602.561 30.4375 603.703 29.3466 605.331 29.3466C606.925 29.3466 607.879 30.3949 607.879 32.142V40H610.964V31.6648C610.973 28.5284 609.183 26.7386 606.482 26.7386C604.521 26.7386 603.175 27.6761 602.578 29.1335H602.425V26.9091H599.476V40H602.561V32.3295Z" fill="black"/>
<path d="M400.011 531.909H403.096V524.938H403.224C403.71 525.892 404.724 527.23 406.974 527.23C410.059 527.23 412.369 524.784 412.369 520.472C412.369 516.108 409.991 513.739 406.966 513.739C404.656 513.739 403.693 515.128 403.224 516.074H403.045V513.909H400.011V531.909ZM403.037 520.455C403.037 517.915 404.127 516.27 406.113 516.27C408.167 516.27 409.224 518.017 409.224 520.455C409.224 522.909 408.15 524.699 406.113 524.699C404.145 524.699 403.037 522.994 403.037 520.455ZM418.778 527.264C420.832 527.264 422.059 526.301 422.622 525.202H422.724V527H425.69V518.239C425.69 514.778 422.869 513.739 420.372 513.739C417.619 513.739 415.505 514.966 414.824 517.352L417.704 517.761C418.011 516.866 418.88 516.099 420.389 516.099C421.821 516.099 422.605 516.832 422.605 518.119V518.17C422.605 519.057 421.676 519.099 419.366 519.347C416.826 519.619 414.397 520.378 414.397 523.327C414.397 525.901 416.281 527.264 418.778 527.264ZM419.579 524.997C418.292 524.997 417.372 524.409 417.372 523.276C417.372 522.091 418.403 521.597 419.784 521.401C420.593 521.29 422.213 521.085 422.613 520.761V522.304C422.613 523.761 421.437 524.997 419.579 524.997ZM428.792 527H431.877V519.304C431.877 517.642 433.13 516.466 434.826 516.466C435.346 516.466 435.994 516.56 436.258 516.645V513.807C435.977 513.756 435.491 513.722 435.15 513.722C433.65 513.722 432.397 514.574 431.92 516.091H431.784V513.909H428.792V527ZM441.817 527.264C443.871 527.264 445.098 526.301 445.661 525.202H445.763V527H448.729V518.239C448.729 514.778 445.908 513.739 443.411 513.739C440.658 513.739 438.544 514.966 437.863 517.352L440.743 517.761C441.05 516.866 441.919 516.099 443.428 516.099C444.86 516.099 445.644 516.832 445.644 518.119V518.17C445.644 519.057 444.715 519.099 442.405 519.347C439.865 519.619 437.436 520.378 437.436 523.327C437.436 525.901 439.32 527.264 441.817 527.264ZM442.618 524.997C441.331 524.997 440.411 524.409 440.411 523.276C440.411 522.091 441.442 521.597 442.823 521.401C443.632 521.29 445.252 521.085 445.652 520.761V522.304C445.652 523.761 444.476 524.997 442.618 524.997ZM454.917 509.545H451.831V527H454.917V509.545ZM461.174 509.545H458.089V527H461.174V509.545ZM470.142 527.256C473.194 527.256 475.29 525.764 475.836 523.489L472.955 523.165C472.537 524.273 471.515 524.852 470.185 524.852C468.191 524.852 466.87 523.54 466.844 521.298H475.963V520.352C475.963 515.759 473.202 513.739 469.98 513.739C466.23 513.739 463.784 516.491 463.784 520.531C463.784 524.639 466.196 527.256 470.142 527.256ZM466.853 519.219C466.946 517.548 468.182 516.142 470.023 516.142C471.796 516.142 472.989 517.438 473.006 519.219H466.853ZM481.659 509.545H478.574V527H481.659V509.545ZM490.784 527H493.87V519.304C493.87 517.642 495.123 516.466 496.819 516.466C497.338 516.466 497.986 516.56 498.25 516.645V513.807C497.969 513.756 497.483 513.722 497.142 513.722C495.642 513.722 494.39 514.574 493.912 516.091H493.776V513.909H490.784V527ZM505.556 527.256C508.608 527.256 510.704 525.764 511.25 523.489L508.369 523.165C507.951 524.273 506.929 524.852 505.599 524.852C503.605 524.852 502.284 523.54 502.258 521.298H511.377V520.352C511.377 515.759 508.616 513.739 505.395 513.739C501.645 513.739 499.199 516.491 499.199 520.531C499.199 524.639 501.61 527.256 505.556 527.256ZM502.267 519.219C502.36 517.548 503.596 516.142 505.437 516.142C507.21 516.142 508.403 517.438 508.42 519.219H502.267ZM518.846 527.23C521.096 527.23 522.11 525.892 522.596 524.938H522.783V527H525.817V509.545H522.723V516.074H522.596C522.127 515.128 521.164 513.739 518.854 513.739C515.828 513.739 513.451 516.108 513.451 520.472C513.451 524.784 515.76 527.23 518.846 527.23ZM519.706 524.699C517.669 524.699 516.596 522.909 516.596 520.455C516.596 518.017 517.652 516.27 519.706 516.27C521.692 516.27 522.783 517.915 522.783 520.455C522.783 522.994 521.675 524.699 519.706 524.699ZM537.449 521.494C537.449 523.489 536.025 524.477 534.662 524.477C533.179 524.477 532.19 523.429 532.19 521.767V513.909H529.105V522.244C529.105 525.389 530.895 527.17 533.468 527.17C535.429 527.17 536.809 526.139 537.406 524.673H537.542V527H540.534V513.909H537.449V521.494ZM549.417 527.256C552.706 527.256 554.803 525.304 555.025 522.526H552.076C551.811 523.932 550.797 524.741 549.442 524.741C547.516 524.741 546.272 523.131 546.272 520.455C546.272 517.812 547.542 516.227 549.442 516.227C550.925 516.227 551.837 517.182 552.076 518.443H555.025C554.811 515.605 552.596 513.739 549.4 513.739C545.564 513.739 543.144 516.509 543.144 520.506C543.144 524.469 545.505 527.256 549.417 527.256ZM564.095 513.909H561.512V510.773H558.427V513.909H556.569V516.295H558.427V523.574C558.41 526.037 560.2 527.247 562.518 527.179C563.396 527.153 564.001 526.983 564.333 526.872L563.814 524.46C563.643 524.503 563.294 524.58 562.91 524.58C562.135 524.58 561.512 524.307 561.512 523.062V516.295H564.095V513.909ZM566.675 527H569.76V513.909H566.675V527ZM568.226 512.051C569.206 512.051 570.007 511.301 570.007 510.381C570.007 509.452 569.206 508.702 568.226 508.702C567.238 508.702 566.436 509.452 566.436 510.381C566.436 511.301 567.238 512.051 568.226 512.051ZM578.643 527.256C582.478 527.256 584.916 524.554 584.916 520.506C584.916 516.449 582.478 513.739 578.643 513.739C574.808 513.739 572.37 516.449 572.37 520.506C572.37 524.554 574.808 527.256 578.643 527.256ZM578.66 524.784C576.538 524.784 575.498 522.892 575.498 520.497C575.498 518.102 576.538 516.185 578.66 516.185C580.748 516.185 581.788 518.102 581.788 520.497C581.788 522.892 580.748 524.784 578.66 524.784ZM590.62 519.33C590.62 517.438 591.762 516.347 593.39 516.347C594.983 516.347 595.938 517.395 595.938 519.142V527H599.023V518.665C599.032 515.528 597.242 513.739 594.54 513.739C592.58 513.739 591.233 514.676 590.637 516.134H590.483V513.909H587.534V527H590.62V519.33Z" fill="black"/>
</svg>
