<?xml version="1.0" encoding="utf-8" standalone="no"?>
<!DOCTYPE svg PUBLIC "-//W3C//DTD SVG 1.1//EN"
  "http://www.w3.org/Graphics/SVG/1.1/DTD/svg11.dtd">
<!-- Created with matplotlib (https://matplotlib.org/) -->
<svg height="576pt" version="1.1" viewBox="0 0 460.8 576" width="460.8pt" xmlns="http://www.w3.org/2000/svg" xmlns:xlink="http://www.w3.org/1999/xlink">
 <metadata>
  <rdf:RDF xmlns:cc="http://creativecommons.org/ns#" xmlns:dc="http://purl.org/dc/elements/1.1/" xmlns:rdf="http://www.w3.org/1999/02/22-rdf-syntax-ns#">
   <cc:Work>
    <dc:type rdf:resource="http://purl.org/dc/dcmitype/StillImage"/>
    <dc:date>2020-10-14T00:27:45.693835</dc:date>
    <dc:format>image/svg+xml</dc:format>
    <dc:creator>
     <cc:Agent>
      <dc:title>Matplotlib v3.3.1, https://matplotlib.org/</dc:title>
     </cc:Agent>
    </dc:creator>
   </cc:Work>
  </rdf:RDF>
 </metadata>
 <defs>
  <style type="text/css">*{stroke-linecap:butt;stroke-linejoin:round;}</style>
 </defs>
 <g id="figure_1">
  <g id="patch_1">
   <path d="M 0 576 
L 460.8 576 
L 460.8 0 
L 0 0 
z
" style="fill:#ffffff;"/>
  </g>
  <g id="axes_1">
   <g id="patch_2">
    <path d="M 30.58 102.835228 
L 446.805 102.835228 
L 446.805 46.591448 
L 30.58 46.591448 
z
" style="fill:#ffffff;"/>
   </g>
   <g id="matplotlib.axis_1">
    <g id="xtick_1">
     <g id="line2d_1">
      <defs>
       <path d="M 0 0 
L 0 3.5 
" id="m0a9c5dc63b" style="stroke:#000000;stroke-width:0.8;"/>
      </defs>
      <g>
       <use style="stroke:#000000;stroke-width:0.8;" x="30.58" xlink:href="#m0a9c5dc63b" y="102.835228"/>
      </g>
     </g>
     <g id="text_1">
      <!-- 0 -->
      <g transform="translate(27.39875 117.433665)scale(0.1 -0.1)">
       <defs>
        <path d="M 31.78125 66.40625 
Q 24.171875 66.40625 20.328125 58.90625 
Q 16.5 51.421875 16.5 36.375 
Q 16.5 21.390625 20.328125 13.890625 
Q 24.171875 6.390625 31.78125 6.390625 
Q 39.453125 6.390625 43.28125 13.890625 
Q 47.125 21.390625 47.125 36.375 
Q 47.125 51.421875 43.28125 58.90625 
Q 39.453125 66.40625 31.78125 66.40625 
z
M 31.78125 74.21875 
Q 44.046875 74.21875 50.515625 64.515625 
Q 56.984375 54.828125 56.984375 36.375 
Q 56.984375 17.96875 50.515625 8.265625 
Q 44.046875 -1.421875 31.78125 -1.421875 
Q 19.53125 -1.421875 13.0625 8.265625 
Q 6.59375 17.96875 6.59375 36.375 
Q 6.59375 54.828125 13.0625 64.515625 
Q 19.53125 74.21875 31.78125 74.21875 
z
" id="DejaVuSans-48"/>
       </defs>
       <use xlink:href="#DejaVuSans-48"/>
      </g>
     </g>
    </g>
    <g id="xtick_2">
     <g id="line2d_2">
      <g>
       <use style="stroke:#000000;stroke-width:0.8;" x="82.608125" xlink:href="#m0a9c5dc63b" y="102.835228"/>
      </g>
     </g>
     <g id="text_2">
      <!-- 1 -->
      <g transform="translate(79.426875 117.433665)scale(0.1 -0.1)">
       <defs>
        <path d="M 12.40625 8.296875 
L 28.515625 8.296875 
L 28.515625 63.921875 
L 10.984375 60.40625 
L 10.984375 69.390625 
L 28.421875 72.90625 
L 38.28125 72.90625 
L 38.28125 8.296875 
L 54.390625 8.296875 
L 54.390625 0 
L 12.40625 0 
z
" id="DejaVuSans-49"/>
       </defs>
       <use xlink:href="#DejaVuSans-49"/>
      </g>
     </g>
    </g>
    <g id="xtick_3">
     <g id="line2d_3">
      <g>
       <use style="stroke:#000000;stroke-width:0.8;" x="134.63625" xlink:href="#m0a9c5dc63b" y="102.835228"/>
      </g>
     </g>
     <g id="text_3">
      <!-- 2 -->
      <g transform="translate(131.455 117.433665)scale(0.1 -0.1)">
       <defs>
        <path d="M 19.1875 8.296875 
L 53.609375 8.296875 
L 53.609375 0 
L 7.328125 0 
L 7.328125 8.296875 
Q 12.9375 14.109375 22.625 23.890625 
Q 32.328125 33.6875 34.8125 36.53125 
Q 39.546875 41.84375 41.421875 45.53125 
Q 43.3125 49.21875 43.3125 52.78125 
Q 43.3125 58.59375 39.234375 62.25 
Q 35.15625 65.921875 28.609375 65.921875 
Q 23.96875 65.921875 18.8125 64.3125 
Q 13.671875 62.703125 7.8125 59.421875 
L 7.8125 69.390625 
Q 13.765625 71.78125 18.9375 73 
Q 24.125 74.21875 28.421875 74.21875 
Q 39.75 74.21875 46.484375 68.546875 
Q 53.21875 62.890625 53.21875 53.421875 
Q 53.21875 48.921875 51.53125 44.890625 
Q 49.859375 40.875 45.40625 35.40625 
Q 44.1875 33.984375 37.640625 27.21875 
Q 31.109375 20.453125 19.1875 8.296875 
z
" id="DejaVuSans-50"/>
       </defs>
       <use xlink:href="#DejaVuSans-50"/>
      </g>
     </g>
    </g>
    <g id="xtick_4">
     <g id="line2d_4">
      <g>
       <use style="stroke:#000000;stroke-width:0.8;" x="186.664375" xlink:href="#m0a9c5dc63b" y="102.835228"/>
      </g>
     </g>
     <g id="text_4">
      <!-- 3 -->
      <g transform="translate(183.483125 117.433665)scale(0.1 -0.1)">
       <defs>
        <path d="M 40.578125 39.3125 
Q 47.65625 37.796875 51.625 33 
Q 55.609375 28.21875 55.609375 21.1875 
Q 55.609375 10.40625 48.1875 4.484375 
Q 40.765625 -1.421875 27.09375 -1.421875 
Q 22.515625 -1.421875 17.65625 -0.515625 
Q 12.796875 0.390625 7.625 2.203125 
L 7.625 11.71875 
Q 11.71875 9.328125 16.59375 8.109375 
Q 21.484375 6.890625 26.8125 6.890625 
Q 36.078125 6.890625 40.9375 10.546875 
Q 45.796875 14.203125 45.796875 21.1875 
Q 45.796875 27.640625 41.28125 31.265625 
Q 36.765625 34.90625 28.71875 34.90625 
L 20.21875 34.90625 
L 20.21875 43.015625 
L 29.109375 43.015625 
Q 36.375 43.015625 40.234375 45.921875 
Q 44.09375 48.828125 44.09375 54.296875 
Q 44.09375 59.90625 40.109375 62.90625 
Q 36.140625 65.921875 28.71875 65.921875 
Q 24.65625 65.921875 20.015625 65.03125 
Q 15.375 64.15625 9.8125 62.3125 
L 9.8125 71.09375 
Q 15.4375 72.65625 20.34375 73.4375 
Q 25.25 74.21875 29.59375 74.21875 
Q 40.828125 74.21875 47.359375 69.109375 
Q 53.90625 64.015625 53.90625 55.328125 
Q 53.90625 49.265625 50.4375 45.09375 
Q 46.96875 40.921875 40.578125 39.3125 
z
" id="DejaVuSans-51"/>
       </defs>
       <use xlink:href="#DejaVuSans-51"/>
      </g>
     </g>
    </g>
    <g id="xtick_5">
     <g id="line2d_5">
      <g>
       <use style="stroke:#000000;stroke-width:0.8;" x="238.6925" xlink:href="#m0a9c5dc63b" y="102.835228"/>
      </g>
     </g>
     <g id="text_5">
      <!-- 4 -->
      <g transform="translate(235.51125 117.433665)scale(0.1 -0.1)">
       <defs>
        <path d="M 37.796875 64.3125 
L 12.890625 25.390625 
L 37.796875 25.390625 
z
M 35.203125 72.90625 
L 47.609375 72.90625 
L 47.609375 25.390625 
L 58.015625 25.390625 
L 58.015625 17.1875 
L 47.609375 17.1875 
L 47.609375 0 
L 37.796875 0 
L 37.796875 17.1875 
L 4.890625 17.1875 
L 4.890625 26.703125 
z
" id="DejaVuSans-52"/>
       </defs>
       <use xlink:href="#DejaVuSans-52"/>
      </g>
     </g>
    </g>
    <g id="xtick_6">
     <g id="line2d_6">
      <g>
       <use style="stroke:#000000;stroke-width:0.8;" x="290.720625" xlink:href="#m0a9c5dc63b" y="102.835228"/>
      </g>
     </g>
     <g id="text_6">
      <!-- 5 -->
      <g transform="translate(287.539375 117.433665)scale(0.1 -0.1)">
       <defs>
        <path d="M 10.796875 72.90625 
L 49.515625 72.90625 
L 49.515625 64.59375 
L 19.828125 64.59375 
L 19.828125 46.734375 
Q 21.96875 47.46875 24.109375 47.828125 
Q 26.265625 48.1875 28.421875 48.1875 
Q 40.625 48.1875 47.75 41.5 
Q 54.890625 34.8125 54.890625 23.390625 
Q 54.890625 11.625 47.5625 5.09375 
Q 40.234375 -1.421875 26.90625 -1.421875 
Q 22.3125 -1.421875 17.546875 -0.640625 
Q 12.796875 0.140625 7.71875 1.703125 
L 7.71875 11.625 
Q 12.109375 9.234375 16.796875 8.0625 
Q 21.484375 6.890625 26.703125 6.890625 
Q 35.15625 6.890625 40.078125 11.328125 
Q 45.015625 15.765625 45.015625 23.390625 
Q 45.015625 31 40.078125 35.4375 
Q 35.15625 39.890625 26.703125 39.890625 
Q 22.75 39.890625 18.8125 39.015625 
Q 14.890625 38.140625 10.796875 36.28125 
z
" id="DejaVuSans-53"/>
       </defs>
       <use xlink:href="#DejaVuSans-53"/>
      </g>
     </g>
    </g>
    <g id="xtick_7">
     <g id="line2d_7">
      <g>
       <use style="stroke:#000000;stroke-width:0.8;" x="342.74875" xlink:href="#m0a9c5dc63b" y="102.835228"/>
      </g>
     </g>
     <g id="text_7">
      <!-- 6 -->
      <g transform="translate(339.5675 117.433665)scale(0.1 -0.1)">
       <defs>
        <path d="M 33.015625 40.375 
Q 26.375 40.375 22.484375 35.828125 
Q 18.609375 31.296875 18.609375 23.390625 
Q 18.609375 15.53125 22.484375 10.953125 
Q 26.375 6.390625 33.015625 6.390625 
Q 39.65625 6.390625 43.53125 10.953125 
Q 47.40625 15.53125 47.40625 23.390625 
Q 47.40625 31.296875 43.53125 35.828125 
Q 39.65625 40.375 33.015625 40.375 
z
M 52.59375 71.296875 
L 52.59375 62.3125 
Q 48.875 64.0625 45.09375 64.984375 
Q 41.3125 65.921875 37.59375 65.921875 
Q 27.828125 65.921875 22.671875 59.328125 
Q 17.53125 52.734375 16.796875 39.40625 
Q 19.671875 43.65625 24.015625 45.921875 
Q 28.375 48.1875 33.59375 48.1875 
Q 44.578125 48.1875 50.953125 41.515625 
Q 57.328125 34.859375 57.328125 23.390625 
Q 57.328125 12.15625 50.6875 5.359375 
Q 44.046875 -1.421875 33.015625 -1.421875 
Q 20.359375 -1.421875 13.671875 8.265625 
Q 6.984375 17.96875 6.984375 36.375 
Q 6.984375 53.65625 15.1875 63.9375 
Q 23.390625 74.21875 37.203125 74.21875 
Q 40.921875 74.21875 44.703125 73.484375 
Q 48.484375 72.75 52.59375 71.296875 
z
" id="DejaVuSans-54"/>
       </defs>
       <use xlink:href="#DejaVuSans-54"/>
      </g>
     </g>
    </g>
    <g id="xtick_8">
     <g id="line2d_8">
      <g>
       <use style="stroke:#000000;stroke-width:0.8;" x="394.776875" xlink:href="#m0a9c5dc63b" y="102.835228"/>
      </g>
     </g>
     <g id="text_8">
      <!-- 7 -->
      <g transform="translate(391.595625 117.433665)scale(0.1 -0.1)">
       <defs>
        <path d="M 8.203125 72.90625 
L 55.078125 72.90625 
L 55.078125 68.703125 
L 28.609375 0 
L 18.3125 0 
L 43.21875 64.59375 
L 8.203125 64.59375 
z
" id="DejaVuSans-55"/>
       </defs>
       <use xlink:href="#DejaVuSans-55"/>
      </g>
     </g>
    </g>
    <g id="xtick_9">
     <g id="line2d_9">
      <g>
       <use style="stroke:#000000;stroke-width:0.8;" x="446.805" xlink:href="#m0a9c5dc63b" y="102.835228"/>
      </g>
     </g>
     <g id="text_9">
      <!-- 8 -->
      <g transform="translate(443.62375 117.433665)scale(0.1 -0.1)">
       <defs>
        <path d="M 31.78125 34.625 
Q 24.75 34.625 20.71875 30.859375 
Q 16.703125 27.09375 16.703125 20.515625 
Q 16.703125 13.921875 20.71875 10.15625 
Q 24.75 6.390625 31.78125 6.390625 
Q 38.8125 6.390625 42.859375 10.171875 
Q 46.921875 13.96875 46.921875 20.515625 
Q 46.921875 27.09375 42.890625 30.859375 
Q 38.875 34.625 31.78125 34.625 
z
M 21.921875 38.8125 
Q 15.578125 40.375 12.03125 44.71875 
Q 8.5 49.078125 8.5 55.328125 
Q 8.5 64.0625 14.71875 69.140625 
Q 20.953125 74.21875 31.78125 74.21875 
Q 42.671875 74.21875 48.875 69.140625 
Q 55.078125 64.0625 55.078125 55.328125 
Q 55.078125 49.078125 51.53125 44.71875 
Q 48 40.375 41.703125 38.8125 
Q 48.828125 37.15625 52.796875 32.3125 
Q 56.78125 27.484375 56.78125 20.515625 
Q 56.78125 9.90625 50.3125 4.234375 
Q 43.84375 -1.421875 31.78125 -1.421875 
Q 19.734375 -1.421875 13.25 4.234375 
Q 6.78125 9.90625 6.78125 20.515625 
Q 6.78125 27.484375 10.78125 32.3125 
Q 14.796875 37.15625 21.921875 38.8125 
z
M 18.3125 54.390625 
Q 18.3125 48.734375 21.84375 45.5625 
Q 25.390625 42.390625 31.78125 42.390625 
Q 38.140625 42.390625 41.71875 45.5625 
Q 45.3125 48.734375 45.3125 54.390625 
Q 45.3125 60.0625 41.71875 63.234375 
Q 38.140625 66.40625 31.78125 66.40625 
Q 25.390625 66.40625 21.84375 63.234375 
Q 18.3125 60.0625 18.3125 54.390625 
z
" id="DejaVuSans-56"/>
       </defs>
       <use xlink:href="#DejaVuSans-56"/>
      </g>
     </g>
    </g>
    <g id="text_10">
     <!-- Orbit Position $s$ / m -->
     <g transform="translate(190.9925 131.11179)scale(0.1 -0.1)">
      <defs>
       <path d="M 39.40625 66.21875 
Q 28.65625 66.21875 22.328125 58.203125 
Q 16.015625 50.203125 16.015625 36.375 
Q 16.015625 22.609375 22.328125 14.59375 
Q 28.65625 6.59375 39.40625 6.59375 
Q 50.140625 6.59375 56.421875 14.59375 
Q 62.703125 22.609375 62.703125 36.375 
Q 62.703125 50.203125 56.421875 58.203125 
Q 50.140625 66.21875 39.40625 66.21875 
z
M 39.40625 74.21875 
Q 54.734375 74.21875 63.90625 63.9375 
Q 73.09375 53.65625 73.09375 36.375 
Q 73.09375 19.140625 63.90625 8.859375 
Q 54.734375 -1.421875 39.40625 -1.421875 
Q 24.03125 -1.421875 14.8125 8.828125 
Q 5.609375 19.09375 5.609375 36.375 
Q 5.609375 53.65625 14.8125 63.9375 
Q 24.03125 74.21875 39.40625 74.21875 
z
" id="DejaVuSans-79"/>
       <path d="M 41.109375 46.296875 
Q 39.59375 47.171875 37.8125 47.578125 
Q 36.03125 48 33.890625 48 
Q 26.265625 48 22.1875 43.046875 
Q 18.109375 38.09375 18.109375 28.8125 
L 18.109375 0 
L 9.078125 0 
L 9.078125 54.6875 
L 18.109375 54.6875 
L 18.109375 46.1875 
Q 20.953125 51.171875 25.484375 53.578125 
Q 30.03125 56 36.53125 56 
Q 37.453125 56 38.578125 55.875 
Q 39.703125 55.765625 41.0625 55.515625 
z
" id="DejaVuSans-114"/>
       <path d="M 48.6875 27.296875 
Q 48.6875 37.203125 44.609375 42.84375 
Q 40.53125 48.484375 33.40625 48.484375 
Q 26.265625 48.484375 22.1875 42.84375 
Q 18.109375 37.203125 18.109375 27.296875 
Q 18.109375 17.390625 22.1875 11.75 
Q 26.265625 6.109375 33.40625 6.109375 
Q 40.53125 6.109375 44.609375 11.75 
Q 48.6875 17.390625 48.6875 27.296875 
z
M 18.109375 46.390625 
Q 20.953125 51.265625 25.265625 53.625 
Q 29.59375 56 35.59375 56 
Q 45.5625 56 51.78125 48.09375 
Q 58.015625 40.1875 58.015625 27.296875 
Q 58.015625 14.40625 51.78125 6.484375 
Q 45.5625 -1.421875 35.59375 -1.421875 
Q 29.59375 -1.421875 25.265625 0.953125 
Q 20.953125 3.328125 18.109375 8.203125 
L 18.109375 0 
L 9.078125 0 
L 9.078125 75.984375 
L 18.109375 75.984375 
z
" id="DejaVuSans-98"/>
       <path d="M 9.421875 54.6875 
L 18.40625 54.6875 
L 18.40625 0 
L 9.421875 0 
z
M 9.421875 75.984375 
L 18.40625 75.984375 
L 18.40625 64.59375 
L 9.421875 64.59375 
z
" id="DejaVuSans-105"/>
       <path d="M 18.3125 70.21875 
L 18.3125 54.6875 
L 36.8125 54.6875 
L 36.8125 47.703125 
L 18.3125 47.703125 
L 18.3125 18.015625 
Q 18.3125 11.328125 20.140625 9.421875 
Q 21.96875 7.515625 27.59375 7.515625 
L 36.8125 7.515625 
L 36.8125 0 
L 27.59375 0 
Q 17.1875 0 13.234375 3.875 
Q 9.28125 7.765625 9.28125 18.015625 
L 9.28125 47.703125 
L 2.6875 47.703125 
L 2.6875 54.6875 
L 9.28125 54.6875 
L 9.28125 70.21875 
z
" id="DejaVuSans-116"/>
       <path id="DejaVuSans-32"/>
       <path d="M 19.671875 64.796875 
L 19.671875 37.40625 
L 32.078125 37.40625 
Q 38.96875 37.40625 42.71875 40.96875 
Q 46.484375 44.53125 46.484375 51.125 
Q 46.484375 57.671875 42.71875 61.234375 
Q 38.96875 64.796875 32.078125 64.796875 
z
M 9.8125 72.90625 
L 32.078125 72.90625 
Q 44.34375 72.90625 50.609375 67.359375 
Q 56.890625 61.8125 56.890625 51.125 
Q 56.890625 40.328125 50.609375 34.8125 
Q 44.34375 29.296875 32.078125 29.296875 
L 19.671875 29.296875 
L 19.671875 0 
L 9.8125 0 
z
" id="DejaVuSans-80"/>
       <path d="M 30.609375 48.390625 
Q 23.390625 48.390625 19.1875 42.75 
Q 14.984375 37.109375 14.984375 27.296875 
Q 14.984375 17.484375 19.15625 11.84375 
Q 23.34375 6.203125 30.609375 6.203125 
Q 37.796875 6.203125 41.984375 11.859375 
Q 46.1875 17.53125 46.1875 27.296875 
Q 46.1875 37.015625 41.984375 42.703125 
Q 37.796875 48.390625 30.609375 48.390625 
z
M 30.609375 56 
Q 42.328125 56 49.015625 48.375 
Q 55.71875 40.765625 55.71875 27.296875 
Q 55.71875 13.875 49.015625 6.21875 
Q 42.328125 -1.421875 30.609375 -1.421875 
Q 18.84375 -1.421875 12.171875 6.21875 
Q 5.515625 13.875 5.515625 27.296875 
Q 5.515625 40.765625 12.171875 48.375 
Q 18.84375 56 30.609375 56 
z
" id="DejaVuSans-111"/>
       <path d="M 44.28125 53.078125 
L 44.28125 44.578125 
Q 40.484375 46.53125 36.375 47.5 
Q 32.28125 48.484375 27.875 48.484375 
Q 21.1875 48.484375 17.84375 46.4375 
Q 14.5 44.390625 14.5 40.28125 
Q 14.5 37.15625 16.890625 35.375 
Q 19.28125 33.59375 26.515625 31.984375 
L 29.59375 31.296875 
Q 39.15625 29.25 43.1875 25.515625 
Q 47.21875 21.78125 47.21875 15.09375 
Q 47.21875 7.46875 41.1875 3.015625 
Q 35.15625 -1.421875 24.609375 -1.421875 
Q 20.21875 -1.421875 15.453125 -0.5625 
Q 10.6875 0.296875 5.421875 2 
L 5.421875 11.28125 
Q 10.40625 8.6875 15.234375 7.390625 
Q 20.0625 6.109375 24.8125 6.109375 
Q 31.15625 6.109375 34.5625 8.28125 
Q 37.984375 10.453125 37.984375 14.40625 
Q 37.984375 18.0625 35.515625 20.015625 
Q 33.0625 21.96875 24.703125 23.78125 
L 21.578125 24.515625 
Q 13.234375 26.265625 9.515625 29.90625 
Q 5.8125 33.546875 5.8125 39.890625 
Q 5.8125 47.609375 11.28125 51.796875 
Q 16.75 56 26.8125 56 
Q 31.78125 56 36.171875 55.265625 
Q 40.578125 54.546875 44.28125 53.078125 
z
" id="DejaVuSans-115"/>
       <path d="M 54.890625 33.015625 
L 54.890625 0 
L 45.90625 0 
L 45.90625 32.71875 
Q 45.90625 40.484375 42.875 44.328125 
Q 39.84375 48.1875 33.796875 48.1875 
Q 26.515625 48.1875 22.3125 43.546875 
Q 18.109375 38.921875 18.109375 30.90625 
L 18.109375 0 
L 9.078125 0 
L 9.078125 54.6875 
L 18.109375 54.6875 
L 18.109375 46.1875 
Q 21.34375 51.125 25.703125 53.5625 
Q 30.078125 56 35.796875 56 
Q 45.21875 56 50.046875 50.171875 
Q 54.890625 44.34375 54.890625 33.015625 
z
" id="DejaVuSans-110"/>
       <path d="M 50 53.078125 
L 48.296875 44.578125 
Q 44.734375 46.53125 40.765625 47.5 
Q 36.8125 48.484375 32.625 48.484375 
Q 25.53125 48.484375 21.453125 46.0625 
Q 17.390625 43.65625 17.390625 39.5 
Q 17.390625 34.671875 26.859375 32.078125 
Q 27.59375 31.890625 27.9375 31.78125 
L 30.8125 30.90625 
Q 39.796875 28.421875 42.796875 25.6875 
Q 45.796875 22.953125 45.796875 18.21875 
Q 45.796875 9.515625 38.890625 4.046875 
Q 31.984375 -1.421875 20.796875 -1.421875 
Q 16.453125 -1.421875 11.671875 -0.578125 
Q 6.890625 0.25 1.125 2 
L 2.875 11.28125 
Q 7.8125 8.734375 12.59375 7.421875 
Q 17.390625 6.109375 21.78125 6.109375 
Q 28.375 6.109375 32.5 8.9375 
Q 36.625 11.765625 36.625 16.109375 
Q 36.625 20.796875 25.78125 23.6875 
L 24.859375 23.921875 
L 21.78125 24.703125 
Q 14.9375 26.515625 11.765625 29.46875 
Q 8.59375 32.421875 8.59375 37.015625 
Q 8.59375 45.75 15.15625 50.875 
Q 21.734375 56 33.015625 56 
Q 37.453125 56 41.671875 55.265625 
Q 45.90625 54.546875 50 53.078125 
z
" id="DejaVuSans-Oblique-115"/>
       <path d="M 25.390625 72.90625 
L 33.6875 72.90625 
L 8.296875 -9.28125 
L 0 -9.28125 
z
" id="DejaVuSans-47"/>
       <path d="M 52 44.1875 
Q 55.375 50.25 60.0625 53.125 
Q 64.75 56 71.09375 56 
Q 79.640625 56 84.28125 50.015625 
Q 88.921875 44.046875 88.921875 33.015625 
L 88.921875 0 
L 79.890625 0 
L 79.890625 32.71875 
Q 79.890625 40.578125 77.09375 44.375 
Q 74.3125 48.1875 68.609375 48.1875 
Q 61.625 48.1875 57.5625 43.546875 
Q 53.515625 38.921875 53.515625 30.90625 
L 53.515625 0 
L 44.484375 0 
L 44.484375 32.71875 
Q 44.484375 40.625 41.703125 44.40625 
Q 38.921875 48.1875 33.109375 48.1875 
Q 26.21875 48.1875 22.15625 43.53125 
Q 18.109375 38.875 18.109375 30.90625 
L 18.109375 0 
L 9.078125 0 
L 9.078125 54.6875 
L 18.109375 54.6875 
L 18.109375 46.1875 
Q 21.1875 51.21875 25.484375 53.609375 
Q 29.78125 56 35.6875 56 
Q 41.65625 56 45.828125 52.96875 
Q 50 49.953125 52 44.1875 
z
" id="DejaVuSans-109"/>
      </defs>
      <use transform="translate(0 0.015625)" xlink:href="#DejaVuSans-79"/>
      <use transform="translate(78.710938 0.015625)" xlink:href="#DejaVuSans-114"/>
      <use transform="translate(119.824219 0.015625)" xlink:href="#DejaVuSans-98"/>
      <use transform="translate(183.300781 0.015625)" xlink:href="#DejaVuSans-105"/>
      <use transform="translate(211.083984 0.015625)" xlink:href="#DejaVuSans-116"/>
      <use transform="translate(250.292969 0.015625)" xlink:href="#DejaVuSans-32"/>
      <use transform="translate(282.080078 0.015625)" xlink:href="#DejaVuSans-80"/>
      <use transform="translate(342.382812 0.015625)" xlink:href="#DejaVuSans-111"/>
      <use transform="translate(403.564453 0.015625)" xlink:href="#DejaVuSans-115"/>
      <use transform="translate(455.664062 0.015625)" xlink:href="#DejaVuSans-105"/>
      <use transform="translate(483.447266 0.015625)" xlink:href="#DejaVuSans-116"/>
      <use transform="translate(522.65625 0.015625)" xlink:href="#DejaVuSans-105"/>
      <use transform="translate(550.439453 0.015625)" xlink:href="#DejaVuSans-111"/>
      <use transform="translate(611.621094 0.015625)" xlink:href="#DejaVuSans-110"/>
      <use transform="translate(675 0.015625)" xlink:href="#DejaVuSans-32"/>
      <use transform="translate(706.787109 0.015625)" xlink:href="#DejaVuSans-Oblique-115"/>
      <use transform="translate(758.886719 0.015625)" xlink:href="#DejaVuSans-32"/>
      <use transform="translate(790.673828 0.015625)" xlink:href="#DejaVuSans-47"/>
      <use transform="translate(824.365234 0.015625)" xlink:href="#DejaVuSans-32"/>
      <use transform="translate(856.152344 0.015625)" xlink:href="#DejaVuSans-109"/>
     </g>
    </g>
   </g>
   <g id="matplotlib.axis_2">
    <g id="ytick_1">
     <g id="line2d_10">
      <defs>
       <path d="M 0 0 
L -3.5 0 
" id="m939f42e368" style="stroke:#000000;stroke-width:0.8;"/>
      </defs>
      <g>
       <use style="stroke:#000000;stroke-width:0.8;" x="30.58" xlink:href="#m939f42e368" y="102.835228"/>
      </g>
     </g>
     <g id="text_11">
      <!-- 0 -->
      <g transform="translate(17.2175 106.634446)scale(0.1 -0.1)">
       <use xlink:href="#DejaVuSans-48"/>
      </g>
     </g>
    </g>
    <g id="ytick_2">
     <g id="line2d_11">
      <g>
       <use style="stroke:#000000;stroke-width:0.8;" x="30.58" xlink:href="#m939f42e368" y="65.339375"/>
      </g>
     </g>
     <g id="text_12">
      <!-- 20 -->
      <g transform="translate(10.855 69.138593)scale(0.1 -0.1)">
       <use xlink:href="#DejaVuSans-50"/>
       <use x="63.623047" xlink:href="#DejaVuSans-48"/>
      </g>
     </g>
    </g>
   </g>
   <g id="patch_3">
    <path d="M 30.58 102.835228 
L 30.58 46.591448 
" style="fill:none;stroke:#000000;stroke-linecap:square;stroke-linejoin:miter;stroke-width:0.8;"/>
   </g>
   <g id="patch_4">
    <path d="M 446.805 102.835228 
L 446.805 46.591448 
" style="fill:none;stroke:#000000;stroke-linecap:square;stroke-linejoin:miter;stroke-width:0.8;"/>
   </g>
   <g id="patch_5">
    <path d="M 30.58 102.835228 
L 446.805 102.835228 
" style="fill:none;stroke:#000000;stroke-linecap:square;stroke-linejoin:miter;stroke-width:0.8;"/>
   </g>
   <g id="patch_6">
    <path d="M 30.58 46.591448 
L 446.805 46.591448 
" style="fill:none;stroke:#000000;stroke-linecap:square;stroke-linejoin:miter;stroke-width:0.8;"/>
   </g>
   <g id="legend_1">
    <g id="line2d_12">
     <path d="M 44.58 23.179259 
L 64.58 23.179259 
" style="fill:none;stroke:#dc143c;stroke-linecap:square;stroke-width:1.3;"/>
    </g>
    <g id="line2d_13"/>
    <g id="text_13">
     <!-- $\beta_x$/m -->
     <g transform="translate(72.58 26.679259)scale(0.1 -0.1)">
      <defs>
       <path d="M 13.625 3.375 
L 8.9375 -20.796875 
L -0.09375 -20.796875 
L 14.5 54.34375 
Q 18.84375 76.609375 39.65625 76.609375 
Q 60.75 76.609375 57.171875 57.8125 
Q 54.734375 44.4375 45.21875 39.546875 
Q 58.015625 35.15625 55.515625 22.125 
Q 51.125 -1.078125 27.484375 -1.03125 
Q 17.140625 -0.984375 13.625 3.375 
z
M 15.921875 15.09375 
Q 19.671875 6.59375 29.296875 6.640625 
Q 43.359375 6.640625 46.34375 21.96875 
Q 49.03125 35.75 26.171875 34.671875 
L 27.78125 42.96875 
Q 45.453125 42.671875 48.53125 58.59375 
Q 50.640625 69.34375 39.203125 69.28125 
Q 26.421875 69.28125 23.484375 54.046875 
z
" id="DejaVuSans-Oblique-946"/>
       <path d="M 60.015625 54.6875 
L 34.90625 27.875 
L 50.296875 0 
L 39.984375 0 
L 28.421875 21.6875 
L 8.296875 0 
L -2.59375 0 
L 24.3125 28.8125 
L 10.015625 54.6875 
L 20.3125 54.6875 
L 30.8125 34.90625 
L 49.125 54.6875 
z
" id="DejaVuSans-Oblique-120"/>
      </defs>
      <use transform="translate(0 0.390625)" xlink:href="#DejaVuSans-Oblique-946"/>
      <use transform="translate(63.818359 -16.015625)scale(0.7)" xlink:href="#DejaVuSans-Oblique-120"/>
      <use transform="translate(107.978516 0.390625)" xlink:href="#DejaVuSans-47"/>
      <use transform="translate(141.669922 0.390625)" xlink:href="#DejaVuSans-109"/>
     </g>
    </g>
    <g id="line2d_14">
     <path d="M 116.58 23.179259 
L 136.58 23.179259 
" style="fill:none;stroke:#1e90ff;stroke-linecap:square;stroke-width:1.3;"/>
    </g>
    <g id="line2d_15"/>
    <g id="text_14">
     <!-- $\beta_y$/m -->
     <g transform="translate(144.58 26.679259)scale(0.1 -0.1)">
      <defs>
       <path d="M 24.8125 -5.078125 
Q 18.5625 -15.578125 14.625 -18.1875 
Q 10.6875 -20.796875 4.59375 -20.796875 
L -2.484375 -20.796875 
L -0.984375 -13.28125 
L 4.203125 -13.28125 
Q 7.953125 -13.28125 10.59375 -11.234375 
Q 13.234375 -9.1875 16.5 -3.21875 
L 19.28125 2 
L 7.171875 54.6875 
L 16.703125 54.6875 
L 25.78125 12.796875 
L 50.875 54.6875 
L 60.296875 54.6875 
z
" id="DejaVuSans-Oblique-121"/>
      </defs>
      <use transform="translate(0 0.390625)" xlink:href="#DejaVuSans-Oblique-946"/>
      <use transform="translate(63.818359 -16.015625)scale(0.7)" xlink:href="#DejaVuSans-Oblique-121"/>
      <use transform="translate(107.978516 0.390625)" xlink:href="#DejaVuSans-47"/>
      <use transform="translate(141.669922 0.390625)" xlink:href="#DejaVuSans-109"/>
     </g>
    </g>
    <g id="line2d_16">
     <path d="M 188.58 23.179259 
L 208.58 23.179259 
" style="fill:none;stroke:#3cb371;stroke-linecap:square;stroke-width:1.3;"/>
    </g>
    <g id="line2d_17"/>
    <g id="text_15">
     <!-- 10$\eta_x$/m -->
     <g transform="translate(216.58 26.679259)scale(0.1 -0.1)">
      <defs>
       <path d="M 57.859375 33.015625 
L 47.40625 -20.796875 
L 38.421875 -20.796875 
L 48.828125 32.71875 
Q 50.34375 40.484375 48.046875 44.34375 
Q 45.796875 48.1875 39.75 48.1875 
Q 32.46875 48.1875 27.34375 43.5625 
Q 22.265625 38.921875 20.703125 30.90625 
L 14.703125 0 
L 5.671875 0 
L 16.3125 54.6875 
L 25.34375 54.6875 
L 23.6875 46.1875 
Q 27.828125 51.125 32.71875 53.5625 
Q 37.546875 56 43.265625 56 
Q 52.6875 56 56.390625 50.203125 
Q 60.0625 44.34375 57.859375 33.015625 
z
" id="DejaVuSans-Oblique-951"/>
      </defs>
      <use transform="translate(0 0.78125)" xlink:href="#DejaVuSans-49"/>
      <use transform="translate(63.623047 0.78125)" xlink:href="#DejaVuSans-48"/>
      <use transform="translate(127.246094 0.78125)" xlink:href="#DejaVuSans-Oblique-951"/>
      <use transform="translate(190.625 -15.625)scale(0.7)" xlink:href="#DejaVuSans-Oblique-120"/>
      <use transform="translate(234.785156 0.78125)" xlink:href="#DejaVuSans-47"/>
      <use transform="translate(268.476562 0.78125)" xlink:href="#DejaVuSans-109"/>
     </g>
    </g>
   </g>
   <g id="line2d_18">
    <path clip-path="url(#p49599d07c2)" d="M 30.58 72.979738 
L 62.057016 73.089787 
L 83.908828 73.33206 
L 90.412344 73.094951 
L 112.524297 71.679759 
L 128.132734 69.836093 
L 143.741172 67.788056 
L 164.552422 64.788862 
L 187.314727 60.144917 
L 189.916133 59.967243 
L 191.867188 60.025161 
L 212.678438 61.516839 
L 238.6925 61.642669 
L 264.706563 61.516839 
L 287.468867 59.967243 
L 290.070273 60.144917 
L 292.021328 60.468686 
L 312.832578 64.788862 
L 333.643828 67.788056 
L 349.252266 69.836093 
L 364.860703 71.679759 
L 390.874766 73.268088 
L 397.378281 73.351062 
L 440.561625 72.979738 
L 446.805 72.979738 
L 446.805 72.979738 
" style="fill:none;stroke:#3cb371;stroke-linecap:square;stroke-width:1.3;"/>
   </g>
   <g id="line2d_19">
    <path clip-path="url(#p49599d07c2)" d="M 30.58 84.258903 
L 57.894766 84.146455 
L 83.908828 83.619558 
L 89.111641 83.801254 
L 97.956422 84.429312 
L 112.524297 85.458696 
L 133.335547 87.848694 
L 154.146797 89.992214 
L 168.714672 91.491462 
L 185.363672 93.415856 
L 188.61543 93.66477 
L 191.867188 93.713942 
L 217.88125 93.367665 
L 243.895313 93.423706 
L 270.949938 93.461531 
L 288.119219 93.690396 
L 291.370977 93.482002 
L 300.345828 92.484714 
L 318.035391 90.489582 
L 338.846641 88.407681 
L 359.657891 86.079302 
L 366.941828 85.315341 
L 392.175469 83.645404 
L 397.378281 83.620832 
L 432.237125 84.244069 
L 446.805 84.258903 
L 446.805 84.258903 
" style="fill:none;stroke:#1e90ff;stroke-linecap:square;stroke-width:1.3;"/>
   </g>
   <g id="patch_7">
    <path d="M 56.594062 47.470257 
L 65.265417 47.470257 
L 65.265417 45.712639 
L 56.594062 45.712639 
z
" style="fill:#dc143c;"/>
   </g>
   <g id="patch_8">
    <path d="M 91.279479 47.470257 
L 104.28651 47.470257 
L 104.28651 45.712639 
L 91.279479 45.712639 
z
" style="fill:#dc143c;"/>
   </g>
   <g id="patch_9">
    <path d="M 130.300573 47.470257 
L 208.34276 47.470257 
L 208.34276 45.712639 
L 130.300573 45.712639 
z
" style="fill:#ffd700;"/>
   </g>
   <g id="patch_10">
    <path d="M 234.356823 47.470257 
L 243.028177 47.470257 
L 243.028177 45.712639 
L 234.356823 45.712639 
z
" style="fill:#dc143c;"/>
   </g>
   <g id="patch_11">
    <path d="M 269.04224 47.470257 
L 347.084427 47.470257 
L 347.084427 45.712639 
L 269.04224 45.712639 
z
" style="fill:#ffd700;"/>
   </g>
   <g id="patch_12">
    <path d="M 373.09849 47.470257 
L 386.105521 47.470257 
L 386.105521 45.712639 
L 373.09849 45.712639 
z
" style="fill:#dc143c;"/>
   </g>
   <g id="patch_13">
    <path d="M 412.119583 47.470257 
L 420.790937 47.470257 
L 420.790937 45.712639 
L 412.119583 45.712639 
z
" style="fill:#dc143c;"/>
   </g>
   <g id="line2d_20">
    <path clip-path="url(#p49599d07c2)" d="M 30.58 101.685769 
L 40.985625 101.563456 
L 51.39125 101.196517 
L 62.057016 100.58116 
L 72.462641 99.74445 
L 82.608125 98.686175 
L 89.111641 97.808447 
L 95.875297 96.699436 
L 104.199797 95.142566 
L 112.524297 93.383652 
L 122.929922 90.636288 
L 133.335547 87.680794 
L 154.146797 81.439846 
L 164.552422 78.308065 
L 172.876922 75.116532 
L 181.201422 71.722954 
L 187.314727 69.229887 
L 189.265781 68.760515 
L 191.216836 68.549455 
L 196.029438 68.551101 
L 212.678438 68.593652 
L 223.084063 67.746761 
L 233.489688 67.318037 
L 243.895313 67.318037 
L 254.300938 67.746761 
L 266.787688 68.589484 
L 286.818516 68.590826 
L 288.76957 68.888545 
L 290.720625 69.442619 
L 292.021328 69.950398 
L 300.345828 73.444999 
L 308.670328 76.737554 
L 312.832578 78.308065 
L 349.252266 89.180109 
L 359.657891 92.040355 
L 366.941828 93.842322 
L 375.266328 95.550725 
L 383.590828 97.057083 
L 390.874766 98.182188 
L 398.678984 99.127767 
L 409.084609 100.107799 
L 420.140586 100.887415 
L 430.156 101.372648 
L 440.561625 101.641737 
L 446.805 101.685769 
L 446.805 101.685769 
" style="fill:none;stroke:#dc143c;stroke-linecap:square;stroke-width:1.3;"/>
   </g>
   <g id="text_16">
    <!-- q1 -->
    <g transform="translate(55.845365 44.488294)scale(0.08 -0.08)">
     <defs>
      <path d="M 14.796875 27.296875 
Q 14.796875 17.390625 18.875 11.75 
Q 22.953125 6.109375 30.078125 6.109375 
Q 37.203125 6.109375 41.296875 11.75 
Q 45.40625 17.390625 45.40625 27.296875 
Q 45.40625 37.203125 41.296875 42.84375 
Q 37.203125 48.484375 30.078125 48.484375 
Q 22.953125 48.484375 18.875 42.84375 
Q 14.796875 37.203125 14.796875 27.296875 
z
M 45.40625 8.203125 
Q 42.578125 3.328125 38.25 0.953125 
Q 33.9375 -1.421875 27.875 -1.421875 
Q 17.96875 -1.421875 11.734375 6.484375 
Q 5.515625 14.40625 5.515625 27.296875 
Q 5.515625 40.1875 11.734375 48.09375 
Q 17.96875 56 27.875 56 
Q 33.9375 56 38.25 53.625 
Q 42.578125 51.265625 45.40625 46.390625 
L 45.40625 54.6875 
L 54.390625 54.6875 
L 54.390625 -20.796875 
L 45.40625 -20.796875 
z
" id="DejaVuSans-113"/>
     </defs>
     <use xlink:href="#DejaVuSans-113"/>
     <use x="63.476562" xlink:href="#DejaVuSans-49"/>
    </g>
   </g>
   <g id="text_17">
    <!-- q2 -->
    <g transform="translate(92.69862 44.488294)scale(0.08 -0.08)">
     <use xlink:href="#DejaVuSans-113"/>
     <use x="63.476562" xlink:href="#DejaVuSans-50"/>
    </g>
   </g>
   <g id="text_18">
    <!-- b1 -->
    <g transform="translate(164.237292 54.867221)scale(0.08 -0.08)">
     <use xlink:href="#DejaVuSans-98"/>
     <use x="63.476562" xlink:href="#DejaVuSans-49"/>
    </g>
   </g>
   <g id="text_19">
    <!-- q3 -->
    <g transform="translate(233.608125 44.488294)scale(0.08 -0.08)">
     <use xlink:href="#DejaVuSans-113"/>
     <use x="63.476562" xlink:href="#DejaVuSans-51"/>
    </g>
   </g>
   <g id="text_20">
    <!-- b1 -->
    <g transform="translate(302.978958 54.867221)scale(0.08 -0.08)">
     <use xlink:href="#DejaVuSans-98"/>
     <use x="63.476562" xlink:href="#DejaVuSans-49"/>
    </g>
   </g>
   <g id="text_21">
    <!-- q2 -->
    <g transform="translate(374.51763 44.488294)scale(0.08 -0.08)">
     <use xlink:href="#DejaVuSans-113"/>
     <use x="63.476562" xlink:href="#DejaVuSans-50"/>
    </g>
   </g>
   <g id="text_22">
    <!-- q1 -->
    <g transform="translate(411.370885 44.488294)scale(0.08 -0.08)">
     <use xlink:href="#DejaVuSans-113"/>
     <use x="63.476562" xlink:href="#DejaVuSans-49"/>
    </g>
   </g>
  </g>
  <g id="axes_2">
   <g id="patch_14">
    <path d="M 30.58 210.276421 
L 446.805 210.276421 
L 446.805 154.032641 
L 30.58 154.032641 
z
" style="fill:#ffffff;"/>
   </g>
   <g id="matplotlib.axis_3">
    <g id="xtick_10">
     <g id="line2d_21">
      <g>
       <use style="stroke:#000000;stroke-width:0.8;" x="30.58" xlink:href="#m0a9c5dc63b" y="210.276421"/>
      </g>
     </g>
     <g id="text_23">
      <!-- 0 -->
      <g transform="translate(27.39875 224.874858)scale(0.1 -0.1)">
       <use xlink:href="#DejaVuSans-48"/>
      </g>
     </g>
    </g>
    <g id="xtick_11">
     <g id="line2d_22">
      <g>
       <use style="stroke:#000000;stroke-width:0.8;" x="82.608125" xlink:href="#m0a9c5dc63b" y="210.276421"/>
      </g>
     </g>
     <g id="text_24">
      <!-- 1 -->
      <g transform="translate(79.426875 224.874858)scale(0.1 -0.1)">
       <use xlink:href="#DejaVuSans-49"/>
      </g>
     </g>
    </g>
    <g id="xtick_12">
     <g id="line2d_23">
      <g>
       <use style="stroke:#000000;stroke-width:0.8;" x="134.63625" xlink:href="#m0a9c5dc63b" y="210.276421"/>
      </g>
     </g>
     <g id="text_25">
      <!-- 2 -->
      <g transform="translate(131.455 224.874858)scale(0.1 -0.1)">
       <use xlink:href="#DejaVuSans-50"/>
      </g>
     </g>
    </g>
    <g id="xtick_13">
     <g id="line2d_24">
      <g>
       <use style="stroke:#000000;stroke-width:0.8;" x="186.664375" xlink:href="#m0a9c5dc63b" y="210.276421"/>
      </g>
     </g>
     <g id="text_26">
      <!-- 3 -->
      <g transform="translate(183.483125 224.874858)scale(0.1 -0.1)">
       <use xlink:href="#DejaVuSans-51"/>
      </g>
     </g>
    </g>
    <g id="xtick_14">
     <g id="line2d_25">
      <g>
       <use style="stroke:#000000;stroke-width:0.8;" x="238.6925" xlink:href="#m0a9c5dc63b" y="210.276421"/>
      </g>
     </g>
     <g id="text_27">
      <!-- 4 -->
      <g transform="translate(235.51125 224.874858)scale(0.1 -0.1)">
       <use xlink:href="#DejaVuSans-52"/>
      </g>
     </g>
    </g>
    <g id="xtick_15">
     <g id="line2d_26">
      <g>
       <use style="stroke:#000000;stroke-width:0.8;" x="290.720625" xlink:href="#m0a9c5dc63b" y="210.276421"/>
      </g>
     </g>
     <g id="text_28">
      <!-- 5 -->
      <g transform="translate(287.539375 224.874858)scale(0.1 -0.1)">
       <use xlink:href="#DejaVuSans-53"/>
      </g>
     </g>
    </g>
    <g id="xtick_16">
     <g id="line2d_27">
      <g>
       <use style="stroke:#000000;stroke-width:0.8;" x="342.74875" xlink:href="#m0a9c5dc63b" y="210.276421"/>
      </g>
     </g>
     <g id="text_29">
      <!-- 6 -->
      <g transform="translate(339.5675 224.874858)scale(0.1 -0.1)">
       <use xlink:href="#DejaVuSans-54"/>
      </g>
     </g>
    </g>
    <g id="xtick_17">
     <g id="line2d_28">
      <g>
       <use style="stroke:#000000;stroke-width:0.8;" x="394.776875" xlink:href="#m0a9c5dc63b" y="210.276421"/>
      </g>
     </g>
     <g id="text_30">
      <!-- 7 -->
      <g transform="translate(391.595625 224.874858)scale(0.1 -0.1)">
       <use xlink:href="#DejaVuSans-55"/>
      </g>
     </g>
    </g>
    <g id="xtick_18">
     <g id="line2d_29">
      <g>
       <use style="stroke:#000000;stroke-width:0.8;" x="446.805" xlink:href="#m0a9c5dc63b" y="210.276421"/>
      </g>
     </g>
     <g id="text_31">
      <!-- 8 -->
      <g transform="translate(443.62375 224.874858)scale(0.1 -0.1)">
       <use xlink:href="#DejaVuSans-56"/>
      </g>
     </g>
    </g>
    <g id="text_32">
     <!-- Orbit Position $s$ / m -->
     <g transform="translate(190.9925 238.552983)scale(0.1 -0.1)">
      <use transform="translate(0 0.015625)" xlink:href="#DejaVuSans-79"/>
      <use transform="translate(78.710938 0.015625)" xlink:href="#DejaVuSans-114"/>
      <use transform="translate(119.824219 0.015625)" xlink:href="#DejaVuSans-98"/>
      <use transform="translate(183.300781 0.015625)" xlink:href="#DejaVuSans-105"/>
      <use transform="translate(211.083984 0.015625)" xlink:href="#DejaVuSans-116"/>
      <use transform="translate(250.292969 0.015625)" xlink:href="#DejaVuSans-32"/>
      <use transform="translate(282.080078 0.015625)" xlink:href="#DejaVuSans-80"/>
      <use transform="translate(342.382812 0.015625)" xlink:href="#DejaVuSans-111"/>
      <use transform="translate(403.564453 0.015625)" xlink:href="#DejaVuSans-115"/>
      <use transform="translate(455.664062 0.015625)" xlink:href="#DejaVuSans-105"/>
      <use transform="translate(483.447266 0.015625)" xlink:href="#DejaVuSans-116"/>
      <use transform="translate(522.65625 0.015625)" xlink:href="#DejaVuSans-105"/>
      <use transform="translate(550.439453 0.015625)" xlink:href="#DejaVuSans-111"/>
      <use transform="translate(611.621094 0.015625)" xlink:href="#DejaVuSans-110"/>
      <use transform="translate(675 0.015625)" xlink:href="#DejaVuSans-32"/>
      <use transform="translate(706.787109 0.015625)" xlink:href="#DejaVuSans-Oblique-115"/>
      <use transform="translate(758.886719 0.015625)" xlink:href="#DejaVuSans-32"/>
      <use transform="translate(790.673828 0.015625)" xlink:href="#DejaVuSans-47"/>
      <use transform="translate(824.365234 0.015625)" xlink:href="#DejaVuSans-32"/>
      <use transform="translate(856.152344 0.015625)" xlink:href="#DejaVuSans-109"/>
     </g>
    </g>
   </g>
   <g id="matplotlib.axis_4">
    <g id="ytick_3">
     <g id="line2d_30">
      <g>
       <use style="stroke:#000000;stroke-width:0.8;" x="30.58" xlink:href="#m939f42e368" y="210.276421"/>
      </g>
     </g>
     <g id="text_33">
      <!-- 0 -->
      <g transform="translate(17.2175 214.075639)scale(0.1 -0.1)">
       <use xlink:href="#DejaVuSans-48"/>
      </g>
     </g>
    </g>
    <g id="ytick_4">
     <g id="line2d_31">
      <g>
       <use style="stroke:#000000;stroke-width:0.8;" x="30.58" xlink:href="#m939f42e368" y="172.780568"/>
      </g>
     </g>
     <g id="text_34">
      <!-- 20 -->
      <g transform="translate(10.855 176.579787)scale(0.1 -0.1)">
       <use xlink:href="#DejaVuSans-50"/>
       <use x="63.623047" xlink:href="#DejaVuSans-48"/>
      </g>
     </g>
    </g>
   </g>
   <g id="patch_15">
    <path d="M 30.58 210.276421 
L 30.58 154.032641 
" style="fill:none;stroke:#000000;stroke-linecap:square;stroke-linejoin:miter;stroke-width:0.8;"/>
   </g>
   <g id="patch_16">
    <path d="M 446.805 210.276421 
L 446.805 154.032641 
" style="fill:none;stroke:#000000;stroke-linecap:square;stroke-linejoin:miter;stroke-width:0.8;"/>
   </g>
   <g id="patch_17">
    <path d="M 30.58 210.276421 
L 446.805 210.276421 
" style="fill:none;stroke:#000000;stroke-linecap:square;stroke-linejoin:miter;stroke-width:0.8;"/>
   </g>
   <g id="patch_18">
    <path d="M 30.58 154.032641 
L 446.805 154.032641 
" style="fill:none;stroke:#000000;stroke-linecap:square;stroke-linejoin:miter;stroke-width:0.8;"/>
   </g>
   <g id="line2d_32">
    <path clip-path="url(#p8ac7ae8756)" d="M 30.58 199.320793 
L 50.003833 199.234402 
L 52.60524 198.8811 
L 63.531146 196.5846 
L 71.768932 194.88031 
L 74.370339 194.586409 
L 76.971745 194.551204 
L 79.573151 194.775278 
L 82.174557 195.254934 
L 86.943802 196.558736 
L 104.720078 201.435134 
L 112.524297 203.298197 
L 120.328516 204.983528 
L 128.132734 206.480736 
L 135.936953 207.78059 
L 150.244687 209.773602 
L 187.53151 214.833651 
L 195.335729 215.593903 
L 203.139948 216.100617 
L 210.944167 216.350667 
L 222.216927 216.323576 
L 248.23099 216.285704 
L 266.440833 216.350667 
L 274.245052 216.100617 
L 282.049271 215.593903 
L 289.85349 214.833651 
L 299.391979 213.585401 
L 345.350156 207.155862 
L 353.154375 205.756252 
L 360.958594 204.163755 
L 368.762812 202.388189 
L 378.301302 199.955281 
L 395.210443 195.254934 
L 397.811849 194.775278 
L 400.413255 194.551204 
L 403.014661 194.586409 
L 405.616068 194.88031 
L 410.385312 195.853761 
L 426.340604 199.126093 
L 428.94201 199.3154 
L 439.867917 199.320793 
L 446.805 199.320793 
L 446.805 199.320793 
" style="fill:none;stroke:#3cb371;stroke-linecap:square;stroke-width:1.3;"/>
   </g>
   <g id="line2d_33">
    <path clip-path="url(#p8ac7ae8756)" d="M 30.58 197.263097 
L 49.483552 197.342693 
L 51.044396 197.678378 
L 52.60524 198.228281 
L 60.062604 201.414691 
L 65.265417 203.346477 
L 70.468229 205.032087 
L 73.069635 205.703969 
L 75.671042 206.184454 
L 79.573151 206.613172 
L 83.47526 206.745066 
L 108.622188 206.5865 
L 128.132734 206.349693 
L 164.118854 205.709102 
L 241.293906 205.057597 
L 318.642385 205.770557 
L 368.762812 206.5865 
L 397.811849 206.613172 
L 401.713958 206.184454 
L 404.315365 205.703969 
L 406.916771 205.032087 
L 412.119583 203.346477 
L 417.322396 201.414691 
L 422.525208 199.236728 
L 425.820323 197.838686 
L 427.381167 197.429892 
L 428.94201 197.244096 
L 432.930833 197.243891 
L 446.805 197.263097 
L 446.805 197.263097 
" style="fill:none;stroke:#1e90ff;stroke-linecap:square;stroke-width:1.3;"/>
   </g>
   <g id="patch_19">
    <path d="M 51.39125 154.91145 
L 57.894766 154.91145 
L 57.894766 153.153832 
L 51.39125 153.153832 
z
" style="fill:#dc143c;"/>
   </g>
   <g id="patch_20">
    <path d="M 78.706016 154.91145 
L 91.713047 154.91145 
L 91.713047 153.153832 
L 78.706016 153.153832 
z
" style="fill:#dc143c;"/>
   </g>
   <g id="patch_21">
    <path d="M 112.524297 154.91145 
L 164.552422 154.91145 
L 164.552422 153.153832 
L 112.524297 153.153832 
z
" style="fill:#ffd700;"/>
   </g>
   <g id="patch_22">
    <path d="M 185.363672 154.91145 
L 191.867187 154.91145 
L 191.867187 153.153832 
L 185.363672 153.153832 
z
" style="fill:#dc143c;"/>
   </g>
   <g id="patch_23">
    <path d="M 212.678437 154.91145 
L 264.706562 154.91145 
L 264.706562 153.153832 
L 212.678437 153.153832 
z
" style="fill:#ffd700;"/>
   </g>
   <g id="patch_24">
    <path d="M 285.517812 154.91145 
L 292.021328 154.91145 
L 292.021328 153.153832 
L 285.517812 153.153832 
z
" style="fill:#dc143c;"/>
   </g>
   <g id="patch_25">
    <path d="M 312.832578 154.91145 
L 364.860703 154.91145 
L 364.860703 153.153832 
L 312.832578 153.153832 
z
" style="fill:#ffd700;"/>
   </g>
   <g id="patch_26">
    <path d="M 385.671953 154.91145 
L 398.678984 154.91145 
L 398.678984 153.153832 
L 385.671953 153.153832 
z
" style="fill:#dc143c;"/>
   </g>
   <g id="patch_27">
    <path d="M 419.490234 154.91145 
L 425.99375 154.91145 
L 425.99375 153.153832 
L 419.490234 153.153832 
z
" style="fill:#dc143c;"/>
   </g>
   <g id="line2d_34">
    <path clip-path="url(#p8ac7ae8756)" d="M 30.58 210.047467 
L 35.782813 209.893949 
L 40.985625 209.433395 
L 46.188437 208.665804 
L 50.003833 207.872691 
L 52.60524 207.084749 
L 54.859792 206.206245 
L 58.328333 204.632709 
L 61.796875 202.796065 
L 65.265417 200.696312 
L 68.733958 198.333451 
L 73.069635 195.249014 
L 75.671042 193.850243 
L 76.971745 193.332876 
L 78.272448 192.948914 
L 79.573151 192.704688 
L 80.873854 192.604225 
L 82.174557 192.649182 
L 85.209531 193.185027 
L 99.083698 195.813445 
L 100.817969 196.12434 
L 112.524297 197.680681 
L 128.132734 200.064092 
L 143.307604 202.392793 
L 157.181771 203.987634 
L 162.384583 204.464339 
L 177.993021 205.562634 
L 183.629401 205.837759 
L 220.482656 207.334092 
L 236.091094 207.568493 
L 244.762448 207.53681 
L 258.636615 207.293471 
L 285.95138 206.176786 
L 302.860521 205.338975 
L 317.601823 204.244163 
L 325.406042 203.418998 
L 337.545937 201.954844 
L 360.958594 198.250508 
L 372.664922 196.61431 
L 378.301302 195.813445 
L 392.175469 193.185027 
L 395.210443 192.649182 
L 396.511146 192.604225 
L 397.811849 192.704688 
L 399.112552 192.948914 
L 400.413255 193.332876 
L 401.713958 193.850243 
L 404.315365 195.249014 
L 406.916771 197.053354 
L 410.385312 199.54777 
L 413.853854 201.779077 
L 417.322396 203.747276 
L 420.790937 205.452366 
L 424.77976 207.084749 
L 427.381167 207.872691 
L 429.462292 208.34171 
L 434.665104 209.211647 
L 439.867917 209.774546 
L 445.070729 210.03041 
L 446.805 210.047467 
L 446.805 210.047467 
" style="fill:none;stroke:#dc143c;stroke-linecap:square;stroke-width:1.3;"/>
   </g>
   <g id="text_35">
    <!-- q1 -->
    <g transform="translate(49.558633 151.929487)scale(0.08 -0.08)">
     <use xlink:href="#DejaVuSans-113"/>
     <use x="63.476562" xlink:href="#DejaVuSans-49"/>
    </g>
   </g>
   <g id="text_36">
    <!-- q2 -->
    <g transform="translate(80.125156 151.929487)scale(0.08 -0.08)">
     <use xlink:href="#DejaVuSans-113"/>
     <use x="63.476562" xlink:href="#DejaVuSans-50"/>
    </g>
   </g>
   <g id="text_37">
    <!-- b1 -->
    <g transform="translate(133.453984 162.308414)scale(0.08 -0.08)">
     <use xlink:href="#DejaVuSans-98"/>
     <use x="63.476562" xlink:href="#DejaVuSans-49"/>
    </g>
   </g>
   <g id="text_38">
    <!-- q3 -->
    <g transform="translate(183.531055 151.929487)scale(0.08 -0.08)">
     <use xlink:href="#DejaVuSans-113"/>
     <use x="63.476562" xlink:href="#DejaVuSans-51"/>
    </g>
   </g>
   <g id="text_39">
    <!-- b1 -->
    <g transform="translate(233.608125 162.308414)scale(0.08 -0.08)">
     <use xlink:href="#DejaVuSans-98"/>
     <use x="63.476562" xlink:href="#DejaVuSans-49"/>
    </g>
   </g>
   <g id="text_40">
    <!-- q3 -->
    <g transform="translate(283.685195 151.929487)scale(0.08 -0.08)">
     <use xlink:href="#DejaVuSans-113"/>
     <use x="63.476562" xlink:href="#DejaVuSans-51"/>
    </g>
   </g>
   <g id="text_41">
    <!-- b1 -->
    <g transform="translate(333.762266 162.308414)scale(0.08 -0.08)">
     <use xlink:href="#DejaVuSans-98"/>
     <use x="63.476562" xlink:href="#DejaVuSans-49"/>
    </g>
   </g>
   <g id="text_42">
    <!-- q2 -->
    <g transform="translate(387.091094 151.929487)scale(0.08 -0.08)">
     <use xlink:href="#DejaVuSans-113"/>
     <use x="63.476562" xlink:href="#DejaVuSans-50"/>
    </g>
   </g>
   <g id="text_43">
    <!-- q1 -->
    <g transform="translate(417.657617 151.929487)scale(0.08 -0.08)">
     <use xlink:href="#DejaVuSans-113"/>
     <use x="63.476562" xlink:href="#DejaVuSans-49"/>
    </g>
   </g>
  </g>
  <g id="axes_3">
   <g id="patch_28">
    <path d="M 30.58 317.717614 
L 446.805 317.717614 
L 446.805 261.473834 
L 30.58 261.473834 
z
" style="fill:#ffffff;"/>
   </g>
   <g id="matplotlib.axis_5">
    <g id="xtick_19">
     <g id="line2d_35">
      <g>
       <use style="stroke:#000000;stroke-width:0.8;" x="30.58" xlink:href="#m0a9c5dc63b" y="317.717614"/>
      </g>
     </g>
     <g id="text_44">
      <!-- 0 -->
      <g transform="translate(27.39875 332.316051)scale(0.1 -0.1)">
       <use xlink:href="#DejaVuSans-48"/>
      </g>
     </g>
    </g>
    <g id="xtick_20">
     <g id="line2d_36">
      <g>
       <use style="stroke:#000000;stroke-width:0.8;" x="82.608125" xlink:href="#m0a9c5dc63b" y="317.717614"/>
      </g>
     </g>
     <g id="text_45">
      <!-- 1 -->
      <g transform="translate(79.426875 332.316051)scale(0.1 -0.1)">
       <use xlink:href="#DejaVuSans-49"/>
      </g>
     </g>
    </g>
    <g id="xtick_21">
     <g id="line2d_37">
      <g>
       <use style="stroke:#000000;stroke-width:0.8;" x="134.63625" xlink:href="#m0a9c5dc63b" y="317.717614"/>
      </g>
     </g>
     <g id="text_46">
      <!-- 2 -->
      <g transform="translate(131.455 332.316051)scale(0.1 -0.1)">
       <use xlink:href="#DejaVuSans-50"/>
      </g>
     </g>
    </g>
    <g id="xtick_22">
     <g id="line2d_38">
      <g>
       <use style="stroke:#000000;stroke-width:0.8;" x="186.664375" xlink:href="#m0a9c5dc63b" y="317.717614"/>
      </g>
     </g>
     <g id="text_47">
      <!-- 3 -->
      <g transform="translate(183.483125 332.316051)scale(0.1 -0.1)">
       <use xlink:href="#DejaVuSans-51"/>
      </g>
     </g>
    </g>
    <g id="xtick_23">
     <g id="line2d_39">
      <g>
       <use style="stroke:#000000;stroke-width:0.8;" x="238.6925" xlink:href="#m0a9c5dc63b" y="317.717614"/>
      </g>
     </g>
     <g id="text_48">
      <!-- 4 -->
      <g transform="translate(235.51125 332.316051)scale(0.1 -0.1)">
       <use xlink:href="#DejaVuSans-52"/>
      </g>
     </g>
    </g>
    <g id="xtick_24">
     <g id="line2d_40">
      <g>
       <use style="stroke:#000000;stroke-width:0.8;" x="290.720625" xlink:href="#m0a9c5dc63b" y="317.717614"/>
      </g>
     </g>
     <g id="text_49">
      <!-- 5 -->
      <g transform="translate(287.539375 332.316051)scale(0.1 -0.1)">
       <use xlink:href="#DejaVuSans-53"/>
      </g>
     </g>
    </g>
    <g id="xtick_25">
     <g id="line2d_41">
      <g>
       <use style="stroke:#000000;stroke-width:0.8;" x="342.74875" xlink:href="#m0a9c5dc63b" y="317.717614"/>
      </g>
     </g>
     <g id="text_50">
      <!-- 6 -->
      <g transform="translate(339.5675 332.316051)scale(0.1 -0.1)">
       <use xlink:href="#DejaVuSans-54"/>
      </g>
     </g>
    </g>
    <g id="xtick_26">
     <g id="line2d_42">
      <g>
       <use style="stroke:#000000;stroke-width:0.8;" x="394.776875" xlink:href="#m0a9c5dc63b" y="317.717614"/>
      </g>
     </g>
     <g id="text_51">
      <!-- 7 -->
      <g transform="translate(391.595625 332.316051)scale(0.1 -0.1)">
       <use xlink:href="#DejaVuSans-55"/>
      </g>
     </g>
    </g>
    <g id="xtick_27">
     <g id="line2d_43">
      <g>
       <use style="stroke:#000000;stroke-width:0.8;" x="446.805" xlink:href="#m0a9c5dc63b" y="317.717614"/>
      </g>
     </g>
     <g id="text_52">
      <!-- 8 -->
      <g transform="translate(443.62375 332.316051)scale(0.1 -0.1)">
       <use xlink:href="#DejaVuSans-56"/>
      </g>
     </g>
    </g>
    <g id="text_53">
     <!-- Orbit Position $s$ / m -->
     <g transform="translate(190.9925 345.994176)scale(0.1 -0.1)">
      <use transform="translate(0 0.015625)" xlink:href="#DejaVuSans-79"/>
      <use transform="translate(78.710938 0.015625)" xlink:href="#DejaVuSans-114"/>
      <use transform="translate(119.824219 0.015625)" xlink:href="#DejaVuSans-98"/>
      <use transform="translate(183.300781 0.015625)" xlink:href="#DejaVuSans-105"/>
      <use transform="translate(211.083984 0.015625)" xlink:href="#DejaVuSans-116"/>
      <use transform="translate(250.292969 0.015625)" xlink:href="#DejaVuSans-32"/>
      <use transform="translate(282.080078 0.015625)" xlink:href="#DejaVuSans-80"/>
      <use transform="translate(342.382812 0.015625)" xlink:href="#DejaVuSans-111"/>
      <use transform="translate(403.564453 0.015625)" xlink:href="#DejaVuSans-115"/>
      <use transform="translate(455.664062 0.015625)" xlink:href="#DejaVuSans-105"/>
      <use transform="translate(483.447266 0.015625)" xlink:href="#DejaVuSans-116"/>
      <use transform="translate(522.65625 0.015625)" xlink:href="#DejaVuSans-105"/>
      <use transform="translate(550.439453 0.015625)" xlink:href="#DejaVuSans-111"/>
      <use transform="translate(611.621094 0.015625)" xlink:href="#DejaVuSans-110"/>
      <use transform="translate(675 0.015625)" xlink:href="#DejaVuSans-32"/>
      <use transform="translate(706.787109 0.015625)" xlink:href="#DejaVuSans-Oblique-115"/>
      <use transform="translate(758.886719 0.015625)" xlink:href="#DejaVuSans-32"/>
      <use transform="translate(790.673828 0.015625)" xlink:href="#DejaVuSans-47"/>
      <use transform="translate(824.365234 0.015625)" xlink:href="#DejaVuSans-32"/>
      <use transform="translate(856.152344 0.015625)" xlink:href="#DejaVuSans-109"/>
     </g>
    </g>
   </g>
   <g id="matplotlib.axis_6">
    <g id="ytick_5">
     <g id="line2d_44">
      <g>
       <use style="stroke:#000000;stroke-width:0.8;" x="30.58" xlink:href="#m939f42e368" y="317.717614"/>
      </g>
     </g>
     <g id="text_54">
      <!-- 0 -->
      <g transform="translate(17.2175 321.516833)scale(0.1 -0.1)">
       <use xlink:href="#DejaVuSans-48"/>
      </g>
     </g>
    </g>
    <g id="ytick_6">
     <g id="line2d_45">
      <g>
       <use style="stroke:#000000;stroke-width:0.8;" x="30.58" xlink:href="#m939f42e368" y="280.221761"/>
      </g>
     </g>
     <g id="text_55">
      <!-- 20 -->
      <g transform="translate(10.855 284.02098)scale(0.1 -0.1)">
       <use xlink:href="#DejaVuSans-50"/>
       <use x="63.623047" xlink:href="#DejaVuSans-48"/>
      </g>
     </g>
    </g>
   </g>
   <g id="patch_29">
    <path d="M 30.58 317.717614 
L 30.58 261.473834 
" style="fill:none;stroke:#000000;stroke-linecap:square;stroke-linejoin:miter;stroke-width:0.8;"/>
   </g>
   <g id="patch_30">
    <path d="M 446.805 317.717614 
L 446.805 261.473834 
" style="fill:none;stroke:#000000;stroke-linecap:square;stroke-linejoin:miter;stroke-width:0.8;"/>
   </g>
   <g id="patch_31">
    <path d="M 30.58 317.717614 
L 446.805 317.717614 
" style="fill:none;stroke:#000000;stroke-linecap:square;stroke-linejoin:miter;stroke-width:0.8;"/>
   </g>
   <g id="patch_32">
    <path d="M 30.58 261.473834 
L 446.805 261.473834 
" style="fill:none;stroke:#000000;stroke-linecap:square;stroke-linejoin:miter;stroke-width:0.8;"/>
   </g>
   <g id="line2d_46">
    <path clip-path="url(#p801c545f71)" d="M 30.58 285.001297 
L 68.548144 285.095803 
L 73.750956 285.468252 
L 79.139583 286.150241 
L 92.518244 288.045743 
L 125.221637 290.172843 
L 141.201704 290.235085 
L 144.422493 290.556672 
L 157.801153 292.055731 
L 179.652966 292.975926 
L 189.018028 293.283876 
L 206.918181 292.832999 
L 211.19192 293.119276 
L 223.084062 293.971664 
L 238.6925 294.067636 
L 254.300937 293.971664 
L 272.20109 292.797916 
L 276.474829 292.911598 
L 288.366972 293.283876 
L 307.097097 292.613868 
L 319.583847 292.055731 
L 337.050432 290.187123 
L 340.27122 290.152959 
L 353.649881 290.175328 
L 384.866756 288.045743 
L 403.634044 285.468252 
L 408.836856 285.095803 
L 414.225484 285.009564 
L 446.805 285.001297 
L 446.805 285.001297 
" style="fill:none;stroke:#3cb371;stroke-linecap:square;stroke-width:1.3;"/>
   </g>
   <g id="line2d_47">
    <path clip-path="url(#p801c545f71)" d="M 30.58 302.464907 
L 64.646034 302.35764 
L 69.848847 302.182661 
L 75.051659 301.717294 
L 80.626101 300.926309 
L 92.518244 299.074647 
L 120.613432 297.079459 
L 123.735119 296.845057 
L 140.768136 297.225693 
L 142.935975 297.006738 
L 157.801153 294.794558 
L 190.504546 293.628895 
L 205.617478 294.707076 
L 207.785316 294.598845 
L 217.137991 293.490864 
L 223.084062 292.765235 
L 254.300937 292.765235 
L 270.466819 294.667044 
L 272.634658 294.692367 
L 276.474829 294.422406 
L 288.366972 293.513482 
L 321.070365 295.022012 
L 335.749728 297.160461 
L 338.351135 297.267551 
L 349.190327 296.972775 
L 353.649881 296.845057 
L 381.745068 298.863131 
L 384.866756 299.074647 
L 401.032638 301.553835 
L 404.934747 301.987081 
L 410.13756 302.305809 
L 417.198519 302.384035 
L 446.805 302.464907 
L 446.805 302.464907 
" style="fill:none;stroke:#1e90ff;stroke-linecap:square;stroke-width:1.3;"/>
   </g>
   <g id="patch_33">
    <path d="M 47.922708 262.352644 
L 53.125521 262.352644 
L 53.125521 260.595025 
L 47.922708 260.595025 
z
" style="fill:#dc143c;"/>
   </g>
   <g id="patch_34">
    <path d="M 70.468229 262.352644 
L 83.47526 262.352644 
L 83.47526 260.595025 
L 70.468229 260.595025 
z
" style="fill:#dc143c;"/>
   </g>
   <g id="patch_35">
    <path d="M 100.817969 262.352644 
L 139.839063 262.352644 
L 139.839063 260.595025 
L 100.817969 260.595025 
z
" style="fill:#ffd700;"/>
   </g>
   <g id="patch_36">
    <path d="M 157.181771 262.352644 
L 162.384583 262.352644 
L 162.384583 260.595025 
L 157.181771 260.595025 
z
" style="fill:#dc143c;"/>
   </g>
   <g id="patch_37">
    <path d="M 179.727292 262.352644 
L 218.748385 262.352644 
L 218.748385 260.595025 
L 179.727292 260.595025 
z
" style="fill:#ffd700;"/>
   </g>
   <g id="patch_38">
    <path d="M 236.091094 262.352644 
L 241.293906 262.352644 
L 241.293906 260.595025 
L 236.091094 260.595025 
z
" style="fill:#dc143c;"/>
   </g>
   <g id="patch_39">
    <path d="M 258.636615 262.352644 
L 297.657708 262.352644 
L 297.657708 260.595025 
L 258.636615 260.595025 
z
" style="fill:#ffd700;"/>
   </g>
   <g id="patch_40">
    <path d="M 315.000417 262.352644 
L 320.203229 262.352644 
L 320.203229 260.595025 
L 315.000417 260.595025 
z
" style="fill:#dc143c;"/>
   </g>
   <g id="patch_41">
    <path d="M 337.545937 262.352644 
L 376.567031 262.352644 
L 376.567031 260.595025 
L 337.545937 260.595025 
z
" style="fill:#ffd700;"/>
   </g>
   <g id="patch_42">
    <path d="M 393.90974 262.352644 
L 406.916771 262.352644 
L 406.916771 260.595025 
L 393.90974 260.595025 
z
" style="fill:#dc143c;"/>
   </g>
   <g id="patch_43">
    <path d="M 424.259479 262.352644 
L 429.462292 262.352644 
L 429.462292 260.595025 
L 424.259479 260.595025 
z
" style="fill:#dc143c;"/>
   </g>
   <g id="line2d_48">
    <path clip-path="url(#p801c545f71)" d="M 30.58 309.893475 
L 57.213445 309.77822 
L 71.14955 309.740095 
L 77.653065 309.984961 
L 92.518244 310.719013 
L 105.004994 310.989917 
L 117.491744 311.51824 
L 128.194673 311.991055 
L 144.422493 312.528954 
L 157.801153 313.285628 
L 176.531278 313.925076 
L 194.9641 314.550153 
L 232.449125 315.151682 
L 257.273973 315.078933 
L 291.488659 314.296216 
L 316.462159 313.378094 
L 324.0434 313.050824 
L 341.757738 312.180484 
L 353.649881 311.863633 
L 366.136631 311.224591 
L 378.623381 310.819996 
L 389.32631 310.510842 
L 407.536153 309.716091 
L 414.225484 309.721324 
L 440.858929 309.887607 
L 446.805 309.893475 
L 446.805 309.893475 
" style="fill:none;stroke:#dc143c;stroke-linecap:square;stroke-width:1.3;"/>
   </g>
   <g id="text_56">
    <!-- q1 -->
    <g transform="translate(45.43974 259.37068)scale(0.08 -0.08)">
     <use xlink:href="#DejaVuSans-113"/>
     <use x="63.476562" xlink:href="#DejaVuSans-49"/>
    </g>
   </g>
   <g id="text_57">
    <!-- q2 -->
    <g transform="translate(71.88737 259.37068)scale(0.08 -0.08)">
     <use xlink:href="#DejaVuSans-113"/>
     <use x="63.476562" xlink:href="#DejaVuSans-50"/>
    </g>
   </g>
   <g id="text_58">
    <!-- b1 -->
    <g transform="translate(115.244141 269.749607)scale(0.08 -0.08)">
     <use xlink:href="#DejaVuSans-98"/>
     <use x="63.476562" xlink:href="#DejaVuSans-49"/>
    </g>
   </g>
   <g id="text_59">
    <!-- q3 -->
    <g transform="translate(154.698802 259.37068)scale(0.08 -0.08)">
     <use xlink:href="#DejaVuSans-113"/>
     <use x="63.476562" xlink:href="#DejaVuSans-51"/>
    </g>
   </g>
   <g id="text_60">
    <!-- b1 -->
    <g transform="translate(194.153464 269.749607)scale(0.08 -0.08)">
     <use xlink:href="#DejaVuSans-98"/>
     <use x="63.476562" xlink:href="#DejaVuSans-49"/>
    </g>
   </g>
   <g id="text_61">
    <!-- q3 -->
    <g transform="translate(233.608125 259.37068)scale(0.08 -0.08)">
     <use xlink:href="#DejaVuSans-113"/>
     <use x="63.476562" xlink:href="#DejaVuSans-51"/>
    </g>
   </g>
   <g id="text_62">
    <!-- b1 -->
    <g transform="translate(273.062786 269.749607)scale(0.08 -0.08)">
     <use xlink:href="#DejaVuSans-98"/>
     <use x="63.476562" xlink:href="#DejaVuSans-49"/>
    </g>
   </g>
   <g id="text_63">
    <!-- q3 -->
    <g transform="translate(312.517448 259.37068)scale(0.08 -0.08)">
     <use xlink:href="#DejaVuSans-113"/>
     <use x="63.476562" xlink:href="#DejaVuSans-51"/>
    </g>
   </g>
   <g id="text_64">
    <!-- b1 -->
    <g transform="translate(351.972109 269.749607)scale(0.08 -0.08)">
     <use xlink:href="#DejaVuSans-98"/>
     <use x="63.476562" xlink:href="#DejaVuSans-49"/>
    </g>
   </g>
   <g id="text_65">
    <!-- q2 -->
    <g transform="translate(395.32888 259.37068)scale(0.08 -0.08)">
     <use xlink:href="#DejaVuSans-113"/>
     <use x="63.476562" xlink:href="#DejaVuSans-50"/>
    </g>
   </g>
   <g id="text_66">
    <!-- q1 -->
    <g transform="translate(421.77651 259.37068)scale(0.08 -0.08)">
     <use xlink:href="#DejaVuSans-113"/>
     <use x="63.476562" xlink:href="#DejaVuSans-49"/>
    </g>
   </g>
  </g>
  <g id="axes_4">
   <g id="patch_44">
    <path d="M 30.58 425.158807 
L 446.805 425.158807 
L 446.805 368.915028 
L 30.58 368.915028 
z
" style="fill:#ffffff;"/>
   </g>
   <g id="matplotlib.axis_7">
    <g id="xtick_28">
     <g id="line2d_49">
      <g>
       <use style="stroke:#000000;stroke-width:0.8;" x="30.58" xlink:href="#m0a9c5dc63b" y="425.158807"/>
      </g>
     </g>
     <g id="text_67">
      <!-- 0 -->
      <g transform="translate(27.39875 439.757244)scale(0.1 -0.1)">
       <use xlink:href="#DejaVuSans-48"/>
      </g>
     </g>
    </g>
    <g id="xtick_29">
     <g id="line2d_50">
      <g>
       <use style="stroke:#000000;stroke-width:0.8;" x="82.608125" xlink:href="#m0a9c5dc63b" y="425.158807"/>
      </g>
     </g>
     <g id="text_68">
      <!-- 1 -->
      <g transform="translate(79.426875 439.757244)scale(0.1 -0.1)">
       <use xlink:href="#DejaVuSans-49"/>
      </g>
     </g>
    </g>
    <g id="xtick_30">
     <g id="line2d_51">
      <g>
       <use style="stroke:#000000;stroke-width:0.8;" x="134.63625" xlink:href="#m0a9c5dc63b" y="425.158807"/>
      </g>
     </g>
     <g id="text_69">
      <!-- 2 -->
      <g transform="translate(131.455 439.757244)scale(0.1 -0.1)">
       <use xlink:href="#DejaVuSans-50"/>
      </g>
     </g>
    </g>
    <g id="xtick_31">
     <g id="line2d_52">
      <g>
       <use style="stroke:#000000;stroke-width:0.8;" x="186.664375" xlink:href="#m0a9c5dc63b" y="425.158807"/>
      </g>
     </g>
     <g id="text_70">
      <!-- 3 -->
      <g transform="translate(183.483125 439.757244)scale(0.1 -0.1)">
       <use xlink:href="#DejaVuSans-51"/>
      </g>
     </g>
    </g>
    <g id="xtick_32">
     <g id="line2d_53">
      <g>
       <use style="stroke:#000000;stroke-width:0.8;" x="238.6925" xlink:href="#m0a9c5dc63b" y="425.158807"/>
      </g>
     </g>
     <g id="text_71">
      <!-- 4 -->
      <g transform="translate(235.51125 439.757244)scale(0.1 -0.1)">
       <use xlink:href="#DejaVuSans-52"/>
      </g>
     </g>
    </g>
    <g id="xtick_33">
     <g id="line2d_54">
      <g>
       <use style="stroke:#000000;stroke-width:0.8;" x="290.720625" xlink:href="#m0a9c5dc63b" y="425.158807"/>
      </g>
     </g>
     <g id="text_72">
      <!-- 5 -->
      <g transform="translate(287.539375 439.757244)scale(0.1 -0.1)">
       <use xlink:href="#DejaVuSans-53"/>
      </g>
     </g>
    </g>
    <g id="xtick_34">
     <g id="line2d_55">
      <g>
       <use style="stroke:#000000;stroke-width:0.8;" x="342.74875" xlink:href="#m0a9c5dc63b" y="425.158807"/>
      </g>
     </g>
     <g id="text_73">
      <!-- 6 -->
      <g transform="translate(339.5675 439.757244)scale(0.1 -0.1)">
       <use xlink:href="#DejaVuSans-54"/>
      </g>
     </g>
    </g>
    <g id="xtick_35">
     <g id="line2d_56">
      <g>
       <use style="stroke:#000000;stroke-width:0.8;" x="394.776875" xlink:href="#m0a9c5dc63b" y="425.158807"/>
      </g>
     </g>
     <g id="text_74">
      <!-- 7 -->
      <g transform="translate(391.595625 439.757244)scale(0.1 -0.1)">
       <use xlink:href="#DejaVuSans-55"/>
      </g>
     </g>
    </g>
    <g id="xtick_36">
     <g id="line2d_57">
      <g>
       <use style="stroke:#000000;stroke-width:0.8;" x="446.805" xlink:href="#m0a9c5dc63b" y="425.158807"/>
      </g>
     </g>
     <g id="text_75">
      <!-- 8 -->
      <g transform="translate(443.62375 439.757244)scale(0.1 -0.1)">
       <use xlink:href="#DejaVuSans-56"/>
      </g>
     </g>
    </g>
    <g id="text_76">
     <!-- Orbit Position $s$ / m -->
     <g transform="translate(190.9925 453.435369)scale(0.1 -0.1)">
      <use transform="translate(0 0.015625)" xlink:href="#DejaVuSans-79"/>
      <use transform="translate(78.710938 0.015625)" xlink:href="#DejaVuSans-114"/>
      <use transform="translate(119.824219 0.015625)" xlink:href="#DejaVuSans-98"/>
      <use transform="translate(183.300781 0.015625)" xlink:href="#DejaVuSans-105"/>
      <use transform="translate(211.083984 0.015625)" xlink:href="#DejaVuSans-116"/>
      <use transform="translate(250.292969 0.015625)" xlink:href="#DejaVuSans-32"/>
      <use transform="translate(282.080078 0.015625)" xlink:href="#DejaVuSans-80"/>
      <use transform="translate(342.382812 0.015625)" xlink:href="#DejaVuSans-111"/>
      <use transform="translate(403.564453 0.015625)" xlink:href="#DejaVuSans-115"/>
      <use transform="translate(455.664062 0.015625)" xlink:href="#DejaVuSans-105"/>
      <use transform="translate(483.447266 0.015625)" xlink:href="#DejaVuSans-116"/>
      <use transform="translate(522.65625 0.015625)" xlink:href="#DejaVuSans-105"/>
      <use transform="translate(550.439453 0.015625)" xlink:href="#DejaVuSans-111"/>
      <use transform="translate(611.621094 0.015625)" xlink:href="#DejaVuSans-110"/>
      <use transform="translate(675 0.015625)" xlink:href="#DejaVuSans-32"/>
      <use transform="translate(706.787109 0.015625)" xlink:href="#DejaVuSans-Oblique-115"/>
      <use transform="translate(758.886719 0.015625)" xlink:href="#DejaVuSans-32"/>
      <use transform="translate(790.673828 0.015625)" xlink:href="#DejaVuSans-47"/>
      <use transform="translate(824.365234 0.015625)" xlink:href="#DejaVuSans-32"/>
      <use transform="translate(856.152344 0.015625)" xlink:href="#DejaVuSans-109"/>
     </g>
    </g>
   </g>
   <g id="matplotlib.axis_8">
    <g id="ytick_7">
     <g id="line2d_58">
      <g>
       <use style="stroke:#000000;stroke-width:0.8;" x="30.58" xlink:href="#m939f42e368" y="425.158807"/>
      </g>
     </g>
     <g id="text_77">
      <!-- 0 -->
      <g transform="translate(17.2175 428.958026)scale(0.1 -0.1)">
       <use xlink:href="#DejaVuSans-48"/>
      </g>
     </g>
    </g>
    <g id="ytick_8">
     <g id="line2d_59">
      <g>
       <use style="stroke:#000000;stroke-width:0.8;" x="30.58" xlink:href="#m939f42e368" y="387.662954"/>
      </g>
     </g>
     <g id="text_78">
      <!-- 20 -->
      <g transform="translate(10.855 391.462173)scale(0.1 -0.1)">
       <use xlink:href="#DejaVuSans-50"/>
       <use x="63.623047" xlink:href="#DejaVuSans-48"/>
      </g>
     </g>
    </g>
   </g>
   <g id="patch_45">
    <path d="M 30.58 425.158807 
L 30.58 368.915028 
" style="fill:none;stroke:#000000;stroke-linecap:square;stroke-linejoin:miter;stroke-width:0.8;"/>
   </g>
   <g id="patch_46">
    <path d="M 446.805 425.158807 
L 446.805 368.915028 
" style="fill:none;stroke:#000000;stroke-linecap:square;stroke-linejoin:miter;stroke-width:0.8;"/>
   </g>
   <g id="patch_47">
    <path d="M 30.58 425.158807 
L 446.805 425.158807 
" style="fill:none;stroke:#000000;stroke-linecap:square;stroke-linejoin:miter;stroke-width:0.8;"/>
   </g>
   <g id="patch_48">
    <path d="M 30.58 368.915028 
L 446.805 368.915028 
" style="fill:none;stroke:#000000;stroke-linecap:square;stroke-linejoin:miter;stroke-width:0.8;"/>
   </g>
   <g id="line2d_60">
    <path clip-path="url(#p0ecf397a5a)" d="M 30.58 421.120899 
L 51.205435 421.230408 
L 68.114576 421.463133 
L 78.520201 421.307349 
L 88.925826 421.06559 
L 96.730045 420.597431 
L 104.534263 419.861587 
L 112.338482 418.868258 
L 127.94692 416.445764 
L 131.663214 416.268636 
L 144.670246 415.63594 
L 152.474464 414.923263 
L 160.278683 414.021561 
L 168.082902 412.943336 
L 182.94808 410.280441 
L 184.806228 410.222767 
L 197.813259 410.494105 
L 208.218884 410.140626 
L 218.624509 409.569171 
L 225.128025 409.046572 
L 238.320871 407.503274 
L 240.179018 407.571654 
L 249.655569 408.727921 
L 253.557679 409.205898 
L 263.963304 409.881388 
L 274.368929 410.345285 
L 280.872444 410.466971 
L 294.43692 410.280441 
L 296.295067 410.530079 
L 311.903504 413.321483 
L 319.707723 414.342411 
L 327.511942 415.182368 
L 335.316161 415.829708 
L 350.924598 416.598543 
L 354.640893 417.181351 
L 367.647924 419.227199 
L 375.452143 420.136056 
L 383.256362 420.783625 
L 391.06058 421.160926 
L 411.87183 421.462826 
L 422.277455 421.304556 
L 437.700078 421.120899 
L 446.805 421.120899 
L 446.805 421.120899 
" style="fill:none;stroke:#3cb371;stroke-linecap:square;stroke-width:1.3;"/>
   </g>
   <g id="line2d_61">
    <path clip-path="url(#p0ecf397a5a)" d="M 30.58 373.115561 
L 44.70192 373.02838 
L 46.188437 372.660868 
L 47.303326 372.190303 
L 57.708951 366.879773 
L 61.61106 364.90109 
L 62.911763 364.447365 
L 64.212467 364.152941 
L 65.51317 364.019375 
L 66.813873 364.047374 
L 68.114576 364.23679 
L 69.415279 364.58662 
L 70.715982 365.095015 
L 72.016685 365.759287 
L 74.618092 367.463937 
L 82.42231 372.648019 
L 86.32442 375.147484 
L 91.527232 379.883082 
L 96.730045 384.381705 
L 101.932857 388.643355 
L 107.13567 392.668031 
L 113.639185 397.58582 
L 118.841998 401.877643 
L 124.04481 405.803838 
L 126.460402 407.419012 
L 127.94692 408.068597 
L 129.061808 408.363984 
L 144.670246 411.449655 
L 155.075871 413.979729 
L 165.481496 416.229214 
L 170.684308 417.375644 
L 178.488527 419.100182 
L 182.94808 419.909726 
L 184.806228 420.055171 
L 208.218884 421.1178 
L 235.53365 422.359599 
L 239.807388 422.435993 
L 247.054163 422.127527 
L 288.676663 420.212536 
L 294.808549 419.863928 
L 296.295067 419.621975 
L 304.099286 417.977017 
L 314.504911 415.693148 
L 324.910536 413.373515 
L 337.917567 410.30861 
L 349.066451 408.184894 
L 350.552969 407.6097 
L 352.039487 406.728257 
L 355.941596 403.886444 
L 361.144408 399.777435 
L 365.046518 396.455734 
L 370.24933 392.668031 
L 375.452143 388.643355 
L 380.654955 384.381705 
L 385.857768 379.883082 
L 391.06058 375.147484 
L 398.864799 370.086836 
L 405.368315 365.759287 
L 406.669018 365.095015 
L 407.969721 364.58662 
L 409.270424 364.23679 
L 410.571127 364.047374 
L 411.87183 364.019375 
L 413.172533 364.152941 
L 414.473237 364.447365 
L 415.77394 364.90109 
L 418.375346 366.197767 
L 428.780971 371.540635 
L 431.196563 372.660868 
L 432.68308 373.02838 
L 433.797969 373.11134 
L 446.805 373.115561 
L 446.805 373.115561 
" style="fill:none;stroke:#1e90ff;stroke-linecap:square;stroke-width:1.3;"/>
   </g>
   <g id="patch_49">
    <path d="M 45.445179 369.793837 
L 49.780856 369.793837 
L 49.780856 368.036219 
L 45.445179 368.036219 
z
" style="fill:#dc143c;"/>
   </g>
   <g id="patch_50">
    <path d="M 64.646034 369.793837 
L 77.653065 369.793837 
L 77.653065 368.036219 
L 64.646034 368.036219 
z
" style="fill:#dc143c;"/>
   </g>
   <g id="patch_51">
    <path d="M 92.518244 369.793837 
L 123.735119 369.793837 
L 123.735119 368.036219 
L 92.518244 368.036219 
z
" style="fill:#ffd700;"/>
   </g>
   <g id="patch_52">
    <path d="M 138.600298 369.793837 
L 142.935975 369.793837 
L 142.935975 368.036219 
L 138.600298 368.036219 
z
" style="fill:#dc143c;"/>
   </g>
   <g id="patch_53">
    <path d="M 157.801153 369.793837 
L 189.018028 369.793837 
L 189.018028 368.036219 
L 157.801153 368.036219 
z
" style="fill:#ffd700;"/>
   </g>
   <g id="patch_54">
    <path d="M 203.883207 369.793837 
L 208.218884 369.793837 
L 208.218884 368.036219 
L 203.883207 368.036219 
z
" style="fill:#dc143c;"/>
   </g>
   <g id="patch_55">
    <path d="M 223.084063 369.793837 
L 254.300938 369.793837 
L 254.300938 368.036219 
L 223.084063 368.036219 
z
" style="fill:#ffd700;"/>
   </g>
   <g id="patch_56">
    <path d="M 269.166116 369.793837 
L 273.501793 369.793837 
L 273.501793 368.036219 
L 269.166116 368.036219 
z
" style="fill:#dc143c;"/>
   </g>
   <g id="patch_57">
    <path d="M 288.366972 369.793837 
L 319.583847 369.793837 
L 319.583847 368.036219 
L 288.366972 368.036219 
z
" style="fill:#ffd700;"/>
   </g>
   <g id="patch_58">
    <path d="M 334.449025 369.793837 
L 338.784702 369.793837 
L 338.784702 368.036219 
L 334.449025 368.036219 
z
" style="fill:#dc143c;"/>
   </g>
   <g id="patch_59">
    <path d="M 353.649881 369.793837 
L 384.866756 369.793837 
L 384.866756 368.036219 
L 353.649881 368.036219 
z
" style="fill:#ffd700;"/>
   </g>
   <g id="patch_60">
    <path d="M 399.731935 369.793837 
L 412.738966 369.793837 
L 412.738966 368.036219 
L 399.731935 368.036219 
z
" style="fill:#dc143c;"/>
   </g>
   <g id="patch_61">
    <path d="M 427.604144 369.793837 
L 431.939821 369.793837 
L 431.939821 368.036219 
L 427.604144 368.036219 
z
" style="fill:#dc143c;"/>
   </g>
   <g id="line2d_62">
    <path clip-path="url(#p0ecf397a5a)" d="M 30.58 423.511804 
L 42.286328 423.403766 
L 65.51317 422.875286 
L 72.016685 422.405333 
L 79.820904 421.560715 
L 86.32442 420.728309 
L 113.639185 416.125572 
L 122.744107 414.114119 
L 126.832031 413.236388 
L 128.318549 413.169365 
L 130.362511 413.323465 
L 142.068839 414.304511 
L 149.873058 414.566463 
L 157.677277 415.098672 
L 165.481496 415.871728 
L 169.383605 416.262571 
L 183.31971 417.283181 
L 184.806228 417.627519 
L 191.309743 419.279719 
L 197.813259 420.711073 
L 208.218884 422.406242 
L 216.023103 423.431696 
L 223.827321 424.182234 
L 230.330837 424.531884 
L 237.205982 424.661635 
L 245.75346 424.575313 
L 252.256975 424.269831 
L 256.159085 423.965503 
L 263.963304 423.117912 
L 271.767522 422.012745 
L 279.571741 420.711073 
L 286.075257 419.279719 
L 295.551808 417.062861 
L 298.896473 416.843787 
L 309.302098 416.175893 
L 317.106317 415.331452 
L 324.910536 414.714995 
L 332.714754 414.360586 
L 336.616864 414.199152 
L 350.181339 413.201159 
L 351.667857 413.41495 
L 365.046518 416.394671 
L 378.053549 418.525685 
L 392.361283 420.903916 
L 401.466205 422.005404 
L 407.969721 422.623954 
L 414.473237 422.996955 
L 423.578158 423.234559 
L 445.504297 423.51047 
L 446.805 423.511804 
L 446.805 423.511804 
" style="fill:none;stroke:#dc143c;stroke-linecap:square;stroke-width:1.3;"/>
   </g>
   <g id="text_79">
    <!-- q1 -->
    <g transform="translate(42.528642 366.811873)scale(0.08 -0.08)">
     <use xlink:href="#DejaVuSans-113"/>
     <use x="63.476562" xlink:href="#DejaVuSans-49"/>
    </g>
   </g>
   <g id="text_80">
    <!-- q2 -->
    <g transform="translate(66.065175 366.811873)scale(0.08 -0.08)">
     <use xlink:href="#DejaVuSans-113"/>
     <use x="63.476562" xlink:href="#DejaVuSans-50"/>
    </g>
   </g>
   <g id="text_81">
    <!-- b1 -->
    <g transform="translate(103.042307 377.1908)scale(0.08 -0.08)">
     <use xlink:href="#DejaVuSans-98"/>
     <use x="63.476562" xlink:href="#DejaVuSans-49"/>
    </g>
   </g>
   <g id="text_82">
    <!-- q3 -->
    <g transform="translate(135.683761 366.811873)scale(0.08 -0.08)">
     <use xlink:href="#DejaVuSans-113"/>
     <use x="63.476562" xlink:href="#DejaVuSans-51"/>
    </g>
   </g>
   <g id="text_83">
    <!-- b1 -->
    <g transform="translate(168.325216 377.1908)scale(0.08 -0.08)">
     <use xlink:href="#DejaVuSans-98"/>
     <use x="63.476562" xlink:href="#DejaVuSans-49"/>
    </g>
   </g>
   <g id="text_84">
    <!-- q3 -->
    <g transform="translate(200.96667 366.811873)scale(0.08 -0.08)">
     <use xlink:href="#DejaVuSans-113"/>
     <use x="63.476562" xlink:href="#DejaVuSans-51"/>
    </g>
   </g>
   <g id="text_85">
    <!-- b1 -->
    <g transform="translate(233.608125 377.1908)scale(0.08 -0.08)">
     <use xlink:href="#DejaVuSans-98"/>
     <use x="63.476562" xlink:href="#DejaVuSans-49"/>
    </g>
   </g>
   <g id="text_86">
    <!-- q3 -->
    <g transform="translate(266.24958 366.811873)scale(0.08 -0.08)">
     <use xlink:href="#DejaVuSans-113"/>
     <use x="63.476562" xlink:href="#DejaVuSans-51"/>
    </g>
   </g>
   <g id="text_87">
    <!-- b1 -->
    <g transform="translate(298.891034 377.1908)scale(0.08 -0.08)">
     <use xlink:href="#DejaVuSans-98"/>
     <use x="63.476562" xlink:href="#DejaVuSans-49"/>
    </g>
   </g>
   <g id="text_88">
    <!-- q3 -->
    <g transform="translate(331.532489 366.811873)scale(0.08 -0.08)">
     <use xlink:href="#DejaVuSans-113"/>
     <use x="63.476562" xlink:href="#DejaVuSans-51"/>
    </g>
   </g>
   <g id="text_89">
    <!-- b1 -->
    <g transform="translate(364.173943 377.1908)scale(0.08 -0.08)">
     <use xlink:href="#DejaVuSans-98"/>
     <use x="63.476562" xlink:href="#DejaVuSans-49"/>
    </g>
   </g>
   <g id="text_90">
    <!-- q2 -->
    <g transform="translate(401.151075 366.811873)scale(0.08 -0.08)">
     <use xlink:href="#DejaVuSans-113"/>
     <use x="63.476562" xlink:href="#DejaVuSans-50"/>
    </g>
   </g>
   <g id="text_91">
    <!-- q1 -->
    <g transform="translate(424.687608 366.811873)scale(0.08 -0.08)">
     <use xlink:href="#DejaVuSans-113"/>
     <use x="63.476562" xlink:href="#DejaVuSans-49"/>
    </g>
   </g>
  </g>
  <g id="axes_5">
   <g id="patch_62">
    <path d="M 30.58 532.6 
L 446.805 532.6 
L 446.805 476.356221 
L 30.58 476.356221 
z
" style="fill:#ffffff;"/>
   </g>
   <g id="matplotlib.axis_9">
    <g id="xtick_37">
     <g id="line2d_63">
      <g>
       <use style="stroke:#000000;stroke-width:0.8;" x="30.58" xlink:href="#m0a9c5dc63b" y="532.6"/>
      </g>
     </g>
     <g id="text_92">
      <!-- 0 -->
      <g transform="translate(27.39875 547.198437)scale(0.1 -0.1)">
       <use xlink:href="#DejaVuSans-48"/>
      </g>
     </g>
    </g>
    <g id="xtick_38">
     <g id="line2d_64">
      <g>
       <use style="stroke:#000000;stroke-width:0.8;" x="82.608125" xlink:href="#m0a9c5dc63b" y="532.6"/>
      </g>
     </g>
     <g id="text_93">
      <!-- 1 -->
      <g transform="translate(79.426875 547.198437)scale(0.1 -0.1)">
       <use xlink:href="#DejaVuSans-49"/>
      </g>
     </g>
    </g>
    <g id="xtick_39">
     <g id="line2d_65">
      <g>
       <use style="stroke:#000000;stroke-width:0.8;" x="134.63625" xlink:href="#m0a9c5dc63b" y="532.6"/>
      </g>
     </g>
     <g id="text_94">
      <!-- 2 -->
      <g transform="translate(131.455 547.198437)scale(0.1 -0.1)">
       <use xlink:href="#DejaVuSans-50"/>
      </g>
     </g>
    </g>
    <g id="xtick_40">
     <g id="line2d_66">
      <g>
       <use style="stroke:#000000;stroke-width:0.8;" x="186.664375" xlink:href="#m0a9c5dc63b" y="532.6"/>
      </g>
     </g>
     <g id="text_95">
      <!-- 3 -->
      <g transform="translate(183.483125 547.198437)scale(0.1 -0.1)">
       <use xlink:href="#DejaVuSans-51"/>
      </g>
     </g>
    </g>
    <g id="xtick_41">
     <g id="line2d_67">
      <g>
       <use style="stroke:#000000;stroke-width:0.8;" x="238.6925" xlink:href="#m0a9c5dc63b" y="532.6"/>
      </g>
     </g>
     <g id="text_96">
      <!-- 4 -->
      <g transform="translate(235.51125 547.198437)scale(0.1 -0.1)">
       <use xlink:href="#DejaVuSans-52"/>
      </g>
     </g>
    </g>
    <g id="xtick_42">
     <g id="line2d_68">
      <g>
       <use style="stroke:#000000;stroke-width:0.8;" x="290.720625" xlink:href="#m0a9c5dc63b" y="532.6"/>
      </g>
     </g>
     <g id="text_97">
      <!-- 5 -->
      <g transform="translate(287.539375 547.198437)scale(0.1 -0.1)">
       <use xlink:href="#DejaVuSans-53"/>
      </g>
     </g>
    </g>
    <g id="xtick_43">
     <g id="line2d_69">
      <g>
       <use style="stroke:#000000;stroke-width:0.8;" x="342.74875" xlink:href="#m0a9c5dc63b" y="532.6"/>
      </g>
     </g>
     <g id="text_98">
      <!-- 6 -->
      <g transform="translate(339.5675 547.198437)scale(0.1 -0.1)">
       <use xlink:href="#DejaVuSans-54"/>
      </g>
     </g>
    </g>
    <g id="xtick_44">
     <g id="line2d_70">
      <g>
       <use style="stroke:#000000;stroke-width:0.8;" x="394.776875" xlink:href="#m0a9c5dc63b" y="532.6"/>
      </g>
     </g>
     <g id="text_99">
      <!-- 7 -->
      <g transform="translate(391.595625 547.198437)scale(0.1 -0.1)">
       <use xlink:href="#DejaVuSans-55"/>
      </g>
     </g>
    </g>
    <g id="xtick_45">
     <g id="line2d_71">
      <g>
       <use style="stroke:#000000;stroke-width:0.8;" x="446.805" xlink:href="#m0a9c5dc63b" y="532.6"/>
      </g>
     </g>
     <g id="text_100">
      <!-- 8 -->
      <g transform="translate(443.62375 547.198437)scale(0.1 -0.1)">
       <use xlink:href="#DejaVuSans-56"/>
      </g>
     </g>
    </g>
    <g id="text_101">
     <!-- Orbit Position $s$ / m -->
     <g transform="translate(190.9925 560.876562)scale(0.1 -0.1)">
      <use transform="translate(0 0.015625)" xlink:href="#DejaVuSans-79"/>
      <use transform="translate(78.710938 0.015625)" xlink:href="#DejaVuSans-114"/>
      <use transform="translate(119.824219 0.015625)" xlink:href="#DejaVuSans-98"/>
      <use transform="translate(183.300781 0.015625)" xlink:href="#DejaVuSans-105"/>
      <use transform="translate(211.083984 0.015625)" xlink:href="#DejaVuSans-116"/>
      <use transform="translate(250.292969 0.015625)" xlink:href="#DejaVuSans-32"/>
      <use transform="translate(282.080078 0.015625)" xlink:href="#DejaVuSans-80"/>
      <use transform="translate(342.382812 0.015625)" xlink:href="#DejaVuSans-111"/>
      <use transform="translate(403.564453 0.015625)" xlink:href="#DejaVuSans-115"/>
      <use transform="translate(455.664062 0.015625)" xlink:href="#DejaVuSans-105"/>
      <use transform="translate(483.447266 0.015625)" xlink:href="#DejaVuSans-116"/>
      <use transform="translate(522.65625 0.015625)" xlink:href="#DejaVuSans-105"/>
      <use transform="translate(550.439453 0.015625)" xlink:href="#DejaVuSans-111"/>
      <use transform="translate(611.621094 0.015625)" xlink:href="#DejaVuSans-110"/>
      <use transform="translate(675 0.015625)" xlink:href="#DejaVuSans-32"/>
      <use transform="translate(706.787109 0.015625)" xlink:href="#DejaVuSans-Oblique-115"/>
      <use transform="translate(758.886719 0.015625)" xlink:href="#DejaVuSans-32"/>
      <use transform="translate(790.673828 0.015625)" xlink:href="#DejaVuSans-47"/>
      <use transform="translate(824.365234 0.015625)" xlink:href="#DejaVuSans-32"/>
      <use transform="translate(856.152344 0.015625)" xlink:href="#DejaVuSans-109"/>
     </g>
    </g>
   </g>
   <g id="matplotlib.axis_10">
    <g id="ytick_9">
     <g id="line2d_72">
      <g>
       <use style="stroke:#000000;stroke-width:0.8;" x="30.58" xlink:href="#m939f42e368" y="532.6"/>
      </g>
     </g>
     <g id="text_102">
      <!-- 0 -->
      <g transform="translate(17.2175 536.399219)scale(0.1 -0.1)">
       <use xlink:href="#DejaVuSans-48"/>
      </g>
     </g>
    </g>
    <g id="ytick_10">
     <g id="line2d_73">
      <g>
       <use style="stroke:#000000;stroke-width:0.8;" x="30.58" xlink:href="#m939f42e368" y="495.104147"/>
      </g>
     </g>
     <g id="text_103">
      <!-- 20 -->
      <g transform="translate(10.855 498.903366)scale(0.1 -0.1)">
       <use xlink:href="#DejaVuSans-50"/>
       <use x="63.623047" xlink:href="#DejaVuSans-48"/>
      </g>
     </g>
    </g>
   </g>
   <g id="patch_63">
    <path d="M 30.58 532.6 
L 30.58 476.356221 
" style="fill:none;stroke:#000000;stroke-linecap:square;stroke-linejoin:miter;stroke-width:0.8;"/>
   </g>
   <g id="patch_64">
    <path d="M 446.805 532.6 
L 446.805 476.356221 
" style="fill:none;stroke:#000000;stroke-linecap:square;stroke-linejoin:miter;stroke-width:0.8;"/>
   </g>
   <g id="patch_65">
    <path d="M 30.58 532.6 
L 446.805 532.6 
" style="fill:none;stroke:#000000;stroke-linecap:square;stroke-linejoin:miter;stroke-width:0.8;"/>
   </g>
   <g id="patch_66">
    <path d="M 30.58 476.356221 
L 446.805 476.356221 
" style="fill:none;stroke:#000000;stroke-linecap:square;stroke-linejoin:miter;stroke-width:0.8;"/>
   </g>
   <g id="line2d_74">
    <path clip-path="url(#p3aebb9223a)" d="M 30.58 517.232167 
L 59.195469 517.308827 
L 62.66401 517.647997 
L 65.265417 518.076803 
L 95.181589 523.770264 
L 100.384401 524.429501 
L 104.28651 524.756936 
L 138.104792 526.897963 
L 153.713229 527.429341 
L 169.321667 527.551087 
L 184.930104 527.262451 
L 200.538542 526.565212 
L 216.146979 525.462649 
L 237.825365 523.897048 
L 241.293906 523.950833 
L 245.629583 524.258724 
L 276.846458 526.565212 
L 292.454896 527.262451 
L 308.063333 527.551087 
L 323.671771 527.429341 
L 339.280208 526.897963 
L 354.888646 525.962792 
L 377.000599 524.429501 
L 382.203411 523.770264 
L 386.105521 523.097682 
L 414.72099 517.647997 
L 418.189531 517.308827 
L 420.790937 517.232167 
L 446.805 517.232167 
L 446.805 517.232167 
" style="fill:none;stroke:#3cb371;stroke-linecap:square;stroke-width:1.3;"/>
   </g>
   <g id="line2d_75">
    <path clip-path="url(#p3aebb9223a)" d="M 30.58 523.336677 
L 57.461198 523.224998 
L 60.062604 523.047422 
L 62.66401 522.672646 
L 65.265417 522.085653 
L 73.069635 519.872636 
L 80.873854 517.434746 
L 88.678073 514.771984 
L 92.580182 513.393121 
L 95.181589 512.722274 
L 97.782995 512.350094 
L 100.384401 512.288055 
L 102.985807 512.53807 
L 106.887917 513.328806 
L 119.894948 515.952659 
L 153.713229 522.343895 
L 169.321667 524.800844 
L 184.930104 526.85108 
L 200.538542 528.494604 
L 218.748385 529.960624 
L 229.15401 530.558718 
L 237.825365 530.862169 
L 243.028177 530.78326 
L 253.433802 530.284507 
L 263.839427 529.587072 
L 276.846458 528.494604 
L 292.454896 526.85108 
L 308.063333 524.800844 
L 323.671771 522.343895 
L 339.280208 519.480235 
L 352.28724 516.94159 
L 365.294271 514.404323 
L 375.699896 512.374313 
L 378.301302 512.279961 
L 380.902708 512.497912 
L 383.504115 513.021448 
L 386.105521 513.834425 
L 393.90974 516.572144 
L 401.713958 519.084991 
L 409.518177 521.372966 
L 413.853854 522.50154 
L 416.45526 522.944982 
L 419.056667 523.187119 
L 420.790937 523.241818 
L 446.805 523.336677 
L 446.805 523.336677 
" style="fill:none;stroke:#1e90ff;stroke-linecap:square;stroke-width:1.3;"/>
   </g>
   <g id="patch_67">
    <path d="M 43.587031 477.23503 
L 47.303326 477.23503 
L 47.303326 475.477412 
L 43.587031 475.477412 
z
" style="fill:#dc143c;"/>
   </g>
   <g id="patch_68">
    <path d="M 60.310357 477.23503 
L 73.317388 477.23503 
L 73.317388 475.477412 
L 60.310357 475.477412 
z
" style="fill:#dc143c;"/>
   </g>
   <g id="patch_69">
    <path d="M 86.32442 477.23503 
L 112.338482 477.23503 
L 112.338482 475.477412 
L 86.32442 475.477412 
z
" style="fill:#ffd700;"/>
   </g>
   <g id="patch_70">
    <path d="M 125.345513 477.23503 
L 129.061808 477.23503 
L 129.061808 475.477412 
L 125.345513 475.477412 
z
" style="fill:#dc143c;"/>
   </g>
   <g id="patch_71">
    <path d="M 142.068839 477.23503 
L 168.082902 477.23503 
L 168.082902 475.477412 
L 142.068839 475.477412 
z
" style="fill:#ffd700;"/>
   </g>
   <g id="patch_72">
    <path d="M 181.089933 477.23503 
L 184.806228 477.23503 
L 184.806228 475.477412 
L 181.089933 475.477412 
z
" style="fill:#dc143c;"/>
   </g>
   <g id="patch_73">
    <path d="M 197.813259 477.23503 
L 223.827321 477.23503 
L 223.827321 475.477412 
L 197.813259 475.477412 
z
" style="fill:#ffd700;"/>
   </g>
   <g id="patch_74">
    <path d="M 236.834353 477.23503 
L 240.550647 477.23503 
L 240.550647 475.477412 
L 236.834353 475.477412 
z
" style="fill:#dc143c;"/>
   </g>
   <g id="patch_75">
    <path d="M 253.557679 477.23503 
L 279.571741 477.23503 
L 279.571741 475.477412 
L 253.557679 475.477412 
z
" style="fill:#ffd700;"/>
   </g>
   <g id="patch_76">
    <path d="M 292.578772 477.23503 
L 296.295067 477.23503 
L 296.295067 475.477412 
L 292.578772 475.477412 
z
" style="fill:#dc143c;"/>
   </g>
   <g id="patch_77">
    <path d="M 309.302098 477.23503 
L 335.316161 477.23503 
L 335.316161 475.477412 
L 309.302098 475.477412 
z
" style="fill:#ffd700;"/>
   </g>
   <g id="patch_78">
    <path d="M 348.323192 477.23503 
L 352.039487 477.23503 
L 352.039487 475.477412 
L 348.323192 475.477412 
z
" style="fill:#dc143c;"/>
   </g>
   <g id="patch_79">
    <path d="M 365.046518 477.23503 
L 391.06058 477.23503 
L 391.06058 475.477412 
L 365.046518 475.477412 
z
" style="fill:#ffd700;"/>
   </g>
   <g id="patch_80">
    <path d="M 404.067612 477.23503 
L 417.074643 477.23503 
L 417.074643 475.477412 
L 404.067612 475.477412 
z
" style="fill:#dc143c;"/>
   </g>
   <g id="patch_81">
    <path d="M 430.081674 477.23503 
L 433.797969 477.23503 
L 433.797969 475.477412 
L 430.081674 475.477412 
z
" style="fill:#dc143c;"/>
   </g>
   <g id="line2d_76">
    <path clip-path="url(#p3aebb9223a)" d="M 30.58 499.683789 
L 57.461198 499.69182 
L 59.195469 499.979365 
L 60.92974 500.552917 
L 62.66401 501.402307 
L 64.398281 502.512482 
L 73.069635 508.927513 
L 78.272448 512.420557 
L 83.47526 515.631703 
L 88.678073 518.560949 
L 92.580182 520.54922 
L 95.181589 521.626957 
L 97.782995 522.490452 
L 100.384401 523.166466 
L 102.985807 523.675952 
L 109.489323 524.571199 
L 122.496354 526.151824 
L 130.300573 526.987773 
L 145.90901 528.283837 
L 161.517448 529.327268 
L 177.125885 530.092372 
L 192.734323 530.56031 
L 208.34276 530.719561 
L 221.349792 530.555954 
L 243.028177 530.158127 
L 256.035208 530.555954 
L 269.04224 530.719561 
L 284.650677 530.56031 
L 300.259115 530.092372 
L 315.867552 529.327268 
L 331.47599 528.283837 
L 347.084427 526.987773 
L 360.091458 525.54768 
L 373.09849 523.873367 
L 375.699896 523.440924 
L 378.301302 522.850457 
L 380.902708 522.083667 
L 383.504115 521.11679 
L 386.105521 519.91986 
L 391.308333 517.131563 
L 396.511146 514.061367 
L 401.713958 510.709273 
L 406.916771 507.075278 
L 414.72099 501.402307 
L 416.45526 500.552917 
L 418.189531 499.979365 
L 419.923802 499.69182 
L 423.392344 499.662165 
L 446.805 499.683789 
L 446.805 499.683789 
" style="fill:none;stroke:#dc143c;stroke-linecap:square;stroke-width:1.3;"/>
   </g>
   <g id="text_104">
    <!-- q1 -->
    <g transform="translate(40.360804 474.253066)scale(0.08 -0.08)">
     <use xlink:href="#DejaVuSans-113"/>
     <use x="63.476562" xlink:href="#DejaVuSans-49"/>
    </g>
   </g>
   <g id="text_105">
    <!-- q2 -->
    <g transform="translate(61.729498 474.253066)scale(0.08 -0.08)">
     <use xlink:href="#DejaVuSans-113"/>
     <use x="63.476562" xlink:href="#DejaVuSans-50"/>
    </g>
   </g>
   <g id="text_106">
    <!-- b1 -->
    <g transform="translate(94.247076 484.631993)scale(0.08 -0.08)">
     <use xlink:href="#DejaVuSans-98"/>
     <use x="63.476562" xlink:href="#DejaVuSans-49"/>
    </g>
   </g>
   <g id="text_107">
    <!-- q3 -->
    <g transform="translate(122.119286 474.253066)scale(0.08 -0.08)">
     <use xlink:href="#DejaVuSans-113"/>
     <use x="63.476562" xlink:href="#DejaVuSans-51"/>
    </g>
   </g>
   <g id="text_108">
    <!-- b1 -->
    <g transform="translate(149.991496 484.631993)scale(0.08 -0.08)">
     <use xlink:href="#DejaVuSans-98"/>
     <use x="63.476562" xlink:href="#DejaVuSans-49"/>
    </g>
   </g>
   <g id="text_109">
    <!-- q3 -->
    <g transform="translate(177.863705 474.253066)scale(0.08 -0.08)">
     <use xlink:href="#DejaVuSans-113"/>
     <use x="63.476562" xlink:href="#DejaVuSans-51"/>
    </g>
   </g>
   <g id="text_110">
    <!-- b1 -->
    <g transform="translate(205.735915 484.631993)scale(0.08 -0.08)">
     <use xlink:href="#DejaVuSans-98"/>
     <use x="63.476562" xlink:href="#DejaVuSans-49"/>
    </g>
   </g>
   <g id="text_111">
    <!-- q3 -->
    <g transform="translate(233.608125 474.253066)scale(0.08 -0.08)">
     <use xlink:href="#DejaVuSans-113"/>
     <use x="63.476562" xlink:href="#DejaVuSans-51"/>
    </g>
   </g>
   <g id="text_112">
    <!-- b1 -->
    <g transform="translate(261.480335 484.631993)scale(0.08 -0.08)">
     <use xlink:href="#DejaVuSans-98"/>
     <use x="63.476562" xlink:href="#DejaVuSans-49"/>
    </g>
   </g>
   <g id="text_113">
    <!-- q3 -->
    <g transform="translate(289.352545 474.253066)scale(0.08 -0.08)">
     <use xlink:href="#DejaVuSans-113"/>
     <use x="63.476562" xlink:href="#DejaVuSans-51"/>
    </g>
   </g>
   <g id="text_114">
    <!-- b1 -->
    <g transform="translate(317.224754 484.631993)scale(0.08 -0.08)">
     <use xlink:href="#DejaVuSans-98"/>
     <use x="63.476562" xlink:href="#DejaVuSans-49"/>
    </g>
   </g>
   <g id="text_115">
    <!-- q3 -->
    <g transform="translate(345.096964 474.253066)scale(0.08 -0.08)">
     <use xlink:href="#DejaVuSans-113"/>
     <use x="63.476562" xlink:href="#DejaVuSans-51"/>
    </g>
   </g>
   <g id="text_116">
    <!-- b1 -->
    <g transform="translate(372.969174 484.631993)scale(0.08 -0.08)">
     <use xlink:href="#DejaVuSans-98"/>
     <use x="63.476562" xlink:href="#DejaVuSans-49"/>
    </g>
   </g>
   <g id="text_117">
    <!-- q2 -->
    <g transform="translate(405.486752 474.253066)scale(0.08 -0.08)">
     <use xlink:href="#DejaVuSans-113"/>
     <use x="63.476562" xlink:href="#DejaVuSans-50"/>
    </g>
   </g>
   <g id="text_118">
    <!-- q1 -->
    <g transform="translate(426.855446 474.253066)scale(0.08 -0.08)">
     <use xlink:href="#DejaVuSans-113"/>
     <use x="63.476562" xlink:href="#DejaVuSans-49"/>
    </g>
   </g>
  </g>
 </g>
 <defs>
  <clipPath id="p49599d07c2">
   <rect height="56.243779" width="416.225" x="30.58" y="46.591448"/>
  </clipPath>
  <clipPath id="p8ac7ae8756">
   <rect height="56.243779" width="416.225" x="30.58" y="154.032641"/>
  </clipPath>
  <clipPath id="p801c545f71">
   <rect height="56.243779" width="416.225" x="30.58" y="261.473834"/>
  </clipPath>
  <clipPath id="p0ecf397a5a">
   <rect height="56.243779" width="416.225" x="30.58" y="368.915028"/>
  </clipPath>
  <clipPath id="p3aebb9223a">
   <rect height="56.243779" width="416.225" x="30.58" y="476.356221"/>
  </clipPath>
 </defs>
</svg>
