<?xml version="1.0" encoding="utf-8" standalone="no"?>
<!DOCTYPE svg PUBLIC "-//W3C//DTD SVG 1.1//EN"
  "http://www.w3.org/Graphics/SVG/1.1/DTD/svg11.dtd">
<!-- Created with matplotlib (https://matplotlib.org/) -->
<svg height="576pt" version="1.1" viewBox="0 0 460.8 576" width="460.8pt" xmlns="http://www.w3.org/2000/svg" xmlns:xlink="http://www.w3.org/1999/xlink">
 <metadata>
  <rdf:RDF xmlns:cc="http://creativecommons.org/ns#" xmlns:dc="http://purl.org/dc/elements/1.1/" xmlns:rdf="http://www.w3.org/1999/02/22-rdf-syntax-ns#">
   <cc:Work>
    <dc:type rdf:resource="http://purl.org/dc/dcmitype/StillImage"/>
    <dc:date>1980-01-01T00:00:00+00:00</dc:date>
    <dc:format>image/svg+xml</dc:format>
    <dc:creator>
     <cc:Agent>
      <dc:title>Matplotlib v3.3.2, https://matplotlib.org/</dc:title>
     </cc:Agent>
    </dc:creator>
   </cc:Work>
  </rdf:RDF>
 </metadata>
 <defs>
  <style type="text/css">*{stroke-linecap:butt;stroke-linejoin:round;}</style>
 </defs>
 <g id="figure_1">
  <g id="patch_1">
   <path d="M 0 576 
L 460.8 576 
L 460.8 0 
L 0 0 
z
" style="fill:#ffffff;"/>
  </g>
  <g id="axes_1">
   <g id="patch_2">
    <path d="M 30.58 172.519059 
L 450 172.519059 
L 450 49.290353 
L 30.58 49.290353 
z
" style="fill:#ffffff;"/>
   </g>
   <g id="matplotlib.axis_1">
    <g id="xtick_1">
     <g id="line2d_1">
      <defs>
       <path d="M 0 0 
L 0 3.5 
" id="m1a34f31308" style="stroke:#000000;stroke-width:0.8;"/>
      </defs>
      <g>
       <use style="stroke:#000000;stroke-width:0.8;" x="30.58" xlink:href="#m1a34f31308" y="172.519059"/>
      </g>
     </g>
     <g id="text_1">
      <!-- 0 -->
      <g transform="translate(27.39875 187.117496)scale(0.1 -0.1)">
       <defs>
        <path d="M 31.78125 66.40625 
Q 24.171875 66.40625 20.328125 58.90625 
Q 16.5 51.421875 16.5 36.375 
Q 16.5 21.390625 20.328125 13.890625 
Q 24.171875 6.390625 31.78125 6.390625 
Q 39.453125 6.390625 43.28125 13.890625 
Q 47.125 21.390625 47.125 36.375 
Q 47.125 51.421875 43.28125 58.90625 
Q 39.453125 66.40625 31.78125 66.40625 
z
M 31.78125 74.21875 
Q 44.046875 74.21875 50.515625 64.515625 
Q 56.984375 54.828125 56.984375 36.375 
Q 56.984375 17.96875 50.515625 8.265625 
Q 44.046875 -1.421875 31.78125 -1.421875 
Q 19.53125 -1.421875 13.0625 8.265625 
Q 6.59375 17.96875 6.59375 36.375 
Q 6.59375 54.828125 13.0625 64.515625 
Q 19.53125 74.21875 31.78125 74.21875 
z
" id="DejaVuSans-48"/>
       </defs>
       <use xlink:href="#DejaVuSans-48"/>
      </g>
     </g>
    </g>
    <g id="xtick_2">
     <g id="line2d_2">
      <g>
       <use style="stroke:#000000;stroke-width:0.8;" x="83.799456" xlink:href="#m1a34f31308" y="172.519059"/>
      </g>
     </g>
     <g id="text_2">
      <!-- 2 -->
      <g transform="translate(80.618206 187.117496)scale(0.1 -0.1)">
       <defs>
        <path d="M 19.1875 8.296875 
L 53.609375 8.296875 
L 53.609375 0 
L 7.328125 0 
L 7.328125 8.296875 
Q 12.9375 14.109375 22.625 23.890625 
Q 32.328125 33.6875 34.8125 36.53125 
Q 39.546875 41.84375 41.421875 45.53125 
Q 43.3125 49.21875 43.3125 52.78125 
Q 43.3125 58.59375 39.234375 62.25 
Q 35.15625 65.921875 28.609375 65.921875 
Q 23.96875 65.921875 18.8125 64.3125 
Q 13.671875 62.703125 7.8125 59.421875 
L 7.8125 69.390625 
Q 13.765625 71.78125 18.9375 73 
Q 24.125 74.21875 28.421875 74.21875 
Q 39.75 74.21875 46.484375 68.546875 
Q 53.21875 62.890625 53.21875 53.421875 
Q 53.21875 48.921875 51.53125 44.890625 
Q 49.859375 40.875 45.40625 35.40625 
Q 44.1875 33.984375 37.640625 27.21875 
Q 31.109375 20.453125 19.1875 8.296875 
z
" id="DejaVuSans-50"/>
       </defs>
       <use xlink:href="#DejaVuSans-50"/>
      </g>
     </g>
    </g>
    <g id="xtick_3">
     <g id="line2d_3">
      <g>
       <use style="stroke:#000000;stroke-width:0.8;" x="137.018912" xlink:href="#m1a34f31308" y="172.519059"/>
      </g>
     </g>
     <g id="text_3">
      <!-- 4 -->
      <g transform="translate(133.837662 187.117496)scale(0.1 -0.1)">
       <defs>
        <path d="M 37.796875 64.3125 
L 12.890625 25.390625 
L 37.796875 25.390625 
z
M 35.203125 72.90625 
L 47.609375 72.90625 
L 47.609375 25.390625 
L 58.015625 25.390625 
L 58.015625 17.1875 
L 47.609375 17.1875 
L 47.609375 0 
L 37.796875 0 
L 37.796875 17.1875 
L 4.890625 17.1875 
L 4.890625 26.703125 
z
" id="DejaVuSans-52"/>
       </defs>
       <use xlink:href="#DejaVuSans-52"/>
      </g>
     </g>
    </g>
    <g id="xtick_4">
     <g id="line2d_4">
      <g>
       <use style="stroke:#000000;stroke-width:0.8;" x="190.238369" xlink:href="#m1a34f31308" y="172.519059"/>
      </g>
     </g>
     <g id="text_4">
      <!-- 6 -->
      <g transform="translate(187.057119 187.117496)scale(0.1 -0.1)">
       <defs>
        <path d="M 33.015625 40.375 
Q 26.375 40.375 22.484375 35.828125 
Q 18.609375 31.296875 18.609375 23.390625 
Q 18.609375 15.53125 22.484375 10.953125 
Q 26.375 6.390625 33.015625 6.390625 
Q 39.65625 6.390625 43.53125 10.953125 
Q 47.40625 15.53125 47.40625 23.390625 
Q 47.40625 31.296875 43.53125 35.828125 
Q 39.65625 40.375 33.015625 40.375 
z
M 52.59375 71.296875 
L 52.59375 62.3125 
Q 48.875 64.0625 45.09375 64.984375 
Q 41.3125 65.921875 37.59375 65.921875 
Q 27.828125 65.921875 22.671875 59.328125 
Q 17.53125 52.734375 16.796875 39.40625 
Q 19.671875 43.65625 24.015625 45.921875 
Q 28.375 48.1875 33.59375 48.1875 
Q 44.578125 48.1875 50.953125 41.515625 
Q 57.328125 34.859375 57.328125 23.390625 
Q 57.328125 12.15625 50.6875 5.359375 
Q 44.046875 -1.421875 33.015625 -1.421875 
Q 20.359375 -1.421875 13.671875 8.265625 
Q 6.984375 17.96875 6.984375 36.375 
Q 6.984375 53.65625 15.1875 63.9375 
Q 23.390625 74.21875 37.203125 74.21875 
Q 40.921875 74.21875 44.703125 73.484375 
Q 48.484375 72.75 52.59375 71.296875 
z
" id="DejaVuSans-54"/>
       </defs>
       <use xlink:href="#DejaVuSans-54"/>
      </g>
     </g>
    </g>
    <g id="xtick_5">
     <g id="line2d_5">
      <g>
       <use style="stroke:#000000;stroke-width:0.8;" x="243.457825" xlink:href="#m1a34f31308" y="172.519059"/>
      </g>
     </g>
     <g id="text_5">
      <!-- 8 -->
      <g transform="translate(240.276575 187.117496)scale(0.1 -0.1)">
       <defs>
        <path d="M 31.78125 34.625 
Q 24.75 34.625 20.71875 30.859375 
Q 16.703125 27.09375 16.703125 20.515625 
Q 16.703125 13.921875 20.71875 10.15625 
Q 24.75 6.390625 31.78125 6.390625 
Q 38.8125 6.390625 42.859375 10.171875 
Q 46.921875 13.96875 46.921875 20.515625 
Q 46.921875 27.09375 42.890625 30.859375 
Q 38.875 34.625 31.78125 34.625 
z
M 21.921875 38.8125 
Q 15.578125 40.375 12.03125 44.71875 
Q 8.5 49.078125 8.5 55.328125 
Q 8.5 64.0625 14.71875 69.140625 
Q 20.953125 74.21875 31.78125 74.21875 
Q 42.671875 74.21875 48.875 69.140625 
Q 55.078125 64.0625 55.078125 55.328125 
Q 55.078125 49.078125 51.53125 44.71875 
Q 48 40.375 41.703125 38.8125 
Q 48.828125 37.15625 52.796875 32.3125 
Q 56.78125 27.484375 56.78125 20.515625 
Q 56.78125 9.90625 50.3125 4.234375 
Q 43.84375 -1.421875 31.78125 -1.421875 
Q 19.734375 -1.421875 13.25 4.234375 
Q 6.78125 9.90625 6.78125 20.515625 
Q 6.78125 27.484375 10.78125 32.3125 
Q 14.796875 37.15625 21.921875 38.8125 
z
M 18.3125 54.390625 
Q 18.3125 48.734375 21.84375 45.5625 
Q 25.390625 42.390625 31.78125 42.390625 
Q 38.140625 42.390625 41.71875 45.5625 
Q 45.3125 48.734375 45.3125 54.390625 
Q 45.3125 60.0625 41.71875 63.234375 
Q 38.140625 66.40625 31.78125 66.40625 
Q 25.390625 66.40625 21.84375 63.234375 
Q 18.3125 60.0625 18.3125 54.390625 
z
" id="DejaVuSans-56"/>
       </defs>
       <use xlink:href="#DejaVuSans-56"/>
      </g>
     </g>
    </g>
    <g id="xtick_6">
     <g id="line2d_6">
      <g>
       <use style="stroke:#000000;stroke-width:0.8;" x="296.677281" xlink:href="#m1a34f31308" y="172.519059"/>
      </g>
     </g>
     <g id="text_6">
      <!-- 10 -->
      <g transform="translate(290.314781 187.117496)scale(0.1 -0.1)">
       <defs>
        <path d="M 12.40625 8.296875 
L 28.515625 8.296875 
L 28.515625 63.921875 
L 10.984375 60.40625 
L 10.984375 69.390625 
L 28.421875 72.90625 
L 38.28125 72.90625 
L 38.28125 8.296875 
L 54.390625 8.296875 
L 54.390625 0 
L 12.40625 0 
z
" id="DejaVuSans-49"/>
       </defs>
       <use xlink:href="#DejaVuSans-49"/>
       <use x="63.623047" xlink:href="#DejaVuSans-48"/>
      </g>
     </g>
    </g>
    <g id="xtick_7">
     <g id="line2d_7">
      <g>
       <use style="stroke:#000000;stroke-width:0.8;" x="349.896737" xlink:href="#m1a34f31308" y="172.519059"/>
      </g>
     </g>
     <g id="text_7">
      <!-- 12 -->
      <g transform="translate(343.534237 187.117496)scale(0.1 -0.1)">
       <use xlink:href="#DejaVuSans-49"/>
       <use x="63.623047" xlink:href="#DejaVuSans-50"/>
      </g>
     </g>
    </g>
    <g id="xtick_8">
     <g id="line2d_8">
      <g>
       <use style="stroke:#000000;stroke-width:0.8;" x="403.116193" xlink:href="#m1a34f31308" y="172.519059"/>
      </g>
     </g>
     <g id="text_8">
      <!-- 14 -->
      <g transform="translate(396.753693 187.117496)scale(0.1 -0.1)">
       <use xlink:href="#DejaVuSans-49"/>
       <use x="63.623047" xlink:href="#DejaVuSans-52"/>
      </g>
     </g>
    </g>
    <g id="text_9">
     <!-- Orbit Position $s$ / m -->
     <g transform="translate(192.59 200.795621)scale(0.1 -0.1)">
      <defs>
       <path d="M 39.40625 66.21875 
Q 28.65625 66.21875 22.328125 58.203125 
Q 16.015625 50.203125 16.015625 36.375 
Q 16.015625 22.609375 22.328125 14.59375 
Q 28.65625 6.59375 39.40625 6.59375 
Q 50.140625 6.59375 56.421875 14.59375 
Q 62.703125 22.609375 62.703125 36.375 
Q 62.703125 50.203125 56.421875 58.203125 
Q 50.140625 66.21875 39.40625 66.21875 
z
M 39.40625 74.21875 
Q 54.734375 74.21875 63.90625 63.9375 
Q 73.09375 53.65625 73.09375 36.375 
Q 73.09375 19.140625 63.90625 8.859375 
Q 54.734375 -1.421875 39.40625 -1.421875 
Q 24.03125 -1.421875 14.8125 8.828125 
Q 5.609375 19.09375 5.609375 36.375 
Q 5.609375 53.65625 14.8125 63.9375 
Q 24.03125 74.21875 39.40625 74.21875 
z
" id="DejaVuSans-79"/>
       <path d="M 41.109375 46.296875 
Q 39.59375 47.171875 37.8125 47.578125 
Q 36.03125 48 33.890625 48 
Q 26.265625 48 22.1875 43.046875 
Q 18.109375 38.09375 18.109375 28.8125 
L 18.109375 0 
L 9.078125 0 
L 9.078125 54.6875 
L 18.109375 54.6875 
L 18.109375 46.1875 
Q 20.953125 51.171875 25.484375 53.578125 
Q 30.03125 56 36.53125 56 
Q 37.453125 56 38.578125 55.875 
Q 39.703125 55.765625 41.0625 55.515625 
z
" id="DejaVuSans-114"/>
       <path d="M 48.6875 27.296875 
Q 48.6875 37.203125 44.609375 42.84375 
Q 40.53125 48.484375 33.40625 48.484375 
Q 26.265625 48.484375 22.1875 42.84375 
Q 18.109375 37.203125 18.109375 27.296875 
Q 18.109375 17.390625 22.1875 11.75 
Q 26.265625 6.109375 33.40625 6.109375 
Q 40.53125 6.109375 44.609375 11.75 
Q 48.6875 17.390625 48.6875 27.296875 
z
M 18.109375 46.390625 
Q 20.953125 51.265625 25.265625 53.625 
Q 29.59375 56 35.59375 56 
Q 45.5625 56 51.78125 48.09375 
Q 58.015625 40.1875 58.015625 27.296875 
Q 58.015625 14.40625 51.78125 6.484375 
Q 45.5625 -1.421875 35.59375 -1.421875 
Q 29.59375 -1.421875 25.265625 0.953125 
Q 20.953125 3.328125 18.109375 8.203125 
L 18.109375 0 
L 9.078125 0 
L 9.078125 75.984375 
L 18.109375 75.984375 
z
" id="DejaVuSans-98"/>
       <path d="M 9.421875 54.6875 
L 18.40625 54.6875 
L 18.40625 0 
L 9.421875 0 
z
M 9.421875 75.984375 
L 18.40625 75.984375 
L 18.40625 64.59375 
L 9.421875 64.59375 
z
" id="DejaVuSans-105"/>
       <path d="M 18.3125 70.21875 
L 18.3125 54.6875 
L 36.8125 54.6875 
L 36.8125 47.703125 
L 18.3125 47.703125 
L 18.3125 18.015625 
Q 18.3125 11.328125 20.140625 9.421875 
Q 21.96875 7.515625 27.59375 7.515625 
L 36.8125 7.515625 
L 36.8125 0 
L 27.59375 0 
Q 17.1875 0 13.234375 3.875 
Q 9.28125 7.765625 9.28125 18.015625 
L 9.28125 47.703125 
L 2.6875 47.703125 
L 2.6875 54.6875 
L 9.28125 54.6875 
L 9.28125 70.21875 
z
" id="DejaVuSans-116"/>
       <path id="DejaVuSans-32"/>
       <path d="M 19.671875 64.796875 
L 19.671875 37.40625 
L 32.078125 37.40625 
Q 38.96875 37.40625 42.71875 40.96875 
Q 46.484375 44.53125 46.484375 51.125 
Q 46.484375 57.671875 42.71875 61.234375 
Q 38.96875 64.796875 32.078125 64.796875 
z
M 9.8125 72.90625 
L 32.078125 72.90625 
Q 44.34375 72.90625 50.609375 67.359375 
Q 56.890625 61.8125 56.890625 51.125 
Q 56.890625 40.328125 50.609375 34.8125 
Q 44.34375 29.296875 32.078125 29.296875 
L 19.671875 29.296875 
L 19.671875 0 
L 9.8125 0 
z
" id="DejaVuSans-80"/>
       <path d="M 30.609375 48.390625 
Q 23.390625 48.390625 19.1875 42.75 
Q 14.984375 37.109375 14.984375 27.296875 
Q 14.984375 17.484375 19.15625 11.84375 
Q 23.34375 6.203125 30.609375 6.203125 
Q 37.796875 6.203125 41.984375 11.859375 
Q 46.1875 17.53125 46.1875 27.296875 
Q 46.1875 37.015625 41.984375 42.703125 
Q 37.796875 48.390625 30.609375 48.390625 
z
M 30.609375 56 
Q 42.328125 56 49.015625 48.375 
Q 55.71875 40.765625 55.71875 27.296875 
Q 55.71875 13.875 49.015625 6.21875 
Q 42.328125 -1.421875 30.609375 -1.421875 
Q 18.84375 -1.421875 12.171875 6.21875 
Q 5.515625 13.875 5.515625 27.296875 
Q 5.515625 40.765625 12.171875 48.375 
Q 18.84375 56 30.609375 56 
z
" id="DejaVuSans-111"/>
       <path d="M 44.28125 53.078125 
L 44.28125 44.578125 
Q 40.484375 46.53125 36.375 47.5 
Q 32.28125 48.484375 27.875 48.484375 
Q 21.1875 48.484375 17.84375 46.4375 
Q 14.5 44.390625 14.5 40.28125 
Q 14.5 37.15625 16.890625 35.375 
Q 19.28125 33.59375 26.515625 31.984375 
L 29.59375 31.296875 
Q 39.15625 29.25 43.1875 25.515625 
Q 47.21875 21.78125 47.21875 15.09375 
Q 47.21875 7.46875 41.1875 3.015625 
Q 35.15625 -1.421875 24.609375 -1.421875 
Q 20.21875 -1.421875 15.453125 -0.5625 
Q 10.6875 0.296875 5.421875 2 
L 5.421875 11.28125 
Q 10.40625 8.6875 15.234375 7.390625 
Q 20.0625 6.109375 24.8125 6.109375 
Q 31.15625 6.109375 34.5625 8.28125 
Q 37.984375 10.453125 37.984375 14.40625 
Q 37.984375 18.0625 35.515625 20.015625 
Q 33.0625 21.96875 24.703125 23.78125 
L 21.578125 24.515625 
Q 13.234375 26.265625 9.515625 29.90625 
Q 5.8125 33.546875 5.8125 39.890625 
Q 5.8125 47.609375 11.28125 51.796875 
Q 16.75 56 26.8125 56 
Q 31.78125 56 36.171875 55.265625 
Q 40.578125 54.546875 44.28125 53.078125 
z
" id="DejaVuSans-115"/>
       <path d="M 54.890625 33.015625 
L 54.890625 0 
L 45.90625 0 
L 45.90625 32.71875 
Q 45.90625 40.484375 42.875 44.328125 
Q 39.84375 48.1875 33.796875 48.1875 
Q 26.515625 48.1875 22.3125 43.546875 
Q 18.109375 38.921875 18.109375 30.90625 
L 18.109375 0 
L 9.078125 0 
L 9.078125 54.6875 
L 18.109375 54.6875 
L 18.109375 46.1875 
Q 21.34375 51.125 25.703125 53.5625 
Q 30.078125 56 35.796875 56 
Q 45.21875 56 50.046875 50.171875 
Q 54.890625 44.34375 54.890625 33.015625 
z
" id="DejaVuSans-110"/>
       <path d="M 50 53.078125 
L 48.296875 44.578125 
Q 44.734375 46.53125 40.765625 47.5 
Q 36.8125 48.484375 32.625 48.484375 
Q 25.53125 48.484375 21.453125 46.0625 
Q 17.390625 43.65625 17.390625 39.5 
Q 17.390625 34.671875 26.859375 32.078125 
Q 27.59375 31.890625 27.9375 31.78125 
L 30.8125 30.90625 
Q 39.796875 28.421875 42.796875 25.6875 
Q 45.796875 22.953125 45.796875 18.21875 
Q 45.796875 9.515625 38.890625 4.046875 
Q 31.984375 -1.421875 20.796875 -1.421875 
Q 16.453125 -1.421875 11.671875 -0.578125 
Q 6.890625 0.25 1.125 2 
L 2.875 11.28125 
Q 7.8125 8.734375 12.59375 7.421875 
Q 17.390625 6.109375 21.78125 6.109375 
Q 28.375 6.109375 32.5 8.9375 
Q 36.625 11.765625 36.625 16.109375 
Q 36.625 20.796875 25.78125 23.6875 
L 24.859375 23.921875 
L 21.78125 24.703125 
Q 14.9375 26.515625 11.765625 29.46875 
Q 8.59375 32.421875 8.59375 37.015625 
Q 8.59375 45.75 15.15625 50.875 
Q 21.734375 56 33.015625 56 
Q 37.453125 56 41.671875 55.265625 
Q 45.90625 54.546875 50 53.078125 
z
" id="DejaVuSans-Oblique-115"/>
       <path d="M 25.390625 72.90625 
L 33.6875 72.90625 
L 8.296875 -9.28125 
L 0 -9.28125 
z
" id="DejaVuSans-47"/>
       <path d="M 52 44.1875 
Q 55.375 50.25 60.0625 53.125 
Q 64.75 56 71.09375 56 
Q 79.640625 56 84.28125 50.015625 
Q 88.921875 44.046875 88.921875 33.015625 
L 88.921875 0 
L 79.890625 0 
L 79.890625 32.71875 
Q 79.890625 40.578125 77.09375 44.375 
Q 74.3125 48.1875 68.609375 48.1875 
Q 61.625 48.1875 57.5625 43.546875 
Q 53.515625 38.921875 53.515625 30.90625 
L 53.515625 0 
L 44.484375 0 
L 44.484375 32.71875 
Q 44.484375 40.625 41.703125 44.40625 
Q 38.921875 48.1875 33.109375 48.1875 
Q 26.21875 48.1875 22.15625 43.53125 
Q 18.109375 38.875 18.109375 30.90625 
L 18.109375 0 
L 9.078125 0 
L 9.078125 54.6875 
L 18.109375 54.6875 
L 18.109375 46.1875 
Q 21.1875 51.21875 25.484375 53.609375 
Q 29.78125 56 35.6875 56 
Q 41.65625 56 45.828125 52.96875 
Q 50 49.953125 52 44.1875 
z
" id="DejaVuSans-109"/>
      </defs>
      <use transform="translate(0 0.015625)" xlink:href="#DejaVuSans-79"/>
      <use transform="translate(78.710938 0.015625)" xlink:href="#DejaVuSans-114"/>
      <use transform="translate(119.824219 0.015625)" xlink:href="#DejaVuSans-98"/>
      <use transform="translate(183.300781 0.015625)" xlink:href="#DejaVuSans-105"/>
      <use transform="translate(211.083984 0.015625)" xlink:href="#DejaVuSans-116"/>
      <use transform="translate(250.292969 0.015625)" xlink:href="#DejaVuSans-32"/>
      <use transform="translate(282.080078 0.015625)" xlink:href="#DejaVuSans-80"/>
      <use transform="translate(342.382812 0.015625)" xlink:href="#DejaVuSans-111"/>
      <use transform="translate(403.564453 0.015625)" xlink:href="#DejaVuSans-115"/>
      <use transform="translate(455.664062 0.015625)" xlink:href="#DejaVuSans-105"/>
      <use transform="translate(483.447266 0.015625)" xlink:href="#DejaVuSans-116"/>
      <use transform="translate(522.65625 0.015625)" xlink:href="#DejaVuSans-105"/>
      <use transform="translate(550.439453 0.015625)" xlink:href="#DejaVuSans-111"/>
      <use transform="translate(611.621094 0.015625)" xlink:href="#DejaVuSans-110"/>
      <use transform="translate(675 0.015625)" xlink:href="#DejaVuSans-32"/>
      <use transform="translate(706.787109 0.015625)" xlink:href="#DejaVuSans-Oblique-115"/>
      <use transform="translate(758.886719 0.015625)" xlink:href="#DejaVuSans-32"/>
      <use transform="translate(790.673828 0.015625)" xlink:href="#DejaVuSans-47"/>
      <use transform="translate(824.365234 0.015625)" xlink:href="#DejaVuSans-32"/>
      <use transform="translate(856.152344 0.015625)" xlink:href="#DejaVuSans-109"/>
     </g>
    </g>
   </g>
   <g id="matplotlib.axis_2">
    <g id="ytick_1">
     <g id="line2d_9">
      <defs>
       <path d="M 0 0 
L -3.5 0 
" id="m0c5ec9c7a9" style="stroke:#000000;stroke-width:0.8;"/>
      </defs>
      <g>
       <use style="stroke:#000000;stroke-width:0.8;" x="30.58" xlink:href="#m0c5ec9c7a9" y="170.217869"/>
      </g>
     </g>
     <g id="text_10">
      <!-- 0 -->
      <g transform="translate(17.2175 174.017088)scale(0.1 -0.1)">
       <use xlink:href="#DejaVuSans-48"/>
      </g>
     </g>
    </g>
    <g id="ytick_2">
     <g id="line2d_10">
      <g>
       <use style="stroke:#000000;stroke-width:0.8;" x="30.58" xlink:href="#m0c5ec9c7a9" y="147.205973"/>
      </g>
     </g>
     <g id="text_11">
      <!-- 10 -->
      <g transform="translate(10.855 151.005191)scale(0.1 -0.1)">
       <use xlink:href="#DejaVuSans-49"/>
       <use x="63.623047" xlink:href="#DejaVuSans-48"/>
      </g>
     </g>
    </g>
    <g id="ytick_3">
     <g id="line2d_11">
      <g>
       <use style="stroke:#000000;stroke-width:0.8;" x="30.58" xlink:href="#m0c5ec9c7a9" y="124.194076"/>
      </g>
     </g>
     <g id="text_12">
      <!-- 20 -->
      <g transform="translate(10.855 127.993295)scale(0.1 -0.1)">
       <use xlink:href="#DejaVuSans-50"/>
       <use x="63.623047" xlink:href="#DejaVuSans-48"/>
      </g>
     </g>
    </g>
    <g id="ytick_4">
     <g id="line2d_12">
      <g>
       <use style="stroke:#000000;stroke-width:0.8;" x="30.58" xlink:href="#m0c5ec9c7a9" y="101.18218"/>
      </g>
     </g>
     <g id="text_13">
      <!-- 30 -->
      <g transform="translate(10.855 104.981398)scale(0.1 -0.1)">
       <defs>
        <path d="M 40.578125 39.3125 
Q 47.65625 37.796875 51.625 33 
Q 55.609375 28.21875 55.609375 21.1875 
Q 55.609375 10.40625 48.1875 4.484375 
Q 40.765625 -1.421875 27.09375 -1.421875 
Q 22.515625 -1.421875 17.65625 -0.515625 
Q 12.796875 0.390625 7.625 2.203125 
L 7.625 11.71875 
Q 11.71875 9.328125 16.59375 8.109375 
Q 21.484375 6.890625 26.8125 6.890625 
Q 36.078125 6.890625 40.9375 10.546875 
Q 45.796875 14.203125 45.796875 21.1875 
Q 45.796875 27.640625 41.28125 31.265625 
Q 36.765625 34.90625 28.71875 34.90625 
L 20.21875 34.90625 
L 20.21875 43.015625 
L 29.109375 43.015625 
Q 36.375 43.015625 40.234375 45.921875 
Q 44.09375 48.828125 44.09375 54.296875 
Q 44.09375 59.90625 40.109375 62.90625 
Q 36.140625 65.921875 28.71875 65.921875 
Q 24.65625 65.921875 20.015625 65.03125 
Q 15.375 64.15625 9.8125 62.3125 
L 9.8125 71.09375 
Q 15.4375 72.65625 20.34375 73.4375 
Q 25.25 74.21875 29.59375 74.21875 
Q 40.828125 74.21875 47.359375 69.109375 
Q 53.90625 64.015625 53.90625 55.328125 
Q 53.90625 49.265625 50.4375 45.09375 
Q 46.96875 40.921875 40.578125 39.3125 
z
" id="DejaVuSans-51"/>
       </defs>
       <use xlink:href="#DejaVuSans-51"/>
       <use x="63.623047" xlink:href="#DejaVuSans-48"/>
      </g>
     </g>
    </g>
    <g id="ytick_5">
     <g id="line2d_13">
      <g>
       <use style="stroke:#000000;stroke-width:0.8;" x="30.58" xlink:href="#m0c5ec9c7a9" y="78.170283"/>
      </g>
     </g>
     <g id="text_14">
      <!-- 40 -->
      <g transform="translate(10.855 81.969502)scale(0.1 -0.1)">
       <use xlink:href="#DejaVuSans-52"/>
       <use x="63.623047" xlink:href="#DejaVuSans-48"/>
      </g>
     </g>
    </g>
    <g id="ytick_6">
     <g id="line2d_14">
      <g>
       <use style="stroke:#000000;stroke-width:0.8;" x="30.58" xlink:href="#m0c5ec9c7a9" y="55.158387"/>
      </g>
     </g>
     <g id="text_15">
      <!-- 50 -->
      <g transform="translate(10.855 58.957605)scale(0.1 -0.1)">
       <defs>
        <path d="M 10.796875 72.90625 
L 49.515625 72.90625 
L 49.515625 64.59375 
L 19.828125 64.59375 
L 19.828125 46.734375 
Q 21.96875 47.46875 24.109375 47.828125 
Q 26.265625 48.1875 28.421875 48.1875 
Q 40.625 48.1875 47.75 41.5 
Q 54.890625 34.8125 54.890625 23.390625 
Q 54.890625 11.625 47.5625 5.09375 
Q 40.234375 -1.421875 26.90625 -1.421875 
Q 22.3125 -1.421875 17.546875 -0.640625 
Q 12.796875 0.140625 7.71875 1.703125 
L 7.71875 11.625 
Q 12.109375 9.234375 16.796875 8.0625 
Q 21.484375 6.890625 26.703125 6.890625 
Q 35.15625 6.890625 40.078125 11.328125 
Q 45.015625 15.765625 45.015625 23.390625 
Q 45.015625 31 40.078125 35.4375 
Q 35.15625 39.890625 26.703125 39.890625 
Q 22.75 39.890625 18.8125 39.015625 
Q 14.890625 38.140625 10.796875 36.28125 
z
" id="DejaVuSans-53"/>
       </defs>
       <use xlink:href="#DejaVuSans-53"/>
       <use x="63.623047" xlink:href="#DejaVuSans-48"/>
      </g>
     </g>
    </g>
   </g>
   <g id="patch_3">
    <path d="M 30.58 172.519059 
L 30.58 49.290353 
" style="fill:none;stroke:#000000;stroke-linecap:square;stroke-linejoin:miter;stroke-width:0.8;"/>
   </g>
   <g id="patch_4">
    <path d="M 450 172.519059 
L 450 49.290353 
" style="fill:none;stroke:#000000;stroke-linecap:square;stroke-linejoin:miter;stroke-width:0.8;"/>
   </g>
   <g id="patch_5">
    <path d="M 30.58 172.519059 
L 450 172.519059 
" style="fill:none;stroke:#000000;stroke-linecap:square;stroke-linejoin:miter;stroke-width:0.8;"/>
   </g>
   <g id="patch_6">
    <path d="M 30.58 49.290353 
L 450 49.290353 
" style="fill:none;stroke:#000000;stroke-linecap:square;stroke-linejoin:miter;stroke-width:0.8;"/>
   </g>
   <g id="text_16">
    <!-- emittance 9.51e-09 -->
    <g transform="translate(191.010313 81.534532)scale(0.1 -0.1)">
     <defs>
      <path d="M 56.203125 29.59375 
L 56.203125 25.203125 
L 14.890625 25.203125 
Q 15.484375 15.921875 20.484375 11.0625 
Q 25.484375 6.203125 34.421875 6.203125 
Q 39.59375 6.203125 44.453125 7.46875 
Q 49.3125 8.734375 54.109375 11.28125 
L 54.109375 2.78125 
Q 49.265625 0.734375 44.1875 -0.34375 
Q 39.109375 -1.421875 33.890625 -1.421875 
Q 20.796875 -1.421875 13.15625 6.1875 
Q 5.515625 13.8125 5.515625 26.8125 
Q 5.515625 40.234375 12.765625 48.109375 
Q 20.015625 56 32.328125 56 
Q 43.359375 56 49.78125 48.890625 
Q 56.203125 41.796875 56.203125 29.59375 
z
M 47.21875 32.234375 
Q 47.125 39.59375 43.09375 43.984375 
Q 39.0625 48.390625 32.421875 48.390625 
Q 24.90625 48.390625 20.390625 44.140625 
Q 15.875 39.890625 15.1875 32.171875 
z
" id="DejaVuSans-101"/>
      <path d="M 34.28125 27.484375 
Q 23.390625 27.484375 19.1875 25 
Q 14.984375 22.515625 14.984375 16.5 
Q 14.984375 11.71875 18.140625 8.90625 
Q 21.296875 6.109375 26.703125 6.109375 
Q 34.1875 6.109375 38.703125 11.40625 
Q 43.21875 16.703125 43.21875 25.484375 
L 43.21875 27.484375 
z
M 52.203125 31.203125 
L 52.203125 0 
L 43.21875 0 
L 43.21875 8.296875 
Q 40.140625 3.328125 35.546875 0.953125 
Q 30.953125 -1.421875 24.3125 -1.421875 
Q 15.921875 -1.421875 10.953125 3.296875 
Q 6 8.015625 6 15.921875 
Q 6 25.140625 12.171875 29.828125 
Q 18.359375 34.515625 30.609375 34.515625 
L 43.21875 34.515625 
L 43.21875 35.40625 
Q 43.21875 41.609375 39.140625 45 
Q 35.0625 48.390625 27.6875 48.390625 
Q 23 48.390625 18.546875 47.265625 
Q 14.109375 46.140625 10.015625 43.890625 
L 10.015625 52.203125 
Q 14.9375 54.109375 19.578125 55.046875 
Q 24.21875 56 28.609375 56 
Q 40.484375 56 46.34375 49.84375 
Q 52.203125 43.703125 52.203125 31.203125 
z
" id="DejaVuSans-97"/>
      <path d="M 48.78125 52.59375 
L 48.78125 44.1875 
Q 44.96875 46.296875 41.140625 47.34375 
Q 37.3125 48.390625 33.40625 48.390625 
Q 24.65625 48.390625 19.8125 42.84375 
Q 14.984375 37.3125 14.984375 27.296875 
Q 14.984375 17.28125 19.8125 11.734375 
Q 24.65625 6.203125 33.40625 6.203125 
Q 37.3125 6.203125 41.140625 7.25 
Q 44.96875 8.296875 48.78125 10.40625 
L 48.78125 2.09375 
Q 45.015625 0.34375 40.984375 -0.53125 
Q 36.96875 -1.421875 32.421875 -1.421875 
Q 20.0625 -1.421875 12.78125 6.34375 
Q 5.515625 14.109375 5.515625 27.296875 
Q 5.515625 40.671875 12.859375 48.328125 
Q 20.21875 56 33.015625 56 
Q 37.15625 56 41.109375 55.140625 
Q 45.0625 54.296875 48.78125 52.59375 
z
" id="DejaVuSans-99"/>
      <path d="M 10.984375 1.515625 
L 10.984375 10.5 
Q 14.703125 8.734375 18.5 7.8125 
Q 22.3125 6.890625 25.984375 6.890625 
Q 35.75 6.890625 40.890625 13.453125 
Q 46.046875 20.015625 46.78125 33.40625 
Q 43.953125 29.203125 39.59375 26.953125 
Q 35.25 24.703125 29.984375 24.703125 
Q 19.046875 24.703125 12.671875 31.3125 
Q 6.296875 37.9375 6.296875 49.421875 
Q 6.296875 60.640625 12.9375 67.421875 
Q 19.578125 74.21875 30.609375 74.21875 
Q 43.265625 74.21875 49.921875 64.515625 
Q 56.59375 54.828125 56.59375 36.375 
Q 56.59375 19.140625 48.40625 8.859375 
Q 40.234375 -1.421875 26.421875 -1.421875 
Q 22.703125 -1.421875 18.890625 -0.6875 
Q 15.09375 0.046875 10.984375 1.515625 
z
M 30.609375 32.421875 
Q 37.25 32.421875 41.125 36.953125 
Q 45.015625 41.5 45.015625 49.421875 
Q 45.015625 57.28125 41.125 61.84375 
Q 37.25 66.40625 30.609375 66.40625 
Q 23.96875 66.40625 20.09375 61.84375 
Q 16.21875 57.28125 16.21875 49.421875 
Q 16.21875 41.5 20.09375 36.953125 
Q 23.96875 32.421875 30.609375 32.421875 
z
" id="DejaVuSans-57"/>
      <path d="M 10.6875 12.40625 
L 21 12.40625 
L 21 0 
L 10.6875 0 
z
" id="DejaVuSans-46"/>
      <path d="M 4.890625 31.390625 
L 31.203125 31.390625 
L 31.203125 23.390625 
L 4.890625 23.390625 
z
" id="DejaVuSans-45"/>
     </defs>
     <use xlink:href="#DejaVuSans-101"/>
     <use x="61.523438" xlink:href="#DejaVuSans-109"/>
     <use x="158.935547" xlink:href="#DejaVuSans-105"/>
     <use x="186.71875" xlink:href="#DejaVuSans-116"/>
     <use x="225.927734" xlink:href="#DejaVuSans-116"/>
     <use x="265.136719" xlink:href="#DejaVuSans-97"/>
     <use x="326.416016" xlink:href="#DejaVuSans-110"/>
     <use x="389.794922" xlink:href="#DejaVuSans-99"/>
     <use x="444.775391" xlink:href="#DejaVuSans-101"/>
     <use x="506.298828" xlink:href="#DejaVuSans-32"/>
     <use x="538.085938" xlink:href="#DejaVuSans-57"/>
     <use x="601.708984" xlink:href="#DejaVuSans-46"/>
     <use x="633.496094" xlink:href="#DejaVuSans-53"/>
     <use x="697.119141" xlink:href="#DejaVuSans-49"/>
     <use x="760.742188" xlink:href="#DejaVuSans-101"/>
     <use x="822.265625" xlink:href="#DejaVuSans-45"/>
     <use x="858.349609" xlink:href="#DejaVuSans-48"/>
     <use x="921.972656" xlink:href="#DejaVuSans-57"/>
    </g>
   </g>
   <g id="legend_1">
    <g id="line2d_15">
     <path d="M 44.58 22.528918 
L 64.58 22.528918 
" style="fill:none;stroke:#ef4444;stroke-linecap:square;stroke-width:1.3;"/>
    </g>
    <g id="line2d_16"/>
    <g id="text_17">
     <!-- $\beta_x$ / m -->
     <g transform="translate(72.58 26.028918)scale(0.1 -0.1)">
      <defs>
       <path d="M 13.625 3.375 
L 8.9375 -20.796875 
L -0.09375 -20.796875 
L 14.5 54.34375 
Q 18.84375 76.609375 39.65625 76.609375 
Q 60.75 76.609375 57.171875 57.8125 
Q 54.734375 44.4375 45.21875 39.546875 
Q 58.015625 35.15625 55.515625 22.125 
Q 51.125 -1.078125 27.484375 -1.03125 
Q 17.140625 -0.984375 13.625 3.375 
z
M 15.921875 15.09375 
Q 19.671875 6.59375 29.296875 6.640625 
Q 43.359375 6.640625 46.34375 21.96875 
Q 49.03125 35.75 26.171875 34.671875 
L 27.78125 42.96875 
Q 45.453125 42.671875 48.53125 58.59375 
Q 50.640625 69.34375 39.203125 69.28125 
Q 26.421875 69.28125 23.484375 54.046875 
z
" id="DejaVuSans-Oblique-946"/>
       <path d="M 60.015625 54.6875 
L 34.90625 27.875 
L 50.296875 0 
L 39.984375 0 
L 28.421875 21.6875 
L 8.296875 0 
L -2.59375 0 
L 24.3125 28.8125 
L 10.015625 54.6875 
L 20.3125 54.6875 
L 30.8125 34.90625 
L 49.125 54.6875 
z
" id="DejaVuSans-Oblique-120"/>
      </defs>
      <use transform="translate(0 0.390625)" xlink:href="#DejaVuSans-Oblique-946"/>
      <use transform="translate(63.818359 -16.015625)scale(0.7)" xlink:href="#DejaVuSans-Oblique-120"/>
      <use transform="translate(107.978516 0.390625)" xlink:href="#DejaVuSans-32"/>
      <use transform="translate(139.765625 0.390625)" xlink:href="#DejaVuSans-47"/>
      <use transform="translate(173.457031 0.390625)" xlink:href="#DejaVuSans-32"/>
      <use transform="translate(205.244141 0.390625)" xlink:href="#DejaVuSans-109"/>
     </g>
    </g>
    <g id="line2d_17">
     <path d="M 122.88 22.528918 
L 142.88 22.528918 
" style="fill:none;stroke:#3b82f6;stroke-linecap:square;stroke-width:1.3;"/>
    </g>
    <g id="line2d_18"/>
    <g id="text_18">
     <!-- $\beta_y$ / m -->
     <g transform="translate(150.88 26.028918)scale(0.1 -0.1)">
      <defs>
       <path d="M 24.8125 -5.078125 
Q 18.5625 -15.578125 14.625 -18.1875 
Q 10.6875 -20.796875 4.59375 -20.796875 
L -2.484375 -20.796875 
L -0.984375 -13.28125 
L 4.203125 -13.28125 
Q 7.953125 -13.28125 10.59375 -11.234375 
Q 13.234375 -9.1875 16.5 -3.21875 
L 19.28125 2 
L 7.171875 54.6875 
L 16.703125 54.6875 
L 25.78125 12.796875 
L 50.875 54.6875 
L 60.296875 54.6875 
z
" id="DejaVuSans-Oblique-121"/>
      </defs>
      <use transform="translate(0 0.390625)" xlink:href="#DejaVuSans-Oblique-946"/>
      <use transform="translate(63.818359 -16.015625)scale(0.7)" xlink:href="#DejaVuSans-Oblique-121"/>
      <use transform="translate(107.978516 0.390625)" xlink:href="#DejaVuSans-32"/>
      <use transform="translate(139.765625 0.390625)" xlink:href="#DejaVuSans-47"/>
      <use transform="translate(173.457031 0.390625)" xlink:href="#DejaVuSans-32"/>
      <use transform="translate(205.244141 0.390625)" xlink:href="#DejaVuSans-109"/>
     </g>
    </g>
    <g id="line2d_19">
     <path d="M 201.18 22.528918 
L 221.18 22.528918 
" style="fill:none;stroke:#10b981;stroke-linecap:square;stroke-width:1.3;"/>
    </g>
    <g id="line2d_20"/>
    <g id="text_19">
     <!-- 10 $\eta_x$ / m -->
     <g transform="translate(229.18 26.028918)scale(0.1 -0.1)">
      <defs>
       <path d="M 57.859375 33.015625 
L 47.40625 -20.796875 
L 38.421875 -20.796875 
L 48.828125 32.71875 
Q 50.34375 40.484375 48.046875 44.34375 
Q 45.796875 48.1875 39.75 48.1875 
Q 32.46875 48.1875 27.34375 43.5625 
Q 22.265625 38.921875 20.703125 30.90625 
L 14.703125 0 
L 5.671875 0 
L 16.3125 54.6875 
L 25.34375 54.6875 
L 23.6875 46.1875 
Q 27.828125 51.125 32.71875 53.5625 
Q 37.546875 56 43.265625 56 
Q 52.6875 56 56.390625 50.203125 
Q 60.0625 44.34375 57.859375 33.015625 
z
" id="DejaVuSans-Oblique-951"/>
      </defs>
      <use transform="translate(0 0.78125)" xlink:href="#DejaVuSans-49"/>
      <use transform="translate(63.623047 0.78125)" xlink:href="#DejaVuSans-48"/>
      <use transform="translate(127.246094 0.78125)" xlink:href="#DejaVuSans-32"/>
      <use transform="translate(159.033203 0.78125)" xlink:href="#DejaVuSans-Oblique-951"/>
      <use transform="translate(222.412109 -15.625)scale(0.7)" xlink:href="#DejaVuSans-Oblique-120"/>
      <use transform="translate(266.572266 0.78125)" xlink:href="#DejaVuSans-32"/>
      <use transform="translate(298.359375 0.78125)" xlink:href="#DejaVuSans-47"/>
      <use transform="translate(332.050781 0.78125)" xlink:href="#DejaVuSans-32"/>
      <use transform="translate(363.837891 0.78125)" xlink:href="#DejaVuSans-109"/>
     </g>
    </g>
   </g>
   <g id="line2d_21">
    <path clip-path="url(#p4c1f45bc33)" d="M 30.58 170.080097 
L 133.375914 170.189126 
L 159.700538 170.228104 
L 163.691997 170.0413 
L 167.683456 169.719235 
L 171.674915 169.262404 
L 175.666375 168.671513 
L 179.657834 167.947472 
L 183.649293 167.091399 
L 187.640752 166.104612 
L 191.632211 164.988634 
L 199.42506 162.452688 
L 216.848097 156.415865 
L 219.065574 155.312725 
L 238.959514 144.399865 
L 239.846505 144.202258 
L 240.733495 144.202258 
L 241.620486 144.399865 
L 242.507477 144.793579 
L 263.731903 156.415865 
L 265.949381 157.282702 
L 288.947789 164.988634 
L 292.939248 166.104612 
L 296.930707 167.091399 
L 300.922166 167.947472 
L 304.913625 168.671513 
L 308.905085 169.262404 
L 312.896544 169.719235 
L 316.888003 170.0413 
L 320.879462 170.228104 
L 330.573006 170.256382 
L 400.581934 170.080097 
L 450 170.080097 
L 450 170.080097 
" style="fill:none;stroke:#10b981;stroke-linecap:square;stroke-width:1.3;"/>
   </g>
   <g id="line2d_22">
    <path clip-path="url(#p4c1f45bc33)" d="M 30.58 160.472792 
L 41.984169 160.372984 
L 53.388338 160.07356 
L 64.792508 159.574519 
L 76.196677 158.875862 
L 87.600846 157.977589 
L 99.005015 156.879699 
L 107.05129 155.964067 
L 107.938281 155.690456 
L 108.825272 155.240395 
L 109.712263 154.603277 
L 110.599254 153.764089 
L 111.042749 153.262738 
L 114.844139 148.409249 
L 118.645529 142.934428 
L 122.446918 136.838275 
L 126.248308 130.120791 
L 132.710671 118.072235 
L 134.041157 116.254471 
L 135.371644 114.834692 
L 136.70213 113.835146 
L 146.205604 108.086787 
L 155.709079 102.036622 
L 167.683456 97.32485 
L 179.657834 92.425242 
L 191.632211 87.337797 
L 195.623671 85.600241 
L 215.074115 83.537216 
L 215.51761 83.665555 
L 216.404601 84.275905 
L 217.291592 85.35172 
L 218.178583 86.881241 
L 219.065574 88.847747 
L 222.866964 97.913897 
L 226.668353 106.441897 
L 230.469743 114.431747 
L 234.271133 121.883447 
L 238.072523 128.796996 
L 238.959514 130.024935 
L 239.403009 130.403622 
L 239.846505 130.629688 
L 240.29 130.704853 
L 240.733495 130.629688 
L 241.176991 130.403622 
L 241.620486 130.024935 
L 242.507477 128.796996 
L 246.308867 121.883447 
L 250.110257 114.431747 
L 253.911647 106.441897 
L 257.713036 97.913897 
L 262.844912 86.060698 
L 263.731903 84.756246 
L 264.618894 83.912009 
L 265.505885 83.537216 
L 265.949381 83.527343 
L 284.956329 85.600241 
L 296.930707 90.750298 
L 308.905085 95.712518 
L 320.879462 100.486902 
L 324.870921 102.036622 
L 334.374396 108.086787 
L 345.208356 114.834692 
L 346.538843 116.254471 
L 347.869329 118.072235 
L 349.199816 120.259495 
L 350.530302 122.781974 
L 354.331692 130.120791 
L 358.133082 136.838275 
L 361.934471 142.934428 
L 365.735861 148.409249 
L 369.537251 153.262738 
L 370.867737 154.603277 
L 371.754728 155.240395 
L 372.641719 155.690456 
L 373.52871 155.964067 
L 375.8729 156.255898 
L 387.277069 157.453596 
L 398.681239 158.451677 
L 410.085408 159.250143 
L 421.489577 159.848992 
L 432.893746 160.248224 
L 444.297915 160.44784 
L 450 160.472792 
L 450 160.472792 
" style="fill:none;stroke:#3b82f6;stroke-linecap:square;stroke-width:1.3;"/>
   </g>
   <g id="patch_7">
    <path d="M 106.607795 49.290353 
L 111.042749 49.290353 
L 111.042749 46.356336 
L 106.607795 46.356336 
z
" style="fill:#ef4444;"/>
   </g>
   <g id="patch_8">
    <path d="M 130.049698 52.22437 
L 136.70213 52.22437 
L 136.70213 49.290353 
L 130.049698 49.290353 
z
" style="fill:#ef4444;"/>
   </g>
   <g id="patch_9">
    <path d="M 155.709079 52.22437 
L 195.623671 52.22437 
L 195.623671 46.356336 
L 155.709079 46.356336 
z
" style="fill:#fbbf24;"/>
   </g>
   <g id="patch_10">
    <path d="M 214.630619 52.22437 
L 219.065574 52.22437 
L 219.065574 49.290353 
L 214.630619 49.290353 
z
" style="fill:#ef4444;"/>
   </g>
   <g id="patch_11">
    <path d="M 238.072523 49.290353 
L 242.507477 49.290353 
L 242.507477 46.356336 
L 238.072523 46.356336 
z
" style="fill:#ef4444;"/>
   </g>
   <g id="patch_12">
    <path d="M 261.514426 52.22437 
L 265.949381 52.22437 
L 265.949381 49.290353 
L 261.514426 49.290353 
z
" style="fill:#ef4444;"/>
   </g>
   <g id="patch_13">
    <path d="M 284.956329 52.22437 
L 324.870921 52.22437 
L 324.870921 46.356336 
L 284.956329 46.356336 
z
" style="fill:#fbbf24;"/>
   </g>
   <g id="patch_14">
    <path d="M 343.87787 52.22437 
L 350.530302 52.22437 
L 350.530302 49.290353 
L 343.87787 49.290353 
z
" style="fill:#ef4444;"/>
   </g>
   <g id="patch_15">
    <path d="M 369.537251 49.290353 
L 373.972205 49.290353 
L 373.972205 46.356336 
L 369.537251 46.356336 
z
" style="fill:#ef4444;"/>
   </g>
   <g id="line2d_23">
    <path clip-path="url(#p4c1f45bc33)" d="M 30.58 169.716316 
L 34.38139 169.500844 
L 38.182779 168.854426 
L 41.984169 167.777064 
L 45.785559 166.268757 
L 49.586949 164.329505 
L 53.388338 161.959308 
L 57.189728 159.158167 
L 60.991118 155.92608 
L 64.792508 152.263049 
L 68.593897 148.169072 
L 72.395287 143.644151 
L 76.196677 138.688285 
L 79.998066 133.301474 
L 83.799456 127.483719 
L 87.600846 121.235018 
L 91.402236 114.555372 
L 95.203625 107.444782 
L 99.005015 99.903247 
L 102.806405 91.930767 
L 107.05129 82.647217 
L 107.494785 82.021121 
L 107.938281 81.652732 
L 108.381776 81.544217 
L 108.825272 81.696211 
L 109.268767 82.107823 
L 109.712263 82.776633 
L 110.599254 84.868639 
L 111.042749 86.279541 
L 114.844139 98.870356 
L 118.645529 110.435812 
L 122.446918 120.975909 
L 126.248308 130.490647 
L 130.049698 138.980026 
L 131.380184 141.593585 
L 132.710671 143.877023 
L 134.7064 146.760411 
L 136.70213 149.082777 
L 140.50352 152.837958 
L 144.304909 156.214859 
L 148.106299 159.21348 
L 151.907689 161.833822 
L 155.709079 164.075884 
L 159.700538 165.950884 
L 163.691997 167.449329 
L 167.683456 168.561978 
L 171.674915 169.281974 
L 175.666375 169.604876 
L 179.657834 169.528693 
L 183.649293 169.053897 
L 187.640752 168.183413 
L 191.632211 166.922608 
L 195.623671 165.279257 
L 199.42506 163.272407 
L 203.22645 160.887278 
L 207.02784 158.12387 
L 210.82923 154.982182 
L 215.074115 151.013884 
L 216.404601 149.471334 
L 217.735088 147.601889 
L 219.065574 145.359432 
L 220.966269 141.740387 
L 224.767659 133.758658 
L 228.569048 124.785409 
L 232.370438 114.820639 
L 236.171828 103.864348 
L 238.516018 96.752602 
L 238.959514 95.761138 
L 239.403009 95.04752 
L 239.846505 94.61717 
L 240.29 94.473356 
L 240.733495 94.61717 
L 241.176991 95.04752 
L 241.620486 95.761138 
L 242.507477 98.014383 
L 246.308867 109.466433 
L 250.110257 119.926964 
L 253.911647 129.395973 
L 257.713036 137.873463 
L 261.514426 145.359432 
L 262.844912 147.601889 
L 264.175399 149.471334 
L 265.505885 151.013884 
L 267.850076 153.269483 
L 271.651465 156.600311 
L 275.452855 159.552859 
L 279.254245 162.127128 
L 283.055634 164.323117 
L 284.956329 165.279257 
L 288.947789 166.922608 
L 292.939248 168.183413 
L 296.930707 169.053897 
L 300.922166 169.528693 
L 304.913625 169.604876 
L 308.905085 169.281974 
L 312.896544 168.561978 
L 316.888003 167.449329 
L 320.879462 165.950884 
L 324.870921 164.075884 
L 328.672311 161.833822 
L 332.473701 159.21348 
L 336.275091 156.214859 
L 340.07648 152.837958 
L 343.87787 149.082777 
L 345.208356 147.592429 
L 346.538843 145.866219 
L 347.869329 143.877023 
L 349.199816 141.593585 
L 350.530302 138.980026 
L 354.331692 130.490647 
L 358.133082 120.975909 
L 361.934471 110.435812 
L 365.735861 98.870356 
L 370.424242 83.698711 
L 371.311233 82.107823 
L 371.754728 81.696211 
L 372.198224 81.544217 
L 372.641719 81.652732 
L 373.085215 82.021121 
L 373.52871 82.647217 
L 373.972205 83.527342 
L 377.773595 91.930767 
L 381.574985 99.903247 
L 385.376375 107.444782 
L 389.177764 114.555372 
L 392.979154 121.235018 
L 396.780544 127.483719 
L 400.581934 133.301474 
L 404.383323 138.688285 
L 408.184713 143.644151 
L 411.986103 148.169072 
L 415.787492 152.263049 
L 419.588882 155.92608 
L 423.390272 159.158167 
L 427.191662 161.959308 
L 430.993051 164.329505 
L 434.794441 166.268757 
L 438.595831 167.777064 
L 442.397221 168.854426 
L 446.19861 169.500844 
L 450 169.716316 
L 450 169.716316 
" style="fill:none;stroke:#ef4444;stroke-linecap:square;stroke-width:1.3;"/>
   </g>
   <g id="text_20">
    <!-- q1 -->
    <g transform="translate(103.740897 41.758569)scale(0.08 -0.08)">
     <defs>
      <path d="M 14.796875 27.296875 
Q 14.796875 17.390625 18.875 11.75 
Q 22.953125 6.109375 30.078125 6.109375 
Q 37.203125 6.109375 41.296875 11.75 
Q 45.40625 17.390625 45.40625 27.296875 
Q 45.40625 37.203125 41.296875 42.84375 
Q 37.203125 48.484375 30.078125 48.484375 
Q 22.953125 48.484375 18.875 42.84375 
Q 14.796875 37.203125 14.796875 27.296875 
z
M 45.40625 8.203125 
Q 42.578125 3.328125 38.25 0.953125 
Q 33.9375 -1.421875 27.875 -1.421875 
Q 17.96875 -1.421875 11.734375 6.484375 
Q 5.515625 14.40625 5.515625 27.296875 
Q 5.515625 40.1875 11.734375 48.09375 
Q 17.96875 56 27.875 56 
Q 33.9375 56 38.25 53.625 
Q 42.578125 51.265625 45.40625 46.390625 
L 45.40625 54.6875 
L 54.390625 54.6875 
L 54.390625 -20.796875 
L 45.40625 -20.796875 
z
" id="DejaVuSans-113"/>
     </defs>
     <use xlink:href="#DejaVuSans-113"/>
     <use x="63.476562" xlink:href="#DejaVuSans-49"/>
    </g>
   </g>
   <g id="text_21">
    <!-- q2 -->
    <g transform="translate(128.291539 61.237137)scale(0.08 -0.08)">
     <use xlink:href="#DejaVuSans-113"/>
     <use x="63.476562" xlink:href="#DejaVuSans-50"/>
    </g>
   </g>
   <g id="text_22">
    <!-- b1 -->
    <g transform="translate(170.582 41.758569)scale(0.08 -0.08)">
     <use xlink:href="#DejaVuSans-98"/>
     <use x="63.476562" xlink:href="#DejaVuSans-49"/>
    </g>
   </g>
   <g id="text_23">
    <!-- q4 -->
    <g transform="translate(211.763722 61.237137)scale(0.08 -0.08)">
     <use xlink:href="#DejaVuSans-113"/>
     <use x="63.476562" xlink:href="#DejaVuSans-52"/>
    </g>
   </g>
   <g id="text_24">
    <!-- q3 -->
    <g transform="translate(235.205625 41.758569)scale(0.08 -0.08)">
     <use xlink:href="#DejaVuSans-113"/>
     <use x="63.476562" xlink:href="#DejaVuSans-51"/>
    </g>
   </g>
   <g id="text_25">
    <!-- q4 -->
    <g transform="translate(258.647528 61.237137)scale(0.08 -0.08)">
     <use xlink:href="#DejaVuSans-113"/>
     <use x="63.476562" xlink:href="#DejaVuSans-52"/>
    </g>
   </g>
   <g id="text_26">
    <!-- b1 -->
    <g transform="translate(299.82925 41.758569)scale(0.08 -0.08)">
     <use xlink:href="#DejaVuSans-98"/>
     <use x="63.476562" xlink:href="#DejaVuSans-49"/>
    </g>
   </g>
   <g id="text_27">
    <!-- q2 -->
    <g transform="translate(342.119711 61.237137)scale(0.08 -0.08)">
     <use xlink:href="#DejaVuSans-113"/>
     <use x="63.476562" xlink:href="#DejaVuSans-50"/>
    </g>
   </g>
   <g id="text_28">
    <!-- q1 -->
    <g transform="translate(366.670353 41.758569)scale(0.08 -0.08)">
     <use xlink:href="#DejaVuSans-113"/>
     <use x="63.476562" xlink:href="#DejaVuSans-49"/>
    </g>
   </g>
  </g>
  <g id="axes_2">
   <g id="patch_16">
    <path d="M 30.58 352.559529 
L 450 352.559529 
L 450 229.330824 
L 30.58 229.330824 
z
" style="fill:#ffffff;"/>
   </g>
   <g id="matplotlib.axis_3">
    <g id="xtick_9">
     <g id="line2d_24">
      <g>
       <use style="stroke:#000000;stroke-width:0.8;" x="30.58" xlink:href="#m1a34f31308" y="352.559529"/>
      </g>
     </g>
     <g id="text_29">
      <!-- 0 -->
      <g transform="translate(27.39875 367.157967)scale(0.1 -0.1)">
       <use xlink:href="#DejaVuSans-48"/>
      </g>
     </g>
    </g>
    <g id="xtick_10">
     <g id="line2d_25">
      <g>
       <use style="stroke:#000000;stroke-width:0.8;" x="84.313523" xlink:href="#m1a34f31308" y="352.559529"/>
      </g>
     </g>
     <g id="text_30">
      <!-- 2 -->
      <g transform="translate(81.132273 367.157967)scale(0.1 -0.1)">
       <use xlink:href="#DejaVuSans-50"/>
      </g>
     </g>
    </g>
    <g id="xtick_11">
     <g id="line2d_26">
      <g>
       <use style="stroke:#000000;stroke-width:0.8;" x="138.047046" xlink:href="#m1a34f31308" y="352.559529"/>
      </g>
     </g>
     <g id="text_31">
      <!-- 4 -->
      <g transform="translate(134.865796 367.157967)scale(0.1 -0.1)">
       <use xlink:href="#DejaVuSans-52"/>
      </g>
     </g>
    </g>
    <g id="xtick_12">
     <g id="line2d_27">
      <g>
       <use style="stroke:#000000;stroke-width:0.8;" x="191.780569" xlink:href="#m1a34f31308" y="352.559529"/>
      </g>
     </g>
     <g id="text_32">
      <!-- 6 -->
      <g transform="translate(188.599319 367.157967)scale(0.1 -0.1)">
       <use xlink:href="#DejaVuSans-54"/>
      </g>
     </g>
    </g>
    <g id="xtick_13">
     <g id="line2d_28">
      <g>
       <use style="stroke:#000000;stroke-width:0.8;" x="245.514093" xlink:href="#m1a34f31308" y="352.559529"/>
      </g>
     </g>
     <g id="text_33">
      <!-- 8 -->
      <g transform="translate(242.332843 367.157967)scale(0.1 -0.1)">
       <use xlink:href="#DejaVuSans-56"/>
      </g>
     </g>
    </g>
    <g id="xtick_14">
     <g id="line2d_29">
      <g>
       <use style="stroke:#000000;stroke-width:0.8;" x="299.247616" xlink:href="#m1a34f31308" y="352.559529"/>
      </g>
     </g>
     <g id="text_34">
      <!-- 10 -->
      <g transform="translate(292.885116 367.157967)scale(0.1 -0.1)">
       <use xlink:href="#DejaVuSans-49"/>
       <use x="63.623047" xlink:href="#DejaVuSans-48"/>
      </g>
     </g>
    </g>
    <g id="xtick_15">
     <g id="line2d_30">
      <g>
       <use style="stroke:#000000;stroke-width:0.8;" x="352.981139" xlink:href="#m1a34f31308" y="352.559529"/>
      </g>
     </g>
     <g id="text_35">
      <!-- 12 -->
      <g transform="translate(346.618639 367.157967)scale(0.1 -0.1)">
       <use xlink:href="#DejaVuSans-49"/>
       <use x="63.623047" xlink:href="#DejaVuSans-50"/>
      </g>
     </g>
    </g>
    <g id="xtick_16">
     <g id="line2d_31">
      <g>
       <use style="stroke:#000000;stroke-width:0.8;" x="406.714662" xlink:href="#m1a34f31308" y="352.559529"/>
      </g>
     </g>
     <g id="text_36">
      <!-- 14 -->
      <g transform="translate(400.352162 367.157967)scale(0.1 -0.1)">
       <use xlink:href="#DejaVuSans-49"/>
       <use x="63.623047" xlink:href="#DejaVuSans-52"/>
      </g>
     </g>
    </g>
    <g id="text_37">
     <!-- Orbit Position $s$ / m -->
     <g transform="translate(192.59 380.836092)scale(0.1 -0.1)">
      <use transform="translate(0 0.015625)" xlink:href="#DejaVuSans-79"/>
      <use transform="translate(78.710938 0.015625)" xlink:href="#DejaVuSans-114"/>
      <use transform="translate(119.824219 0.015625)" xlink:href="#DejaVuSans-98"/>
      <use transform="translate(183.300781 0.015625)" xlink:href="#DejaVuSans-105"/>
      <use transform="translate(211.083984 0.015625)" xlink:href="#DejaVuSans-116"/>
      <use transform="translate(250.292969 0.015625)" xlink:href="#DejaVuSans-32"/>
      <use transform="translate(282.080078 0.015625)" xlink:href="#DejaVuSans-80"/>
      <use transform="translate(342.382812 0.015625)" xlink:href="#DejaVuSans-111"/>
      <use transform="translate(403.564453 0.015625)" xlink:href="#DejaVuSans-115"/>
      <use transform="translate(455.664062 0.015625)" xlink:href="#DejaVuSans-105"/>
      <use transform="translate(483.447266 0.015625)" xlink:href="#DejaVuSans-116"/>
      <use transform="translate(522.65625 0.015625)" xlink:href="#DejaVuSans-105"/>
      <use transform="translate(550.439453 0.015625)" xlink:href="#DejaVuSans-111"/>
      <use transform="translate(611.621094 0.015625)" xlink:href="#DejaVuSans-110"/>
      <use transform="translate(675 0.015625)" xlink:href="#DejaVuSans-32"/>
      <use transform="translate(706.787109 0.015625)" xlink:href="#DejaVuSans-Oblique-115"/>
      <use transform="translate(758.886719 0.015625)" xlink:href="#DejaVuSans-32"/>
      <use transform="translate(790.673828 0.015625)" xlink:href="#DejaVuSans-47"/>
      <use transform="translate(824.365234 0.015625)" xlink:href="#DejaVuSans-32"/>
      <use transform="translate(856.152344 0.015625)" xlink:href="#DejaVuSans-109"/>
     </g>
    </g>
   </g>
   <g id="matplotlib.axis_4">
    <g id="ytick_7">
     <g id="line2d_32">
      <g>
       <use style="stroke:#000000;stroke-width:0.8;" x="30.58" xlink:href="#m0c5ec9c7a9" y="350.25834"/>
      </g>
     </g>
     <g id="text_38">
      <!-- 0 -->
      <g transform="translate(17.2175 354.057559)scale(0.1 -0.1)">
       <use xlink:href="#DejaVuSans-48"/>
      </g>
     </g>
    </g>
    <g id="ytick_8">
     <g id="line2d_33">
      <g>
       <use style="stroke:#000000;stroke-width:0.8;" x="30.58" xlink:href="#m0c5ec9c7a9" y="327.246443"/>
      </g>
     </g>
     <g id="text_39">
      <!-- 10 -->
      <g transform="translate(10.855 331.045662)scale(0.1 -0.1)">
       <use xlink:href="#DejaVuSans-49"/>
       <use x="63.623047" xlink:href="#DejaVuSans-48"/>
      </g>
     </g>
    </g>
    <g id="ytick_9">
     <g id="line2d_34">
      <g>
       <use style="stroke:#000000;stroke-width:0.8;" x="30.58" xlink:href="#m0c5ec9c7a9" y="304.234547"/>
      </g>
     </g>
     <g id="text_40">
      <!-- 20 -->
      <g transform="translate(10.855 308.033765)scale(0.1 -0.1)">
       <use xlink:href="#DejaVuSans-50"/>
       <use x="63.623047" xlink:href="#DejaVuSans-48"/>
      </g>
     </g>
    </g>
    <g id="ytick_10">
     <g id="line2d_35">
      <g>
       <use style="stroke:#000000;stroke-width:0.8;" x="30.58" xlink:href="#m0c5ec9c7a9" y="281.22265"/>
      </g>
     </g>
     <g id="text_41">
      <!-- 30 -->
      <g transform="translate(10.855 285.021869)scale(0.1 -0.1)">
       <use xlink:href="#DejaVuSans-51"/>
       <use x="63.623047" xlink:href="#DejaVuSans-48"/>
      </g>
     </g>
    </g>
    <g id="ytick_11">
     <g id="line2d_36">
      <g>
       <use style="stroke:#000000;stroke-width:0.8;" x="30.58" xlink:href="#m0c5ec9c7a9" y="258.210754"/>
      </g>
     </g>
     <g id="text_42">
      <!-- 40 -->
      <g transform="translate(10.855 262.009972)scale(0.1 -0.1)">
       <use xlink:href="#DejaVuSans-52"/>
       <use x="63.623047" xlink:href="#DejaVuSans-48"/>
      </g>
     </g>
    </g>
    <g id="ytick_12">
     <g id="line2d_37">
      <g>
       <use style="stroke:#000000;stroke-width:0.8;" x="30.58" xlink:href="#m0c5ec9c7a9" y="235.198857"/>
      </g>
     </g>
     <g id="text_43">
      <!-- 50 -->
      <g transform="translate(10.855 238.998076)scale(0.1 -0.1)">
       <use xlink:href="#DejaVuSans-53"/>
       <use x="63.623047" xlink:href="#DejaVuSans-48"/>
      </g>
     </g>
    </g>
   </g>
   <g id="patch_17">
    <path d="M 30.58 352.559529 
L 30.58 229.330824 
" style="fill:none;stroke:#000000;stroke-linecap:square;stroke-linejoin:miter;stroke-width:0.8;"/>
   </g>
   <g id="patch_18">
    <path d="M 450 352.559529 
L 450 229.330824 
" style="fill:none;stroke:#000000;stroke-linecap:square;stroke-linejoin:miter;stroke-width:0.8;"/>
   </g>
   <g id="patch_19">
    <path d="M 30.58 352.559529 
L 450 352.559529 
" style="fill:none;stroke:#000000;stroke-linecap:square;stroke-linejoin:miter;stroke-width:0.8;"/>
   </g>
   <g id="patch_20">
    <path d="M 30.58 229.330824 
L 450 229.330824 
" style="fill:none;stroke:#000000;stroke-linecap:square;stroke-linejoin:miter;stroke-width:0.8;"/>
   </g>
   <g id="text_44">
    <!-- emittance 4.78e-09 -->
    <g transform="translate(191.010313 261.575002)scale(0.1 -0.1)">
     <defs>
      <path d="M 8.203125 72.90625 
L 55.078125 72.90625 
L 55.078125 68.703125 
L 28.609375 0 
L 18.3125 0 
L 43.21875 64.59375 
L 8.203125 64.59375 
z
" id="DejaVuSans-55"/>
     </defs>
     <use xlink:href="#DejaVuSans-101"/>
     <use x="61.523438" xlink:href="#DejaVuSans-109"/>
     <use x="158.935547" xlink:href="#DejaVuSans-105"/>
     <use x="186.71875" xlink:href="#DejaVuSans-116"/>
     <use x="225.927734" xlink:href="#DejaVuSans-116"/>
     <use x="265.136719" xlink:href="#DejaVuSans-97"/>
     <use x="326.416016" xlink:href="#DejaVuSans-110"/>
     <use x="389.794922" xlink:href="#DejaVuSans-99"/>
     <use x="444.775391" xlink:href="#DejaVuSans-101"/>
     <use x="506.298828" xlink:href="#DejaVuSans-32"/>
     <use x="538.085938" xlink:href="#DejaVuSans-52"/>
     <use x="601.708984" xlink:href="#DejaVuSans-46"/>
     <use x="633.496094" xlink:href="#DejaVuSans-55"/>
     <use x="697.119141" xlink:href="#DejaVuSans-56"/>
     <use x="760.742188" xlink:href="#DejaVuSans-101"/>
     <use x="822.265625" xlink:href="#DejaVuSans-45"/>
     <use x="858.349609" xlink:href="#DejaVuSans-48"/>
     <use x="921.972656" xlink:href="#DejaVuSans-57"/>
    </g>
   </g>
   <g id="line2d_38">
    <path clip-path="url(#p0031f422d4)" d="M 30.58 346.932113 
L 93.64226 346.842695 
L 110.583246 346.000521 
L 113.269922 346.141212 
L 115.284929 346.391929 
L 132.897584 349.049474 
L 138.270936 349.498919 
L 143.644288 349.591761 
L 149.017641 349.327429 
L 154.390993 348.707552 
L 161.555463 347.429573 
L 174.018655 344.990555 
L 175.361993 344.532088 
L 191.295475 338.536324 
L 192.302979 338.492928 
L 193.310482 338.679919 
L 196.631512 339.909034 
L 210.251468 344.910764 
L 211.930641 345.277723 
L 229.543295 348.215979 
L 234.916648 348.744449 
L 240.29 348.920968 
L 245.663352 348.744449 
L 251.036705 348.215979 
L 258.201174 347.057804 
L 270.328532 344.910764 
L 272.007705 344.373398 
L 287.941187 338.529748 
L 288.94869 338.49622 
L 289.956194 338.693014 
L 293.277224 339.953824 
L 306.89718 345.088085 
L 308.576352 345.479325 
L 326.189007 348.707552 
L 331.562359 349.327429 
L 336.935712 349.591761 
L 342.309064 349.498919 
L 347.682416 349.049474 
L 354.846886 348.001843 
L 367.981747 346.08492 
L 370.668423 346.000863 
L 374.996957 346.203996 
L 390.296085 346.932113 
L 450 346.932113 
L 450 346.932113 
" style="fill:none;stroke:#10b981;stroke-linecap:square;stroke-width:1.3;"/>
   </g>
   <g id="line2d_39">
    <path clip-path="url(#p0031f422d4)" d="M 30.58 325.383538 
L 49.983772 325.272497 
L 69.387544 324.939371 
L 88.791317 324.384161 
L 90.955584 324.363971 
L 91.963087 324.618206 
L 92.970591 325.115734 
L 93.64226 325.578043 
L 98.120053 328.873892 
L 102.597847 331.920819 
L 107.075641 334.718825 
L 109.239907 335.9336 
L 110.583246 336.313035 
L 111.926584 336.313448 
L 113.269922 335.934859 
L 114.61326 335.156863 
L 115.284929 334.605877 
L 118.270125 331.781363 
L 121.25532 328.715004 
L 124.240516 325.4068 
L 127.225712 321.856753 
L 130.210907 318.064861 
L 135.58426 311.738069 
L 140.957612 304.832049 
L 146.330964 297.346799 
L 151.704317 289.282321 
L 157.077669 280.638614 
L 163.04806 272.923443 
L 169.018452 264.795817 
L 172.339482 260.210669 
L 172.675317 260.072487 
L 173.011151 260.16349 
L 173.346986 260.483215 
L 173.68282 261.030037 
L 174.354489 262.792712 
L 175.026158 265.415723 
L 179.839786 288.345269 
L 182.824982 300.802633 
L 185.810178 311.859806 
L 188.795374 321.516788 
L 190.959641 327.439603 
L 191.63131 328.617233 
L 192.302979 329.394281 
L 192.974648 329.79792 
L 193.646317 329.842264 
L 205.5871 327.344054 
L 209.243964 326.650983 
L 209.915633 326.859349 
L 210.587302 327.302722 
L 211.258972 327.972099 
L 211.930641 328.853888 
L 214.915836 332.994267 
L 217.901032 336.683242 
L 220.886228 339.92081 
L 223.871423 342.706973 
L 226.856619 345.04173 
L 229.543295 346.823411 
L 232.229972 348.209163 
L 234.916648 349.198985 
L 237.603324 349.792879 
L 240.29 349.990844 
L 242.976676 349.792879 
L 245.663352 349.198985 
L 248.350028 348.209163 
L 251.036705 346.823411 
L 255.215979 343.930777 
L 258.201174 341.370317 
L 261.18637 338.358452 
L 264.171566 334.89518 
L 267.156762 330.980503 
L 269.656863 327.609905 
L 270.328532 327.052112 
L 271.000201 326.725413 
L 271.67187 326.63644 
L 272.007705 326.681856 
L 283.948488 329.240299 
L 287.269518 329.864615 
L 287.941187 329.641596 
L 288.612856 329.053817 
L 289.284525 328.080722 
L 289.956194 326.688283 
L 290.292028 325.820208 
L 291.784626 321.516788 
L 294.769822 311.859806 
L 297.755018 300.802633 
L 300.740214 288.345269 
L 303.725409 274.487714 
L 305.889676 263.999606 
L 306.561345 261.801176 
L 307.233014 260.483215 
L 307.568849 260.16349 
L 307.904683 260.072487 
L 308.240518 260.210669 
L 308.576352 260.577332 
L 314.546744 268.911187 
L 320.517135 276.832586 
L 323.502331 280.638614 
L 328.875683 289.282321 
L 334.249036 297.346799 
L 339.622388 304.832049 
L 344.99574 311.738069 
L 357.832082 327.091133 
L 360.817278 330.278414 
L 363.802473 333.22385 
L 365.96674 335.156863 
L 367.310078 335.934859 
L 368.653416 336.313448 
L 369.996754 336.313035 
L 371.340093 335.9336 
L 372.011762 335.596178 
L 376.489555 332.881146 
L 380.967349 329.917192 
L 385.445142 326.704317 
L 387.945244 324.923355 
L 388.952747 324.50609 
L 389.960251 324.334273 
L 391.788683 324.384161 
L 411.192456 324.939371 
L 430.596228 325.272497 
L 450 325.383538 
L 450 325.383538 
" style="fill:none;stroke:#3b82f6;stroke-linecap:square;stroke-width:1.3;"/>
   </g>
   <g id="patch_21">
    <path d="M 90.283915 232.26484 
L 93.64226 232.26484 
L 93.64226 229.330824 
L 90.283915 229.330824 
z
" style="fill:#ef4444;"/>
   </g>
   <g id="patch_22">
    <path d="M 108.568238 229.330824 
L 115.284929 229.330824 
L 115.284929 226.396807 
L 108.568238 226.396807 
z
" style="fill:#ef4444;"/>
   </g>
   <g id="patch_23">
    <path d="M 130.210907 232.26484 
L 157.077669 232.26484 
L 157.077669 226.396807 
L 130.210907 226.396807 
z
" style="fill:#fbbf24;"/>
   </g>
   <g id="patch_24">
    <path d="M 172.003648 232.26484 
L 175.361993 232.26484 
L 175.361993 229.330824 
L 172.003648 229.330824 
z
" style="fill:#ef4444;"/>
   </g>
   <g id="patch_25">
    <path d="M 190.287972 229.330824 
L 193.646317 229.330824 
L 193.646317 226.396807 
L 190.287972 226.396807 
z
" style="fill:#ef4444;"/>
   </g>
   <g id="patch_26">
    <path d="M 208.572295 232.26484 
L 211.930641 232.26484 
L 211.930641 229.330824 
L 208.572295 229.330824 
z
" style="fill:#ef4444;"/>
   </g>
   <g id="patch_27">
    <path d="M 226.856619 232.26484 
L 253.723381 232.26484 
L 253.723381 226.396807 
L 226.856619 226.396807 
z
" style="fill:#fbbf24;"/>
   </g>
   <g id="patch_28">
    <path d="M 268.649359 232.26484 
L 272.007705 232.26484 
L 272.007705 229.330824 
L 268.649359 229.330824 
z
" style="fill:#ef4444;"/>
   </g>
   <g id="patch_29">
    <path d="M 286.933683 229.330824 
L 290.292028 229.330824 
L 290.292028 226.396807 
L 286.933683 226.396807 
z
" style="fill:#ef4444;"/>
   </g>
   <g id="patch_30">
    <path d="M 305.218007 232.26484 
L 308.576352 232.26484 
L 308.576352 229.330824 
L 305.218007 229.330824 
z
" style="fill:#ef4444;"/>
   </g>
   <g id="patch_31">
    <path d="M 323.502331 232.26484 
L 350.369093 232.26484 
L 350.369093 226.396807 
L 323.502331 226.396807 
z
" style="fill:#fbbf24;"/>
   </g>
   <g id="patch_32">
    <path d="M 365.295071 229.330824 
L 372.011762 229.330824 
L 372.011762 226.396807 
L 365.295071 226.396807 
z
" style="fill:#ef4444;"/>
   </g>
   <g id="patch_33">
    <path d="M 386.93774 232.26484 
L 390.296085 232.26484 
L 390.296085 229.330824 
L 386.93774 229.330824 
z
" style="fill:#ef4444;"/>
   </g>
   <g id="line2d_40">
    <path clip-path="url(#p0031f422d4)" d="M 30.58 346.446892 
L 38.042989 346.339689 
L 45.505979 346.018077 
L 52.968968 345.482059 
L 60.431957 344.731633 
L 67.894947 343.766799 
L 75.357936 342.587558 
L 82.820925 341.19391 
L 90.619749 339.502709 
L 91.963087 339.047563 
L 93.306425 338.383632 
L 95.134858 337.236863 
L 99.612651 334.170379 
L 104.090445 330.75963 
L 109.911577 326.132125 
L 110.583246 325.933114 
L 111.254915 325.896528 
L 111.926584 326.022859 
L 112.598253 326.310413 
L 113.269922 326.755337 
L 114.61326 328.091417 
L 119.762722 334.742005 
L 122.747918 338.077677 
L 125.733114 341.00064 
L 128.71831 343.510894 
L 130.210907 344.611255 
L 132.897584 346.265012 
L 135.58426 347.620646 
L 138.270936 348.669801 
L 140.957612 349.406007 
L 143.644288 349.824727 
L 146.330964 349.923377 
L 149.017641 349.701351 
L 151.704317 349.160016 
L 154.390993 348.302711 
L 157.077669 347.13472 
L 160.062865 345.406267 
L 163.04806 343.265105 
L 166.033256 340.711234 
L 169.018452 337.744655 
L 172.339482 333.938815 
L 173.346986 332.362319 
L 174.354489 330.281544 
L 175.361993 327.600895 
L 176.854591 322.906729 
L 178.347189 317.76965 
L 179.839786 312.18966 
L 182.824982 299.700942 
L 185.810178 285.440576 
L 188.795374 269.408561 
L 190.623806 258.911951 
L 191.295475 256.44204 
L 191.63131 255.809878 
L 191.967144 255.588097 
L 192.302979 255.778628 
L 192.638813 256.379812 
L 192.974648 257.386412 
L 193.646317 260.577332 
L 196.631512 277.272732 
L 199.616708 292.248436 
L 202.601904 305.504443 
L 205.5871 317.040753 
L 207.079698 322.164022 
L 209.243964 328.716676 
L 210.251468 330.976379 
L 211.258972 332.69115 
L 211.930641 333.571407 
L 214.915836 336.866836 
L 217.901032 339.791376 
L 220.886228 342.345027 
L 223.871423 344.527791 
L 226.856619 346.339666 
L 229.543295 347.607889 
L 232.229972 348.602486 
L 234.916648 349.317325 
L 237.603324 349.747999 
L 240.29 349.891853 
L 242.976676 349.747999 
L 245.663352 349.317325 
L 248.350028 348.602486 
L 251.036705 347.607889 
L 253.723381 346.339666 
L 256.708577 344.527791 
L 259.693772 342.345027 
L 262.678968 339.791376 
L 265.664164 336.866836 
L 268.985194 333.155906 
L 269.992698 331.604151 
L 271.000201 329.536304 
L 272.007705 326.857367 
L 273.500302 322.164022 
L 274.9929 317.040753 
L 276.485498 311.48756 
L 279.470694 299.091402 
L 282.45589 284.975546 
L 285.441085 269.139994 
L 287.269518 258.78966 
L 287.941187 256.379812 
L 288.277021 255.778628 
L 288.612856 255.588097 
L 288.94869 255.809878 
L 289.284525 256.44204 
L 289.620359 257.479075 
L 290.292028 260.728186 
L 293.277224 277.646025 
L 296.26242 292.792215 
L 299.247616 306.166757 
L 302.232811 317.76965 
L 303.725409 322.906729 
L 305.889676 329.460113 
L 306.89718 331.728965 
L 307.904683 333.464441 
L 308.576352 334.365367 
L 311.561548 337.744655 
L 314.546744 340.711234 
L 317.53194 343.265105 
L 320.517135 345.406267 
L 323.502331 347.13472 
L 326.189007 348.302711 
L 328.875683 349.160016 
L 331.562359 349.701351 
L 334.249036 349.923377 
L 336.935712 349.824727 
L 339.622388 349.406007 
L 342.309064 348.669801 
L 344.99574 347.620646 
L 347.682416 346.265012 
L 350.369093 344.611255 
L 353.354288 342.307355 
L 356.339484 339.590747 
L 359.32468 336.46143 
L 362.309875 332.919404 
L 366.638409 327.351669 
L 367.310078 326.755337 
L 367.981747 326.310413 
L 368.653416 326.022859 
L 369.325085 325.896528 
L 369.996754 325.933114 
L 370.668423 326.132125 
L 371.340093 326.490896 
L 372.011762 327.004618 
L 376.489555 330.75963 
L 380.967349 334.170379 
L 385.445142 337.236863 
L 387.945244 338.742945 
L 389.288582 339.300096 
L 390.296085 339.585854 
L 397.759075 341.19391 
L 405.222064 342.587558 
L 412.685053 343.766799 
L 420.148043 344.731633 
L 427.611032 345.482059 
L 435.074021 346.018077 
L 442.537011 346.339689 
L 450 346.446892 
L 450 346.446892 
" style="fill:none;stroke:#ef4444;stroke-linecap:square;stroke-width:1.3;"/>
   </g>
   <g id="text_45">
    <!-- q1 -->
    <g transform="translate(86.878712 221.79904)scale(0.08 -0.08)">
     <use xlink:href="#DejaVuSans-113"/>
     <use x="63.476562" xlink:href="#DejaVuSans-49"/>
    </g>
   </g>
   <g id="text_46">
    <!-- q2 -->
    <g transform="translate(106.842209 241.277607)scale(0.08 -0.08)">
     <use xlink:href="#DejaVuSans-113"/>
     <use x="63.476562" xlink:href="#DejaVuSans-50"/>
    </g>
   </g>
   <g id="text_47">
    <!-- b1 -->
    <g transform="translate(138.559913 221.79904)scale(0.08 -0.08)">
     <use xlink:href="#DejaVuSans-98"/>
     <use x="63.476562" xlink:href="#DejaVuSans-49"/>
    </g>
   </g>
   <g id="text_48">
    <!-- q4 -->
    <g transform="translate(168.598445 241.277607)scale(0.08 -0.08)">
     <use xlink:href="#DejaVuSans-113"/>
     <use x="63.476562" xlink:href="#DejaVuSans-52"/>
    </g>
   </g>
   <g id="text_49">
    <!-- q3 -->
    <g transform="translate(186.882769 221.79904)scale(0.08 -0.08)">
     <use xlink:href="#DejaVuSans-113"/>
     <use x="63.476562" xlink:href="#DejaVuSans-51"/>
    </g>
   </g>
   <g id="text_50">
    <!-- q4 -->
    <g transform="translate(205.167093 241.277607)scale(0.08 -0.08)">
     <use xlink:href="#DejaVuSans-113"/>
     <use x="63.476562" xlink:href="#DejaVuSans-52"/>
    </g>
   </g>
   <g id="text_51">
    <!-- b1 -->
    <g transform="translate(235.205625 221.79904)scale(0.08 -0.08)">
     <use xlink:href="#DejaVuSans-98"/>
     <use x="63.476562" xlink:href="#DejaVuSans-49"/>
    </g>
   </g>
   <g id="text_52">
    <!-- q4 -->
    <g transform="translate(265.244157 241.277607)scale(0.08 -0.08)">
     <use xlink:href="#DejaVuSans-113"/>
     <use x="63.476562" xlink:href="#DejaVuSans-52"/>
    </g>
   </g>
   <g id="text_53">
    <!-- q3 -->
    <g transform="translate(283.528481 221.79904)scale(0.08 -0.08)">
     <use xlink:href="#DejaVuSans-113"/>
     <use x="63.476562" xlink:href="#DejaVuSans-51"/>
    </g>
   </g>
   <g id="text_54">
    <!-- q4 -->
    <g transform="translate(301.812805 241.277607)scale(0.08 -0.08)">
     <use xlink:href="#DejaVuSans-113"/>
     <use x="63.476562" xlink:href="#DejaVuSans-52"/>
    </g>
   </g>
   <g id="text_55">
    <!-- b1 -->
    <g transform="translate(331.851337 221.79904)scale(0.08 -0.08)">
     <use xlink:href="#DejaVuSans-98"/>
     <use x="63.476562" xlink:href="#DejaVuSans-49"/>
    </g>
   </g>
   <g id="text_56">
    <!-- q2 -->
    <g transform="translate(363.569041 241.277607)scale(0.08 -0.08)">
     <use xlink:href="#DejaVuSans-113"/>
     <use x="63.476562" xlink:href="#DejaVuSans-50"/>
    </g>
   </g>
   <g id="text_57">
    <!-- q1 -->
    <g transform="translate(383.532538 221.79904)scale(0.08 -0.08)">
     <use xlink:href="#DejaVuSans-113"/>
     <use x="63.476562" xlink:href="#DejaVuSans-49"/>
    </g>
   </g>
  </g>
  <g id="axes_3">
   <g id="patch_34">
    <path d="M 30.58 532.6 
L 450 532.6 
L 450 409.371294 
L 30.58 409.371294 
z
" style="fill:#ffffff;"/>
   </g>
   <g id="matplotlib.axis_5">
    <g id="xtick_17">
     <g id="line2d_41">
      <g>
       <use style="stroke:#000000;stroke-width:0.8;" x="30.58" xlink:href="#m1a34f31308" y="532.6"/>
      </g>
     </g>
     <g id="text_58">
      <!-- 0 -->
      <g transform="translate(27.39875 547.198437)scale(0.1 -0.1)">
       <use xlink:href="#DejaVuSans-48"/>
      </g>
     </g>
    </g>
    <g id="xtick_18">
     <g id="line2d_42">
      <g>
       <use style="stroke:#000000;stroke-width:0.8;" x="84.666987" xlink:href="#m1a34f31308" y="532.6"/>
      </g>
     </g>
     <g id="text_59">
      <!-- 2 -->
      <g transform="translate(81.485737 547.198437)scale(0.1 -0.1)">
       <use xlink:href="#DejaVuSans-50"/>
      </g>
     </g>
    </g>
    <g id="xtick_19">
     <g id="line2d_43">
      <g>
       <use style="stroke:#000000;stroke-width:0.8;" x="138.753974" xlink:href="#m1a34f31308" y="532.6"/>
      </g>
     </g>
     <g id="text_60">
      <!-- 4 -->
      <g transform="translate(135.572724 547.198437)scale(0.1 -0.1)">
       <use xlink:href="#DejaVuSans-52"/>
      </g>
     </g>
    </g>
    <g id="xtick_20">
     <g id="line2d_44">
      <g>
       <use style="stroke:#000000;stroke-width:0.8;" x="192.840961" xlink:href="#m1a34f31308" y="532.6"/>
      </g>
     </g>
     <g id="text_61">
      <!-- 6 -->
      <g transform="translate(189.659711 547.198437)scale(0.1 -0.1)">
       <use xlink:href="#DejaVuSans-54"/>
      </g>
     </g>
    </g>
    <g id="xtick_21">
     <g id="line2d_45">
      <g>
       <use style="stroke:#000000;stroke-width:0.8;" x="246.927948" xlink:href="#m1a34f31308" y="532.6"/>
      </g>
     </g>
     <g id="text_62">
      <!-- 8 -->
      <g transform="translate(243.746698 547.198437)scale(0.1 -0.1)">
       <use xlink:href="#DejaVuSans-56"/>
      </g>
     </g>
    </g>
    <g id="xtick_22">
     <g id="line2d_46">
      <g>
       <use style="stroke:#000000;stroke-width:0.8;" x="301.014936" xlink:href="#m1a34f31308" y="532.6"/>
      </g>
     </g>
     <g id="text_63">
      <!-- 10 -->
      <g transform="translate(294.652436 547.198437)scale(0.1 -0.1)">
       <use xlink:href="#DejaVuSans-49"/>
       <use x="63.623047" xlink:href="#DejaVuSans-48"/>
      </g>
     </g>
    </g>
    <g id="xtick_23">
     <g id="line2d_47">
      <g>
       <use style="stroke:#000000;stroke-width:0.8;" x="355.101923" xlink:href="#m1a34f31308" y="532.6"/>
      </g>
     </g>
     <g id="text_64">
      <!-- 12 -->
      <g transform="translate(348.739423 547.198437)scale(0.1 -0.1)">
       <use xlink:href="#DejaVuSans-49"/>
       <use x="63.623047" xlink:href="#DejaVuSans-50"/>
      </g>
     </g>
    </g>
    <g id="xtick_24">
     <g id="line2d_48">
      <g>
       <use style="stroke:#000000;stroke-width:0.8;" x="409.18891" xlink:href="#m1a34f31308" y="532.6"/>
      </g>
     </g>
     <g id="text_65">
      <!-- 14 -->
      <g transform="translate(402.82641 547.198437)scale(0.1 -0.1)">
       <use xlink:href="#DejaVuSans-49"/>
       <use x="63.623047" xlink:href="#DejaVuSans-52"/>
      </g>
     </g>
    </g>
    <g id="text_66">
     <!-- Orbit Position $s$ / m -->
     <g transform="translate(192.59 560.876562)scale(0.1 -0.1)">
      <use transform="translate(0 0.015625)" xlink:href="#DejaVuSans-79"/>
      <use transform="translate(78.710938 0.015625)" xlink:href="#DejaVuSans-114"/>
      <use transform="translate(119.824219 0.015625)" xlink:href="#DejaVuSans-98"/>
      <use transform="translate(183.300781 0.015625)" xlink:href="#DejaVuSans-105"/>
      <use transform="translate(211.083984 0.015625)" xlink:href="#DejaVuSans-116"/>
      <use transform="translate(250.292969 0.015625)" xlink:href="#DejaVuSans-32"/>
      <use transform="translate(282.080078 0.015625)" xlink:href="#DejaVuSans-80"/>
      <use transform="translate(342.382812 0.015625)" xlink:href="#DejaVuSans-111"/>
      <use transform="translate(403.564453 0.015625)" xlink:href="#DejaVuSans-115"/>
      <use transform="translate(455.664062 0.015625)" xlink:href="#DejaVuSans-105"/>
      <use transform="translate(483.447266 0.015625)" xlink:href="#DejaVuSans-116"/>
      <use transform="translate(522.65625 0.015625)" xlink:href="#DejaVuSans-105"/>
      <use transform="translate(550.439453 0.015625)" xlink:href="#DejaVuSans-111"/>
      <use transform="translate(611.621094 0.015625)" xlink:href="#DejaVuSans-110"/>
      <use transform="translate(675 0.015625)" xlink:href="#DejaVuSans-32"/>
      <use transform="translate(706.787109 0.015625)" xlink:href="#DejaVuSans-Oblique-115"/>
      <use transform="translate(758.886719 0.015625)" xlink:href="#DejaVuSans-32"/>
      <use transform="translate(790.673828 0.015625)" xlink:href="#DejaVuSans-47"/>
      <use transform="translate(824.365234 0.015625)" xlink:href="#DejaVuSans-32"/>
      <use transform="translate(856.152344 0.015625)" xlink:href="#DejaVuSans-109"/>
     </g>
    </g>
   </g>
   <g id="matplotlib.axis_6">
    <g id="ytick_13">
     <g id="line2d_49">
      <g>
       <use style="stroke:#000000;stroke-width:0.8;" x="30.58" xlink:href="#m0c5ec9c7a9" y="530.29881"/>
      </g>
     </g>
     <g id="text_67">
      <!-- 0 -->
      <g transform="translate(17.2175 534.098029)scale(0.1 -0.1)">
       <use xlink:href="#DejaVuSans-48"/>
      </g>
     </g>
    </g>
    <g id="ytick_14">
     <g id="line2d_50">
      <g>
       <use style="stroke:#000000;stroke-width:0.8;" x="30.58" xlink:href="#m0c5ec9c7a9" y="507.286914"/>
      </g>
     </g>
     <g id="text_68">
      <!-- 10 -->
      <g transform="translate(10.855 511.086133)scale(0.1 -0.1)">
       <use xlink:href="#DejaVuSans-49"/>
       <use x="63.623047" xlink:href="#DejaVuSans-48"/>
      </g>
     </g>
    </g>
    <g id="ytick_15">
     <g id="line2d_51">
      <g>
       <use style="stroke:#000000;stroke-width:0.8;" x="30.58" xlink:href="#m0c5ec9c7a9" y="484.275017"/>
      </g>
     </g>
     <g id="text_69">
      <!-- 20 -->
      <g transform="translate(10.855 488.074236)scale(0.1 -0.1)">
       <use xlink:href="#DejaVuSans-50"/>
       <use x="63.623047" xlink:href="#DejaVuSans-48"/>
      </g>
     </g>
    </g>
    <g id="ytick_16">
     <g id="line2d_52">
      <g>
       <use style="stroke:#000000;stroke-width:0.8;" x="30.58" xlink:href="#m0c5ec9c7a9" y="461.263121"/>
      </g>
     </g>
     <g id="text_70">
      <!-- 30 -->
      <g transform="translate(10.855 465.06234)scale(0.1 -0.1)">
       <use xlink:href="#DejaVuSans-51"/>
       <use x="63.623047" xlink:href="#DejaVuSans-48"/>
      </g>
     </g>
    </g>
    <g id="ytick_17">
     <g id="line2d_53">
      <g>
       <use style="stroke:#000000;stroke-width:0.8;" x="30.58" xlink:href="#m0c5ec9c7a9" y="438.251224"/>
      </g>
     </g>
     <g id="text_71">
      <!-- 40 -->
      <g transform="translate(10.855 442.050443)scale(0.1 -0.1)">
       <use xlink:href="#DejaVuSans-52"/>
       <use x="63.623047" xlink:href="#DejaVuSans-48"/>
      </g>
     </g>
    </g>
    <g id="ytick_18">
     <g id="line2d_54">
      <g>
       <use style="stroke:#000000;stroke-width:0.8;" x="30.58" xlink:href="#m0c5ec9c7a9" y="415.239328"/>
      </g>
     </g>
     <g id="text_72">
      <!-- 50 -->
      <g transform="translate(10.855 419.038546)scale(0.1 -0.1)">
       <use xlink:href="#DejaVuSans-53"/>
       <use x="63.623047" xlink:href="#DejaVuSans-48"/>
      </g>
     </g>
    </g>
   </g>
   <g id="patch_35">
    <path d="M 30.58 532.6 
L 30.58 409.371294 
" style="fill:none;stroke:#000000;stroke-linecap:square;stroke-linejoin:miter;stroke-width:0.8;"/>
   </g>
   <g id="patch_36">
    <path d="M 450 532.6 
L 450 409.371294 
" style="fill:none;stroke:#000000;stroke-linecap:square;stroke-linejoin:miter;stroke-width:0.8;"/>
   </g>
   <g id="patch_37">
    <path d="M 30.58 532.6 
L 450 532.6 
" style="fill:none;stroke:#000000;stroke-linecap:square;stroke-linejoin:miter;stroke-width:0.8;"/>
   </g>
   <g id="patch_38">
    <path d="M 30.58 409.371294 
L 450 409.371294 
" style="fill:none;stroke:#000000;stroke-linecap:square;stroke-linejoin:miter;stroke-width:0.8;"/>
   </g>
   <g id="text_73">
    <!-- emittance 1.02e-08 -->
    <g transform="translate(191.010313 441.615473)scale(0.1 -0.1)">
     <use xlink:href="#DejaVuSans-101"/>
     <use x="61.523438" xlink:href="#DejaVuSans-109"/>
     <use x="158.935547" xlink:href="#DejaVuSans-105"/>
     <use x="186.71875" xlink:href="#DejaVuSans-116"/>
     <use x="225.927734" xlink:href="#DejaVuSans-116"/>
     <use x="265.136719" xlink:href="#DejaVuSans-97"/>
     <use x="326.416016" xlink:href="#DejaVuSans-110"/>
     <use x="389.794922" xlink:href="#DejaVuSans-99"/>
     <use x="444.775391" xlink:href="#DejaVuSans-101"/>
     <use x="506.298828" xlink:href="#DejaVuSans-32"/>
     <use x="538.085938" xlink:href="#DejaVuSans-49"/>
     <use x="601.708984" xlink:href="#DejaVuSans-46"/>
     <use x="633.496094" xlink:href="#DejaVuSans-48"/>
     <use x="697.119141" xlink:href="#DejaVuSans-50"/>
     <use x="760.742188" xlink:href="#DejaVuSans-101"/>
     <use x="822.265625" xlink:href="#DejaVuSans-45"/>
     <use x="858.349609" xlink:href="#DejaVuSans-48"/>
     <use x="921.972656" xlink:href="#DejaVuSans-56"/>
    </g>
   </g>
   <g id="line2d_55">
    <path clip-path="url(#padada880f2)" d="M 30.58 530.298811 
L 115.828467 530.264927 
L 119.884991 529.994173 
L 123.941515 529.454333 
L 127.998039 528.648737 
L 132.054563 527.582351 
L 137.770574 525.704987 
L 147.997932 522.12917 
L 149.079672 521.554506 
L 161.913039 514.135005 
L 162.724343 513.992157 
L 163.535648 514.135005 
L 164.076518 514.387927 
L 177.991625 522.375885 
L 179.073365 522.792127 
L 193.394124 527.582351 
L 197.450648 528.648737 
L 201.507172 529.454333 
L 205.563696 529.994173 
L 209.62022 530.264927 
L 217.79473 530.29881 
L 270.95978 530.264927 
L 275.016304 529.994173 
L 279.072828 529.454333 
L 283.129352 528.648737 
L 287.185876 527.582351 
L 292.901887 525.704987 
L 303.129245 522.12917 
L 304.210985 521.554506 
L 317.044352 514.135005 
L 317.855657 513.992157 
L 318.666961 514.135005 
L 319.207831 514.387927 
L 333.122938 522.375885 
L 334.204678 522.792127 
L 348.525437 527.582351 
L 352.581961 528.648737 
L 356.638485 529.454333 
L 360.695009 529.994173 
L 364.751533 530.264927 
L 372.926043 530.29881 
L 450 530.298811 
L 450 530.298811 
" style="fill:none;stroke:#10b981;stroke-linecap:square;stroke-width:1.3;"/>
   </g>
   <g id="line2d_56">
    <path clip-path="url(#padada880f2)" d="M 30.58 521.107494 
L 42.872497 520.988457 
L 55.164994 520.631346 
L 67.457491 520.036161 
L 79.749988 519.202903 
L 80.831728 518.996538 
L 81.913468 518.537259 
L 82.454338 518.206967 
L 86.142087 515.578734 
L 89.829836 512.677484 
L 93.517585 509.503216 
L 99.479446 504.219903 
L 103.966208 500.675567 
L 108.883206 496.624838 
L 113.800205 492.303529 
L 119.884991 488.470426 
L 127.998039 483.052213 
L 134.082825 478.757997 
L 146.916192 474.662426 
L 147.457062 475.02418 
L 147.997932 475.745073 
L 148.538802 476.815668 
L 149.079672 478.221946 
L 151.538171 485.105945 
L 153.996671 491.500332 
L 156.45517 497.405107 
L 158.913669 502.82027 
L 161.642604 508.214411 
L 162.183474 508.88375 
L 162.724343 509.212257 
L 163.265213 509.210207 
L 163.806083 508.877536 
L 164.076518 508.584376 
L 167.764267 503.750128 
L 171.452016 498.422238 
L 175.139766 492.600704 
L 176.909885 489.763142 
L 177.450755 489.235718 
L 177.991625 488.975131 
L 178.532495 488.984791 
L 179.073365 489.264572 
L 185.219613 493.826687 
L 191.365862 498.105896 
L 195.422386 501.730548 
L 199.47891 505.130923 
L 203.535434 508.307023 
L 207.591958 511.258847 
L 220.25323 519.909048 
L 225.834023 523.296735 
L 229.103828 525.942964 
L 231.562327 527.526085 
L 234.020826 528.727971 
L 236.479326 529.548621 
L 238.937825 529.988035 
L 240.560435 530.052713 
L 241.642175 529.988035 
L 244.100674 529.548621 
L 246.559174 528.727971 
L 249.017673 527.526085 
L 251.476172 525.942964 
L 254.205107 523.74456 
L 255.827716 522.502154 
L 256.639021 522.01488 
L 260.32677 519.909048 
L 264.014519 517.543747 
L 267.702268 514.918978 
L 268.931518 513.986395 
L 272.988042 511.258847 
L 277.044566 508.307023 
L 281.10109 505.130923 
L 285.157614 501.730548 
L 289.214138 498.105896 
L 295.360387 493.826687 
L 302.047505 488.984791 
L 302.588375 488.975131 
L 303.129245 489.235718 
L 303.670115 489.763142 
L 304.210985 490.550495 
L 307.898734 496.536576 
L 311.586483 502.029014 
L 315.274232 507.027809 
L 316.773917 508.877536 
L 317.314787 509.210207 
L 317.855657 509.212257 
L 318.396526 508.88375 
L 318.937396 508.214411 
L 319.207831 507.745821 
L 321.666331 502.82027 
L 324.12483 497.405107 
L 326.583329 491.500332 
L 329.041829 485.105945 
L 332.311633 476.237429 
L 332.852503 475.340215 
L 333.393373 474.798003 
L 333.934243 474.617894 
L 334.204678 474.664551 
L 346.497175 478.757997 
L 354.610223 484.439703 
L 362.723271 489.770085 
L 366.779795 492.303529 
L 371.696794 496.624838 
L 376.613792 500.675567 
L 383.128816 505.948703 
L 391.979414 513.674902 
L 395.667163 516.485147 
L 398.666532 518.537259 
L 399.748272 518.996538 
L 400.830012 519.202903 
L 413.122509 520.036161 
L 425.415006 520.631346 
L 437.707503 520.988457 
L 450 521.107494 
L 450 521.107494 
" style="fill:none;stroke:#3b82f6;stroke-linecap:square;stroke-width:1.3;"/>
   </g>
   <g id="patch_39">
    <path d="M 79.749988 409.371294 
L 82.454338 409.371294 
L 82.454338 406.437277 
L 79.749988 406.437277 
z
" style="fill:#ef4444;"/>
   </g>
   <g id="patch_40">
    <path d="M 94.746835 412.305311 
L 101.507708 412.305311 
L 101.507708 409.371294 
L 94.746835 409.371294 
z
" style="fill:#ef4444;"/>
   </g>
   <g id="patch_41">
    <path d="M 113.800205 412.305311 
L 134.082825 412.305311 
L 134.082825 406.437277 
L 113.800205 406.437277 
z
" style="fill:#fbbf24;"/>
   </g>
   <g id="patch_42">
    <path d="M 146.375322 412.305311 
L 149.079672 412.305311 
L 149.079672 409.371294 
L 146.375322 409.371294 
z
" style="fill:#ef4444;"/>
   </g>
   <g id="patch_43">
    <path d="M 161.372169 409.371294 
L 164.076518 409.371294 
L 164.076518 406.437277 
L 161.372169 406.437277 
z
" style="fill:#ef4444;"/>
   </g>
   <g id="patch_44">
    <path d="M 176.369015 412.305311 
L 179.073365 412.305311 
L 179.073365 409.371294 
L 176.369015 409.371294 
z
" style="fill:#ef4444;"/>
   </g>
   <g id="patch_45">
    <path d="M 191.365862 412.305311 
L 211.648482 412.305311 
L 211.648482 406.437277 
L 191.365862 406.437277 
z
" style="fill:#fbbf24;"/>
   </g>
   <g id="patch_46">
    <path d="M 223.940979 412.305311 
L 226.645328 412.305311 
L 226.645328 409.371294 
L 223.940979 409.371294 
z
" style="fill:#ef4444;"/>
   </g>
   <g id="patch_47">
    <path d="M 238.937825 409.371294 
L 241.642175 409.371294 
L 241.642175 406.437277 
L 238.937825 406.437277 
z
" style="fill:#ef4444;"/>
   </g>
   <g id="patch_48">
    <path d="M 253.934672 412.305311 
L 256.639021 412.305311 
L 256.639021 409.371294 
L 253.934672 409.371294 
z
" style="fill:#ef4444;"/>
   </g>
   <g id="patch_49">
    <path d="M 268.931518 412.305311 
L 289.214138 412.305311 
L 289.214138 406.437277 
L 268.931518 406.437277 
z
" style="fill:#fbbf24;"/>
   </g>
   <g id="patch_50">
    <path d="M 301.506635 412.305311 
L 304.210985 412.305311 
L 304.210985 409.371294 
L 301.506635 409.371294 
z
" style="fill:#ef4444;"/>
   </g>
   <g id="patch_51">
    <path d="M 316.503482 409.371294 
L 319.207831 409.371294 
L 319.207831 406.437277 
L 316.503482 406.437277 
z
" style="fill:#ef4444;"/>
   </g>
   <g id="patch_52">
    <path d="M 331.500328 412.305311 
L 334.204678 412.305311 
L 334.204678 409.371294 
L 331.500328 409.371294 
z
" style="fill:#ef4444;"/>
   </g>
   <g id="patch_53">
    <path d="M 346.497175 412.305311 
L 366.779795 412.305311 
L 366.779795 406.437277 
L 346.497175 406.437277 
z
" style="fill:#fbbf24;"/>
   </g>
   <g id="patch_54">
    <path d="M 379.072292 412.305311 
L 385.833165 412.305311 
L 385.833165 409.371294 
L 379.072292 409.371294 
z
" style="fill:#ef4444;"/>
   </g>
   <g id="patch_55">
    <path d="M 398.125662 409.371294 
L 400.830012 409.371294 
L 400.830012 406.437277 
L 398.125662 406.437277 
z
" style="fill:#ef4444;"/>
   </g>
   <g id="line2d_57">
    <path clip-path="url(#padada880f2)" d="M 30.58 472.150831 
L 60.081993 472.042451 
L 80.290858 472.001794 
L 80.831728 472.469416 
L 81.372598 473.247567 
L 82.183903 474.97765 
L 87.371336 488.567966 
L 89.829836 494.352354 
L 92.288335 499.703138 
L 95.422922 505.887814 
L 97.451184 509.40282 
L 99.479446 512.520489 
L 101.507708 515.280254 
L 103.966208 518.255715 
L 106.424707 520.896518 
L 108.883206 523.202661 
L 111.341706 525.174145 
L 113.800205 526.81097 
L 115.828467 527.868423 
L 117.856729 528.720953 
L 119.884991 529.363303 
L 121.913253 529.791514 
L 123.941515 530.002944 
L 125.969777 529.996292 
L 127.998039 529.771596 
L 130.026301 529.330244 
L 132.054563 528.674956 
L 134.082825 527.809772 
L 136.541325 526.421418 
L 138.999824 524.698404 
L 141.458324 522.640732 
L 143.916823 520.2484 
L 146.645757 517.190365 
L 147.727497 515.593255 
L 148.809237 513.493091 
L 150.308921 509.86713 
L 152.767421 503.124429 
L 155.22592 495.418172 
L 157.68442 486.748356 
L 160.142919 477.114984 
L 161.913039 470.048417 
L 162.453909 469.07998 
L 162.724343 468.951368 
L 162.994778 469.061782 
L 163.265213 469.410362 
L 163.806083 470.809316 
L 165.305768 476.95548 
L 167.764267 486.467505 
L 170.222767 495.044386 
L 172.681266 502.686122 
L 175.139766 509.392715 
L 177.18032 514.125909 
L 178.26206 515.949908 
L 179.073365 517.007763 
L 181.531864 519.695051 
L 183.990363 522.071783 
L 186.448863 524.137958 
L 188.907362 525.893576 
L 191.365862 527.338639 
L 193.394124 528.262477 
L 195.422386 528.994735 
L 197.450648 529.530897 
L 199.47891 529.867659 
L 201.507172 530.002944 
L 203.535434 529.935919 
L 205.563696 529.666995 
L 207.591958 529.197832 
L 209.62022 528.531321 
L 211.648482 527.671573 
L 214.106981 526.309334 
L 216.565481 524.636539 
L 219.02398 522.653187 
L 221.482479 520.35928 
L 224.211414 517.438919 
L 225.293154 515.910177 
L 226.374893 513.893611 
L 227.874578 510.408627 
L 230.333077 503.937798 
L 232.791577 496.553363 
L 235.250076 488.255322 
L 237.708576 479.043676 
L 239.478695 472.294353 
L 240.019565 471.379675 
L 240.29 471.264669 
L 240.560435 471.379675 
L 240.83087 471.723797 
L 241.37174 473.086896 
L 242.871424 479.043676 
L 245.329924 488.255322 
L 247.788423 496.553363 
L 250.246923 503.937798 
L 252.705422 510.408627 
L 254.745977 514.968848 
L 255.827716 516.729948 
L 256.639021 517.754815 
L 259.097521 520.35928 
L 261.55602 522.653187 
L 264.014519 524.636539 
L 266.473019 526.309334 
L 268.931518 527.671573 
L 270.95978 528.531321 
L 272.988042 529.197832 
L 275.016304 529.666995 
L 277.044566 529.935919 
L 279.072828 530.002944 
L 281.10109 529.867659 
L 283.129352 529.530897 
L 285.157614 528.994735 
L 287.185876 528.262477 
L 289.214138 527.338639 
L 291.672638 525.893576 
L 294.131137 524.137958 
L 296.589637 522.071783 
L 299.048136 519.695051 
L 301.77707 516.682139 
L 302.85881 515.101542 
L 303.94055 513.010207 
L 305.440234 509.392715 
L 307.898734 502.686122 
L 310.357233 495.044386 
L 312.815733 486.467505 
L 315.274232 476.95548 
L 317.044352 469.99439 
L 317.585222 469.061782 
L 317.855657 468.951368 
L 318.126091 469.07998 
L 318.396526 469.446615 
L 318.937396 470.880695 
L 320.437081 477.114984 
L 322.89558 486.748356 
L 325.35408 495.418172 
L 327.812579 503.124429 
L 330.271079 509.86713 
L 332.311633 514.612285 
L 333.393373 516.448872 
L 334.204678 517.52141 
L 336.663177 520.2484 
L 339.121676 522.640732 
L 341.580176 524.698404 
L 344.038675 526.421418 
L 346.497175 527.809772 
L 348.525437 528.674956 
L 350.553699 529.330244 
L 352.581961 529.771596 
L 354.610223 529.996292 
L 356.638485 530.002944 
L 358.666747 529.791514 
L 360.695009 529.363303 
L 362.723271 528.720953 
L 364.751533 527.868423 
L 366.779795 526.81097 
L 369.238294 525.174145 
L 371.696794 523.202661 
L 374.155293 520.896518 
L 376.613792 518.255715 
L 379.748379 514.397857 
L 381.776641 511.522883 
L 383.804903 508.277387 
L 385.833165 504.620318 
L 388.291665 499.703138 
L 390.750164 494.352354 
L 393.208664 488.567966 
L 395.667163 482.349973 
L 398.936967 473.75058 
L 399.748272 472.469416 
L 400.289142 472.001794 
L 400.830012 471.849777 
L 430.332005 472.102662 
L 450 472.150831 
L 450 472.150831 
" style="fill:none;stroke:#ef4444;stroke-linecap:square;stroke-width:1.3;"/>
   </g>
   <g id="text_74">
    <!-- q1 -->
    <g transform="translate(76.017788 401.839511)scale(0.08 -0.08)">
     <use xlink:href="#DejaVuSans-113"/>
     <use x="63.476562" xlink:href="#DejaVuSans-49"/>
    </g>
   </g>
   <g id="text_75">
    <!-- q2 -->
    <g transform="translate(93.042896 421.318078)scale(0.08 -0.08)">
     <use xlink:href="#DejaVuSans-113"/>
     <use x="63.476562" xlink:href="#DejaVuSans-50"/>
    </g>
   </g>
   <g id="text_76">
    <!-- b1 -->
    <g transform="translate(118.85714 401.839511)scale(0.08 -0.08)">
     <use xlink:href="#DejaVuSans-98"/>
     <use x="63.476562" xlink:href="#DejaVuSans-49"/>
    </g>
   </g>
   <g id="text_77">
    <!-- q4 -->
    <g transform="translate(142.643122 421.318078)scale(0.08 -0.08)">
     <use xlink:href="#DejaVuSans-113"/>
     <use x="63.476562" xlink:href="#DejaVuSans-52"/>
    </g>
   </g>
   <g id="text_78">
    <!-- q3 -->
    <g transform="translate(157.639968 401.839511)scale(0.08 -0.08)">
     <use xlink:href="#DejaVuSans-113"/>
     <use x="63.476562" xlink:href="#DejaVuSans-51"/>
    </g>
   </g>
   <g id="text_79">
    <!-- q4 -->
    <g transform="translate(172.636815 421.318078)scale(0.08 -0.08)">
     <use xlink:href="#DejaVuSans-113"/>
     <use x="63.476562" xlink:href="#DejaVuSans-52"/>
    </g>
   </g>
   <g id="text_80">
    <!-- b1 -->
    <g transform="translate(196.422797 401.839511)scale(0.08 -0.08)">
     <use xlink:href="#DejaVuSans-98"/>
     <use x="63.476562" xlink:href="#DejaVuSans-49"/>
    </g>
   </g>
   <g id="text_81">
    <!-- q4 -->
    <g transform="translate(220.208779 421.318078)scale(0.08 -0.08)">
     <use xlink:href="#DejaVuSans-113"/>
     <use x="63.476562" xlink:href="#DejaVuSans-52"/>
    </g>
   </g>
   <g id="text_82">
    <!-- q3 -->
    <g transform="translate(235.205625 401.839511)scale(0.08 -0.08)">
     <use xlink:href="#DejaVuSans-113"/>
     <use x="63.476562" xlink:href="#DejaVuSans-51"/>
    </g>
   </g>
   <g id="text_83">
    <!-- q4 -->
    <g transform="translate(250.202471 421.318078)scale(0.08 -0.08)">
     <use xlink:href="#DejaVuSans-113"/>
     <use x="63.476562" xlink:href="#DejaVuSans-52"/>
    </g>
   </g>
   <g id="text_84">
    <!-- b1 -->
    <g transform="translate(273.988453 401.839511)scale(0.08 -0.08)">
     <use xlink:href="#DejaVuSans-98"/>
     <use x="63.476562" xlink:href="#DejaVuSans-49"/>
    </g>
   </g>
   <g id="text_85">
    <!-- q4 -->
    <g transform="translate(297.774435 421.318078)scale(0.08 -0.08)">
     <use xlink:href="#DejaVuSans-113"/>
     <use x="63.476562" xlink:href="#DejaVuSans-52"/>
    </g>
   </g>
   <g id="text_86">
    <!-- q3 -->
    <g transform="translate(312.771282 401.839511)scale(0.08 -0.08)">
     <use xlink:href="#DejaVuSans-113"/>
     <use x="63.476562" xlink:href="#DejaVuSans-51"/>
    </g>
   </g>
   <g id="text_87">
    <!-- q4 -->
    <g transform="translate(327.768128 421.318078)scale(0.08 -0.08)">
     <use xlink:href="#DejaVuSans-113"/>
     <use x="63.476562" xlink:href="#DejaVuSans-52"/>
    </g>
   </g>
   <g id="text_88">
    <!-- b1 -->
    <g transform="translate(351.55411 401.839511)scale(0.08 -0.08)">
     <use xlink:href="#DejaVuSans-98"/>
     <use x="63.476562" xlink:href="#DejaVuSans-49"/>
    </g>
   </g>
   <g id="text_89">
    <!-- q2 -->
    <g transform="translate(377.368354 421.318078)scale(0.08 -0.08)">
     <use xlink:href="#DejaVuSans-113"/>
     <use x="63.476562" xlink:href="#DejaVuSans-50"/>
    </g>
   </g>
   <g id="text_90">
    <!-- q1 -->
    <g transform="translate(394.393462 401.839511)scale(0.08 -0.08)">
     <use xlink:href="#DejaVuSans-113"/>
     <use x="63.476562" xlink:href="#DejaVuSans-49"/>
    </g>
   </g>
  </g>
 </g>
 <defs>
  <clipPath id="p4c1f45bc33">
   <rect height="123.228706" width="419.42" x="30.58" y="49.290353"/>
  </clipPath>
  <clipPath id="p0031f422d4">
   <rect height="123.228706" width="419.42" x="30.58" y="229.330824"/>
  </clipPath>
  <clipPath id="padada880f2">
   <rect height="123.228706" width="419.42" x="30.58" y="409.371294"/>
  </clipPath>
 </defs>
</svg>
