<?xml version="1.0" encoding="utf-8" standalone="no"?>
<!DOCTYPE svg PUBLIC "-//W3C//DTD SVG 1.1//EN"
  "http://www.w3.org/Graphics/SVG/1.1/DTD/svg11.dtd">
<svg xmlns:xlink="http://www.w3.org/1999/xlink" width="648pt" height="504pt" viewBox="0 0 648 504" xmlns="http://www.w3.org/2000/svg" version="1.1">
 <metadata>
  <rdf:RDF xmlns:dc="http://purl.org/dc/elements/1.1/" xmlns:cc="http://creativecommons.org/ns#" xmlns:rdf="http://www.w3.org/1999/02/22-rdf-syntax-ns#">
   <cc:Work>
    <dc:type rdf:resource="http://purl.org/dc/dcmitype/StillImage"/>
    <dc:format>image/svg+xml</dc:format>
    <dc:creator>
     <cc:Agent>
      <dc:title>Matplotlib v3.5.0, https://matplotlib.org/</dc:title>
     </cc:Agent>
    </dc:creator>
   </cc:Work>
  </rdf:RDF>
 </metadata>
 <defs>
  <style type="text/css">*{stroke-linejoin: round; stroke-linecap: butt}</style>
 </defs>
 <g id="figure_1">
  <g id="patch_1">
   <path d="M 0 504 
L 648 504 
L 648 0 
L 0 0 
z
" style="fill: #ffffff"/>
  </g>
  <g id="axes_1">
   <g id="patch_2">
    <path d="M 47.72 222.48 
L 626.175 222.48 
L 626.175 10.8 
L 47.72 10.8 
z
" style="fill: #ffffff"/>
   </g>
   <g id="matplotlib.axis_1">
    <g id="xtick_1">
     <g id="line2d_1">
      <defs>
       <path id="m1b5c85cee3" d="M 0 0 
L 0 3.5 
" style="stroke: #000000; stroke-width: 0.8"/>
      </defs>
      <g>
       <use xlink:href="#m1b5c85cee3" x="47.72" y="222.48" style="stroke: #000000; stroke-width: 0.8"/>
      </g>
     </g>
     <g id="text_1">
      <!-- 0.00 -->
      <g transform="translate(36.587188 237.078438)scale(0.1 -0.1)">
       <defs>
        <path id="DejaVuSans-30" d="M 2034 4250 
Q 1547 4250 1301 3770 
Q 1056 3291 1056 2328 
Q 1056 1369 1301 889 
Q 1547 409 2034 409 
Q 2525 409 2770 889 
Q 3016 1369 3016 2328 
Q 3016 3291 2770 3770 
Q 2525 4250 2034 4250 
z
M 2034 4750 
Q 2819 4750 3233 4129 
Q 3647 3509 3647 2328 
Q 3647 1150 3233 529 
Q 2819 -91 2034 -91 
Q 1250 -91 836 529 
Q 422 1150 422 2328 
Q 422 3509 836 4129 
Q 1250 4750 2034 4750 
z
" transform="scale(0.015625)"/>
        <path id="DejaVuSans-2e" d="M 684 794 
L 1344 794 
L 1344 0 
L 684 0 
L 684 794 
z
" transform="scale(0.015625)"/>
       </defs>
       <use xlink:href="#DejaVuSans-30"/>
       <use xlink:href="#DejaVuSans-2e" x="63.623047"/>
       <use xlink:href="#DejaVuSans-30" x="95.410156"/>
       <use xlink:href="#DejaVuSans-30" x="159.033203"/>
      </g>
     </g>
    </g>
    <g id="xtick_2">
     <g id="line2d_2">
      <g>
       <use xlink:href="#m1b5c85cee3" x="120.026875" y="222.48" style="stroke: #000000; stroke-width: 0.8"/>
      </g>
     </g>
     <g id="text_2">
      <!-- 0.25 -->
      <g transform="translate(108.894063 237.078438)scale(0.1 -0.1)">
       <defs>
        <path id="DejaVuSans-32" d="M 1228 531 
L 3431 531 
L 3431 0 
L 469 0 
L 469 531 
Q 828 903 1448 1529 
Q 2069 2156 2228 2338 
Q 2531 2678 2651 2914 
Q 2772 3150 2772 3378 
Q 2772 3750 2511 3984 
Q 2250 4219 1831 4219 
Q 1534 4219 1204 4116 
Q 875 4013 500 3803 
L 500 4441 
Q 881 4594 1212 4672 
Q 1544 4750 1819 4750 
Q 2544 4750 2975 4387 
Q 3406 4025 3406 3419 
Q 3406 3131 3298 2873 
Q 3191 2616 2906 2266 
Q 2828 2175 2409 1742 
Q 1991 1309 1228 531 
z
" transform="scale(0.015625)"/>
        <path id="DejaVuSans-35" d="M 691 4666 
L 3169 4666 
L 3169 4134 
L 1269 4134 
L 1269 2991 
Q 1406 3038 1543 3061 
Q 1681 3084 1819 3084 
Q 2600 3084 3056 2656 
Q 3513 2228 3513 1497 
Q 3513 744 3044 326 
Q 2575 -91 1722 -91 
Q 1428 -91 1123 -41 
Q 819 9 494 109 
L 494 744 
Q 775 591 1075 516 
Q 1375 441 1709 441 
Q 2250 441 2565 725 
Q 2881 1009 2881 1497 
Q 2881 1984 2565 2268 
Q 2250 2553 1709 2553 
Q 1456 2553 1204 2497 
Q 953 2441 691 2322 
L 691 4666 
z
" transform="scale(0.015625)"/>
       </defs>
       <use xlink:href="#DejaVuSans-30"/>
       <use xlink:href="#DejaVuSans-2e" x="63.623047"/>
       <use xlink:href="#DejaVuSans-32" x="95.410156"/>
       <use xlink:href="#DejaVuSans-35" x="159.033203"/>
      </g>
     </g>
    </g>
    <g id="xtick_3">
     <g id="line2d_3">
      <g>
       <use xlink:href="#m1b5c85cee3" x="192.33375" y="222.48" style="stroke: #000000; stroke-width: 0.8"/>
      </g>
     </g>
     <g id="text_3">
      <!-- 0.50 -->
      <g transform="translate(181.200938 237.078438)scale(0.1 -0.1)">
       <use xlink:href="#DejaVuSans-30"/>
       <use xlink:href="#DejaVuSans-2e" x="63.623047"/>
       <use xlink:href="#DejaVuSans-35" x="95.410156"/>
       <use xlink:href="#DejaVuSans-30" x="159.033203"/>
      </g>
     </g>
    </g>
    <g id="xtick_4">
     <g id="line2d_4">
      <g>
       <use xlink:href="#m1b5c85cee3" x="264.640625" y="222.48" style="stroke: #000000; stroke-width: 0.8"/>
      </g>
     </g>
     <g id="text_4">
      <!-- 0.75 -->
      <g transform="translate(253.507812 237.078438)scale(0.1 -0.1)">
       <defs>
        <path id="DejaVuSans-37" d="M 525 4666 
L 3525 4666 
L 3525 4397 
L 1831 0 
L 1172 0 
L 2766 4134 
L 525 4134 
L 525 4666 
z
" transform="scale(0.015625)"/>
       </defs>
       <use xlink:href="#DejaVuSans-30"/>
       <use xlink:href="#DejaVuSans-2e" x="63.623047"/>
       <use xlink:href="#DejaVuSans-37" x="95.410156"/>
       <use xlink:href="#DejaVuSans-35" x="159.033203"/>
      </g>
     </g>
    </g>
    <g id="xtick_5">
     <g id="line2d_5">
      <g>
       <use xlink:href="#m1b5c85cee3" x="336.9475" y="222.48" style="stroke: #000000; stroke-width: 0.8"/>
      </g>
     </g>
     <g id="text_5">
      <!-- 1.00 -->
      <g transform="translate(325.814687 237.078438)scale(0.1 -0.1)">
       <defs>
        <path id="DejaVuSans-31" d="M 794 531 
L 1825 531 
L 1825 4091 
L 703 3866 
L 703 4441 
L 1819 4666 
L 2450 4666 
L 2450 531 
L 3481 531 
L 3481 0 
L 794 0 
L 794 531 
z
" transform="scale(0.015625)"/>
       </defs>
       <use xlink:href="#DejaVuSans-31"/>
       <use xlink:href="#DejaVuSans-2e" x="63.623047"/>
       <use xlink:href="#DejaVuSans-30" x="95.410156"/>
       <use xlink:href="#DejaVuSans-30" x="159.033203"/>
      </g>
     </g>
    </g>
    <g id="xtick_6">
     <g id="line2d_6">
      <g>
       <use xlink:href="#m1b5c85cee3" x="409.254375" y="222.48" style="stroke: #000000; stroke-width: 0.8"/>
      </g>
     </g>
     <g id="text_6">
      <!-- 1.25 -->
      <g transform="translate(398.121562 237.078438)scale(0.1 -0.1)">
       <use xlink:href="#DejaVuSans-31"/>
       <use xlink:href="#DejaVuSans-2e" x="63.623047"/>
       <use xlink:href="#DejaVuSans-32" x="95.410156"/>
       <use xlink:href="#DejaVuSans-35" x="159.033203"/>
      </g>
     </g>
    </g>
    <g id="xtick_7">
     <g id="line2d_7">
      <g>
       <use xlink:href="#m1b5c85cee3" x="481.56125" y="222.48" style="stroke: #000000; stroke-width: 0.8"/>
      </g>
     </g>
     <g id="text_7">
      <!-- 1.50 -->
      <g transform="translate(470.428437 237.078438)scale(0.1 -0.1)">
       <use xlink:href="#DejaVuSans-31"/>
       <use xlink:href="#DejaVuSans-2e" x="63.623047"/>
       <use xlink:href="#DejaVuSans-35" x="95.410156"/>
       <use xlink:href="#DejaVuSans-30" x="159.033203"/>
      </g>
     </g>
    </g>
    <g id="xtick_8">
     <g id="line2d_8">
      <g>
       <use xlink:href="#m1b5c85cee3" x="553.868125" y="222.48" style="stroke: #000000; stroke-width: 0.8"/>
      </g>
     </g>
     <g id="text_8">
      <!-- 1.75 -->
      <g transform="translate(542.735312 237.078438)scale(0.1 -0.1)">
       <use xlink:href="#DejaVuSans-31"/>
       <use xlink:href="#DejaVuSans-2e" x="63.623047"/>
       <use xlink:href="#DejaVuSans-37" x="95.410156"/>
       <use xlink:href="#DejaVuSans-35" x="159.033203"/>
      </g>
     </g>
    </g>
    <g id="xtick_9">
     <g id="line2d_9">
      <g>
       <use xlink:href="#m1b5c85cee3" x="626.175" y="222.48" style="stroke: #000000; stroke-width: 0.8"/>
      </g>
     </g>
     <g id="text_9">
      <!-- 2.00 -->
      <g transform="translate(615.042187 237.078438)scale(0.1 -0.1)">
       <use xlink:href="#DejaVuSans-32"/>
       <use xlink:href="#DejaVuSans-2e" x="63.623047"/>
       <use xlink:href="#DejaVuSans-30" x="95.410156"/>
       <use xlink:href="#DejaVuSans-30" x="159.033203"/>
      </g>
     </g>
    </g>
   </g>
   <g id="matplotlib.axis_2">
    <g id="ytick_1">
     <g id="line2d_10">
      <defs>
       <path id="md612d8602d" d="M 0 0 
L -3.5 0 
" style="stroke: #000000; stroke-width: 0.8"/>
      </defs>
      <g>
       <use xlink:href="#md612d8602d" x="47.72" y="204.84" style="stroke: #000000; stroke-width: 0.8"/>
      </g>
     </g>
     <g id="text_10">
      <!-- 0.0 -->
      <g transform="translate(24.816875 208.639219)scale(0.1 -0.1)">
       <use xlink:href="#DejaVuSans-30"/>
       <use xlink:href="#DejaVuSans-2e" x="63.623047"/>
       <use xlink:href="#DejaVuSans-30" x="95.410156"/>
      </g>
     </g>
    </g>
    <g id="ytick_2">
     <g id="line2d_11">
      <g>
       <use xlink:href="#md612d8602d" x="47.72" y="169.56" style="stroke: #000000; stroke-width: 0.8"/>
      </g>
     </g>
     <g id="text_11">
      <!-- 0.2 -->
      <g transform="translate(24.816875 173.359219)scale(0.1 -0.1)">
       <use xlink:href="#DejaVuSans-30"/>
       <use xlink:href="#DejaVuSans-2e" x="63.623047"/>
       <use xlink:href="#DejaVuSans-32" x="95.410156"/>
      </g>
     </g>
    </g>
    <g id="ytick_3">
     <g id="line2d_12">
      <g>
       <use xlink:href="#md612d8602d" x="47.72" y="134.28" style="stroke: #000000; stroke-width: 0.8"/>
      </g>
     </g>
     <g id="text_12">
      <!-- 0.4 -->
      <g transform="translate(24.816875 138.079219)scale(0.1 -0.1)">
       <defs>
        <path id="DejaVuSans-34" d="M 2419 4116 
L 825 1625 
L 2419 1625 
L 2419 4116 
z
M 2253 4666 
L 3047 4666 
L 3047 1625 
L 3713 1625 
L 3713 1100 
L 3047 1100 
L 3047 0 
L 2419 0 
L 2419 1100 
L 313 1100 
L 313 1709 
L 2253 4666 
z
" transform="scale(0.015625)"/>
       </defs>
       <use xlink:href="#DejaVuSans-30"/>
       <use xlink:href="#DejaVuSans-2e" x="63.623047"/>
       <use xlink:href="#DejaVuSans-34" x="95.410156"/>
      </g>
     </g>
    </g>
    <g id="ytick_4">
     <g id="line2d_13">
      <g>
       <use xlink:href="#md612d8602d" x="47.72" y="99" style="stroke: #000000; stroke-width: 0.8"/>
      </g>
     </g>
     <g id="text_13">
      <!-- 0.6 -->
      <g transform="translate(24.816875 102.799219)scale(0.1 -0.1)">
       <defs>
        <path id="DejaVuSans-36" d="M 2113 2584 
Q 1688 2584 1439 2293 
Q 1191 2003 1191 1497 
Q 1191 994 1439 701 
Q 1688 409 2113 409 
Q 2538 409 2786 701 
Q 3034 994 3034 1497 
Q 3034 2003 2786 2293 
Q 2538 2584 2113 2584 
z
M 3366 4563 
L 3366 3988 
Q 3128 4100 2886 4159 
Q 2644 4219 2406 4219 
Q 1781 4219 1451 3797 
Q 1122 3375 1075 2522 
Q 1259 2794 1537 2939 
Q 1816 3084 2150 3084 
Q 2853 3084 3261 2657 
Q 3669 2231 3669 1497 
Q 3669 778 3244 343 
Q 2819 -91 2113 -91 
Q 1303 -91 875 529 
Q 447 1150 447 2328 
Q 447 3434 972 4092 
Q 1497 4750 2381 4750 
Q 2619 4750 2861 4703 
Q 3103 4656 3366 4563 
z
" transform="scale(0.015625)"/>
       </defs>
       <use xlink:href="#DejaVuSans-30"/>
       <use xlink:href="#DejaVuSans-2e" x="63.623047"/>
       <use xlink:href="#DejaVuSans-36" x="95.410156"/>
      </g>
     </g>
    </g>
    <g id="ytick_5">
     <g id="line2d_14">
      <g>
       <use xlink:href="#md612d8602d" x="47.72" y="63.72" style="stroke: #000000; stroke-width: 0.8"/>
      </g>
     </g>
     <g id="text_14">
      <!-- 0.8 -->
      <g transform="translate(24.816875 67.519219)scale(0.1 -0.1)">
       <defs>
        <path id="DejaVuSans-38" d="M 2034 2216 
Q 1584 2216 1326 1975 
Q 1069 1734 1069 1313 
Q 1069 891 1326 650 
Q 1584 409 2034 409 
Q 2484 409 2743 651 
Q 3003 894 3003 1313 
Q 3003 1734 2745 1975 
Q 2488 2216 2034 2216 
z
M 1403 2484 
Q 997 2584 770 2862 
Q 544 3141 544 3541 
Q 544 4100 942 4425 
Q 1341 4750 2034 4750 
Q 2731 4750 3128 4425 
Q 3525 4100 3525 3541 
Q 3525 3141 3298 2862 
Q 3072 2584 2669 2484 
Q 3125 2378 3379 2068 
Q 3634 1759 3634 1313 
Q 3634 634 3220 271 
Q 2806 -91 2034 -91 
Q 1263 -91 848 271 
Q 434 634 434 1313 
Q 434 1759 690 2068 
Q 947 2378 1403 2484 
z
M 1172 3481 
Q 1172 3119 1398 2916 
Q 1625 2713 2034 2713 
Q 2441 2713 2670 2916 
Q 2900 3119 2900 3481 
Q 2900 3844 2670 4047 
Q 2441 4250 2034 4250 
Q 1625 4250 1398 4047 
Q 1172 3844 1172 3481 
z
" transform="scale(0.015625)"/>
       </defs>
       <use xlink:href="#DejaVuSans-30"/>
       <use xlink:href="#DejaVuSans-2e" x="63.623047"/>
       <use xlink:href="#DejaVuSans-38" x="95.410156"/>
      </g>
     </g>
    </g>
    <g id="ytick_6">
     <g id="line2d_15">
      <g>
       <use xlink:href="#md612d8602d" x="47.72" y="28.44" style="stroke: #000000; stroke-width: 0.8"/>
      </g>
     </g>
     <g id="text_15">
      <!-- 1.0 -->
      <g transform="translate(24.816875 32.239219)scale(0.1 -0.1)">
       <use xlink:href="#DejaVuSans-31"/>
       <use xlink:href="#DejaVuSans-2e" x="63.623047"/>
       <use xlink:href="#DejaVuSans-30" x="95.410156"/>
      </g>
     </g>
    </g>
    <g id="text_16">
     <!-- Injection Efficiency -->
     <g transform="translate(18.737188 163.825938)rotate(-90)scale(0.1 -0.1)">
      <defs>
       <path id="DejaVuSans-49" d="M 628 4666 
L 1259 4666 
L 1259 0 
L 628 0 
L 628 4666 
z
" transform="scale(0.015625)"/>
       <path id="DejaVuSans-6e" d="M 3513 2113 
L 3513 0 
L 2938 0 
L 2938 2094 
Q 2938 2591 2744 2837 
Q 2550 3084 2163 3084 
Q 1697 3084 1428 2787 
Q 1159 2491 1159 1978 
L 1159 0 
L 581 0 
L 581 3500 
L 1159 3500 
L 1159 2956 
Q 1366 3272 1645 3428 
Q 1925 3584 2291 3584 
Q 2894 3584 3203 3211 
Q 3513 2838 3513 2113 
z
" transform="scale(0.015625)"/>
       <path id="DejaVuSans-6a" d="M 603 3500 
L 1178 3500 
L 1178 -63 
Q 1178 -731 923 -1031 
Q 669 -1331 103 -1331 
L -116 -1331 
L -116 -844 
L 38 -844 
Q 366 -844 484 -692 
Q 603 -541 603 -63 
L 603 3500 
z
M 603 4863 
L 1178 4863 
L 1178 4134 
L 603 4134 
L 603 4863 
z
" transform="scale(0.015625)"/>
       <path id="DejaVuSans-65" d="M 3597 1894 
L 3597 1613 
L 953 1613 
Q 991 1019 1311 708 
Q 1631 397 2203 397 
Q 2534 397 2845 478 
Q 3156 559 3463 722 
L 3463 178 
Q 3153 47 2828 -22 
Q 2503 -91 2169 -91 
Q 1331 -91 842 396 
Q 353 884 353 1716 
Q 353 2575 817 3079 
Q 1281 3584 2069 3584 
Q 2775 3584 3186 3129 
Q 3597 2675 3597 1894 
z
M 3022 2063 
Q 3016 2534 2758 2815 
Q 2500 3097 2075 3097 
Q 1594 3097 1305 2825 
Q 1016 2553 972 2059 
L 3022 2063 
z
" transform="scale(0.015625)"/>
       <path id="DejaVuSans-63" d="M 3122 3366 
L 3122 2828 
Q 2878 2963 2633 3030 
Q 2388 3097 2138 3097 
Q 1578 3097 1268 2742 
Q 959 2388 959 1747 
Q 959 1106 1268 751 
Q 1578 397 2138 397 
Q 2388 397 2633 464 
Q 2878 531 3122 666 
L 3122 134 
Q 2881 22 2623 -34 
Q 2366 -91 2075 -91 
Q 1284 -91 818 406 
Q 353 903 353 1747 
Q 353 2603 823 3093 
Q 1294 3584 2113 3584 
Q 2378 3584 2631 3529 
Q 2884 3475 3122 3366 
z
" transform="scale(0.015625)"/>
       <path id="DejaVuSans-74" d="M 1172 4494 
L 1172 3500 
L 2356 3500 
L 2356 3053 
L 1172 3053 
L 1172 1153 
Q 1172 725 1289 603 
Q 1406 481 1766 481 
L 2356 481 
L 2356 0 
L 1766 0 
Q 1100 0 847 248 
Q 594 497 594 1153 
L 594 3053 
L 172 3053 
L 172 3500 
L 594 3500 
L 594 4494 
L 1172 4494 
z
" transform="scale(0.015625)"/>
       <path id="DejaVuSans-69" d="M 603 3500 
L 1178 3500 
L 1178 0 
L 603 0 
L 603 3500 
z
M 603 4863 
L 1178 4863 
L 1178 4134 
L 603 4134 
L 603 4863 
z
" transform="scale(0.015625)"/>
       <path id="DejaVuSans-6f" d="M 1959 3097 
Q 1497 3097 1228 2736 
Q 959 2375 959 1747 
Q 959 1119 1226 758 
Q 1494 397 1959 397 
Q 2419 397 2687 759 
Q 2956 1122 2956 1747 
Q 2956 2369 2687 2733 
Q 2419 3097 1959 3097 
z
M 1959 3584 
Q 2709 3584 3137 3096 
Q 3566 2609 3566 1747 
Q 3566 888 3137 398 
Q 2709 -91 1959 -91 
Q 1206 -91 779 398 
Q 353 888 353 1747 
Q 353 2609 779 3096 
Q 1206 3584 1959 3584 
z
" transform="scale(0.015625)"/>
       <path id="DejaVuSans-20" transform="scale(0.015625)"/>
       <path id="DejaVuSans-45" d="M 628 4666 
L 3578 4666 
L 3578 4134 
L 1259 4134 
L 1259 2753 
L 3481 2753 
L 3481 2222 
L 1259 2222 
L 1259 531 
L 3634 531 
L 3634 0 
L 628 0 
L 628 4666 
z
" transform="scale(0.015625)"/>
       <path id="DejaVuSans-66" d="M 2375 4863 
L 2375 4384 
L 1825 4384 
Q 1516 4384 1395 4259 
Q 1275 4134 1275 3809 
L 1275 3500 
L 2222 3500 
L 2222 3053 
L 1275 3053 
L 1275 0 
L 697 0 
L 697 3053 
L 147 3053 
L 147 3500 
L 697 3500 
L 697 3744 
Q 697 4328 969 4595 
Q 1241 4863 1831 4863 
L 2375 4863 
z
" transform="scale(0.015625)"/>
       <path id="DejaVuSans-79" d="M 2059 -325 
Q 1816 -950 1584 -1140 
Q 1353 -1331 966 -1331 
L 506 -1331 
L 506 -850 
L 844 -850 
Q 1081 -850 1212 -737 
Q 1344 -625 1503 -206 
L 1606 56 
L 191 3500 
L 800 3500 
L 1894 763 
L 2988 3500 
L 3597 3500 
L 2059 -325 
z
" transform="scale(0.015625)"/>
      </defs>
      <use xlink:href="#DejaVuSans-49"/>
      <use xlink:href="#DejaVuSans-6e" x="29.492188"/>
      <use xlink:href="#DejaVuSans-6a" x="92.871094"/>
      <use xlink:href="#DejaVuSans-65" x="120.654297"/>
      <use xlink:href="#DejaVuSans-63" x="182.177734"/>
      <use xlink:href="#DejaVuSans-74" x="237.158203"/>
      <use xlink:href="#DejaVuSans-69" x="276.367188"/>
      <use xlink:href="#DejaVuSans-6f" x="304.150391"/>
      <use xlink:href="#DejaVuSans-6e" x="365.332031"/>
      <use xlink:href="#DejaVuSans-20" x="428.710938"/>
      <use xlink:href="#DejaVuSans-45" x="460.498047"/>
      <use xlink:href="#DejaVuSans-66" x="523.681641"/>
      <use xlink:href="#DejaVuSans-66" x="558.886719"/>
      <use xlink:href="#DejaVuSans-69" x="594.091797"/>
      <use xlink:href="#DejaVuSans-63" x="621.875"/>
      <use xlink:href="#DejaVuSans-69" x="676.855469"/>
      <use xlink:href="#DejaVuSans-65" x="704.638672"/>
      <use xlink:href="#DejaVuSans-6e" x="766.162109"/>
      <use xlink:href="#DejaVuSans-63" x="829.541016"/>
      <use xlink:href="#DejaVuSans-79" x="884.521484"/>
     </g>
    </g>
   </g>
   <g id="line2d_16">
    <path d="M 47.72 223.135855 
L 47.72 73.801084 
L 47.72 76.342478 
L 50.612275 76.342478 
L 50.612275 73.794733 
L 53.50455 80.101386 
L 53.50455 79.952504 
L 56.396825 79.683847 
L 56.396825 78.228371 
L 59.2891 80.744364 
L 59.2891 84.52003 
L 62.181375 77.347782 
L 62.181375 82.087121 
L 65.07365 92.196605 
L 65.07365 90.25303 
L 67.965925 92.009974 
L 67.965925 79.808209 
L 70.8582 95.096268 
L 70.8582 90.04576 
L 73.750475 90.672156 
L 73.750475 101.850977 
L 76.64275 98.652316 
L 76.64275 115.844612 
L 79.535025 95.853377 
L 79.535025 109.889878 
L 82.4273 111.52246 
L 82.4273 120.426779 
L 85.319575 117.86845 
L 85.319575 120.728776 
L 88.21185 123.911561 
L 88.21185 127.453673 
L 91.104125 125.538322 
L 91.104125 139.714708 
L 93.9964 146.836505 
L 93.9964 151.383215 
L 96.888675 152.3767 
L 96.888675 153.998345 
L 99.78095 162.970931 
L 99.78095 174.368135 
L 102.673225 172.581732 
L 102.673225 179.772325 
L 105.5655 179.961426 
L 105.5655 180.68449 
L 108.457775 184.799725 
L 108.457775 192.303252 
L 111.35005 194.416789 
L 111.35005 206.658084 
L 114.242325 199.0931 
L 114.242325 208.590317 
L 117.1346 205.357078 
L 117.1346 209.089582 
L 120.026875 209.089582 
L 120.026875 208.037603 
L 122.91915 209.512571 
L 122.91915 208.884076 
L 125.811425 211.8972 
L 125.811425 212.991179 
L 128.7037 215.977861 
L 128.7037 213.242214 
L 131.595975 217.040477 
L 131.595975 216.937389 
L 134.48825 216.887873 
L 134.48825 218.932684 
L 137.380525 218.338922 
L 137.380525 219.051595 
L 140.2728 218.562826 
L 140.2728 219.498999 
L 143.165075 219.498999 
L 143.165075 225.880463 
L 146.05735 219.363083 
L 146.05735 217.983899 
L 148.949625 221.906012 
L 148.949625 229.756853 
L 151.8419 216.338705 
L 151.8419 217.94622 
L 154.734175 218.947572 
L 154.734175 216.771678 
L 157.62645 220.353763 
L 157.62645 219.490285 
L 160.518725 218.446737 
L 160.518725 217.742161 
L 163.411 216.799885 
L 163.411 218.309922 
L 166.303275 220.681937 
L 166.303275 220.376765 
L 169.19555 220.376765 
L 169.19555 218.208968 
L 172.087825 219.517062 
L 172.087825 218.970451 
L 174.9801 218.970451 
L 174.9801 217.65105 
L 177.872375 219.496564 
L 177.872375 219.496564 
L 180.76465 216.873973 
L 180.76465 216.465272 
L 183.656925 218.270461 
L 183.656925 218.270461 
L 186.5492 216.727384 
L 186.5492 215.976414 
L 189.441475 216.28522 
L 189.441475 215.91762 
L 192.33375 216.224327 
L 192.33375 215.551131 
L 195.226025 214.366535 
L 195.226025 215.852846 
L 198.1183 215.444021 
L 198.1183 215.861578 
L 201.010575 213.598683 
L 201.010575 215.343015 
L 203.90285 214.037337 
L 203.90285 216.372009 
L 206.795125 214.512788 
L 206.795125 213.080967 
L 209.6874 214.910429 
L 209.6874 227.184941 
L 212.579675 214.64904 
L 212.579675 214.64904 
L 215.47195 214.288531 
L 215.47195 213.720047 
L 218.364225 212.088893 
L 218.364225 213.237222 
L 221.2565 212.487205 
L 221.2565 213.956317 
L 224.148775 213.173559 
L 227.04105 212.11904 
L 227.04105 212.997142 
L 229.933325 212.997142 
L 229.933325 226.522912 
L 232.8256 226.522912 
L 232.8256 213.390408 
L 235.717875 212.19057 
L 235.717875 211.797163 
L 238.61015 211.797163 
L 238.61015 212.532716 
L 241.502425 211.899898 
L 241.502425 211.772114 
L 244.3947 212.039149 
L 244.3947 211.482712 
L 247.286975 212.320736 
L 247.286975 211.928528 
L 250.17925 211.560223 
L 250.17925 212.570589 
L 253.071525 212.048727 
L 253.071525 214.615435 
L 255.9638 212.896664 
L 255.9638 211.500194 
L 258.856075 211.761654 
L 258.856075 212.007979 
L 261.74835 212.007979 
L 261.74835 212.505621 
L 264.640625 211.896406 
L 264.640625 212.193622 
L 267.5329 214.095814 
L 267.5329 211.564403 
L 270.425175 212.540601 
L 270.425175 221.942421 
L 273.31745 212.609062 
L 273.31745 225.858413 
L 276.209725 212.479249 
L 279.102 213.492526 
L 279.102 212.774119 
L 281.994275 212.548504 
L 281.994275 212.816843 
L 284.88655 212.16097 
L 284.88655 213.753404 
L 287.778825 227.660515 
L 287.778825 213.763247 
L 290.6711 212.689553 
L 290.6711 213.692122 
L 293.563375 214.613901 
L 293.563375 214.029029 
L 296.45565 214.029029 
L 296.45565 213.83453 
L 302.2402 214.267963 
L 302.2402 214.070977 
L 305.132475 214.070977 
L 305.132475 214.070977 
L 308.02475 295.373419 
L 308.02475 204.066922 
L 310.917025 204.066922 
L 310.917025 204.066922 
L 313.8093 207.253981 
L 313.8093 202.820608 
L 316.701575 202.820608 
L 316.701575 202.380173 
L 319.59385 202.380173 
L 319.59385 201.867342 
L 322.486125 201.867342 
L 322.486125 201.867342 
L 325.3784 202.832392 
L 325.3784 202.322984 
L 328.270675 202.322984 
L 328.270675 202.322984 
L 331.16295 203.819036 
L 331.16295 203.819036 
L 334.055225 201.793731 
L 334.055225 202.07717 
L 339.839775 202.082251 
L 339.839775 201.863497 
L 342.73205 201.863497 
L 342.73205 196.770547 
L 345.624325 196.770547 
L 345.624325 198.959247 
L 348.5166 198.959247 
L 348.5166 198.959247 
L 351.408875 194.612187 
L 351.408875 194.612187 
L 354.30115 196.459906 
L 354.30115 196.459906 
L 357.193425 201.044913 
L 357.193425 201.044913 
L 360.0857 195.074602 
L 360.0857 195.074602 
L 362.977975 197.121636 
L 362.977975 197.121636 
L 365.87025 199.573102 
L 365.87025 199.573102 
L 368.762525 196.120283 
L 371.6548 193.312772 
L 371.6548 193.312772 
L 374.547075 199.560295 
L 374.547075 199.560295 
L 377.43935 198.43885 
L 377.43935 198.43885 
L 380.331625 198.697699 
L 380.331625 198.697699 
L 383.2239 198.829258 
L 383.2239 198.829258 
L 386.116175 196.089272 
L 386.116175 196.089272 
L 389.00845 198.761062 
L 389.00845 198.761062 
L 391.900725 195.969461 
L 391.900725 195.969461 
L 394.793 195.073226 
L 394.793 195.073226 
L 397.685275 191.584493 
L 397.685275 191.584493 
L 400.57755 189.82933 
L 400.57755 189.82933 
L 403.469825 185.093608 
L 403.469825 185.093608 
L 406.3621 176.854493 
L 406.3621 176.854493 
L 412.14665 165.729121 
L 412.14665 165.729121 
L 415.038925 155.054275 
L 415.038925 155.054275 
L 417.9312 151.466123 
L 417.9312 151.466123 
L 420.823475 139.158518 
L 420.823475 137.001676 
L 423.71575 137.001676 
L 423.71575 137.001676 
L 426.608025 119.320398 
L 426.608025 119.320398 
L 429.5003 115.731187 
L 429.5003 115.731187 
L 432.392575 106.063232 
L 432.392575 106.063232 
L 435.28485 99.691841 
L 435.28485 87.648307 
L 438.177125 87.648307 
L 438.177125 87.648307 
L 441.0694 91.934651 
L 441.0694 77.258524 
L 443.961675 77.258524 
L 443.961675 77.258524 
L 446.85395 74.725772 
L 446.85395 74.725772 
L 449.746225 67.443098 
L 449.746225 67.443098 
L 452.6385 67.789901 
L 452.6385 67.789901 
L 455.530775 74.812385 
L 455.530775 64.261724 
L 458.42305 64.261724 
L 458.42305 59.159884 
L 461.315325 59.159884 
L 461.315325 64.4697 
L 464.2076 64.4697 
L 464.2076 62.865518 
L 467.099875 62.865518 
L 467.099875 62.865518 
L 469.99215 59.654862 
L 469.99215 59.654862 
L 472.884425 55.848679 
L 472.884425 55.848679 
L 475.7767 59.383559 
L 475.7767 59.383559 
L 478.668975 53.140939 
L 478.668975 53.140939 
L 484.453525 50.092747 
L 484.453525 50.092747 
L 487.3458 55.418616 
L 487.3458 55.418616 
L 490.238075 53.401306 
L 490.238075 53.401306 
L 493.13035 51.726388 
L 493.13035 51.726388 
L 496.022625 49.477817 
L 498.9149 45.727376 
L 498.9149 45.727376 
L 501.807175 46.50777 
L 501.807175 46.50777 
L 504.69945 50.292432 
L 504.69945 50.292432 
L 507.591725 42.605802 
L 507.591725 42.605802 
L 510.484 38.856949 
L 510.484 38.856949 
L 513.376275 44.331523 
L 513.376275 44.331523 
L 516.26855 40.892252 
L 516.26855 40.892252 
L 519.160825 38.39531 
L 519.160825 38.39531 
L 522.0531 36.821293 
L 522.0531 36.821293 
L 524.945375 37.884809 
L 524.945375 37.884809 
L 527.83765 34.757237 
L 527.83765 34.757237 
L 530.729925 36.761317 
L 530.729925 36.761317 
L 533.6222 34.182702 
L 533.6222 34.182702 
L 536.514475 35.735904 
L 536.514475 35.735904 
L 539.40675 35.285731 
L 539.40675 35.285731 
L 542.299025 35.641354 
L 542.299025 35.641354 
L 542.299025 34.545204 
L 545.1913 34.545204 
L 545.1913 37.925734 
L 548.083575 37.925734 
L 548.083575 37.054141 
L 550.97585 37.054141 
L 550.97585 32.702706 
L 553.868125 32.702706 
L 553.868125 33.202447 
L 556.7604 33.202447 
L 556.7604 34.575898 
L 559.652675 34.575898 
L 559.652675 36.406753 
L 562.54495 32.999411 
L 562.54495 32.999411 
L 565.437225 32.999411 
L 565.437225 34.080037 
L 568.3295 34.080037 
L 568.3295 34.659864 
L 571.221775 34.659864 
L 571.221775 34.527035 
L 574.11405 34.527035 
L 574.11405 33.946326 
L 577.006325 33.946326 
L 577.006325 33.918455 
L 579.8986 35.936118 
L 582.790875 39.911998 
L 585.68315 39.911998 
L 585.68315 39.15436 
L 588.575425 39.15436 
L 588.575425 42.661192 
L 591.4677 42.661192 
L 591.4677 47.534065 
L 594.359975 47.534065 
L 594.359975 49.488048 
L 597.25225 49.488048 
L 597.25225 47.456626 
L 600.144525 47.456626 
L 600.144525 51.336544 
L 603.0368 51.336544 
L 603.0368 55.093334 
L 605.929075 55.093334 
L 605.929075 56.375762 
L 608.82135 56.375762 
L 608.82135 55.432728 
L 614.6059 55.429553 
L 614.6059 52.63961 
L 617.498175 52.63961 
L 617.498175 58.324982 
L 620.39045 58.324982 
L 620.39045 60.065345 
L 623.282725 60.065345 
L 623.282725 65.699208 
L 626.175 65.699208 
L 626.175 70.921177 
L 629.067275 70.921177 
L 629.067275 67.962067 
L 631.95955 67.962067 
L 631.95955 71.6737 
L 634.851825 71.6737 
L 634.851825 73.269767 
L 637.7441 73.269767 
L 637.7441 70.042352 
L 640.636375 70.042352 
L 640.636375 72.699642 
L 643.52865 72.699642 
L 643.52865 82.203721 
L 646.420925 82.203721 
L 646.420925 87.57122 
L 649 87.57122 
L 649 87.57122 
" clip-path="url(#p57f5857870)" style="fill: none; stroke: #1f77b4; stroke-width: 1.5; stroke-linecap: square"/>
   </g>
   <g id="line2d_17">
    <path d="M 47.72 175.496742 
L 50.612275 175.496742 
L 50.612275 43.876411 
L 53.50455 43.876411 
L 53.50455 44.522388 
L 56.396825 44.522388 
L 56.396825 44.85596 
L 59.2891 44.85596 
L 59.2891 43.41195 
L 62.181375 43.41195 
L 62.181375 44.109083 
L 65.07365 44.109083 
L 65.07365 42.670364 
L 67.965925 42.670364 
L 67.965925 41.646715 
L 70.8582 41.646715 
L 70.8582 45.935705 
L 73.750475 45.935705 
L 73.750475 42.032149 
L 76.64275 42.032149 
L 76.64275 42.786612 
L 79.535025 42.786612 
L 79.535025 42.23007 
L 82.4273 42.23007 
L 82.4273 48.942972 
L 85.319575 48.942972 
L 85.319575 44.587832 
L 88.21185 44.587832 
L 88.21185 45.459778 
L 91.104125 45.459778 
L 91.104125 51.117455 
L 93.9964 51.117455 
L 93.9964 51.117455 
L 96.888675 49.649278 
L 96.888675 59.556078 
L 99.78095 59.556078 
L 99.78095 68.584936 
L 105.5655 68.592521 
L 105.5655 79.901172 
L 108.457775 79.901172 
L 108.457775 81.592672 
L 111.35005 81.592672 
L 111.35005 86.679871 
L 114.242325 86.679871 
L 114.242325 94.428065 
L 117.1346 94.428065 
L 117.1346 101.961403 
L 120.026875 101.961403 
L 120.026875 114.573827 
L 122.91915 114.573827 
L 122.91915 117.205538 
L 125.811425 117.205538 
L 125.811425 127.038427 
L 128.7037 127.038427 
L 128.7037 132.719213 
L 128.7037 132.719213 
L 131.595975 138.078774 
L 131.595975 138.078774 
L 134.48825 139.791089 
L 134.48825 139.791089 
L 137.380525 150.797567 
L 137.380525 150.797567 
L 140.2728 153.414284 
L 143.165075 156.899772 
L 143.165075 156.899772 
L 146.05735 164.905686 
L 146.05735 164.905686 
L 148.949625 165.839018 
L 148.949625 165.839018 
L 151.8419 177.013076 
L 151.8419 177.013076 
L 154.734175 177.617246 
L 154.734175 177.617246 
L 157.62645 182.539512 
L 157.62645 182.539512 
L 160.518725 189.46113 
L 160.518725 189.46113 
L 163.411 192.02708 
L 163.411 192.02708 
L 166.303275 192.02708 
L 166.303275 193.440538 
L 169.19555 197.102496 
L 169.19555 197.102496 
L 172.087825 198.568433 
L 172.087825 198.568433 
L 174.9801 200.915894 
L 177.872375 201.838554 
L 177.872375 201.838554 
L 180.76465 202.888557 
L 180.76465 202.888557 
L 183.656925 203.123436 
L 183.656925 203.123436 
L 186.5492 204.505905 
L 186.5492 204.505905 
L 189.441475 203.805326 
L 189.441475 203.805326 
L 192.33375 205.334313 
L 192.33375 205.334313 
L 195.226025 205.334313 
L 195.226025 203.98687 
L 198.1183 204.780681 
L 198.1183 204.780681 
L 201.010575 204.780681 
L 201.010575 204.313989 
L 203.90285 203.875378 
L 203.90285 203.875378 
L 206.795125 204.972738 
L 206.795125 204.972738 
L 209.6874 205.138896 
L 209.6874 205.138896 
L 215.47195 204.550337 
L 215.47195 204.550337 
L 218.364225 204.837521 
L 218.364225 204.837521 
L 221.2565 204.350033 
L 221.2565 204.350033 
L 224.148775 204.727939 
L 224.148775 204.727939 
L 227.04105 206.180539 
L 227.04105 206.180539 
L 229.933325 205.807923 
L 229.933325 205.807923 
L 232.8256 207.186614 
L 232.8256 207.186614 
L 235.717875 204.862855 
L 235.717875 204.862855 
L 241.502425 204.498026 
L 241.502425 204.498026 
L 244.3947 204.951184 
L 244.3947 204.951184 
L 247.286975 204.966456 
L 247.286975 204.966456 
L 250.17925 204.431869 
L 250.17925 204.431869 
L 253.071525 205.269666 
L 253.071525 205.269666 
L 255.9638 205.313618 
L 255.9638 205.313618 
L 258.856075 204.846977 
L 258.856075 204.846977 
L 261.74835 205.226044 
L 261.74835 205.226044 
L 264.640625 204.406044 
L 264.640625 204.406044 
L 267.5329 204.568566 
L 267.5329 204.568566 
L 270.425175 202.821278 
L 273.31745 203.324673 
L 273.31745 203.324673 
L 276.209725 202.770316 
L 276.209725 202.770316 
L 279.102 203.519404 
L 279.102 203.519404 
L 281.994275 203.519404 
L 281.994275 201.742257 
L 284.88655 201.742257 
L 284.88655 201.880149 
L 287.778825 201.880149 
L 287.778825 201.414524 
L 290.6711 201.143238 
L 290.6711 201.143238 
L 293.563375 199.664618 
L 293.563375 199.664618 
L 296.45565 196.685875 
L 296.45565 196.685875 
L 299.347925 196.685875 
L 299.347925 196.430377 
L 302.2402 194.575866 
L 305.132475 193.81313 
L 305.132475 193.81313 
L 308.02475 193.81313 
L 308.02475 193.142316 
L 310.917025 188.341714 
L 310.917025 188.341714 
L 313.8093 188.341714 
L 313.8093 186.914585 
L 316.701575 185.627923 
L 316.701575 185.627923 
L 319.59385 185.627923 
L 319.59385 182.482358 
L 322.486125 177.19618 
L 322.486125 177.19618 
L 325.3784 177.19618 
L 325.3784 177.483712 
L 328.270675 175.34592 
L 328.270675 175.34592 
L 331.16295 170.312699 
L 331.16295 170.312699 
L 334.055225 170.312699 
L 334.055225 168.651011 
L 336.9475 162.194594 
L 336.9475 162.194594 
L 339.839775 162.194594 
L 339.839775 164.557649 
L 342.73205 159.02257 
L 342.73205 159.02257 
L 345.624325 157.243223 
L 345.624325 157.243223 
L 348.5166 154.519078 
L 348.5166 154.519078 
L 351.408875 151.562437 
L 351.408875 151.562437 
L 354.30115 147.554453 
L 354.30115 147.554453 
L 357.193425 142.805059 
L 357.193425 142.805059 
L 360.0857 140.601118 
L 360.0857 140.601118 
L 362.977975 139.182156 
L 362.977975 139.182156 
L 365.87025 139.241779 
L 365.87025 139.241779 
L 368.762525 133.365542 
L 368.762525 133.365542 
L 371.6548 132.321607 
L 371.6548 132.321607 
L 377.43935 124.778567 
L 377.43935 124.778567 
L 380.331625 125.119548 
L 380.331625 125.119548 
L 383.2239 124.661437 
L 383.2239 124.661437 
L 386.116175 115.879892 
L 386.116175 115.879892 
L 389.00845 106.62295 
L 389.00845 106.62295 
L 391.900725 111.866616 
L 391.900725 111.866616 
L 394.793 98.575405 
L 394.793 98.575405 
L 397.685275 93.972776 
L 397.685275 93.972776 
L 400.57755 93.972776 
L 400.57755 91.47848 
L 403.469825 91.47848 
L 403.469825 83.086603 
L 406.3621 83.086603 
L 406.3621 73.075727 
L 409.254375 73.075727 
L 409.254375 77.560344 
L 412.14665 74.863894 
L 412.14665 74.863894 
L 415.038925 63.206147 
L 415.038925 63.206147 
L 417.9312 59.003417 
L 417.9312 59.003417 
L 420.823475 60.753305 
L 420.823475 60.753305 
L 423.71575 60.753305 
L 423.71575 51.253636 
L 426.608025 51.253636 
L 426.608025 52.202844 
L 429.5003 52.202844 
L 429.5003 48.382196 
L 432.392575 48.382196 
L 432.392575 43.526963 
L 435.28485 43.526963 
L 435.28485 46.552928 
L 438.177125 46.552928 
L 438.177125 41.501009 
L 441.0694 41.501009 
L 441.0694 41.910257 
L 443.961675 43.598934 
L 443.961675 43.598934 
L 446.85395 43.598934 
L 446.85395 40.456721 
L 449.746225 42.103062 
L 452.6385 42.103062 
L 452.6385 42.531361 
L 455.530775 42.324091 
L 455.530775 42.324091 
L 458.42305 41.606143 
L 458.42305 41.606143 
L 461.315325 41.606143 
L 461.315325 40.957697 
L 464.2076 40.711266 
L 464.2076 40.711266 
L 467.099875 40.711266 
L 467.099875 43.80444 
L 469.99215 42.62503 
L 469.99215 42.62503 
L 475.7767 42.712524 
L 475.7767 44.516567 
L 478.668975 43.660321 
L 478.668975 43.660321 
L 481.56125 45.564736 
L 481.56125 45.564736 
L 484.453525 43.382315 
L 484.453525 43.382315 
L 487.3458 42.145222 
L 487.3458 42.145222 
L 490.238075 46.105225 
L 493.13035 48.232786 
L 493.13035 48.232786 
L 496.022625 48.96414 
L 496.022625 48.96414 
L 498.9149 46.372648 
L 498.9149 46.372648 
L 501.807175 48.926214 
L 501.807175 48.926214 
L 504.69945 47.440044 
L 504.69945 47.440044 
L 507.591725 45.810461 
L 507.591725 45.810461 
L 510.484 45.493999 
L 510.484 45.493999 
L 513.376275 43.759634 
L 513.376275 43.759634 
L 516.26855 44.62276 
L 516.26855 44.62276 
L 519.160825 44.62276 
L 519.160825 51.282918 
L 522.0531 51.282918 
L 522.0531 39.856961 
L 524.945375 39.856961 
L 524.945375 40.327243 
L 527.83765 40.327243 
L 527.83765 41.706691 
L 530.729925 41.706691 
L 530.729925 38.768749 
L 533.6222 36.113753 
L 533.6222 36.113753 
L 542.299025 36.28539 
L 542.299025 34.474997 
L 545.1913 34.474997 
L 545.1913 37.623913 
L 548.083575 36.530939 
L 548.083575 36.530939 
L 550.97585 36.530939 
L 550.97585 37.241125 
L 553.868125 37.241125 
L 553.868125 35.846154 
L 556.7604 35.846154 
L 556.7604 35.454017 
L 559.652675 35.454017 
L 559.652675 37.553706 
L 562.54495 37.553706 
L 562.54495 36.791305 
L 565.437225 36.791305 
L 565.437225 38.318929 
L 568.3295 38.318929 
L 568.3295 40.048178 
L 571.221775 40.048178 
L 571.221775 40.299548 
L 574.11405 42.665778 
L 574.11405 42.665778 
L 577.006325 42.665778 
L 577.006325 44.889124 
L 579.8986 43.232198 
L 579.8986 43.232198 
L 582.790875 43.232198 
L 582.790875 44.260434 
L 585.68315 44.260434 
L 585.68315 45.445136 
L 588.575425 47.556468 
L 588.575425 47.556468 
L 591.4677 47.556468 
L 591.4677 45.247392 
L 594.359975 46.951416 
L 594.359975 46.951416 
L 597.25225 44.434717 
L 597.25225 44.434717 
L 600.144525 46.980875 
L 600.144525 46.980875 
L 603.0368 45.733374 
L 603.0368 45.733374 
L 605.929075 46.816294 
L 605.929075 46.816294 
L 608.82135 44.945219 
L 611.713625 44.945219 
L 611.713625 45.878904 
L 614.6059 45.878904 
L 614.6059 44.375094 
L 617.498175 42.772676 
L 617.498175 42.772676 
L 620.39045 42.680243 
L 620.39045 42.680243 
L 623.282725 45.95846 
L 623.282725 45.95846 
L 626.175 44.372272 
L 626.175 44.372272 
L 629.067275 40.953287 
L 629.067275 40.953287 
L 631.95955 40.131086 
L 631.95955 40.131086 
L 634.851825 40.131086 
L 634.851825 41.912021 
L 637.7441 42.043262 
L 637.7441 42.043262 
L 640.636375 42.717992 
L 640.636375 42.717992 
L 643.52865 42.717992 
L 643.52865 43.162873 
L 646.420925 43.162873 
L 646.420925 45.240689 
L 649 45.240689 
L 649 45.240689 
" clip-path="url(#p57f5857870)" style="fill: none; stroke: #ff7f0e; stroke-width: 1.5; stroke-linecap: square"/>
   </g>
   <g id="patch_3">
    <path d="M 47.72 222.48 
L 47.72 10.8 
" style="fill: none; stroke: #000000; stroke-width: 0.8; stroke-linejoin: miter; stroke-linecap: square"/>
   </g>
   <g id="patch_4">
    <path d="M 626.175 222.48 
L 626.175 10.8 
" style="fill: none; stroke: #000000; stroke-width: 0.8; stroke-linejoin: miter; stroke-linecap: square"/>
   </g>
   <g id="patch_5">
    <path d="M 47.72 222.48 
L 626.175 222.48 
" style="fill: none; stroke: #000000; stroke-width: 0.8; stroke-linejoin: miter; stroke-linecap: square"/>
   </g>
   <g id="patch_6">
    <path d="M 47.72 10.8 
L 626.175 10.8 
" style="fill: none; stroke: #000000; stroke-width: 0.8; stroke-linejoin: miter; stroke-linecap: square"/>
   </g>
   <g id="legend_1">
    <g id="patch_7">
     <path d="M 515.709375 217.48 
L 619.175 217.48 
Q 621.175 217.48 621.175 215.48 
L 621.175 187.12375 
Q 621.175 185.12375 619.175 185.12375 
L 515.709375 185.12375 
Q 513.709375 185.12375 513.709375 187.12375 
L 513.709375 215.48 
Q 513.709375 217.48 515.709375 217.48 
z
" style="fill: #ffffff; opacity: 0.8; stroke: #cccccc; stroke-linejoin: miter"/>
    </g>
    <g id="line2d_18">
     <path d="M 517.709375 193.222188 
L 527.709375 193.222188 
L 537.709375 193.222188 
" style="fill: none; stroke: #1f77b4; stroke-width: 1.5; stroke-linecap: square"/>
    </g>
    <g id="text_17">
     <!-- Standard User -->
     <g transform="translate(545.709375 196.722188)scale(0.1 -0.1)">
      <defs>
       <path id="DejaVuSans-53" d="M 3425 4513 
L 3425 3897 
Q 3066 4069 2747 4153 
Q 2428 4238 2131 4238 
Q 1616 4238 1336 4038 
Q 1056 3838 1056 3469 
Q 1056 3159 1242 3001 
Q 1428 2844 1947 2747 
L 2328 2669 
Q 3034 2534 3370 2195 
Q 3706 1856 3706 1288 
Q 3706 609 3251 259 
Q 2797 -91 1919 -91 
Q 1588 -91 1214 -16 
Q 841 59 441 206 
L 441 856 
Q 825 641 1194 531 
Q 1563 422 1919 422 
Q 2459 422 2753 634 
Q 3047 847 3047 1241 
Q 3047 1584 2836 1778 
Q 2625 1972 2144 2069 
L 1759 2144 
Q 1053 2284 737 2584 
Q 422 2884 422 3419 
Q 422 4038 858 4394 
Q 1294 4750 2059 4750 
Q 2388 4750 2728 4690 
Q 3069 4631 3425 4513 
z
" transform="scale(0.015625)"/>
       <path id="DejaVuSans-61" d="M 2194 1759 
Q 1497 1759 1228 1600 
Q 959 1441 959 1056 
Q 959 750 1161 570 
Q 1363 391 1709 391 
Q 2188 391 2477 730 
Q 2766 1069 2766 1631 
L 2766 1759 
L 2194 1759 
z
M 3341 1997 
L 3341 0 
L 2766 0 
L 2766 531 
Q 2569 213 2275 61 
Q 1981 -91 1556 -91 
Q 1019 -91 701 211 
Q 384 513 384 1019 
Q 384 1609 779 1909 
Q 1175 2209 1959 2209 
L 2766 2209 
L 2766 2266 
Q 2766 2663 2505 2880 
Q 2244 3097 1772 3097 
Q 1472 3097 1187 3025 
Q 903 2953 641 2809 
L 641 3341 
Q 956 3463 1253 3523 
Q 1550 3584 1831 3584 
Q 2591 3584 2966 3190 
Q 3341 2797 3341 1997 
z
" transform="scale(0.015625)"/>
       <path id="DejaVuSans-64" d="M 2906 2969 
L 2906 4863 
L 3481 4863 
L 3481 0 
L 2906 0 
L 2906 525 
Q 2725 213 2448 61 
Q 2172 -91 1784 -91 
Q 1150 -91 751 415 
Q 353 922 353 1747 
Q 353 2572 751 3078 
Q 1150 3584 1784 3584 
Q 2172 3584 2448 3432 
Q 2725 3281 2906 2969 
z
M 947 1747 
Q 947 1113 1208 752 
Q 1469 391 1925 391 
Q 2381 391 2643 752 
Q 2906 1113 2906 1747 
Q 2906 2381 2643 2742 
Q 2381 3103 1925 3103 
Q 1469 3103 1208 2742 
Q 947 2381 947 1747 
z
" transform="scale(0.015625)"/>
       <path id="DejaVuSans-72" d="M 2631 2963 
Q 2534 3019 2420 3045 
Q 2306 3072 2169 3072 
Q 1681 3072 1420 2755 
Q 1159 2438 1159 1844 
L 1159 0 
L 581 0 
L 581 3500 
L 1159 3500 
L 1159 2956 
Q 1341 3275 1631 3429 
Q 1922 3584 2338 3584 
Q 2397 3584 2469 3576 
Q 2541 3569 2628 3553 
L 2631 2963 
z
" transform="scale(0.015625)"/>
       <path id="DejaVuSans-55" d="M 556 4666 
L 1191 4666 
L 1191 1831 
Q 1191 1081 1462 751 
Q 1734 422 2344 422 
Q 2950 422 3222 751 
Q 3494 1081 3494 1831 
L 3494 4666 
L 4128 4666 
L 4128 1753 
Q 4128 841 3676 375 
Q 3225 -91 2344 -91 
Q 1459 -91 1007 375 
Q 556 841 556 1753 
L 556 4666 
z
" transform="scale(0.015625)"/>
       <path id="DejaVuSans-73" d="M 2834 3397 
L 2834 2853 
Q 2591 2978 2328 3040 
Q 2066 3103 1784 3103 
Q 1356 3103 1142 2972 
Q 928 2841 928 2578 
Q 928 2378 1081 2264 
Q 1234 2150 1697 2047 
L 1894 2003 
Q 2506 1872 2764 1633 
Q 3022 1394 3022 966 
Q 3022 478 2636 193 
Q 2250 -91 1575 -91 
Q 1294 -91 989 -36 
Q 684 19 347 128 
L 347 722 
Q 666 556 975 473 
Q 1284 391 1588 391 
Q 1994 391 2212 530 
Q 2431 669 2431 922 
Q 2431 1156 2273 1281 
Q 2116 1406 1581 1522 
L 1381 1569 
Q 847 1681 609 1914 
Q 372 2147 372 2553 
Q 372 3047 722 3315 
Q 1072 3584 1716 3584 
Q 2034 3584 2315 3537 
Q 2597 3491 2834 3397 
z
" transform="scale(0.015625)"/>
      </defs>
      <use xlink:href="#DejaVuSans-53"/>
      <use xlink:href="#DejaVuSans-74" x="63.476562"/>
      <use xlink:href="#DejaVuSans-61" x="102.685547"/>
      <use xlink:href="#DejaVuSans-6e" x="163.964844"/>
      <use xlink:href="#DejaVuSans-64" x="227.34375"/>
      <use xlink:href="#DejaVuSans-61" x="290.820312"/>
      <use xlink:href="#DejaVuSans-72" x="352.099609"/>
      <use xlink:href="#DejaVuSans-64" x="391.462891"/>
      <use xlink:href="#DejaVuSans-20" x="454.939453"/>
      <use xlink:href="#DejaVuSans-55" x="486.726562"/>
      <use xlink:href="#DejaVuSans-73" x="559.919922"/>
      <use xlink:href="#DejaVuSans-65" x="612.019531"/>
      <use xlink:href="#DejaVuSans-72" x="673.542969"/>
     </g>
    </g>
    <g id="line2d_19">
     <path d="M 517.709375 207.900313 
L 527.709375 207.900313 
L 537.709375 207.900313 
" style="fill: none; stroke: #ff7f0e; stroke-width: 1.5; stroke-linecap: square"/>
    </g>
    <g id="text_18">
     <!-- Q5T2off -->
     <g transform="translate(545.709375 211.400313)scale(0.1 -0.1)">
      <defs>
       <path id="DejaVuSans-51" d="M 2522 4238 
Q 1834 4238 1429 3725 
Q 1025 3213 1025 2328 
Q 1025 1447 1429 934 
Q 1834 422 2522 422 
Q 3209 422 3611 934 
Q 4013 1447 4013 2328 
Q 4013 3213 3611 3725 
Q 3209 4238 2522 4238 
z
M 3406 84 
L 4238 -825 
L 3475 -825 
L 2784 -78 
Q 2681 -84 2626 -87 
Q 2572 -91 2522 -91 
Q 1538 -91 948 567 
Q 359 1225 359 2328 
Q 359 3434 948 4092 
Q 1538 4750 2522 4750 
Q 3503 4750 4090 4092 
Q 4678 3434 4678 2328 
Q 4678 1516 4351 937 
Q 4025 359 3406 84 
z
" transform="scale(0.015625)"/>
       <path id="DejaVuSans-54" d="M -19 4666 
L 3928 4666 
L 3928 4134 
L 2272 4134 
L 2272 0 
L 1638 0 
L 1638 4134 
L -19 4134 
L -19 4666 
z
" transform="scale(0.015625)"/>
      </defs>
      <use xlink:href="#DejaVuSans-51"/>
      <use xlink:href="#DejaVuSans-35" x="78.710938"/>
      <use xlink:href="#DejaVuSans-54" x="142.333984"/>
      <use xlink:href="#DejaVuSans-32" x="203.417969"/>
      <use xlink:href="#DejaVuSans-6f" x="267.041016"/>
      <use xlink:href="#DejaVuSans-66" x="328.222656"/>
      <use xlink:href="#DejaVuSans-66" x="363.427734"/>
     </g>
    </g>
   </g>
  </g>
  <g id="axes_2">
   <g id="patch_8">
    <path d="M 47.72 462.04 
L 626.175 462.04 
L 626.175 250.36 
L 47.72 250.36 
z
" style="fill: #ffffff"/>
   </g>
   <g id="matplotlib.axis_3">
    <g id="xtick_10">
     <g id="line2d_20">
      <g>
       <use xlink:href="#m1b5c85cee3" x="47.72" y="462.04" style="stroke: #000000; stroke-width: 0.8"/>
      </g>
     </g>
     <g id="text_19">
      <!-- 0.00 -->
      <g transform="translate(36.587188 476.638438)scale(0.1 -0.1)">
       <use xlink:href="#DejaVuSans-30"/>
       <use xlink:href="#DejaVuSans-2e" x="63.623047"/>
       <use xlink:href="#DejaVuSans-30" x="95.410156"/>
       <use xlink:href="#DejaVuSans-30" x="159.033203"/>
      </g>
     </g>
    </g>
    <g id="xtick_11">
     <g id="line2d_21">
      <g>
       <use xlink:href="#m1b5c85cee3" x="120.026875" y="462.04" style="stroke: #000000; stroke-width: 0.8"/>
      </g>
     </g>
     <g id="text_20">
      <!-- 0.25 -->
      <g transform="translate(108.894063 476.638438)scale(0.1 -0.1)">
       <use xlink:href="#DejaVuSans-30"/>
       <use xlink:href="#DejaVuSans-2e" x="63.623047"/>
       <use xlink:href="#DejaVuSans-32" x="95.410156"/>
       <use xlink:href="#DejaVuSans-35" x="159.033203"/>
      </g>
     </g>
    </g>
    <g id="xtick_12">
     <g id="line2d_22">
      <g>
       <use xlink:href="#m1b5c85cee3" x="192.33375" y="462.04" style="stroke: #000000; stroke-width: 0.8"/>
      </g>
     </g>
     <g id="text_21">
      <!-- 0.50 -->
      <g transform="translate(181.200938 476.638438)scale(0.1 -0.1)">
       <use xlink:href="#DejaVuSans-30"/>
       <use xlink:href="#DejaVuSans-2e" x="63.623047"/>
       <use xlink:href="#DejaVuSans-35" x="95.410156"/>
       <use xlink:href="#DejaVuSans-30" x="159.033203"/>
      </g>
     </g>
    </g>
    <g id="xtick_13">
     <g id="line2d_23">
      <g>
       <use xlink:href="#m1b5c85cee3" x="264.640625" y="462.04" style="stroke: #000000; stroke-width: 0.8"/>
      </g>
     </g>
     <g id="text_22">
      <!-- 0.75 -->
      <g transform="translate(253.507812 476.638438)scale(0.1 -0.1)">
       <use xlink:href="#DejaVuSans-30"/>
       <use xlink:href="#DejaVuSans-2e" x="63.623047"/>
       <use xlink:href="#DejaVuSans-37" x="95.410156"/>
       <use xlink:href="#DejaVuSans-35" x="159.033203"/>
      </g>
     </g>
    </g>
    <g id="xtick_14">
     <g id="line2d_24">
      <g>
       <use xlink:href="#m1b5c85cee3" x="336.9475" y="462.04" style="stroke: #000000; stroke-width: 0.8"/>
      </g>
     </g>
     <g id="text_23">
      <!-- 1.00 -->
      <g transform="translate(325.814687 476.638438)scale(0.1 -0.1)">
       <use xlink:href="#DejaVuSans-31"/>
       <use xlink:href="#DejaVuSans-2e" x="63.623047"/>
       <use xlink:href="#DejaVuSans-30" x="95.410156"/>
       <use xlink:href="#DejaVuSans-30" x="159.033203"/>
      </g>
     </g>
    </g>
    <g id="xtick_15">
     <g id="line2d_25">
      <g>
       <use xlink:href="#m1b5c85cee3" x="409.254375" y="462.04" style="stroke: #000000; stroke-width: 0.8"/>
      </g>
     </g>
     <g id="text_24">
      <!-- 1.25 -->
      <g transform="translate(398.121562 476.638438)scale(0.1 -0.1)">
       <use xlink:href="#DejaVuSans-31"/>
       <use xlink:href="#DejaVuSans-2e" x="63.623047"/>
       <use xlink:href="#DejaVuSans-32" x="95.410156"/>
       <use xlink:href="#DejaVuSans-35" x="159.033203"/>
      </g>
     </g>
    </g>
    <g id="xtick_16">
     <g id="line2d_26">
      <g>
       <use xlink:href="#m1b5c85cee3" x="481.56125" y="462.04" style="stroke: #000000; stroke-width: 0.8"/>
      </g>
     </g>
     <g id="text_25">
      <!-- 1.50 -->
      <g transform="translate(470.428437 476.638438)scale(0.1 -0.1)">
       <use xlink:href="#DejaVuSans-31"/>
       <use xlink:href="#DejaVuSans-2e" x="63.623047"/>
       <use xlink:href="#DejaVuSans-35" x="95.410156"/>
       <use xlink:href="#DejaVuSans-30" x="159.033203"/>
      </g>
     </g>
    </g>
    <g id="xtick_17">
     <g id="line2d_27">
      <g>
       <use xlink:href="#m1b5c85cee3" x="553.868125" y="462.04" style="stroke: #000000; stroke-width: 0.8"/>
      </g>
     </g>
     <g id="text_26">
      <!-- 1.75 -->
      <g transform="translate(542.735312 476.638438)scale(0.1 -0.1)">
       <use xlink:href="#DejaVuSans-31"/>
       <use xlink:href="#DejaVuSans-2e" x="63.623047"/>
       <use xlink:href="#DejaVuSans-37" x="95.410156"/>
       <use xlink:href="#DejaVuSans-35" x="159.033203"/>
      </g>
     </g>
    </g>
    <g id="xtick_18">
     <g id="line2d_28">
      <g>
       <use xlink:href="#m1b5c85cee3" x="626.175" y="462.04" style="stroke: #000000; stroke-width: 0.8"/>
      </g>
     </g>
     <g id="text_27">
      <!-- 2.00 -->
      <g transform="translate(615.042187 476.638438)scale(0.1 -0.1)">
       <use xlink:href="#DejaVuSans-32"/>
       <use xlink:href="#DejaVuSans-2e" x="63.623047"/>
       <use xlink:href="#DejaVuSans-30" x="95.410156"/>
       <use xlink:href="#DejaVuSans-30" x="159.033203"/>
      </g>
     </g>
    </g>
    <g id="text_28">
     <!-- Phase between booster synchrotron and storage ring / ns -->
     <g transform="translate(193.263125 490.316563)scale(0.1 -0.1)">
      <defs>
       <path id="DejaVuSans-50" d="M 1259 4147 
L 1259 2394 
L 2053 2394 
Q 2494 2394 2734 2622 
Q 2975 2850 2975 3272 
Q 2975 3691 2734 3919 
Q 2494 4147 2053 4147 
L 1259 4147 
z
M 628 4666 
L 2053 4666 
Q 2838 4666 3239 4311 
Q 3641 3956 3641 3272 
Q 3641 2581 3239 2228 
Q 2838 1875 2053 1875 
L 1259 1875 
L 1259 0 
L 628 0 
L 628 4666 
z
" transform="scale(0.015625)"/>
       <path id="DejaVuSans-68" d="M 3513 2113 
L 3513 0 
L 2938 0 
L 2938 2094 
Q 2938 2591 2744 2837 
Q 2550 3084 2163 3084 
Q 1697 3084 1428 2787 
Q 1159 2491 1159 1978 
L 1159 0 
L 581 0 
L 581 4863 
L 1159 4863 
L 1159 2956 
Q 1366 3272 1645 3428 
Q 1925 3584 2291 3584 
Q 2894 3584 3203 3211 
Q 3513 2838 3513 2113 
z
" transform="scale(0.015625)"/>
       <path id="DejaVuSans-62" d="M 3116 1747 
Q 3116 2381 2855 2742 
Q 2594 3103 2138 3103 
Q 1681 3103 1420 2742 
Q 1159 2381 1159 1747 
Q 1159 1113 1420 752 
Q 1681 391 2138 391 
Q 2594 391 2855 752 
Q 3116 1113 3116 1747 
z
M 1159 2969 
Q 1341 3281 1617 3432 
Q 1894 3584 2278 3584 
Q 2916 3584 3314 3078 
Q 3713 2572 3713 1747 
Q 3713 922 3314 415 
Q 2916 -91 2278 -91 
Q 1894 -91 1617 61 
Q 1341 213 1159 525 
L 1159 0 
L 581 0 
L 581 4863 
L 1159 4863 
L 1159 2969 
z
" transform="scale(0.015625)"/>
       <path id="DejaVuSans-77" d="M 269 3500 
L 844 3500 
L 1563 769 
L 2278 3500 
L 2956 3500 
L 3675 769 
L 4391 3500 
L 4966 3500 
L 4050 0 
L 3372 0 
L 2619 2869 
L 1863 0 
L 1184 0 
L 269 3500 
z
" transform="scale(0.015625)"/>
       <path id="DejaVuSans-67" d="M 2906 1791 
Q 2906 2416 2648 2759 
Q 2391 3103 1925 3103 
Q 1463 3103 1205 2759 
Q 947 2416 947 1791 
Q 947 1169 1205 825 
Q 1463 481 1925 481 
Q 2391 481 2648 825 
Q 2906 1169 2906 1791 
z
M 3481 434 
Q 3481 -459 3084 -895 
Q 2688 -1331 1869 -1331 
Q 1566 -1331 1297 -1286 
Q 1028 -1241 775 -1147 
L 775 -588 
Q 1028 -725 1275 -790 
Q 1522 -856 1778 -856 
Q 2344 -856 2625 -561 
Q 2906 -266 2906 331 
L 2906 616 
Q 2728 306 2450 153 
Q 2172 0 1784 0 
Q 1141 0 747 490 
Q 353 981 353 1791 
Q 353 2603 747 3093 
Q 1141 3584 1784 3584 
Q 2172 3584 2450 3431 
Q 2728 3278 2906 2969 
L 2906 3500 
L 3481 3500 
L 3481 434 
z
" transform="scale(0.015625)"/>
       <path id="DejaVuSans-2f" d="M 1625 4666 
L 2156 4666 
L 531 -594 
L 0 -594 
L 1625 4666 
z
" transform="scale(0.015625)"/>
      </defs>
      <use xlink:href="#DejaVuSans-50"/>
      <use xlink:href="#DejaVuSans-68" x="60.302734"/>
      <use xlink:href="#DejaVuSans-61" x="123.681641"/>
      <use xlink:href="#DejaVuSans-73" x="184.960938"/>
      <use xlink:href="#DejaVuSans-65" x="237.060547"/>
      <use xlink:href="#DejaVuSans-20" x="298.583984"/>
      <use xlink:href="#DejaVuSans-62" x="330.371094"/>
      <use xlink:href="#DejaVuSans-65" x="393.847656"/>
      <use xlink:href="#DejaVuSans-74" x="455.371094"/>
      <use xlink:href="#DejaVuSans-77" x="494.580078"/>
      <use xlink:href="#DejaVuSans-65" x="576.367188"/>
      <use xlink:href="#DejaVuSans-65" x="637.890625"/>
      <use xlink:href="#DejaVuSans-6e" x="699.414062"/>
      <use xlink:href="#DejaVuSans-20" x="762.792969"/>
      <use xlink:href="#DejaVuSans-62" x="794.580078"/>
      <use xlink:href="#DejaVuSans-6f" x="858.056641"/>
      <use xlink:href="#DejaVuSans-6f" x="919.238281"/>
      <use xlink:href="#DejaVuSans-73" x="980.419922"/>
      <use xlink:href="#DejaVuSans-74" x="1032.519531"/>
      <use xlink:href="#DejaVuSans-65" x="1071.728516"/>
      <use xlink:href="#DejaVuSans-72" x="1133.251953"/>
      <use xlink:href="#DejaVuSans-20" x="1174.365234"/>
      <use xlink:href="#DejaVuSans-73" x="1206.152344"/>
      <use xlink:href="#DejaVuSans-79" x="1258.251953"/>
      <use xlink:href="#DejaVuSans-6e" x="1317.431641"/>
      <use xlink:href="#DejaVuSans-63" x="1380.810547"/>
      <use xlink:href="#DejaVuSans-68" x="1435.791016"/>
      <use xlink:href="#DejaVuSans-72" x="1499.169922"/>
      <use xlink:href="#DejaVuSans-6f" x="1538.033203"/>
      <use xlink:href="#DejaVuSans-74" x="1599.214844"/>
      <use xlink:href="#DejaVuSans-72" x="1638.423828"/>
      <use xlink:href="#DejaVuSans-6f" x="1677.287109"/>
      <use xlink:href="#DejaVuSans-6e" x="1738.46875"/>
      <use xlink:href="#DejaVuSans-20" x="1801.847656"/>
      <use xlink:href="#DejaVuSans-61" x="1833.634766"/>
      <use xlink:href="#DejaVuSans-6e" x="1894.914062"/>
      <use xlink:href="#DejaVuSans-64" x="1958.292969"/>
      <use xlink:href="#DejaVuSans-20" x="2021.769531"/>
      <use xlink:href="#DejaVuSans-73" x="2053.556641"/>
      <use xlink:href="#DejaVuSans-74" x="2105.65625"/>
      <use xlink:href="#DejaVuSans-6f" x="2144.865234"/>
      <use xlink:href="#DejaVuSans-72" x="2206.046875"/>
      <use xlink:href="#DejaVuSans-61" x="2247.160156"/>
      <use xlink:href="#DejaVuSans-67" x="2308.439453"/>
      <use xlink:href="#DejaVuSans-65" x="2371.916016"/>
      <use xlink:href="#DejaVuSans-20" x="2433.439453"/>
      <use xlink:href="#DejaVuSans-72" x="2465.226562"/>
      <use xlink:href="#DejaVuSans-69" x="2506.339844"/>
      <use xlink:href="#DejaVuSans-6e" x="2534.123047"/>
      <use xlink:href="#DejaVuSans-67" x="2597.501953"/>
      <use xlink:href="#DejaVuSans-20" x="2660.978516"/>
      <use xlink:href="#DejaVuSans-2f" x="2692.765625"/>
      <use xlink:href="#DejaVuSans-20" x="2726.457031"/>
      <use xlink:href="#DejaVuSans-6e" x="2758.244141"/>
      <use xlink:href="#DejaVuSans-73" x="2821.623047"/>
     </g>
    </g>
   </g>
   <g id="matplotlib.axis_4">
    <g id="ytick_7">
     <g id="line2d_29">
      <g>
       <use xlink:href="#md612d8602d" x="47.72" y="444.4" style="stroke: #000000; stroke-width: 0.8"/>
      </g>
     </g>
     <g id="text_29">
      <!-- 0.0 -->
      <g transform="translate(24.816875 448.199219)scale(0.1 -0.1)">
       <use xlink:href="#DejaVuSans-30"/>
       <use xlink:href="#DejaVuSans-2e" x="63.623047"/>
       <use xlink:href="#DejaVuSans-30" x="95.410156"/>
      </g>
     </g>
    </g>
    <g id="ytick_8">
     <g id="line2d_30">
      <g>
       <use xlink:href="#md612d8602d" x="47.72" y="409.12" style="stroke: #000000; stroke-width: 0.8"/>
      </g>
     </g>
     <g id="text_30">
      <!-- 0.2 -->
      <g transform="translate(24.816875 412.919219)scale(0.1 -0.1)">
       <use xlink:href="#DejaVuSans-30"/>
       <use xlink:href="#DejaVuSans-2e" x="63.623047"/>
       <use xlink:href="#DejaVuSans-32" x="95.410156"/>
      </g>
     </g>
    </g>
    <g id="ytick_9">
     <g id="line2d_31">
      <g>
       <use xlink:href="#md612d8602d" x="47.72" y="373.84" style="stroke: #000000; stroke-width: 0.8"/>
      </g>
     </g>
     <g id="text_31">
      <!-- 0.4 -->
      <g transform="translate(24.816875 377.639219)scale(0.1 -0.1)">
       <use xlink:href="#DejaVuSans-30"/>
       <use xlink:href="#DejaVuSans-2e" x="63.623047"/>
       <use xlink:href="#DejaVuSans-34" x="95.410156"/>
      </g>
     </g>
    </g>
    <g id="ytick_10">
     <g id="line2d_32">
      <g>
       <use xlink:href="#md612d8602d" x="47.72" y="338.56" style="stroke: #000000; stroke-width: 0.8"/>
      </g>
     </g>
     <g id="text_32">
      <!-- 0.6 -->
      <g transform="translate(24.816875 342.359219)scale(0.1 -0.1)">
       <use xlink:href="#DejaVuSans-30"/>
       <use xlink:href="#DejaVuSans-2e" x="63.623047"/>
       <use xlink:href="#DejaVuSans-36" x="95.410156"/>
      </g>
     </g>
    </g>
    <g id="ytick_11">
     <g id="line2d_33">
      <g>
       <use xlink:href="#md612d8602d" x="47.72" y="303.28" style="stroke: #000000; stroke-width: 0.8"/>
      </g>
     </g>
     <g id="text_33">
      <!-- 0.8 -->
      <g transform="translate(24.816875 307.079219)scale(0.1 -0.1)">
       <use xlink:href="#DejaVuSans-30"/>
       <use xlink:href="#DejaVuSans-2e" x="63.623047"/>
       <use xlink:href="#DejaVuSans-38" x="95.410156"/>
      </g>
     </g>
    </g>
    <g id="ytick_12">
     <g id="line2d_34">
      <g>
       <use xlink:href="#md612d8602d" x="47.72" y="268" style="stroke: #000000; stroke-width: 0.8"/>
      </g>
     </g>
     <g id="text_34">
      <!-- 1.0 -->
      <g transform="translate(24.816875 271.799219)scale(0.1 -0.1)">
       <use xlink:href="#DejaVuSans-31"/>
       <use xlink:href="#DejaVuSans-2e" x="63.623047"/>
       <use xlink:href="#DejaVuSans-30" x="95.410156"/>
      </g>
     </g>
    </g>
    <g id="text_35">
     <!-- Injection Efficiency -->
     <g transform="translate(18.737188 403.385937)rotate(-90)scale(0.1 -0.1)">
      <use xlink:href="#DejaVuSans-49"/>
      <use xlink:href="#DejaVuSans-6e" x="29.492188"/>
      <use xlink:href="#DejaVuSans-6a" x="92.871094"/>
      <use xlink:href="#DejaVuSans-65" x="120.654297"/>
      <use xlink:href="#DejaVuSans-63" x="182.177734"/>
      <use xlink:href="#DejaVuSans-74" x="237.158203"/>
      <use xlink:href="#DejaVuSans-69" x="276.367188"/>
      <use xlink:href="#DejaVuSans-6f" x="304.150391"/>
      <use xlink:href="#DejaVuSans-6e" x="365.332031"/>
      <use xlink:href="#DejaVuSans-20" x="428.710938"/>
      <use xlink:href="#DejaVuSans-45" x="460.498047"/>
      <use xlink:href="#DejaVuSans-66" x="523.681641"/>
      <use xlink:href="#DejaVuSans-66" x="558.886719"/>
      <use xlink:href="#DejaVuSans-69" x="594.091797"/>
      <use xlink:href="#DejaVuSans-63" x="621.875"/>
      <use xlink:href="#DejaVuSans-69" x="676.855469"/>
      <use xlink:href="#DejaVuSans-65" x="704.638672"/>
      <use xlink:href="#DejaVuSans-6e" x="766.162109"/>
      <use xlink:href="#DejaVuSans-63" x="829.541016"/>
      <use xlink:href="#DejaVuSans-79" x="884.521484"/>
     </g>
    </g>
   </g>
   <g id="line2d_35">
    <path d="M 47.72 291.831464 
L 47.72 283.78974 
L 47.72 283.917101 
L 62.181375 287.3158 
L 62.181375 287.3158 
L 62.181375 281.979876 
L 62.181375 295.411678 
L 62.181375 289.84026 
L 76.64275 282.687946 
L 76.64275 282.687946 
L 76.64275 281.526528 
L 76.64275 307.633905 
L 76.64275 295.749837 
L 91.104125 295.950227 
L 91.104125 295.950227 
L 91.104125 326.087638 
L 91.104125 326.087638 
L 105.5655 333.391656 
L 105.5655 333.391656 
L 105.5655 321.978047 
L 105.5655 360.397614 
L 105.5655 360.397614 
L 120.026875 367.145796 
L 120.026875 367.145796 
L 120.026875 359.969315 
L 120.026875 404.232838 
L 120.026875 404.232838 
L 134.48825 400.477458 
L 134.48825 400.477458 
L 134.48825 505 
M 293.563375 505 
L 293.563375 398.142628 
L 308.02475 398.142628 
L 308.02475 400.494922 
L 308.02475 378.776554 
L 322.486125 378.776554 
L 322.486125 385.133128 
L 322.486125 377.127567 
L 322.486125 382.471076 
L 336.9475 382.471076 
L 336.9475 374.588465 
L 336.9475 388.48561 
L 351.408875 388.48561 
L 351.408875 367.027079 
L 351.408875 372.439913 
L 365.87025 372.439913 
L 365.87025 352.539347 
L 380.331625 352.539347 
L 380.331625 353.332618 
L 380.331625 333.327447 
L 380.331625 334.653975 
L 394.793 334.653975 
L 394.793 314.282244 
L 394.793 317.003744 
L 409.254375 317.003744 
L 409.254375 290.809755 
L 423.71575 290.809755 
L 423.71575 284.094912 
L 423.71575 291.293091 
L 423.71575 289.25373 
L 438.177125 289.25373 
L 438.177125 284.630639 
L 452.6385 284.630639 
L 452.6385 286.293915 
L 452.6385 280.611365 
L 452.6385 280.880904 
L 467.099875 280.880904 
L 467.099875 289.417606 
L 467.099875 284.20481 
L 481.56125 284.20481 
L 481.56125 285.879375 
L 481.56125 280.976337 
L 496.022625 280.976337 
L 496.022625 280.904895 
L 496.022625 279.66639 
L 496.022625 283.066324 
L 496.022625 279.771701 
L 510.484 279.771701 
L 510.484 273.793505 
L 510.484 275.58326 
L 524.945375 275.58326 
L 524.945375 269.601359 
L 539.40675 269.601359 
L 539.40675 272.369604 
L 539.40675 269.471352 
L 539.40675 271.376649 
L 553.868125 271.376649 
L 553.868125 270.323894 
L 553.868125 272.028976 
L 553.868125 271.385822 
L 568.3295 271.385822 
L 568.3295 268.835254 
L 568.3295 280.140201 
L 568.3295 274.565432 
L 582.790875 274.565432 
L 582.790875 274.625937 
L 582.790875 285.666989 
L 582.790875 285.56062 
L 597.25225 285.56062 
L 597.25225 293.813847 
L 597.25225 285.235691 
L 611.713625 285.235691 
L 611.713625 283.803676 
L 611.713625 289.45712 
L 626.175 289.45712 
L 626.175 281.853927 
L 626.175 293.70783 
L 640.636375 293.70783 
L 640.636375 286.662414 
L 640.636375 291.595264 
" clip-path="url(#p91e3774c37)" style="fill: none; stroke: #1f77b4; stroke-width: 1.5; stroke-linecap: square"/>
   </g>
   <g id="line2d_36">
    <path d="M 47.72 302.257762 
L 47.72 308.210733 
L 47.72 299.861192 
L 47.72 308.210733 
L 62.181375 308.210733 
L 62.181375 308.210733 
L 62.181375 303.618335 
L 62.181375 322.418342 
L 62.181375 321.476189 
L 76.64275 321.476189 
L 76.64275 366.255153 
L 76.64275 364.256894 
L 91.104125 364.256894 
L 91.104125 359.127711 
L 91.104125 505 
M 91.104125 505 
L 91.104125 404.407121 
L 91.104125 404.407121 
L 105.5655 404.407121 
L 105.5655 505 
M 394.793 505 
L 394.793 387.883557 
L 394.793 387.883557 
L 409.254375 391.313831 
L 409.254375 391.313831 
L 409.254375 346.436789 
L 409.254375 348.492731 
L 423.71575 345.212573 
L 423.71575 345.212573 
L 423.71575 350.927933 
L 423.71575 313.925211 
L 423.71575 316.956468 
L 438.177125 313.915685 
L 438.177125 313.915685 
L 438.177125 321.842925 
L 438.177125 292.296454 
L 438.177125 292.296454 
L 452.6385 299.01994 
L 452.6385 299.01994 
L 452.6385 285.379281 
L 452.6385 285.379281 
L 467.099875 288.179984 
L 467.099875 288.179984 
L 467.099875 284.173587 
L 467.099875 290.633708 
L 481.56125 290.633708 
L 481.56125 290.633708 
L 481.56125 277.998881 
L 481.56125 278.301054 
L 496.022625 278.301054 
L 496.022625 278.301054 
L 496.022625 279.412904 
L 496.022625 272.488322 
L 496.022625 272.488322 
L 510.484 272.901274 
L 510.484 272.901274 
L 510.484 273.191628 
L 510.484 270.13638 
L 510.484 271.262165 
L 524.945375 270.954171 
L 524.945375 270.954171 
L 524.945375 272.765975 
L 524.945375 268.702954 
L 524.945375 270.18101 
L 539.40675 269.193875 
L 539.40675 269.193875 
L 539.40675 270.957346 
L 539.40675 268.938448 
L 539.40675 269.085566 
L 553.868125 268.229673 
L 553.868125 268.229673 
L 553.868125 271.828586 
L 553.868125 270.792765 
L 568.3295 271.175376 
L 568.3295 271.175376 
L 568.3295 270.553919 
L 568.3295 274.194639 
L 568.3295 272.158806 
L 582.790875 273.922454 
L 582.790875 273.922454 
L 582.790875 283.318576 
L 582.790875 279.906294 
L 597.25225 279.361924 
L 597.25225 279.361924 
L 597.25225 292.936257 
L 597.25225 289.085621 
L 611.713625 292.362251 
L 611.713625 292.362251 
L 611.713625 290.44443 
L 611.713625 300.355994 
L 611.713625 297.679124 
L 626.175 297.206195 
L 626.175 297.206195 
L 626.175 312.125225 
L 640.636375 312.125225 
L 640.636375 312.125225 
L 640.636375 348.21102 
L 640.636375 348.21102 
" clip-path="url(#p91e3774c37)" style="fill: none; stroke: #ff7f0e; stroke-width: 1.5; stroke-linecap: square"/>
   </g>
   <g id="patch_9">
    <path d="M 47.72 462.04 
L 47.72 250.36 
" style="fill: none; stroke: #000000; stroke-width: 0.8; stroke-linejoin: miter; stroke-linecap: square"/>
   </g>
   <g id="patch_10">
    <path d="M 626.175 462.04 
L 626.175 250.36 
" style="fill: none; stroke: #000000; stroke-width: 0.8; stroke-linejoin: miter; stroke-linecap: square"/>
   </g>
   <g id="patch_11">
    <path d="M 47.72 462.04 
L 626.175 462.04 
" style="fill: none; stroke: #000000; stroke-width: 0.8; stroke-linejoin: miter; stroke-linecap: square"/>
   </g>
   <g id="patch_12">
    <path d="M 47.72 250.36 
L 626.175 250.36 
" style="fill: none; stroke: #000000; stroke-width: 0.8; stroke-linejoin: miter; stroke-linecap: square"/>
   </g>
   <g id="legend_2">
    <g id="patch_13">
     <path d="M 460.742187 457.04 
L 619.175 457.04 
Q 621.175 457.04 621.175 455.04 
L 621.175 426.68375 
Q 621.175 424.68375 619.175 424.68375 
L 460.742187 424.68375 
Q 458.742187 424.68375 458.742187 426.68375 
L 458.742187 455.04 
Q 458.742187 457.04 460.742187 457.04 
z
" style="fill: #ffffff; opacity: 0.8; stroke: #cccccc; stroke-linejoin: miter"/>
    </g>
    <g id="line2d_37">
     <path d="M 462.742187 432.782188 
L 472.742187 432.782188 
L 482.742187 432.782188 
" style="fill: none; stroke: #1f77b4; stroke-width: 1.5; stroke-linecap: square"/>
    </g>
    <g id="text_36">
     <!-- Standard User (Bachelor) -->
     <g transform="translate(490.742187 436.282188)scale(0.1 -0.1)">
      <defs>
       <path id="DejaVuSans-28" d="M 1984 4856 
Q 1566 4138 1362 3434 
Q 1159 2731 1159 2009 
Q 1159 1288 1364 580 
Q 1569 -128 1984 -844 
L 1484 -844 
Q 1016 -109 783 600 
Q 550 1309 550 2009 
Q 550 2706 781 3412 
Q 1013 4119 1484 4856 
L 1984 4856 
z
" transform="scale(0.015625)"/>
       <path id="DejaVuSans-42" d="M 1259 2228 
L 1259 519 
L 2272 519 
Q 2781 519 3026 730 
Q 3272 941 3272 1375 
Q 3272 1813 3026 2020 
Q 2781 2228 2272 2228 
L 1259 2228 
z
M 1259 4147 
L 1259 2741 
L 2194 2741 
Q 2656 2741 2882 2914 
Q 3109 3088 3109 3444 
Q 3109 3797 2882 3972 
Q 2656 4147 2194 4147 
L 1259 4147 
z
M 628 4666 
L 2241 4666 
Q 2963 4666 3353 4366 
Q 3744 4066 3744 3513 
Q 3744 3084 3544 2831 
Q 3344 2578 2956 2516 
Q 3422 2416 3680 2098 
Q 3938 1781 3938 1306 
Q 3938 681 3513 340 
Q 3088 0 2303 0 
L 628 0 
L 628 4666 
z
" transform="scale(0.015625)"/>
       <path id="DejaVuSans-6c" d="M 603 4863 
L 1178 4863 
L 1178 0 
L 603 0 
L 603 4863 
z
" transform="scale(0.015625)"/>
       <path id="DejaVuSans-29" d="M 513 4856 
L 1013 4856 
Q 1481 4119 1714 3412 
Q 1947 2706 1947 2009 
Q 1947 1309 1714 600 
Q 1481 -109 1013 -844 
L 513 -844 
Q 928 -128 1133 580 
Q 1338 1288 1338 2009 
Q 1338 2731 1133 3434 
Q 928 4138 513 4856 
z
" transform="scale(0.015625)"/>
      </defs>
      <use xlink:href="#DejaVuSans-53"/>
      <use xlink:href="#DejaVuSans-74" x="63.476562"/>
      <use xlink:href="#DejaVuSans-61" x="102.685547"/>
      <use xlink:href="#DejaVuSans-6e" x="163.964844"/>
      <use xlink:href="#DejaVuSans-64" x="227.34375"/>
      <use xlink:href="#DejaVuSans-61" x="290.820312"/>
      <use xlink:href="#DejaVuSans-72" x="352.099609"/>
      <use xlink:href="#DejaVuSans-64" x="391.462891"/>
      <use xlink:href="#DejaVuSans-20" x="454.939453"/>
      <use xlink:href="#DejaVuSans-55" x="486.726562"/>
      <use xlink:href="#DejaVuSans-73" x="559.919922"/>
      <use xlink:href="#DejaVuSans-65" x="612.019531"/>
      <use xlink:href="#DejaVuSans-72" x="673.542969"/>
      <use xlink:href="#DejaVuSans-20" x="714.65625"/>
      <use xlink:href="#DejaVuSans-28" x="746.443359"/>
      <use xlink:href="#DejaVuSans-42" x="785.457031"/>
      <use xlink:href="#DejaVuSans-61" x="854.060547"/>
      <use xlink:href="#DejaVuSans-63" x="915.339844"/>
      <use xlink:href="#DejaVuSans-68" x="970.320312"/>
      <use xlink:href="#DejaVuSans-65" x="1033.699219"/>
      <use xlink:href="#DejaVuSans-6c" x="1095.222656"/>
      <use xlink:href="#DejaVuSans-6f" x="1123.005859"/>
      <use xlink:href="#DejaVuSans-72" x="1184.1875"/>
      <use xlink:href="#DejaVuSans-29" x="1225.300781"/>
     </g>
    </g>
    <g id="line2d_38">
     <path d="M 462.742187 447.460312 
L 472.742187 447.460312 
L 482.742187 447.460312 
" style="fill: none; stroke: #ff7f0e; stroke-width: 1.5; stroke-linecap: square"/>
    </g>
    <g id="text_37">
     <!-- Q5T2off (Bachelor) -->
     <g transform="translate(490.742187 450.960312)scale(0.1 -0.1)">
      <use xlink:href="#DejaVuSans-51"/>
      <use xlink:href="#DejaVuSans-35" x="78.710938"/>
      <use xlink:href="#DejaVuSans-54" x="142.333984"/>
      <use xlink:href="#DejaVuSans-32" x="203.417969"/>
      <use xlink:href="#DejaVuSans-6f" x="267.041016"/>
      <use xlink:href="#DejaVuSans-66" x="328.222656"/>
      <use xlink:href="#DejaVuSans-66" x="363.427734"/>
      <use xlink:href="#DejaVuSans-20" x="398.632812"/>
      <use xlink:href="#DejaVuSans-28" x="430.419922"/>
      <use xlink:href="#DejaVuSans-42" x="469.433594"/>
      <use xlink:href="#DejaVuSans-61" x="538.037109"/>
      <use xlink:href="#DejaVuSans-63" x="599.316406"/>
      <use xlink:href="#DejaVuSans-68" x="654.296875"/>
      <use xlink:href="#DejaVuSans-65" x="717.675781"/>
      <use xlink:href="#DejaVuSans-6c" x="779.199219"/>
      <use xlink:href="#DejaVuSans-6f" x="806.982422"/>
      <use xlink:href="#DejaVuSans-72" x="868.164062"/>
      <use xlink:href="#DejaVuSans-29" x="909.277344"/>
     </g>
    </g>
   </g>
  </g>
 </g>
 <defs>
  <clipPath id="p57f5857870">
   <rect x="47.72" y="10.8" width="578.455" height="211.68"/>
  </clipPath>
  <clipPath id="p91e3774c37">
   <rect x="47.72" y="250.36" width="578.455" height="211.68"/>
  </clipPath>
 </defs>
</svg>
