<?xml version="1.0" encoding="utf-8" standalone="no"?>
<!DOCTYPE svg PUBLIC "-//W3C//DTD SVG 1.1//EN"
  "http://www.w3.org/Graphics/SVG/1.1/DTD/svg11.dtd">
<svg xmlns:xlink="http://www.w3.org/1999/xlink" width="648pt" height="360pt" viewBox="0 0 648 360" xmlns="http://www.w3.org/2000/svg" version="1.1">
 <metadata>
  <rdf:RDF xmlns:dc="http://purl.org/dc/elements/1.1/" xmlns:cc="http://creativecommons.org/ns#" xmlns:rdf="http://www.w3.org/1999/02/22-rdf-syntax-ns#">
   <cc:Work>
    <dc:type rdf:resource="http://purl.org/dc/dcmitype/StillImage"/>
    <dc:format>image/svg+xml</dc:format>
    <dc:creator>
     <cc:Agent>
      <dc:title>Matplotlib v3.5.0, https://matplotlib.org/</dc:title>
     </cc:Agent>
    </dc:creator>
   </cc:Work>
  </rdf:RDF>
 </metadata>
 <defs>
  <style type="text/css">*{stroke-linejoin: round; stroke-linecap: butt}</style>
 </defs>
 <g id="figure_1">
  <g id="patch_1">
   <path d="M 0 360 
L 648 360 
L 648 0 
L 0 0 
z
" style="fill: #ffffff"/>
  </g>
  <g id="axes_1">
   <g id="patch_2">
    <path d="M 47.72 318.04 
L 626.175 318.04 
L 626.175 10.8 
L 47.72 10.8 
z
" style="fill: #ffffff"/>
   </g>
   <g id="matplotlib.axis_1">
    <g id="xtick_1">
     <g id="line2d_1">
      <defs>
       <path id="m1b5c85cee3" d="M 0 0 
L 0 3.5 
" style="stroke: #000000; stroke-width: 0.8"/>
      </defs>
      <g>
       <use xlink:href="#m1b5c85cee3" x="47.72" y="318.04" style="stroke: #000000; stroke-width: 0.8"/>
      </g>
     </g>
     <g id="text_1">
      <!-- 0.00 -->
      <g transform="translate(36.587188 332.638438)scale(0.1 -0.1)">
       <defs>
        <path id="DejaVuSans-30" d="M 2034 4250 
Q 1547 4250 1301 3770 
Q 1056 3291 1056 2328 
Q 1056 1369 1301 889 
Q 1547 409 2034 409 
Q 2525 409 2770 889 
Q 3016 1369 3016 2328 
Q 3016 3291 2770 3770 
Q 2525 4250 2034 4250 
z
M 2034 4750 
Q 2819 4750 3233 4129 
Q 3647 3509 3647 2328 
Q 3647 1150 3233 529 
Q 2819 -91 2034 -91 
Q 1250 -91 836 529 
Q 422 1150 422 2328 
Q 422 3509 836 4129 
Q 1250 4750 2034 4750 
z
" transform="scale(0.015625)"/>
        <path id="DejaVuSans-2e" d="M 684 794 
L 1344 794 
L 1344 0 
L 684 0 
L 684 794 
z
" transform="scale(0.015625)"/>
       </defs>
       <use xlink:href="#DejaVuSans-30"/>
       <use xlink:href="#DejaVuSans-2e" x="63.623047"/>
       <use xlink:href="#DejaVuSans-30" x="95.410156"/>
       <use xlink:href="#DejaVuSans-30" x="159.033203"/>
      </g>
     </g>
    </g>
    <g id="xtick_2">
     <g id="line2d_2">
      <g>
       <use xlink:href="#m1b5c85cee3" x="120.026875" y="318.04" style="stroke: #000000; stroke-width: 0.8"/>
      </g>
     </g>
     <g id="text_2">
      <!-- 0.25 -->
      <g transform="translate(108.894063 332.638438)scale(0.1 -0.1)">
       <defs>
        <path id="DejaVuSans-32" d="M 1228 531 
L 3431 531 
L 3431 0 
L 469 0 
L 469 531 
Q 828 903 1448 1529 
Q 2069 2156 2228 2338 
Q 2531 2678 2651 2914 
Q 2772 3150 2772 3378 
Q 2772 3750 2511 3984 
Q 2250 4219 1831 4219 
Q 1534 4219 1204 4116 
Q 875 4013 500 3803 
L 500 4441 
Q 881 4594 1212 4672 
Q 1544 4750 1819 4750 
Q 2544 4750 2975 4387 
Q 3406 4025 3406 3419 
Q 3406 3131 3298 2873 
Q 3191 2616 2906 2266 
Q 2828 2175 2409 1742 
Q 1991 1309 1228 531 
z
" transform="scale(0.015625)"/>
        <path id="DejaVuSans-35" d="M 691 4666 
L 3169 4666 
L 3169 4134 
L 1269 4134 
L 1269 2991 
Q 1406 3038 1543 3061 
Q 1681 3084 1819 3084 
Q 2600 3084 3056 2656 
Q 3513 2228 3513 1497 
Q 3513 744 3044 326 
Q 2575 -91 1722 -91 
Q 1428 -91 1123 -41 
Q 819 9 494 109 
L 494 744 
Q 775 591 1075 516 
Q 1375 441 1709 441 
Q 2250 441 2565 725 
Q 2881 1009 2881 1497 
Q 2881 1984 2565 2268 
Q 2250 2553 1709 2553 
Q 1456 2553 1204 2497 
Q 953 2441 691 2322 
L 691 4666 
z
" transform="scale(0.015625)"/>
       </defs>
       <use xlink:href="#DejaVuSans-30"/>
       <use xlink:href="#DejaVuSans-2e" x="63.623047"/>
       <use xlink:href="#DejaVuSans-32" x="95.410156"/>
       <use xlink:href="#DejaVuSans-35" x="159.033203"/>
      </g>
     </g>
    </g>
    <g id="xtick_3">
     <g id="line2d_3">
      <g>
       <use xlink:href="#m1b5c85cee3" x="192.33375" y="318.04" style="stroke: #000000; stroke-width: 0.8"/>
      </g>
     </g>
     <g id="text_3">
      <!-- 0.50 -->
      <g transform="translate(181.200938 332.638438)scale(0.1 -0.1)">
       <use xlink:href="#DejaVuSans-30"/>
       <use xlink:href="#DejaVuSans-2e" x="63.623047"/>
       <use xlink:href="#DejaVuSans-35" x="95.410156"/>
       <use xlink:href="#DejaVuSans-30" x="159.033203"/>
      </g>
     </g>
    </g>
    <g id="xtick_4">
     <g id="line2d_4">
      <g>
       <use xlink:href="#m1b5c85cee3" x="264.640625" y="318.04" style="stroke: #000000; stroke-width: 0.8"/>
      </g>
     </g>
     <g id="text_4">
      <!-- 0.75 -->
      <g transform="translate(253.507812 332.638438)scale(0.1 -0.1)">
       <defs>
        <path id="DejaVuSans-37" d="M 525 4666 
L 3525 4666 
L 3525 4397 
L 1831 0 
L 1172 0 
L 2766 4134 
L 525 4134 
L 525 4666 
z
" transform="scale(0.015625)"/>
       </defs>
       <use xlink:href="#DejaVuSans-30"/>
       <use xlink:href="#DejaVuSans-2e" x="63.623047"/>
       <use xlink:href="#DejaVuSans-37" x="95.410156"/>
       <use xlink:href="#DejaVuSans-35" x="159.033203"/>
      </g>
     </g>
    </g>
    <g id="xtick_5">
     <g id="line2d_5">
      <g>
       <use xlink:href="#m1b5c85cee3" x="336.9475" y="318.04" style="stroke: #000000; stroke-width: 0.8"/>
      </g>
     </g>
     <g id="text_5">
      <!-- 1.00 -->
      <g transform="translate(325.814687 332.638438)scale(0.1 -0.1)">
       <defs>
        <path id="DejaVuSans-31" d="M 794 531 
L 1825 531 
L 1825 4091 
L 703 3866 
L 703 4441 
L 1819 4666 
L 2450 4666 
L 2450 531 
L 3481 531 
L 3481 0 
L 794 0 
L 794 531 
z
" transform="scale(0.015625)"/>
       </defs>
       <use xlink:href="#DejaVuSans-31"/>
       <use xlink:href="#DejaVuSans-2e" x="63.623047"/>
       <use xlink:href="#DejaVuSans-30" x="95.410156"/>
       <use xlink:href="#DejaVuSans-30" x="159.033203"/>
      </g>
     </g>
    </g>
    <g id="xtick_6">
     <g id="line2d_6">
      <g>
       <use xlink:href="#m1b5c85cee3" x="409.254375" y="318.04" style="stroke: #000000; stroke-width: 0.8"/>
      </g>
     </g>
     <g id="text_6">
      <!-- 1.25 -->
      <g transform="translate(398.121562 332.638438)scale(0.1 -0.1)">
       <use xlink:href="#DejaVuSans-31"/>
       <use xlink:href="#DejaVuSans-2e" x="63.623047"/>
       <use xlink:href="#DejaVuSans-32" x="95.410156"/>
       <use xlink:href="#DejaVuSans-35" x="159.033203"/>
      </g>
     </g>
    </g>
    <g id="xtick_7">
     <g id="line2d_7">
      <g>
       <use xlink:href="#m1b5c85cee3" x="481.56125" y="318.04" style="stroke: #000000; stroke-width: 0.8"/>
      </g>
     </g>
     <g id="text_7">
      <!-- 1.50 -->
      <g transform="translate(470.428437 332.638438)scale(0.1 -0.1)">
       <use xlink:href="#DejaVuSans-31"/>
       <use xlink:href="#DejaVuSans-2e" x="63.623047"/>
       <use xlink:href="#DejaVuSans-35" x="95.410156"/>
       <use xlink:href="#DejaVuSans-30" x="159.033203"/>
      </g>
     </g>
    </g>
    <g id="xtick_8">
     <g id="line2d_8">
      <g>
       <use xlink:href="#m1b5c85cee3" x="553.868125" y="318.04" style="stroke: #000000; stroke-width: 0.8"/>
      </g>
     </g>
     <g id="text_8">
      <!-- 1.75 -->
      <g transform="translate(542.735312 332.638438)scale(0.1 -0.1)">
       <use xlink:href="#DejaVuSans-31"/>
       <use xlink:href="#DejaVuSans-2e" x="63.623047"/>
       <use xlink:href="#DejaVuSans-37" x="95.410156"/>
       <use xlink:href="#DejaVuSans-35" x="159.033203"/>
      </g>
     </g>
    </g>
    <g id="xtick_9">
     <g id="line2d_9">
      <g>
       <use xlink:href="#m1b5c85cee3" x="626.175" y="318.04" style="stroke: #000000; stroke-width: 0.8"/>
      </g>
     </g>
     <g id="text_9">
      <!-- 2.00 -->
      <g transform="translate(615.042187 332.638438)scale(0.1 -0.1)">
       <use xlink:href="#DejaVuSans-32"/>
       <use xlink:href="#DejaVuSans-2e" x="63.623047"/>
       <use xlink:href="#DejaVuSans-30" x="95.410156"/>
       <use xlink:href="#DejaVuSans-30" x="159.033203"/>
      </g>
     </g>
    </g>
    <g id="text_10">
     <!-- Phase between booster synchrotron and storage ring / ns -->
     <g transform="translate(193.263125 346.316563)scale(0.1 -0.1)">
      <defs>
       <path id="DejaVuSans-50" d="M 1259 4147 
L 1259 2394 
L 2053 2394 
Q 2494 2394 2734 2622 
Q 2975 2850 2975 3272 
Q 2975 3691 2734 3919 
Q 2494 4147 2053 4147 
L 1259 4147 
z
M 628 4666 
L 2053 4666 
Q 2838 4666 3239 4311 
Q 3641 3956 3641 3272 
Q 3641 2581 3239 2228 
Q 2838 1875 2053 1875 
L 1259 1875 
L 1259 0 
L 628 0 
L 628 4666 
z
" transform="scale(0.015625)"/>
       <path id="DejaVuSans-68" d="M 3513 2113 
L 3513 0 
L 2938 0 
L 2938 2094 
Q 2938 2591 2744 2837 
Q 2550 3084 2163 3084 
Q 1697 3084 1428 2787 
Q 1159 2491 1159 1978 
L 1159 0 
L 581 0 
L 581 4863 
L 1159 4863 
L 1159 2956 
Q 1366 3272 1645 3428 
Q 1925 3584 2291 3584 
Q 2894 3584 3203 3211 
Q 3513 2838 3513 2113 
z
" transform="scale(0.015625)"/>
       <path id="DejaVuSans-61" d="M 2194 1759 
Q 1497 1759 1228 1600 
Q 959 1441 959 1056 
Q 959 750 1161 570 
Q 1363 391 1709 391 
Q 2188 391 2477 730 
Q 2766 1069 2766 1631 
L 2766 1759 
L 2194 1759 
z
M 3341 1997 
L 3341 0 
L 2766 0 
L 2766 531 
Q 2569 213 2275 61 
Q 1981 -91 1556 -91 
Q 1019 -91 701 211 
Q 384 513 384 1019 
Q 384 1609 779 1909 
Q 1175 2209 1959 2209 
L 2766 2209 
L 2766 2266 
Q 2766 2663 2505 2880 
Q 2244 3097 1772 3097 
Q 1472 3097 1187 3025 
Q 903 2953 641 2809 
L 641 3341 
Q 956 3463 1253 3523 
Q 1550 3584 1831 3584 
Q 2591 3584 2966 3190 
Q 3341 2797 3341 1997 
z
" transform="scale(0.015625)"/>
       <path id="DejaVuSans-73" d="M 2834 3397 
L 2834 2853 
Q 2591 2978 2328 3040 
Q 2066 3103 1784 3103 
Q 1356 3103 1142 2972 
Q 928 2841 928 2578 
Q 928 2378 1081 2264 
Q 1234 2150 1697 2047 
L 1894 2003 
Q 2506 1872 2764 1633 
Q 3022 1394 3022 966 
Q 3022 478 2636 193 
Q 2250 -91 1575 -91 
Q 1294 -91 989 -36 
Q 684 19 347 128 
L 347 722 
Q 666 556 975 473 
Q 1284 391 1588 391 
Q 1994 391 2212 530 
Q 2431 669 2431 922 
Q 2431 1156 2273 1281 
Q 2116 1406 1581 1522 
L 1381 1569 
Q 847 1681 609 1914 
Q 372 2147 372 2553 
Q 372 3047 722 3315 
Q 1072 3584 1716 3584 
Q 2034 3584 2315 3537 
Q 2597 3491 2834 3397 
z
" transform="scale(0.015625)"/>
       <path id="DejaVuSans-65" d="M 3597 1894 
L 3597 1613 
L 953 1613 
Q 991 1019 1311 708 
Q 1631 397 2203 397 
Q 2534 397 2845 478 
Q 3156 559 3463 722 
L 3463 178 
Q 3153 47 2828 -22 
Q 2503 -91 2169 -91 
Q 1331 -91 842 396 
Q 353 884 353 1716 
Q 353 2575 817 3079 
Q 1281 3584 2069 3584 
Q 2775 3584 3186 3129 
Q 3597 2675 3597 1894 
z
M 3022 2063 
Q 3016 2534 2758 2815 
Q 2500 3097 2075 3097 
Q 1594 3097 1305 2825 
Q 1016 2553 972 2059 
L 3022 2063 
z
" transform="scale(0.015625)"/>
       <path id="DejaVuSans-20" transform="scale(0.015625)"/>
       <path id="DejaVuSans-62" d="M 3116 1747 
Q 3116 2381 2855 2742 
Q 2594 3103 2138 3103 
Q 1681 3103 1420 2742 
Q 1159 2381 1159 1747 
Q 1159 1113 1420 752 
Q 1681 391 2138 391 
Q 2594 391 2855 752 
Q 3116 1113 3116 1747 
z
M 1159 2969 
Q 1341 3281 1617 3432 
Q 1894 3584 2278 3584 
Q 2916 3584 3314 3078 
Q 3713 2572 3713 1747 
Q 3713 922 3314 415 
Q 2916 -91 2278 -91 
Q 1894 -91 1617 61 
Q 1341 213 1159 525 
L 1159 0 
L 581 0 
L 581 4863 
L 1159 4863 
L 1159 2969 
z
" transform="scale(0.015625)"/>
       <path id="DejaVuSans-74" d="M 1172 4494 
L 1172 3500 
L 2356 3500 
L 2356 3053 
L 1172 3053 
L 1172 1153 
Q 1172 725 1289 603 
Q 1406 481 1766 481 
L 2356 481 
L 2356 0 
L 1766 0 
Q 1100 0 847 248 
Q 594 497 594 1153 
L 594 3053 
L 172 3053 
L 172 3500 
L 594 3500 
L 594 4494 
L 1172 4494 
z
" transform="scale(0.015625)"/>
       <path id="DejaVuSans-77" d="M 269 3500 
L 844 3500 
L 1563 769 
L 2278 3500 
L 2956 3500 
L 3675 769 
L 4391 3500 
L 4966 3500 
L 4050 0 
L 3372 0 
L 2619 2869 
L 1863 0 
L 1184 0 
L 269 3500 
z
" transform="scale(0.015625)"/>
       <path id="DejaVuSans-6e" d="M 3513 2113 
L 3513 0 
L 2938 0 
L 2938 2094 
Q 2938 2591 2744 2837 
Q 2550 3084 2163 3084 
Q 1697 3084 1428 2787 
Q 1159 2491 1159 1978 
L 1159 0 
L 581 0 
L 581 3500 
L 1159 3500 
L 1159 2956 
Q 1366 3272 1645 3428 
Q 1925 3584 2291 3584 
Q 2894 3584 3203 3211 
Q 3513 2838 3513 2113 
z
" transform="scale(0.015625)"/>
       <path id="DejaVuSans-6f" d="M 1959 3097 
Q 1497 3097 1228 2736 
Q 959 2375 959 1747 
Q 959 1119 1226 758 
Q 1494 397 1959 397 
Q 2419 397 2687 759 
Q 2956 1122 2956 1747 
Q 2956 2369 2687 2733 
Q 2419 3097 1959 3097 
z
M 1959 3584 
Q 2709 3584 3137 3096 
Q 3566 2609 3566 1747 
Q 3566 888 3137 398 
Q 2709 -91 1959 -91 
Q 1206 -91 779 398 
Q 353 888 353 1747 
Q 353 2609 779 3096 
Q 1206 3584 1959 3584 
z
" transform="scale(0.015625)"/>
       <path id="DejaVuSans-72" d="M 2631 2963 
Q 2534 3019 2420 3045 
Q 2306 3072 2169 3072 
Q 1681 3072 1420 2755 
Q 1159 2438 1159 1844 
L 1159 0 
L 581 0 
L 581 3500 
L 1159 3500 
L 1159 2956 
Q 1341 3275 1631 3429 
Q 1922 3584 2338 3584 
Q 2397 3584 2469 3576 
Q 2541 3569 2628 3553 
L 2631 2963 
z
" transform="scale(0.015625)"/>
       <path id="DejaVuSans-79" d="M 2059 -325 
Q 1816 -950 1584 -1140 
Q 1353 -1331 966 -1331 
L 506 -1331 
L 506 -850 
L 844 -850 
Q 1081 -850 1212 -737 
Q 1344 -625 1503 -206 
L 1606 56 
L 191 3500 
L 800 3500 
L 1894 763 
L 2988 3500 
L 3597 3500 
L 2059 -325 
z
" transform="scale(0.015625)"/>
       <path id="DejaVuSans-63" d="M 3122 3366 
L 3122 2828 
Q 2878 2963 2633 3030 
Q 2388 3097 2138 3097 
Q 1578 3097 1268 2742 
Q 959 2388 959 1747 
Q 959 1106 1268 751 
Q 1578 397 2138 397 
Q 2388 397 2633 464 
Q 2878 531 3122 666 
L 3122 134 
Q 2881 22 2623 -34 
Q 2366 -91 2075 -91 
Q 1284 -91 818 406 
Q 353 903 353 1747 
Q 353 2603 823 3093 
Q 1294 3584 2113 3584 
Q 2378 3584 2631 3529 
Q 2884 3475 3122 3366 
z
" transform="scale(0.015625)"/>
       <path id="DejaVuSans-64" d="M 2906 2969 
L 2906 4863 
L 3481 4863 
L 3481 0 
L 2906 0 
L 2906 525 
Q 2725 213 2448 61 
Q 2172 -91 1784 -91 
Q 1150 -91 751 415 
Q 353 922 353 1747 
Q 353 2572 751 3078 
Q 1150 3584 1784 3584 
Q 2172 3584 2448 3432 
Q 2725 3281 2906 2969 
z
M 947 1747 
Q 947 1113 1208 752 
Q 1469 391 1925 391 
Q 2381 391 2643 752 
Q 2906 1113 2906 1747 
Q 2906 2381 2643 2742 
Q 2381 3103 1925 3103 
Q 1469 3103 1208 2742 
Q 947 2381 947 1747 
z
" transform="scale(0.015625)"/>
       <path id="DejaVuSans-67" d="M 2906 1791 
Q 2906 2416 2648 2759 
Q 2391 3103 1925 3103 
Q 1463 3103 1205 2759 
Q 947 2416 947 1791 
Q 947 1169 1205 825 
Q 1463 481 1925 481 
Q 2391 481 2648 825 
Q 2906 1169 2906 1791 
z
M 3481 434 
Q 3481 -459 3084 -895 
Q 2688 -1331 1869 -1331 
Q 1566 -1331 1297 -1286 
Q 1028 -1241 775 -1147 
L 775 -588 
Q 1028 -725 1275 -790 
Q 1522 -856 1778 -856 
Q 2344 -856 2625 -561 
Q 2906 -266 2906 331 
L 2906 616 
Q 2728 306 2450 153 
Q 2172 0 1784 0 
Q 1141 0 747 490 
Q 353 981 353 1791 
Q 353 2603 747 3093 
Q 1141 3584 1784 3584 
Q 2172 3584 2450 3431 
Q 2728 3278 2906 2969 
L 2906 3500 
L 3481 3500 
L 3481 434 
z
" transform="scale(0.015625)"/>
       <path id="DejaVuSans-69" d="M 603 3500 
L 1178 3500 
L 1178 0 
L 603 0 
L 603 3500 
z
M 603 4863 
L 1178 4863 
L 1178 4134 
L 603 4134 
L 603 4863 
z
" transform="scale(0.015625)"/>
       <path id="DejaVuSans-2f" d="M 1625 4666 
L 2156 4666 
L 531 -594 
L 0 -594 
L 1625 4666 
z
" transform="scale(0.015625)"/>
      </defs>
      <use xlink:href="#DejaVuSans-50"/>
      <use xlink:href="#DejaVuSans-68" x="60.302734"/>
      <use xlink:href="#DejaVuSans-61" x="123.681641"/>
      <use xlink:href="#DejaVuSans-73" x="184.960938"/>
      <use xlink:href="#DejaVuSans-65" x="237.060547"/>
      <use xlink:href="#DejaVuSans-20" x="298.583984"/>
      <use xlink:href="#DejaVuSans-62" x="330.371094"/>
      <use xlink:href="#DejaVuSans-65" x="393.847656"/>
      <use xlink:href="#DejaVuSans-74" x="455.371094"/>
      <use xlink:href="#DejaVuSans-77" x="494.580078"/>
      <use xlink:href="#DejaVuSans-65" x="576.367188"/>
      <use xlink:href="#DejaVuSans-65" x="637.890625"/>
      <use xlink:href="#DejaVuSans-6e" x="699.414062"/>
      <use xlink:href="#DejaVuSans-20" x="762.792969"/>
      <use xlink:href="#DejaVuSans-62" x="794.580078"/>
      <use xlink:href="#DejaVuSans-6f" x="858.056641"/>
      <use xlink:href="#DejaVuSans-6f" x="919.238281"/>
      <use xlink:href="#DejaVuSans-73" x="980.419922"/>
      <use xlink:href="#DejaVuSans-74" x="1032.519531"/>
      <use xlink:href="#DejaVuSans-65" x="1071.728516"/>
      <use xlink:href="#DejaVuSans-72" x="1133.251953"/>
      <use xlink:href="#DejaVuSans-20" x="1174.365234"/>
      <use xlink:href="#DejaVuSans-73" x="1206.152344"/>
      <use xlink:href="#DejaVuSans-79" x="1258.251953"/>
      <use xlink:href="#DejaVuSans-6e" x="1317.431641"/>
      <use xlink:href="#DejaVuSans-63" x="1380.810547"/>
      <use xlink:href="#DejaVuSans-68" x="1435.791016"/>
      <use xlink:href="#DejaVuSans-72" x="1499.169922"/>
      <use xlink:href="#DejaVuSans-6f" x="1538.033203"/>
      <use xlink:href="#DejaVuSans-74" x="1599.214844"/>
      <use xlink:href="#DejaVuSans-72" x="1638.423828"/>
      <use xlink:href="#DejaVuSans-6f" x="1677.287109"/>
      <use xlink:href="#DejaVuSans-6e" x="1738.46875"/>
      <use xlink:href="#DejaVuSans-20" x="1801.847656"/>
      <use xlink:href="#DejaVuSans-61" x="1833.634766"/>
      <use xlink:href="#DejaVuSans-6e" x="1894.914062"/>
      <use xlink:href="#DejaVuSans-64" x="1958.292969"/>
      <use xlink:href="#DejaVuSans-20" x="2021.769531"/>
      <use xlink:href="#DejaVuSans-73" x="2053.556641"/>
      <use xlink:href="#DejaVuSans-74" x="2105.65625"/>
      <use xlink:href="#DejaVuSans-6f" x="2144.865234"/>
      <use xlink:href="#DejaVuSans-72" x="2206.046875"/>
      <use xlink:href="#DejaVuSans-61" x="2247.160156"/>
      <use xlink:href="#DejaVuSans-67" x="2308.439453"/>
      <use xlink:href="#DejaVuSans-65" x="2371.916016"/>
      <use xlink:href="#DejaVuSans-20" x="2433.439453"/>
      <use xlink:href="#DejaVuSans-72" x="2465.226562"/>
      <use xlink:href="#DejaVuSans-69" x="2506.339844"/>
      <use xlink:href="#DejaVuSans-6e" x="2534.123047"/>
      <use xlink:href="#DejaVuSans-67" x="2597.501953"/>
      <use xlink:href="#DejaVuSans-20" x="2660.978516"/>
      <use xlink:href="#DejaVuSans-2f" x="2692.765625"/>
      <use xlink:href="#DejaVuSans-20" x="2726.457031"/>
      <use xlink:href="#DejaVuSans-6e" x="2758.244141"/>
      <use xlink:href="#DejaVuSans-73" x="2821.623047"/>
     </g>
    </g>
   </g>
   <g id="matplotlib.axis_2">
    <g id="ytick_1">
     <g id="line2d_10">
      <defs>
       <path id="md612d8602d" d="M 0 0 
L -3.5 0 
" style="stroke: #000000; stroke-width: 0.8"/>
      </defs>
      <g>
       <use xlink:href="#md612d8602d" x="47.72" y="292.436667" style="stroke: #000000; stroke-width: 0.8"/>
      </g>
     </g>
     <g id="text_11">
      <!-- 0.0 -->
      <g transform="translate(24.816875 296.235885)scale(0.1 -0.1)">
       <use xlink:href="#DejaVuSans-30"/>
       <use xlink:href="#DejaVuSans-2e" x="63.623047"/>
       <use xlink:href="#DejaVuSans-30" x="95.410156"/>
      </g>
     </g>
    </g>
    <g id="ytick_2">
     <g id="line2d_11">
      <g>
       <use xlink:href="#md612d8602d" x="47.72" y="241.23" style="stroke: #000000; stroke-width: 0.8"/>
      </g>
     </g>
     <g id="text_12">
      <!-- 0.2 -->
      <g transform="translate(24.816875 245.029219)scale(0.1 -0.1)">
       <use xlink:href="#DejaVuSans-30"/>
       <use xlink:href="#DejaVuSans-2e" x="63.623047"/>
       <use xlink:href="#DejaVuSans-32" x="95.410156"/>
      </g>
     </g>
    </g>
    <g id="ytick_3">
     <g id="line2d_12">
      <g>
       <use xlink:href="#md612d8602d" x="47.72" y="190.023333" style="stroke: #000000; stroke-width: 0.8"/>
      </g>
     </g>
     <g id="text_13">
      <!-- 0.4 -->
      <g transform="translate(24.816875 193.822552)scale(0.1 -0.1)">
       <defs>
        <path id="DejaVuSans-34" d="M 2419 4116 
L 825 1625 
L 2419 1625 
L 2419 4116 
z
M 2253 4666 
L 3047 4666 
L 3047 1625 
L 3713 1625 
L 3713 1100 
L 3047 1100 
L 3047 0 
L 2419 0 
L 2419 1100 
L 313 1100 
L 313 1709 
L 2253 4666 
z
" transform="scale(0.015625)"/>
       </defs>
       <use xlink:href="#DejaVuSans-30"/>
       <use xlink:href="#DejaVuSans-2e" x="63.623047"/>
       <use xlink:href="#DejaVuSans-34" x="95.410156"/>
      </g>
     </g>
    </g>
    <g id="ytick_4">
     <g id="line2d_13">
      <g>
       <use xlink:href="#md612d8602d" x="47.72" y="138.816667" style="stroke: #000000; stroke-width: 0.8"/>
      </g>
     </g>
     <g id="text_14">
      <!-- 0.6 -->
      <g transform="translate(24.816875 142.615885)scale(0.1 -0.1)">
       <defs>
        <path id="DejaVuSans-36" d="M 2113 2584 
Q 1688 2584 1439 2293 
Q 1191 2003 1191 1497 
Q 1191 994 1439 701 
Q 1688 409 2113 409 
Q 2538 409 2786 701 
Q 3034 994 3034 1497 
Q 3034 2003 2786 2293 
Q 2538 2584 2113 2584 
z
M 3366 4563 
L 3366 3988 
Q 3128 4100 2886 4159 
Q 2644 4219 2406 4219 
Q 1781 4219 1451 3797 
Q 1122 3375 1075 2522 
Q 1259 2794 1537 2939 
Q 1816 3084 2150 3084 
Q 2853 3084 3261 2657 
Q 3669 2231 3669 1497 
Q 3669 778 3244 343 
Q 2819 -91 2113 -91 
Q 1303 -91 875 529 
Q 447 1150 447 2328 
Q 447 3434 972 4092 
Q 1497 4750 2381 4750 
Q 2619 4750 2861 4703 
Q 3103 4656 3366 4563 
z
" transform="scale(0.015625)"/>
       </defs>
       <use xlink:href="#DejaVuSans-30"/>
       <use xlink:href="#DejaVuSans-2e" x="63.623047"/>
       <use xlink:href="#DejaVuSans-36" x="95.410156"/>
      </g>
     </g>
    </g>
    <g id="ytick_5">
     <g id="line2d_14">
      <g>
       <use xlink:href="#md612d8602d" x="47.72" y="87.61" style="stroke: #000000; stroke-width: 0.8"/>
      </g>
     </g>
     <g id="text_15">
      <!-- 0.8 -->
      <g transform="translate(24.816875 91.409219)scale(0.1 -0.1)">
       <defs>
        <path id="DejaVuSans-38" d="M 2034 2216 
Q 1584 2216 1326 1975 
Q 1069 1734 1069 1313 
Q 1069 891 1326 650 
Q 1584 409 2034 409 
Q 2484 409 2743 651 
Q 3003 894 3003 1313 
Q 3003 1734 2745 1975 
Q 2488 2216 2034 2216 
z
M 1403 2484 
Q 997 2584 770 2862 
Q 544 3141 544 3541 
Q 544 4100 942 4425 
Q 1341 4750 2034 4750 
Q 2731 4750 3128 4425 
Q 3525 4100 3525 3541 
Q 3525 3141 3298 2862 
Q 3072 2584 2669 2484 
Q 3125 2378 3379 2068 
Q 3634 1759 3634 1313 
Q 3634 634 3220 271 
Q 2806 -91 2034 -91 
Q 1263 -91 848 271 
Q 434 634 434 1313 
Q 434 1759 690 2068 
Q 947 2378 1403 2484 
z
M 1172 3481 
Q 1172 3119 1398 2916 
Q 1625 2713 2034 2713 
Q 2441 2713 2670 2916 
Q 2900 3119 2900 3481 
Q 2900 3844 2670 4047 
Q 2441 4250 2034 4250 
Q 1625 4250 1398 4047 
Q 1172 3844 1172 3481 
z
" transform="scale(0.015625)"/>
       </defs>
       <use xlink:href="#DejaVuSans-30"/>
       <use xlink:href="#DejaVuSans-2e" x="63.623047"/>
       <use xlink:href="#DejaVuSans-38" x="95.410156"/>
      </g>
     </g>
    </g>
    <g id="ytick_6">
     <g id="line2d_15">
      <g>
       <use xlink:href="#md612d8602d" x="47.72" y="36.403333" style="stroke: #000000; stroke-width: 0.8"/>
      </g>
     </g>
     <g id="text_16">
      <!-- 1.0 -->
      <g transform="translate(24.816875 40.202552)scale(0.1 -0.1)">
       <use xlink:href="#DejaVuSans-31"/>
       <use xlink:href="#DejaVuSans-2e" x="63.623047"/>
       <use xlink:href="#DejaVuSans-30" x="95.410156"/>
      </g>
     </g>
    </g>
    <g id="text_17">
     <!-- Injection Efficiency -->
     <g transform="translate(18.737188 211.605938)rotate(-90)scale(0.1 -0.1)">
      <defs>
       <path id="DejaVuSans-49" d="M 628 4666 
L 1259 4666 
L 1259 0 
L 628 0 
L 628 4666 
z
" transform="scale(0.015625)"/>
       <path id="DejaVuSans-6a" d="M 603 3500 
L 1178 3500 
L 1178 -63 
Q 1178 -731 923 -1031 
Q 669 -1331 103 -1331 
L -116 -1331 
L -116 -844 
L 38 -844 
Q 366 -844 484 -692 
Q 603 -541 603 -63 
L 603 3500 
z
M 603 4863 
L 1178 4863 
L 1178 4134 
L 603 4134 
L 603 4863 
z
" transform="scale(0.015625)"/>
       <path id="DejaVuSans-45" d="M 628 4666 
L 3578 4666 
L 3578 4134 
L 1259 4134 
L 1259 2753 
L 3481 2753 
L 3481 2222 
L 1259 2222 
L 1259 531 
L 3634 531 
L 3634 0 
L 628 0 
L 628 4666 
z
" transform="scale(0.015625)"/>
       <path id="DejaVuSans-66" d="M 2375 4863 
L 2375 4384 
L 1825 4384 
Q 1516 4384 1395 4259 
Q 1275 4134 1275 3809 
L 1275 3500 
L 2222 3500 
L 2222 3053 
L 1275 3053 
L 1275 0 
L 697 0 
L 697 3053 
L 147 3053 
L 147 3500 
L 697 3500 
L 697 3744 
Q 697 4328 969 4595 
Q 1241 4863 1831 4863 
L 2375 4863 
z
" transform="scale(0.015625)"/>
      </defs>
      <use xlink:href="#DejaVuSans-49"/>
      <use xlink:href="#DejaVuSans-6e" x="29.492188"/>
      <use xlink:href="#DejaVuSans-6a" x="92.871094"/>
      <use xlink:href="#DejaVuSans-65" x="120.654297"/>
      <use xlink:href="#DejaVuSans-63" x="182.177734"/>
      <use xlink:href="#DejaVuSans-74" x="237.158203"/>
      <use xlink:href="#DejaVuSans-69" x="276.367188"/>
      <use xlink:href="#DejaVuSans-6f" x="304.150391"/>
      <use xlink:href="#DejaVuSans-6e" x="365.332031"/>
      <use xlink:href="#DejaVuSans-20" x="428.710938"/>
      <use xlink:href="#DejaVuSans-45" x="460.498047"/>
      <use xlink:href="#DejaVuSans-66" x="523.681641"/>
      <use xlink:href="#DejaVuSans-66" x="558.886719"/>
      <use xlink:href="#DejaVuSans-69" x="594.091797"/>
      <use xlink:href="#DejaVuSans-63" x="621.875"/>
      <use xlink:href="#DejaVuSans-69" x="676.855469"/>
      <use xlink:href="#DejaVuSans-65" x="704.638672"/>
      <use xlink:href="#DejaVuSans-6e" x="766.162109"/>
      <use xlink:href="#DejaVuSans-63" x="829.541016"/>
      <use xlink:href="#DejaVuSans-79" x="884.521484"/>
     </g>
    </g>
   </g>
   <g id="line2d_16">
    <path d="M 47.72 318.991932 
L 47.72 102.242049 
L 47.72 105.930721 
L 50.612275 105.930721 
L 50.612275 102.232832 
L 53.50455 111.386536 
L 53.50455 111.170443 
L 56.396825 110.780505 
L 56.396825 108.667974 
L 59.2891 112.319777 
L 59.2891 117.799914 
L 62.181375 107.389855 
L 62.181375 114.268703 
L 65.07365 128.941973 
L 65.07365 126.120998 
L 67.965925 128.67109 
L 67.965925 110.961008 
L 70.8582 133.150649 
L 70.8582 125.820159 
L 73.750475 126.729333 
L 73.750475 142.954677 
L 76.64275 138.312025 
L 76.64275 163.265546 
L 79.535025 134.249544 
L 79.535025 154.622628 
L 82.4273 156.992217 
L 82.4273 169.916268 
L 85.319575 166.203016 
L 85.319575 170.354597 
L 88.21185 174.974206 
L 88.21185 180.115355 
L 91.104125 177.335345 
L 91.104125 197.911464 
L 93.9964 208.248298 
L 93.9964 214.847557 
L 96.888675 216.289537 
L 96.888675 218.643251 
L 99.78095 231.666387 
L 99.78095 248.208701 
L 102.673225 245.615851 
L 102.673225 256.052538 
L 105.5655 256.327005 
L 105.5655 257.376486 
L 108.457775 263.349488 
L 108.457775 274.240378 
L 111.35005 277.308041 
L 111.35005 295.0755 
L 114.242325 284.095408 
L 114.242325 297.880012 
L 117.1346 293.187172 
L 117.1346 298.604663 
L 120.026875 298.604663 
L 120.026875 297.077783 
L 122.91915 299.218606 
L 122.91915 298.306384 
L 125.811425 302.679741 
L 125.811425 304.267583 
L 128.7037 308.60256 
L 128.7037 304.631944 
L 131.595975 310.144879 
L 131.595975 309.995253 
L 134.48825 309.923385 
L 134.48825 312.891298 
L 137.380525 312.029489 
L 137.380525 313.06389 
L 140.2728 312.354473 
L 140.2728 313.713267 
L 143.165075 313.713267 
L 143.165075 322.975555 
L 146.05735 313.515993 
L 146.05735 311.514197 
L 148.949625 317.206893 
L 148.949625 328.601887 
L 151.8419 309.126302 
L 151.8419 311.459508 
L 154.734175 312.912907 
L 154.734175 309.754736 
L 157.62645 314.953902 
L 157.62645 313.700619 
L 160.518725 312.185977 
L 160.518725 311.163329 
L 163.411 309.795675 
L 163.411 311.987398 
L 166.303275 315.430227 
L 166.303275 314.987289 
L 169.19555 314.987289 
L 169.19555 311.84087 
L 172.087825 313.739485 
L 172.087825 312.946114 
L 174.9801 312.946114 
L 174.9801 311.031088 
L 177.872375 313.709734 
L 177.872375 313.709734 
L 180.76465 309.903209 
L 180.76465 309.310006 
L 183.656925 311.930123 
L 183.656925 311.930123 
L 186.5492 309.690446 
L 186.5492 308.600461 
L 189.441475 309.048673 
L 189.441475 308.515125 
L 192.33375 308.96029 
L 192.33375 307.98319 
L 195.226025 306.263824 
L 195.226025 308.421109 
L 198.1183 307.827726 
L 198.1183 308.433783 
L 201.010575 305.149336 
L 201.010575 307.681122 
L 203.90285 305.786014 
L 203.90285 309.174641 
L 206.795125 306.476101 
L 206.795125 304.397904 
L 209.6874 307.053251 
L 209.6874 324.868921 
L 212.579675 306.673861 
L 212.579675 306.673861 
L 215.47195 306.150606 
L 215.47195 305.325487 
L 218.364225 302.957972 
L 218.364225 304.624698 
L 221.2565 303.536096 
L 221.2565 305.668418 
L 224.148775 304.532296 
L 227.04105 303.001729 
L 227.04105 304.276237 
L 229.933325 304.276237 
L 229.933325 323.908028 
L 232.8256 323.908028 
L 232.8256 304.847038 
L 235.717875 303.10555 
L 235.717875 302.534545 
L 238.61015 302.534545 
L 238.61015 303.602152 
L 241.502425 302.683658 
L 241.502425 302.498188 
L 244.3947 302.885771 
L 244.3947 302.07814 
L 247.286975 303.294477 
L 247.286975 302.725213 
L 250.17925 302.190641 
L 250.17925 303.657123 
L 253.071525 302.899674 
L 253.071525 306.625087 
L 255.9638 304.1304 
L 255.9638 302.103512 
L 258.856075 302.483005 
L 258.856075 302.84053 
L 261.74835 302.84053 
L 261.74835 303.562826 
L 264.640625 302.678589 
L 264.640625 303.109979 
L 267.5329 305.870889 
L 267.5329 302.196709 
L 270.425175 303.613597 
L 270.425175 317.259738 
L 273.31745 303.712964 
L 273.31745 322.94355 
L 276.209725 303.524549 
L 279.102 304.995255 
L 279.102 303.952534 
L 281.994275 303.625067 
L 281.994275 304.014545 
L 284.88655 303.062588 
L 284.88655 305.373903 
L 287.778825 325.559187 
L 287.778825 305.38819 
L 290.6711 303.829792 
L 290.6711 305.284957 
L 293.563375 306.622859 
L 293.563375 305.773955 
L 296.45565 305.773955 
L 296.45565 305.491653 
L 299.347925 305.863413 
L 299.347925 305.863413 
L 302.2402 306.120752 
L 302.2402 305.83484 
L 305.132475 305.83484 
L 305.132475 305.83484 
L 306.484557 361 
M 308.02475 361 
L 308.02475 291.314593 
L 310.917025 291.314593 
L 310.917025 291.314593 
L 313.8093 295.940406 
L 313.8093 289.505648 
L 316.701575 289.505648 
L 316.701575 288.866384 
L 319.59385 288.866384 
L 319.59385 288.122044 
L 322.486125 288.122044 
L 322.486125 288.122044 
L 325.3784 289.522751 
L 325.3784 288.783378 
L 328.270675 288.783378 
L 328.270675 288.783378 
L 331.16295 290.954802 
L 331.16295 290.954802 
L 334.055225 288.015201 
L 334.055225 288.426596 
L 339.839775 288.43397 
L 339.839775 288.116463 
L 342.73205 288.116463 
L 342.73205 280.724371 
L 345.624325 280.724371 
L 345.624325 283.90113 
L 348.5166 283.90113 
L 348.5166 283.90113 
L 351.408875 277.591649 
L 351.408875 277.591649 
L 354.30115 280.273496 
L 354.30115 280.273496 
L 357.193425 286.92834 
L 357.193425 286.92834 
L 360.0857 278.262815 
L 360.0857 278.262815 
L 362.977975 281.233954 
L 362.977975 281.233954 
L 365.87025 284.7921 
L 365.87025 284.7921 
L 368.762525 279.780555 
L 368.762525 279.780555 
L 371.6548 275.705631 
L 371.6548 275.705631 
L 374.547075 284.773512 
L 377.43935 283.145806 
L 377.43935 283.145806 
L 380.331625 283.521509 
L 380.331625 283.521509 
L 383.2239 283.712459 
L 383.2239 283.712459 
L 386.116175 279.735544 
L 386.116175 279.735544 
L 389.00845 283.613476 
L 389.00845 283.613476 
L 391.900725 279.561646 
L 391.900725 279.561646 
L 394.793 278.260818 
L 394.793 278.260818 
L 397.685275 273.197144 
L 397.685275 273.197144 
L 400.57755 270.649638 
L 400.57755 270.649638 
L 403.469825 263.776039 
L 403.469825 263.776039 
L 406.3621 251.81749 
L 406.3621 251.81749 
L 412.14665 235.669724 
L 412.14665 235.669724 
L 415.038925 220.175867 
L 415.038925 220.175867 
L 417.9312 214.967893 
L 417.9312 214.967893 
L 420.823475 197.104191 
L 420.823475 193.973672 
L 423.71575 193.973672 
L 423.71575 193.973672 
L 426.608025 168.310427 
L 426.608025 168.310427 
L 429.5003 163.100916 
L 429.5003 163.100916 
L 432.392575 149.068497 
L 432.392575 149.068497 
L 435.28485 139.820829 
L 435.28485 122.34041 
L 438.177125 122.34041 
L 438.177125 122.34041 
L 441.0694 128.561764 
L 441.0694 107.260302 
L 443.961675 107.260302 
L 443.961675 107.260302 
L 446.85395 103.584176 
L 446.85395 103.584176 
L 449.746225 93.01384 
L 449.746225 93.01384 
L 452.6385 93.517201 
L 452.6385 93.517201 
L 455.530775 103.709888 
L 455.530775 88.396278 
L 458.42305 88.396278 
L 458.42305 80.991282 
L 461.315325 80.991282 
L 461.315325 88.698142 
L 464.2076 88.698142 
L 464.2076 86.369775 
L 467.099875 86.369775 
L 467.099875 86.369775 
L 469.99215 81.709712 
L 469.99215 81.709712 
L 472.884425 76.185281 
L 472.884425 76.185281 
L 475.7767 81.315933 
L 475.7767 81.315933 
L 478.668975 72.255169 
L 478.668975 72.255169 
L 484.453525 67.830913 
L 484.453525 67.830913 
L 487.3458 75.561071 
L 487.3458 75.561071 
L 490.238075 72.633074 
L 490.238075 72.633074 
L 493.13035 70.202038 
L 493.13035 70.202038 
L 496.022625 66.938381 
L 496.022625 66.938381 
L 498.9149 61.494856 
L 498.9149 61.494856 
L 501.807175 62.627548 
L 501.807175 62.627548 
L 504.69945 68.120743 
L 504.69945 68.120743 
L 507.591725 56.96409 
L 507.591725 56.96409 
L 510.484 51.52287 
L 510.484 51.52287 
L 513.376275 59.468864 
L 513.376275 59.468864 
L 516.26855 54.476982 
L 516.26855 54.476982 
L 519.160825 50.852831 
L 519.160825 50.852831 
L 522.0531 48.568245 
L 522.0531 48.568245 
L 524.945375 50.11187 
L 524.945375 50.11187 
L 527.83765 45.572399 
L 527.83765 45.572399 
L 530.729925 48.481194 
L 530.729925 48.481194 
L 533.6222 44.738499 
L 533.6222 44.738499 
L 536.514475 46.992872 
L 536.514475 46.992872 
L 539.40675 46.339475 
L 539.40675 46.339475 
L 542.299025 46.855638 
L 542.299025 46.855638 
L 542.299025 45.264647 
L 545.1913 45.264647 
L 545.1913 50.17127 
L 548.083575 50.17127 
L 548.083575 48.906209 
L 550.97585 48.906209 
L 550.97585 42.590379 
L 553.868125 42.590379 
L 553.868125 43.315721 
L 556.7604 43.315721 
L 556.7604 45.309197 
L 559.652675 45.309197 
L 559.652675 47.966567 
L 562.54495 43.021027 
L 562.54495 43.021027 
L 565.437225 43.021027 
L 565.437225 44.589487 
L 568.3295 44.589487 
L 568.3295 45.431069 
L 571.221775 45.431069 
L 571.221775 45.238276 
L 574.11405 45.238276 
L 574.11405 44.395414 
L 577.006325 44.395414 
L 577.006325 44.354961 
L 579.8986 47.28347 
L 579.8986 47.28347 
L 582.790875 53.054205 
L 582.790875 53.054205 
L 585.68315 53.054205 
L 585.68315 51.954542 
L 588.575425 51.954542 
L 588.575425 57.044485 
L 591.4677 57.044485 
L 591.4677 64.117149 
L 594.359975 64.117149 
L 594.359975 66.953231 
L 597.25225 66.953231 
L 597.25225 64.004751 
L 600.144525 64.004751 
L 600.144525 69.636204 
L 603.0368 69.636204 
L 603.0368 75.088946 
L 605.929075 75.088946 
L 605.929075 76.950308 
L 608.82135 76.950308 
L 608.82135 75.581554 
L 614.6059 75.576945 
L 614.6059 71.527522 
L 617.498175 71.527522 
L 617.498175 79.779477 
L 620.39045 79.779477 
L 620.39045 82.305501 
L 623.282725 82.305501 
L 623.282725 90.482694 
L 626.175 90.482694 
L 626.175 98.062049 
L 629.067275 98.062049 
L 629.067275 93.76709 
L 631.95955 93.76709 
L 631.95955 99.154287 
L 634.851825 99.154287 
L 634.851825 101.470877 
L 637.7441 101.470877 
L 637.7441 96.786491 
L 640.636375 96.786491 
L 640.636375 100.643377 
L 643.52865 100.643377 
L 643.52865 114.437941 
L 646.420925 114.437941 
L 646.420925 122.228523 
L 649 122.228523 
L 649 122.228523 
" clip-path="url(#p2f127914a5)" style="fill: none; stroke: #1f77b4; stroke-width: 1.5; stroke-linecap: square"/>
   </g>
   <g id="line2d_17">
    <path d="M 47.72 249.846802 
L 50.612275 249.846802 
L 50.612275 58.808298 
L 53.50455 58.808298 
L 53.50455 59.745892 
L 56.396825 59.745892 
L 56.396825 60.230051 
L 59.2891 60.230051 
L 59.2891 58.134163 
L 62.181375 58.134163 
L 62.181375 59.146006 
L 65.07365 59.146006 
L 65.07365 57.057798 
L 67.965925 57.057798 
L 67.965925 55.572037 
L 70.8582 55.572037 
L 70.8582 61.797231 
L 73.750475 61.797231 
L 73.750475 56.13147 
L 76.64275 56.13147 
L 76.64275 57.226524 
L 79.535025 57.226524 
L 79.535025 56.418739 
L 82.4273 56.418739 
L 82.4273 66.162088 
L 85.319575 66.162088 
L 85.319575 59.840881 
L 88.21185 59.840881 
L 88.21185 61.106453 
L 91.104125 61.106453 
L 91.104125 69.318211 
L 93.9964 69.318211 
L 93.9964 69.318211 
L 96.888675 67.187245 
L 96.888675 81.566333 
L 99.78095 81.566333 
L 99.78095 94.671143 
L 105.5655 94.682153 
L 105.5655 111.095938 
L 108.457775 111.095938 
L 108.457775 113.551041 
L 111.35005 113.551041 
L 111.35005 120.934787 
L 114.242325 120.934787 
L 114.242325 132.180795 
L 117.1346 132.180795 
L 117.1346 143.114954 
L 120.026875 143.114954 
L 120.026875 161.421082 
L 122.91915 161.421082 
L 122.91915 165.240843 
L 125.811425 165.240843 
L 125.811425 179.512653 
L 128.7037 179.512653 
L 128.7037 187.75795 
L 128.7037 187.75795 
L 131.595975 195.537011 
L 131.595975 195.537011 
L 134.48825 198.022327 
L 134.48825 198.022327 
L 137.380525 213.997527 
L 137.380525 213.997527 
L 140.2728 217.795525 
L 140.2728 217.795525 
L 143.165075 222.854488 
L 143.165075 222.854488 
L 146.05735 234.47456 
L 146.05735 234.47456 
L 148.949625 235.829233 
L 148.949625 235.829233 
L 151.8419 252.047664 
L 151.8419 252.047664 
L 154.734175 252.924579 
L 154.734175 252.924579 
L 157.62645 260.068933 
L 157.62645 260.068933 
L 160.518725 270.11522 
L 160.518725 270.11522 
L 163.411 273.839532 
L 163.411 273.839532 
L 166.303275 273.839532 
L 166.303275 275.891076 
L 169.19555 281.206174 
L 169.19555 281.206174 
L 172.087825 283.333888 
L 172.087825 283.333888 
L 174.9801 286.741077 
L 174.9801 286.741077 
L 177.872375 288.08026 
L 177.872375 288.08026 
L 180.76465 289.604272 
L 180.76465 289.604272 
L 183.656925 289.945183 
L 183.656925 289.945183 
L 186.5492 291.95175 
L 186.5492 291.95175 
L 189.441475 290.934903 
L 189.441475 290.934903 
L 192.33375 293.154131 
L 192.33375 293.154131 
L 195.226025 293.154131 
L 195.226025 291.198402 
L 198.1183 292.350569 
L 198.1183 292.350569 
L 201.010575 292.350569 
L 201.010575 291.673196 
L 203.90285 291.036579 
L 203.90285 291.036579 
L 206.795125 292.629328 
L 206.795125 292.629328 
L 209.6874 292.870495 
L 209.6874 292.870495 
L 215.47195 292.016239 
L 215.47195 292.016239 
L 218.364225 292.433069 
L 218.364225 292.433069 
L 221.2565 291.725511 
L 221.2565 291.725511 
L 224.148775 292.274017 
L 224.148775 292.274017 
L 227.04105 294.382374 
L 227.04105 294.382374 
L 229.933325 293.841545 
L 229.933325 293.841545 
L 232.8256 295.842627 
L 235.717875 292.469839 
L 235.717875 292.469839 
L 241.502425 291.940313 
L 241.502425 291.940313 
L 244.3947 292.598042 
L 244.3947 292.598042 
L 247.286975 292.62021 
L 247.286975 292.62021 
L 250.17925 291.84429 
L 250.17925 291.84429 
L 253.071525 293.0603 
L 253.071525 293.0603 
L 255.9638 293.124093 
L 255.9638 293.124093 
L 258.856075 292.446793 
L 258.856075 292.446793 
L 261.74835 292.996985 
L 261.74835 292.996985 
L 264.640625 291.806807 
L 264.640625 291.806807 
L 267.5329 292.042698 
L 267.5329 292.042698 
L 270.425175 289.506621 
L 273.31745 290.237266 
L 273.31745 290.237266 
L 276.209725 289.432653 
L 276.209725 289.432653 
L 279.102 290.519906 
L 279.102 290.519906 
L 281.994275 290.519906 
L 281.994275 287.940491 
L 284.88655 287.940491 
L 284.88655 288.140632 
L 287.778825 288.140632 
L 287.778825 287.464807 
L 290.6711 287.071053 
L 290.6711 287.071053 
L 293.563375 284.92493 
L 293.563375 284.92493 
L 296.45565 280.601475 
L 296.45565 280.601475 
L 299.347925 280.601475 
L 299.347925 280.230636 
L 302.2402 277.538932 
L 302.2402 277.538932 
L 305.132475 276.431869 
L 305.132475 276.431869 
L 308.02475 276.431869 
L 308.02475 275.458226 
L 310.917025 268.490458 
L 310.917025 268.490458 
L 313.8093 268.490458 
L 313.8093 266.419071 
L 316.701575 264.551564 
L 319.59385 264.551564 
L 319.59385 259.985978 
L 322.486125 252.313427 
L 322.486125 252.313427 
L 325.3784 252.313427 
L 325.3784 252.730761 
L 328.270675 249.627893 
L 328.270675 249.627893 
L 331.16295 242.322494 
L 331.16295 242.322494 
L 334.055225 242.322494 
L 334.055225 239.91066 
L 336.9475 230.539584 
L 336.9475 230.539584 
L 339.839775 230.539584 
L 339.839775 233.969407 
L 342.73205 225.935593 
L 342.73205 225.935593 
L 345.624325 223.352985 
L 345.624325 223.352985 
L 348.5166 219.399062 
L 351.408875 215.107687 
L 351.408875 215.107687 
L 354.30115 209.290354 
L 354.30115 209.290354 
L 357.193425 202.396912 
L 357.193425 202.396912 
L 360.0857 199.198032 
L 360.0857 199.198032 
L 362.977975 197.1385 
L 362.977975 197.1385 
L 365.87025 197.225039 
L 365.87025 197.225039 
L 368.762525 188.696057 
L 368.762525 188.696057 
L 371.6548 187.180851 
L 371.6548 187.180851 
L 377.43935 176.23261 
L 377.43935 176.23261 
L 380.331625 176.727522 
L 380.331625 176.727522 
L 383.2239 176.062604 
L 383.2239 176.062604 
L 386.116175 163.316752 
L 386.116175 163.316752 
L 389.00845 149.880891 
L 389.00845 149.880891 
L 391.900725 157.491738 
L 391.900725 157.491738 
L 394.793 138.200394 
L 394.793 138.200394 
L 397.685275 131.519973 
L 397.685275 131.519973 
L 400.57755 131.519973 
L 400.57755 127.899661 
L 403.469825 127.899661 
L 403.469825 115.719388 
L 406.3621 115.719388 
L 406.3621 101.18924 
L 409.254375 101.18924 
L 409.254375 107.698375 
L 412.14665 103.78465 
L 412.14665 103.78465 
L 415.038925 86.864175 
L 415.038925 86.864175 
L 417.9312 80.764181 
L 417.9312 80.764181 
L 420.823475 83.304031 
L 420.823475 83.304031 
L 423.71575 83.304031 
L 423.71575 69.515868 
L 426.608025 69.515868 
L 426.608025 70.893584 
L 429.5003 70.893584 
L 429.5003 65.348158 
L 432.392575 65.348158 
L 432.392575 58.301096 
L 435.28485 58.301096 
L 435.28485 62.693092 
L 438.177125 62.693092 
L 438.177125 55.360553 
L 441.0694 55.360553 
L 441.0694 55.954551 
L 443.961675 58.405558 
L 446.85395 58.405558 
L 446.85395 53.844836 
L 449.746225 56.234395 
L 449.746225 56.234395 
L 452.6385 56.234395 
L 452.6385 56.856044 
L 455.530775 56.555205 
L 455.530775 56.555205 
L 458.42305 55.513149 
L 458.42305 55.513149 
L 461.315325 55.513149 
L 461.315325 54.571971 
L 464.2076 54.214292 
L 464.2076 54.214292 
L 467.099875 54.214292 
L 467.099875 58.703837 
L 469.99215 56.991998 
L 469.99215 56.991998 
L 472.884425 57.11899 
L 472.884425 57.11899 
L 475.7767 57.11899 
L 475.7767 59.737443 
L 478.668975 58.494657 
L 478.668975 58.494657 
L 481.56125 61.258793 
L 481.56125 61.258793 
L 484.453525 58.091149 
L 484.453525 58.091149 
L 487.3458 56.295587 
L 490.238075 62.043279 
L 490.238075 62.043279 
L 493.13035 65.131297 
L 493.13035 65.131297 
L 496.022625 66.192812 
L 496.022625 66.192812 
L 498.9149 62.431426 
L 498.9149 62.431426 
L 501.807175 66.137765 
L 501.807175 66.137765 
L 504.69945 63.980684 
L 504.69945 63.980684 
L 507.591725 61.615448 
L 507.591725 61.615448 
L 510.484 61.156124 
L 510.484 61.156124 
L 513.376275 58.638804 
L 513.376275 58.638804 
L 516.26855 59.891575 
L 516.26855 59.891575 
L 519.160825 59.891575 
L 519.160825 69.55837 
L 522.0531 69.55837 
L 522.0531 52.974323 
L 524.945375 52.974323 
L 524.945375 53.656908 
L 527.83765 53.656908 
L 527.83765 55.659088 
L 530.729925 55.659088 
L 530.729925 51.394853 
L 533.6222 47.541295 
L 533.6222 47.541295 
L 542.299025 47.790416 
L 542.299025 45.162746 
L 545.1913 45.162746 
L 545.1913 49.733197 
L 548.083575 48.146814 
L 548.083575 48.146814 
L 550.97585 48.146814 
L 550.97585 49.177604 
L 553.868125 49.177604 
L 553.868125 47.152893 
L 556.7604 47.152893 
L 556.7604 46.583731 
L 559.652675 46.583731 
L 559.652675 49.631296 
L 562.54495 49.631296 
L 562.54495 48.524719 
L 565.437225 48.524719 
L 565.437225 50.741968 
L 568.3295 50.741968 
L 568.3295 53.251863 
L 571.221775 53.251863 
L 571.221775 53.61671 
L 574.11405 57.051142 
L 574.11405 57.051142 
L 577.006325 57.051142 
L 577.006325 60.278186 
L 579.8986 57.873265 
L 579.8986 57.873265 
L 582.790875 57.873265 
L 582.790875 59.365683 
L 585.68315 59.365683 
L 585.68315 61.085203 
L 588.575425 64.149666 
L 588.575425 64.149666 
L 591.4677 64.149666 
L 591.4677 60.798189 
L 594.359975 63.271471 
L 594.359975 63.271471 
L 597.25225 59.618644 
L 597.25225 59.618644 
L 600.144525 63.314229 
L 600.144525 63.314229 
L 603.0368 61.503561 
L 603.0368 61.503561 
L 605.929075 63.07535 
L 605.929075 63.07535 
L 608.82135 60.359604 
L 608.82135 60.359604 
L 611.713625 60.359604 
L 611.713625 61.714789 
L 614.6059 61.714789 
L 614.6059 59.532105 
L 617.498175 57.206298 
L 617.498175 57.206298 
L 620.39045 57.072136 
L 620.39045 57.072136 
L 623.282725 61.83026 
L 623.282725 61.83026 
L 626.175 59.528008 
L 626.175 59.528008 
L 629.067275 54.56557 
L 629.067275 54.56557 
L 631.95955 53.372199 
L 631.95955 53.372199 
L 634.851825 53.372199 
L 634.851825 55.957111 
L 637.7441 56.1476 
L 637.7441 56.1476 
L 640.636375 57.126927 
L 640.636375 57.126927 
L 643.52865 57.126927 
L 643.52865 57.772643 
L 646.420925 57.772643 
L 646.420925 60.78846 
L 649 60.78846 
L 649 60.78846 
" clip-path="url(#p2f127914a5)" style="fill: none; stroke: #ff7f0e; stroke-width: 1.5; stroke-linecap: square"/>
   </g>
   <g id="patch_3">
    <path d="M 47.72 318.04 
L 47.72 10.8 
" style="fill: none; stroke: #000000; stroke-width: 0.8; stroke-linejoin: miter; stroke-linecap: square"/>
   </g>
   <g id="patch_4">
    <path d="M 626.175 318.04 
L 626.175 10.8 
" style="fill: none; stroke: #000000; stroke-width: 0.8; stroke-linejoin: miter; stroke-linecap: square"/>
   </g>
   <g id="patch_5">
    <path d="M 47.72 318.04 
L 626.175 318.04 
" style="fill: none; stroke: #000000; stroke-width: 0.8; stroke-linejoin: miter; stroke-linecap: square"/>
   </g>
   <g id="patch_6">
    <path d="M 47.72 10.8 
L 626.175 10.8 
" style="fill: none; stroke: #000000; stroke-width: 0.8; stroke-linejoin: miter; stroke-linecap: square"/>
   </g>
   <g id="legend_1">
    <g id="patch_7">
     <path d="M 515.709375 313.04 
L 619.175 313.04 
Q 621.175 313.04 621.175 311.04 
L 621.175 282.68375 
Q 621.175 280.68375 619.175 280.68375 
L 515.709375 280.68375 
Q 513.709375 280.68375 513.709375 282.68375 
L 513.709375 311.04 
Q 513.709375 313.04 515.709375 313.04 
z
" style="fill: #ffffff; opacity: 0.8; stroke: #cccccc; stroke-linejoin: miter"/>
    </g>
    <g id="line2d_18">
     <path d="M 517.709375 288.782188 
L 527.709375 288.782188 
L 537.709375 288.782188 
" style="fill: none; stroke: #1f77b4; stroke-width: 1.5; stroke-linecap: square"/>
    </g>
    <g id="text_18">
     <!-- Standard User -->
     <g transform="translate(545.709375 292.282188)scale(0.1 -0.1)">
      <defs>
       <path id="DejaVuSans-53" d="M 3425 4513 
L 3425 3897 
Q 3066 4069 2747 4153 
Q 2428 4238 2131 4238 
Q 1616 4238 1336 4038 
Q 1056 3838 1056 3469 
Q 1056 3159 1242 3001 
Q 1428 2844 1947 2747 
L 2328 2669 
Q 3034 2534 3370 2195 
Q 3706 1856 3706 1288 
Q 3706 609 3251 259 
Q 2797 -91 1919 -91 
Q 1588 -91 1214 -16 
Q 841 59 441 206 
L 441 856 
Q 825 641 1194 531 
Q 1563 422 1919 422 
Q 2459 422 2753 634 
Q 3047 847 3047 1241 
Q 3047 1584 2836 1778 
Q 2625 1972 2144 2069 
L 1759 2144 
Q 1053 2284 737 2584 
Q 422 2884 422 3419 
Q 422 4038 858 4394 
Q 1294 4750 2059 4750 
Q 2388 4750 2728 4690 
Q 3069 4631 3425 4513 
z
" transform="scale(0.015625)"/>
       <path id="DejaVuSans-55" d="M 556 4666 
L 1191 4666 
L 1191 1831 
Q 1191 1081 1462 751 
Q 1734 422 2344 422 
Q 2950 422 3222 751 
Q 3494 1081 3494 1831 
L 3494 4666 
L 4128 4666 
L 4128 1753 
Q 4128 841 3676 375 
Q 3225 -91 2344 -91 
Q 1459 -91 1007 375 
Q 556 841 556 1753 
L 556 4666 
z
" transform="scale(0.015625)"/>
      </defs>
      <use xlink:href="#DejaVuSans-53"/>
      <use xlink:href="#DejaVuSans-74" x="63.476562"/>
      <use xlink:href="#DejaVuSans-61" x="102.685547"/>
      <use xlink:href="#DejaVuSans-6e" x="163.964844"/>
      <use xlink:href="#DejaVuSans-64" x="227.34375"/>
      <use xlink:href="#DejaVuSans-61" x="290.820312"/>
      <use xlink:href="#DejaVuSans-72" x="352.099609"/>
      <use xlink:href="#DejaVuSans-64" x="391.462891"/>
      <use xlink:href="#DejaVuSans-20" x="454.939453"/>
      <use xlink:href="#DejaVuSans-55" x="486.726562"/>
      <use xlink:href="#DejaVuSans-73" x="559.919922"/>
      <use xlink:href="#DejaVuSans-65" x="612.019531"/>
      <use xlink:href="#DejaVuSans-72" x="673.542969"/>
     </g>
    </g>
    <g id="line2d_19">
     <path d="M 517.709375 303.460313 
L 527.709375 303.460313 
L 537.709375 303.460313 
" style="fill: none; stroke: #ff7f0e; stroke-width: 1.5; stroke-linecap: square"/>
    </g>
    <g id="text_19">
     <!-- Q5T2off -->
     <g transform="translate(545.709375 306.960313)scale(0.1 -0.1)">
      <defs>
       <path id="DejaVuSans-51" d="M 2522 4238 
Q 1834 4238 1429 3725 
Q 1025 3213 1025 2328 
Q 1025 1447 1429 934 
Q 1834 422 2522 422 
Q 3209 422 3611 934 
Q 4013 1447 4013 2328 
Q 4013 3213 3611 3725 
Q 3209 4238 2522 4238 
z
M 3406 84 
L 4238 -825 
L 3475 -825 
L 2784 -78 
Q 2681 -84 2626 -87 
Q 2572 -91 2522 -91 
Q 1538 -91 948 567 
Q 359 1225 359 2328 
Q 359 3434 948 4092 
Q 1538 4750 2522 4750 
Q 3503 4750 4090 4092 
Q 4678 3434 4678 2328 
Q 4678 1516 4351 937 
Q 4025 359 3406 84 
z
" transform="scale(0.015625)"/>
       <path id="DejaVuSans-54" d="M -19 4666 
L 3928 4666 
L 3928 4134 
L 2272 4134 
L 2272 0 
L 1638 0 
L 1638 4134 
L -19 4134 
L -19 4666 
z
" transform="scale(0.015625)"/>
      </defs>
      <use xlink:href="#DejaVuSans-51"/>
      <use xlink:href="#DejaVuSans-35" x="78.710938"/>
      <use xlink:href="#DejaVuSans-54" x="142.333984"/>
      <use xlink:href="#DejaVuSans-32" x="203.417969"/>
      <use xlink:href="#DejaVuSans-6f" x="267.041016"/>
      <use xlink:href="#DejaVuSans-66" x="328.222656"/>
      <use xlink:href="#DejaVuSans-66" x="363.427734"/>
     </g>
    </g>
   </g>
  </g>
 </g>
 <defs>
  <clipPath id="p2f127914a5">
   <rect x="47.72" y="10.8" width="578.455" height="307.24"/>
  </clipPath>
 </defs>
</svg>
