<svg width="1000" height="334" viewBox="0 0 1000 334" fill="none" xmlns="http://www.w3.org/2000/svg">
<rect x="666.5" y="51.5" width="235" height="40" rx="5.5" stroke="black" stroke-width="3"/>
<rect x="666.5" y="118.5" width="235" height="40" rx="5.5" stroke="black" stroke-width="3"/>
<path d="M755.057 79H757.428V74.206H759.844L762.414 79H765.06L762.229 73.8097C763.769 73.1896 764.581 71.8729 764.581 70.0959C764.581 67.5966 762.97 65.9091 759.966 65.9091H755.057V79ZM757.428 72.2372V67.8906H759.602C761.372 67.8906 762.165 68.7024 762.165 70.0959C762.165 71.4893 761.372 72.2372 759.614 72.2372H757.428ZM772.919 74.8707C772.919 76.3665 771.852 77.108 770.829 77.108C769.717 77.108 768.975 76.3217 768.975 75.0753V69.1818H766.662V75.4332C766.662 77.7919 768.004 79.1278 769.934 79.1278C771.404 79.1278 772.44 78.3544 772.887 77.255H772.99V79H775.233V69.1818H772.919V74.8707ZM779.927 73.2472C779.927 71.8281 780.783 71.0099 782.004 71.0099C783.199 71.0099 783.915 71.7962 783.915 73.1065V79H786.229V72.7486C786.236 70.3963 784.893 69.054 782.867 69.054C781.397 69.054 780.387 69.7571 779.939 70.8501H779.824V69.1818H777.613V79H779.927V73.2472ZM793.555 69.1818H791.515V68.4084C791.515 67.6413 791.835 67.2131 792.698 67.2131C793.062 67.2131 793.369 67.2962 793.561 67.3537L794.028 65.5639C793.727 65.4616 793.069 65.2955 792.27 65.2955C790.563 65.2955 789.202 66.2734 789.202 68.255V69.1818H787.751V70.9716H789.202V79H791.515V70.9716H793.555V69.1818ZM795.367 79H797.681V69.1818H795.367V79ZM796.53 67.7884C797.265 67.7884 797.866 67.2259 797.866 66.5355C797.866 65.8388 797.265 65.2763 796.53 65.2763C795.789 65.2763 795.188 65.8388 795.188 66.5355C795.188 67.2259 795.789 67.7884 796.53 67.7884ZM802.374 65.9091H800.06V79H802.374V65.9091ZM809.1 79.1918C811.388 79.1918 812.961 78.0732 813.37 76.3665L811.209 76.1236C810.896 76.9545 810.129 77.3892 809.132 77.3892C807.636 77.3892 806.645 76.4048 806.626 74.7237H813.466V74.0142C813.466 70.5689 811.395 69.054 808.979 69.054C806.166 69.054 804.331 71.1186 804.331 74.1484C804.331 77.2294 806.14 79.1918 809.1 79.1918ZM806.633 73.1641C806.703 71.9112 807.63 70.8565 809.01 70.8565C810.34 70.8565 811.235 71.8281 811.248 73.1641H806.633Z" fill="black"/>
<path d="M721.021 136.508H723.303C723.258 134.296 721.372 132.73 718.585 132.73C715.837 132.73 713.772 134.277 713.779 136.591C713.779 138.47 715.115 139.55 717.269 140.107L718.758 140.49C720.171 140.848 721.104 141.289 721.11 142.305C721.104 143.424 720.043 144.172 718.496 144.172C717.013 144.172 715.862 143.507 715.767 142.133H713.433C713.529 144.734 715.466 146.198 718.515 146.198C721.654 146.198 723.475 144.632 723.482 142.325C723.475 140.055 721.602 139.02 719.634 138.553L718.406 138.246C717.333 137.991 716.169 137.537 716.182 136.444C716.188 135.46 717.07 134.737 718.553 134.737C719.966 134.737 720.899 135.396 721.021 136.508ZM725.494 146H727.808V136.182H725.494V146ZM726.657 134.788C727.392 134.788 727.993 134.226 727.993 133.536C727.993 132.839 727.392 132.276 726.657 132.276C725.915 132.276 725.315 132.839 725.315 133.536C725.315 134.226 725.915 134.788 726.657 134.788ZM730.187 146H732.501V140.03C732.501 138.822 733.306 138.004 734.303 138.004C735.281 138.004 735.953 138.662 735.953 139.672V146H738.222V139.876C738.222 138.771 738.88 138.004 739.999 138.004C740.932 138.004 741.673 138.553 741.673 139.768V146H743.994V139.41C743.994 137.217 742.728 136.054 740.926 136.054C739.5 136.054 738.414 136.757 737.979 137.85H737.877C737.499 136.738 736.547 136.054 735.224 136.054C733.907 136.054 732.923 136.732 732.514 137.85H732.399V136.182H730.187V146ZM752.599 141.871C752.599 143.366 751.532 144.108 750.509 144.108C749.397 144.108 748.655 143.322 748.655 142.075V136.182H746.341V142.433C746.341 144.792 747.684 146.128 749.614 146.128C751.084 146.128 752.12 145.354 752.567 144.255H752.669V146H754.913V136.182H752.599V141.871ZM759.606 132.909H757.292V146H759.606V132.909ZM764.811 146.198C766.352 146.198 767.272 145.476 767.694 144.651H767.771V146H769.995V139.429C769.995 136.834 767.879 136.054 766.006 136.054C763.942 136.054 762.357 136.974 761.845 138.764L764.006 139.071C764.236 138.4 764.888 137.825 766.019 137.825C767.093 137.825 767.681 138.374 767.681 139.339V139.378C767.681 140.043 766.984 140.075 765.252 140.26C763.347 140.464 761.526 141.033 761.526 143.245C761.526 145.175 762.938 146.198 764.811 146.198ZM765.412 144.498C764.447 144.498 763.756 144.057 763.756 143.207C763.756 142.318 764.53 141.947 765.565 141.8C766.173 141.717 767.387 141.564 767.688 141.321V142.478C767.688 143.571 766.805 144.498 765.412 144.498ZM777.224 136.182H775.288V133.83H772.974V136.182H771.58V137.972H772.974V143.43C772.961 145.278 774.303 146.185 776.042 146.134C776.7 146.115 777.154 145.987 777.403 145.904L777.013 144.095C776.886 144.127 776.624 144.185 776.336 144.185C775.754 144.185 775.288 143.98 775.288 143.047V137.972H777.224V136.182ZM779.16 146H781.474V136.182H779.16V146ZM780.323 134.788C781.058 134.788 781.659 134.226 781.659 133.536C781.659 132.839 781.058 132.276 780.323 132.276C779.581 132.276 778.981 132.839 778.981 133.536C778.981 134.226 779.581 134.788 780.323 134.788ZM788.136 146.192C791.012 146.192 792.84 144.165 792.84 141.129C792.84 138.087 791.012 136.054 788.136 136.054C785.259 136.054 783.431 138.087 783.431 141.129C783.431 144.165 785.259 146.192 788.136 146.192ZM788.148 144.338C786.557 144.338 785.777 142.919 785.777 141.123C785.777 139.327 786.557 137.888 788.148 137.888C789.714 137.888 790.494 139.327 790.494 141.123C790.494 142.919 789.714 144.338 788.148 144.338ZM797.118 140.247C797.118 138.828 797.975 138.01 799.195 138.01C800.391 138.01 801.107 138.796 801.107 140.107V146H803.421V139.749C803.427 137.396 802.085 136.054 800.058 136.054C798.588 136.054 797.578 136.757 797.131 137.85H797.016V136.182H794.804V146H797.118V140.247ZM821.545 137.326C821.143 134.418 818.905 132.73 816.003 132.73C812.584 132.73 810.008 135.223 810.008 139.455C810.008 143.68 812.552 146.179 816.003 146.179C819.116 146.179 821.181 144.165 821.545 141.666L819.155 141.653C818.854 143.188 817.601 144.05 816.035 144.05C813.913 144.05 812.392 142.459 812.392 139.455C812.392 136.501 813.9 134.859 816.042 134.859C817.633 134.859 818.88 135.76 819.155 137.326H821.545ZM827.897 146.192C830.774 146.192 832.602 144.165 832.602 141.129C832.602 138.087 830.774 136.054 827.897 136.054C825.021 136.054 823.193 138.087 823.193 141.129C823.193 144.165 825.021 146.192 827.897 146.192ZM827.91 144.338C826.319 144.338 825.539 142.919 825.539 141.123C825.539 139.327 826.319 137.888 827.91 137.888C829.476 137.888 830.256 139.327 830.256 141.123C830.256 142.919 829.476 144.338 827.91 144.338ZM838.209 146.173C839.897 146.173 840.657 145.169 841.022 144.453H841.162V146H843.438V132.909H841.118V137.805H841.022C840.67 137.096 839.948 136.054 838.216 136.054C835.947 136.054 834.163 137.831 834.163 141.104C834.163 144.338 835.895 146.173 838.209 146.173ZM838.855 144.274C837.327 144.274 836.522 142.932 836.522 141.091C836.522 139.263 837.314 137.952 838.855 137.952C840.344 137.952 841.162 139.186 841.162 141.091C841.162 142.996 840.331 144.274 838.855 144.274ZM850.25 146.192C852.539 146.192 854.111 145.073 854.52 143.366L852.36 143.124C852.047 143.955 851.279 144.389 850.282 144.389C848.787 144.389 847.796 143.405 847.777 141.724H854.616V141.014C854.616 137.569 852.545 136.054 850.129 136.054C847.316 136.054 845.482 138.119 845.482 141.148C845.482 144.229 847.291 146.192 850.25 146.192ZM847.783 140.164C847.853 138.911 848.78 137.857 850.161 137.857C851.49 137.857 852.385 138.828 852.398 140.164H847.783Z" fill="black"/>
<rect x="666.5" y="188.5" width="232" height="40" rx="5.5" stroke="black" stroke-width="3"/>
<rect x="98.5" y="51.5" width="232" height="171" rx="5.5" stroke="black" stroke-width="3"/>
<rect x="98.5" y="268.5" width="232" height="40" rx="5.5" stroke="black" stroke-width="3"/>
<path d="M751.623 214H753.995V209.206H756.411L758.98 214H761.627L758.795 208.81C760.336 208.19 761.147 206.873 761.147 205.096C761.147 202.597 759.537 200.909 756.532 200.909H751.623V214ZM753.995 207.237V202.891H756.168C757.939 202.891 758.731 203.702 758.731 205.096C758.731 206.489 757.939 207.237 756.181 207.237H753.995ZM767.434 214.192C769.722 214.192 771.295 213.073 771.704 211.366L769.543 211.124C769.23 211.955 768.463 212.389 767.466 212.389C765.97 212.389 764.979 211.405 764.96 209.724H771.8V209.014C771.8 205.569 769.729 204.054 767.312 204.054C764.5 204.054 762.665 206.119 762.665 209.148C762.665 212.229 764.474 214.192 767.434 214.192ZM764.967 208.164C765.037 206.911 765.964 205.857 767.344 205.857C768.674 205.857 769.569 206.828 769.582 208.164H764.967ZM781.517 206.777C781.198 205.115 779.868 204.054 777.567 204.054C775.202 204.054 773.591 205.217 773.597 207.033C773.591 208.464 774.473 209.411 776.359 209.8L778.034 210.152C778.935 210.35 779.357 210.714 779.357 211.271C779.357 211.942 778.628 212.447 777.529 212.447C776.468 212.447 775.777 211.987 775.579 211.104L773.323 211.322C773.61 213.124 775.125 214.192 777.535 214.192C779.99 214.192 781.722 212.92 781.728 211.06C781.722 209.66 780.82 208.803 778.967 208.401L777.292 208.043C776.295 207.819 775.899 207.474 775.905 206.905C775.899 206.24 776.634 205.78 777.599 205.78C778.666 205.78 779.229 206.362 779.408 207.007L781.517 206.777ZM789.894 209.871C789.894 211.366 788.827 212.108 787.804 212.108C786.692 212.108 785.95 211.322 785.95 210.075V204.182H783.636V210.433C783.636 212.792 784.979 214.128 786.909 214.128C788.379 214.128 789.415 213.354 789.862 212.255H789.964V214H792.208V204.182H789.894V209.871ZM796.901 200.909H794.587V214H796.901V200.909ZM804.183 204.182H802.247V201.83H799.933V204.182H798.539V205.972H799.933V211.43C799.92 213.278 801.262 214.185 803.001 214.134C803.659 214.115 804.113 213.987 804.362 213.904L803.972 212.095C803.845 212.127 803.583 212.185 803.295 212.185C802.713 212.185 802.247 211.98 802.247 211.047V205.972H804.183V204.182ZM813.738 206.777C813.418 205.115 812.089 204.054 809.788 204.054C807.423 204.054 805.812 205.217 805.818 207.033C805.812 208.464 806.694 209.411 808.58 209.8L810.254 210.152C811.156 210.35 811.577 210.714 811.577 211.271C811.577 211.942 810.849 212.447 809.749 212.447C808.688 212.447 807.998 211.987 807.8 211.104L805.543 211.322C805.831 213.124 807.346 214.192 809.756 214.192C812.21 214.192 813.942 212.92 813.949 211.06C813.942 209.66 813.041 208.803 811.188 208.401L809.513 208.043C808.516 207.819 808.119 207.474 808.126 206.905C808.119 206.24 808.854 205.78 809.82 205.78C810.887 205.78 811.45 206.362 811.629 207.007L813.738 206.777Z" fill="black"/>
<path d="M184.801 77H187.172V72.5767H189.678C192.702 72.5767 194.325 70.7614 194.325 68.2429C194.325 65.7436 192.721 63.9091 189.71 63.9091H184.801V77ZM187.172 70.6271V65.8906H189.346C191.123 65.8906 191.909 66.8494 191.909 68.2429C191.909 69.6364 191.123 70.6271 189.358 70.6271H187.172ZM197.721 80.6626C199.523 80.6626 200.565 79.7294 201.121 78.1889L205.065 67.1946L202.592 67.1818L200.322 74.5966H200.22L197.957 67.1818H195.503L199.063 77.2045L198.865 77.7351C198.424 78.8217 197.759 78.9048 196.749 78.6172L196.212 80.4134C196.526 80.5476 197.088 80.6626 197.721 80.6626ZM211.574 67.1818H209.637V64.8295H207.323V67.1818H205.93V68.9716H207.323V74.4304C207.311 76.2777 208.653 77.1854 210.392 77.1342C211.05 77.1151 211.504 76.9872 211.753 76.9041L211.363 75.0952C211.235 75.1271 210.973 75.1847 210.686 75.1847C210.104 75.1847 209.637 74.9801 209.637 74.0469V68.9716H211.574V67.1818ZM216.034 71.2472C216.034 69.8281 216.916 69.0099 218.156 69.0099C219.371 69.0099 220.087 69.7834 220.087 71.1065V77H222.401V70.7486C222.401 68.3771 221.058 67.054 219.019 67.054C217.511 67.054 216.552 67.7379 216.098 68.8501H215.983V63.9091H213.72V77H216.034V71.2472ZM229.042 77.1918C231.918 77.1918 233.746 75.1655 233.746 72.1293C233.746 69.0866 231.918 67.054 229.042 67.054C226.165 67.054 224.337 69.0866 224.337 72.1293C224.337 75.1655 226.165 77.1918 229.042 77.1918ZM229.055 75.3381C227.463 75.3381 226.683 73.919 226.683 72.1229C226.683 70.3267 227.463 68.8885 229.055 68.8885C230.621 68.8885 231.401 70.3267 231.401 72.1229C231.401 73.919 230.621 75.3381 229.055 75.3381ZM238.024 71.2472C238.024 69.8281 238.881 69.0099 240.102 69.0099C241.297 69.0099 242.013 69.7962 242.013 71.1065V77H244.327V70.7486C244.333 68.3963 242.991 67.054 240.965 67.054C239.494 67.054 238.485 67.7571 238.037 68.8501H237.922V67.1818H235.71V77H238.024V71.2472Z" fill="black"/>
<rect x="137.5" y="101.5" width="140" height="22" rx="5.5" stroke="black" stroke-width="3"/>
<path d="M171.865 118.192C174.742 118.192 176.57 116.165 176.57 113.129C176.57 110.087 174.742 108.054 171.865 108.054C168.989 108.054 167.161 110.087 167.161 113.129C167.161 116.165 168.989 118.192 171.865 118.192ZM171.878 116.338C170.286 116.338 169.506 114.919 169.506 113.123C169.506 111.327 170.286 109.888 171.878 109.888C173.444 109.888 174.224 111.327 174.224 113.123C174.224 114.919 173.444 116.338 171.878 116.338ZM178.534 121.682H180.848V116.453H180.943C181.308 117.169 182.068 118.173 183.756 118.173C186.07 118.173 187.802 116.338 187.802 113.104C187.802 109.831 186.019 108.054 183.75 108.054C182.017 108.054 181.295 109.096 180.943 109.805H180.809V108.182H178.534V121.682ZM180.803 113.091C180.803 111.186 181.621 109.952 183.11 109.952C184.651 109.952 185.443 111.263 185.443 113.091C185.443 114.932 184.638 116.274 183.11 116.274C181.634 116.274 180.803 114.996 180.803 113.091ZM194.686 108.182H192.75V105.83H190.436V108.182H189.042V109.972H190.436V115.43C190.423 117.278 191.765 118.185 193.504 118.134C194.162 118.115 194.616 117.987 194.865 117.904L194.475 116.095C194.348 116.127 194.085 116.185 193.798 116.185C193.216 116.185 192.75 115.98 192.75 115.047V109.972H194.686V108.182ZM196.622 118H198.935V108.182H196.622V118ZM197.785 106.788C198.52 106.788 199.121 106.226 199.121 105.536C199.121 104.839 198.52 104.276 197.785 104.276C197.043 104.276 196.443 104.839 196.443 105.536C196.443 106.226 197.043 106.788 197.785 106.788ZM201.315 118H203.629V112.03C203.629 110.822 204.434 110.004 205.431 110.004C206.409 110.004 207.081 110.662 207.081 111.672V118H209.35V111.876C209.35 110.771 210.008 110.004 211.127 110.004C212.06 110.004 212.801 110.553 212.801 111.768V118H215.122V111.41C215.122 109.217 213.856 108.054 212.054 108.054C210.628 108.054 209.541 108.757 209.107 109.85H209.005C208.627 108.738 207.675 108.054 206.352 108.054C205.035 108.054 204.051 108.732 203.642 109.85H203.527V108.182H201.315V118ZM217.469 118H219.783V108.182H217.469V118ZM218.633 106.788C219.368 106.788 219.968 106.226 219.968 105.536C219.968 104.839 219.368 104.276 218.633 104.276C217.891 104.276 217.29 104.839 217.29 105.536C217.29 106.226 217.891 106.788 218.633 106.788ZM222.035 118H230.095V116.082H225.109V115.999L229.929 109.761V108.182H222.201V110.099H227.097V110.183L222.035 116.53V118ZM236.335 118.192C238.624 118.192 240.196 117.073 240.605 115.366L238.445 115.124C238.131 115.955 237.364 116.389 236.367 116.389C234.872 116.389 233.881 115.405 233.862 113.724H240.701V113.014C240.701 109.569 238.63 108.054 236.214 108.054C233.401 108.054 231.567 110.119 231.567 113.148C231.567 116.229 233.376 118.192 236.335 118.192ZM233.868 112.164C233.938 110.911 234.865 109.857 236.246 109.857C237.575 109.857 238.47 110.828 238.483 112.164H233.868ZM242.659 118H244.973V112.228C244.973 110.982 245.912 110.099 247.184 110.099C247.574 110.099 248.06 110.17 248.258 110.234V108.105C248.047 108.067 247.683 108.041 247.427 108.041C246.302 108.041 245.362 108.68 245.005 109.818H244.902V108.182H242.659V118Z" fill="black"/>
<path d="M114.339 294H116.71V289.577H119.216C122.24 289.577 123.863 287.761 123.863 285.243C123.863 282.744 122.259 280.909 119.248 280.909H114.339V294ZM116.71 287.627V282.891H118.884C120.661 282.891 121.447 283.849 121.447 285.243C121.447 286.636 120.661 287.627 118.897 287.627H116.71ZM129.963 294.192C132.839 294.192 134.667 292.165 134.667 289.129C134.667 286.087 132.839 284.054 129.963 284.054C127.086 284.054 125.258 286.087 125.258 289.129C125.258 292.165 127.086 294.192 129.963 294.192ZM129.976 292.338C128.384 292.338 127.604 290.919 127.604 289.123C127.604 287.327 128.384 285.888 129.976 285.888C131.542 285.888 132.321 287.327 132.321 289.123C132.321 290.919 131.542 292.338 129.976 292.338ZM144.391 286.777C144.072 285.115 142.742 284.054 140.441 284.054C138.076 284.054 136.465 285.217 136.472 287.033C136.465 288.464 137.347 289.411 139.233 289.8L140.908 290.152C141.809 290.35 142.231 290.714 142.231 291.271C142.231 291.942 141.502 292.447 140.403 292.447C139.342 292.447 138.651 291.987 138.453 291.104L136.197 291.322C136.484 293.124 137.999 294.192 140.409 294.192C142.864 294.192 144.596 292.92 144.602 291.06C144.596 289.66 143.695 288.803 141.841 288.401L140.166 288.043C139.169 287.819 138.773 287.474 138.779 286.905C138.773 286.24 139.508 285.78 140.473 285.78C141.54 285.78 142.103 286.362 142.282 287.007L144.391 286.777ZM151.413 284.182H149.476V281.83H147.162V284.182H145.769V285.972H147.162V291.43C147.149 293.278 148.492 294.185 150.23 294.134C150.889 294.115 151.343 293.987 151.592 293.904L151.202 292.095C151.074 292.127 150.812 292.185 150.524 292.185C149.943 292.185 149.476 291.98 149.476 291.047V285.972H151.413V284.182ZM158.983 287.595H153.089V289.5H158.983V287.595ZM161.416 297.682H163.73V292.453H163.826C164.191 293.169 164.951 294.173 166.639 294.173C168.953 294.173 170.685 292.338 170.685 289.104C170.685 285.831 168.902 284.054 166.632 284.054C164.9 284.054 164.178 285.096 163.826 285.805H163.692V284.182H161.416V297.682ZM163.686 289.091C163.686 287.186 164.504 285.952 165.993 285.952C167.534 285.952 168.326 287.263 168.326 289.091C168.326 290.932 167.521 292.274 165.993 292.274C164.517 292.274 163.686 290.996 163.686 289.091ZM172.666 294H174.98V288.228C174.98 286.982 175.92 286.099 177.192 286.099C177.582 286.099 178.068 286.17 178.266 286.234V284.105C178.055 284.067 177.691 284.041 177.435 284.041C176.31 284.041 175.37 284.68 175.012 285.818H174.91V284.182H172.666V294ZM183.682 294.192C186.558 294.192 188.386 292.165 188.386 289.129C188.386 286.087 186.558 284.054 183.682 284.054C180.805 284.054 178.977 286.087 178.977 289.129C178.977 292.165 180.805 294.192 183.682 294.192ZM183.694 292.338C182.103 292.338 181.323 290.919 181.323 289.123C181.323 287.327 182.103 285.888 183.694 285.888C185.26 285.888 186.04 287.327 186.04 289.123C186.04 290.919 185.26 292.338 183.694 292.338ZM194.633 294.192C197.1 294.192 198.672 292.728 198.839 290.644H196.627C196.429 291.699 195.668 292.306 194.652 292.306C193.207 292.306 192.274 291.098 192.274 289.091C192.274 287.109 193.226 285.92 194.652 285.92C195.764 285.92 196.448 286.636 196.627 287.582H198.839C198.679 285.454 197.017 284.054 194.62 284.054C191.744 284.054 189.928 286.131 189.928 289.129C189.928 292.102 191.699 294.192 194.633 294.192ZM205.085 294.192C207.374 294.192 208.946 293.073 209.355 291.366L207.195 291.124C206.881 291.955 206.114 292.389 205.117 292.389C203.622 292.389 202.631 291.405 202.612 289.724H209.451V289.014C209.451 285.569 207.38 284.054 204.964 284.054C202.151 284.054 200.317 286.119 200.317 289.148C200.317 292.229 202.126 294.192 205.085 294.192ZM202.618 288.164C202.688 286.911 203.615 285.857 204.996 285.857C206.325 285.857 207.22 286.828 207.233 288.164H202.618ZM219.169 286.777C218.849 285.115 217.519 284.054 215.218 284.054C212.853 284.054 211.242 285.217 211.249 287.033C211.242 288.464 212.125 289.411 214.01 289.8L215.685 290.152C216.586 290.35 217.008 290.714 217.008 291.271C217.008 291.942 216.279 292.447 215.18 292.447C214.119 292.447 213.429 291.987 213.23 291.104L210.974 291.322C211.262 293.124 212.777 294.192 215.186 294.192C217.641 294.192 219.373 292.92 219.38 291.06C219.373 289.66 218.472 288.803 216.618 288.401L214.943 288.043C213.946 287.819 213.55 287.474 213.556 286.905C213.55 286.24 214.285 285.78 215.25 285.78C216.318 285.78 216.88 286.362 217.059 287.007L219.169 286.777ZM229.047 286.777C228.728 285.115 227.398 284.054 225.097 284.054C222.732 284.054 221.121 285.217 221.128 287.033C221.121 288.464 222.003 289.411 223.889 289.8L225.564 290.152C226.465 290.35 226.887 290.714 226.887 291.271C226.887 291.942 226.158 292.447 225.059 292.447C223.998 292.447 223.307 291.987 223.109 291.104L220.853 291.322C221.141 293.124 222.655 294.192 225.065 294.192C227.52 294.192 229.252 292.92 229.258 291.06C229.252 289.66 228.351 288.803 226.497 288.401L224.822 288.043C223.825 287.819 223.429 287.474 223.435 286.905C223.429 286.24 224.164 285.78 225.129 285.78C226.197 285.78 226.759 286.362 226.938 287.007L229.047 286.777ZM235.513 294.192C237.801 294.192 239.374 293.073 239.783 291.366L237.622 291.124C237.309 291.955 236.542 292.389 235.545 292.389C234.049 292.389 233.059 291.405 233.039 289.724H239.879V289.014C239.879 285.569 237.808 284.054 235.392 284.054C232.579 284.054 230.745 286.119 230.745 289.148C230.745 292.229 232.554 294.192 235.513 294.192ZM233.046 288.164C233.116 286.911 234.043 285.857 235.424 285.857C236.753 285.857 237.648 286.828 237.661 288.164H233.046ZM245.48 294.173C247.167 294.173 247.928 293.169 248.292 292.453H248.433V294H250.709V280.909H248.388V285.805H248.292C247.941 285.096 247.218 284.054 245.486 284.054C243.217 284.054 241.434 285.831 241.434 289.104C241.434 292.338 243.166 294.173 245.48 294.173ZM246.125 292.274C244.598 292.274 243.792 290.932 243.792 289.091C243.792 287.263 244.585 285.952 246.125 285.952C247.615 285.952 248.433 287.186 248.433 289.091C248.433 290.996 247.602 292.274 246.125 292.274ZM257.639 294H259.953V288.228C259.953 286.982 260.893 286.099 262.165 286.099C262.555 286.099 263.04 286.17 263.239 286.234V284.105C263.028 284.067 262.663 284.041 262.408 284.041C261.283 284.041 260.343 284.68 259.985 285.818H259.883V284.182H257.639V294ZM268.718 294.192C271.006 294.192 272.579 293.073 272.988 291.366L270.828 291.124C270.514 291.955 269.747 292.389 268.75 292.389C267.254 292.389 266.264 291.405 266.244 289.724H273.084V289.014C273.084 285.569 271.013 284.054 268.597 284.054C265.784 284.054 263.95 286.119 263.95 289.148C263.95 292.229 265.759 294.192 268.718 294.192ZM266.251 288.164C266.321 286.911 267.248 285.857 268.629 285.857C269.958 285.857 270.853 286.828 270.866 288.164H266.251ZM282.801 286.777C282.482 285.115 281.152 284.054 278.851 284.054C276.486 284.054 274.875 285.217 274.882 287.033C274.875 288.464 275.757 289.411 277.643 289.8L279.318 290.152C280.219 290.35 280.641 290.714 280.641 291.271C280.641 291.942 279.912 292.447 278.813 292.447C277.752 292.447 277.061 291.987 276.863 291.104L274.607 291.322C274.894 293.124 276.409 294.192 278.819 294.192C281.274 294.192 283.006 292.92 283.012 291.06C283.006 289.66 282.105 288.803 280.251 288.401L278.576 288.043C277.579 287.819 277.183 287.474 277.189 286.905C277.183 286.24 277.918 285.78 278.883 285.78C279.951 285.78 280.513 286.362 280.692 287.007L282.801 286.777ZM291.178 289.871C291.178 291.366 290.111 292.108 289.088 292.108C287.976 292.108 287.234 291.322 287.234 290.075V284.182H284.92V290.433C284.92 292.792 286.263 294.128 288.193 294.128C289.663 294.128 290.699 293.354 291.146 292.255H291.248V294H293.492V284.182H291.178V289.871ZM298.185 280.909H295.872V294H298.185V280.909ZM305.468 284.182H303.531V281.83H301.217V284.182H299.823V285.972H301.217V291.43C301.204 293.278 302.546 294.185 304.285 294.134C304.943 294.115 305.397 293.987 305.647 293.904L305.257 292.095C305.129 292.127 304.867 292.185 304.579 292.185C303.997 292.185 303.531 291.98 303.531 291.047V285.972H305.468V284.182ZM315.022 286.777C314.703 285.115 313.373 284.054 311.072 284.054C308.707 284.054 307.096 285.217 307.102 287.033C307.096 288.464 307.978 289.411 309.864 289.8L311.538 290.152C312.44 290.35 312.862 290.714 312.862 291.271C312.862 291.942 312.133 292.447 311.033 292.447C309.972 292.447 309.282 291.987 309.084 291.104L306.828 291.322C307.115 293.124 308.63 294.192 311.04 294.192C313.494 294.192 315.227 292.92 315.233 291.06C315.227 289.66 314.325 288.803 312.472 288.401L310.797 288.043C309.8 287.819 309.403 287.474 309.41 286.905C309.403 286.24 310.139 285.78 311.104 285.78C312.171 285.78 312.734 286.362 312.913 287.007L315.022 286.777Z" fill="black"/>
<path d="M783.293 114.707C783.683 115.098 784.317 115.098 784.707 114.707L791.071 108.343C791.462 107.953 791.462 107.319 791.071 106.929C790.681 106.538 790.047 106.538 789.657 106.929L784 112.586L778.343 106.929C777.953 106.538 777.319 106.538 776.929 106.929C776.538 107.319 776.538 107.953 776.929 108.343L783.293 114.707ZM783 96L783 114L785 114L785 96L783 96Z" fill="black"/>
<path d="M638.707 71.7071C639.098 71.3166 639.098 70.6834 638.707 70.2929L632.343 63.9289C631.953 63.5384 631.319 63.5384 630.929 63.9289C630.538 64.3195 630.538 64.9526 630.929 65.3431L636.586 71L630.929 76.6569C630.538 77.0474 630.538 77.6805 630.929 78.0711C631.319 78.4616 631.953 78.4616 632.343 78.0711L638.707 71.7071ZM348 72H638V70H348V72Z" fill="black"/>
<path d="M638.707 137.707C639.098 137.317 639.098 136.683 638.707 136.293L632.343 129.929C631.953 129.538 631.319 129.538 630.929 129.929C630.538 130.319 630.538 130.953 630.929 131.343L636.586 137L630.929 142.657C630.538 143.047 630.538 143.681 630.929 144.071C631.319 144.462 631.953 144.462 632.343 144.071L638.707 137.707ZM348 138H638V136H348V138Z" fill="black"/>
<path d="M783.293 182.707C783.683 183.098 784.317 183.098 784.707 182.707L791.071 176.343C791.462 175.953 791.462 175.319 791.071 174.929C790.681 174.538 790.047 174.538 789.657 174.929L784 180.586L778.343 174.929C777.953 174.538 777.319 174.538 776.929 174.929C776.538 175.319 776.538 175.953 776.929 176.343L783.293 182.707ZM783 164L783 182L785 182L785 164L783 164Z" fill="black"/>
<path d="M347.293 207.293C346.902 207.683 346.902 208.317 347.293 208.707L353.657 215.071C354.047 215.462 354.681 215.462 355.071 215.071C355.462 214.681 355.462 214.047 355.071 213.657L349.414 208L355.071 202.343C355.462 201.953 355.462 201.319 355.071 200.929C354.681 200.538 354.047 200.538 353.657 200.929L347.293 207.293ZM649 207L348 207L348 209L649 209L649 207Z" fill="black"/>
<path d="M215.293 261.707C215.683 262.098 216.317 262.098 216.707 261.707L223.071 255.343C223.462 254.953 223.462 254.319 223.071 253.929C222.681 253.538 222.047 253.538 221.657 253.929L216 259.586L210.343 253.929C209.953 253.538 209.319 253.538 208.929 253.929C208.538 254.319 208.538 254.953 208.929 255.343L215.293 261.707ZM215 235L215 261L217 261L217 235L215 235Z" fill="black"/>
<path d="M428.602 49H430.239C429.753 46.4688 427.631 44.7301 424.869 44.7301C421.514 44.7301 419.142 47.3125 419.142 51.4545C419.142 55.5966 421.494 58.179 424.972 58.179C428.091 58.179 430.316 56.1016 430.316 52.8608V51.4545H425.33V52.8608H428.781C428.737 55.2131 427.19 56.696 424.972 56.696C422.543 56.696 420.676 54.8551 420.676 51.4545C420.676 48.054 422.543 46.2131 424.869 46.2131C426.762 46.2131 428.046 47.2805 428.602 49ZM436.942 58.2045C438.937 58.2045 440.394 57.2074 440.854 55.7244L439.397 55.3153C439.013 56.3381 438.125 56.8494 436.942 56.8494C435.172 56.8494 433.951 55.7053 433.881 53.6023H441.008V52.9631C441.008 49.3068 438.835 48.054 436.789 48.054C434.13 48.054 432.366 50.1506 432.366 53.1676C432.366 56.1847 434.104 58.2045 436.942 58.2045ZM433.881 52.2983C433.983 50.7706 435.063 49.4091 436.789 49.4091C438.425 49.4091 439.474 50.6364 439.474 52.2983H433.881ZM444.811 52.0938C444.811 50.3807 445.872 49.4091 447.317 49.4091C448.717 49.4091 449.567 50.3232 449.567 51.8636V58H451.075V51.7614C451.075 49.2557 449.739 48.054 447.751 48.054C446.268 48.054 445.348 48.7188 444.888 49.7159H444.76V48.1818H443.303V58H444.811V52.0938ZM457.948 58.2045C459.943 58.2045 461.4 57.2074 461.86 55.7244L460.403 55.3153C460.019 56.3381 459.131 56.8494 457.948 56.8494C456.178 56.8494 454.957 55.7053 454.887 53.6023H462.014V52.9631C462.014 49.3068 459.84 48.054 457.795 48.054C455.136 48.054 453.372 50.1506 453.372 53.1676C453.372 56.1847 455.11 58.2045 457.948 58.2045ZM454.887 52.2983C454.989 50.7706 456.069 49.4091 457.795 49.4091C459.431 49.4091 460.48 50.6364 460.48 52.2983H454.887ZM464.308 58H465.817V51.7869C465.817 50.4574 466.865 49.4858 468.297 49.4858C468.7 49.4858 469.115 49.5625 469.218 49.5881V48.054C469.045 48.0412 468.649 48.0284 468.425 48.0284C467.249 48.0284 466.226 48.6932 465.868 49.6648H465.766V48.1818H464.308V58ZM473.895 58.2301C475.608 58.2301 476.503 57.3097 476.81 56.6705H476.886V58H478.395V51.5312C478.395 48.4119 476.017 48.054 474.764 48.054C473.281 48.054 471.594 48.5653 470.827 50.3551L472.259 50.8665C472.591 50.1506 473.377 49.3835 474.815 49.3835C476.202 49.3835 476.886 50.1186 476.886 51.3778V51.429C476.886 52.1577 476.145 52.0938 474.355 52.3239C472.533 52.5604 470.545 52.9631 470.545 55.2131C470.545 57.1307 472.028 58.2301 473.895 58.2301ZM474.125 56.875C472.923 56.875 472.054 56.3381 472.054 55.2898C472.054 54.1392 473.102 53.7812 474.278 53.6278C474.918 53.5511 476.631 53.3722 476.886 53.0653V54.446C476.886 55.6733 475.915 56.875 474.125 56.875ZM485.418 48.1818H483.322V45.8295H481.813V48.1818H480.33V49.4602H481.813V55.5966C481.813 57.3097 483.194 58.1278 484.472 58.1278C485.035 58.1278 485.393 58.0256 485.597 57.9489L485.29 56.5938C485.162 56.6193 484.958 56.6705 484.626 56.6705C483.961 56.6705 483.322 56.4659 483.322 55.1875V49.4602H485.418V48.1818ZM491.698 58.2045C493.693 58.2045 495.15 57.2074 495.61 55.7244L494.153 55.3153C493.769 56.3381 492.881 56.8494 491.698 56.8494C489.928 56.8494 488.707 55.7053 488.637 53.6023H495.764V52.9631C495.764 49.3068 493.59 48.054 491.545 48.054C488.886 48.054 487.122 50.1506 487.122 53.1676C487.122 56.1847 488.86 58.2045 491.698 58.2045ZM488.637 52.2983C488.739 50.7706 489.819 49.4091 491.545 49.4091C493.181 49.4091 494.23 50.6364 494.23 52.2983H488.637ZM503.121 58H504.629V51.7869C504.629 50.4574 505.678 49.4858 507.11 49.4858C507.512 49.4858 507.928 49.5625 508.03 49.5881V48.054C507.857 48.0412 507.461 48.0284 507.237 48.0284C506.061 48.0284 505.039 48.6932 504.681 49.6648H504.578V48.1818H503.121V58ZM516.006 53.9858C516.006 55.8267 514.599 56.6705 513.474 56.6705C512.222 56.6705 511.327 55.75 511.327 54.3182V48.1818H509.818V54.4205C509.818 56.9261 511.148 58.1278 512.989 58.1278C514.472 58.1278 515.443 57.3352 515.903 56.3381H516.006V58H517.514V48.1818H516.006V53.9858ZM521.786 52.0938C521.786 50.3807 522.847 49.4091 524.291 49.4091C525.691 49.4091 526.541 50.3232 526.541 51.8636V58H528.05V51.7614C528.05 49.2557 526.714 48.054 524.726 48.054C523.243 48.054 522.323 48.7188 521.862 49.7159H521.735V48.1818H520.277V58H521.786V52.0938ZM535.179 48.1818H532.98V47.1847C532.98 46.2131 533.389 45.7017 534.386 45.7017C534.821 45.7017 535.076 45.804 535.23 45.8551L535.664 44.5511C535.434 44.4489 534.974 44.2955 534.233 44.2955C532.826 44.2955 531.471 45.1392 531.471 46.8267V48.1818H529.886V49.4602H531.471V58H532.98V49.4602H535.179V48.1818ZM537.293 58H538.801V48.1818H537.293V58ZM538.06 46.5455C538.648 46.5455 539.134 46.0852 539.134 45.5227C539.134 44.9602 538.648 44.5 538.06 44.5C537.472 44.5 536.986 44.9602 536.986 45.5227C536.986 46.0852 537.472 46.5455 538.06 46.5455ZM543.073 44.9091H541.564V58H543.073V44.9091ZM549.952 58.2045C551.947 58.2045 553.404 57.2074 553.864 55.7244L552.407 55.3153C552.023 56.3381 551.135 56.8494 549.952 56.8494C548.182 56.8494 546.961 55.7053 546.89 53.6023H554.018V52.9631C554.018 49.3068 551.844 48.054 549.799 48.054C547.14 48.054 545.376 50.1506 545.376 53.1676C545.376 56.1847 547.114 58.2045 549.952 58.2045ZM546.89 52.2983C546.993 50.7706 548.073 49.4091 549.799 49.4091C551.435 49.4091 552.483 50.6364 552.483 52.2983H546.89Z" fill="black"/>
<path d="M428.07 111.182H429.605C429.534 109.207 427.713 107.73 425.181 107.73C422.676 107.73 420.707 109.188 420.707 111.386C420.707 113.151 421.985 114.199 424.031 114.787L425.642 115.247C427.022 115.631 428.249 116.116 428.249 117.42C428.249 118.852 426.869 119.798 425.053 119.798C423.494 119.798 422.113 119.108 421.985 117.625H420.349C420.502 119.773 422.241 121.23 425.053 121.23C428.07 121.23 429.784 119.568 429.784 117.446C429.784 114.991 427.457 114.199 426.102 113.841L424.772 113.483C423.801 113.227 422.241 112.716 422.241 111.31C422.241 110.057 423.392 109.136 425.13 109.136C426.715 109.136 427.917 109.891 428.07 111.182ZM436.455 111.182H434.359V108.83H432.85V111.182H431.367V112.46H432.85V118.597C432.85 120.31 434.231 121.128 435.509 121.128C436.072 121.128 436.43 121.026 436.634 120.949L436.327 119.594C436.2 119.619 435.995 119.67 435.663 119.67C434.998 119.67 434.359 119.466 434.359 118.188V112.46H436.455V111.182ZM441.614 121.23C443.327 121.23 444.222 120.31 444.528 119.67H444.605V121H446.114V114.531C446.114 111.412 443.736 111.054 442.483 111.054C441 111.054 439.312 111.565 438.545 113.355L439.977 113.866C440.31 113.151 441.096 112.384 442.534 112.384C443.921 112.384 444.605 113.119 444.605 114.378V114.429C444.605 115.158 443.864 115.094 442.074 115.324C440.252 115.56 438.264 115.963 438.264 118.213C438.264 120.131 439.747 121.23 441.614 121.23ZM441.844 119.875C440.642 119.875 439.773 119.338 439.773 118.29C439.773 117.139 440.821 116.781 441.997 116.628C442.636 116.551 444.349 116.372 444.605 116.065V117.446C444.605 118.673 443.634 119.875 441.844 119.875ZM448.867 121H450.376V114.787C450.376 113.457 451.424 112.486 452.856 112.486C453.258 112.486 453.674 112.562 453.776 112.588V111.054C453.604 111.041 453.207 111.028 452.983 111.028C451.807 111.028 450.785 111.693 450.427 112.665H450.324V111.182H448.867V121ZM460.449 111.182H458.353V108.83H456.844V111.182H455.361V112.46H456.844V118.597C456.844 120.31 458.225 121.128 459.503 121.128C460.066 121.128 460.424 121.026 460.628 120.949L460.322 119.594C460.194 119.619 459.989 119.67 459.657 119.67C458.992 119.67 458.353 119.466 458.353 118.188V112.46H460.449V111.182ZM474.736 113.381C474.263 111.987 473.202 111.054 471.258 111.054C469.187 111.054 467.653 112.23 467.653 113.892C467.653 115.247 468.459 116.155 470.261 116.577L471.898 116.96C472.888 117.19 473.355 117.663 473.355 118.341C473.355 119.185 472.46 119.875 471.054 119.875C469.82 119.875 469.047 119.344 468.778 118.29L467.346 118.648C467.698 120.316 469.072 121.205 471.079 121.205C473.361 121.205 474.915 119.958 474.915 118.264C474.915 116.896 474.058 116.033 472.307 115.605L470.849 115.247C469.686 114.96 469.162 114.57 469.162 113.815C469.162 112.972 470.057 112.358 471.258 112.358C472.575 112.358 473.118 113.087 473.381 113.764L474.736 113.381ZM477.185 121H478.694V111.182H477.185V121ZM477.952 109.545C478.54 109.545 479.026 109.085 479.026 108.523C479.026 107.96 478.54 107.5 477.952 107.5C477.364 107.5 476.879 107.96 476.879 108.523C476.879 109.085 477.364 109.545 477.952 109.545ZM481.457 121H482.965V114.864C482.965 113.425 484.014 112.409 485.19 112.409C486.334 112.409 487.133 113.157 487.133 114.276V121H488.667V114.608C488.667 113.342 489.46 112.409 490.84 112.409C491.914 112.409 492.835 112.978 492.835 114.429V121H494.343V114.429C494.343 112.121 493.103 111.054 491.352 111.054C489.945 111.054 488.916 111.7 488.411 112.716H488.309C487.823 111.668 486.967 111.054 485.676 111.054C484.397 111.054 483.451 111.668 483.042 112.716H482.914V111.182H481.457V121ZM503.289 116.986C503.289 118.827 501.883 119.67 500.758 119.67C499.505 119.67 498.61 118.75 498.61 117.318V111.182H497.101V117.42C497.101 119.926 498.431 121.128 500.272 121.128C501.755 121.128 502.726 120.335 503.187 119.338H503.289V121H504.797V111.182H503.289V116.986ZM509.069 107.909H507.56V121H509.069V107.909ZM514.721 121.23C516.434 121.23 517.329 120.31 517.636 119.67H517.713V121H519.221V114.531C519.221 111.412 516.843 111.054 515.59 111.054C514.107 111.054 512.42 111.565 511.653 113.355L513.085 113.866C513.417 113.151 514.203 112.384 515.642 112.384C517.029 112.384 517.713 113.119 517.713 114.378V114.429C517.713 115.158 516.971 115.094 515.181 115.324C513.36 115.56 511.372 115.963 511.372 118.213C511.372 120.131 512.855 121.23 514.721 121.23ZM514.951 119.875C513.749 119.875 512.88 119.338 512.88 118.29C512.88 117.139 513.928 116.781 515.105 116.628C515.744 116.551 517.457 116.372 517.713 116.065V117.446C517.713 118.673 516.741 119.875 514.951 119.875ZM526.244 111.182H524.148V108.83H522.639V111.182H521.156V112.46H522.639V118.597C522.639 120.31 524.02 121.128 525.298 121.128C525.861 121.128 526.219 121.026 526.423 120.949L526.116 119.594C525.989 119.619 525.784 119.67 525.452 119.67C524.787 119.67 524.148 119.466 524.148 118.188V112.46H526.244V111.182ZM528.513 121H530.022V111.182H528.513V121ZM529.281 109.545C529.869 109.545 530.354 109.085 530.354 108.523C530.354 107.96 529.869 107.5 529.281 107.5C528.692 107.5 528.207 107.96 528.207 108.523C528.207 109.085 528.692 109.545 529.281 109.545ZM536.774 121.205C539.433 121.205 541.222 119.185 541.222 116.142C541.222 113.074 539.433 111.054 536.774 111.054C534.115 111.054 532.325 113.074 532.325 116.142C532.325 119.185 534.115 121.205 536.774 121.205ZM536.774 119.849C534.754 119.849 533.833 118.111 533.833 116.142C533.833 114.173 534.754 112.409 536.774 112.409C538.794 112.409 539.714 114.173 539.714 116.142C539.714 118.111 538.794 119.849 536.774 119.849ZM545.034 115.094C545.034 113.381 546.095 112.409 547.539 112.409C548.939 112.409 549.789 113.323 549.789 114.864V121H551.298V114.761C551.298 112.256 549.962 111.054 547.974 111.054C546.491 111.054 545.571 111.719 545.11 112.716H544.983V111.182H543.525V121H545.034V115.094Z" fill="black"/>
<path d="M435.072 186H442.742V184.594H436.657V172.909H435.072V186ZM448.981 186.205C451.64 186.205 453.43 184.185 453.43 181.142C453.43 178.074 451.64 176.054 448.981 176.054C446.322 176.054 444.532 178.074 444.532 181.142C444.532 184.185 446.322 186.205 448.981 186.205ZM448.981 184.849C446.961 184.849 446.04 183.111 446.04 181.142C446.04 179.173 446.961 177.409 448.981 177.409C451.001 177.409 451.921 179.173 451.921 181.142C451.921 183.111 451.001 184.849 448.981 184.849ZM458.621 186.23C460.335 186.23 461.229 185.31 461.536 184.67H461.613V186H463.121V179.531C463.121 176.412 460.744 176.054 459.491 176.054C458.008 176.054 456.32 176.565 455.553 178.355L456.985 178.866C457.317 178.151 458.104 177.384 459.542 177.384C460.929 177.384 461.613 178.119 461.613 179.378V179.429C461.613 180.158 460.871 180.094 459.082 180.324C457.26 180.56 455.272 180.963 455.272 183.213C455.272 185.131 456.755 186.23 458.621 186.23ZM458.852 184.875C457.65 184.875 456.781 184.338 456.781 183.29C456.781 182.139 457.829 181.781 459.005 181.628C459.644 181.551 461.357 181.372 461.613 181.065V182.446C461.613 183.673 460.641 184.875 458.852 184.875ZM469.582 186.205C471.474 186.205 472.113 185.028 472.446 184.491H472.625V186H474.082V172.909H472.574V177.741H472.446C472.113 177.23 471.525 176.054 469.608 176.054C467.128 176.054 465.415 178.023 465.415 181.116C465.415 184.236 467.128 186.205 469.582 186.205ZM469.787 184.849C467.895 184.849 466.923 183.188 466.923 181.091C466.923 179.02 467.869 177.409 469.787 177.409C471.628 177.409 472.599 178.892 472.599 181.091C472.599 183.315 471.602 184.849 469.787 184.849ZM482.117 186H483.626V179.787C483.626 178.457 484.674 177.486 486.106 177.486C486.508 177.486 486.924 177.562 487.026 177.588V176.054C486.854 176.041 486.457 176.028 486.233 176.028C485.057 176.028 484.035 176.693 483.677 177.665H483.574V176.182H482.117V186ZM492.632 186.205C494.626 186.205 496.084 185.207 496.544 183.724L495.086 183.315C494.703 184.338 493.814 184.849 492.632 184.849C490.861 184.849 489.64 183.705 489.57 181.602H496.697V180.963C496.697 177.307 494.524 176.054 492.479 176.054C489.819 176.054 488.055 178.151 488.055 181.168C488.055 184.185 489.794 186.205 492.632 186.205ZM489.57 180.298C489.672 178.771 490.753 177.409 492.479 177.409C494.115 177.409 495.163 178.636 495.163 180.298H489.57ZM505.947 178.381C505.474 176.987 504.412 176.054 502.469 176.054C500.398 176.054 498.864 177.23 498.864 178.892C498.864 180.247 499.67 181.155 501.472 181.577L503.108 181.96C504.099 182.19 504.566 182.663 504.566 183.341C504.566 184.185 503.671 184.875 502.265 184.875C501.031 184.875 500.258 184.344 499.989 183.29L498.557 183.648C498.909 185.316 500.283 186.205 502.29 186.205C504.572 186.205 506.126 184.958 506.126 183.264C506.126 181.896 505.269 181.033 503.518 180.605L502.06 180.247C500.897 179.96 500.373 179.57 500.373 178.815C500.373 177.972 501.268 177.358 502.469 177.358C503.786 177.358 504.329 178.087 504.591 178.764L505.947 178.381ZM514.584 181.986C514.584 183.827 513.178 184.67 512.053 184.67C510.8 184.67 509.905 183.75 509.905 182.318V176.182H508.396V182.42C508.396 184.926 509.726 186.128 511.567 186.128C513.05 186.128 514.021 185.335 514.482 184.338H514.584V186H516.092V176.182H514.584V181.986ZM520.364 172.909H518.855V186H520.364V172.909ZM527.397 176.182H525.3V173.83H523.792V176.182H522.309V177.46H523.792V183.597C523.792 185.31 525.172 186.128 526.451 186.128C527.013 186.128 527.371 186.026 527.576 185.949L527.269 184.594C527.141 184.619 526.936 184.67 526.604 184.67C525.939 184.67 525.3 184.466 525.3 183.188V177.46H527.397V176.182ZM536.445 178.381C535.972 176.987 534.911 176.054 532.967 176.054C530.896 176.054 529.362 177.23 529.362 178.892C529.362 180.247 530.168 181.155 531.97 181.577L533.607 181.96C534.597 182.19 535.064 182.663 535.064 183.341C535.064 184.185 534.169 184.875 532.763 184.875C531.529 184.875 530.756 184.344 530.487 183.29L529.055 183.648C529.407 185.316 530.781 186.205 532.788 186.205C535.07 186.205 536.624 184.958 536.624 183.264C536.624 181.896 535.767 181.033 534.016 180.605L532.558 180.247C531.395 179.96 530.871 179.57 530.871 178.815C530.871 177.972 531.766 177.358 532.967 177.358C534.284 177.358 534.827 178.087 535.089 178.764L536.445 178.381Z" fill="black"/>
<path d="M145.62 153H147.206V147.886H150.069C150.184 147.886 150.293 147.886 150.402 147.88L153.163 153H155.004L152.044 147.592C153.713 147.023 154.493 145.662 154.493 143.923C154.493 141.609 153.112 139.909 150.044 139.909H145.62V153ZM147.206 146.455V141.315H149.993C152.115 141.315 152.933 142.351 152.933 143.923C152.933 145.496 152.115 146.455 150.018 146.455H147.206ZM160.941 153.205C162.935 153.205 164.392 152.207 164.852 150.724L163.395 150.315C163.012 151.338 162.123 151.849 160.941 151.849C159.17 151.849 157.949 150.705 157.879 148.602H165.006V147.963C165.006 144.307 162.833 143.054 160.787 143.054C158.128 143.054 156.364 145.151 156.364 148.168C156.364 151.185 158.102 153.205 160.941 153.205ZM157.879 147.298C157.981 145.771 159.061 144.409 160.787 144.409C162.423 144.409 163.472 145.636 163.472 147.298H157.879ZM167.301 156.682H168.809V151.491H168.937C169.269 152.028 169.909 153.205 171.801 153.205C174.255 153.205 175.968 151.236 175.968 148.116C175.968 145.023 174.255 143.054 171.775 143.054C169.857 143.054 169.269 144.23 168.937 144.741H168.758V143.182H167.301V156.682ZM168.784 148.091C168.784 145.892 169.755 144.409 171.596 144.409C173.514 144.409 174.46 146.02 174.46 148.091C174.46 150.188 173.488 151.849 171.596 151.849C169.781 151.849 168.784 150.315 168.784 148.091ZM182.386 153.205C184.38 153.205 185.838 152.207 186.298 150.724L184.84 150.315C184.457 151.338 183.568 151.849 182.386 151.849C180.615 151.849 179.394 150.705 179.324 148.602H186.451V147.963C186.451 144.307 184.278 143.054 182.232 143.054C179.573 143.054 177.809 145.151 177.809 148.168C177.809 151.185 179.548 153.205 182.386 153.205ZM179.324 147.298C179.426 145.771 180.507 144.409 182.232 144.409C183.869 144.409 184.917 145.636 184.917 147.298H179.324ZM191.635 153.23C193.348 153.23 194.243 152.31 194.55 151.67H194.627V153H196.135V146.531C196.135 143.412 193.757 143.054 192.504 143.054C191.021 143.054 189.334 143.565 188.567 145.355L189.999 145.866C190.331 145.151 191.117 144.384 192.556 144.384C193.943 144.384 194.627 145.119 194.627 146.378V146.429C194.627 147.158 193.885 147.094 192.095 147.324C190.274 147.56 188.286 147.963 188.286 150.213C188.286 152.131 189.769 153.23 191.635 153.23ZM191.865 151.875C190.664 151.875 189.794 151.338 189.794 150.29C189.794 149.139 190.843 148.781 192.019 148.628C192.658 148.551 194.371 148.372 194.627 148.065V149.446C194.627 150.673 193.655 151.875 191.865 151.875ZM203.158 143.182H201.062V140.83H199.553V143.182H198.07V144.46H199.553V150.597C199.553 152.31 200.934 153.128 202.212 153.128C202.775 153.128 203.133 153.026 203.337 152.949L203.031 151.594C202.903 151.619 202.698 151.67 202.366 151.67C201.701 151.67 201.062 151.466 201.062 150.188V144.46H203.158V143.182ZM214.76 143.182H212.663V140.83H211.155V143.182H209.672V144.46H211.155V150.597C211.155 152.31 212.536 153.128 213.814 153.128C214.376 153.128 214.734 153.026 214.939 152.949L214.632 151.594C214.504 151.619 214.3 151.67 213.967 151.67C213.303 151.67 212.663 151.466 212.663 150.188V144.46H214.76V143.182ZM218.749 147.094C218.749 145.381 219.842 144.409 221.331 144.409C222.75 144.409 223.607 145.304 223.607 146.864V153H225.115V146.761C225.115 144.237 223.773 143.054 221.766 143.054C220.219 143.054 219.337 143.7 218.876 144.716H218.749V139.909H217.24V153H218.749V147.094ZM227.875 153H229.383V143.182H227.875V153ZM228.642 141.545C229.23 141.545 229.716 141.085 229.716 140.523C229.716 139.96 229.23 139.5 228.642 139.5C228.054 139.5 227.568 139.96 227.568 140.523C227.568 141.085 228.054 141.545 228.642 141.545ZM239.101 145.381C238.628 143.987 237.567 143.054 235.624 143.054C233.553 143.054 232.018 144.23 232.018 145.892C232.018 147.247 232.824 148.155 234.626 148.577L236.263 148.96C237.254 149.19 237.72 149.663 237.72 150.341C237.72 151.185 236.825 151.875 235.419 151.875C234.185 151.875 233.412 151.344 233.143 150.29L231.712 150.648C232.063 152.316 233.438 153.205 235.445 153.205C237.727 153.205 239.28 151.958 239.28 150.264C239.28 148.896 238.423 148.033 236.672 147.605L235.214 147.247C234.051 146.96 233.527 146.57 233.527 145.815C233.527 144.972 234.422 144.358 235.624 144.358C236.94 144.358 237.484 145.087 237.746 145.764L239.101 145.381ZM253.568 145.381C253.095 143.987 252.034 143.054 250.09 143.054C248.019 143.054 246.485 144.23 246.485 145.892C246.485 147.247 247.291 148.155 249.093 148.577L250.73 148.96C251.72 149.19 252.187 149.663 252.187 150.341C252.187 151.185 251.292 151.875 249.886 151.875C248.652 151.875 247.879 151.344 247.61 150.29L246.178 150.648C246.53 152.316 247.904 153.205 249.911 153.205C252.193 153.205 253.747 151.958 253.747 150.264C253.747 148.896 252.89 148.033 251.139 147.605L249.681 147.247C248.518 146.96 247.994 146.57 247.994 145.815C247.994 144.972 248.889 144.358 250.09 144.358C251.407 144.358 251.95 145.087 252.213 145.764L253.568 145.381ZM260.287 143.182H258.191V140.83H256.682V143.182H255.199V144.46H256.682V150.597C256.682 152.31 258.063 153.128 259.341 153.128C259.904 153.128 260.262 153.026 260.466 152.949L260.159 151.594C260.032 151.619 259.827 151.67 259.495 151.67C258.83 151.67 258.191 151.466 258.191 150.188V144.46H260.287V143.182ZM266.567 153.205C268.562 153.205 270.019 152.207 270.479 150.724L269.022 150.315C268.638 151.338 267.75 151.849 266.567 151.849C264.797 151.849 263.576 150.705 263.506 148.602H270.633V147.963C270.633 144.307 268.46 143.054 266.414 143.054C263.755 143.054 261.991 145.151 261.991 148.168C261.991 151.185 263.729 153.205 266.567 153.205ZM263.506 147.298C263.608 145.771 264.688 144.409 266.414 144.409C268.05 144.409 269.099 145.636 269.099 147.298H263.506ZM272.928 156.682H274.436V151.491H274.564C274.896 152.028 275.536 153.205 277.428 153.205C279.882 153.205 281.595 151.236 281.595 148.116C281.595 145.023 279.882 143.054 277.402 143.054C275.484 143.054 274.896 144.23 274.564 144.741H274.385V143.182H272.928V156.682ZM274.411 148.091C274.411 145.892 275.382 144.409 277.223 144.409C279.141 144.409 280.087 146.02 280.087 148.091C280.087 150.188 279.115 151.849 277.223 151.849C275.408 151.849 274.411 150.315 274.411 148.091ZM290.851 145.381C290.378 143.987 289.317 143.054 287.374 143.054C285.303 143.054 283.768 144.23 283.768 145.892C283.768 147.247 284.574 148.155 286.376 148.577L288.013 148.96C289.004 149.19 289.47 149.663 289.47 150.341C289.47 151.185 288.575 151.875 287.169 151.875C285.935 151.875 285.162 151.344 284.893 150.29L283.462 150.648C283.813 152.316 285.188 153.205 287.195 153.205C289.477 153.205 291.03 151.958 291.03 150.264C291.03 148.896 290.173 148.033 288.422 147.605L286.964 147.247C285.801 146.96 285.277 146.57 285.277 145.815C285.277 144.972 286.172 144.358 287.374 144.358C288.69 144.358 289.234 145.087 289.496 145.764L290.851 145.381ZM295.551 151.21H293.914L293.838 151.926C293.652 153.658 293.288 155.384 293.122 156.196H294.272C294.579 155.327 295.231 153.358 295.448 151.901L295.551 151.21ZM164.295 170.986C164.295 172.827 162.888 173.67 161.763 173.67C160.511 173.67 159.616 172.75 159.616 171.318V165.182H158.107V171.42C158.107 173.926 159.437 175.128 161.278 175.128C162.761 175.128 163.732 174.335 164.192 173.338H164.295V175H165.803V165.182H164.295V170.986ZM170.075 169.094C170.075 167.381 171.136 166.409 172.58 166.409C173.98 166.409 174.83 167.323 174.83 168.864V175H176.339V168.761C176.339 166.256 175.003 165.054 173.015 165.054C171.532 165.054 170.612 165.719 170.151 166.716H170.024V165.182H168.566V175H170.075V169.094ZM183.365 165.182H181.269V162.83H179.76V165.182H178.277V166.46H179.76V172.597C179.76 174.31 181.141 175.128 182.419 175.128C182.982 175.128 183.34 175.026 183.544 174.949L183.238 173.594C183.11 173.619 182.905 173.67 182.573 173.67C181.908 173.67 181.269 173.466 181.269 172.188V166.46H183.365V165.182ZM185.635 175H187.143V165.182H185.635V175ZM186.402 163.545C186.99 163.545 187.475 163.085 187.475 162.523C187.475 161.96 186.99 161.5 186.402 161.5C185.814 161.5 185.328 161.96 185.328 162.523C185.328 163.085 185.814 163.545 186.402 163.545ZM191.415 161.909H189.906V175H191.415V161.909ZM203.229 175.205C205.402 175.205 206.834 173.875 207.089 172.136H205.581C205.3 173.21 204.405 173.849 203.229 173.849C201.439 173.849 200.288 172.366 200.288 170.091C200.288 167.866 201.464 166.409 203.229 166.409C204.558 166.409 205.351 167.227 205.581 168.122H207.089C206.834 166.281 205.274 165.054 203.203 165.054C200.544 165.054 198.78 167.151 198.78 170.142C198.78 173.082 200.467 175.205 203.229 175.205ZM213.283 175.205C215.942 175.205 217.732 173.185 217.732 170.142C217.732 167.074 215.942 165.054 213.283 165.054C210.624 165.054 208.835 167.074 208.835 170.142C208.835 173.185 210.624 175.205 213.283 175.205ZM213.283 173.849C211.263 173.849 210.343 172.111 210.343 170.142C210.343 168.173 211.263 166.409 213.283 166.409C215.303 166.409 216.224 168.173 216.224 170.142C216.224 172.111 215.303 173.849 213.283 173.849ZM221.544 169.094C221.544 167.381 222.605 166.409 224.049 166.409C225.449 166.409 226.299 167.323 226.299 168.864V175H227.808V168.761C227.808 166.256 226.472 165.054 224.484 165.054C223.001 165.054 222.08 165.719 221.62 166.716H221.492V165.182H220.035V175H221.544V169.094ZM230.564 175H232.073V165.182H230.564V175ZM231.331 163.545C231.919 163.545 232.405 163.085 232.405 162.523C232.405 161.96 231.919 161.5 231.331 161.5C230.743 161.5 230.257 161.96 230.257 162.523C230.257 163.085 230.743 163.545 231.331 163.545ZM239.106 165.182H237.009V162.83H235.501V165.182H234.018V166.46H235.501V172.597C235.501 174.31 236.881 175.128 238.16 175.128C238.722 175.128 239.08 175.026 239.285 174.949L238.978 173.594C238.85 173.619 238.645 173.67 238.313 173.67C237.648 173.67 237.009 173.466 237.009 172.188V166.46H239.106V165.182ZM241.375 175H242.883V165.182H241.375V175ZM242.142 163.545C242.73 163.545 243.216 163.085 243.216 162.523C243.216 161.96 242.73 161.5 242.142 161.5C241.554 161.5 241.068 161.96 241.068 162.523C241.068 163.085 241.554 163.545 242.142 163.545ZM249.635 175.205C252.294 175.205 254.084 173.185 254.084 170.142C254.084 167.074 252.294 165.054 249.635 165.054C246.976 165.054 245.186 167.074 245.186 170.142C245.186 173.185 246.976 175.205 249.635 175.205ZM249.635 173.849C247.615 173.849 246.695 172.111 246.695 170.142C246.695 168.173 247.615 166.409 249.635 166.409C251.655 166.409 252.575 168.173 252.575 170.142C252.575 172.111 251.655 173.849 249.635 173.849ZM257.895 169.094C257.895 167.381 258.956 166.409 260.401 166.409C261.801 166.409 262.651 167.323 262.651 168.864V175H264.159V168.761C264.159 166.256 262.823 165.054 260.835 165.054C259.352 165.054 258.432 165.719 257.972 166.716H257.844V165.182H256.387V175H257.895V169.094ZM271.978 175H273.487V165.182H271.978V175ZM272.745 163.545C273.333 163.545 273.819 163.085 273.819 162.523C273.819 161.96 273.333 161.5 272.745 161.5C272.157 161.5 271.672 161.96 271.672 162.523C271.672 163.085 272.157 163.545 272.745 163.545ZM283.204 167.381C282.731 165.987 281.67 165.054 279.727 165.054C277.656 165.054 276.122 166.23 276.122 167.892C276.122 169.247 276.927 170.155 278.73 170.577L280.366 170.96C281.357 171.19 281.824 171.663 281.824 172.341C281.824 173.185 280.929 173.875 279.523 173.875C278.289 173.875 277.515 173.344 277.247 172.29L275.815 172.648C276.167 174.316 277.541 175.205 279.548 175.205C281.83 175.205 283.383 173.958 283.383 172.264C283.383 170.896 282.527 170.033 280.775 169.605L279.318 169.247C278.155 168.96 277.631 168.57 277.631 167.815C277.631 166.972 278.525 166.358 279.727 166.358C281.044 166.358 281.587 167.087 281.849 167.764L283.204 167.381ZM179.649 197H181.158V190.787C181.158 189.457 182.206 188.486 183.638 188.486C184.041 188.486 184.456 188.562 184.558 188.588V187.054C184.386 187.041 183.989 187.028 183.766 187.028C182.59 187.028 181.567 187.693 181.209 188.665H181.107V187.182H179.649V197ZM190.164 197.205C192.158 197.205 193.616 196.207 194.076 194.724L192.619 194.315C192.235 195.338 191.347 195.849 190.164 195.849C188.394 195.849 187.173 194.705 187.102 192.602H194.229V191.963C194.229 188.307 192.056 187.054 190.011 187.054C187.352 187.054 185.587 189.151 185.587 192.168C185.587 195.185 187.326 197.205 190.164 197.205ZM187.102 191.298C187.205 189.771 188.285 188.409 190.011 188.409C191.647 188.409 192.695 189.636 192.695 191.298H187.102ZM199.413 197.23C201.127 197.23 202.021 196.31 202.328 195.67H202.405V197H203.913V190.531C203.913 187.412 201.536 187.054 200.283 187.054C198.8 187.054 197.112 187.565 196.345 189.355L197.777 189.866C198.109 189.151 198.896 188.384 200.334 188.384C201.721 188.384 202.405 189.119 202.405 190.378V190.429C202.405 191.158 201.663 191.094 199.874 191.324C198.052 191.56 196.064 191.963 196.064 194.213C196.064 196.131 197.547 197.23 199.413 197.23ZM199.644 195.875C198.442 195.875 197.573 195.338 197.573 194.29C197.573 193.139 198.621 192.781 199.797 192.628C200.436 192.551 202.149 192.372 202.405 192.065V193.446C202.405 194.673 201.433 195.875 199.644 195.875ZM210.655 197.205C212.829 197.205 214.261 195.875 214.516 194.136H213.008C212.726 195.21 211.832 195.849 210.655 195.849C208.866 195.849 207.715 194.366 207.715 192.091C207.715 189.866 208.891 188.409 210.655 188.409C211.985 188.409 212.778 189.227 213.008 190.122H214.516C214.261 188.281 212.701 187.054 210.63 187.054C207.971 187.054 206.207 189.151 206.207 192.142C206.207 195.082 207.894 197.205 210.655 197.205ZM218.23 191.094C218.23 189.381 219.323 188.409 220.812 188.409C222.231 188.409 223.088 189.304 223.088 190.864V197H224.597V190.761C224.597 188.237 223.254 187.054 221.247 187.054C219.7 187.054 218.818 187.7 218.358 188.716H218.23V183.909H216.722V197H218.23V191.094ZM231.473 197.205C233.467 197.205 234.924 196.207 235.385 194.724L233.927 194.315C233.544 195.338 232.655 195.849 231.473 195.849C229.702 195.849 228.481 194.705 228.411 192.602H235.538V191.963C235.538 188.307 233.365 187.054 231.319 187.054C228.66 187.054 226.896 189.151 226.896 192.168C226.896 195.185 228.635 197.205 231.473 197.205ZM228.411 191.298C228.513 189.771 229.593 188.409 231.319 188.409C232.956 188.409 234.004 189.636 234.004 191.298H228.411ZM240.722 197.23C242.435 197.23 243.33 196.31 243.637 195.67H243.714V197H245.222V190.531C245.222 187.412 242.844 187.054 241.591 187.054C240.108 187.054 238.421 187.565 237.654 189.355L239.086 189.866C239.418 189.151 240.204 188.384 241.642 188.384C243.03 188.384 243.714 189.119 243.714 190.378V190.429C243.714 191.158 242.972 191.094 241.182 191.324C239.361 191.56 237.373 191.963 237.373 194.213C237.373 196.131 238.856 197.23 240.722 197.23ZM240.952 195.875C239.75 195.875 238.881 195.338 238.881 194.29C238.881 193.139 239.929 192.781 241.106 192.628C241.745 192.551 243.458 192.372 243.714 192.065V193.446C243.714 194.673 242.742 195.875 240.952 195.875ZM251.683 197.205C253.575 197.205 254.214 196.028 254.546 195.491H254.725V197H256.183V183.909H254.674V188.741H254.546C254.214 188.23 253.626 187.054 251.708 187.054C249.228 187.054 247.515 189.023 247.515 192.116C247.515 195.236 249.228 197.205 251.683 197.205ZM251.887 195.849C249.995 195.849 249.024 194.188 249.024 192.091C249.024 190.02 249.97 188.409 251.887 188.409C253.728 188.409 254.7 189.892 254.7 192.091C254.7 194.315 253.703 195.849 251.887 195.849ZM260.255 197.102C260.887 197.102 261.405 196.585 261.405 195.952C261.405 195.319 260.887 194.801 260.255 194.801C259.622 194.801 259.104 195.319 259.104 195.952C259.104 196.585 259.622 197.102 260.255 197.102Z" fill="black"/>
<path d="M306 105V111H300" stroke="black" stroke-width="2" stroke-linecap="round" stroke-linejoin="round"/>
<path d="M284 121V115H290" stroke="black" stroke-width="2" stroke-linecap="round" stroke-linejoin="round"/>
<path d="M286.51 110C287.017 108.567 287.879 107.285 289.015 106.275C290.152 105.265 291.525 104.56 293.008 104.224C294.491 103.889 296.035 103.934 297.495 104.357C298.956 104.779 300.285 105.565 301.36 106.64L306 111M284 115L288.64 119.36C289.715 120.435 291.044 121.221 292.505 121.643C293.965 122.066 295.509 122.111 296.992 121.776C298.475 121.44 299.848 120.735 300.985 119.725C302.121 118.715 302.983 117.433 303.49 116" stroke="black" stroke-width="2" stroke-linecap="round" stroke-linejoin="round"/>
</svg>
